<?xml version="1.0" encoding="utf-8"?>
<!-- Generator: Adobe Illustrator 14.0.0, SVG Export Plug-In . SVG Version: 6.00 Build 43363)  -->
<!DOCTYPE svg PUBLIC "-//W3C//DTD SVG 1.1//EN" "http://www.w3.org/Graphics/SVG/1.1/DTD/svg11.dtd">
<svg version="1.1" id="Layer_1" xmlns="http://www.w3.org/2000/svg" xmlns:xlink="http://www.w3.org/1999/xlink" x="0px" y="0px"
	 width="612px" height="792px" viewBox="0 0 612 792" enable-background="new 0 0 612 792" xml:space="preserve">
<g>
	<path fill="#FF0000" d="M108.282,134.495c5.106,3.673,12.095,9.586,19.442,16.934c8.959,8.959,13.887,16.575,14.783,24.28
		c0.807,6.541-1.523,12.812-7.078,18.367c-7.616,7.616-18.367,7.437-25.446,4.122l-0.269,0.269
		c2.508,5.914,0.896,12.186-3.135,19.264c-5.018,8.78-11.11,18.457-12.275,21.951l-13.978-13.978
		c0.896-2.688,4.211-9.049,9.945-18.188c5.914-9.318,5.287-13.887-0.269-19.622l-4.032-4.032l-23.743,23.743l-13.529-13.529
		L108.282,134.495z M95.828,174.006l5.376,5.376c6.81,6.81,14.246,7.436,19.532,2.15c5.465-5.465,4.57-12.095-1.703-18.368
		c-3.314-3.314-5.375-5.017-6.63-5.733L95.828,174.006z"/>
	<path fill="#FF0000" d="M163.291,257.596l-22.22-22.22l-14.336,14.336l24.818,24.818l-11.199,11.199l-38.438-38.438l60.388-60.388
		l37.184,37.184l-11.2,11.2l-23.564-23.564l-12.543,12.543l22.22,22.22L163.291,257.596z"/>
	<path fill="#FF0000" d="M210.773,258.309l-16.307-16.307l11.468-11.468l46.412,46.412l-11.468,11.468l-16.486-16.486l-48.92,48.92
		l-13.619-13.619L210.773,258.309z"/>
	<path fill="#FF0000" d="M258.792,285.005c5.107,3.673,12.096,9.587,19.443,16.934c8.96,8.96,13.888,16.575,14.783,24.28
		c0.807,6.541-1.522,12.813-7.077,18.368c-7.616,7.616-18.368,7.437-25.446,4.121l-0.269,0.269
		c2.509,5.914,0.896,12.186-3.136,19.265c-5.017,8.781-11.11,18.456-12.275,21.951l-13.977-13.978
		c0.896-2.688,4.211-9.049,9.945-18.188c5.913-9.319,5.286-13.889-0.269-19.622l-4.032-4.032l-23.743,23.743l-13.53-13.53
		L258.792,285.005z M246.339,324.518l5.375,5.375c6.81,6.811,14.246,7.438,19.532,2.15c5.465-5.465,4.569-12.096-1.702-18.367
		c-3.315-3.314-5.376-5.018-6.63-5.733L246.339,324.518z"/>
	<path fill="#FF0000" d="M282.709,397.084l-19.8,11.2l-14.066-14.066l78.754-42.021l17.92,17.919l-41.572,79.204l-14.784-14.783
		l10.841-20.159L282.709,397.084z M308.245,402.191l9.048-16.575c2.51-4.659,5.914-10.214,8.602-14.694l-0.179-0.179
		c-4.479,2.688-9.944,6.36-14.425,8.87l-16.396,9.228L308.245,402.191z"/>
	<path fill="#FF0000" d="M355.549,497.699c-3.584-1.254-10.752-5.556-18.01-12.813c-20.876-20.876-18.547-44.709-1.344-61.912
		c20.605-20.606,46.68-17.292,64.957,0.985c7.079,7.079,11.109,13.799,12.186,17.563l-13.618,7.885
		c-1.522-3.854-4.301-8.78-9.229-13.708c-10.753-10.752-25.716-12.634-39.154,0.806c-12.096,12.096-12.543,26.879-0.446,38.977
		c4.211,4.211,9.496,7.884,13.438,9.496L355.549,497.699z"/>
	<path fill="#FF0000" d="M424.891,472.428l-16.307-16.308l11.469-11.468l46.411,46.411l-11.469,11.469l-16.485-16.485l-48.92,48.92
		l-13.619-13.619L424.891,472.428z"/>
	<path fill="#FF0000" d="M474.792,569.099l-22.22-22.22l-14.335,14.335l24.817,24.818l-11.199,11.2l-38.438-38.438l60.389-60.389
		l37.185,37.184l-11.199,11.199l-23.564-23.564l-12.544,12.544l22.221,22.221L474.792,569.099z"/>
	<path fill="#FF0000" d="M520.663,547.056c5.824,4.211,12.902,10.214,19.712,17.022c11.558,11.558,16.934,21.234,18.367,31.27
		c1.611,10.932-1.882,22.311-12.544,32.973c-11.559,11.558-23.743,15.32-34.405,14.515c-11.646-1.075-23.923-8.333-35.749-20.159
		c-7.078-7.078-11.737-12.634-14.604-16.396L520.663,547.056z M485.094,609.863c0.896,1.433,2.867,3.403,4.479,5.017
		c12.364,12.544,27.327,13.888,41.752-0.537c12.544-12.544,11.826-26.521,0-38.348c-2.957-2.957-5.286-4.749-6.719-5.646
		L485.094,609.863z"/>
</g>
</svg>
