<?xml version="1.0" encoding="utf-8"?>
<!-- Generator: Adobe Illustrator 14.0.0, SVG Export Plug-In . SVG Version: 6.00 Build 43363)  -->
<!DOCTYPE svg PUBLIC "-//W3C//DTD SVG 1.1//EN" "http://www.w3.org/Graphics/SVG/1.1/DTD/svg11.dtd">
<svg version="1.1" xmlns="http://www.w3.org/2000/svg" xmlns:xlink="http://www.w3.org/1999/xlink" x="0px" y="0px"
	 width="232.524px" height="38.837px" viewBox="0 0 232.524 38.837" style="enable-background:new 0 0 232.524 38.837;"
	 xml:space="preserve">
<g id="Layer_1">
</g>
<g id="Layer_2">
	<g id="theGroup">
		<g>
			<path style="fill:none;stroke:#000000;stroke-width:0.5313;stroke-miterlimit:10;" d="M69.507,20.94h37.688 M143.601,20.94
				h52.438"/>
			<g>
				<path d="M9.736,16.392c-0.007,0.037-0.026,0.066-0.055,0.088s-0.062,0.033-0.099,0.033c-0.132,0-0.263,0.011-0.391,0.033
					c-0.128,0.022-0.248,0.073-0.357,0.154c-0.088,0.059-0.16,0.134-0.215,0.226c-0.055,0.092-0.097,0.189-0.126,0.292l-0.99,3.971
					C7.415,21.54,7.275,21.88,7.085,22.21c-0.191,0.33-0.433,0.635-0.726,0.913c-0.257,0.242-0.541,0.438-0.853,0.589
					c-0.312,0.15-0.629,0.226-0.952,0.226c-0.352,0-0.664-0.071-0.935-0.215c-0.271-0.143-0.491-0.339-0.66-0.588
					c-0.184-0.265-0.295-0.565-0.335-0.902c-0.041-0.337-0.017-0.686,0.071-1.045l1.078-4.279c0.044-0.176,0.033-0.282-0.033-0.319
					c-0.059-0.037-0.163-0.059-0.313-0.066s-0.31-0.011-0.479-0.011c-0.037,0-0.064-0.011-0.083-0.033
					c-0.018-0.022-0.02-0.051-0.005-0.088l0.022-0.088c0.029-0.081,0.081-0.121,0.154-0.121c0.895,0.037,1.8,0.037,2.717,0
					c0.081,0,0.114,0.041,0.099,0.121L5.82,16.392c-0.015,0.081-0.063,0.121-0.143,0.121c-0.169,0-0.33,0.004-0.484,0.011
					s-0.271,0.029-0.352,0.066s-0.143,0.143-0.187,0.319l-1.067,4.279c-0.081,0.315-0.13,0.621-0.148,0.918
					c-0.019,0.297,0.027,0.57,0.137,0.82c0.095,0.205,0.235,0.37,0.418,0.494c0.184,0.125,0.396,0.188,0.638,0.188
					c0.264,0,0.53-0.063,0.797-0.188c0.268-0.124,0.515-0.293,0.743-0.506c0.256-0.234,0.465-0.502,0.627-0.803
					c0.161-0.301,0.282-0.608,0.363-0.924l0.99-3.971c0.029-0.103,0.039-0.2,0.027-0.292c-0.011-0.092-0.046-0.167-0.104-0.226
					c-0.081-0.081-0.176-0.132-0.286-0.154c-0.11-0.022-0.235-0.033-0.374-0.033c-0.037,0-0.064-0.011-0.083-0.033
					c-0.019-0.022-0.021-0.051-0.006-0.088l0.022-0.088c0.007-0.037,0.026-0.066,0.055-0.088s0.062-0.033,0.099-0.033
					c0.711,0.03,1.434,0.03,2.167,0c0.037,0,0.064,0.011,0.083,0.033c0.018,0.022,0.02,0.051,0.005,0.088L9.736,16.392z"/>
				<path d="M14.829,22.701c-0.081,0.201-0.181,0.385-0.302,0.55s-0.258,0.301-0.413,0.407c-0.154,0.105-0.33,0.159-0.528,0.159
					c-0.169,0-0.313-0.037-0.435-0.11c-0.121-0.074-0.213-0.172-0.275-0.293c-0.063-0.122-0.098-0.264-0.104-0.426
					c-0.007-0.162,0.022-0.328,0.088-0.497c0.117-0.316,0.229-0.632,0.335-0.945c0.106-0.313,0.2-0.628,0.28-0.944
					c0.051-0.214,0.088-0.418,0.11-0.613s0.011-0.378-0.033-0.547c-0.073-0.251-0.228-0.376-0.462-0.376
					c-0.381,0-0.706,0.132-0.974,0.397s-0.504,0.619-0.709,1.061l-0.737,2.94c-0.029,0.117-0.088,0.206-0.176,0.265
					c-0.088,0.06-0.176,0.089-0.264,0.089s-0.16-0.029-0.215-0.089c-0.055-0.059-0.068-0.147-0.038-0.265l0.825-3.337
					c0.073-0.295,0.101-0.546,0.083-0.752c-0.019-0.207-0.119-0.31-0.302-0.31c-0.184,0-0.33,0.138-0.44,0.413
					c-0.11,0.274-0.217,0.621-0.319,1.039c-0.029,0.073-0.077,0.109-0.143,0.109H9.56c-0.066,0-0.092-0.036-0.077-0.109
					c0.044-0.162,0.091-0.342,0.143-0.539c0.051-0.198,0.121-0.383,0.209-0.556c0.088-0.173,0.196-0.315,0.324-0.429
					s0.288-0.171,0.479-0.171c0.279,0,0.497,0.085,0.655,0.253c0.157,0.169,0.244,0.381,0.258,0.639
					c0.205-0.271,0.438-0.488,0.699-0.649c0.26-0.161,0.563-0.242,0.907-0.242c0.205,0,0.394,0.038,0.566,0.116
					c0.172,0.076,0.306,0.199,0.402,0.369c0.103,0.184,0.152,0.389,0.148,0.617c-0.004,0.229-0.035,0.455-0.094,0.684
					c-0.081,0.323-0.174,0.644-0.28,0.959c-0.106,0.316-0.218,0.636-0.335,0.96c-0.11,0.294-0.165,0.544-0.165,0.749
					c0,0.199,0.084,0.298,0.253,0.298c0.132,0,0.251-0.04,0.357-0.121c0.106-0.08,0.202-0.187,0.286-0.318
					c0.084-0.133,0.159-0.286,0.226-0.463c0.066-0.176,0.121-0.362,0.165-0.561c0.029-0.066,0.073-0.099,0.132-0.099h0.132
					c0.066,0,0.092,0.032,0.077,0.099C14.976,22.302,14.91,22.499,14.829,22.701z"/>
				<path d="M18.283,22.701c-0.081,0.201-0.18,0.385-0.297,0.55c-0.118,0.165-0.253,0.301-0.407,0.407
					c-0.154,0.105-0.33,0.159-0.528,0.159c-0.169,0-0.313-0.037-0.435-0.11c-0.121-0.074-0.214-0.172-0.281-0.293
					c-0.066-0.122-0.101-0.264-0.104-0.426c-0.003-0.162,0.028-0.328,0.094-0.497l0.869-2.376c0.11-0.303,0.165-0.553,0.165-0.752
					c0-0.198-0.084-0.298-0.253-0.298c-0.132,0-0.249,0.038-0.352,0.115c-0.103,0.077-0.196,0.182-0.28,0.313
					c-0.084,0.133-0.16,0.286-0.226,0.462c-0.066,0.177-0.121,0.363-0.165,0.562c-0.029,0.073-0.077,0.109-0.143,0.109h-0.121
					c-0.066,0-0.092-0.036-0.077-0.109c0.044-0.191,0.108-0.387,0.192-0.589s0.185-0.385,0.303-0.55
					c0.117-0.165,0.253-0.299,0.407-0.402c0.154-0.102,0.33-0.153,0.528-0.153c0.169,0,0.312,0.036,0.429,0.11
					s0.207,0.173,0.27,0.298c0.062,0.125,0.095,0.267,0.099,0.425c0.003,0.158-0.024,0.32-0.083,0.49l-0.869,2.382
					c-0.103,0.294-0.156,0.542-0.16,0.744c-0.003,0.202,0.079,0.303,0.248,0.303c0.132,0,0.251-0.04,0.357-0.121
					c0.106-0.08,0.202-0.187,0.286-0.318c0.084-0.133,0.158-0.286,0.22-0.463c0.062-0.176,0.119-0.362,0.17-0.561
					c0.015-0.066,0.059-0.099,0.132-0.099h0.121c0.029,0,0.053,0.009,0.072,0.027c0.018,0.019,0.02,0.042,0.005,0.071
					C18.426,22.302,18.363,22.499,18.283,22.701z M18.2,17.222c-0.106,0.084-0.222,0.126-0.347,0.126s-0.22-0.042-0.286-0.126
					c-0.066-0.084-0.081-0.188-0.044-0.313c0.029-0.125,0.097-0.229,0.204-0.313c0.106-0.084,0.222-0.126,0.347-0.126
					c0.125,0,0.22,0.042,0.286,0.126c0.066,0.084,0.081,0.189,0.044,0.313C18.374,17.034,18.306,17.138,18.2,17.222z"/>
				<path d="M22.243,25.103c-0.044,0.191-0.041,0.298,0.011,0.319c0.044,0.037,0.13,0.059,0.258,0.066
					c0.128,0.007,0.27,0.011,0.423,0.011c0.037,0,0.064,0.012,0.083,0.033c0.019,0.022,0.02,0.052,0.006,0.088l-0.022,0.088
					c-0.008,0.037-0.026,0.066-0.055,0.088c-0.029,0.022-0.063,0.033-0.099,0.033c-0.748-0.036-1.511-0.036-2.288,0
					c-0.037,0-0.064-0.011-0.083-0.033c-0.018-0.021-0.02-0.051-0.005-0.088l0.022-0.088c0.015-0.081,0.066-0.121,0.154-0.121
					c0.146,0,0.286-0.004,0.418-0.011c0.132-0.008,0.231-0.029,0.297-0.066c0.073-0.029,0.132-0.136,0.176-0.318l0.473-1.914
					c-0.169,0.169-0.354,0.315-0.556,0.439c-0.202,0.125-0.416,0.188-0.644,0.188c-0.271,0-0.499-0.07-0.682-0.209
					c-0.184-0.14-0.327-0.316-0.429-0.529c-0.125-0.258-0.191-0.537-0.198-0.838c-0.008-0.302,0.029-0.606,0.11-0.915
					c0.081-0.309,0.198-0.614,0.352-0.915c0.154-0.302,0.355-0.581,0.605-0.838c0.205-0.214,0.438-0.392,0.698-0.535
					s0.522-0.215,0.787-0.215c0.242,0,0.438,0.071,0.588,0.215s0.262,0.311,0.335,0.501c0.081-0.125,0.172-0.244,0.275-0.357
					c0.103-0.113,0.212-0.219,0.33-0.314c0.081-0.066,0.14-0.066,0.176,0c0.015,0.022,0.018,0.048,0.011,0.077L22.243,25.103z
					 M22.743,19.911c-0.011-0.07-0.027-0.142-0.049-0.216c-0.059-0.177-0.145-0.326-0.259-0.447
					c-0.114-0.122-0.258-0.183-0.435-0.183c-0.161,0-0.319,0.059-0.473,0.177c-0.154,0.117-0.293,0.266-0.418,0.442
					c-0.176,0.251-0.308,0.513-0.396,0.784c-0.088,0.273-0.169,0.557-0.242,0.852c-0.073,0.287-0.134,0.569-0.182,0.846
					c-0.047,0.276-0.046,0.536,0.006,0.779c0.037,0.177,0.101,0.326,0.192,0.447c0.091,0.122,0.222,0.183,0.391,0.183
					c0.176,0,0.35-0.063,0.522-0.188c0.172-0.126,0.332-0.276,0.479-0.453c0.059-0.074,0.113-0.145,0.165-0.21
					c0.051-0.066,0.099-0.141,0.143-0.222l0.594-2.376C22.767,20.052,22.754,19.98,22.743,19.911z"/>
			</g>
			<g>
				<path d="M29.191,22.662c-0.051,0.198-0.121,0.382-0.209,0.55c-0.088,0.169-0.196,0.313-0.324,0.43
					c-0.128,0.117-0.288,0.176-0.479,0.176c-0.235,0-0.425-0.063-0.572-0.188c-0.146-0.124-0.246-0.285-0.297-0.483
					c-0.161,0.205-0.341,0.368-0.539,0.489c-0.198,0.121-0.425,0.182-0.682,0.182c-0.234,0-0.443-0.045-0.627-0.133
					c-0.183-0.088-0.326-0.225-0.429-0.409c-0.11-0.213-0.162-0.449-0.154-0.707s0.041-0.516,0.099-0.773
					c0.059-0.243,0.141-0.514,0.248-0.813c0.106-0.298,0.211-0.588,0.313-0.867c0.11-0.303,0.165-0.553,0.165-0.752
					c0-0.198-0.084-0.298-0.253-0.298c-0.132,0-0.251,0.038-0.357,0.115c-0.106,0.077-0.202,0.182-0.286,0.313
					c-0.084,0.133-0.16,0.286-0.226,0.462c-0.066,0.177-0.121,0.363-0.165,0.562c-0.029,0.073-0.077,0.109-0.143,0.109h-0.121
					c-0.066,0-0.092-0.036-0.077-0.109c0.051-0.191,0.117-0.387,0.198-0.589s0.182-0.385,0.303-0.55s0.258-0.299,0.413-0.402
					c0.154-0.102,0.33-0.153,0.528-0.153c0.168,0,0.312,0.036,0.429,0.11c0.117,0.074,0.207,0.173,0.27,0.298
					c0.062,0.125,0.095,0.267,0.099,0.425c0.004,0.158-0.024,0.32-0.083,0.49c-0.103,0.279-0.205,0.565-0.308,0.859
					c-0.103,0.295-0.184,0.56-0.242,0.794c-0.059,0.235-0.101,0.467-0.126,0.695c-0.026,0.228-0.009,0.44,0.049,0.639
					c0.037,0.133,0.103,0.239,0.198,0.32c0.095,0.081,0.209,0.121,0.341,0.121c0.249,0,0.466-0.077,0.649-0.23
					c0.183-0.154,0.345-0.359,0.484-0.616c0.007-0.037,0.013-0.073,0.017-0.11c0.004-0.036,0.009-0.073,0.017-0.11l0.803-3.201
					c0.029-0.117,0.088-0.203,0.176-0.258s0.176-0.082,0.264-0.082c0.088,0,0.161,0.027,0.22,0.082s0.073,0.141,0.044,0.258
					l-0.803,3.201c-0.081,0.301-0.108,0.555-0.083,0.76c0.025,0.205,0.13,0.308,0.313,0.308c0.176,0,0.321-0.139,0.435-0.418
					c0.113-0.278,0.222-0.627,0.324-1.045c0.015-0.066,0.059-0.099,0.132-0.099h0.121c0.029,0,0.053,0.009,0.071,0.027
					c0.018,0.019,0.02,0.042,0.005,0.071C29.291,22.281,29.243,22.463,29.191,22.662z"/>
				<path d="M34.219,22.596c-0.279,0.396-0.633,0.698-1.062,0.907c-0.429,0.209-0.86,0.313-1.292,0.313
					c-0.308,0-0.57-0.079-0.787-0.237s-0.387-0.354-0.512-0.59c-0.139-0.279-0.214-0.588-0.225-0.926
					c-0.011-0.338,0.027-0.684,0.115-1.036c0.073-0.287,0.194-0.563,0.363-0.833c0.168-0.268,0.381-0.508,0.638-0.722
					c0.242-0.206,0.508-0.366,0.797-0.479c0.29-0.113,0.574-0.171,0.853-0.171c0.169,0,0.326,0.029,0.473,0.089
					c0.146,0.059,0.268,0.139,0.363,0.242s0.162,0.227,0.198,0.369c0.037,0.144,0.033,0.299-0.011,0.469
					c-0.066,0.279-0.202,0.498-0.407,0.656c-0.206,0.158-0.444,0.273-0.715,0.347c-0.271,0.074-0.56,0.118-0.864,0.133
					s-0.592,0.021-0.863,0.021c-0.081,0.309-0.138,0.606-0.17,0.894c-0.033,0.286-0.017,0.559,0.049,0.815
					c0.059,0.206,0.15,0.377,0.275,0.513c0.125,0.137,0.286,0.204,0.484,0.204c0.389,0,0.768-0.103,1.139-0.308
					c0.37-0.205,0.676-0.484,0.918-0.836c0.022-0.037,0.051-0.059,0.088-0.066c0.037-0.007,0.066,0,0.088,0.022l0.077,0.088
					C34.259,22.504,34.255,22.544,34.219,22.596z M33.625,19.329c-0.132-0.176-0.326-0.264-0.583-0.264
					c-0.191,0-0.381,0.05-0.572,0.148c-0.191,0.099-0.359,0.233-0.506,0.401c-0.168,0.184-0.299,0.383-0.39,0.6
					c-0.092,0.217-0.17,0.441-0.237,0.677c0.279,0,0.552-0.012,0.82-0.033c0.268-0.022,0.507-0.064,0.72-0.127
					c0.213-0.062,0.394-0.153,0.544-0.274s0.251-0.281,0.303-0.479C33.79,19.721,33.757,19.505,33.625,19.329z"/>
				<path d="M40.323,22.701c-0.081,0.201-0.181,0.385-0.302,0.55s-0.258,0.301-0.413,0.407c-0.154,0.105-0.33,0.159-0.528,0.159
					c-0.169,0-0.313-0.037-0.435-0.11c-0.121-0.074-0.213-0.172-0.275-0.293c-0.063-0.122-0.098-0.264-0.104-0.426
					c-0.007-0.162,0.022-0.328,0.088-0.497c0.117-0.316,0.229-0.632,0.335-0.945c0.106-0.313,0.2-0.628,0.28-0.944
					c0.051-0.214,0.088-0.418,0.11-0.613s0.011-0.378-0.033-0.547c-0.073-0.251-0.228-0.376-0.462-0.376
					c-0.381,0-0.706,0.132-0.974,0.397s-0.504,0.619-0.709,1.061l-0.737,2.94c-0.029,0.117-0.088,0.206-0.176,0.265
					c-0.088,0.06-0.176,0.089-0.264,0.089s-0.16-0.029-0.215-0.089c-0.055-0.059-0.068-0.147-0.038-0.265l0.825-3.337
					c0.073-0.295,0.101-0.546,0.083-0.752c-0.019-0.207-0.119-0.31-0.302-0.31c-0.184,0-0.33,0.138-0.44,0.413
					c-0.11,0.274-0.217,0.621-0.319,1.039c-0.029,0.073-0.077,0.109-0.143,0.109h-0.121c-0.066,0-0.092-0.036-0.077-0.109
					c0.044-0.162,0.091-0.342,0.143-0.539c0.051-0.198,0.121-0.383,0.209-0.556c0.088-0.173,0.196-0.315,0.324-0.429
					s0.288-0.171,0.479-0.171c0.279,0,0.497,0.085,0.655,0.253c0.157,0.169,0.244,0.381,0.258,0.639
					c0.205-0.271,0.438-0.488,0.699-0.649c0.26-0.161,0.563-0.242,0.907-0.242c0.205,0,0.394,0.038,0.566,0.116
					c0.172,0.076,0.306,0.199,0.402,0.369c0.103,0.184,0.152,0.389,0.148,0.617c-0.004,0.229-0.035,0.455-0.094,0.684
					c-0.081,0.323-0.174,0.644-0.28,0.959c-0.106,0.316-0.218,0.636-0.335,0.96c-0.11,0.294-0.165,0.544-0.165,0.749
					c0,0.199,0.084,0.298,0.253,0.298c0.132,0,0.251-0.04,0.357-0.121c0.106-0.08,0.202-0.187,0.286-0.318
					c0.084-0.133,0.159-0.286,0.226-0.463c0.066-0.176,0.121-0.362,0.165-0.561c0.029-0.066,0.073-0.099,0.132-0.099h0.132
					c0.066,0,0.092,0.032,0.077,0.099C40.47,22.302,40.404,22.499,40.323,22.701z"/>
				<path d="M45.395,22.596c-0.279,0.396-0.633,0.698-1.062,0.907c-0.429,0.209-0.86,0.313-1.292,0.313
					c-0.308,0-0.57-0.079-0.787-0.237s-0.387-0.354-0.512-0.59c-0.139-0.279-0.214-0.588-0.225-0.926
					c-0.011-0.338,0.027-0.684,0.115-1.036c0.073-0.287,0.194-0.563,0.363-0.833c0.168-0.268,0.381-0.508,0.638-0.722
					c0.242-0.206,0.508-0.366,0.797-0.479c0.29-0.113,0.574-0.171,0.853-0.171c0.169,0,0.326,0.029,0.473,0.089
					c0.146,0.059,0.268,0.139,0.363,0.242s0.162,0.227,0.198,0.369c0.037,0.144,0.033,0.299-0.011,0.469
					c-0.066,0.279-0.202,0.498-0.407,0.656c-0.206,0.158-0.444,0.273-0.715,0.347c-0.271,0.074-0.56,0.118-0.864,0.133
					s-0.592,0.021-0.863,0.021c-0.081,0.309-0.138,0.606-0.17,0.894c-0.033,0.286-0.017,0.559,0.049,0.815
					c0.059,0.206,0.15,0.377,0.275,0.513c0.125,0.137,0.286,0.204,0.484,0.204c0.389,0,0.768-0.103,1.139-0.308
					c0.37-0.205,0.676-0.484,0.918-0.836c0.022-0.037,0.051-0.059,0.088-0.066c0.037-0.007,0.066,0,0.088,0.022l0.077,0.088
					C45.435,22.504,45.431,22.544,45.395,22.596z M44.8,19.329c-0.132-0.176-0.326-0.264-0.583-0.264
					c-0.191,0-0.381,0.05-0.572,0.148c-0.191,0.099-0.359,0.233-0.506,0.401c-0.168,0.184-0.299,0.383-0.39,0.6
					c-0.092,0.217-0.17,0.441-0.237,0.677c0.279,0,0.552-0.012,0.82-0.033c0.268-0.022,0.507-0.064,0.72-0.127
					c0.213-0.062,0.394-0.153,0.544-0.274s0.251-0.281,0.303-0.479C44.965,19.721,44.933,19.505,44.8,19.329z"/>
				<path d="M49.772,20.263c-0.096,0.066-0.191,0.1-0.286,0.1c-0.088,0-0.164-0.033-0.226-0.1c-0.063-0.065-0.079-0.16-0.049-0.285
					c0.029-0.11,0.084-0.196,0.165-0.259c0.081-0.062,0.165-0.101,0.253-0.115c-0.037-0.161-0.132-0.292-0.286-0.391
					s-0.337-0.148-0.55-0.148c-0.125,0-0.246,0.015-0.363,0.044s-0.228,0.085-0.33,0.166c-0.095,0.074-0.172,0.162-0.231,0.266
					c-0.059,0.103-0.103,0.213-0.132,0.331c-0.051,0.191-0.031,0.36,0.061,0.509c0.091,0.146,0.229,0.239,0.413,0.275l0.539,0.122
					c0.169,0.037,0.321,0.102,0.457,0.193s0.246,0.204,0.33,0.337s0.139,0.282,0.165,0.447c0.026,0.166,0.017,0.341-0.027,0.525
					c-0.059,0.206-0.147,0.411-0.264,0.613s-0.271,0.378-0.462,0.524c-0.213,0.155-0.435,0.261-0.666,0.315
					c-0.231,0.056-0.453,0.083-0.666,0.083c-0.213,0-0.411-0.029-0.594-0.088c-0.184-0.059-0.341-0.145-0.473-0.259
					c-0.132-0.113-0.226-0.251-0.281-0.412c-0.055-0.161-0.057-0.345-0.005-0.551c0.037-0.146,0.11-0.256,0.22-0.329
					c0.11-0.073,0.22-0.11,0.33-0.11c0.11,0,0.203,0.037,0.28,0.11s0.097,0.183,0.061,0.329c-0.037,0.147-0.11,0.257-0.22,0.33
					c-0.11,0.074-0.22,0.114-0.33,0.121c0.059,0.191,0.186,0.341,0.38,0.451c0.194,0.11,0.423,0.165,0.688,0.165
					c0.161,0,0.321-0.019,0.479-0.055c0.157-0.037,0.302-0.106,0.435-0.21c0.125-0.088,0.227-0.196,0.308-0.325
					s0.139-0.267,0.176-0.413c0.059-0.235,0.025-0.439-0.099-0.612c-0.125-0.173-0.304-0.288-0.539-0.347l-0.539-0.122
					c-0.301-0.065-0.522-0.22-0.666-0.463c-0.143-0.242-0.174-0.529-0.093-0.86c0.044-0.176,0.115-0.352,0.214-0.529
					c0.099-0.176,0.233-0.33,0.401-0.463c0.169-0.132,0.35-0.224,0.545-0.275c0.194-0.051,0.383-0.077,0.566-0.077
					c0.176,0,0.341,0.026,0.495,0.079c0.154,0.053,0.284,0.129,0.391,0.23s0.18,0.225,0.22,0.367
					c0.04,0.143,0.039,0.303-0.005,0.479C49.93,20.103,49.868,20.198,49.772,20.263z"/>
				<path d="M54.238,20.263c-0.096,0.066-0.191,0.1-0.286,0.1c-0.088,0-0.164-0.033-0.226-0.1c-0.063-0.065-0.079-0.16-0.049-0.285
					c0.029-0.11,0.084-0.196,0.165-0.259c0.081-0.062,0.165-0.101,0.253-0.115c-0.037-0.161-0.132-0.292-0.286-0.391
					s-0.337-0.148-0.55-0.148c-0.125,0-0.246,0.015-0.363,0.044s-0.228,0.085-0.33,0.166c-0.095,0.074-0.172,0.162-0.231,0.266
					c-0.059,0.103-0.103,0.213-0.132,0.331c-0.051,0.191-0.031,0.36,0.061,0.509c0.091,0.146,0.229,0.239,0.413,0.275l0.539,0.122
					c0.169,0.037,0.321,0.102,0.457,0.193s0.246,0.204,0.33,0.337s0.139,0.282,0.165,0.447c0.026,0.166,0.017,0.341-0.027,0.525
					c-0.059,0.206-0.147,0.411-0.264,0.613s-0.271,0.378-0.462,0.524c-0.213,0.155-0.435,0.261-0.666,0.315
					c-0.231,0.056-0.453,0.083-0.666,0.083c-0.213,0-0.411-0.029-0.594-0.088c-0.184-0.059-0.341-0.145-0.473-0.259
					c-0.132-0.113-0.226-0.251-0.281-0.412c-0.055-0.161-0.057-0.345-0.005-0.551c0.037-0.146,0.11-0.256,0.22-0.329
					c0.11-0.073,0.22-0.11,0.33-0.11c0.11,0,0.203,0.037,0.28,0.11s0.097,0.183,0.061,0.329c-0.037,0.147-0.11,0.257-0.22,0.33
					c-0.11,0.074-0.22,0.114-0.33,0.121c0.059,0.191,0.186,0.341,0.38,0.451c0.194,0.11,0.423,0.165,0.688,0.165
					c0.161,0,0.321-0.019,0.479-0.055c0.157-0.037,0.302-0.106,0.435-0.21c0.125-0.088,0.227-0.196,0.308-0.325
					s0.139-0.267,0.176-0.413c0.059-0.235,0.025-0.439-0.099-0.612c-0.125-0.173-0.304-0.288-0.539-0.347l-0.539-0.122
					c-0.301-0.065-0.522-0.22-0.666-0.463c-0.143-0.242-0.174-0.529-0.093-0.86c0.044-0.176,0.115-0.352,0.214-0.529
					c0.099-0.176,0.233-0.33,0.401-0.463c0.169-0.132,0.35-0.224,0.545-0.275c0.194-0.051,0.383-0.077,0.566-0.077
					c0.176,0,0.341,0.026,0.495,0.079c0.154,0.053,0.284,0.129,0.391,0.23s0.18,0.225,0.22,0.367
					c0.04,0.143,0.039,0.303-0.005,0.479C54.396,20.103,54.333,20.198,54.238,20.263z"/>
			</g>
			<g>
				<path d="M74.896,29.369c-0.11,0.073-0.22,0.109-0.33,0.109c-0.11,0-0.202-0.036-0.275-0.109s-0.092-0.184-0.055-0.33
					c0.037-0.132,0.101-0.234,0.193-0.309c0.091-0.073,0.188-0.117,0.292-0.132c-0.074-0.095-0.172-0.143-0.297-0.143
					c-0.234,0-0.447,0.073-0.638,0.221c-0.191,0.147-0.376,0.321-0.556,0.52c-0.18,0.199-0.361,0.405-0.544,0.619
					c-0.184,0.214-0.381,0.387-0.594,0.52c0.228,0.029,0.44,0.077,0.638,0.144c0.198,0.066,0.365,0.157,0.5,0.271
					s0.233,0.254,0.292,0.42s0.063,0.359,0.011,0.58c-0.044,0.17-0.076,0.328-0.094,0.476s-0.022,0.276-0.011,0.387
					c0.011,0.11,0.042,0.197,0.093,0.26s0.128,0.094,0.231,0.094c0.117,0,0.22-0.038,0.308-0.115s0.165-0.182,0.231-0.313
					s0.125-0.286,0.176-0.462c0.051-0.177,0.103-0.367,0.154-0.572c0.015-0.066,0.059-0.099,0.132-0.099h0.121
					c0.073,0,0.103,0.032,0.088,0.099c-0.044,0.176-0.099,0.365-0.165,0.566c-0.066,0.202-0.148,0.387-0.247,0.556
					c-0.099,0.169-0.219,0.308-0.358,0.418s-0.308,0.165-0.506,0.165c-0.184,0-0.341-0.04-0.473-0.121
					c-0.132-0.081-0.233-0.188-0.302-0.324c-0.07-0.136-0.112-0.29-0.126-0.462c-0.015-0.173,0-0.354,0.044-0.545
					c0.081-0.33,0.013-0.596-0.204-0.798c-0.216-0.201-0.511-0.328-0.885-0.379l-0.572,2.276c-0.029,0.118-0.088,0.206-0.176,0.265
					c-0.088,0.059-0.176,0.088-0.264,0.088s-0.162-0.029-0.22-0.088c-0.059-0.06-0.073-0.147-0.044-0.265l1.617-6.467
					c0.029-0.117,0.047-0.207,0.055-0.27c0.007-0.063-0.008-0.108-0.044-0.138c-0.051-0.037-0.139-0.061-0.264-0.072
					c-0.125-0.011-0.264-0.017-0.418-0.017c-0.037,0-0.064-0.011-0.083-0.032c-0.019-0.021-0.021-0.05-0.005-0.086l0.022-0.085
					c0.022-0.064,0.073-0.104,0.154-0.118l1.397-0.118c0.037-0.008,0.066,0.002,0.088,0.027s0.026,0.057,0.011,0.093l-1.166,4.643
					c0.154-0.059,0.299-0.15,0.435-0.275c0.135-0.124,0.27-0.26,0.401-0.406s0.266-0.299,0.401-0.457
					c0.136-0.157,0.277-0.301,0.424-0.429c0.146-0.128,0.3-0.232,0.462-0.313c0.161-0.081,0.341-0.121,0.539-0.121
					c0.234,0,0.412,0.079,0.533,0.236c0.121,0.158,0.152,0.354,0.094,0.589C75.079,29.185,75.005,29.295,74.896,29.369z"/>
				<path d="M85.808,29.369c-0.11,0.073-0.22,0.109-0.33,0.109c-0.11,0-0.202-0.036-0.275-0.109s-0.092-0.184-0.055-0.33
					c0.037-0.132,0.101-0.234,0.193-0.309c0.091-0.073,0.188-0.117,0.292-0.132c-0.074-0.095-0.172-0.143-0.297-0.143
					c-0.234,0-0.447,0.073-0.638,0.221c-0.191,0.147-0.376,0.321-0.556,0.52c-0.18,0.199-0.361,0.405-0.544,0.619
					c-0.184,0.214-0.381,0.387-0.594,0.52c0.228,0.029,0.44,0.077,0.638,0.144c0.198,0.066,0.365,0.157,0.5,0.271
					s0.233,0.254,0.292,0.42s0.063,0.359,0.011,0.58c-0.044,0.17-0.076,0.328-0.094,0.476s-0.022,0.276-0.011,0.387
					c0.011,0.11,0.042,0.197,0.093,0.26s0.128,0.094,0.231,0.094c0.117,0,0.22-0.038,0.308-0.115s0.165-0.182,0.231-0.313
					s0.125-0.286,0.176-0.462c0.051-0.177,0.103-0.367,0.154-0.572c0.015-0.066,0.059-0.099,0.132-0.099h0.121
					c0.073,0,0.103,0.032,0.088,0.099c-0.044,0.176-0.099,0.365-0.165,0.566c-0.066,0.202-0.148,0.387-0.247,0.556
					c-0.099,0.169-0.219,0.308-0.358,0.418s-0.308,0.165-0.506,0.165c-0.184,0-0.341-0.04-0.473-0.121
					c-0.132-0.081-0.233-0.188-0.302-0.324c-0.07-0.136-0.112-0.29-0.126-0.462c-0.015-0.173,0-0.354,0.044-0.545
					c0.081-0.33,0.013-0.596-0.204-0.798c-0.216-0.201-0.511-0.328-0.885-0.379l-0.572,2.276c-0.029,0.118-0.088,0.206-0.176,0.265
					c-0.088,0.059-0.176,0.088-0.264,0.088s-0.162-0.029-0.22-0.088c-0.059-0.06-0.073-0.147-0.044-0.265l1.617-6.467
					c0.029-0.117,0.047-0.207,0.055-0.27c0.007-0.063-0.008-0.108-0.044-0.138c-0.051-0.037-0.139-0.061-0.264-0.072
					c-0.125-0.011-0.264-0.017-0.418-0.017c-0.037,0-0.064-0.011-0.083-0.032c-0.019-0.021-0.021-0.05-0.005-0.086l0.022-0.085
					c0.022-0.064,0.073-0.104,0.154-0.118l1.397-0.118c0.037-0.008,0.066,0.002,0.088,0.027s0.026,0.057,0.011,0.093l-1.166,4.643
					c0.154-0.059,0.299-0.15,0.435-0.275c0.135-0.124,0.27-0.26,0.401-0.406s0.266-0.299,0.401-0.457
					c0.136-0.157,0.277-0.301,0.424-0.429c0.146-0.128,0.3-0.232,0.462-0.313c0.161-0.081,0.341-0.121,0.539-0.121
					c0.234,0,0.412,0.079,0.533,0.236c0.121,0.158,0.152,0.354,0.094,0.589C85.991,29.185,85.917,29.295,85.808,29.369z"/>
			</g>
			<g>
				<path d="M153.15,6.597c-0.008,0.037-0.026,0.066-0.056,0.088s-0.063,0.033-0.099,0.033c-0.169,0-0.328,0.004-0.479,0.011
					s-0.266,0.029-0.347,0.066c-0.081,0.029-0.143,0.136-0.187,0.32l-1.519,6.06c-0.044,0.176-0.033,0.287,0.033,0.331
					c0.059,0.037,0.163,0.057,0.313,0.061c0.15,0.004,0.31,0.005,0.479,0.005c0.081,0,0.11,0.042,0.088,0.128l-0.021,0.085
					c-0.008,0.036-0.026,0.064-0.056,0.085c-0.029,0.021-0.063,0.032-0.099,0.032c-0.895-0.044-1.801-0.044-2.717,0
					c-0.037,0-0.064-0.011-0.083-0.032c-0.019-0.021-0.021-0.05-0.005-0.085l0.021-0.085c0.015-0.085,0.066-0.128,0.154-0.128
					c0.168,0,0.328-0.001,0.479-0.005c0.15-0.003,0.266-0.024,0.347-0.061c0.08-0.044,0.143-0.154,0.187-0.331l0.748-3.013h-3.025
					l-0.747,3.013c-0.045,0.184-0.037,0.294,0.021,0.331c0.059,0.037,0.163,0.057,0.313,0.061c0.15,0.004,0.31,0.005,0.479,0.005
					c0.081,0,0.11,0.042,0.088,0.128l-0.021,0.085c-0.015,0.078-0.066,0.117-0.154,0.117c-0.895-0.044-1.801-0.044-2.717,0
					c-0.037,0-0.064-0.011-0.083-0.032c-0.019-0.021-0.021-0.05-0.005-0.085l0.021-0.085c0.008-0.036,0.025-0.065,0.055-0.09
					s0.063-0.038,0.1-0.038c0.169,0,0.328-0.001,0.479-0.005c0.15-0.003,0.266-0.024,0.347-0.061
					c0.08-0.044,0.143-0.154,0.187-0.331l1.519-6.06c0.044-0.177,0.032-0.283-0.033-0.32c-0.059-0.037-0.163-0.059-0.313-0.066
					s-0.311-0.011-0.479-0.011c-0.037,0-0.064-0.011-0.083-0.033s-0.02-0.051-0.005-0.088l0.021-0.088
					c0.029-0.081,0.081-0.121,0.154-0.121c0.895,0.037,1.8,0.037,2.717,0c0.081,0,0.113,0.041,0.099,0.121l-0.032,0.088
					c-0.015,0.081-0.063,0.121-0.144,0.121c-0.169,0-0.33,0.004-0.483,0.011c-0.154,0.007-0.271,0.029-0.353,0.066
					c-0.081,0.037-0.143,0.144-0.187,0.32l-0.671,2.716h3.024l0.671-2.716c0.044-0.184,0.037-0.291-0.021-0.32
					c-0.059-0.037-0.163-0.059-0.313-0.066s-0.311-0.011-0.479-0.011c-0.037,0-0.064-0.011-0.083-0.033s-0.02-0.051-0.005-0.088
					l0.021-0.088c0.008-0.037,0.025-0.066,0.055-0.088s0.063-0.033,0.1-0.033c0.895,0.037,1.8,0.037,2.717,0
					c0.037,0,0.064,0.011,0.083,0.033c0.018,0.022,0.02,0.051,0.005,0.088L153.15,6.597z"/>
				<path d="M159.843,11.602c-0.261,0.447-0.589,0.854-0.984,1.221c-0.359,0.33-0.752,0.592-1.178,0.787
					c-0.425,0.194-0.851,0.292-1.275,0.292h-3.575c-0.081,0-0.114-0.039-0.099-0.117l0.021-0.085
					c0.022-0.085,0.073-0.128,0.154-0.128c0.169,0,0.33-0.001,0.483-0.005c0.154-0.003,0.271-0.024,0.353-0.061
					c0.08-0.051,0.143-0.162,0.187-0.331l1.508-6.06c0.044-0.184,0.036-0.291-0.022-0.32c-0.059-0.037-0.163-0.059-0.313-0.066
					s-0.31-0.011-0.479-0.011c-0.081,0-0.113-0.04-0.099-0.121l0.032-0.088c0.015-0.081,0.063-0.121,0.144-0.121h3.586
					c0.433,0,0.811,0.103,1.133,0.308c0.322,0.206,0.579,0.477,0.771,0.814c0.212,0.381,0.333,0.805,0.362,1.271
					c0.029,0.466-0.018,0.944-0.143,1.436C160.292,10.693,160.103,11.155,159.843,11.602z M158.886,6.982
					c-0.268-0.176-0.581-0.265-0.94-0.265h-1.155c-0.198,0-0.319,0.019-0.363,0.055c-0.044,0.037-0.088,0.151-0.132,0.342
					l-1.518,6.06c-0.052,0.198-0.063,0.316-0.033,0.353c0.029,0.029,0.14,0.044,0.33,0.044h1.155c0.358,0,0.717-0.083,1.072-0.248
					c0.355-0.166,0.673-0.395,0.951-0.689c0.323-0.345,0.568-0.727,0.737-1.146c0.169-0.419,0.304-0.841,0.407-1.267
					c0.109-0.441,0.187-0.878,0.23-1.311c0.044-0.434-0.007-0.834-0.154-1.201C159.35,7.401,159.154,7.159,158.886,6.982z"/>
			</g>
			<g>
				<path d="M173.833,13.323c-0.077,0.15-0.171,0.286-0.281,0.407c-0.109,0.121-0.232,0.22-0.368,0.297s-0.28,0.116-0.435,0.116
					c-0.506,0-0.884-0.136-1.133-0.407c-0.25-0.271-0.312-0.66-0.188-1.166l0.242-0.968c0.044-0.184,0.055-0.358,0.033-0.522
					c-0.022-0.165-0.075-0.308-0.159-0.429c-0.085-0.121-0.192-0.216-0.325-0.286c-0.132-0.069-0.286-0.104-0.462-0.104h-1.254
					l-0.726,2.914c-0.044,0.177-0.033,0.287,0.033,0.332c0.059,0.037,0.163,0.057,0.313,0.061c0.149,0.004,0.31,0.005,0.479,0.005
					c0.08,0,0.109,0.042,0.088,0.128l-0.022,0.085c-0.029,0.078-0.081,0.117-0.154,0.117c-0.887-0.044-1.781-0.044-2.684,0
					c-0.081,0-0.114-0.039-0.099-0.117l0.021-0.085c0.022-0.085,0.073-0.128,0.154-0.128c0.169,0,0.33-0.001,0.483-0.005
					c0.154-0.003,0.271-0.024,0.353-0.061c0.08-0.051,0.143-0.162,0.187-0.331l1.508-6.06c0.044-0.184,0.036-0.291-0.022-0.32
					c-0.059-0.037-0.163-0.059-0.313-0.066s-0.31-0.011-0.479-0.011c-0.081,0-0.113-0.04-0.099-0.121l0.032-0.088
					c0.015-0.081,0.063-0.121,0.144-0.121h3.024c0.338,0,0.656,0.046,0.957,0.138s0.562,0.24,0.781,0.445
					c0.184,0.169,0.319,0.374,0.407,0.616s0.095,0.502,0.021,0.781c-0.065,0.279-0.203,0.532-0.412,0.759
					c-0.209,0.228-0.445,0.422-0.709,0.583c-0.184,0.11-0.371,0.202-0.562,0.275s-0.381,0.132-0.572,0.176
					c0.301,0.118,0.539,0.295,0.716,0.534c0.176,0.238,0.245,0.534,0.209,0.886l-0.1,0.968c-0.044,0.418-0.051,0.748-0.021,0.99
					c0.029,0.242,0.153,0.363,0.374,0.363c0.19,0,0.36-0.101,0.511-0.303c0.15-0.201,0.263-0.445,0.336-0.731
					c0.029-0.081,0.08-0.121,0.154-0.121h0.088c0.08,0,0.113,0.04,0.099,0.121C173.965,13.021,173.909,13.173,173.833,13.323z
					 M172.947,7.713c0.007-0.216-0.052-0.398-0.176-0.544c-0.14-0.168-0.321-0.286-0.545-0.352s-0.464-0.099-0.721-0.099h-0.715
					c-0.198,0-0.319,0.019-0.363,0.055s-0.088,0.15-0.132,0.341l-0.726,2.904h1.11c0.257,0,0.512-0.033,0.765-0.099
					s0.493-0.183,0.721-0.352c0.198-0.146,0.347-0.328,0.445-0.544c0.1-0.216,0.178-0.435,0.236-0.655
					C172.906,8.148,172.939,7.93,172.947,7.713z"/>
				<path d="M188.055,13.323c-0.077,0.15-0.171,0.286-0.281,0.407c-0.109,0.121-0.232,0.22-0.368,0.297s-0.28,0.116-0.435,0.116
					c-0.506,0-0.884-0.136-1.133-0.407c-0.25-0.271-0.312-0.66-0.188-1.166l0.242-0.968c0.044-0.184,0.055-0.358,0.033-0.522
					c-0.022-0.165-0.075-0.308-0.159-0.429c-0.085-0.121-0.192-0.216-0.325-0.286c-0.132-0.069-0.286-0.104-0.462-0.104h-1.254
					L183,13.173c-0.044,0.177-0.033,0.287,0.033,0.332c0.059,0.037,0.163,0.057,0.313,0.061c0.149,0.004,0.31,0.005,0.479,0.005
					c0.08,0,0.109,0.042,0.088,0.128l-0.022,0.085c-0.029,0.078-0.081,0.117-0.154,0.117c-0.887-0.044-1.781-0.044-2.684,0
					c-0.081,0-0.114-0.039-0.099-0.117l0.021-0.085c0.022-0.085,0.073-0.128,0.154-0.128c0.169,0,0.33-0.001,0.483-0.005
					c0.154-0.003,0.271-0.024,0.353-0.061c0.08-0.051,0.143-0.162,0.187-0.331l1.508-6.06c0.044-0.184,0.036-0.291-0.022-0.32
					c-0.059-0.037-0.163-0.059-0.313-0.066s-0.31-0.011-0.479-0.011c-0.081,0-0.113-0.04-0.099-0.121l0.032-0.088
					c0.015-0.081,0.063-0.121,0.144-0.121h3.024c0.338,0,0.656,0.046,0.957,0.138s0.562,0.24,0.781,0.445
					c0.184,0.169,0.319,0.374,0.407,0.616s0.095,0.502,0.021,0.781c-0.065,0.279-0.203,0.532-0.412,0.759
					c-0.209,0.228-0.445,0.422-0.709,0.583c-0.184,0.11-0.371,0.202-0.562,0.275s-0.381,0.132-0.572,0.176
					c0.301,0.118,0.539,0.295,0.716,0.534c0.176,0.238,0.245,0.534,0.209,0.886l-0.1,0.968c-0.044,0.418-0.051,0.748-0.021,0.99
					c0.029,0.242,0.153,0.363,0.374,0.363c0.19,0,0.36-0.101,0.511-0.303c0.15-0.201,0.263-0.445,0.336-0.731
					c0.029-0.081,0.08-0.121,0.154-0.121h0.088c0.08,0,0.113,0.04,0.099,0.121C188.188,13.021,188.131,13.173,188.055,13.323z
					 M187.169,7.713c0.007-0.216-0.052-0.398-0.176-0.544c-0.14-0.168-0.321-0.286-0.545-0.352s-0.464-0.099-0.721-0.099h-0.715
					c-0.198,0-0.319,0.019-0.363,0.055s-0.088,0.15-0.132,0.341l-0.726,2.904h1.11c0.257,0,0.512-0.033,0.765-0.099
					s0.493-0.183,0.721-0.352c0.198-0.146,0.347-0.328,0.445-0.544c0.1-0.216,0.178-0.435,0.236-0.655
					C187.128,8.148,187.162,7.93,187.169,7.713z"/>
			</g>
			<g>
				<path d="M172.391,31.224c-0.081,0.201-0.182,0.385-0.303,0.55c-0.12,0.165-0.258,0.301-0.412,0.407
					c-0.154,0.105-0.33,0.159-0.528,0.159c-0.168,0-0.313-0.037-0.435-0.11c-0.12-0.074-0.212-0.172-0.274-0.293
					c-0.063-0.122-0.098-0.264-0.104-0.426c-0.008-0.162,0.021-0.328,0.088-0.497c0.117-0.316,0.229-0.632,0.336-0.945
					c0.105-0.313,0.199-0.628,0.28-0.944c0.051-0.214,0.088-0.418,0.109-0.613c0.022-0.195,0.012-0.378-0.032-0.547
					c-0.074-0.251-0.228-0.376-0.462-0.376c-0.382,0-0.706,0.133-0.974,0.397c-0.269,0.266-0.505,0.619-0.71,1.062l-0.737,2.939
					c-0.029,0.117-0.088,0.206-0.176,0.265c-0.088,0.06-0.176,0.089-0.264,0.089s-0.159-0.029-0.215-0.089
					c-0.055-0.059-0.067-0.147-0.038-0.265l0.825-3.338c0.073-0.294,0.101-0.545,0.082-0.751s-0.119-0.31-0.303-0.31
					c-0.183,0-0.33,0.138-0.439,0.412c-0.11,0.275-0.217,0.622-0.319,1.04c-0.029,0.073-0.077,0.109-0.143,0.109h-0.121
					c-0.066,0-0.092-0.036-0.077-0.109c0.044-0.161,0.092-0.341,0.143-0.539c0.052-0.198,0.121-0.384,0.209-0.556
					s0.196-0.315,0.325-0.429c0.128-0.114,0.287-0.171,0.479-0.171c0.278,0,0.496,0.084,0.654,0.253
					c0.157,0.169,0.243,0.382,0.259,0.638c0.205-0.271,0.438-0.487,0.698-0.648c0.26-0.161,0.563-0.242,0.907-0.242
					c0.205,0,0.395,0.039,0.566,0.116c0.173,0.077,0.307,0.2,0.401,0.369c0.103,0.184,0.152,0.39,0.148,0.617
					c-0.003,0.228-0.034,0.456-0.093,0.684c-0.081,0.323-0.175,0.644-0.281,0.959c-0.106,0.316-0.218,0.636-0.335,0.96
					c-0.11,0.294-0.165,0.544-0.165,0.749c0,0.199,0.084,0.298,0.253,0.298c0.132,0,0.251-0.04,0.357-0.121
					c0.106-0.08,0.201-0.187,0.286-0.318c0.084-0.133,0.159-0.286,0.226-0.463c0.065-0.176,0.121-0.362,0.165-0.561
					c0.029-0.066,0.073-0.099,0.132-0.099h0.132c0.066,0,0.092,0.032,0.077,0.099C172.538,30.826,172.472,31.022,172.391,31.224z"/>
			</g>
			<g>
				<path d="M113.105,35.181c-0.047,0.117-0.104,0.224-0.172,0.319s-0.146,0.174-0.236,0.235s-0.191,0.093-0.306,0.093
					c-0.098,0-0.182-0.021-0.251-0.064c-0.07-0.042-0.125-0.099-0.163-0.17c-0.039-0.07-0.059-0.152-0.061-0.246
					c-0.002-0.094,0.016-0.19,0.054-0.288l0.503-1.377c0.064-0.175,0.096-0.32,0.096-0.436s-0.049-0.173-0.146-0.173
					c-0.077,0-0.145,0.022-0.204,0.066c-0.06,0.045-0.114,0.105-0.163,0.182c-0.049,0.077-0.092,0.166-0.131,0.268
					c-0.038,0.103-0.07,0.211-0.096,0.325c-0.017,0.043-0.044,0.064-0.083,0.064h-0.07c-0.038,0-0.053-0.021-0.044-0.064
					c0.025-0.11,0.063-0.224,0.111-0.341c0.049-0.116,0.107-0.223,0.175-0.318s0.146-0.174,0.236-0.233
					c0.089-0.059,0.191-0.089,0.306-0.089c0.098,0,0.181,0.021,0.249,0.064c0.068,0.042,0.12,0.1,0.156,0.172
					s0.055,0.154,0.057,0.246c0.002,0.092-0.014,0.187-0.047,0.284l-0.504,1.381c-0.06,0.17-0.09,0.313-0.092,0.431
					c-0.002,0.117,0.045,0.176,0.144,0.176c0.076,0,0.146-0.023,0.207-0.07c0.062-0.046,0.117-0.108,0.166-0.185
					s0.091-0.166,0.127-0.268c0.036-0.103,0.069-0.211,0.099-0.325c0.008-0.038,0.034-0.058,0.077-0.058h0.07
					c0.017,0,0.031,0.006,0.042,0.017c0.011,0.01,0.012,0.024,0.003,0.041C113.188,34.951,113.151,35.065,113.105,35.181z
					 M113.057,32.006c-0.062,0.049-0.129,0.073-0.201,0.073s-0.127-0.024-0.166-0.073s-0.047-0.109-0.025-0.182
					c0.017-0.072,0.056-0.133,0.118-0.182s0.128-0.073,0.201-0.073c0.072,0,0.127,0.024,0.166,0.073s0.047,0.109,0.025,0.182
					C113.158,31.897,113.119,31.958,113.057,32.006z"/>
			</g>
			<g>
				<path d="M113.739,8.762c-0.063,0.042-0.127,0.064-0.191,0.064c-0.064,0-0.117-0.021-0.16-0.064s-0.053-0.106-0.032-0.191
					c0.021-0.076,0.058-0.136,0.111-0.178s0.109-0.068,0.169-0.077c-0.042-0.055-0.1-0.083-0.172-0.083
					c-0.136,0-0.259,0.043-0.37,0.128c-0.111,0.085-0.218,0.186-0.322,0.301c-0.104,0.116-0.209,0.235-0.315,0.359
					c-0.106,0.124-0.221,0.224-0.344,0.301c0.132,0.017,0.255,0.045,0.37,0.083c0.115,0.038,0.211,0.09,0.29,0.157
					c0.079,0.066,0.135,0.147,0.169,0.243c0.034,0.096,0.036,0.208,0.006,0.336c-0.025,0.098-0.043,0.19-0.054,0.275
					c-0.01,0.085-0.013,0.16-0.006,0.225c0.006,0.064,0.024,0.114,0.054,0.15s0.074,0.054,0.134,0.054
					c0.068,0,0.128-0.022,0.179-0.067c0.051-0.044,0.096-0.105,0.134-0.182c0.039-0.076,0.072-0.166,0.102-0.268
					s0.06-0.212,0.089-0.332c0.008-0.038,0.034-0.058,0.077-0.058h0.07c0.042,0,0.06,0.02,0.051,0.058
					c-0.026,0.102-0.058,0.211-0.096,0.328c-0.039,0.117-0.086,0.225-0.144,0.322c-0.057,0.098-0.126,0.178-0.207,0.242
					c-0.081,0.063-0.179,0.096-0.293,0.096c-0.106,0-0.198-0.023-0.274-0.07c-0.077-0.047-0.135-0.109-0.175-0.188
					c-0.041-0.079-0.065-0.168-0.073-0.268c-0.009-0.1,0-0.205,0.025-0.315c0.046-0.191,0.007-0.345-0.118-0.462
					c-0.125-0.117-0.296-0.19-0.513-0.22l-0.332,1.32c-0.017,0.068-0.051,0.119-0.102,0.153c-0.051,0.034-0.102,0.051-0.153,0.051
					s-0.094-0.017-0.127-0.051c-0.034-0.034-0.042-0.085-0.025-0.153l0.937-3.748c0.017-0.068,0.027-0.12,0.032-0.157
					c0.004-0.036-0.004-0.063-0.025-0.08c-0.03-0.021-0.081-0.035-0.153-0.042s-0.153-0.01-0.242-0.01
					c-0.021,0-0.038-0.006-0.048-0.019c-0.011-0.012-0.012-0.029-0.003-0.05l0.013-0.05c0.013-0.037,0.042-0.06,0.089-0.068
					l0.81-0.068c0.021-0.004,0.038,0.001,0.051,0.016c0.013,0.015,0.015,0.033,0.006,0.054l-0.676,2.69
					c0.089-0.034,0.173-0.087,0.251-0.159s0.156-0.151,0.233-0.236s0.154-0.173,0.232-0.265s0.161-0.174,0.246-0.249
					s0.174-0.135,0.268-0.182c0.094-0.047,0.198-0.07,0.313-0.07c0.136,0,0.239,0.046,0.309,0.137
					c0.07,0.091,0.088,0.205,0.054,0.341C113.845,8.656,113.803,8.719,113.739,8.762z"/>
			</g>
			<g>
				<path d="M125.326,36.108c-0.034,0.127-0.088,0.25-0.162,0.366c-0.075,0.117-0.163,0.221-0.265,0.311
					c-0.103,0.089-0.215,0.159-0.338,0.21c-0.124,0.052-0.249,0.077-0.377,0.077c-0.072,0-0.141-0.01-0.207-0.027
					c-0.065-0.019-0.122-0.046-0.169-0.083s-0.08-0.084-0.102-0.142s-0.023-0.122-0.007-0.194c0.021-0.085,0.065-0.149,0.131-0.191
					c0.066-0.043,0.131-0.063,0.194-0.063c0.064,0,0.117,0.021,0.159,0.063c0.043,0.042,0.054,0.106,0.032,0.191
					c-0.017,0.063-0.048,0.115-0.093,0.156c-0.044,0.04-0.09,0.068-0.137,0.086c0.063,0.042,0.141,0.063,0.229,0.063
					c0.081,0,0.157-0.022,0.229-0.067s0.14-0.104,0.201-0.179c0.062-0.075,0.115-0.162,0.162-0.26
					c0.047-0.099,0.083-0.203,0.108-0.314l0.6-2.421c0.042-0.171,0.059-0.316,0.048-0.437c-0.011-0.119-0.069-0.179-0.176-0.179
					c-0.085,0-0.164,0.023-0.239,0.07c-0.074,0.046-0.143,0.109-0.207,0.188c-0.063,0.079-0.121,0.169-0.172,0.271
					c-0.051,0.102-0.098,0.208-0.141,0.318c-0.017,0.038-0.042,0.058-0.076,0.058h-0.07c-0.038-0.005-0.053-0.025-0.044-0.064
					c0.042-0.114,0.095-0.231,0.159-0.351c0.063-0.118,0.137-0.225,0.22-0.318s0.174-0.169,0.274-0.227
					c0.1-0.058,0.209-0.086,0.328-0.086c0.102,0,0.19,0.021,0.265,0.061c0.074,0.041,0.134,0.096,0.179,0.166
					c0.044,0.07,0.072,0.151,0.082,0.243c0.011,0.091,0.004,0.188-0.021,0.29L125.326,36.108z M126.059,32.006
					c-0.06,0.049-0.126,0.073-0.198,0.073s-0.127-0.024-0.165-0.073c-0.039-0.049-0.049-0.109-0.032-0.182
					c0.021-0.072,0.063-0.133,0.124-0.182s0.129-0.073,0.201-0.073s0.126,0.024,0.162,0.073s0.046,0.109,0.029,0.182
					C126.159,31.897,126.119,31.958,126.059,32.006z"/>
				<path d="M133.358,35.181c-0.047,0.117-0.104,0.224-0.172,0.319c-0.068,0.096-0.147,0.174-0.236,0.235s-0.191,0.093-0.306,0.093
					c-0.099,0-0.182-0.021-0.252-0.064c-0.07-0.042-0.124-0.099-0.163-0.17c-0.038-0.07-0.059-0.152-0.061-0.246
					s0.017-0.19,0.055-0.288l0.504-1.377c0.063-0.175,0.095-0.32,0.095-0.436s-0.049-0.173-0.146-0.173
					c-0.076,0-0.145,0.022-0.204,0.066c-0.06,0.045-0.113,0.105-0.162,0.182c-0.049,0.077-0.093,0.166-0.131,0.268
					c-0.038,0.103-0.07,0.211-0.096,0.325c-0.017,0.043-0.045,0.064-0.083,0.064h-0.069c-0.039,0-0.054-0.021-0.045-0.064
					c0.025-0.11,0.063-0.224,0.111-0.341c0.049-0.116,0.107-0.223,0.176-0.318c0.067-0.096,0.146-0.174,0.235-0.233
					c0.09-0.059,0.191-0.089,0.306-0.089c0.099,0,0.181,0.021,0.249,0.064c0.068,0.042,0.12,0.1,0.156,0.172
					s0.055,0.154,0.058,0.246c0.002,0.092-0.014,0.187-0.048,0.284l-0.504,1.381c-0.06,0.17-0.09,0.313-0.093,0.431
					c-0.002,0.117,0.046,0.176,0.144,0.176c0.077,0,0.146-0.023,0.207-0.07c0.062-0.046,0.117-0.108,0.166-0.185
					s0.092-0.166,0.128-0.268c0.036-0.103,0.068-0.211,0.099-0.325c0.009-0.038,0.034-0.058,0.076-0.058h0.07
					c0.017,0,0.031,0.006,0.042,0.017c0.01,0.01,0.011,0.024,0.003,0.041C133.441,34.951,133.405,35.065,133.358,35.181z
					 M133.31,32.006c-0.062,0.049-0.129,0.073-0.201,0.073s-0.127-0.024-0.166-0.073c-0.038-0.049-0.046-0.109-0.025-0.182
					c0.018-0.072,0.057-0.133,0.118-0.182s0.129-0.073,0.201-0.073s0.127,0.024,0.165,0.073c0.039,0.049,0.047,0.109,0.026,0.182
					C133.411,31.897,133.372,31.958,133.31,32.006z"/>
			</g>
			<g>
				<path d="M133.917,10.339c-0.047,0.117-0.104,0.223-0.175,0.319s-0.149,0.174-0.239,0.236c-0.089,0.062-0.191,0.093-0.306,0.093
					c-0.098,0-0.182-0.021-0.252-0.064c-0.07-0.042-0.123-0.099-0.159-0.169s-0.057-0.153-0.061-0.247
					c-0.005-0.094,0.013-0.19,0.051-0.288c0.067-0.184,0.133-0.366,0.194-0.548s0.116-0.364,0.162-0.547
					c0.03-0.124,0.052-0.243,0.064-0.355c0.013-0.113,0.006-0.219-0.02-0.317c-0.042-0.145-0.132-0.218-0.268-0.218
					c-0.221,0-0.409,0.077-0.564,0.231c-0.155,0.153-0.292,0.358-0.411,0.615l-0.427,1.704c-0.018,0.068-0.051,0.12-0.103,0.154
					c-0.051,0.034-0.102,0.051-0.152,0.051s-0.093-0.017-0.125-0.051c-0.031-0.034-0.039-0.085-0.021-0.154l0.478-1.934
					c0.043-0.171,0.059-0.316,0.048-0.436s-0.069-0.18-0.175-0.18c-0.106,0-0.191,0.08-0.255,0.239
					c-0.064,0.159-0.126,0.36-0.186,0.603c-0.017,0.042-0.045,0.063-0.083,0.063h-0.069c-0.039,0-0.054-0.021-0.045-0.063
					c0.025-0.094,0.053-0.198,0.083-0.313c0.029-0.115,0.069-0.222,0.121-0.322c0.051-0.1,0.113-0.183,0.188-0.249
					s0.167-0.099,0.277-0.099c0.162,0,0.288,0.049,0.38,0.146c0.091,0.098,0.141,0.221,0.149,0.37
					c0.119-0.157,0.254-0.283,0.405-0.376c0.15-0.093,0.326-0.14,0.525-0.14c0.119,0,0.229,0.022,0.328,0.067
					c0.101,0.044,0.178,0.116,0.233,0.214c0.06,0.106,0.088,0.226,0.086,0.358c-0.002,0.132-0.021,0.264-0.055,0.396
					c-0.047,0.188-0.101,0.373-0.162,0.556s-0.127,0.368-0.194,0.556c-0.064,0.17-0.096,0.315-0.096,0.435
					c0,0.115,0.049,0.172,0.146,0.172c0.076,0,0.146-0.023,0.207-0.07s0.117-0.108,0.166-0.185s0.092-0.166,0.131-0.268
					c0.038-0.102,0.069-0.21,0.096-0.325c0.017-0.038,0.042-0.058,0.076-0.058h0.076c0.038,0,0.054,0.02,0.045,0.058
					C134.002,10.109,133.964,10.223,133.917,10.339z"/>
			</g>
			<g>
				<path d="M175.41,17.105c-0.047,0.117-0.104,0.223-0.172,0.319c-0.068,0.096-0.147,0.174-0.236,0.236s-0.191,0.093-0.306,0.093
					c-0.099,0-0.182-0.021-0.252-0.064c-0.07-0.042-0.124-0.099-0.163-0.169c-0.038-0.07-0.059-0.153-0.061-0.247
					s0.017-0.19,0.055-0.288l0.504-1.377c0.063-0.175,0.095-0.32,0.095-0.435s-0.049-0.173-0.146-0.173
					c-0.076,0-0.145,0.022-0.204,0.067c-0.06,0.044-0.113,0.105-0.162,0.182c-0.049,0.076-0.093,0.166-0.131,0.268
					s-0.07,0.21-0.096,0.325c-0.017,0.042-0.045,0.063-0.083,0.063h-0.069c-0.039,0-0.054-0.021-0.045-0.063
					c0.025-0.11,0.063-0.224,0.111-0.341c0.049-0.117,0.107-0.223,0.176-0.318c0.067-0.096,0.146-0.173,0.235-0.233
					c0.09-0.06,0.191-0.089,0.306-0.089c0.099,0,0.181,0.021,0.249,0.064s0.12,0.1,0.156,0.172c0.036,0.073,0.055,0.155,0.058,0.246
					c0.002,0.092-0.014,0.187-0.048,0.285l-0.504,1.38c-0.06,0.17-0.09,0.314-0.093,0.432c-0.002,0.117,0.046,0.175,0.144,0.175
					c0.077,0,0.146-0.023,0.207-0.07s0.117-0.108,0.166-0.185s0.092-0.166,0.128-0.268s0.068-0.21,0.099-0.325
					c0.009-0.038,0.034-0.058,0.076-0.058h0.07c0.017,0,0.031,0.005,0.042,0.016c0.01,0.011,0.011,0.024,0.003,0.042
					C175.493,16.875,175.457,16.988,175.41,17.105z M175.362,13.931c-0.062,0.049-0.129,0.073-0.201,0.073s-0.127-0.024-0.166-0.073
					c-0.038-0.049-0.046-0.109-0.025-0.182c0.018-0.072,0.057-0.132,0.118-0.182c0.062-0.049,0.129-0.073,0.201-0.073
					s0.127,0.024,0.165,0.073c0.039,0.049,0.047,0.11,0.026,0.182C175.462,13.821,175.423,13.882,175.362,13.931z"/>
				<path d="M189.753,18.031c-0.034,0.128-0.088,0.25-0.162,0.367c-0.075,0.117-0.163,0.22-0.265,0.31
					c-0.103,0.089-0.215,0.16-0.338,0.211c-0.124,0.051-0.249,0.076-0.377,0.076c-0.072,0-0.141-0.01-0.207-0.027
					c-0.065-0.019-0.122-0.047-0.169-0.083c-0.047-0.037-0.08-0.084-0.102-0.142c-0.021-0.058-0.023-0.122-0.007-0.194
					c0.021-0.085,0.065-0.149,0.131-0.191c0.066-0.042,0.131-0.064,0.194-0.064c0.064,0,0.117,0.021,0.159,0.064
					c0.043,0.042,0.054,0.106,0.032,0.191c-0.017,0.063-0.048,0.116-0.093,0.156c-0.044,0.041-0.09,0.069-0.137,0.086
					c0.063,0.042,0.141,0.063,0.229,0.063c0.081,0,0.157-0.022,0.229-0.067c0.072-0.045,0.14-0.105,0.201-0.18
					s0.115-0.161,0.162-0.259c0.047-0.099,0.083-0.203,0.108-0.314l0.6-2.422c0.042-0.171,0.059-0.316,0.048-0.436
					s-0.069-0.18-0.176-0.18c-0.085,0-0.164,0.023-0.239,0.07c-0.074,0.047-0.143,0.109-0.207,0.188
					c-0.063,0.079-0.121,0.169-0.172,0.271s-0.098,0.208-0.141,0.319c-0.017,0.038-0.042,0.057-0.076,0.057h-0.07
					c-0.038-0.004-0.053-0.025-0.044-0.063c0.042-0.115,0.095-0.231,0.159-0.351c0.063-0.119,0.137-0.226,0.22-0.319
					s0.174-0.169,0.274-0.227c0.1-0.057,0.209-0.086,0.328-0.086c0.102,0,0.19,0.021,0.265,0.061
					c0.074,0.041,0.134,0.096,0.179,0.166c0.044,0.07,0.072,0.151,0.082,0.243c0.011,0.092,0.004,0.188-0.021,0.291L189.753,18.031z
					 M190.487,13.931c-0.06,0.049-0.126,0.073-0.198,0.073s-0.127-0.024-0.165-0.073c-0.039-0.049-0.049-0.109-0.032-0.182
					c0.021-0.072,0.063-0.132,0.124-0.182c0.062-0.049,0.129-0.073,0.201-0.073s0.126,0.024,0.162,0.073
					c0.036,0.049,0.046,0.11,0.029,0.182C190.586,13.821,190.546,13.882,190.487,13.931z"/>
			</g>
			<g>
				<path d="M65.365,20.098H58.5c-0.121,0-0.22-0.099-0.22-0.22s0.099-0.221,0.22-0.221h6.865c0.121,0,0.22,0.1,0.22,0.221
					S65.486,20.098,65.365,20.098z M65.365,22.233H58.5c-0.121,0-0.22-0.1-0.22-0.221s0.099-0.22,0.22-0.22h6.865
					c0.121,0,0.22,0.099,0.22,0.22S65.486,22.233,65.365,22.233z"/>
			</g>
			<g>
				<path d="M95.838,30.556h-6.26c-0.121,0-0.22-0.099-0.22-0.22s0.099-0.221,0.22-0.221h6.26c0.121,0,0.22,0.1,0.22,0.221
					S95.959,30.556,95.838,30.556z"/>
			</g>
			<g>
				<path d="M80.23,38.419c-0.022,0.033-0.055,0.049-0.077,0.049c-0.033,0-0.077,0-0.099-0.032
					c-1.661-1.916-2.365-5.043-2.365-8.153c0-3.111,0.704-6.238,2.365-8.154c0.022-0.032,0.055-0.032,0.099-0.032
					c0.022,0,0.055,0.017,0.077,0.049c0.011,0.033,0.022,0.065,0.022,0.114c0,0.033-0.011,0.082-0.033,0.115
					c-1.419,1.98-1.892,4.961-1.892,7.908c0,2.946,0.473,5.927,1.892,7.907c0.022,0.033,0.033,0.065,0.033,0.115
					C80.252,38.354,80.241,38.387,80.23,38.419z"/>
				<path d="M104.056,38.436c-0.022,0.017-0.044,0.032-0.066,0.032h-0.033c-0.022,0-0.055-0.016-0.077-0.049
					c-0.011-0.032-0.022-0.065-0.022-0.114c0-0.033,0.011-0.082,0.033-0.115c1.419-1.98,1.893-4.961,1.893-7.907
					c0-2.947-0.473-5.928-1.893-7.908c-0.022-0.033-0.033-0.065-0.033-0.115c0-0.049,0-0.081,0.022-0.114
					c0.022-0.032,0.044-0.049,0.077-0.049h0.033c0.022,0,0.044,0.017,0.066,0.032c1.662,1.916,2.366,5.043,2.366,8.154
					C106.421,33.393,105.717,36.52,104.056,38.436z"/>
			</g>
			<g>
				<path d="M165.66,19.683c-0.021,0.035-0.055,0.053-0.076,0.053c-0.033,0-0.077,0-0.1-0.035c-1.661-2.01-2.365-5.292-2.365-8.556
					c0-3.264,0.704-6.546,2.365-8.556c0.022-0.035,0.055-0.035,0.1-0.035c0.021,0,0.055,0.018,0.076,0.052
					c0.012,0.034,0.022,0.069,0.022,0.12c0,0.035-0.011,0.086-0.033,0.121c-1.419,2.079-1.893,5.206-1.893,8.298
					s0.474,6.22,1.893,8.298c0.022,0.035,0.033,0.068,0.033,0.121C165.682,19.615,165.671,19.65,165.66,19.683z"/>
				<path d="M192.731,19.701c-0.022,0.018-0.044,0.035-0.066,0.035h-0.033c-0.021,0-0.055-0.018-0.077-0.053
					c-0.011-0.033-0.021-0.068-0.021-0.119c0-0.035,0.011-0.086,0.033-0.121c1.419-2.079,1.892-5.206,1.892-8.298
					s-0.473-6.22-1.892-8.298c-0.022-0.035-0.033-0.069-0.033-0.121c0-0.051,0-0.086,0.021-0.12
					c0.022-0.034,0.044-0.052,0.077-0.052h0.033c0.022,0,0.044,0.018,0.066,0.035c1.661,2.01,2.365,5.292,2.365,8.556
					C195.096,14.409,194.392,17.691,192.731,19.701z"/>
			</g>
			<g>
				<path d="M204.064,23.542l-2.266-2.288l-2.277,2.288c-0.089,0.088-0.221,0.088-0.309,0s-0.088-0.23,0-0.318l2.277-2.277
					l-2.277-2.278c-0.088-0.088-0.088-0.231,0-0.319s0.22-0.088,0.309,0l2.277,2.288l2.266-2.288c0.088-0.088,0.231-0.088,0.319,0
					s0.088,0.231,0,0.319l-2.277,2.278l2.277,2.277c0.088,0.088,0.088,0.23,0,0.318S204.152,23.629,204.064,23.542z"/>
			</g>
			<g>
				<path d="M118.005,33.672h-3.98c-0.07,0-0.127-0.057-0.127-0.127s0.057-0.128,0.127-0.128h3.98c0.07,0,0.127,0.058,0.127,0.128
					S118.076,33.672,118.005,33.672z M118.005,34.91h-3.98c-0.07,0-0.127-0.057-0.127-0.127s0.057-0.128,0.127-0.128h3.98
					c0.07,0,0.127,0.058,0.127,0.128S118.076,34.91,118.005,34.91z"/>
			</g>
			<g>
				<path d="M118.483,9.45h-3.629c-0.07,0-0.127-0.058-0.127-0.128c0-0.07,0.058-0.127,0.127-0.127h3.629
					c0.07,0,0.128,0.058,0.128,0.127C118.611,9.392,118.553,9.45,118.483,9.45z"/>
			</g>
			<g>
				<path d="M130.974,33.672h-3.98c-0.069,0-0.127-0.057-0.127-0.127s0.058-0.128,0.127-0.128h3.98c0.07,0,0.127,0.058,0.127,0.128
					S131.044,33.672,130.974,33.672z M130.974,34.91h-3.98c-0.069,0-0.127-0.057-0.127-0.127s0.058-0.128,0.127-0.128h3.98
					c0.07,0,0.127,0.058,0.127,0.128S131.044,34.91,130.974,34.91z"/>
				<path d="M138.35,34.292h-1.862v1.868c0,0.07-0.058,0.128-0.128,0.128s-0.128-0.058-0.128-0.128v-1.868h-1.862
					c-0.069,0-0.127-0.058-0.127-0.128s0.058-0.127,0.127-0.127h1.862v-1.869c0-0.07,0.058-0.128,0.128-0.128
					s0.128,0.058,0.128,0.128v1.869h1.862c0.07,0,0.128,0.057,0.128,0.127S138.42,34.292,138.35,34.292z"/>
			</g>
			<g>
				<path d="M121.657,29.323h-11.844c-0.049,0-0.066-0.017-0.099-0.033c-0.05-0.033-0.05-0.083-0.05-0.132
					c0-0.033,0-0.066,0.017-0.1l5.081-6.284l-5.081-6.978c-0.017-0.033-0.017-0.066-0.017-0.099V15.45
					c0-0.083,0.066-0.165,0.148-0.165h11.844l1.204,3.299h-0.347c-0.347-0.957-1.105-1.682-2.029-2.111
					c-1.286-0.61-3.001-0.626-4.552-0.626h-4.767l4.635,6.367c0.033,0.049,0.049,0.132,0,0.181l-4.965,6.137h5.179
					c1.534,0,3.249,0,4.52-0.61c0.907-0.429,1.666-1.155,1.979-2.111h0.347L121.657,29.323z"/>
				<path d="M137.876,29.323h-11.844c-0.05,0-0.065-0.017-0.099-0.033c-0.05-0.033-0.05-0.083-0.05-0.132c0-0.033,0-0.066,0.017-0.1
					l5.08-6.284l-5.08-6.978c-0.017-0.033-0.017-0.066-0.017-0.099V15.45c0-0.083,0.066-0.165,0.148-0.165h11.844l1.204,3.299
					h-0.347c-0.347-0.957-1.105-1.682-2.029-2.111c-1.286-0.61-3.002-0.626-4.552-0.626h-4.768l4.635,6.367
					c0.033,0.049,0.05,0.132,0,0.181l-4.965,6.137h5.18c1.534,0,3.249,0,4.52-0.61c0.907-0.429,1.666-1.155,1.979-2.111h0.347
					L137.876,29.323z"/>
			</g>
			<g>
				<path d="M90.161,16.821h-4.07V16.59c0-0.015,0.007-0.037,0.022-0.066l1.661-1.859c0.205-0.228,0.409-0.46,0.61-0.699
					s0.383-0.48,0.545-0.726c0.161-0.246,0.292-0.502,0.39-0.77c0.099-0.268,0.148-0.548,0.148-0.841
					c0-0.242-0.031-0.471-0.093-0.688c-0.063-0.216-0.154-0.407-0.275-0.572s-0.271-0.297-0.451-0.396
					c-0.18-0.099-0.391-0.148-0.632-0.148c-0.352,0-0.664,0.108-0.935,0.325c-0.271,0.216-0.462,0.489-0.572,0.819
					c0.081-0.022,0.165-0.027,0.253-0.017c0.088,0.011,0.167,0.041,0.236,0.088c0.07,0.047,0.128,0.112,0.176,0.192
					c0.048,0.081,0.072,0.176,0.072,0.286c0,0.19-0.061,0.335-0.182,0.434c-0.121,0.099-0.255,0.148-0.401,0.148
					c-0.14,0-0.27-0.049-0.391-0.148c-0.121-0.099-0.182-0.244-0.182-0.434c0-0.279,0.053-0.543,0.159-0.792
					c0.106-0.249,0.25-0.465,0.433-0.649c0.182-0.183,0.397-0.328,0.646-0.435c0.248-0.106,0.511-0.159,0.788-0.159
					c0.343,0,0.658,0.053,0.947,0.159c0.288,0.106,0.534,0.257,0.739,0.451c0.204,0.194,0.363,0.422,0.476,0.682
					s0.169,0.544,0.169,0.853c0,0.352-0.077,0.673-0.231,0.962c-0.154,0.29-0.346,0.559-0.577,0.809s-0.477,0.484-0.737,0.704
					c-0.26,0.22-0.497,0.433-0.709,0.638l-1.265,1.232h1.111c0.161,0,0.348,0,0.561,0c0.212,0,0.413-0.001,0.6-0.005
					c0.187-0.003,0.348-0.011,0.484-0.022s0.21-0.024,0.226-0.039c0.029-0.029,0.057-0.083,0.083-0.159
					c0.025-0.077,0.049-0.164,0.071-0.259s0.042-0.194,0.061-0.297c0.018-0.103,0.035-0.198,0.049-0.286h0.297L90.161,16.821z"/>
			</g>
			<g>
				<path d="M99.208,33.086v-0.341c0.095,0,0.198,0,0.308,0s0.216-0.002,0.319-0.006s0.2-0.011,0.292-0.021
					c0.092-0.012,0.167-0.024,0.226-0.039c0.073-0.015,0.13-0.053,0.17-0.115c0.041-0.063,0.061-0.134,0.061-0.215v-5.851
					c-0.213,0.106-0.442,0.183-0.688,0.228c-0.246,0.046-0.497,0.068-0.753,0.068v-0.341c0.374,0,0.737-0.052,1.089-0.154
					s0.656-0.289,0.913-0.561h0.132c0.081,0,0.121,0.04,0.121,0.121v6.489c0,0.081,0.02,0.152,0.061,0.215s0.097,0.101,0.17,0.115
					c0.059,0.015,0.132,0.027,0.22,0.039c0.088,0.011,0.185,0.018,0.292,0.021c0.106,0.004,0.214,0.006,0.324,0.006
					c0.11,0,0.213,0,0.308,0v0.341C101.584,33.042,100.396,33.042,99.208,33.086z"/>
			</g>
			<g>
				<path d="M207.585,23.696v-0.341c0.096,0,0.198,0,0.308,0c0.11,0,0.217-0.002,0.319-0.006s0.2-0.011,0.292-0.021
					c0.091-0.012,0.166-0.024,0.226-0.039c0.073-0.015,0.13-0.053,0.17-0.115s0.061-0.134,0.061-0.215v-5.85
					c-0.213,0.106-0.441,0.182-0.688,0.227c-0.246,0.046-0.497,0.068-0.754,0.068v-0.341c0.374,0,0.737-0.051,1.09-0.154
					c0.352-0.103,0.656-0.29,0.913-0.561h0.132c0.08,0,0.121,0.041,0.121,0.121v6.49c0,0.081,0.02,0.152,0.061,0.215
					c0.04,0.063,0.097,0.101,0.17,0.115c0.059,0.015,0.132,0.027,0.22,0.039c0.089,0.011,0.186,0.018,0.292,0.021
					s0.215,0.006,0.324,0.006c0.11,0,0.213,0,0.309,0v0.341C209.961,23.652,208.774,23.652,207.585,23.696z"/>
				<path d="M216.991,21.642c-0.066,0.483-0.228,0.934-0.484,1.352c-0.184,0.3-0.429,0.532-0.737,0.697
					c-0.308,0.164-0.638,0.247-0.989,0.247c-0.353,0-0.683-0.083-0.99-0.247c-0.308-0.165-0.554-0.397-0.737-0.697
					c-0.257-0.418-0.418-0.868-0.483-1.352c-0.066-0.483-0.1-0.967-0.1-1.449c0-0.498,0.033-0.992,0.1-1.483
					c0.065-0.491,0.227-0.948,0.483-1.373c0.184-0.308,0.43-0.545,0.737-0.714s0.638-0.253,0.99-0.253
					c0.352,0,0.682,0.084,0.989,0.253c0.309,0.168,0.554,0.406,0.737,0.714c0.257,0.425,0.418,0.882,0.484,1.373
					c0.065,0.491,0.099,0.985,0.099,1.483C217.089,20.675,217.056,21.159,216.991,21.642z M216.171,19.324
					c-0.004-0.238-0.014-0.474-0.028-0.705s-0.038-0.449-0.071-0.654c-0.033-0.205-0.079-0.381-0.138-0.528
					c-0.103-0.235-0.256-0.431-0.462-0.589c-0.205-0.157-0.436-0.236-0.692-0.236s-0.488,0.079-0.693,0.236
					c-0.205,0.158-0.359,0.354-0.462,0.589c-0.059,0.146-0.104,0.323-0.138,0.528c-0.033,0.206-0.057,0.423-0.071,0.654
					s-0.023,0.466-0.027,0.705s-0.006,0.467-0.006,0.688c0,0.234,0.002,0.483,0.006,0.748c0.004,0.264,0.013,0.521,0.027,0.77
					s0.038,0.486,0.071,0.71s0.079,0.412,0.138,0.566c0.096,0.257,0.246,0.469,0.451,0.638s0.439,0.253,0.704,0.253
					c0.264,0,0.498-0.084,0.704-0.253c0.205-0.169,0.355-0.381,0.45-0.638c0.059-0.154,0.104-0.343,0.138-0.566
					s0.057-0.461,0.071-0.71s0.024-0.506,0.028-0.77c0.003-0.265,0.005-0.514,0.005-0.748
					C216.176,19.791,216.174,19.562,216.171,19.324z"/>
				<path d="M222.491,21.642c-0.066,0.483-0.228,0.934-0.484,1.352c-0.184,0.3-0.429,0.532-0.737,0.697
					c-0.308,0.164-0.638,0.247-0.989,0.247c-0.353,0-0.683-0.083-0.99-0.247c-0.308-0.165-0.554-0.397-0.737-0.697
					c-0.257-0.418-0.418-0.868-0.483-1.352c-0.066-0.483-0.1-0.967-0.1-1.449c0-0.498,0.033-0.992,0.1-1.483
					c0.065-0.491,0.227-0.948,0.483-1.373c0.184-0.308,0.43-0.545,0.737-0.714s0.638-0.253,0.99-0.253
					c0.352,0,0.682,0.084,0.989,0.253c0.309,0.168,0.554,0.406,0.737,0.714c0.257,0.425,0.418,0.882,0.484,1.373
					c0.065,0.491,0.099,0.985,0.099,1.483C222.589,20.675,222.556,21.159,222.491,21.642z M221.671,19.324
					c-0.004-0.238-0.014-0.474-0.028-0.705s-0.038-0.449-0.071-0.654c-0.033-0.205-0.079-0.381-0.138-0.528
					c-0.103-0.235-0.256-0.431-0.462-0.589c-0.205-0.157-0.436-0.236-0.692-0.236s-0.488,0.079-0.693,0.236
					c-0.205,0.158-0.359,0.354-0.462,0.589c-0.059,0.146-0.104,0.323-0.138,0.528c-0.033,0.206-0.057,0.423-0.071,0.654
					s-0.023,0.466-0.027,0.705s-0.006,0.467-0.006,0.688c0,0.234,0.002,0.483,0.006,0.748c0.004,0.264,0.013,0.521,0.027,0.77
					s0.038,0.486,0.071,0.71s0.079,0.412,0.138,0.566c0.096,0.257,0.246,0.469,0.451,0.638s0.439,0.253,0.704,0.253
					c0.264,0,0.498-0.084,0.704-0.253c0.205-0.169,0.355-0.381,0.45-0.638c0.059-0.154,0.104-0.343,0.138-0.566
					s0.057-0.461,0.071-0.71s0.024-0.506,0.028-0.77c0.003-0.265,0.005-0.514,0.005-0.748
					C221.676,19.791,221.674,19.562,221.671,19.324z"/>
			</g>
			<g>
				<path d="M118.873,35.758v-0.197c0.056,0,0.115,0,0.179,0s0.125-0.001,0.185-0.004c0.06-0.002,0.116-0.006,0.169-0.013
					c0.054-0.006,0.097-0.014,0.131-0.022c0.043-0.008,0.075-0.03,0.099-0.066s0.035-0.077,0.035-0.124v-3.391
					c-0.123,0.062-0.256,0.105-0.398,0.131c-0.143,0.027-0.288,0.04-0.437,0.04v-0.197c0.217,0,0.427-0.03,0.631-0.09
					s0.381-0.168,0.529-0.325h0.076c0.047,0,0.07,0.023,0.07,0.07v3.762c0,0.047,0.012,0.088,0.035,0.124s0.057,0.059,0.099,0.066
					c0.034,0.009,0.077,0.017,0.128,0.022c0.051,0.007,0.107,0.011,0.169,0.013c0.062,0.003,0.124,0.004,0.188,0.004
					c0.064,0,0.124,0,0.179,0v0.197C120.25,35.733,119.561,35.733,118.873,35.758z"/>
			</g>
			<g>
				<path d="M119.333,10.917v-0.198c0.056,0,0.115,0,0.179,0s0.125-0.001,0.185-0.003c0.06-0.002,0.116-0.006,0.169-0.013
					c0.054-0.006,0.097-0.014,0.131-0.022c0.043-0.008,0.075-0.031,0.099-0.067s0.035-0.078,0.035-0.125V7.099
					c-0.123,0.062-0.256,0.105-0.398,0.132s-0.288,0.04-0.437,0.04V7.072c0.217,0,0.427-0.03,0.631-0.089
					c0.204-0.059,0.381-0.167,0.529-0.325h0.076c0.047,0,0.07,0.023,0.07,0.07v3.761c0,0.047,0.012,0.088,0.035,0.125
					s0.057,0.059,0.099,0.067c0.034,0.008,0.077,0.016,0.128,0.022s0.107,0.01,0.169,0.013c0.062,0.002,0.124,0.003,0.188,0.003
					c0.064,0,0.124,0,0.179,0v0.198C120.71,10.891,120.022,10.891,119.333,10.917z"/>
			</g>
			<g>
				<path d="M139.208,35.758v-0.197c0.056,0,0.115,0,0.179,0s0.125-0.001,0.185-0.004c0.06-0.002,0.116-0.006,0.169-0.013
					c0.054-0.006,0.097-0.014,0.131-0.022c0.043-0.008,0.075-0.03,0.099-0.066s0.035-0.077,0.035-0.124v-3.391
					c-0.123,0.062-0.256,0.105-0.398,0.131c-0.143,0.027-0.288,0.04-0.437,0.04v-0.197c0.217,0,0.427-0.03,0.631-0.09
					s0.381-0.168,0.529-0.325h0.076c0.047,0,0.07,0.023,0.07,0.07v3.762c0,0.047,0.012,0.088,0.035,0.124s0.057,0.059,0.099,0.066
					c0.034,0.009,0.077,0.017,0.128,0.022c0.051,0.007,0.107,0.011,0.169,0.013c0.062,0.003,0.124,0.004,0.188,0.004
					c0.064,0,0.124,0,0.179,0v0.197C140.585,35.733,139.897,35.733,139.208,35.758z"/>
			</g>
			<g>
				<path d="M178.268,15.045c-0.161,0.367-0.389,0.689-0.682,0.968c-0.052,0.037-0.104,0.037-0.154,0l-0.022-0.033
					c-0.044-0.037-0.044-0.084,0-0.143c0.271-0.257,0.482-0.554,0.633-0.891s0.226-0.693,0.226-1.067
					c0-0.029-0.002-0.059-0.006-0.088c-0.003-0.029-0.005-0.059-0.005-0.088c-0.11,0.132-0.261,0.198-0.451,0.198
					s-0.336-0.061-0.435-0.182s-0.148-0.254-0.148-0.401c0-0.146,0.05-0.28,0.148-0.401s0.244-0.182,0.435-0.182
					c0.139,0,0.253,0.037,0.341,0.11c0.088,0.074,0.159,0.165,0.215,0.275c0.055,0.11,0.093,0.232,0.115,0.368
					s0.033,0.266,0.033,0.391C178.51,14.29,178.429,14.678,178.268,15.045z"/>
			</g>
			<g>
				<path d="M224.976,24.212c-0.036,0.052-0.084,0.083-0.143,0.094s-0.113-0.002-0.165-0.038c-0.052-0.037-0.084-0.083-0.099-0.138
					s-0.004-0.112,0.032-0.171l5.017-7.479c-0.235,0.146-0.484,0.253-0.748,0.319s-0.533,0.097-0.809,0.093
					c-0.275-0.003-0.55-0.044-0.825-0.121c-0.274-0.077-0.537-0.193-0.786-0.347c0.088,0.191,0.15,0.393,0.187,0.605
					c0.037,0.213,0.056,0.425,0.056,0.638c0,0.271-0.029,0.541-0.088,0.808c-0.06,0.268-0.162,0.52-0.309,0.754
					c-0.109,0.176-0.251,0.332-0.424,0.467c-0.172,0.137-0.372,0.204-0.599,0.204c-0.235,0-0.453-0.063-0.655-0.192
					c-0.201-0.129-0.368-0.288-0.5-0.479c-0.169-0.228-0.288-0.475-0.357-0.743c-0.07-0.268-0.104-0.541-0.104-0.819
					s0.034-0.55,0.104-0.814c0.069-0.264,0.188-0.513,0.357-0.748c0.132-0.191,0.299-0.348,0.5-0.473
					c0.202-0.125,0.42-0.187,0.655-0.187c0.146,0,0.284,0.031,0.412,0.093c0.128,0.063,0.244,0.145,0.347,0.248
					c0.315,0.308,0.669,0.534,1.062,0.677c0.392,0.143,0.782,0.205,1.171,0.187s0.76-0.119,1.111-0.303
					c0.353-0.183,0.646-0.451,0.88-0.803c0.037-0.051,0.083-0.084,0.138-0.099s0.111-0.003,0.171,0.033
					c0.051,0.037,0.082,0.084,0.093,0.143c0.012,0.059-0.002,0.114-0.038,0.165L224.976,24.212z M226.335,16.931
					c-0.056-0.242-0.146-0.469-0.27-0.682c-0.096-0.162-0.209-0.295-0.342-0.402c-0.132-0.106-0.282-0.159-0.45-0.159
					c-0.147,0-0.281,0.053-0.402,0.159c-0.12,0.106-0.222,0.237-0.302,0.391c-0.11,0.213-0.177,0.44-0.198,0.682
					c-0.022,0.242-0.033,0.491-0.033,0.748s0.011,0.508,0.033,0.753c0.021,0.246,0.088,0.475,0.198,0.688
					c0.08,0.154,0.182,0.282,0.302,0.385c0.121,0.104,0.255,0.154,0.402,0.154c0.168,0,0.318-0.053,0.45-0.16
					c0.133-0.105,0.246-0.236,0.342-0.391c0.124-0.212,0.214-0.439,0.27-0.681c0.055-0.242,0.082-0.491,0.082-0.748
					C226.417,17.418,226.39,17.173,226.335,16.931z M231.483,22.893c-0.063,0.264-0.167,0.513-0.313,0.748
					c-0.11,0.176-0.251,0.331-0.424,0.467c-0.172,0.136-0.368,0.204-0.588,0.204c-0.242,0-0.462-0.064-0.66-0.192
					c-0.198-0.129-0.367-0.288-0.506-0.479c-0.161-0.228-0.279-0.474-0.353-0.737s-0.109-0.535-0.109-0.814
					c0-0.278,0.036-0.55,0.109-0.813s0.191-0.51,0.353-0.737c0.139-0.19,0.308-0.348,0.506-0.473s0.418-0.188,0.66-0.188
					c0.22,0,0.416,0.066,0.588,0.198c0.173,0.132,0.313,0.286,0.424,0.462c0.146,0.235,0.251,0.484,0.313,0.748
					c0.063,0.265,0.094,0.532,0.094,0.803C231.577,22.361,231.545,22.628,231.483,22.893z M231.219,21.362
					c-0.056-0.239-0.146-0.465-0.27-0.679c-0.103-0.162-0.22-0.296-0.353-0.402c-0.132-0.106-0.278-0.16-0.439-0.16
					c-0.146,0-0.28,0.052-0.401,0.154c-0.121,0.104-0.223,0.236-0.303,0.397c-0.103,0.213-0.169,0.439-0.198,0.679
					c-0.029,0.238-0.044,0.487-0.044,0.744c0,0.258,0.013,0.508,0.039,0.75c0.025,0.243,0.093,0.471,0.203,0.684
					c0.08,0.155,0.182,0.283,0.303,0.387c0.121,0.103,0.255,0.154,0.401,0.154c0.161,0,0.308-0.052,0.439-0.154
					c0.133-0.104,0.25-0.235,0.353-0.397c0.124-0.213,0.214-0.439,0.27-0.678c0.055-0.239,0.082-0.487,0.082-0.745
					C231.301,21.845,231.274,21.601,231.219,21.362z"/>
			</g>
		</g>
	</g>
</g>
</svg>
