<?xml version="1.0" encoding="utf-8"?>
<!-- Generator: Adobe Illustrator 14.0.0, SVG Export Plug-In . SVG Version: 6.00 Build 43363)  -->
<!DOCTYPE svg PUBLIC "-//W3C//DTD SVG 1.1//EN" "http://www.w3.org/Graphics/SVG/1.1/DTD/svg11.dtd">
<svg version="1.1" xmlns="http://www.w3.org/2000/svg" xmlns:xlink="http://www.w3.org/1999/xlink" x="0px" y="0px"
	 width="133.71px" height="18.745px" viewBox="0 0 133.71 18.745" style="enable-background:new 0 0 133.71 18.745;"
	 xml:space="preserve">
<g id="Layer_1">
</g>
<g id="Layer_2">
	<g id="theGroup">
		<g>
			<g>
				<path d="M8.603,8.105C8.596,8.143,8.579,8.174,8.554,8.199C8.528,8.225,8.497,8.238,8.46,8.238H8.361
					c-0.081,0-0.114-0.037-0.099-0.11c0.029-0.162,0.055-0.328,0.077-0.5c0.022-0.172,0.039-0.334,0.05-0.484
					c0.011-0.15,0.009-0.286-0.005-0.407C8.368,6.615,8.339,6.521,8.295,6.456c-0.103-0.139-0.246-0.232-0.429-0.28
					C7.683,6.127,7.481,6.104,7.261,6.104H6.667c-0.191,0-0.312,0.015-0.363,0.044C6.26,6.192,6.216,6.31,6.172,6.5l-1.496,5.994
					c-0.044,0.176-0.019,0.283,0.077,0.319c0.103,0.037,0.268,0.059,0.495,0.066c0.227,0.007,0.451,0.011,0.671,0.011
					c0.081,0,0.11,0.043,0.088,0.128l-0.022,0.085c-0.015,0.078-0.066,0.117-0.154,0.117c-1.181-0.044-2.373-0.044-3.575,0
					c-0.037,0-0.064-0.011-0.082-0.032c-0.019-0.021-0.021-0.05-0.006-0.085l0.022-0.085c0.007-0.035,0.026-0.065,0.055-0.091
					c0.029-0.024,0.062-0.037,0.099-0.037c0.22,0,0.445-0.004,0.676-0.011c0.231-0.008,0.405-0.029,0.522-0.066
					c0.117-0.036,0.198-0.144,0.242-0.319L5.281,6.5C5.333,6.31,5.347,6.192,5.325,6.147C5.296,6.119,5.182,6.104,4.984,6.104H4.39
					c-0.22,0-0.435,0.024-0.644,0.072S3.349,6.316,3.18,6.456C3.099,6.521,3.024,6.613,2.955,6.73
					c-0.07,0.118-0.138,0.251-0.204,0.402s-0.13,0.31-0.192,0.479C2.496,7.779,2.436,7.948,2.377,8.117
					C2.348,8.197,2.296,8.238,2.223,8.238H2.135c-0.037,0-0.064-0.011-0.083-0.033C2.034,8.183,2.032,8.153,2.047,8.117
					C2.142,7.75,2.26,7.38,2.399,7.006S2.67,6.26,2.795,5.891c0.029-0.078,0.081-0.117,0.154-0.117h5.918
					c0.081,0,0.113,0.035,0.099,0.106L8.603,8.105z"/>
				<path d="M13.113,9.503c-0.11,0.073-0.22,0.11-0.33,0.11c-0.11,0-0.204-0.037-0.281-0.11c-0.077-0.073-0.097-0.184-0.061-0.33
					c0.029-0.117,0.081-0.209,0.154-0.275c0.073-0.066,0.154-0.113,0.242-0.143c-0.146-0.11-0.355-0.165-0.627-0.165
					c-0.286,0-0.539,0.118-0.759,0.354c-0.22,0.236-0.418,0.553-0.594,0.95l-0.781,3.095c-0.029,0.117-0.088,0.206-0.176,0.265
					c-0.088,0.06-0.176,0.089-0.264,0.089s-0.16-0.029-0.215-0.089c-0.055-0.059-0.068-0.147-0.038-0.265l0.825-3.338
					c0.073-0.294,0.101-0.545,0.083-0.751c-0.019-0.207-0.119-0.31-0.302-0.31c-0.184,0-0.33,0.137-0.44,0.413
					c-0.11,0.275-0.217,0.621-0.319,1.039c-0.029,0.074-0.077,0.111-0.143,0.111H8.966c-0.066,0-0.092-0.037-0.077-0.111
					c0.044-0.16,0.091-0.34,0.143-0.538C9.083,9.305,9.153,9.12,9.241,8.947c0.088-0.172,0.196-0.315,0.324-0.429
					c0.128-0.113,0.288-0.17,0.479-0.17c0.257,0,0.464,0.075,0.622,0.226s0.251,0.343,0.281,0.578
					c0.176-0.242,0.372-0.437,0.588-0.583c0.216-0.147,0.464-0.22,0.742-0.22c0.14,0,0.281,0.014,0.424,0.042
					c0.143,0.028,0.268,0.074,0.374,0.138c0.106,0.063,0.185,0.148,0.236,0.255s0.059,0.236,0.022,0.391
					C13.296,9.319,13.223,9.43,13.113,9.503z"/>
				<path d="M18.415,12.187c-0.052,0.198-0.121,0.382-0.209,0.55c-0.088,0.169-0.196,0.313-0.325,0.43s-0.288,0.176-0.479,0.176
					c-0.257,0-0.462-0.073-0.616-0.22c-0.154-0.147-0.25-0.334-0.286-0.562c-0.169,0.205-0.371,0.387-0.605,0.545
					c-0.235,0.157-0.48,0.236-0.737,0.236c-0.271,0-0.499-0.07-0.682-0.209c-0.184-0.14-0.327-0.316-0.429-0.529
					c-0.125-0.258-0.191-0.537-0.198-0.838c-0.008-0.302,0.029-0.607,0.11-0.916c0.081-0.309,0.198-0.613,0.352-0.914
					c0.154-0.302,0.355-0.581,0.605-0.838c0.205-0.213,0.438-0.392,0.698-0.535c0.26-0.143,0.522-0.215,0.787-0.215
					c0.227,0,0.413,0.063,0.556,0.188s0.254,0.276,0.335,0.452l0.011-0.066c0.022-0.117,0.075-0.208,0.16-0.27
					s0.17-0.094,0.258-0.094c0.095,0,0.174,0.031,0.237,0.094c0.062,0.063,0.079,0.153,0.049,0.27l-0.77,3.109
					c-0.037,0.147-0.063,0.287-0.077,0.419c-0.015,0.133-0.015,0.246,0,0.342c0.014,0.096,0.045,0.171,0.093,0.226
					c0.048,0.056,0.116,0.083,0.204,0.083s0.168-0.036,0.242-0.11c0.073-0.073,0.14-0.176,0.198-0.308s0.114-0.286,0.165-0.462
					s0.103-0.37,0.154-0.583c0.015-0.066,0.059-0.099,0.132-0.099h0.121c0.073,0,0.103,0.032,0.088,0.099
					C18.514,11.806,18.466,11.988,18.415,12.187z M17.089,9.436c-0.011-0.07-0.027-0.142-0.049-0.216
					c-0.059-0.177-0.145-0.326-0.259-0.448S16.523,8.59,16.347,8.59c-0.161,0-0.319,0.059-0.473,0.177
					c-0.154,0.118-0.293,0.265-0.418,0.442c-0.176,0.25-0.308,0.512-0.396,0.785c-0.088,0.271-0.169,0.556-0.242,0.851
					c-0.073,0.287-0.134,0.569-0.182,0.846c-0.047,0.276-0.046,0.536,0.006,0.779c0.037,0.177,0.101,0.326,0.192,0.447
					c0.091,0.122,0.222,0.183,0.391,0.183c0.176,0,0.35-0.063,0.522-0.188c0.172-0.126,0.332-0.276,0.479-0.453
					c0.059-0.074,0.113-0.145,0.165-0.21c0.051-0.066,0.099-0.141,0.143-0.222l0.594-2.377C17.113,9.577,17.101,9.505,17.089,9.436z
					"/>
				<path d="M24.52,12.226c-0.081,0.201-0.181,0.385-0.302,0.55s-0.258,0.301-0.413,0.407c-0.154,0.105-0.33,0.159-0.528,0.159
					c-0.169,0-0.313-0.037-0.435-0.11c-0.121-0.074-0.213-0.172-0.275-0.293c-0.063-0.122-0.098-0.264-0.104-0.426
					c-0.007-0.162,0.022-0.328,0.088-0.497c0.117-0.316,0.229-0.632,0.335-0.945c0.106-0.313,0.2-0.627,0.28-0.944
					c0.051-0.214,0.088-0.419,0.11-0.613c0.022-0.195,0.011-0.378-0.033-0.547c-0.073-0.25-0.228-0.375-0.462-0.375
					c-0.381,0-0.706,0.132-0.974,0.398c-0.268,0.265-0.504,0.619-0.709,1.061l-0.737,2.939c-0.029,0.117-0.088,0.206-0.176,0.265
					c-0.088,0.06-0.176,0.089-0.264,0.089s-0.16-0.029-0.215-0.089c-0.055-0.059-0.068-0.147-0.038-0.265l0.825-3.338
					c0.073-0.294,0.101-0.545,0.083-0.751c-0.019-0.207-0.119-0.31-0.302-0.31c-0.184,0-0.33,0.137-0.44,0.413
					c-0.11,0.275-0.217,0.621-0.319,1.039c-0.029,0.074-0.077,0.111-0.143,0.111h-0.121c-0.066,0-0.092-0.037-0.077-0.111
					c0.044-0.16,0.091-0.34,0.143-0.538c0.051-0.198,0.121-0.383,0.209-0.556c0.088-0.172,0.196-0.315,0.324-0.429
					c0.128-0.113,0.288-0.17,0.479-0.17c0.279,0,0.497,0.084,0.655,0.253c0.157,0.169,0.244,0.381,0.258,0.638
					c0.205-0.271,0.438-0.488,0.699-0.649c0.26-0.161,0.563-0.242,0.907-0.242c0.205,0,0.394,0.039,0.566,0.116
					s0.306,0.2,0.402,0.37c0.103,0.184,0.152,0.389,0.148,0.617c-0.004,0.228-0.035,0.456-0.094,0.684
					c-0.081,0.323-0.174,0.644-0.28,0.96c-0.106,0.315-0.218,0.635-0.335,0.959c-0.11,0.294-0.165,0.544-0.165,0.749
					c0,0.199,0.084,0.298,0.253,0.298c0.132,0,0.251-0.04,0.357-0.121c0.106-0.08,0.202-0.187,0.286-0.318
					c0.084-0.133,0.159-0.286,0.226-0.463c0.066-0.176,0.121-0.362,0.165-0.561c0.029-0.066,0.073-0.099,0.132-0.099h0.132
					c0.066,0,0.092,0.032,0.077,0.099C24.667,11.827,24.601,12.023,24.52,12.226z"/>
				<path d="M28.986,9.789C28.89,9.854,28.795,9.888,28.7,9.888c-0.088,0-0.164-0.033-0.226-0.099
					c-0.063-0.066-0.079-0.162-0.049-0.286c0.029-0.11,0.084-0.196,0.165-0.259c0.081-0.062,0.165-0.101,0.253-0.115
					c-0.037-0.162-0.132-0.292-0.286-0.391s-0.337-0.148-0.55-0.148c-0.125,0-0.246,0.015-0.363,0.044
					c-0.117,0.03-0.228,0.085-0.33,0.166c-0.095,0.074-0.172,0.162-0.231,0.265s-0.103,0.214-0.132,0.332
					c-0.051,0.191-0.031,0.361,0.061,0.508c0.091,0.148,0.229,0.24,0.413,0.277l0.539,0.121c0.169,0.037,0.321,0.102,0.457,0.193
					s0.246,0.205,0.33,0.337c0.084,0.133,0.139,0.282,0.165,0.447c0.026,0.166,0.017,0.341-0.027,0.525
					c-0.059,0.206-0.147,0.411-0.264,0.613s-0.271,0.378-0.462,0.524c-0.213,0.155-0.435,0.261-0.666,0.315
					c-0.231,0.056-0.453,0.083-0.666,0.083c-0.213,0-0.411-0.029-0.594-0.088c-0.184-0.059-0.341-0.145-0.473-0.259
					c-0.132-0.113-0.226-0.251-0.281-0.412c-0.055-0.161-0.057-0.345-0.005-0.551c0.037-0.146,0.11-0.256,0.22-0.329
					c0.11-0.073,0.22-0.11,0.33-0.11c0.11,0,0.203,0.037,0.28,0.11s0.097,0.183,0.061,0.329c-0.037,0.147-0.11,0.257-0.22,0.33
					c-0.11,0.074-0.22,0.114-0.33,0.121c0.059,0.191,0.186,0.341,0.38,0.451c0.194,0.11,0.423,0.165,0.688,0.165
					c0.161,0,0.321-0.019,0.479-0.055c0.157-0.037,0.302-0.106,0.435-0.21c0.125-0.088,0.227-0.196,0.308-0.325
					s0.139-0.267,0.176-0.413c0.059-0.235,0.025-0.439-0.099-0.612c-0.125-0.173-0.304-0.289-0.539-0.348l-0.539-0.121
					c-0.301-0.066-0.522-0.221-0.666-0.463s-0.174-0.529-0.093-0.859c0.044-0.177,0.115-0.353,0.214-0.53
					c0.099-0.176,0.233-0.331,0.401-0.463c0.169-0.132,0.35-0.224,0.545-0.276c0.194-0.051,0.383-0.077,0.566-0.077
					c0.176,0,0.341,0.026,0.495,0.079c0.154,0.052,0.284,0.129,0.391,0.231c0.106,0.101,0.18,0.224,0.22,0.367
					c0.04,0.143,0.039,0.302-0.005,0.479C29.143,9.627,29.081,9.723,28.986,9.789z"/>
				<path d="M34.75,12.187c-0.052,0.198-0.121,0.382-0.209,0.55c-0.088,0.169-0.196,0.313-0.325,0.43s-0.288,0.176-0.479,0.176
					c-0.257,0-0.462-0.073-0.616-0.22c-0.154-0.147-0.25-0.334-0.286-0.562c-0.169,0.205-0.371,0.387-0.605,0.545
					c-0.235,0.157-0.48,0.236-0.737,0.236c-0.271,0-0.499-0.07-0.682-0.209c-0.184-0.14-0.327-0.316-0.429-0.529
					c-0.125-0.258-0.191-0.537-0.198-0.838c-0.008-0.302,0.029-0.607,0.11-0.916c0.081-0.309,0.198-0.613,0.352-0.914
					c0.154-0.302,0.355-0.581,0.605-0.838c0.205-0.213,0.438-0.392,0.698-0.535c0.26-0.143,0.522-0.215,0.787-0.215
					c0.227,0,0.413,0.063,0.556,0.188s0.254,0.276,0.335,0.452l0.011-0.066c0.022-0.117,0.075-0.208,0.16-0.27
					s0.17-0.094,0.258-0.094c0.095,0,0.174,0.031,0.237,0.094c0.062,0.063,0.079,0.153,0.049,0.27l-0.77,3.109
					c-0.037,0.147-0.063,0.287-0.077,0.419c-0.015,0.133-0.015,0.246,0,0.342c0.014,0.096,0.045,0.171,0.093,0.226
					c0.048,0.056,0.116,0.083,0.204,0.083s0.168-0.036,0.242-0.11c0.073-0.073,0.14-0.176,0.198-0.308s0.114-0.286,0.165-0.462
					s0.103-0.37,0.154-0.583c0.015-0.066,0.059-0.099,0.132-0.099h0.121c0.073,0,0.103,0.032,0.088,0.099
					C34.849,11.806,34.801,11.988,34.75,12.187z M33.424,9.436c-0.011-0.07-0.027-0.142-0.049-0.216
					c-0.059-0.177-0.145-0.326-0.259-0.448S32.858,8.59,32.682,8.59c-0.161,0-0.319,0.059-0.473,0.177
					c-0.154,0.118-0.293,0.265-0.418,0.442c-0.176,0.25-0.308,0.512-0.396,0.785c-0.088,0.271-0.169,0.556-0.242,0.851
					c-0.073,0.287-0.134,0.569-0.182,0.846c-0.047,0.276-0.046,0.536,0.006,0.779c0.037,0.177,0.101,0.326,0.192,0.447
					c0.091,0.122,0.222,0.183,0.391,0.183c0.176,0,0.35-0.063,0.522-0.188c0.172-0.126,0.332-0.276,0.479-0.453
					c0.059-0.074,0.113-0.145,0.165-0.21c0.051-0.066,0.099-0.141,0.143-0.222l0.594-2.377C33.448,9.577,33.436,9.505,33.424,9.436z
					"/>
			</g>
			<g>
				<path d="M39.779,12.121c-0.279,0.396-0.633,0.698-1.062,0.907c-0.429,0.209-0.86,0.313-1.292,0.313
					c-0.301,0-0.563-0.068-0.787-0.204s-0.398-0.314-0.522-0.534c-0.147-0.25-0.233-0.525-0.259-0.827
					c-0.025-0.302,0.002-0.61,0.083-0.927c0.081-0.322,0.209-0.635,0.385-0.937c0.176-0.302,0.396-0.577,0.66-0.827
					c0.242-0.221,0.509-0.399,0.803-0.535c0.293-0.136,0.586-0.204,0.88-0.204c0.176,0,0.341,0.026,0.495,0.079
					c0.154,0.052,0.284,0.129,0.391,0.231c0.106,0.101,0.18,0.224,0.22,0.367c0.041,0.143,0.039,0.302-0.005,0.479
					c-0.037,0.146-0.11,0.259-0.22,0.335c-0.11,0.077-0.22,0.115-0.33,0.115c-0.11,0-0.202-0.038-0.275-0.115
					c-0.074-0.076-0.092-0.188-0.055-0.335c0.037-0.147,0.108-0.255,0.214-0.325s0.211-0.108,0.313-0.116
					c-0.059-0.146-0.159-0.262-0.302-0.346S38.8,8.59,38.602,8.59c-0.191,0-0.383,0.059-0.578,0.177
					C37.83,8.884,37.66,9.036,37.513,9.22c-0.198,0.236-0.349,0.492-0.451,0.769s-0.19,0.562-0.264,0.856
					c-0.074,0.287-0.128,0.569-0.165,0.846c-0.037,0.276-0.015,0.532,0.066,0.769c0.059,0.191,0.156,0.346,0.292,0.464
					S37.29,13.1,37.48,13.1c0.389,0,0.768-0.103,1.139-0.308c0.37-0.205,0.676-0.484,0.918-0.836
					c0.015-0.029,0.042-0.05,0.083-0.061c0.04-0.012,0.071-0.006,0.094,0.017L39.79,12C39.819,12.029,39.816,12.069,39.779,12.121z"
					/>
				<path d="M43.64,8.7c-0.029,0.081-0.081,0.121-0.154,0.121h-1.045l-0.803,3.211c-0.081,0.301-0.11,0.555-0.088,0.76
					s0.125,0.308,0.308,0.308c0.146,0,0.284-0.04,0.413-0.121c0.128-0.08,0.248-0.188,0.357-0.324s0.209-0.292,0.297-0.468
					s0.168-0.363,0.242-0.561c0.007-0.029,0.023-0.052,0.049-0.066c0.025-0.015,0.049-0.021,0.071-0.021h0.132
					c0.029,0,0.051,0.011,0.066,0.032c0.015,0.022,0.018,0.044,0.011,0.066c-0.073,0.205-0.165,0.409-0.275,0.61
					c-0.11,0.202-0.236,0.384-0.379,0.545s-0.301,0.293-0.473,0.396s-0.361,0.154-0.566,0.154c-0.176,0-0.328-0.035-0.457-0.104
					s-0.231-0.165-0.308-0.286c-0.077-0.121-0.125-0.26-0.143-0.418c-0.019-0.157-0.006-0.324,0.038-0.501l0.803-3.211h-1.078
					c-0.073,0-0.103-0.041-0.088-0.121l0.022-0.088c0.029-0.081,0.081-0.121,0.154-0.121h1.067l0.451-1.804
					c0.029-0.117,0.088-0.205,0.176-0.264s0.176-0.088,0.264-0.088c0.088,0,0.162,0.03,0.22,0.088s0.073,0.146,0.044,0.264
					l-0.451,1.804h1.056c0.073,0,0.103,0.041,0.088,0.121L43.64,8.7z"/>
			</g>
			<g>
				<path d="M46.617,12.226c-0.081,0.201-0.18,0.385-0.297,0.55c-0.118,0.165-0.253,0.301-0.407,0.407
					c-0.154,0.105-0.33,0.159-0.528,0.159c-0.169,0-0.313-0.037-0.435-0.11c-0.121-0.074-0.214-0.172-0.281-0.293
					c-0.066-0.122-0.101-0.264-0.104-0.426c-0.003-0.162,0.028-0.328,0.094-0.497l0.869-2.376c0.11-0.302,0.165-0.553,0.165-0.751
					S45.608,8.59,45.439,8.59c-0.132,0-0.249,0.039-0.352,0.115c-0.103,0.077-0.196,0.182-0.28,0.313
					c-0.084,0.132-0.16,0.286-0.226,0.462s-0.121,0.363-0.165,0.561c-0.029,0.074-0.077,0.111-0.143,0.111h-0.121
					c-0.066,0-0.092-0.037-0.077-0.111c0.044-0.189,0.108-0.387,0.192-0.588c0.084-0.202,0.185-0.385,0.303-0.55
					c0.117-0.165,0.253-0.299,0.407-0.402c0.154-0.103,0.33-0.154,0.528-0.154c0.169,0,0.312,0.037,0.429,0.11
					s0.207,0.173,0.27,0.298c0.062,0.125,0.095,0.266,0.099,0.424c0.003,0.158-0.024,0.321-0.083,0.491l-0.869,2.382
					c-0.103,0.294-0.156,0.542-0.16,0.744c-0.003,0.202,0.079,0.303,0.248,0.303c0.132,0,0.251-0.04,0.357-0.121
					c0.106-0.08,0.202-0.187,0.286-0.318c0.084-0.133,0.158-0.286,0.22-0.463c0.062-0.176,0.119-0.362,0.17-0.561
					c0.015-0.066,0.059-0.099,0.132-0.099h0.121c0.029,0,0.053,0.009,0.072,0.027c0.018,0.019,0.02,0.042,0.005,0.071
					C46.76,11.827,46.697,12.023,46.617,12.226z M46.534,6.747c-0.106,0.084-0.222,0.126-0.347,0.126s-0.22-0.042-0.286-0.126
					c-0.066-0.084-0.081-0.188-0.044-0.313c0.029-0.125,0.097-0.229,0.204-0.313c0.106-0.084,0.222-0.126,0.347-0.126
					c0.125,0,0.22,0.042,0.286,0.126c0.066,0.084,0.081,0.189,0.044,0.313C46.708,6.559,46.64,6.663,46.534,6.747z"/>
				<path d="M51.775,11.776c-0.176,0.302-0.4,0.577-0.671,0.827c-0.242,0.22-0.508,0.398-0.797,0.534
					c-0.29,0.136-0.582,0.204-0.875,0.204c-0.301,0-0.563-0.068-0.787-0.204s-0.398-0.314-0.522-0.534
					c-0.147-0.25-0.233-0.525-0.259-0.827c-0.025-0.302,0.002-0.61,0.083-0.927c0.081-0.322,0.209-0.635,0.385-0.937
					c0.176-0.302,0.396-0.577,0.66-0.827c0.242-0.221,0.509-0.399,0.803-0.535c0.293-0.136,0.586-0.204,0.88-0.204
					s0.552,0.068,0.776,0.204c0.224,0.136,0.401,0.314,0.533,0.535c0.146,0.25,0.233,0.525,0.259,0.827
					c0.025,0.302-0.002,0.614-0.083,0.937C52.08,11.166,51.952,11.475,51.775,11.776z M51.11,8.767
					c-0.136-0.118-0.302-0.177-0.5-0.177c-0.191,0-0.383,0.059-0.578,0.177c-0.194,0.118-0.365,0.269-0.511,0.453
					c-0.198,0.236-0.349,0.492-0.451,0.769s-0.19,0.562-0.264,0.856c-0.074,0.287-0.128,0.569-0.165,0.846
					c-0.037,0.276-0.015,0.532,0.066,0.769c0.059,0.191,0.156,0.346,0.292,0.464s0.299,0.177,0.489,0.177
					c0.198,0,0.394-0.059,0.589-0.177c0.194-0.118,0.365-0.272,0.511-0.464c0.198-0.236,0.348-0.492,0.451-0.769
					c0.103-0.276,0.19-0.559,0.264-0.846c0.073-0.295,0.128-0.58,0.165-0.856s0.015-0.533-0.066-0.769
					C51.343,9.036,51.246,8.884,51.11,8.767z"/>
				<path d="M58.551,12.226c-0.081,0.201-0.181,0.385-0.302,0.55s-0.258,0.301-0.413,0.407c-0.154,0.105-0.33,0.159-0.528,0.159
					c-0.169,0-0.313-0.037-0.435-0.11c-0.121-0.074-0.213-0.172-0.275-0.293c-0.063-0.122-0.098-0.264-0.104-0.426
					c-0.007-0.162,0.022-0.328,0.088-0.497c0.117-0.316,0.229-0.632,0.335-0.945c0.106-0.313,0.2-0.627,0.28-0.944
					c0.051-0.214,0.088-0.419,0.11-0.613c0.022-0.195,0.011-0.378-0.033-0.547c-0.073-0.25-0.228-0.375-0.462-0.375
					c-0.381,0-0.706,0.132-0.974,0.398c-0.268,0.265-0.504,0.619-0.709,1.061l-0.737,2.939c-0.029,0.117-0.088,0.206-0.176,0.265
					c-0.088,0.06-0.176,0.089-0.264,0.089s-0.16-0.029-0.215-0.089c-0.055-0.059-0.068-0.147-0.038-0.265l0.825-3.338
					c0.073-0.294,0.101-0.545,0.083-0.751c-0.019-0.207-0.119-0.31-0.302-0.31c-0.184,0-0.33,0.137-0.44,0.413
					c-0.11,0.275-0.217,0.621-0.319,1.039c-0.029,0.074-0.077,0.111-0.143,0.111h-0.121c-0.066,0-0.092-0.037-0.077-0.111
					c0.044-0.16,0.091-0.34,0.143-0.538c0.051-0.198,0.121-0.383,0.209-0.556c0.088-0.172,0.196-0.315,0.324-0.429
					c0.128-0.113,0.288-0.17,0.479-0.17c0.279,0,0.497,0.084,0.655,0.253c0.157,0.169,0.244,0.381,0.258,0.638
					c0.205-0.271,0.438-0.488,0.699-0.649c0.26-0.161,0.563-0.242,0.907-0.242c0.205,0,0.394,0.039,0.566,0.116
					s0.306,0.2,0.402,0.37C57.95,9.017,58,9.222,57.996,9.45c-0.004,0.228-0.035,0.456-0.094,0.684
					c-0.081,0.323-0.174,0.644-0.28,0.96c-0.106,0.315-0.218,0.635-0.335,0.959c-0.11,0.294-0.165,0.544-0.165,0.749
					c0,0.199,0.084,0.298,0.253,0.298c0.132,0,0.251-0.04,0.357-0.121c0.106-0.08,0.202-0.187,0.286-0.318
					c0.084-0.133,0.159-0.286,0.226-0.463c0.066-0.176,0.121-0.362,0.165-0.561c0.029-0.066,0.073-0.099,0.132-0.099h0.132
					c0.066,0,0.092,0.032,0.077,0.099C58.698,11.827,58.632,12.023,58.551,12.226z"/>
			</g>
			<g>
				<path d="M78.822,12.226c-0.081,0.201-0.182,0.385-0.303,0.55s-0.259,0.301-0.412,0.407c-0.154,0.105-0.33,0.159-0.528,0.159
					c-0.169,0-0.312-0.037-0.429-0.11c-0.117-0.074-0.209-0.172-0.275-0.293c-0.065-0.122-0.101-0.264-0.104-0.426
					s0.023-0.328,0.083-0.497c0.117-0.316,0.229-0.632,0.335-0.945c0.106-0.313,0.2-0.627,0.28-0.944
					c0.052-0.214,0.089-0.419,0.11-0.613c0.022-0.195,0.011-0.378-0.033-0.547c-0.073-0.25-0.228-0.375-0.462-0.375
					c-0.381,0-0.706,0.132-0.974,0.398c-0.268,0.265-0.504,0.619-0.709,1.061l-0.737,2.939c-0.029,0.117-0.088,0.206-0.176,0.265
					c-0.088,0.06-0.176,0.089-0.264,0.089c-0.089,0-0.162-0.029-0.221-0.088c-0.059-0.06-0.073-0.147-0.044-0.265l1.617-6.467
					c0.029-0.118,0.048-0.208,0.055-0.27c0.008-0.063-0.007-0.108-0.044-0.138c-0.051-0.037-0.139-0.061-0.264-0.072
					c-0.125-0.011-0.264-0.016-0.418-0.016c-0.037,0-0.064-0.011-0.083-0.032c-0.018-0.021-0.02-0.05-0.005-0.086l0.021-0.086
					c0.022-0.064,0.073-0.104,0.154-0.118l1.397-0.118c0.036-0.007,0.065,0.001,0.088,0.027C76.5,5.64,76.504,5.671,76.49,5.707
					l-0.858,3.422c0.198-0.235,0.42-0.424,0.666-0.567c0.245-0.143,0.529-0.214,0.853-0.214c0.205,0,0.394,0.039,0.566,0.116
					c0.172,0.077,0.306,0.2,0.401,0.37c0.103,0.184,0.152,0.389,0.148,0.617c-0.004,0.228-0.035,0.456-0.094,0.684
					c-0.08,0.323-0.176,0.644-0.286,0.96c-0.109,0.315-0.224,0.635-0.341,0.959c-0.109,0.294-0.163,0.542-0.159,0.744
					s0.09,0.303,0.259,0.303c0.132,0,0.249-0.04,0.352-0.121c0.103-0.08,0.196-0.187,0.28-0.318c0.085-0.133,0.16-0.286,0.226-0.463
					c0.066-0.176,0.125-0.362,0.176-0.561c0.015-0.066,0.059-0.099,0.133-0.099h0.121c0.072,0,0.103,0.032,0.088,0.099
					C78.968,11.827,78.902,12.023,78.822,12.226z"/>
				<path d="M84.476,12.187c-0.052,0.198-0.121,0.382-0.209,0.55c-0.088,0.169-0.196,0.313-0.324,0.43
					c-0.129,0.117-0.288,0.176-0.479,0.176c-0.257,0-0.463-0.073-0.616-0.22c-0.154-0.147-0.25-0.334-0.286-0.562
					c-0.169,0.205-0.37,0.387-0.605,0.545c-0.234,0.157-0.48,0.236-0.736,0.236c-0.271,0-0.499-0.07-0.683-0.209
					c-0.183-0.14-0.326-0.316-0.429-0.529c-0.125-0.258-0.19-0.537-0.198-0.838c-0.007-0.302,0.029-0.607,0.11-0.916
					c0.08-0.309,0.198-0.613,0.352-0.914c0.154-0.302,0.356-0.581,0.605-0.838c0.205-0.213,0.438-0.392,0.698-0.535
					c0.261-0.143,0.522-0.215,0.787-0.215c0.227,0,0.412,0.063,0.555,0.188c0.144,0.125,0.255,0.276,0.336,0.452l0.011-0.066
					c0.022-0.117,0.075-0.208,0.16-0.27c0.084-0.063,0.17-0.094,0.258-0.094c0.096,0,0.175,0.031,0.236,0.094
					c0.063,0.063,0.079,0.153,0.05,0.27l-0.77,3.109c-0.037,0.147-0.063,0.287-0.077,0.419c-0.015,0.133-0.015,0.246,0,0.342
					s0.046,0.171,0.094,0.226c0.047,0.056,0.115,0.083,0.203,0.083s0.169-0.036,0.242-0.11c0.073-0.073,0.139-0.176,0.197-0.308
					s0.114-0.286,0.165-0.462c0.052-0.176,0.103-0.37,0.154-0.583c0.015-0.066,0.059-0.099,0.132-0.099h0.121
					c0.073,0,0.103,0.032,0.088,0.099C84.575,11.806,84.527,11.988,84.476,12.187z M83.151,9.436
					c-0.012-0.07-0.028-0.142-0.05-0.216c-0.059-0.177-0.146-0.326-0.259-0.448S82.583,8.59,82.408,8.59
					c-0.161,0-0.318,0.059-0.473,0.177c-0.154,0.118-0.294,0.265-0.418,0.442c-0.176,0.25-0.309,0.512-0.396,0.785
					c-0.088,0.271-0.168,0.556-0.241,0.851c-0.074,0.287-0.135,0.569-0.182,0.846c-0.048,0.276-0.046,0.536,0.005,0.779
					c0.037,0.177,0.101,0.326,0.192,0.447c0.092,0.122,0.222,0.183,0.391,0.183c0.177,0,0.351-0.063,0.522-0.188
					c0.173-0.126,0.332-0.276,0.479-0.453c0.059-0.074,0.114-0.145,0.165-0.21c0.052-0.066,0.1-0.141,0.144-0.222l0.594-2.377
					C83.174,9.577,83.162,9.505,83.151,9.436z"/>
				<path d="M88.875,9.789c-0.096,0.065-0.191,0.099-0.286,0.099c-0.088,0-0.163-0.033-0.226-0.099
					c-0.063-0.066-0.079-0.162-0.05-0.286c0.029-0.11,0.085-0.196,0.165-0.259c0.081-0.062,0.165-0.101,0.253-0.115
					c-0.036-0.162-0.132-0.292-0.286-0.391c-0.153-0.099-0.337-0.148-0.55-0.148c-0.125,0-0.245,0.015-0.362,0.044
					c-0.118,0.03-0.228,0.085-0.33,0.166c-0.096,0.074-0.173,0.162-0.231,0.265S86.87,9.279,86.84,9.396
					c-0.052,0.191-0.031,0.361,0.061,0.508c0.092,0.148,0.229,0.24,0.412,0.277l0.539,0.121c0.169,0.037,0.321,0.102,0.457,0.193
					s0.245,0.205,0.33,0.337c0.084,0.133,0.139,0.282,0.165,0.447c0.025,0.166,0.016,0.341-0.028,0.525
					c-0.059,0.206-0.146,0.411-0.264,0.613s-0.271,0.378-0.462,0.524c-0.213,0.155-0.435,0.261-0.666,0.315
					c-0.23,0.056-0.452,0.083-0.665,0.083s-0.411-0.029-0.594-0.088c-0.184-0.059-0.341-0.145-0.474-0.259
					c-0.132-0.113-0.225-0.251-0.28-0.412c-0.055-0.161-0.057-0.345-0.005-0.551c0.036-0.146,0.109-0.256,0.22-0.329
					c0.109-0.073,0.22-0.11,0.33-0.11c0.109,0,0.203,0.037,0.28,0.11s0.097,0.183,0.061,0.329c-0.037,0.147-0.11,0.257-0.22,0.33
					c-0.11,0.074-0.221,0.114-0.33,0.121c0.059,0.191,0.185,0.341,0.379,0.451S86.51,13.1,86.774,13.1
					c0.161,0,0.321-0.019,0.479-0.055c0.158-0.037,0.303-0.106,0.435-0.21c0.125-0.088,0.228-0.196,0.309-0.325
					c0.08-0.129,0.139-0.267,0.176-0.413c0.059-0.235,0.025-0.439-0.1-0.612c-0.124-0.173-0.304-0.289-0.538-0.348l-0.539-0.121
					c-0.301-0.066-0.522-0.221-0.666-0.463c-0.143-0.242-0.174-0.529-0.094-0.859c0.044-0.177,0.116-0.353,0.215-0.53
					c0.099-0.176,0.232-0.331,0.401-0.463s0.351-0.224,0.545-0.276c0.194-0.051,0.383-0.077,0.566-0.077
					c0.176,0,0.341,0.026,0.495,0.079c0.153,0.052,0.284,0.129,0.391,0.231c0.105,0.101,0.18,0.224,0.22,0.367
					c0.04,0.143,0.038,0.302-0.006,0.479C89.033,9.627,88.97,9.723,88.875,9.789z"/>
			</g>
			<g>
				<path d="M94.603,12.226c-0.081,0.201-0.182,0.385-0.303,0.55s-0.259,0.301-0.412,0.407c-0.154,0.105-0.33,0.159-0.528,0.159
					c-0.169,0-0.312-0.037-0.429-0.11c-0.117-0.074-0.209-0.172-0.275-0.293c-0.065-0.122-0.101-0.264-0.104-0.426
					s0.023-0.328,0.083-0.497c0.117-0.316,0.229-0.632,0.335-0.945c0.106-0.313,0.2-0.627,0.28-0.944
					c0.052-0.214,0.089-0.419,0.11-0.613c0.022-0.195,0.011-0.378-0.033-0.547c-0.073-0.25-0.228-0.375-0.462-0.375
					c-0.381,0-0.706,0.132-0.974,0.398c-0.268,0.265-0.504,0.619-0.709,1.061l-0.737,2.939c-0.029,0.117-0.088,0.206-0.176,0.265
					c-0.088,0.06-0.176,0.089-0.264,0.089c-0.089,0-0.162-0.029-0.221-0.088c-0.059-0.06-0.073-0.147-0.044-0.265l1.617-6.467
					c0.029-0.118,0.048-0.208,0.055-0.27c0.008-0.063-0.007-0.108-0.044-0.138c-0.051-0.037-0.139-0.061-0.264-0.072
					c-0.125-0.011-0.264-0.016-0.418-0.016c-0.037,0-0.064-0.011-0.083-0.032c-0.018-0.021-0.02-0.05-0.005-0.086l0.021-0.086
					c0.022-0.064,0.073-0.104,0.154-0.118l1.397-0.118c0.036-0.007,0.065,0.001,0.088,0.027c0.021,0.025,0.025,0.057,0.011,0.093
					l-0.858,3.422c0.198-0.235,0.42-0.424,0.666-0.567c0.245-0.143,0.529-0.214,0.853-0.214c0.205,0,0.394,0.039,0.566,0.116
					c0.172,0.077,0.306,0.2,0.401,0.37c0.103,0.184,0.152,0.389,0.148,0.617c-0.004,0.228-0.035,0.456-0.094,0.684
					c-0.08,0.323-0.176,0.644-0.286,0.96c-0.109,0.315-0.224,0.635-0.341,0.959c-0.109,0.294-0.163,0.542-0.159,0.744
					s0.09,0.303,0.259,0.303c0.132,0,0.249-0.04,0.352-0.121c0.103-0.08,0.196-0.187,0.28-0.318c0.085-0.133,0.16-0.286,0.226-0.463
					c0.066-0.176,0.125-0.362,0.176-0.561c0.015-0.066,0.059-0.099,0.133-0.099h0.121c0.072,0,0.103,0.032,0.088,0.099
					C94.75,11.827,94.683,12.023,94.603,12.226z"/>
			</g>
			<g>
				<path d="M69.737,9.623h-6.865c-0.121,0-0.22-0.099-0.22-0.22s0.099-0.22,0.22-0.22h6.865c0.121,0,0.22,0.099,0.22,0.22
					S69.858,9.623,69.737,9.623z M69.737,11.758h-6.865c-0.121,0-0.22-0.1-0.22-0.221s0.099-0.22,0.22-0.22h6.865
					c0.121,0,0.22,0.099,0.22,0.22S69.858,11.758,69.737,11.758z"/>
			</g>
			<g>
				<path d="M99.852,18.548c-0.021,0.033-0.055,0.049-0.076,0.049c-0.033,0-0.077,0-0.1-0.032c-1.661-1.916-2.365-5.043-2.365-8.154
					c0-3.11,0.704-6.237,2.365-8.153c0.022-0.033,0.055-0.033,0.1-0.033c0.021,0,0.055,0.016,0.076,0.049
					c0.012,0.033,0.022,0.065,0.022,0.115c0,0.033-0.011,0.082-0.033,0.115c-1.419,1.981-1.893,4.961-1.893,7.907
					c0,2.947,0.474,5.928,1.893,7.908c0.022,0.033,0.033,0.065,0.033,0.115C99.875,18.482,99.864,18.516,99.852,18.548z"/>
				<path d="M115.736,18.564c-0.022,0.017-0.044,0.032-0.066,0.032h-0.033c-0.021,0-0.055-0.016-0.077-0.049
					c-0.011-0.032-0.021-0.065-0.021-0.114c0-0.033,0.011-0.082,0.033-0.115c1.419-1.98,1.892-4.961,1.892-7.908
					c0-2.946-0.473-5.926-1.892-7.907c-0.022-0.033-0.033-0.066-0.033-0.115c0-0.049,0-0.082,0.021-0.115
					c0.022-0.033,0.044-0.049,0.077-0.049h0.033c0.022,0,0.044,0.016,0.066,0.033c1.661,1.916,2.365,5.042,2.365,8.153
					C118.101,13.521,117.397,16.648,115.736,18.564z"/>
			</g>
			<g>
				<path d="M100.92,13.221V12.88c0.125,0,0.257-0.002,0.396-0.006s0.245-0.023,0.319-0.061c0.059-0.029,0.097-0.075,0.115-0.138
					c0.019-0.062,0.027-0.126,0.027-0.192v-5.83c0-0.095-0.006-0.191-0.017-0.286s-0.053-0.172-0.126-0.231
					c-0.074-0.051-0.18-0.081-0.319-0.088s-0.271-0.011-0.396-0.011v-0.33l1.596-0.121v6.896c0,0.066,0.009,0.131,0.027,0.192
					c0.019,0.063,0.057,0.108,0.115,0.138c0.073,0.037,0.18,0.057,0.319,0.061c0.139,0.004,0.271,0.006,0.396,0.006v0.341
					C102.552,13.177,101.735,13.177,100.92,13.221z"/>
				<path d="M108.648,11.823c-0.121,0.301-0.299,0.569-0.533,0.804c-0.228,0.228-0.488,0.403-0.781,0.527
					c-0.293,0.125-0.604,0.188-0.935,0.188s-0.642-0.063-0.936-0.188c-0.293-0.124-0.554-0.3-0.78-0.527
					c-0.235-0.234-0.413-0.503-0.534-0.804c-0.121-0.3-0.182-0.616-0.182-0.945c0-0.337,0.061-0.662,0.182-0.974
					s0.299-0.592,0.534-0.842c0.227-0.234,0.487-0.419,0.78-0.555c0.294-0.136,0.605-0.204,0.936-0.204s0.642,0.068,0.935,0.204
					s0.554,0.321,0.781,0.555c0.234,0.25,0.412,0.53,0.533,0.842s0.182,0.637,0.182,0.974
					C108.83,11.207,108.769,11.523,108.648,11.823z M107.862,9.926c-0.037-0.274-0.132-0.526-0.286-0.753
					c-0.14-0.198-0.312-0.352-0.517-0.462c-0.206-0.11-0.426-0.165-0.66-0.165c-0.235,0-0.455,0.055-0.66,0.165
					c-0.205,0.11-0.378,0.264-0.518,0.462c-0.153,0.227-0.249,0.479-0.285,0.753c-0.037,0.275-0.056,0.553-0.056,0.831
					c0,0.294,0.017,0.585,0.05,0.874c0.033,0.29,0.13,0.556,0.291,0.798c0.125,0.198,0.294,0.354,0.507,0.468
					c0.212,0.113,0.436,0.17,0.671,0.17c0.234,0,0.458-0.057,0.671-0.17c0.213-0.114,0.381-0.27,0.506-0.468
					c0.161-0.242,0.259-0.508,0.291-0.798c0.033-0.289,0.05-0.58,0.05-0.874C107.917,10.479,107.898,10.201,107.862,9.926z"/>
			</g>
			<g>
				<path d="M114.387,9.03c-0.065,0.051-0.139,0.077-0.22,0.077s-0.154-0.026-0.22-0.077c-0.066-0.051-0.1-0.132-0.1-0.242
					c0-0.081,0.017-0.143,0.05-0.187s0.075-0.081,0.127-0.11c-0.447-0.007-0.814,0.132-1.101,0.418c0.14,0.147,0.249,0.31,0.33,0.49
					s0.121,0.372,0.121,0.577c0,0.22-0.048,0.429-0.143,0.627c-0.096,0.198-0.224,0.37-0.386,0.517
					c-0.168,0.154-0.361,0.271-0.577,0.347c-0.217,0.077-0.441,0.116-0.677,0.116c-0.19,0-0.379-0.027-0.566-0.083
					c-0.187-0.055-0.361-0.141-0.522-0.259c-0.103,0.133-0.159,0.274-0.17,0.426c-0.012,0.151,0.009,0.289,0.061,0.411
					c0.051,0.122,0.13,0.225,0.236,0.307c0.106,0.081,0.232,0.122,0.379,0.122h0.892c0.308,0,0.619,0.02,0.935,0.061
					c0.315,0.04,0.612,0.147,0.892,0.323c0.205,0.131,0.357,0.307,0.456,0.525c0.099,0.22,0.148,0.449,0.148,0.69
					c0,0.234-0.075,0.436-0.226,0.604s-0.32,0.303-0.512,0.405c-0.257,0.146-0.529,0.248-0.819,0.307s-0.581,0.088-0.874,0.088
					c-0.294,0-0.585-0.029-0.875-0.088c-0.289-0.059-0.563-0.161-0.819-0.309c-0.19-0.103-0.361-0.238-0.512-0.406
					c-0.15-0.169-0.226-0.371-0.226-0.605c0-0.176,0.044-0.335,0.133-0.479c0.088-0.143,0.197-0.266,0.329-0.368
					c0.162-0.117,0.342-0.205,0.539-0.265c-0.132-0.088-0.238-0.205-0.318-0.352c-0.081-0.146-0.131-0.306-0.148-0.479
					c-0.019-0.172-0.002-0.35,0.049-0.533c0.052-0.184,0.144-0.355,0.275-0.517c-0.161-0.147-0.286-0.32-0.374-0.518
					c-0.088-0.198-0.132-0.403-0.132-0.616c0-0.22,0.046-0.429,0.138-0.627c0.091-0.198,0.218-0.37,0.379-0.517
					c0.176-0.154,0.372-0.271,0.589-0.352c0.216-0.081,0.438-0.121,0.665-0.121c0.433,0,0.821,0.132,1.166,0.396
					c0.154-0.169,0.336-0.297,0.545-0.385s0.427-0.132,0.654-0.132c0.146,0,0.271,0.055,0.374,0.165
					c0.103,0.11,0.154,0.238,0.154,0.385C114.487,8.897,114.454,8.979,114.387,9.03z M113.645,13.686
					c-0.077-0.128-0.178-0.229-0.303-0.301c-0.213-0.117-0.441-0.187-0.688-0.208c-0.245-0.022-0.496-0.033-0.753-0.033h-0.892
					c-0.271,0-0.498,0.091-0.682,0.273c-0.19,0.189-0.286,0.416-0.286,0.679c0,0.16,0.052,0.308,0.154,0.443
					c0.103,0.135,0.227,0.25,0.374,0.345c0.19,0.124,0.401,0.213,0.632,0.268c0.231,0.055,0.464,0.082,0.699,0.082
					c0.234,0,0.466-0.027,0.692-0.082c0.228-0.055,0.44-0.144,0.639-0.268c0.146-0.095,0.271-0.21,0.374-0.345
					c0.103-0.136,0.153-0.283,0.153-0.443C113.76,13.95,113.722,13.813,113.645,13.686z M112.512,9.446
					c-0.026-0.164-0.086-0.311-0.182-0.442c-0.088-0.116-0.196-0.207-0.324-0.272c-0.129-0.065-0.267-0.098-0.413-0.098
					s-0.284,0.033-0.412,0.098c-0.129,0.065-0.233,0.156-0.313,0.272c-0.103,0.131-0.165,0.278-0.188,0.442
					c-0.021,0.164-0.032,0.341-0.032,0.529c0,0.183,0.013,0.354,0.038,0.519s0.086,0.311,0.182,0.441
					c0.184,0.248,0.425,0.371,0.726,0.371c0.309,0,0.554-0.123,0.737-0.371c0.096-0.131,0.155-0.277,0.182-0.441
					c0.025-0.164,0.038-0.336,0.038-0.519C112.55,9.787,112.538,9.61,112.512,9.446z"/>
			</g>
		</g>
	</g>
</g>
</svg>
