<?xml version="1.0" encoding="utf-8"?>
<!-- Generator: Adobe Illustrator 14.0.0, SVG Export Plug-In . SVG Version: 6.00 Build 43363)  -->
<!DOCTYPE svg PUBLIC "-//W3C//DTD SVG 1.1//EN" "http://www.w3.org/Graphics/SVG/1.1/DTD/svg11.dtd">
<svg version="1.1" xmlns="http://www.w3.org/2000/svg" xmlns:xlink="http://www.w3.org/1999/xlink" x="0px" y="0px"
	 width="171.411px" height="36.664px" viewBox="0 0 171.411 36.664" style="enable-background:new 0 0 171.411 36.664;"
	 xml:space="preserve">
<g id="Layer_1">
</g>
<g id="Layer_2">
	<g id="theGroup">
		<g>
			<path style="fill:none;stroke:#000000;stroke-width:0.5313;stroke-miterlimit:10;" d="M53.436,19.99h10.188 M81.654,19.99h53.344
				"/>
			<g>
				<path d="M9.611,15.426c-0.007,0.037-0.025,0.066-0.055,0.088c-0.03,0.022-0.063,0.033-0.099,0.033
					c-0.169,0-0.328,0.004-0.479,0.011s-0.266,0.029-0.347,0.066c-0.081,0.029-0.143,0.136-0.187,0.32l-1.518,6.06
					c-0.044,0.176-0.033,0.286,0.033,0.33c0.059,0.037,0.163,0.058,0.313,0.061c0.15,0.004,0.31,0.006,0.479,0.006
					c0.081,0,0.11,0.043,0.088,0.128l-0.022,0.085c-0.007,0.035-0.026,0.063-0.055,0.085c-0.03,0.021-0.063,0.032-0.099,0.032
					c-0.895-0.044-1.8-0.044-2.717,0c-0.037,0-0.064-0.011-0.083-0.032c-0.018-0.021-0.02-0.05-0.005-0.085l0.022-0.085
					C4.896,22.443,4.947,22.4,5.035,22.4c0.168,0,0.328-0.002,0.479-0.006c0.15-0.003,0.266-0.023,0.346-0.061
					c0.081-0.044,0.143-0.154,0.187-0.331l0.748-3.013H3.77l-0.748,3.013c-0.044,0.185-0.037,0.295,0.022,0.331
					c0.059,0.037,0.163,0.058,0.313,0.061c0.15,0.004,0.31,0.006,0.479,0.006c0.081,0,0.11,0.043,0.088,0.128l-0.022,0.085
					c-0.015,0.078-0.066,0.117-0.154,0.117c-0.895-0.044-1.8-0.044-2.717,0c-0.037,0-0.064-0.011-0.082-0.032
					c-0.019-0.021-0.021-0.05-0.006-0.085l0.022-0.085c0.007-0.035,0.026-0.065,0.055-0.091C1.049,22.413,1.082,22.4,1.119,22.4
					c0.168,0,0.328-0.002,0.479-0.006c0.15-0.003,0.266-0.023,0.346-0.061c0.081-0.044,0.143-0.154,0.187-0.33l1.518-6.06
					c0.044-0.177,0.033-0.283-0.033-0.32c-0.059-0.037-0.164-0.059-0.313-0.066c-0.15-0.007-0.31-0.011-0.479-0.011
					c-0.037,0-0.064-0.011-0.083-0.033c-0.019-0.022-0.021-0.051-0.006-0.088l0.022-0.088c0.029-0.081,0.081-0.121,0.154-0.121
					c0.895,0.037,1.8,0.037,2.717,0c0.081,0,0.114,0.041,0.099,0.121l-0.033,0.088c-0.015,0.081-0.062,0.121-0.143,0.121
					c-0.168,0-0.33,0.004-0.484,0.011c-0.154,0.007-0.271,0.029-0.352,0.066c-0.081,0.037-0.143,0.144-0.187,0.32L3.858,18.66h3.025
					l0.671-2.716c0.044-0.184,0.037-0.291-0.022-0.32c-0.059-0.037-0.164-0.059-0.314-0.066s-0.31-0.011-0.478-0.011
					c-0.037,0-0.064-0.011-0.083-0.033c-0.019-0.022-0.021-0.051-0.006-0.088l0.022-0.088c0.007-0.037,0.026-0.066,0.055-0.088
					s0.062-0.033,0.099-0.033c0.895,0.037,1.8,0.037,2.717,0c0.037,0,0.064,0.011,0.083,0.033c0.018,0.022,0.02,0.051,0.005,0.088
					L9.611,15.426z"/>
				<path d="M16.305,20.431c-0.261,0.447-0.589,0.854-0.985,1.221c-0.359,0.33-0.751,0.593-1.177,0.787s-0.851,0.291-1.276,0.291
					H9.292c-0.081,0-0.114-0.039-0.099-0.117l0.022-0.085C9.237,22.443,9.288,22.4,9.369,22.4c0.168,0,0.33-0.002,0.484-0.006
					c0.154-0.003,0.271-0.023,0.352-0.061c0.081-0.051,0.143-0.161,0.187-0.33l1.507-6.06c0.044-0.184,0.037-0.291-0.022-0.32
					c-0.059-0.037-0.163-0.059-0.313-0.066s-0.31-0.011-0.479-0.011c-0.081,0-0.114-0.04-0.099-0.121l0.033-0.088
					c0.015-0.081,0.062-0.121,0.143-0.121h3.586c0.433,0,0.81,0.103,1.133,0.308c0.323,0.206,0.58,0.477,0.77,0.814
					c0.213,0.381,0.333,0.805,0.363,1.271c0.029,0.466-0.019,0.944-0.143,1.435C16.753,19.522,16.565,19.984,16.305,20.431z
					 M15.348,15.812c-0.268-0.176-0.582-0.265-0.94-0.265h-1.155c-0.198,0-0.319,0.019-0.363,0.055
					c-0.044,0.037-0.088,0.151-0.132,0.342l-1.518,6.06c-0.051,0.198-0.062,0.315-0.033,0.353c0.029,0.029,0.139,0.044,0.33,0.044
					h1.155c0.359,0,0.717-0.082,1.073-0.248c0.355-0.165,0.672-0.395,0.951-0.688c0.323-0.345,0.568-0.727,0.737-1.146
					c0.168-0.419,0.304-0.841,0.407-1.268c0.11-0.44,0.187-0.877,0.231-1.311c0.044-0.434-0.007-0.834-0.154-1.201
					C15.811,16.23,15.615,15.988,15.348,15.812z"/>
			</g>
			<g>
				<path d="M62.538,30.276c-0.084,0.201-0.185,0.385-0.302,0.55c-0.118,0.165-0.253,0.301-0.407,0.407
					c-0.154,0.105-0.33,0.159-0.528,0.159c-0.169,0-0.313-0.037-0.435-0.11c-0.121-0.074-0.213-0.172-0.275-0.293
					c-0.063-0.122-0.097-0.264-0.104-0.426s0.022-0.328,0.088-0.497c0.117-0.316,0.227-0.632,0.33-0.945
					c0.103-0.313,0.194-0.628,0.275-0.944c0.059-0.214,0.099-0.418,0.121-0.613s0.007-0.378-0.044-0.547
					c-0.073-0.251-0.228-0.376-0.462-0.376c-0.381,0-0.708,0.135-0.979,0.403c-0.271,0.269-0.51,0.624-0.715,1.066
					c-0.11,0.493-0.227,0.983-0.352,1.47c-0.125,0.486-0.249,0.973-0.374,1.459c-0.029,0.117-0.088,0.206-0.176,0.265
					c-0.088,0.06-0.176,0.089-0.264,0.089c-0.088,0-0.161-0.029-0.22-0.089c-0.059-0.059-0.073-0.147-0.044-0.265l0.715-2.862
					c0.059-0.214,0.097-0.418,0.116-0.613c0.018-0.195,0.005-0.378-0.039-0.547c-0.074-0.251-0.228-0.376-0.462-0.376
					c-0.382,0-0.708,0.135-0.979,0.403c-0.271,0.269-0.51,0.624-0.715,1.066l-0.737,2.929c-0.029,0.117-0.088,0.206-0.176,0.265
					c-0.088,0.06-0.176,0.089-0.264,0.089s-0.16-0.029-0.215-0.089c-0.055-0.059-0.068-0.147-0.038-0.265l0.825-3.338
					c0.073-0.294,0.101-0.545,0.083-0.751c-0.019-0.206-0.119-0.31-0.302-0.31c-0.184,0-0.33,0.138-0.44,0.412
					c-0.11,0.275-0.217,0.622-0.319,1.04c-0.029,0.073-0.077,0.109-0.143,0.109h-0.121c-0.066,0-0.092-0.036-0.077-0.109
					c0.044-0.161,0.091-0.341,0.143-0.539c0.051-0.198,0.121-0.384,0.209-0.556c0.088-0.172,0.196-0.315,0.324-0.429
					c0.128-0.114,0.288-0.171,0.479-0.171c0.279,0,0.497,0.086,0.655,0.259c0.157,0.172,0.244,0.387,0.258,0.644
					c0.205-0.279,0.438-0.499,0.699-0.66c0.26-0.161,0.563-0.242,0.907-0.242c0.213,0,0.405,0.038,0.578,0.115
					s0.306,0.2,0.401,0.369c0.081,0.146,0.128,0.318,0.143,0.517c0.212-0.308,0.455-0.552,0.726-0.731
					c0.271-0.18,0.59-0.27,0.957-0.27c0.205,0,0.394,0.039,0.566,0.116s0.306,0.2,0.401,0.369c0.103,0.184,0.152,0.39,0.148,0.617
					c-0.003,0.228-0.035,0.456-0.093,0.684c-0.081,0.323-0.174,0.644-0.281,0.959c-0.106,0.316-0.218,0.636-0.335,0.96
					c-0.11,0.294-0.165,0.544-0.165,0.749c0,0.199,0.084,0.298,0.253,0.298c0.132,0,0.251-0.04,0.357-0.121
					c0.106-0.08,0.202-0.187,0.286-0.318c0.084-0.133,0.16-0.286,0.226-0.463c0.066-0.176,0.125-0.362,0.176-0.561
					c0.015-0.066,0.059-0.099,0.132-0.099h0.121c0.029,0,0.053,0.009,0.071,0.027c0.019,0.019,0.02,0.042,0.006,0.071
					C62.687,29.877,62.623,30.074,62.538,30.276z"/>
			</g>
			<g>
				<path d="M91.203,6.051c-0.008,0.037-0.026,0.066-0.056,0.088s-0.063,0.033-0.099,0.033c-0.169,0-0.328,0.004-0.479,0.011
					s-0.266,0.029-0.347,0.066c-0.081,0.029-0.143,0.136-0.187,0.32l-1.519,6.06c-0.044,0.176-0.033,0.287,0.033,0.331
					c0.059,0.037,0.163,0.057,0.313,0.061c0.15,0.004,0.31,0.005,0.479,0.005c0.081,0,0.11,0.042,0.088,0.128l-0.021,0.085
					c-0.008,0.036-0.026,0.064-0.056,0.085c-0.029,0.021-0.063,0.032-0.099,0.032c-0.895-0.044-1.801-0.044-2.717,0
					c-0.037,0-0.064-0.011-0.083-0.032c-0.019-0.021-0.021-0.05-0.005-0.085l0.021-0.085c0.015-0.085,0.066-0.128,0.154-0.128
					c0.168,0,0.328-0.001,0.479-0.005c0.15-0.003,0.266-0.024,0.347-0.061c0.08-0.044,0.143-0.154,0.187-0.331l0.748-3.013h-3.025
					l-0.748,3.013c-0.044,0.184-0.037,0.294,0.022,0.331c0.059,0.037,0.163,0.057,0.313,0.061c0.15,0.004,0.31,0.005,0.479,0.005
					c0.081,0,0.11,0.042,0.088,0.128l-0.022,0.085c-0.015,0.078-0.066,0.117-0.154,0.117c-0.895-0.044-1.8-0.044-2.717,0
					c-0.037,0-0.064-0.011-0.082-0.032c-0.019-0.021-0.021-0.05-0.006-0.085l0.022-0.085c0.007-0.036,0.026-0.065,0.055-0.09
					s0.062-0.038,0.099-0.038c0.168,0,0.328-0.001,0.479-0.005c0.15-0.003,0.266-0.024,0.346-0.061
					c0.081-0.044,0.143-0.154,0.187-0.331l1.518-6.06c0.044-0.177,0.033-0.283-0.033-0.32c-0.059-0.037-0.164-0.059-0.313-0.066
					c-0.15-0.007-0.31-0.011-0.479-0.011c-0.037,0-0.064-0.011-0.083-0.033c-0.019-0.022-0.021-0.051-0.006-0.088l0.022-0.088
					c0.029-0.081,0.081-0.121,0.154-0.121c0.895,0.037,1.8,0.037,2.717,0c0.081,0,0.113,0.041,0.099,0.121l-0.032,0.088
					c-0.015,0.081-0.063,0.121-0.144,0.121c-0.169,0-0.33,0.004-0.483,0.011c-0.154,0.007-0.272,0.029-0.353,0.066
					c-0.081,0.037-0.143,0.144-0.187,0.32L85.45,9.285h3.025l0.671-2.716c0.044-0.184,0.037-0.291-0.021-0.32
					c-0.059-0.037-0.163-0.059-0.313-0.066S88.5,6.172,88.332,6.172c-0.037,0-0.064-0.011-0.083-0.033s-0.02-0.051-0.005-0.088
					l0.021-0.088c0.008-0.037,0.025-0.066,0.055-0.088s0.063-0.033,0.1-0.033c0.895,0.037,1.8,0.037,2.717,0
					c0.037,0,0.064,0.011,0.083,0.033c0.018,0.022,0.02,0.051,0.005,0.088L91.203,6.051z"/>
				<path d="M97.896,11.056c-0.261,0.447-0.589,0.854-0.984,1.221c-0.359,0.33-0.752,0.592-1.178,0.787
					c-0.425,0.194-0.851,0.292-1.275,0.292h-3.575c-0.081,0-0.114-0.039-0.099-0.117l0.021-0.085
					c0.022-0.085,0.073-0.128,0.154-0.128c0.169,0,0.33-0.001,0.483-0.005c0.154-0.003,0.271-0.024,0.353-0.061
					c0.08-0.051,0.143-0.162,0.187-0.331l1.508-6.06c0.044-0.184,0.036-0.291-0.022-0.32c-0.059-0.037-0.163-0.059-0.313-0.066
					s-0.31-0.011-0.479-0.011c-0.081,0-0.113-0.04-0.099-0.121l0.032-0.088c0.015-0.081,0.063-0.121,0.144-0.121h3.586
					c0.433,0,0.811,0.103,1.133,0.308c0.322,0.206,0.579,0.477,0.771,0.814c0.212,0.381,0.333,0.805,0.362,1.271
					c0.029,0.466-0.018,0.944-0.143,1.436C98.346,10.147,98.156,10.609,97.896,11.056z M96.939,6.437
					c-0.268-0.176-0.581-0.265-0.94-0.265h-1.155c-0.198,0-0.319,0.019-0.363,0.055c-0.044,0.037-0.088,0.151-0.132,0.342
					l-1.518,6.06c-0.052,0.198-0.063,0.316-0.033,0.353c0.029,0.029,0.14,0.044,0.33,0.044h1.155c0.358,0,0.717-0.083,1.072-0.248
					c0.355-0.166,0.673-0.395,0.951-0.689c0.323-0.345,0.568-0.727,0.737-1.146c0.169-0.419,0.304-0.841,0.407-1.267
					c0.109-0.441,0.187-0.878,0.23-1.311c0.044-0.434-0.007-0.834-0.154-1.201C97.403,6.855,97.207,6.613,96.939,6.437z"/>
			</g>
			<g>
				<path d="M111.888,12.777c-0.077,0.15-0.171,0.286-0.281,0.407c-0.109,0.121-0.232,0.22-0.368,0.297s-0.28,0.116-0.435,0.116
					c-0.506,0-0.884-0.136-1.133-0.407c-0.25-0.271-0.312-0.66-0.188-1.166l0.242-0.968c0.044-0.184,0.055-0.358,0.033-0.522
					c-0.022-0.165-0.075-0.308-0.159-0.429c-0.085-0.121-0.192-0.216-0.325-0.286c-0.132-0.069-0.286-0.104-0.462-0.104h-1.254
					l-0.726,2.914c-0.044,0.177-0.033,0.287,0.033,0.332c0.059,0.037,0.163,0.057,0.313,0.061c0.149,0.004,0.31,0.005,0.479,0.005
					c0.08,0,0.109,0.042,0.088,0.128l-0.022,0.085c-0.029,0.078-0.081,0.117-0.154,0.117c-0.887-0.044-1.781-0.044-2.684,0
					c-0.081,0-0.114-0.039-0.099-0.117l0.021-0.085c0.022-0.085,0.073-0.128,0.154-0.128c0.169,0,0.33-0.001,0.483-0.005
					c0.154-0.003,0.271-0.024,0.353-0.061c0.08-0.051,0.143-0.162,0.187-0.331l1.508-6.06c0.044-0.184,0.036-0.291-0.022-0.32
					c-0.059-0.037-0.163-0.059-0.313-0.066s-0.31-0.011-0.479-0.011c-0.081,0-0.113-0.04-0.099-0.121l0.032-0.088
					c0.015-0.081,0.063-0.121,0.144-0.121h3.024c0.338,0,0.656,0.046,0.957,0.138s0.562,0.24,0.781,0.445
					c0.184,0.169,0.319,0.374,0.407,0.616s0.095,0.502,0.021,0.781c-0.065,0.279-0.203,0.532-0.412,0.759
					c-0.209,0.228-0.445,0.422-0.709,0.583c-0.184,0.11-0.371,0.202-0.562,0.275s-0.381,0.132-0.572,0.176
					c0.301,0.118,0.539,0.295,0.716,0.534c0.176,0.238,0.245,0.534,0.209,0.886l-0.1,0.968c-0.044,0.418-0.051,0.748-0.021,0.99
					c0.029,0.242,0.153,0.363,0.374,0.363c0.19,0,0.36-0.101,0.511-0.303c0.15-0.201,0.263-0.445,0.336-0.731
					c0.029-0.081,0.08-0.121,0.154-0.121h0.088c0.08,0,0.113,0.04,0.099,0.121C112.021,12.475,111.964,12.627,111.888,12.777z
					 M111.002,7.167c0.007-0.216-0.052-0.398-0.176-0.544c-0.14-0.168-0.321-0.286-0.545-0.352s-0.464-0.099-0.721-0.099h-0.715
					c-0.198,0-0.319,0.019-0.363,0.055s-0.088,0.15-0.132,0.341l-0.726,2.904h1.11c0.257,0,0.512-0.033,0.765-0.099
					s0.493-0.183,0.721-0.352c0.198-0.146,0.347-0.328,0.445-0.544c0.1-0.216,0.178-0.435,0.236-0.655
					C110.961,7.602,110.994,7.384,111.002,7.167z"/>
				<path d="M126.11,12.777c-0.077,0.15-0.171,0.286-0.281,0.407c-0.109,0.121-0.232,0.22-0.368,0.297s-0.28,0.116-0.435,0.116
					c-0.506,0-0.884-0.136-1.133-0.407c-0.25-0.271-0.312-0.66-0.188-1.166l0.242-0.968c0.044-0.184,0.055-0.358,0.033-0.522
					c-0.022-0.165-0.075-0.308-0.159-0.429c-0.085-0.121-0.192-0.216-0.325-0.286c-0.132-0.069-0.286-0.104-0.462-0.104h-1.254
					l-0.726,2.914c-0.044,0.177-0.033,0.287,0.033,0.332c0.059,0.037,0.163,0.057,0.313,0.061c0.149,0.004,0.31,0.005,0.479,0.005
					c0.08,0,0.109,0.042,0.088,0.128l-0.022,0.085c-0.029,0.078-0.081,0.117-0.154,0.117c-0.887-0.044-1.781-0.044-2.684,0
					c-0.081,0-0.114-0.039-0.099-0.117l0.021-0.085c0.022-0.085,0.073-0.128,0.154-0.128c0.169,0,0.33-0.001,0.483-0.005
					c0.154-0.003,0.271-0.024,0.353-0.061c0.08-0.051,0.143-0.162,0.187-0.331l1.508-6.06c0.044-0.184,0.036-0.291-0.022-0.32
					c-0.059-0.037-0.163-0.059-0.313-0.066s-0.31-0.011-0.479-0.011c-0.081,0-0.113-0.04-0.099-0.121l0.032-0.088
					c0.015-0.081,0.063-0.121,0.144-0.121h3.024c0.338,0,0.656,0.046,0.957,0.138s0.562,0.24,0.781,0.445
					c0.184,0.169,0.319,0.374,0.407,0.616s0.095,0.502,0.021,0.781c-0.065,0.279-0.203,0.532-0.412,0.759
					c-0.209,0.228-0.445,0.422-0.709,0.583c-0.184,0.11-0.371,0.202-0.562,0.275s-0.381,0.132-0.572,0.176
					c0.301,0.118,0.539,0.295,0.716,0.534c0.176,0.238,0.245,0.534,0.209,0.886l-0.1,0.968c-0.044,0.418-0.051,0.748-0.021,0.99
					c0.029,0.242,0.153,0.363,0.374,0.363c0.19,0,0.36-0.101,0.511-0.303c0.15-0.201,0.263-0.445,0.336-0.731
					c0.029-0.081,0.08-0.121,0.154-0.121h0.088c0.08,0,0.113,0.04,0.099,0.121C126.243,12.475,126.187,12.627,126.11,12.777z
					 M125.225,7.167c0.007-0.216-0.052-0.398-0.176-0.544c-0.14-0.168-0.321-0.286-0.545-0.352s-0.464-0.099-0.721-0.099h-0.715
					c-0.198,0-0.319,0.019-0.363,0.055s-0.088,0.15-0.132,0.341l-0.726,2.904h1.11c0.257,0,0.512-0.033,0.765-0.099
					s0.493-0.183,0.721-0.352c0.198-0.146,0.347-0.328,0.445-0.544c0.1-0.216,0.178-0.435,0.236-0.655
					C125.184,7.602,125.217,7.384,125.225,7.167z"/>
			</g>
			<g>
				<path d="M110.884,30.276c-0.081,0.201-0.182,0.385-0.303,0.55c-0.12,0.165-0.258,0.301-0.412,0.407
					c-0.154,0.105-0.33,0.159-0.528,0.159c-0.168,0-0.313-0.037-0.435-0.11c-0.12-0.074-0.212-0.172-0.274-0.293
					c-0.063-0.122-0.098-0.264-0.104-0.426c-0.008-0.162,0.021-0.328,0.088-0.497c0.117-0.316,0.229-0.632,0.336-0.945
					c0.105-0.313,0.199-0.628,0.28-0.944c0.051-0.214,0.088-0.418,0.109-0.613c0.022-0.195,0.012-0.378-0.032-0.547
					c-0.074-0.251-0.228-0.376-0.462-0.376c-0.382,0-0.706,0.133-0.974,0.397c-0.269,0.266-0.505,0.619-0.71,1.062l-0.737,2.939
					c-0.029,0.117-0.088,0.206-0.176,0.265c-0.088,0.06-0.176,0.089-0.264,0.089s-0.159-0.029-0.215-0.089
					c-0.055-0.059-0.067-0.147-0.038-0.265l0.825-3.338c0.073-0.294,0.101-0.545,0.082-0.751s-0.119-0.31-0.303-0.31
					c-0.183,0-0.33,0.138-0.439,0.412c-0.11,0.275-0.217,0.622-0.319,1.04c-0.029,0.073-0.077,0.109-0.143,0.109h-0.121
					c-0.066,0-0.092-0.036-0.077-0.109c0.044-0.161,0.092-0.341,0.143-0.539c0.052-0.198,0.121-0.384,0.209-0.556
					s0.196-0.315,0.325-0.429c0.128-0.114,0.287-0.171,0.479-0.171c0.278,0,0.496,0.084,0.654,0.253
					c0.157,0.169,0.243,0.382,0.259,0.638c0.205-0.271,0.438-0.487,0.698-0.648c0.26-0.161,0.563-0.242,0.907-0.242
					c0.205,0,0.395,0.039,0.566,0.116c0.173,0.077,0.307,0.2,0.401,0.369c0.103,0.184,0.152,0.39,0.148,0.617
					c-0.003,0.228-0.034,0.456-0.093,0.684c-0.081,0.323-0.175,0.644-0.281,0.959c-0.106,0.316-0.218,0.636-0.335,0.96
					c-0.11,0.294-0.165,0.544-0.165,0.749c0,0.199,0.084,0.298,0.253,0.298c0.132,0,0.251-0.04,0.357-0.121
					c0.106-0.08,0.201-0.187,0.286-0.318c0.084-0.133,0.159-0.286,0.226-0.463c0.065-0.176,0.121-0.362,0.165-0.561
					c0.029-0.066,0.073-0.099,0.132-0.099h0.132c0.066,0,0.092,0.032,0.077,0.099C111.03,29.877,110.965,30.074,110.884,30.276z"/>
			</g>
			<g>
				<path d="M19.831,22.28c-0.004,0.021-0.015,0.039-0.032,0.052c-0.017,0.013-0.036,0.019-0.058,0.019
					c-0.098,0-0.194,0.002-0.29,0.007c-0.096,0.004-0.167,0.017-0.213,0.038c-0.051,0.017-0.089,0.079-0.115,0.186l-0.874,3.512
					c-0.025,0.106-0.019,0.17,0.019,0.191c0.034,0.021,0.098,0.033,0.191,0.035c0.093,0.002,0.191,0.003,0.293,0.003
					c0.047,0,0.064,0.024,0.051,0.074l-0.013,0.05c-0.017,0.045-0.047,0.067-0.089,0.067c-0.536-0.025-1.082-0.025-1.638,0
					c-0.043,0-0.06-0.022-0.051-0.067l0.013-0.05c0.013-0.05,0.042-0.074,0.089-0.074c0.102,0,0.201-0.001,0.296-0.003
					s0.167-0.014,0.214-0.035c0.046-0.025,0.083-0.09,0.108-0.191l0.88-3.512c0.025-0.103,0.019-0.164-0.019-0.186
					s-0.104-0.034-0.198-0.038c-0.093-0.005-0.189-0.007-0.287-0.007c-0.047,0-0.066-0.023-0.058-0.07l0.013-0.051
					c0.017-0.047,0.047-0.07,0.089-0.07c0.544,0.021,1.09,0.021,1.639,0c0.021,0,0.037,0.007,0.047,0.02
					c0.011,0.013,0.012,0.029,0.003,0.051L19.831,22.28z"/>
				<path d="M24.549,22.28c-0.004,0.021-0.015,0.039-0.032,0.052s-0.036,0.019-0.057,0.019c-0.077,0-0.152,0.007-0.227,0.02
					c-0.074,0.013-0.143,0.042-0.207,0.089c-0.051,0.034-0.092,0.078-0.125,0.131c-0.032,0.053-0.056,0.109-0.073,0.169
					l-0.918,3.685c-0.017,0.047-0.047,0.07-0.089,0.07h-0.07c-0.025,0-0.045-0.011-0.058-0.031
					c-0.233-0.646-0.466-1.294-0.698-1.941c-0.232-0.648-0.464-1.293-0.698-1.936l-0.829,3.315c-0.017,0.06-0.021,0.116-0.013,0.169
					c0.008,0.053,0.029,0.097,0.063,0.131c0.042,0.042,0.097,0.07,0.163,0.083s0.139,0.019,0.22,0.019
					c0.046,0,0.063,0.024,0.051,0.074l-0.013,0.05c-0.004,0.021-0.015,0.036-0.032,0.049c-0.017,0.013-0.036,0.019-0.058,0.019
					c-0.421-0.025-0.846-0.025-1.275,0c-0.021,0-0.037-0.006-0.048-0.019s-0.012-0.028-0.003-0.049l0.013-0.05
					c0.004-0.021,0.015-0.038,0.032-0.053c0.017-0.014,0.036-0.021,0.057-0.021c0.081,0,0.157-0.006,0.229-0.019
					s0.141-0.041,0.204-0.083c0.051-0.034,0.093-0.078,0.125-0.131c0.032-0.054,0.056-0.11,0.073-0.17l0.88-3.524
					c-0.056-0.021-0.131-0.034-0.227-0.038c-0.096-0.005-0.194-0.007-0.296-0.007c-0.021,0-0.037-0.006-0.048-0.019
					s-0.012-0.03-0.003-0.052l0.013-0.051c0.017-0.047,0.046-0.07,0.089-0.07h0.975c0.025,0,0.042,0.011,0.051,0.032l1.217,3.385
					l0.708-2.817c0.034-0.132,0.017-0.231-0.051-0.3c-0.047-0.047-0.102-0.076-0.166-0.089c-0.064-0.013-0.136-0.02-0.217-0.02
					c-0.021,0-0.038-0.006-0.048-0.019c-0.011-0.013-0.012-0.03-0.003-0.052l0.013-0.051c0.017-0.047,0.047-0.07,0.089-0.07
					c0.421,0.018,0.846,0.018,1.275,0c0.021,0,0.037,0.007,0.048,0.02s0.012,0.029,0.003,0.051L24.549,22.28z"/>
				<path d="M28.8,23.548c-0.004,0.021-0.014,0.04-0.028,0.055c-0.015,0.015-0.033,0.022-0.054,0.022H28.66
					c-0.047,0-0.066-0.021-0.057-0.063c0.017-0.094,0.032-0.19,0.044-0.29c0.013-0.101,0.022-0.193,0.029-0.281
					c0.006-0.087,0.005-0.165-0.003-0.235c-0.008-0.07-0.025-0.125-0.051-0.163c-0.06-0.08-0.143-0.135-0.249-0.162
					c-0.106-0.027-0.223-0.042-0.351-0.042h-0.344c-0.11,0-0.181,0.009-0.21,0.025c-0.026,0.026-0.051,0.094-0.077,0.205
					l-0.867,3.474c-0.025,0.102-0.011,0.164,0.045,0.185c0.059,0.021,0.155,0.034,0.287,0.039c0.132,0.004,0.262,0.006,0.389,0.006
					c0.046,0,0.063,0.024,0.051,0.074l-0.013,0.05c-0.009,0.045-0.038,0.067-0.089,0.067c-0.684-0.025-1.375-0.025-2.072,0
					c-0.021,0-0.037-0.006-0.048-0.019s-0.012-0.028-0.003-0.049l0.013-0.05c0.004-0.021,0.015-0.038,0.032-0.053
					c0.017-0.014,0.036-0.021,0.057-0.021c0.128,0,0.258-0.002,0.392-0.006c0.134-0.005,0.235-0.018,0.303-0.039
					c0.068-0.021,0.115-0.083,0.14-0.185l0.867-3.474c0.03-0.111,0.039-0.179,0.026-0.205c-0.017-0.017-0.083-0.025-0.198-0.025
					h-0.344c-0.127,0-0.252,0.015-0.373,0.042s-0.23,0.082-0.328,0.162c-0.047,0.038-0.09,0.092-0.131,0.159
					c-0.041,0.068-0.08,0.146-0.118,0.233c-0.038,0.087-0.075,0.18-0.111,0.277s-0.071,0.195-0.105,0.293
					c-0.017,0.047-0.047,0.07-0.089,0.07h-0.051c-0.021,0-0.037-0.007-0.048-0.02c-0.01-0.013-0.012-0.029-0.003-0.051
					c0.055-0.213,0.123-0.427,0.204-0.644c0.081-0.217,0.157-0.433,0.229-0.646c0.017-0.045,0.046-0.067,0.089-0.067h3.43
					c0.046,0,0.065,0.021,0.057,0.062L28.8,23.548z"/>
				<path d="M32.96,26.178c-0.044,0.088-0.099,0.166-0.163,0.236c-0.063,0.07-0.135,0.127-0.213,0.172s-0.163,0.067-0.252,0.067
					c-0.293,0-0.512-0.079-0.657-0.236s-0.181-0.383-0.108-0.676l0.141-0.561c0.025-0.106,0.032-0.208,0.019-0.303
					c-0.013-0.096-0.044-0.179-0.092-0.249c-0.049-0.07-0.112-0.125-0.188-0.166c-0.076-0.04-0.166-0.061-0.268-0.061h-0.727
					l-0.421,1.688c-0.025,0.103-0.019,0.167,0.019,0.192c0.034,0.021,0.095,0.033,0.182,0.035c0.087,0.002,0.18,0.003,0.277,0.003
					c0.047,0,0.064,0.024,0.051,0.074l-0.013,0.05c-0.017,0.045-0.046,0.067-0.089,0.067c-0.515-0.025-1.033-0.025-1.556,0
					c-0.047,0-0.066-0.022-0.057-0.067l0.013-0.05c0.013-0.05,0.042-0.074,0.089-0.074c0.098,0,0.191-0.001,0.281-0.003
					s0.157-0.014,0.204-0.035c0.046-0.03,0.083-0.094,0.108-0.191l0.873-3.512c0.026-0.106,0.021-0.169-0.013-0.186
					c-0.034-0.021-0.095-0.034-0.182-0.038c-0.087-0.005-0.18-0.007-0.277-0.007c-0.047,0-0.066-0.023-0.057-0.07l0.019-0.051
					c0.008-0.047,0.036-0.07,0.083-0.07h1.753c0.195,0,0.38,0.027,0.555,0.08s0.325,0.14,0.453,0.258
					c0.106,0.099,0.185,0.217,0.236,0.357c0.051,0.141,0.055,0.291,0.013,0.452c-0.038,0.162-0.118,0.309-0.239,0.44
					s-0.258,0.244-0.411,0.338c-0.106,0.063-0.214,0.117-0.325,0.159c-0.11,0.043-0.221,0.076-0.331,0.102
					c0.174,0.068,0.312,0.172,0.414,0.31c0.102,0.139,0.143,0.31,0.121,0.514l-0.057,0.561c-0.026,0.242-0.03,0.434-0.013,0.574
					c0.017,0.14,0.089,0.21,0.216,0.21c0.111,0,0.209-0.059,0.297-0.176c0.087-0.116,0.152-0.258,0.194-0.424
					c0.017-0.046,0.046-0.069,0.089-0.069h0.051c0.047,0,0.066,0.023,0.058,0.069C33.038,26.003,33.005,26.091,32.96,26.178z
					 M32.447,22.927c0.004-0.125-0.03-0.23-0.102-0.315c-0.081-0.098-0.186-0.166-0.315-0.204c-0.13-0.038-0.269-0.058-0.417-0.058
					h-0.415c-0.115,0-0.185,0.011-0.21,0.032c-0.025,0.021-0.051,0.087-0.076,0.197l-0.421,1.684h0.644
					c0.148,0,0.296-0.02,0.443-0.058s0.286-0.106,0.417-0.204c0.115-0.085,0.201-0.19,0.258-0.315
					c0.057-0.125,0.103-0.252,0.137-0.38C32.423,23.179,32.442,23.052,32.447,22.927z"/>
			</g>
			<g>
				<path d="M37.53,26.446c-0.017,0.045-0.047,0.067-0.089,0.067c-0.242-0.013-0.483-0.018-0.724-0.016s-0.483,0.007-0.73,0.016
					c-0.047,0-0.066-0.022-0.057-0.067l0.013-0.05c0.013-0.05,0.042-0.074,0.089-0.074c0.076,0,0.146-0.002,0.21-0.006
					c0.064-0.005,0.125-0.023,0.185-0.058c0.025-0.013,0.047-0.032,0.064-0.058c0.017-0.026,0.023-0.054,0.019-0.084l-0.077-1.069
					H34.98l-0.503,0.891c-0.055,0.106-0.058,0.196-0.006,0.269c0.051,0.077,0.145,0.115,0.28,0.115c0.047,0,0.064,0.024,0.051,0.074
					l-0.013,0.05c-0.017,0.045-0.047,0.067-0.089,0.067c-0.191-0.009-0.38-0.014-0.567-0.016s-0.378,0.003-0.574,0.016
					c-0.021,0-0.037-0.006-0.048-0.019s-0.012-0.028-0.003-0.049l0.013-0.05c0.013-0.05,0.042-0.074,0.089-0.074
					c0.068,0,0.136-0.007,0.204-0.022c0.068-0.015,0.132-0.041,0.191-0.079s0.113-0.085,0.163-0.141
					c0.049-0.055,0.092-0.117,0.13-0.185l2.2-3.876c0.029-0.047,0.068-0.07,0.115-0.07h0.057c0.047,0,0.074,0.023,0.083,0.07
					l0.274,4.055c0.004,0.055,0.011,0.1,0.019,0.134c0.009,0.034,0.028,0.06,0.058,0.076c0.034,0.021,0.086,0.033,0.156,0.035
					c0.07,0.002,0.147,0.003,0.232,0.003c0.047,0,0.064,0.024,0.051,0.074L37.53,26.446z M36.281,22.765l-1.186,2.091h1.326
					L36.281,22.765z"/>
			</g>
			<g>
				<path d="M69.541,34.223c-0.047,0.117-0.104,0.224-0.172,0.319s-0.146,0.174-0.236,0.235s-0.191,0.093-0.306,0.093
					c-0.098,0-0.182-0.021-0.251-0.064c-0.07-0.042-0.125-0.099-0.163-0.17c-0.039-0.07-0.059-0.152-0.061-0.246
					c-0.002-0.094,0.016-0.19,0.054-0.288l0.503-1.377c0.064-0.175,0.096-0.32,0.096-0.436s-0.049-0.173-0.146-0.173
					c-0.077,0-0.145,0.022-0.204,0.066c-0.06,0.045-0.114,0.105-0.163,0.182c-0.049,0.077-0.092,0.166-0.131,0.268
					c-0.038,0.103-0.07,0.211-0.096,0.325c-0.017,0.043-0.044,0.064-0.083,0.064h-0.07c-0.038,0-0.053-0.021-0.044-0.064
					c0.025-0.11,0.063-0.224,0.111-0.341c0.049-0.116,0.107-0.223,0.175-0.318s0.146-0.174,0.236-0.233
					c0.089-0.059,0.191-0.089,0.306-0.089c0.098,0,0.181,0.021,0.249,0.064c0.068,0.042,0.12,0.1,0.156,0.172
					s0.055,0.154,0.057,0.246c0.002,0.092-0.014,0.187-0.047,0.284l-0.504,1.381c-0.06,0.17-0.09,0.313-0.092,0.431
					c-0.002,0.117,0.045,0.176,0.144,0.176c0.076,0,0.146-0.023,0.207-0.07c0.062-0.046,0.117-0.108,0.166-0.185
					s0.091-0.166,0.127-0.268c0.036-0.103,0.069-0.211,0.099-0.325c0.008-0.038,0.034-0.058,0.077-0.058h0.07
					c0.017,0,0.031,0.006,0.042,0.017c0.011,0.01,0.012,0.024,0.003,0.041C69.624,33.993,69.587,34.107,69.541,34.223z
					 M69.493,31.048c-0.062,0.049-0.129,0.073-0.201,0.073s-0.127-0.024-0.166-0.073s-0.047-0.109-0.025-0.182
					c0.017-0.072,0.056-0.133,0.118-0.182s0.128-0.073,0.201-0.073c0.072,0,0.127,0.024,0.166,0.073s0.047,0.109,0.025,0.182
					C69.594,30.939,69.555,31,69.493,31.048z"/>
			</g>
			<g>
				<path d="M74.983,9.389c-0.049,0.117-0.107,0.223-0.175,0.319c-0.068,0.096-0.147,0.174-0.236,0.236
					c-0.089,0.062-0.191,0.093-0.306,0.093c-0.098,0-0.182-0.021-0.252-0.064c-0.07-0.042-0.123-0.099-0.159-0.169
					s-0.057-0.153-0.061-0.247c-0.004-0.094,0.013-0.19,0.051-0.288c0.068-0.184,0.132-0.366,0.191-0.548s0.112-0.364,0.159-0.547
					c0.034-0.124,0.058-0.243,0.07-0.355C74.278,7.704,74.27,7.599,74.24,7.5c-0.042-0.145-0.132-0.218-0.268-0.218
					c-0.221,0-0.41,0.078-0.567,0.234s-0.295,0.362-0.414,0.618c-0.064,0.286-0.132,0.57-0.204,0.852S72.642,9.55,72.57,9.832
					c-0.017,0.068-0.051,0.12-0.102,0.154c-0.051,0.034-0.102,0.051-0.153,0.051c-0.051,0-0.094-0.017-0.127-0.051
					c-0.034-0.034-0.042-0.085-0.026-0.154l0.415-1.659c0.034-0.124,0.056-0.243,0.067-0.355c0.011-0.113,0.003-0.219-0.022-0.317
					c-0.042-0.145-0.131-0.218-0.268-0.218c-0.221,0-0.41,0.078-0.567,0.234s-0.295,0.362-0.415,0.618l-0.427,1.697
					c-0.017,0.068-0.051,0.12-0.102,0.154c-0.051,0.034-0.102,0.051-0.153,0.051c-0.051,0-0.092-0.017-0.124-0.051
					s-0.04-0.085-0.022-0.154l0.478-1.934c0.042-0.171,0.059-0.316,0.048-0.436S71,7.282,70.893,7.282
					c-0.106,0-0.191,0.08-0.255,0.239s-0.125,0.36-0.185,0.603c-0.017,0.042-0.044,0.063-0.083,0.063H70.3
					c-0.038,0-0.053-0.021-0.044-0.063c0.025-0.094,0.053-0.198,0.083-0.313s0.07-0.222,0.121-0.322
					c0.051-0.1,0.114-0.183,0.188-0.249c0.074-0.066,0.167-0.099,0.277-0.099c0.161,0,0.288,0.05,0.379,0.15
					c0.091,0.1,0.142,0.224,0.15,0.373c0.119-0.162,0.254-0.289,0.405-0.383c0.151-0.093,0.326-0.14,0.526-0.14
					c0.124,0,0.235,0.022,0.335,0.067c0.1,0.045,0.177,0.116,0.232,0.214c0.047,0.085,0.075,0.185,0.083,0.299
					c0.123-0.178,0.264-0.32,0.421-0.424s0.342-0.156,0.555-0.156c0.119,0,0.228,0.022,0.328,0.067
					c0.1,0.044,0.177,0.116,0.233,0.214c0.059,0.106,0.088,0.226,0.086,0.358c-0.002,0.132-0.021,0.264-0.054,0.396
					c-0.047,0.188-0.101,0.373-0.163,0.556s-0.126,0.368-0.194,0.556c-0.064,0.17-0.096,0.315-0.096,0.435
					c0,0.115,0.049,0.172,0.146,0.172c0.077,0,0.146-0.023,0.207-0.07c0.062-0.047,0.117-0.108,0.166-0.185s0.092-0.166,0.131-0.268
					c0.038-0.102,0.072-0.21,0.102-0.325c0.009-0.038,0.034-0.058,0.077-0.058h0.07c0.017,0,0.031,0.005,0.042,0.016
					c0.01,0.011,0.011,0.024,0.003,0.042C75.069,9.159,75.032,9.272,74.983,9.389z"/>
			</g>
			<g>
				<path d="M113.471,16.567c-0.047,0.117-0.104,0.223-0.172,0.319c-0.068,0.096-0.147,0.174-0.236,0.236s-0.191,0.093-0.306,0.093
					c-0.099,0-0.182-0.021-0.252-0.064c-0.07-0.042-0.124-0.099-0.163-0.169c-0.038-0.07-0.059-0.153-0.061-0.247
					s0.017-0.19,0.055-0.288l0.504-1.377c0.063-0.175,0.095-0.32,0.095-0.435s-0.049-0.173-0.146-0.173
					c-0.076,0-0.145,0.022-0.204,0.067c-0.06,0.044-0.113,0.105-0.162,0.182c-0.049,0.076-0.093,0.166-0.131,0.268
					s-0.07,0.21-0.096,0.325c-0.017,0.042-0.045,0.063-0.083,0.063h-0.069c-0.039,0-0.054-0.021-0.045-0.063
					c0.025-0.11,0.063-0.224,0.111-0.341c0.049-0.117,0.107-0.223,0.176-0.318c0.067-0.096,0.146-0.173,0.235-0.233
					c0.09-0.06,0.191-0.089,0.306-0.089c0.099,0,0.181,0.021,0.249,0.064s0.12,0.1,0.156,0.172c0.036,0.073,0.055,0.155,0.058,0.246
					c0.002,0.092-0.014,0.187-0.048,0.285l-0.504,1.38c-0.06,0.17-0.09,0.314-0.093,0.432c-0.002,0.117,0.046,0.175,0.144,0.175
					c0.077,0,0.146-0.023,0.207-0.07s0.117-0.108,0.166-0.185s0.092-0.166,0.128-0.268s0.068-0.21,0.099-0.325
					c0.009-0.038,0.034-0.058,0.076-0.058h0.07c0.017,0,0.031,0.005,0.042,0.016c0.01,0.011,0.011,0.024,0.003,0.042
					C113.554,16.336,113.518,16.45,113.471,16.567z M113.423,13.393c-0.062,0.049-0.129,0.073-0.201,0.073s-0.127-0.024-0.166-0.073
					c-0.038-0.049-0.046-0.109-0.025-0.182c0.018-0.072,0.057-0.132,0.118-0.182c0.062-0.049,0.129-0.073,0.201-0.073
					s0.127,0.024,0.165,0.073c0.039,0.049,0.047,0.11,0.026,0.182C113.523,13.283,113.484,13.344,113.423,13.393z"/>
				<path d="M127.687,16.567c-0.047,0.117-0.104,0.223-0.172,0.319c-0.068,0.096-0.147,0.174-0.236,0.236s-0.191,0.093-0.306,0.093
					c-0.099,0-0.182-0.021-0.252-0.064c-0.07-0.042-0.124-0.099-0.163-0.169c-0.038-0.07-0.059-0.153-0.061-0.247
					s0.017-0.19,0.055-0.288l0.504-1.377c0.063-0.175,0.095-0.32,0.095-0.435s-0.049-0.173-0.146-0.173
					c-0.076,0-0.145,0.022-0.204,0.067c-0.06,0.044-0.113,0.105-0.162,0.182c-0.049,0.076-0.093,0.166-0.131,0.268
					s-0.07,0.21-0.096,0.325c-0.017,0.042-0.045,0.063-0.083,0.063h-0.069c-0.039,0-0.054-0.021-0.045-0.063
					c0.025-0.11,0.063-0.224,0.111-0.341c0.049-0.117,0.107-0.223,0.176-0.318c0.067-0.096,0.146-0.173,0.235-0.233
					c0.09-0.06,0.191-0.089,0.306-0.089c0.099,0,0.181,0.021,0.249,0.064s0.12,0.1,0.156,0.172c0.036,0.073,0.055,0.155,0.058,0.246
					c0.002,0.092-0.014,0.187-0.048,0.285l-0.504,1.38c-0.06,0.17-0.09,0.314-0.093,0.432c-0.002,0.117,0.046,0.175,0.144,0.175
					c0.077,0,0.146-0.023,0.207-0.07s0.117-0.108,0.166-0.185s0.092-0.166,0.128-0.268s0.068-0.21,0.099-0.325
					c0.009-0.038,0.034-0.058,0.076-0.058h0.07c0.017,0,0.031,0.005,0.042,0.016c0.01,0.011,0.011,0.024,0.003,0.042
					C127.77,16.336,127.733,16.45,127.687,16.567z M127.639,13.393c-0.062,0.049-0.129,0.073-0.201,0.073s-0.127-0.024-0.166-0.073
					c-0.038-0.049-0.046-0.109-0.025-0.182c0.018-0.072,0.057-0.132,0.118-0.182c0.062-0.049,0.129-0.073,0.201-0.073
					s0.127,0.024,0.165,0.073c0.039,0.049,0.047,0.11,0.026,0.182C127.739,13.283,127.7,13.344,127.639,13.393z"/>
			</g>
			<g>
				<path d="M49.295,19.132H42.43c-0.121,0-0.22-0.099-0.22-0.22s0.099-0.22,0.22-0.22h6.865c0.121,0,0.22,0.099,0.22,0.22
					S49.416,19.132,49.295,19.132z M49.295,21.267H42.43c-0.121,0-0.22-0.1-0.22-0.221s0.099-0.22,0.22-0.22h6.865
					c0.121,0,0.22,0.099,0.22,0.22S49.416,21.267,49.295,21.267z"/>
			</g>
			<g>
				<path d="M103.721,18.698c-0.021,0.033-0.055,0.049-0.076,0.049c-0.033,0-0.077,0-0.1-0.033
					c-1.661-1.916-2.365-5.043-2.365-8.154s0.704-6.238,2.365-8.153c0.022-0.033,0.055-0.033,0.1-0.033
					c0.021,0,0.055,0.016,0.076,0.049c0.012,0.033,0.022,0.065,0.022,0.115c0,0.033-0.011,0.082-0.033,0.115
					c-1.419,1.981-1.893,4.961-1.893,7.908c0,2.947,0.474,5.927,1.893,7.908c0.022,0.033,0.033,0.065,0.033,0.115
					C103.743,18.632,103.732,18.665,103.721,18.698z"/>
				<path d="M131.859,18.714c-0.022,0.016-0.044,0.033-0.066,0.033h-0.033c-0.021,0-0.055-0.017-0.077-0.049
					c-0.011-0.033-0.021-0.065-0.021-0.114c0-0.033,0.011-0.082,0.033-0.115c1.419-1.981,1.892-4.961,1.892-7.908
					c0-2.947-0.473-5.927-1.892-7.908c-0.022-0.033-0.033-0.066-0.033-0.115c0-0.049,0-0.082,0.021-0.115
					c0.022-0.033,0.044-0.049,0.077-0.049h0.033c0.022,0,0.044,0.016,0.066,0.033c1.661,1.916,2.365,5.042,2.365,8.153
					S133.521,16.799,131.859,18.714z"/>
			</g>
			<g>
				<path d="M143.023,22.576l-2.266-2.288l-2.277,2.288c-0.089,0.088-0.221,0.088-0.309,0s-0.088-0.23,0-0.318l2.277-2.277
					l-2.277-2.278c-0.088-0.088-0.088-0.231,0-0.319s0.22-0.088,0.309,0l2.277,2.288l2.266-2.288c0.088-0.088,0.231-0.088,0.319,0
					s0.088,0.231,0,0.319l-2.277,2.278l2.277,2.277c0.088,0.088,0.088,0.23,0,0.318S143.111,22.664,143.023,22.576z"/>
			</g>
			<g>
				<path d="M74.441,32.714h-3.98c-0.07,0-0.127-0.057-0.127-0.127s0.057-0.128,0.127-0.128h3.98c0.07,0,0.127,0.058,0.127,0.128
					S74.511,32.714,74.441,32.714z M74.441,33.952h-3.98c-0.07,0-0.127-0.057-0.127-0.127s0.057-0.128,0.127-0.128h3.98
					c0.07,0,0.127,0.058,0.127,0.128S74.511,33.952,74.441,33.952z"/>
			</g>
			<g>
				<path d="M128.577,14.3c-0.006,0.025-0.038,0.038-0.058,0.025l-0.114-0.038c-0.02,0-0.038-0.032-0.025-0.058l0.593-2.168
					c0.038-0.134,0.141-0.191,0.242-0.191c0.166,0,0.338,0.153,0.249,0.363L128.577,14.3z"/>
			</g>
			<g>
				<path d="M78.084,28.378H66.241c-0.049,0-0.066-0.017-0.099-0.033c-0.05-0.033-0.05-0.083-0.05-0.132c0-0.033,0-0.066,0.017-0.1
					l5.081-6.284l-5.081-6.978c-0.017-0.033-0.017-0.066-0.017-0.099v-0.248c0-0.083,0.066-0.165,0.148-0.165h11.843l1.204,3.299
					h-0.346c-0.347-0.957-1.105-1.682-2.029-2.111c-1.287-0.61-3.002-0.626-4.553-0.626h-4.767l4.635,6.367
					c0.033,0.049,0.049,0.132,0,0.181l-4.965,6.137h5.179c1.534,0,3.25,0,4.52-0.61c0.907-0.429,1.666-1.155,1.979-2.111h0.346
					L78.084,28.378z"/>
			</g>
			<g>
				<path d="M56.824,15.855v-0.341c0.095,0,0.198,0,0.308,0s0.216-0.002,0.319-0.006c0.103-0.003,0.2-0.011,0.292-0.022
					c0.092-0.011,0.167-0.023,0.226-0.039c0.073-0.014,0.13-0.053,0.17-0.115c0.041-0.063,0.061-0.134,0.061-0.214V9.268
					c-0.213,0.106-0.442,0.182-0.688,0.227c-0.246,0.046-0.497,0.068-0.753,0.068V9.222c0.374,0,0.737-0.051,1.089-0.154
					c0.352-0.103,0.656-0.29,0.913-0.561h0.132c0.081,0,0.121,0.041,0.121,0.121v6.49c0,0.081,0.02,0.152,0.061,0.214
					s0.097,0.101,0.17,0.115c0.059,0.015,0.132,0.028,0.22,0.039c0.088,0.011,0.185,0.019,0.292,0.022
					c0.106,0.004,0.214,0.006,0.324,0.006c0.11,0,0.213,0,0.308,0v0.341C59.2,15.811,58.012,15.811,56.824,15.855z"/>
			</g>
			<g>
				<path d="M146.545,22.73v-0.341c0.096,0,0.198,0,0.308,0c0.11,0,0.217-0.002,0.319-0.006s0.2-0.011,0.292-0.021
					c0.091-0.012,0.166-0.024,0.226-0.039c0.073-0.015,0.13-0.053,0.17-0.115s0.061-0.134,0.061-0.215v-5.85
					c-0.213,0.106-0.441,0.182-0.688,0.227c-0.246,0.046-0.497,0.068-0.754,0.068v-0.341c0.374,0,0.737-0.051,1.09-0.154
					c0.352-0.103,0.656-0.29,0.913-0.561h0.132c0.08,0,0.121,0.041,0.121,0.121v6.49c0,0.081,0.02,0.152,0.061,0.215
					c0.04,0.063,0.097,0.101,0.17,0.115c0.059,0.015,0.132,0.027,0.22,0.039c0.089,0.011,0.186,0.018,0.292,0.021
					s0.215,0.006,0.324,0.006c0.11,0,0.213,0,0.309,0v0.341C148.921,22.686,147.733,22.686,146.545,22.73z"/>
				<path d="M155.95,20.676c-0.066,0.483-0.228,0.934-0.484,1.352c-0.184,0.3-0.429,0.532-0.737,0.697
					c-0.308,0.164-0.638,0.247-0.989,0.247c-0.353,0-0.683-0.083-0.99-0.247c-0.308-0.165-0.554-0.397-0.737-0.697
					c-0.257-0.418-0.418-0.868-0.483-1.352c-0.066-0.483-0.1-0.967-0.1-1.45c0-0.498,0.033-0.992,0.1-1.482
					c0.065-0.491,0.227-0.948,0.483-1.373c0.184-0.308,0.43-0.545,0.737-0.714s0.638-0.253,0.99-0.253
					c0.352,0,0.682,0.084,0.989,0.253c0.309,0.168,0.554,0.406,0.737,0.714c0.257,0.425,0.418,0.882,0.484,1.373
					c0.065,0.491,0.099,0.985,0.099,1.482C156.049,19.709,156.016,20.193,155.95,20.676z M155.131,18.357
					c-0.004-0.238-0.014-0.473-0.028-0.704s-0.038-0.449-0.071-0.654c-0.033-0.205-0.079-0.381-0.138-0.528
					c-0.103-0.235-0.256-0.431-0.462-0.589c-0.205-0.157-0.436-0.236-0.692-0.236s-0.488,0.079-0.693,0.236
					c-0.205,0.158-0.359,0.354-0.462,0.589c-0.059,0.146-0.104,0.323-0.138,0.528c-0.033,0.206-0.057,0.423-0.071,0.654
					s-0.023,0.466-0.027,0.704s-0.006,0.468-0.006,0.687c0,0.235,0.002,0.484,0.006,0.749c0.004,0.264,0.013,0.521,0.027,0.77
					s0.038,0.486,0.071,0.71s0.079,0.412,0.138,0.566c0.096,0.257,0.246,0.469,0.451,0.638s0.439,0.253,0.704,0.253
					c0.264,0,0.498-0.084,0.704-0.253c0.205-0.169,0.355-0.381,0.45-0.638c0.059-0.154,0.104-0.343,0.138-0.566
					s0.057-0.461,0.071-0.71s0.024-0.506,0.028-0.77c0.003-0.265,0.005-0.514,0.005-0.749
					C155.136,18.826,155.134,18.596,155.131,18.357z"/>
				<path d="M161.45,20.676c-0.066,0.483-0.228,0.934-0.484,1.352c-0.184,0.3-0.429,0.532-0.737,0.697
					c-0.308,0.164-0.638,0.247-0.989,0.247c-0.353,0-0.683-0.083-0.99-0.247c-0.308-0.165-0.554-0.397-0.737-0.697
					c-0.257-0.418-0.418-0.868-0.483-1.352c-0.066-0.483-0.1-0.967-0.1-1.45c0-0.498,0.033-0.992,0.1-1.482
					c0.065-0.491,0.227-0.948,0.483-1.373c0.184-0.308,0.43-0.545,0.737-0.714s0.638-0.253,0.99-0.253
					c0.352,0,0.682,0.084,0.989,0.253c0.309,0.168,0.554,0.406,0.737,0.714c0.257,0.425,0.418,0.882,0.484,1.373
					c0.065,0.491,0.099,0.985,0.099,1.482C161.549,19.709,161.516,20.193,161.45,20.676z M160.631,18.357
					c-0.004-0.238-0.014-0.473-0.028-0.704s-0.038-0.449-0.071-0.654c-0.033-0.205-0.079-0.381-0.138-0.528
					c-0.103-0.235-0.256-0.431-0.462-0.589c-0.205-0.157-0.436-0.236-0.692-0.236s-0.488,0.079-0.693,0.236
					c-0.205,0.158-0.359,0.354-0.462,0.589c-0.059,0.146-0.104,0.323-0.138,0.528c-0.033,0.206-0.057,0.423-0.071,0.654
					s-0.023,0.466-0.027,0.704s-0.006,0.468-0.006,0.687c0,0.235,0.002,0.484,0.006,0.749c0.004,0.264,0.013,0.521,0.027,0.77
					s0.038,0.486,0.071,0.71s0.079,0.412,0.138,0.566c0.096,0.257,0.246,0.469,0.451,0.638s0.439,0.253,0.704,0.253
					c0.264,0,0.498-0.084,0.704-0.253c0.205-0.169,0.355-0.381,0.45-0.638c0.059-0.154,0.104-0.343,0.138-0.566
					s0.057-0.461,0.071-0.71s0.024-0.506,0.028-0.77c0.003-0.265,0.005-0.514,0.005-0.749
					C160.636,18.826,160.634,18.596,160.631,18.357z"/>
			</g>
			<g>
				<path d="M75.293,34.8v-0.197c0.055,0,0.115,0,0.179,0c0.063,0,0.125-0.001,0.185-0.004c0.059-0.002,0.116-0.006,0.168-0.013
					c0.053-0.006,0.097-0.014,0.131-0.022c0.042-0.008,0.076-0.03,0.099-0.066c0.023-0.036,0.035-0.077,0.035-0.124v-3.391
					c-0.123,0.062-0.256,0.105-0.398,0.131c-0.142,0.027-0.288,0.04-0.437,0.04v-0.197c0.217,0,0.427-0.03,0.631-0.09
					c0.204-0.06,0.38-0.168,0.529-0.325h0.077c0.047,0,0.07,0.023,0.07,0.07v3.762c0,0.047,0.012,0.088,0.035,0.124
					s0.057,0.059,0.099,0.066c0.034,0.009,0.076,0.017,0.127,0.022c0.051,0.007,0.107,0.011,0.169,0.013
					c0.062,0.003,0.124,0.004,0.188,0.004c0.063,0,0.123,0,0.178,0V34.8C76.67,34.775,75.981,34.775,75.293,34.8z"/>
			</g>
			<g>
				<path d="M116.323,14.499c-0.161,0.367-0.389,0.689-0.682,0.968c-0.052,0.037-0.104,0.037-0.154,0l-0.022-0.033
					c-0.044-0.037-0.044-0.084,0-0.143c0.271-0.257,0.482-0.554,0.633-0.891s0.226-0.693,0.226-1.067
					c0-0.029-0.002-0.059-0.006-0.088c-0.003-0.029-0.005-0.059-0.005-0.088c-0.11,0.132-0.261,0.198-0.451,0.198
					s-0.336-0.061-0.435-0.182s-0.148-0.254-0.148-0.401c0-0.146,0.05-0.28,0.148-0.401s0.244-0.182,0.435-0.182
					c0.139,0,0.253,0.037,0.341,0.11c0.088,0.074,0.159,0.165,0.215,0.275c0.055,0.11,0.093,0.232,0.115,0.368
					s0.033,0.266,0.033,0.391C116.565,13.744,116.484,14.132,116.323,14.499z"/>
			</g>
			<g>
				<path d="M163.934,23.247c-0.036,0.052-0.084,0.083-0.143,0.094s-0.113-0.002-0.165-0.038c-0.052-0.037-0.084-0.083-0.099-0.138
					s-0.004-0.112,0.032-0.171l5.017-7.479c-0.235,0.146-0.484,0.253-0.748,0.319s-0.533,0.097-0.809,0.093
					c-0.275-0.003-0.55-0.044-0.825-0.121c-0.274-0.077-0.537-0.193-0.786-0.347c0.088,0.191,0.15,0.393,0.187,0.605
					c0.037,0.213,0.056,0.425,0.056,0.638c0,0.271-0.029,0.541-0.088,0.808c-0.06,0.268-0.162,0.519-0.309,0.754
					c-0.109,0.176-0.251,0.332-0.424,0.467c-0.172,0.135-0.372,0.204-0.599,0.204c-0.235,0-0.453-0.064-0.655-0.192
					c-0.201-0.128-0.368-0.288-0.5-0.479c-0.169-0.228-0.288-0.475-0.357-0.743c-0.07-0.268-0.104-0.541-0.104-0.819
					s0.034-0.55,0.104-0.814c0.069-0.264,0.188-0.513,0.357-0.748c0.132-0.191,0.299-0.348,0.5-0.473
					c0.202-0.125,0.42-0.187,0.655-0.187c0.146,0,0.284,0.031,0.412,0.093c0.128,0.063,0.244,0.145,0.347,0.248
					c0.315,0.308,0.669,0.534,1.062,0.677c0.392,0.143,0.782,0.205,1.171,0.187s0.76-0.119,1.111-0.303
					c0.353-0.183,0.646-0.451,0.88-0.803c0.037-0.051,0.083-0.084,0.138-0.099s0.111-0.003,0.171,0.033
					c0.051,0.037,0.082,0.084,0.093,0.143c0.012,0.059-0.002,0.114-0.038,0.165L163.934,23.247z M165.293,15.965
					c-0.056-0.242-0.146-0.469-0.27-0.682c-0.096-0.162-0.209-0.295-0.342-0.402c-0.132-0.106-0.282-0.159-0.45-0.159
					c-0.147,0-0.281,0.053-0.402,0.159c-0.12,0.106-0.222,0.237-0.302,0.391c-0.11,0.213-0.177,0.44-0.198,0.682
					c-0.022,0.242-0.033,0.491-0.033,0.748s0.011,0.508,0.033,0.753c0.021,0.246,0.088,0.475,0.198,0.688
					c0.08,0.154,0.182,0.282,0.302,0.385c0.121,0.103,0.255,0.154,0.402,0.154c0.168,0,0.318-0.053,0.45-0.16
					c0.133-0.106,0.246-0.236,0.342-0.391c0.124-0.212,0.214-0.44,0.27-0.682c0.055-0.242,0.082-0.491,0.082-0.748
					C165.375,16.453,165.348,16.207,165.293,15.965z M170.44,21.927c-0.063,0.264-0.167,0.513-0.313,0.748
					c-0.11,0.176-0.251,0.331-0.424,0.467c-0.172,0.136-0.368,0.204-0.588,0.204c-0.242,0-0.462-0.064-0.66-0.192
					c-0.198-0.129-0.367-0.288-0.506-0.479c-0.161-0.228-0.279-0.474-0.353-0.737s-0.109-0.535-0.109-0.814
					c0-0.278,0.036-0.55,0.109-0.813s0.191-0.51,0.353-0.737c0.139-0.19,0.308-0.349,0.506-0.473s0.418-0.187,0.66-0.187
					c0.22,0,0.416,0.065,0.588,0.197c0.173,0.132,0.313,0.286,0.424,0.462c0.146,0.235,0.251,0.484,0.313,0.748
					c0.063,0.265,0.094,0.532,0.094,0.803C170.534,21.395,170.503,21.663,170.44,21.927z M170.177,20.396
					c-0.056-0.239-0.146-0.465-0.27-0.679c-0.103-0.161-0.22-0.296-0.353-0.402c-0.132-0.106-0.278-0.16-0.439-0.16
					c-0.146,0-0.28,0.052-0.401,0.154c-0.121,0.104-0.223,0.235-0.303,0.397c-0.103,0.213-0.169,0.439-0.198,0.679
					c-0.029,0.238-0.044,0.487-0.044,0.744c0,0.258,0.013,0.508,0.039,0.75c0.025,0.243,0.093,0.471,0.203,0.684
					c0.08,0.155,0.182,0.283,0.303,0.387c0.121,0.103,0.255,0.154,0.401,0.154c0.161,0,0.308-0.052,0.439-0.154
					c0.133-0.104,0.25-0.235,0.353-0.397c0.124-0.213,0.214-0.439,0.27-0.678c0.055-0.239,0.082-0.487,0.082-0.745
					C170.259,20.879,170.231,20.635,170.177,20.396z"/>
			</g>
		</g>
	</g>
</g>
</svg>
