<?xml version="1.0" encoding="utf-8"?>
<!-- Generator: Adobe Illustrator 14.0.0, SVG Export Plug-In . SVG Version: 6.00 Build 43363)  -->
<!DOCTYPE svg PUBLIC "-//W3C//DTD SVG 1.1//EN" "http://www.w3.org/Graphics/SVG/1.1/DTD/svg11.dtd">
<svg version="1.1" xmlns="http://www.w3.org/2000/svg" xmlns:xlink="http://www.w3.org/1999/xlink" x="0px" y="0px"
	 width="106.253px" height="15.242px" viewBox="0 0 106.253 15.242" style="enable-background:new 0 0 106.253 15.242;"
	 xml:space="preserve">
<g id="Layer_1">
</g>
<g id="Layer_2">
	<g id="theGroup">
		<g>
			<g>
				<path d="M7.768,4.82C7.592,5.04,7.386,5.227,7.152,5.381C6.968,5.506,6.781,5.605,6.591,5.678
					C6.4,5.751,6.209,5.807,6.019,5.843c0.234,0.022,0.449,0.079,0.643,0.17s0.365,0.218,0.512,0.379
					c0.161,0.169,0.271,0.372,0.33,0.61c0.059,0.238,0.055,0.489-0.011,0.754C7.427,8.029,7.304,8.287,7.125,8.533
					c-0.18,0.245-0.395,0.46-0.644,0.644C6.217,9.374,5.937,9.523,5.639,9.622C5.342,9.72,5.047,9.77,4.754,9.77h-3.85
					c-0.037,0-0.064-0.011-0.083-0.032c-0.019-0.021-0.02-0.05-0.005-0.085l0.022-0.085C0.853,9.483,0.904,9.44,0.992,9.44
					c0.169,0,0.328-0.002,0.479-0.006c0.15-0.003,0.266-0.023,0.347-0.061C1.897,9.33,1.96,9.219,2.004,9.043l1.507-6.06
					C3.555,2.8,3.547,2.693,3.489,2.664C3.43,2.627,3.326,2.605,3.175,2.598s-0.31-0.011-0.479-0.011
					c-0.037,0-0.064-0.011-0.083-0.033s-0.02-0.051-0.005-0.088l0.022-0.088C2.638,2.341,2.656,2.312,2.686,2.29
					c0.029-0.022,0.062-0.033,0.099-0.033h3.564c0.286,0,0.556,0.044,0.809,0.132C7.41,2.477,7.621,2.613,7.79,2.796
					C7.951,2.965,8.063,3.163,8.125,3.39C8.188,3.617,8.186,3.859,8.12,4.116C8.061,4.365,7.944,4.6,7.768,4.82z M6.552,7.095
					c-0.011-0.217-0.064-0.414-0.159-0.59C6.312,6.35,6.2,6.225,6.057,6.129c-0.143-0.095-0.31-0.144-0.5-0.144H3.588L2.829,9.042
					C2.777,9.242,2.767,9.359,2.796,9.396C2.818,9.425,2.928,9.44,3.126,9.44h1.43c0.206,0,0.411-0.044,0.616-0.132
					c0.205-0.089,0.396-0.206,0.572-0.354C5.935,8.786,6.09,8.598,6.211,8.392s0.21-0.416,0.27-0.63
					C6.54,7.535,6.563,7.312,6.552,7.095z M7.196,3.549C7.181,3.362,7.13,3.192,7.042,3.038c-0.081-0.139-0.187-0.25-0.319-0.33
					C6.591,2.627,6.437,2.587,6.261,2.587H4.842c-0.206,0-0.326,0.019-0.363,0.055C4.427,2.686,4.38,2.8,4.336,2.983L3.654,5.744
					h1.54c0.212,0,0.421-0.042,0.627-0.126C6.026,5.533,6.22,5.414,6.404,5.26c0.389-0.323,0.634-0.704,0.737-1.144
					C7.192,3.925,7.21,3.736,7.196,3.549z"/>
				<path d="M14.159,4.644c-0.015,0.073-0.059,0.11-0.132,0.11c-0.015,0.007-0.033,0.009-0.055,0.005
					c-0.022-0.003-0.044-0.005-0.066-0.005c-0.074,0-0.103-0.029-0.088-0.088c0.059-0.345,0.079-0.66,0.061-0.946
					C13.86,3.434,13.8,3.188,13.697,2.983c-0.103-0.205-0.253-0.365-0.451-0.479c-0.198-0.113-0.447-0.17-0.748-0.17
					c-0.176,0-0.354,0.039-0.534,0.115s-0.346,0.181-0.5,0.313c-0.168,0.146-0.306,0.309-0.413,0.488
					c-0.106,0.179-0.185,0.364-0.236,0.554c-0.081,0.329-0.064,0.629,0.05,0.899c0.113,0.271,0.313,0.446,0.599,0.527l1.232,0.351
					c0.22,0.066,0.407,0.17,0.561,0.313c0.154,0.143,0.27,0.311,0.347,0.504s0.121,0.407,0.132,0.642
					c0.011,0.234-0.016,0.476-0.083,0.724c-0.073,0.293-0.19,0.576-0.352,0.851c-0.161,0.274-0.363,0.521-0.605,0.74
					c-0.227,0.197-0.477,0.356-0.748,0.477c-0.271,0.121-0.543,0.182-0.814,0.182c-0.403,0-0.746-0.066-1.028-0.198
					S9.601,9.495,9.44,9.253L8.868,9.957c-0.037,0.037-0.074,0.056-0.11,0.056H8.725c-0.081,0-0.106-0.033-0.077-0.1l0.627-2.519
					c0.015-0.073,0.059-0.11,0.132-0.11h0.121c0.029,0,0.053,0.012,0.072,0.033c0.018,0.022,0.02,0.048,0.005,0.077
					C9.436,8.098,9.491,8.656,9.77,9.066c0.279,0.411,0.763,0.616,1.452,0.616c0.176,0,0.354-0.042,0.533-0.127
					c0.18-0.084,0.347-0.195,0.5-0.335c0.169-0.161,0.31-0.339,0.424-0.534c0.113-0.193,0.2-0.397,0.258-0.61
					c0.088-0.366,0.079-0.698-0.027-0.995c-0.106-0.297-0.313-0.49-0.622-0.578l-1.221-0.352c-0.212-0.059-0.394-0.154-0.544-0.286
					c-0.15-0.132-0.268-0.29-0.352-0.473s-0.134-0.383-0.148-0.6s0.007-0.442,0.066-0.676c0.073-0.279,0.191-0.546,0.352-0.803
					c0.161-0.256,0.359-0.484,0.594-0.682c0.227-0.19,0.475-0.343,0.742-0.457c0.268-0.113,0.534-0.17,0.798-0.17
					c0.359,0,0.654,0.068,0.885,0.204s0.409,0.321,0.534,0.556l0.572-0.704c0.022-0.037,0.055-0.055,0.099-0.055h0.044
					c0.066,0,0.092,0.04,0.077,0.118L14.159,4.644z"/>
			</g>
			<g>
				<path d="M37.282,8.775c-0.081,0.201-0.182,0.385-0.303,0.55s-0.258,0.301-0.413,0.407c-0.154,0.105-0.33,0.159-0.528,0.159
					c-0.169,0-0.312-0.037-0.429-0.11c-0.117-0.074-0.209-0.172-0.275-0.293c-0.066-0.122-0.101-0.264-0.104-0.426
					c-0.003-0.162,0.024-0.328,0.083-0.497c0.117-0.316,0.229-0.632,0.335-0.945c0.106-0.313,0.2-0.628,0.281-0.944
					c0.051-0.214,0.088-0.418,0.11-0.613c0.022-0.195,0.011-0.378-0.033-0.547c-0.073-0.25-0.227-0.375-0.462-0.375
					c-0.381,0-0.706,0.132-0.973,0.398c-0.268,0.265-0.504,0.619-0.709,1.061l-0.737,2.94c-0.029,0.117-0.088,0.206-0.176,0.265
					c-0.088,0.06-0.176,0.089-0.264,0.089s-0.162-0.029-0.22-0.088c-0.059-0.06-0.073-0.147-0.044-0.265l1.617-6.467
					c0.029-0.118,0.047-0.208,0.055-0.27c0.007-0.063-0.008-0.108-0.044-0.138c-0.051-0.037-0.139-0.061-0.264-0.072
					c-0.125-0.011-0.264-0.016-0.418-0.016c-0.037,0-0.064-0.011-0.083-0.032c-0.019-0.021-0.021-0.05-0.005-0.086L33.3,2.372
					c0.022-0.064,0.073-0.104,0.154-0.118l1.397-0.118c0.037-0.007,0.066,0.001,0.088,0.027c0.022,0.025,0.026,0.057,0.011,0.093
					l-0.858,3.422c0.198-0.235,0.419-0.424,0.666-0.567c0.246-0.143,0.529-0.214,0.852-0.214c0.206,0,0.395,0.039,0.567,0.116
					c0.172,0.077,0.306,0.2,0.401,0.37C36.681,5.566,36.73,5.771,36.727,6c-0.004,0.228-0.035,0.456-0.093,0.684
					c-0.081,0.323-0.176,0.644-0.286,0.959c-0.11,0.316-0.224,0.636-0.341,0.96c-0.11,0.294-0.163,0.542-0.159,0.744
					c0.003,0.202,0.09,0.303,0.258,0.303c0.132,0,0.25-0.04,0.352-0.121c0.103-0.08,0.196-0.187,0.281-0.318
					c0.084-0.133,0.159-0.286,0.225-0.463c0.066-0.176,0.125-0.362,0.176-0.561c0.015-0.066,0.059-0.099,0.132-0.099h0.121
					c0.073,0,0.103,0.032,0.088,0.099C37.429,8.376,37.363,8.573,37.282,8.775z"/>
				<path d="M42.936,8.736c-0.052,0.198-0.121,0.382-0.209,0.55c-0.088,0.169-0.196,0.313-0.325,0.43s-0.288,0.176-0.479,0.176
					c-0.257,0-0.462-0.073-0.616-0.22c-0.154-0.147-0.25-0.334-0.286-0.562c-0.169,0.205-0.371,0.387-0.605,0.545
					c-0.235,0.157-0.48,0.236-0.737,0.236c-0.271,0-0.499-0.07-0.682-0.209c-0.184-0.14-0.327-0.316-0.429-0.529
					c-0.125-0.258-0.191-0.537-0.198-0.838C38.363,8.013,38.4,7.708,38.481,7.4c0.081-0.309,0.198-0.614,0.352-0.915
					c0.154-0.302,0.355-0.581,0.605-0.838c0.205-0.213,0.438-0.392,0.698-0.535c0.26-0.143,0.522-0.215,0.787-0.215
					c0.227,0,0.413,0.063,0.556,0.188s0.254,0.276,0.335,0.452l0.011-0.066c0.022-0.117,0.075-0.208,0.16-0.27
					s0.17-0.094,0.258-0.094c0.095,0,0.174,0.031,0.237,0.094c0.062,0.063,0.079,0.153,0.049,0.27l-0.77,3.109
					c-0.037,0.147-0.063,0.287-0.077,0.419c-0.015,0.133-0.015,0.246,0,0.342c0.014,0.096,0.045,0.171,0.093,0.226
					c0.048,0.056,0.116,0.083,0.204,0.083s0.168-0.036,0.242-0.11c0.073-0.073,0.14-0.176,0.198-0.308s0.114-0.286,0.165-0.462
					s0.103-0.37,0.154-0.583c0.015-0.066,0.059-0.099,0.132-0.099h0.121c0.073,0,0.103,0.032,0.088,0.099
					C43.035,8.355,42.987,8.538,42.936,8.736z M41.61,5.985c-0.011-0.07-0.027-0.142-0.049-0.216
					c-0.059-0.177-0.145-0.326-0.259-0.448s-0.258-0.182-0.435-0.182c-0.161,0-0.319,0.059-0.473,0.177
					c-0.154,0.118-0.293,0.265-0.418,0.442c-0.176,0.25-0.308,0.512-0.396,0.785c-0.088,0.273-0.169,0.556-0.242,0.851
					c-0.073,0.287-0.134,0.569-0.182,0.846c-0.047,0.276-0.046,0.536,0.006,0.779c0.037,0.177,0.101,0.326,0.192,0.447
					c0.091,0.122,0.222,0.183,0.391,0.183c0.176,0,0.35-0.063,0.522-0.188c0.172-0.126,0.332-0.276,0.479-0.453
					c0.059-0.074,0.113-0.145,0.165-0.21c0.051-0.066,0.099-0.141,0.143-0.222L41.649,6.2C41.634,6.126,41.622,6.055,41.61,5.985z"
					/>
				<path d="M47.336,6.338c-0.096,0.066-0.191,0.099-0.286,0.099c-0.088,0-0.164-0.033-0.226-0.099
					c-0.063-0.066-0.079-0.161-0.049-0.286c0.029-0.11,0.084-0.196,0.165-0.259c0.081-0.062,0.165-0.101,0.253-0.115
					c-0.037-0.162-0.132-0.292-0.286-0.391s-0.337-0.148-0.55-0.148c-0.125,0-0.246,0.015-0.363,0.044
					c-0.117,0.03-0.228,0.085-0.33,0.166c-0.095,0.074-0.172,0.162-0.231,0.265s-0.103,0.214-0.132,0.332
					c-0.051,0.191-0.031,0.361,0.061,0.508c0.091,0.147,0.229,0.24,0.413,0.276l0.539,0.122c0.169,0.037,0.321,0.102,0.457,0.193
					s0.246,0.204,0.33,0.337s0.139,0.282,0.165,0.447c0.026,0.166,0.016,0.341-0.027,0.525c-0.059,0.206-0.147,0.411-0.264,0.613
					s-0.271,0.378-0.462,0.524c-0.213,0.155-0.435,0.261-0.666,0.315c-0.231,0.056-0.453,0.083-0.666,0.083
					c-0.213,0-0.411-0.029-0.594-0.088c-0.184-0.059-0.341-0.145-0.473-0.259c-0.132-0.113-0.226-0.251-0.281-0.412
					c-0.055-0.161-0.057-0.345-0.005-0.551c0.037-0.146,0.11-0.256,0.22-0.329c0.11-0.073,0.22-0.11,0.33-0.11
					c0.11,0,0.203,0.037,0.28,0.11s0.097,0.183,0.061,0.329c-0.037,0.147-0.11,0.257-0.22,0.33c-0.11,0.074-0.22,0.114-0.33,0.121
					c0.059,0.191,0.186,0.341,0.38,0.451c0.194,0.11,0.423,0.165,0.688,0.165c0.161,0,0.321-0.019,0.479-0.055
					c0.157-0.037,0.302-0.106,0.435-0.21c0.125-0.088,0.227-0.196,0.308-0.325s0.139-0.267,0.176-0.413
					c0.059-0.235,0.025-0.439-0.099-0.612c-0.125-0.173-0.304-0.288-0.539-0.347l-0.539-0.122c-0.301-0.065-0.522-0.22-0.666-0.463
					c-0.143-0.242-0.174-0.529-0.093-0.86c0.044-0.176,0.115-0.353,0.214-0.529c0.099-0.176,0.233-0.331,0.401-0.463
					c0.169-0.132,0.35-0.224,0.545-0.276c0.194-0.051,0.383-0.077,0.566-0.077c0.176,0,0.341,0.026,0.495,0.079
					c0.154,0.052,0.284,0.129,0.391,0.231c0.105,0.101,0.18,0.224,0.22,0.367c0.04,0.143,0.038,0.302-0.006,0.479
					C47.493,6.177,47.431,6.272,47.336,6.338z"/>
			</g>
			<g>
				<path d="M53.063,8.775c-0.081,0.201-0.182,0.385-0.303,0.55s-0.259,0.301-0.412,0.407c-0.154,0.105-0.33,0.159-0.528,0.159
					c-0.169,0-0.312-0.037-0.429-0.11c-0.117-0.074-0.209-0.172-0.275-0.293c-0.065-0.122-0.101-0.264-0.104-0.426
					s0.023-0.328,0.083-0.497c0.117-0.316,0.229-0.632,0.335-0.945c0.106-0.313,0.2-0.628,0.28-0.944
					c0.052-0.214,0.089-0.418,0.11-0.613c0.022-0.195,0.011-0.378-0.033-0.547c-0.073-0.25-0.228-0.375-0.462-0.375
					c-0.381,0-0.706,0.132-0.974,0.398c-0.268,0.265-0.504,0.619-0.709,1.061l-0.737,2.94c-0.029,0.117-0.088,0.206-0.176,0.265
					c-0.088,0.06-0.176,0.089-0.264,0.089c-0.089,0-0.162-0.029-0.221-0.088c-0.059-0.06-0.073-0.147-0.044-0.265l1.617-6.467
					c0.029-0.118,0.048-0.208,0.055-0.27c0.008-0.063-0.007-0.108-0.044-0.138c-0.051-0.037-0.139-0.061-0.264-0.072
					c-0.125-0.011-0.264-0.016-0.418-0.016c-0.037,0-0.064-0.011-0.083-0.032c-0.018-0.021-0.02-0.05-0.005-0.086l0.021-0.086
					c0.022-0.064,0.073-0.104,0.154-0.118l1.397-0.118c0.036-0.007,0.065,0.001,0.088,0.027c0.021,0.025,0.025,0.057,0.011,0.093
					l-0.858,3.422c0.198-0.235,0.42-0.424,0.666-0.567c0.245-0.143,0.529-0.214,0.853-0.214c0.205,0,0.394,0.039,0.566,0.116
					c0.172,0.077,0.306,0.2,0.401,0.37C52.462,5.566,52.512,5.771,52.508,6s-0.035,0.456-0.094,0.684
					c-0.08,0.323-0.176,0.644-0.286,0.959c-0.109,0.316-0.224,0.636-0.341,0.96c-0.109,0.294-0.163,0.542-0.159,0.744
					s0.09,0.303,0.259,0.303c0.132,0,0.249-0.04,0.352-0.121c0.103-0.08,0.196-0.187,0.28-0.318c0.085-0.133,0.16-0.286,0.226-0.463
					c0.066-0.176,0.125-0.362,0.176-0.561c0.015-0.066,0.059-0.099,0.133-0.099h0.121c0.072,0,0.103,0.032,0.088,0.099
					C53.21,8.376,53.144,8.573,53.063,8.775z"/>
				<path d="M60.202,8.775c-0.081,0.201-0.18,0.385-0.297,0.55s-0.253,0.301-0.407,0.407c-0.154,0.105-0.33,0.159-0.528,0.159
					c-0.169,0-0.313-0.037-0.435-0.11c-0.121-0.074-0.214-0.172-0.28-0.293c-0.065-0.122-0.101-0.264-0.104-0.426
					s0.027-0.328,0.094-0.497l0.869-2.376c0.109-0.302,0.165-0.553,0.165-0.751s-0.085-0.298-0.253-0.298
					c-0.133,0-0.25,0.039-0.353,0.115c-0.103,0.077-0.196,0.182-0.28,0.313C58.309,5.7,58.233,5.854,58.167,6.03
					c-0.066,0.176-0.121,0.363-0.165,0.561c-0.029,0.074-0.077,0.11-0.143,0.11h-0.121c-0.066,0-0.092-0.037-0.077-0.11
					c0.044-0.19,0.108-0.387,0.192-0.588s0.186-0.385,0.303-0.55s0.253-0.299,0.407-0.402c0.153-0.103,0.329-0.154,0.527-0.154
					c0.169,0,0.312,0.037,0.43,0.11c0.117,0.074,0.207,0.173,0.269,0.298c0.063,0.125,0.096,0.266,0.1,0.424
					s-0.024,0.321-0.083,0.491l-0.868,2.382c-0.104,0.294-0.156,0.542-0.16,0.744s0.079,0.303,0.248,0.303
					c0.132,0,0.251-0.04,0.357-0.121c0.105-0.08,0.201-0.187,0.286-0.318c0.084-0.133,0.157-0.286,0.22-0.463
					c0.063-0.176,0.119-0.362,0.17-0.561c0.015-0.066,0.059-0.099,0.133-0.099h0.121c0.028,0,0.053,0.009,0.071,0.027
					c0.018,0.019,0.02,0.042,0.005,0.071C60.345,8.376,60.282,8.573,60.202,8.775z M60.119,3.296
					c-0.106,0.084-0.222,0.126-0.346,0.126c-0.125,0-0.221-0.042-0.286-0.126c-0.066-0.084-0.081-0.188-0.044-0.313
					c0.029-0.125,0.097-0.229,0.203-0.313c0.106-0.084,0.222-0.126,0.347-0.126c0.124,0,0.22,0.042,0.286,0.126
					c0.065,0.084,0.08,0.189,0.044,0.313C60.294,3.108,60.226,3.212,60.119,3.296z"/>
			</g>
			<g>
				<path d="M64.791,8.582c-0.081,0.301-0.11,0.555-0.088,0.76c0.021,0.205,0.124,0.308,0.308,0.308c0.088,0,0.169-0.036,0.242-0.11
					c0.073-0.073,0.139-0.176,0.197-0.308s0.114-0.286,0.165-0.462c0.052-0.176,0.103-0.37,0.154-0.583
					c0.015-0.066,0.059-0.099,0.132-0.099h0.121c0.073,0,0.103,0.032,0.088,0.099c-0.044,0.169-0.092,0.352-0.143,0.55
					c-0.052,0.198-0.121,0.382-0.209,0.55c-0.088,0.169-0.196,0.313-0.324,0.43c-0.129,0.117-0.288,0.176-0.479,0.176
					c-0.257,0-0.463-0.073-0.616-0.22c-0.154-0.147-0.25-0.334-0.286-0.562c-0.169,0.205-0.37,0.387-0.605,0.545
					c-0.234,0.157-0.48,0.236-0.736,0.236c-0.271,0-0.499-0.07-0.683-0.209c-0.183-0.14-0.326-0.316-0.429-0.529
					c-0.125-0.258-0.19-0.537-0.198-0.838c-0.007-0.302,0.029-0.606,0.11-0.915c0.08-0.309,0.198-0.614,0.352-0.915
					c0.154-0.302,0.356-0.581,0.605-0.838c0.205-0.213,0.438-0.392,0.698-0.535c0.261-0.143,0.522-0.215,0.787-0.215
					c0.227,0,0.412,0.063,0.555,0.187c0.144,0.125,0.255,0.275,0.336,0.451l0.616-2.438c0.029-0.116,0.046-0.204,0.049-0.266
					c0.004-0.062-0.013-0.107-0.049-0.136c-0.044-0.036-0.129-0.06-0.253-0.07c-0.125-0.011-0.265-0.017-0.418-0.017
					c-0.081,0-0.114-0.042-0.1-0.127l0.033-0.092c0.015-0.069,0.063-0.112,0.143-0.127l1.023-0.093l0.385-0.033
					c0.037-0.007,0.064,0.001,0.083,0.027c0.018,0.026,0.023,0.057,0.017,0.093L64.791,8.582z M64.643,5.985
					c-0.012-0.07-0.028-0.142-0.05-0.216c-0.059-0.177-0.146-0.326-0.259-0.448s-0.259-0.182-0.435-0.182
					c-0.161,0-0.318,0.059-0.473,0.177c-0.154,0.118-0.294,0.265-0.418,0.442c-0.176,0.25-0.309,0.512-0.396,0.785
					c-0.088,0.273-0.168,0.556-0.241,0.851c-0.074,0.287-0.135,0.569-0.182,0.846c-0.048,0.276-0.046,0.536,0.005,0.779
					c0.037,0.177,0.101,0.326,0.192,0.447c0.092,0.122,0.222,0.183,0.391,0.183c0.177,0,0.351-0.063,0.522-0.188
					c0.173-0.126,0.332-0.276,0.479-0.453c0.059-0.074,0.114-0.145,0.165-0.21c0.052-0.066,0.1-0.141,0.144-0.222L64.681,6.2
					C64.666,6.126,64.653,6.055,64.643,5.985z"/>
				<path d="M85.603,9.664C85.58,9.735,85.529,9.77,85.448,9.77h-5.016c-0.037,0-0.064-0.011-0.083-0.032s-0.021-0.05-0.005-0.085
					l0.021-0.085c0.008-0.035,0.025-0.065,0.055-0.091c0.029-0.024,0.063-0.037,0.1-0.037c0.169,0,0.328-0.002,0.479-0.006
					c0.15-0.003,0.266-0.023,0.347-0.061c0.08-0.044,0.143-0.153,0.187-0.329l1.519-6.05c0.044-0.176,0.032-0.282-0.033-0.319
					c-0.059-0.037-0.163-0.059-0.313-0.066s-0.311-0.011-0.479-0.011c-0.037,0-0.064-0.011-0.083-0.033s-0.02-0.051-0.005-0.088
					l0.021-0.088c0.029-0.081,0.081-0.121,0.154-0.121c0.491,0.022,0.984,0.031,1.479,0.027c0.495-0.003,0.995-0.013,1.501-0.027
					c0.037,0,0.064,0.011,0.083,0.033c0.019,0.022,0.021,0.052,0.006,0.088L85.36,2.477c-0.008,0.037-0.025,0.066-0.055,0.088
					s-0.063,0.033-0.1,0.033c-0.197,0-0.397,0.003-0.6,0.011c-0.201,0.007-0.354,0.029-0.456,0.066
					c-0.103,0.044-0.176,0.15-0.22,0.319l-1.507,6.05c-0.052,0.19-0.066,0.308-0.045,0.352c0.029,0.029,0.144,0.044,0.342,0.044
					h0.945c0.257,0,0.516-0.038,0.775-0.115c0.261-0.077,0.497-0.207,0.71-0.391c0.257-0.213,0.462-0.487,0.616-0.825
					c0.153-0.337,0.297-0.686,0.429-1.045c0.022-0.073,0.069-0.11,0.144-0.11h0.099c0.073,0,0.103,0.041,0.088,0.121L85.603,9.664z"
					/>
			</g>
			<g>
				<path d="M67.85,12.968c-0.047,0.117-0.104,0.224-0.172,0.319c-0.068,0.096-0.147,0.174-0.236,0.235s-0.191,0.093-0.306,0.093
					c-0.099,0-0.182-0.021-0.252-0.064c-0.07-0.042-0.124-0.099-0.163-0.17c-0.038-0.07-0.059-0.152-0.061-0.246
					s0.017-0.19,0.055-0.288l0.504-1.377c0.063-0.175,0.095-0.32,0.095-0.436s-0.049-0.173-0.146-0.173
					c-0.076,0-0.145,0.022-0.204,0.066c-0.06,0.045-0.113,0.105-0.162,0.182c-0.049,0.077-0.093,0.166-0.131,0.268
					c-0.038,0.103-0.07,0.211-0.096,0.325c-0.017,0.043-0.045,0.064-0.083,0.064h-0.069c-0.039,0-0.054-0.021-0.045-0.064
					c0.025-0.11,0.063-0.224,0.111-0.341c0.049-0.116,0.107-0.223,0.176-0.318c0.067-0.096,0.146-0.174,0.235-0.233
					c0.09-0.059,0.191-0.089,0.306-0.089c0.099,0,0.181,0.021,0.249,0.064c0.068,0.042,0.12,0.1,0.156,0.172
					s0.055,0.154,0.058,0.246c0.002,0.092-0.014,0.187-0.048,0.284l-0.504,1.381c-0.06,0.17-0.09,0.313-0.093,0.431
					c-0.002,0.117,0.046,0.176,0.144,0.176c0.077,0,0.146-0.023,0.207-0.07c0.062-0.046,0.117-0.108,0.166-0.185
					s0.092-0.166,0.128-0.268c0.036-0.103,0.068-0.211,0.099-0.325c0.009-0.038,0.034-0.058,0.076-0.058h0.07
					c0.017,0,0.031,0.006,0.042,0.017c0.01,0.01,0.011,0.024,0.003,0.041C67.933,12.738,67.896,12.852,67.85,12.968z M67.802,9.793
					c-0.062,0.049-0.129,0.073-0.201,0.073s-0.127-0.024-0.166-0.073c-0.038-0.049-0.046-0.109-0.025-0.182
					c0.018-0.072,0.057-0.133,0.118-0.182s0.129-0.073,0.201-0.073s0.127,0.024,0.165,0.073c0.039,0.049,0.047,0.109,0.026,0.182
					C67.902,9.684,67.863,9.745,67.802,9.793z"/>
				<path d="M88.007,12.968c-0.047,0.117-0.104,0.224-0.172,0.319c-0.068,0.096-0.147,0.174-0.236,0.235s-0.191,0.093-0.306,0.093
					c-0.099,0-0.182-0.021-0.252-0.064c-0.07-0.042-0.124-0.099-0.163-0.17c-0.038-0.07-0.059-0.152-0.061-0.246
					s0.017-0.19,0.055-0.288l0.504-1.377c0.063-0.175,0.095-0.32,0.095-0.436s-0.049-0.173-0.146-0.173
					c-0.076,0-0.145,0.022-0.204,0.066c-0.06,0.045-0.113,0.105-0.162,0.182c-0.049,0.077-0.093,0.166-0.131,0.268
					c-0.038,0.103-0.07,0.211-0.096,0.325c-0.017,0.043-0.045,0.064-0.083,0.064h-0.069c-0.039,0-0.054-0.021-0.045-0.064
					c0.025-0.11,0.063-0.224,0.111-0.341c0.049-0.116,0.107-0.223,0.176-0.318c0.067-0.096,0.146-0.174,0.235-0.233
					c0.09-0.059,0.191-0.089,0.306-0.089c0.099,0,0.181,0.021,0.249,0.064c0.068,0.042,0.12,0.1,0.156,0.172
					s0.055,0.154,0.058,0.246c0.002,0.092-0.014,0.187-0.048,0.284l-0.504,1.381c-0.06,0.17-0.09,0.313-0.093,0.431
					c-0.002,0.117,0.046,0.176,0.144,0.176c0.077,0,0.146-0.023,0.207-0.07c0.062-0.046,0.117-0.108,0.166-0.185
					s0.092-0.166,0.128-0.268c0.036-0.103,0.068-0.211,0.099-0.325c0.009-0.038,0.034-0.058,0.076-0.058h0.07
					c0.017,0,0.031,0.006,0.042,0.017c0.01,0.01,0.011,0.024,0.003,0.041C88.09,12.738,88.054,12.852,88.007,12.968z M87.959,9.793
					c-0.062,0.049-0.129,0.073-0.201,0.073s-0.127-0.024-0.166-0.073c-0.038-0.049-0.046-0.109-0.025-0.182
					c0.018-0.072,0.057-0.133,0.118-0.182s0.129-0.073,0.201-0.073s0.127,0.024,0.165,0.073c0.039,0.049,0.047,0.109,0.026,0.182
					C88.06,9.684,88.021,9.745,87.959,9.793z"/>
			</g>
			<g>
				<path d="M19.628,7.24c0.539,0.407,1.067,0.935,1.199,1.617c0,0.044-0.033,0.088-0.088,0.11l-0.033,0.011h-0.099
					c-0.044,0-0.099-0.033-0.11-0.077c-0.308-0.803-0.935-1.441-1.727-1.771c-0.022-0.011-0.044-0.033-0.066-0.065
					c-0.011-0.022-0.011-0.056,0-0.088c0.011-0.033,0.044-0.056,0.066-0.066c0.792-0.33,1.419-0.968,1.727-1.771
					c0.011-0.044,0.055-0.077,0.11-0.077h0.099l0.033,0.011c0.055,0.022,0.088,0.066,0.088,0.11c-0.132,0.693-0.66,1.21-1.199,1.617
					h8.604c0.297,0,0.297,0.44,0,0.44H19.628z"/>
			</g>
			<g>
				<path d="M56.74,12.487c-0.022,0.022-0.048,0.033-0.077,0.033c-0.052,0-0.084-0.008-0.099-0.022
					c-0.418-0.322-0.775-0.69-1.073-1.105c-0.297-0.414-0.54-0.857-0.731-1.331c-0.19-0.473-0.332-0.968-0.423-1.484
					c-0.092-0.518-0.138-1.036-0.138-1.557s0.046-1.04,0.138-1.557c0.091-0.517,0.232-1.012,0.423-1.485
					c0.191-0.473,0.435-0.917,0.731-1.331c0.298-0.414,0.655-0.783,1.073-1.105c0.015-0.015,0.047-0.022,0.099-0.022
					c0.029,0,0.055,0.011,0.077,0.033c0.015,0.029,0.021,0.055,0.021,0.077c0,0.029-0.011,0.055-0.032,0.077
					c-0.353,0.33-0.649,0.7-0.892,1.111c-0.242,0.411-0.438,0.845-0.588,1.304c-0.15,0.458-0.257,0.933-0.319,1.424
					c-0.063,0.492-0.094,0.983-0.094,1.474c0,0.499,0.031,0.992,0.094,1.479S55.1,9.46,55.25,9.918
					c0.149,0.458,0.346,0.893,0.588,1.304c0.242,0.41,0.539,0.781,0.892,1.111c0.021,0.021,0.032,0.047,0.032,0.076
					C56.762,12.432,56.755,12.458,56.74,12.487z"/>
				<path d="M73.262,12.454c-0.044,0.044-0.096,0.066-0.154,0.066s-0.109-0.022-0.153-0.066s-0.066-0.095-0.066-0.153V1.74
					c0-0.059,0.022-0.11,0.066-0.154s0.095-0.066,0.153-0.066s0.11,0.022,0.154,0.066s0.066,0.096,0.066,0.154V12.3
					C73.328,12.359,73.306,12.41,73.262,12.454z"/>
			</g>
			<g>
				<path d="M76.355,12.454c-0.044,0.044-0.096,0.066-0.154,0.066s-0.109-0.022-0.153-0.066s-0.066-0.095-0.066-0.153V1.74
					c0-0.059,0.022-0.11,0.066-0.154s0.095-0.066,0.153-0.066s0.11,0.022,0.154,0.066s0.066,0.096,0.066,0.154V12.3
					C76.422,12.359,76.399,12.41,76.355,12.454z"/>
				<path d="M92.223,8.577c-0.091,0.517-0.232,1.012-0.423,1.484c-0.191,0.474-0.435,0.917-0.731,1.331
					c-0.297,0.415-0.654,0.783-1.072,1.105c-0.03,0.015-0.052,0.022-0.066,0.022h-0.033c-0.029,0-0.055-0.011-0.077-0.033
					c-0.015-0.029-0.021-0.055-0.021-0.077c0-0.029,0.011-0.055,0.033-0.076c0.352-0.33,0.648-0.701,0.891-1.111
					c0.242-0.411,0.438-0.846,0.589-1.304C91.46,9.46,91.566,8.987,91.629,8.5s0.094-0.98,0.094-1.479
					c0-0.491-0.031-0.982-0.094-1.474c-0.063-0.491-0.169-0.966-0.318-1.424c-0.15-0.458-0.347-0.893-0.589-1.304
					c-0.242-0.411-0.539-0.781-0.891-1.111c-0.022-0.022-0.033-0.048-0.033-0.077c0-0.037,0.007-0.062,0.021-0.077
					c0.022-0.022,0.048-0.033,0.077-0.033h0.033c0.015,0,0.036,0.007,0.066,0.022c0.418,0.323,0.775,0.691,1.072,1.105
					c0.297,0.415,0.54,0.858,0.731,1.331c0.19,0.473,0.332,0.968,0.423,1.485C92.314,5.98,92.36,6.5,92.36,7.02
					S92.314,8.059,92.223,8.577z"/>
			</g>
		</g>
	</g>
</g>
</svg>
