<?xml version="1.0" encoding="utf-8"?>
<!-- Generator: Adobe Illustrator 14.0.0, SVG Export Plug-In . SVG Version: 6.00 Build 43363)  -->
<!DOCTYPE svg PUBLIC "-//W3C//DTD SVG 1.1//EN" "http://www.w3.org/Graphics/SVG/1.1/DTD/svg11.dtd">
<svg version="1.1" xmlns="http://www.w3.org/2000/svg" xmlns:xlink="http://www.w3.org/1999/xlink" x="0px" y="0px" width="29.54px"
	 height="13.179px" viewBox="0 0 29.54 13.179" style="enable-background:new 0 0 29.54 13.179;" xml:space="preserve">
<g id="Layer_1">
</g>
<g id="Layer_2">
	<g id="theGroup">
		<g>
			<g>
				<path d="M6.309,9.351c-0.081,0.201-0.181,0.385-0.302,0.55s-0.258,0.301-0.413,0.407c-0.154,0.105-0.33,0.159-0.528,0.159
					c-0.169,0-0.313-0.037-0.435-0.11c-0.121-0.074-0.213-0.172-0.275-0.293C4.294,9.942,4.259,9.8,4.252,9.638
					C4.245,9.476,4.274,9.31,4.34,9.141c0.117-0.316,0.229-0.632,0.335-0.945c0.106-0.313,0.2-0.628,0.28-0.944
					c0.051-0.214,0.088-0.418,0.11-0.613S5.077,6.26,5.033,6.091C4.959,5.84,4.805,5.715,4.571,5.715
					c-0.381,0-0.706,0.133-0.974,0.397C3.33,6.378,3.093,6.732,2.888,7.174l-0.737,2.939c-0.029,0.117-0.088,0.206-0.176,0.265
					c-0.088,0.06-0.176,0.089-0.264,0.089s-0.16-0.029-0.215-0.089c-0.055-0.059-0.068-0.147-0.038-0.265l0.825-3.338
					c0.073-0.294,0.101-0.545,0.083-0.751c-0.019-0.206-0.119-0.31-0.302-0.31c-0.184,0-0.33,0.138-0.44,0.412
					c-0.11,0.275-0.217,0.622-0.319,1.04C1.274,7.241,1.227,7.277,1.161,7.277H1.04c-0.066,0-0.092-0.036-0.077-0.109
					c0.044-0.161,0.091-0.341,0.143-0.539C1.157,6.43,1.227,6.245,1.315,6.073c0.088-0.172,0.196-0.315,0.324-0.429
					C1.768,5.53,1.927,5.473,2.118,5.473c0.279,0,0.497,0.084,0.655,0.253C2.93,5.895,3.016,6.108,3.031,6.364
					c0.205-0.271,0.438-0.487,0.699-0.648c0.26-0.161,0.563-0.242,0.907-0.242c0.205,0,0.394,0.039,0.566,0.116
					s0.306,0.2,0.402,0.369c0.103,0.184,0.152,0.39,0.148,0.617C5.75,6.803,5.718,7.032,5.66,7.259
					c-0.081,0.323-0.174,0.644-0.28,0.959c-0.106,0.316-0.218,0.636-0.335,0.96c-0.11,0.294-0.165,0.544-0.165,0.749
					c0,0.199,0.084,0.298,0.253,0.298c0.132,0,0.251-0.04,0.357-0.121c0.106-0.08,0.202-0.187,0.286-0.318
					C5.859,9.653,5.935,9.5,6.001,9.323C6.067,9.147,6.122,8.96,6.166,8.762c0.029-0.066,0.073-0.099,0.132-0.099H6.43
					c0.066,0,0.092,0.032,0.077,0.099C6.456,8.953,6.39,9.149,6.309,9.351z"/>
			</g>
			<g>
				<path d="M29.35,3.26c-0.064,0.042-0.128,0.064-0.191,0.064c-0.064,0-0.118-0.021-0.163-0.064
					c-0.044-0.042-0.056-0.106-0.035-0.191C28.978,3,29.007,2.947,29.05,2.909c0.042-0.038,0.089-0.066,0.14-0.083
					c-0.085-0.063-0.206-0.096-0.363-0.096c-0.165,0-0.313,0.068-0.439,0.205c-0.128,0.137-0.242,0.32-0.345,0.551L27.59,5.28
					c-0.018,0.068-0.051,0.119-0.103,0.153c-0.051,0.034-0.102,0.052-0.152,0.052s-0.093-0.018-0.125-0.052
					c-0.031-0.034-0.039-0.085-0.021-0.153l0.478-1.934c0.043-0.171,0.059-0.316,0.048-0.436s-0.069-0.18-0.175-0.18
					c-0.106,0-0.191,0.08-0.255,0.239c-0.064,0.159-0.126,0.36-0.186,0.603c-0.017,0.042-0.045,0.063-0.083,0.063h-0.069
					c-0.039,0-0.054-0.021-0.045-0.063c0.025-0.094,0.053-0.198,0.083-0.313c0.029-0.115,0.069-0.222,0.121-0.322
					c0.051-0.1,0.113-0.183,0.188-0.249S27.46,2.59,27.57,2.59c0.149,0,0.269,0.044,0.36,0.131s0.146,0.199,0.163,0.334
					c0.102-0.14,0.215-0.252,0.341-0.338c0.125-0.085,0.269-0.127,0.43-0.127c0.081,0,0.163,0.008,0.246,0.024
					c0.083,0.017,0.155,0.043,0.217,0.08c0.062,0.037,0.107,0.086,0.137,0.148s0.034,0.137,0.013,0.226
					C29.455,3.154,29.413,3.217,29.35,3.26z"/>
			</g>
			<g>
				<path d="M17.532,6.749h-6.865c-0.121,0-0.22-0.099-0.22-0.22s0.099-0.22,0.22-0.22h6.865c0.121,0,0.22,0.099,0.22,0.22
					S17.653,6.749,17.532,6.749z M17.532,8.883h-6.865c-0.121,0-0.22-0.1-0.22-0.221s0.099-0.22,0.22-0.22h6.865
					c0.121,0,0.22,0.099,0.22,0.22S17.653,8.883,17.532,8.883z"/>
			</g>
			<g>
				<path d="M25.607,10.346h-4.07v-0.231c0-0.015,0.008-0.036,0.022-0.065l1.661-1.859c0.205-0.227,0.408-0.46,0.61-0.698
					c0.201-0.238,0.383-0.48,0.544-0.726c0.161-0.246,0.292-0.503,0.391-0.771c0.1-0.268,0.148-0.548,0.148-0.841
					c0-0.242-0.031-0.471-0.093-0.688c-0.063-0.216-0.154-0.407-0.275-0.572s-0.271-0.297-0.451-0.396
					C23.915,3.4,23.704,3.35,23.462,3.35c-0.352,0-0.663,0.108-0.935,0.325s-0.462,0.489-0.572,0.819
					c0.081-0.022,0.165-0.027,0.253-0.017c0.088,0.011,0.167,0.041,0.236,0.088c0.07,0.047,0.129,0.112,0.177,0.192
					c0.047,0.081,0.071,0.176,0.071,0.286c0,0.19-0.061,0.335-0.182,0.435c-0.121,0.099-0.255,0.148-0.401,0.148
					c-0.14,0-0.27-0.05-0.391-0.148c-0.121-0.1-0.182-0.244-0.182-0.435c0-0.279,0.053-0.543,0.159-0.792
					c0.105-0.249,0.25-0.465,0.432-0.649c0.183-0.183,0.398-0.328,0.646-0.435c0.248-0.106,0.511-0.159,0.788-0.159
					c0.343,0,0.658,0.053,0.946,0.159c0.288,0.106,0.534,0.257,0.739,0.451c0.204,0.194,0.362,0.422,0.476,0.682
					s0.17,0.544,0.17,0.853c0,0.352-0.077,0.672-0.231,0.962c-0.153,0.29-0.347,0.56-0.577,0.809
					c-0.231,0.249-0.477,0.484-0.737,0.704c-0.26,0.22-0.497,0.433-0.709,0.638L22.373,9.5h1.111c0.161,0,0.349,0,0.561,0
					c0.213,0,0.413-0.002,0.6-0.006c0.188-0.004,0.349-0.011,0.484-0.021c0.136-0.012,0.211-0.024,0.226-0.039
					c0.029-0.029,0.057-0.082,0.082-0.159c0.026-0.077,0.05-0.163,0.072-0.259c0.021-0.095,0.042-0.194,0.06-0.297
					c0.019-0.103,0.035-0.198,0.05-0.286h0.297L25.607,10.346z"/>
			</g>
		</g>
	</g>
</g>
</svg>
