<?xml version="1.0" encoding="utf-8"?>
<!-- Generator: Adobe Illustrator 14.0.0, SVG Export Plug-In . SVG Version: 6.00 Build 43363)  -->
<!DOCTYPE svg PUBLIC "-//W3C//DTD SVG 1.1//EN" "http://www.w3.org/Graphics/SVG/1.1/DTD/svg11.dtd">
<svg version="1.1" xmlns="http://www.w3.org/2000/svg" xmlns:xlink="http://www.w3.org/1999/xlink" x="0px" y="0px"
	 width="502.633px" height="20.967px" viewBox="0 0 502.633 20.967" style="enable-background:new 0 0 502.633 20.967;"
	 xml:space="preserve">
<g id="Layer_1">
</g>
<g id="Layer_2">
	<g id="theGroup">
		<g>
			<g>
				<path d="M6.006,13.309c-0.052,0.198-0.121,0.382-0.209,0.55c-0.088,0.169-0.196,0.313-0.325,0.43s-0.288,0.176-0.479,0.176
					c-0.257,0-0.462-0.073-0.616-0.22c-0.154-0.147-0.25-0.334-0.286-0.562c-0.169,0.205-0.371,0.387-0.605,0.545
					c-0.235,0.157-0.48,0.236-0.737,0.236c-0.271,0-0.499-0.07-0.682-0.209c-0.184-0.14-0.327-0.316-0.429-0.529
					c-0.125-0.258-0.191-0.537-0.198-0.838c-0.008-0.302,0.029-0.607,0.11-0.916c0.081-0.309,0.198-0.613,0.352-0.914
					c0.154-0.302,0.355-0.581,0.605-0.838c0.205-0.213,0.438-0.392,0.698-0.535C3.467,9.542,3.729,9.47,3.993,9.47
					c0.227,0,0.413,0.063,0.556,0.188s0.254,0.276,0.335,0.452l0.011-0.066c0.022-0.117,0.075-0.208,0.16-0.27
					s0.17-0.094,0.258-0.094c0.095,0,0.174,0.031,0.237,0.094c0.062,0.063,0.079,0.153,0.049,0.27l-0.77,3.109
					c-0.037,0.147-0.063,0.287-0.077,0.419c-0.015,0.133-0.015,0.246,0,0.342c0.014,0.096,0.045,0.171,0.093,0.226
					c0.048,0.056,0.116,0.083,0.204,0.083s0.168-0.036,0.242-0.11c0.073-0.073,0.14-0.176,0.198-0.308s0.114-0.286,0.165-0.462
					s0.103-0.37,0.154-0.583c0.015-0.066,0.059-0.099,0.132-0.099h0.121c0.073,0,0.103,0.032,0.088,0.099
					C6.105,12.928,6.058,13.11,6.006,13.309z M4.681,10.558c-0.011-0.07-0.027-0.142-0.049-0.216
					c-0.059-0.177-0.145-0.326-0.259-0.448S4.114,9.712,3.938,9.712c-0.161,0-0.319,0.059-0.473,0.177
					c-0.154,0.118-0.293,0.265-0.418,0.442c-0.176,0.25-0.308,0.512-0.396,0.785c-0.088,0.271-0.169,0.556-0.242,0.851
					c-0.073,0.287-0.134,0.569-0.182,0.846c-0.047,0.276-0.046,0.536,0.006,0.779c0.037,0.177,0.101,0.326,0.192,0.447
					c0.091,0.122,0.222,0.183,0.391,0.183c0.176,0,0.35-0.063,0.522-0.188c0.172-0.126,0.332-0.276,0.479-0.453
					c0.059-0.074,0.113-0.145,0.165-0.21c0.051-0.066,0.099-0.141,0.143-0.222l0.594-2.377C4.705,10.699,4.692,10.627,4.681,10.558z
					"/>
				<path d="M7.777,13.154C7.74,13.302,7.715,13.44,7.7,13.573c-0.015,0.132-0.015,0.245,0,0.341
					c0.015,0.095,0.045,0.17,0.093,0.226c0.048,0.055,0.119,0.082,0.214,0.082c0.088,0,0.165-0.036,0.231-0.11
					c0.066-0.073,0.128-0.176,0.187-0.308c0.059-0.132,0.114-0.286,0.165-0.462s0.103-0.366,0.154-0.572
					c0.015-0.073,0.059-0.109,0.132-0.109h0.121c0.066,0,0.092,0.032,0.077,0.099C9.038,12.92,8.993,13.1,8.938,13.298
					s-0.125,0.383-0.209,0.556c-0.084,0.172-0.191,0.317-0.319,0.435c-0.128,0.117-0.285,0.176-0.468,0.176
					c-0.176,0-0.328-0.035-0.457-0.104c-0.128-0.07-0.231-0.165-0.308-0.286c-0.077-0.122-0.125-0.261-0.143-0.419
					c-0.019-0.158-0.006-0.325,0.039-0.501l1.375-5.509c0.029-0.118,0.047-0.208,0.055-0.27S8.496,7.266,8.459,7.237
					C8.408,7.2,8.32,7.176,8.195,7.165C8.07,7.154,7.931,7.149,7.777,7.149c-0.037,0-0.064-0.011-0.083-0.032
					c-0.018-0.021-0.02-0.05-0.005-0.086l0.022-0.086c0.007-0.036,0.026-0.063,0.055-0.081c0.029-0.018,0.062-0.03,0.099-0.038
					l1.397-0.118C9.357,6.694,9.39,6.734,9.361,6.83L7.777,13.154z"/>
			</g>
			<g>
				<path d="M13.808,13.243c-0.279,0.396-0.633,0.698-1.062,0.907c-0.429,0.209-0.86,0.313-1.292,0.313
					c-0.308,0-0.57-0.079-0.787-0.237s-0.387-0.354-0.512-0.59c-0.139-0.279-0.214-0.588-0.225-0.926
					c-0.011-0.338,0.027-0.684,0.115-1.036c0.073-0.287,0.194-0.564,0.363-0.832c0.168-0.269,0.381-0.509,0.638-0.723
					c0.242-0.206,0.508-0.366,0.797-0.479c0.29-0.114,0.574-0.171,0.853-0.171c0.169,0,0.326,0.029,0.473,0.088
					c0.146,0.059,0.268,0.14,0.363,0.243s0.162,0.226,0.198,0.369c0.037,0.144,0.033,0.299-0.011,0.469
					c-0.066,0.279-0.202,0.497-0.407,0.655c-0.206,0.158-0.444,0.274-0.715,0.348c-0.271,0.074-0.56,0.117-0.864,0.133
					c-0.304,0.015-0.592,0.021-0.863,0.021c-0.081,0.309-0.138,0.606-0.17,0.894c-0.033,0.286-0.017,0.559,0.049,0.815
					c0.059,0.206,0.15,0.377,0.275,0.513c0.125,0.137,0.286,0.204,0.484,0.204c0.389,0,0.768-0.103,1.139-0.308
					c0.37-0.205,0.676-0.484,0.918-0.836c0.022-0.037,0.051-0.059,0.088-0.066c0.037-0.007,0.066,0,0.088,0.022l0.077,0.088
					C13.848,13.151,13.844,13.191,13.808,13.243z M13.213,9.976C13.082,9.8,12.887,9.712,12.63,9.712
					c-0.191,0-0.381,0.049-0.572,0.148c-0.191,0.099-0.359,0.233-0.506,0.401c-0.168,0.184-0.299,0.383-0.39,0.6
					c-0.092,0.216-0.17,0.442-0.237,0.677c0.279,0,0.552-0.012,0.82-0.033c0.268-0.021,0.507-0.064,0.72-0.127
					s0.394-0.154,0.544-0.274c0.15-0.121,0.251-0.28,0.303-0.479C13.378,10.368,13.346,10.152,13.213,9.976z"/>
				<path d="M18.735,10.625c-0.11,0.073-0.22,0.11-0.33,0.11c-0.11,0-0.204-0.037-0.281-0.11c-0.077-0.073-0.097-0.184-0.061-0.33
					c0.029-0.117,0.081-0.209,0.154-0.275c0.073-0.066,0.154-0.113,0.242-0.143c-0.146-0.11-0.355-0.165-0.627-0.165
					c-0.286,0-0.539,0.118-0.759,0.354c-0.22,0.236-0.418,0.553-0.594,0.95l-0.781,3.095c-0.029,0.117-0.088,0.206-0.176,0.265
					c-0.088,0.06-0.176,0.089-0.264,0.089s-0.16-0.029-0.215-0.089c-0.055-0.059-0.068-0.147-0.038-0.265l0.825-3.338
					c0.073-0.294,0.101-0.545,0.083-0.751c-0.019-0.207-0.119-0.31-0.302-0.31c-0.184,0-0.33,0.137-0.44,0.413
					c-0.11,0.275-0.217,0.621-0.319,1.039c-0.029,0.074-0.077,0.111-0.143,0.111h-0.121c-0.066,0-0.092-0.037-0.077-0.111
					c0.044-0.16,0.091-0.34,0.143-0.538c0.051-0.198,0.121-0.383,0.209-0.556c0.088-0.172,0.196-0.315,0.324-0.429
					c0.128-0.113,0.288-0.17,0.479-0.17c0.257,0,0.464,0.075,0.622,0.226s0.251,0.343,0.281,0.578
					c0.176-0.242,0.372-0.437,0.588-0.583c0.216-0.147,0.464-0.22,0.742-0.22c0.14,0,0.281,0.014,0.424,0.042
					c0.143,0.028,0.268,0.074,0.374,0.138c0.106,0.063,0.185,0.148,0.236,0.255s0.059,0.236,0.022,0.391
					C18.918,10.441,18.845,10.552,18.735,10.625z"/>
			</g>
			<g>
				<path d="M22.292,9.822c-0.029,0.081-0.081,0.121-0.154,0.121h-1.045l-0.803,3.211c-0.081,0.301-0.11,0.555-0.088,0.76
					s0.125,0.308,0.308,0.308c0.146,0,0.284-0.04,0.413-0.121c0.128-0.08,0.248-0.188,0.357-0.324s0.209-0.292,0.297-0.468
					s0.168-0.363,0.242-0.561c0.007-0.029,0.023-0.052,0.049-0.066c0.025-0.015,0.049-0.021,0.071-0.021h0.132
					c0.029,0,0.051,0.011,0.066,0.032c0.015,0.022,0.018,0.044,0.011,0.066c-0.073,0.205-0.165,0.409-0.275,0.61
					c-0.11,0.202-0.236,0.384-0.379,0.545s-0.301,0.293-0.473,0.396s-0.361,0.154-0.566,0.154c-0.176,0-0.328-0.035-0.457-0.104
					s-0.231-0.165-0.308-0.286c-0.077-0.121-0.125-0.26-0.143-0.418c-0.019-0.157-0.006-0.324,0.038-0.501l0.803-3.211h-1.078
					c-0.073,0-0.103-0.041-0.088-0.121l0.022-0.088c0.029-0.081,0.081-0.121,0.154-0.121h1.067l0.451-1.804
					c0.029-0.117,0.088-0.205,0.176-0.264s0.176-0.088,0.264-0.088c0.088,0,0.162,0.03,0.22,0.088s0.073,0.146,0.044,0.264
					L21.17,9.613h1.056c0.073,0,0.103,0.041,0.088,0.121L22.292,9.822z"/>
				<path d="M46.602,9.217c-0.015,0.073-0.059,0.11-0.132,0.11c-0.015,0.007-0.033,0.009-0.055,0.005
					c-0.022-0.003-0.044-0.005-0.066-0.005c-0.074,0-0.103-0.029-0.088-0.088c0.059-0.345,0.079-0.66,0.061-0.946
					c-0.018-0.286-0.079-0.532-0.182-0.737c-0.103-0.205-0.253-0.365-0.451-0.479c-0.198-0.113-0.447-0.17-0.748-0.17
					c-0.176,0-0.354,0.039-0.534,0.115s-0.346,0.181-0.5,0.313c-0.168,0.146-0.306,0.309-0.413,0.488
					c-0.106,0.179-0.185,0.364-0.236,0.554c-0.081,0.329-0.064,0.629,0.05,0.899c0.113,0.271,0.313,0.446,0.599,0.527l1.232,0.351
					c0.22,0.066,0.407,0.17,0.561,0.313c0.154,0.143,0.27,0.31,0.347,0.504s0.121,0.407,0.132,0.642
					c0.011,0.234-0.016,0.475-0.083,0.724c-0.073,0.293-0.19,0.576-0.352,0.851c-0.161,0.274-0.363,0.521-0.605,0.74
					c-0.227,0.197-0.477,0.356-0.748,0.477c-0.271,0.121-0.543,0.182-0.814,0.182c-0.403,0-0.746-0.066-1.028-0.198
					s-0.504-0.319-0.666-0.561l-0.572,0.703c-0.037,0.037-0.074,0.056-0.11,0.056h-0.033c-0.081,0-0.106-0.033-0.077-0.1
					l0.627-2.519c0.015-0.073,0.059-0.11,0.132-0.11h0.121c0.029,0,0.053,0.012,0.072,0.033c0.018,0.021,0.02,0.048,0.005,0.077
					c-0.169,0.704-0.114,1.262,0.165,1.672c0.279,0.411,0.763,0.616,1.452,0.616c0.176,0,0.354-0.042,0.533-0.127
					c0.18-0.084,0.347-0.195,0.5-0.335c0.169-0.161,0.31-0.339,0.424-0.534c0.113-0.193,0.2-0.397,0.258-0.61
					c0.088-0.366,0.079-0.698-0.027-0.995c-0.106-0.297-0.313-0.49-0.622-0.578l-1.221-0.352c-0.212-0.059-0.394-0.154-0.544-0.286
					c-0.15-0.132-0.268-0.29-0.352-0.473s-0.134-0.383-0.148-0.6s0.007-0.442,0.066-0.676c0.073-0.279,0.191-0.546,0.352-0.803
					c0.161-0.256,0.359-0.484,0.594-0.682c0.227-0.19,0.475-0.343,0.742-0.457c0.268-0.113,0.534-0.17,0.798-0.17
					c0.359,0,0.654,0.068,0.885,0.204s0.409,0.321,0.534,0.556l0.572-0.704c0.022-0.037,0.055-0.055,0.099-0.055h0.044
					c0.066,0,0.092,0.04,0.077,0.118L46.602,9.217z"/>
			</g>
			<g>
				<path d="M51.609,12.898c-0.176,0.302-0.4,0.577-0.671,0.827c-0.242,0.22-0.508,0.398-0.797,0.534
					c-0.29,0.136-0.582,0.204-0.875,0.204c-0.301,0-0.563-0.068-0.787-0.204s-0.398-0.314-0.522-0.534
					c-0.147-0.25-0.233-0.525-0.259-0.827c-0.025-0.302,0.002-0.61,0.083-0.927c0.081-0.322,0.209-0.635,0.385-0.937
					c0.176-0.302,0.396-0.577,0.66-0.827c0.242-0.221,0.509-0.399,0.803-0.535c0.293-0.136,0.586-0.204,0.88-0.204
					s0.552,0.068,0.776,0.204c0.224,0.136,0.401,0.314,0.533,0.535c0.146,0.25,0.233,0.525,0.259,0.827
					c0.025,0.302-0.002,0.614-0.083,0.937C51.913,12.288,51.785,12.597,51.609,12.898z M50.943,9.889
					c-0.136-0.118-0.302-0.177-0.5-0.177c-0.191,0-0.383,0.059-0.578,0.177c-0.194,0.118-0.365,0.269-0.511,0.453
					c-0.198,0.236-0.349,0.492-0.451,0.769s-0.19,0.562-0.264,0.856c-0.074,0.287-0.128,0.569-0.165,0.846
					c-0.037,0.276-0.015,0.532,0.066,0.769c0.059,0.191,0.156,0.346,0.292,0.464s0.299,0.177,0.489,0.177
					c0.198,0,0.394-0.059,0.589-0.177c0.194-0.118,0.365-0.272,0.511-0.464c0.198-0.236,0.348-0.492,0.451-0.769
					c0.103-0.276,0.19-0.559,0.264-0.846c0.073-0.295,0.128-0.58,0.165-0.856s0.015-0.533-0.066-0.769
					C51.176,10.158,51.079,10.006,50.943,9.889z"/>
				<path d="M58.099,13.309c-0.051,0.198-0.121,0.382-0.209,0.55c-0.088,0.169-0.196,0.313-0.324,0.43
					c-0.128,0.117-0.288,0.176-0.479,0.176c-0.235,0-0.425-0.063-0.572-0.188c-0.146-0.124-0.246-0.285-0.297-0.483
					c-0.161,0.205-0.341,0.368-0.539,0.489c-0.198,0.121-0.425,0.182-0.682,0.182c-0.234,0-0.443-0.045-0.627-0.133
					c-0.183-0.088-0.326-0.225-0.429-0.409c-0.11-0.213-0.162-0.449-0.154-0.707s0.041-0.516,0.099-0.773
					c0.059-0.243,0.141-0.514,0.248-0.812c0.106-0.299,0.211-0.588,0.313-0.868c0.11-0.302,0.165-0.553,0.165-0.751
					s-0.084-0.298-0.253-0.298c-0.132,0-0.251,0.039-0.357,0.115c-0.106,0.077-0.202,0.182-0.286,0.313
					c-0.084,0.132-0.16,0.286-0.226,0.462s-0.121,0.363-0.165,0.561c-0.029,0.074-0.077,0.111-0.143,0.111h-0.121
					c-0.066,0-0.092-0.037-0.077-0.111c0.051-0.189,0.117-0.387,0.198-0.588c0.081-0.202,0.182-0.385,0.303-0.55
					s0.258-0.299,0.413-0.402c0.154-0.103,0.33-0.154,0.528-0.154c0.168,0,0.312,0.037,0.429,0.11
					c0.117,0.074,0.207,0.173,0.27,0.298c0.062,0.125,0.095,0.266,0.099,0.424c0.004,0.158-0.024,0.321-0.083,0.491
					c-0.103,0.279-0.205,0.565-0.308,0.86c-0.103,0.293-0.184,0.559-0.242,0.793c-0.059,0.235-0.101,0.467-0.126,0.695
					c-0.026,0.228-0.009,0.44,0.049,0.639c0.037,0.133,0.103,0.239,0.198,0.32c0.095,0.081,0.209,0.121,0.341,0.121
					c0.249,0,0.466-0.077,0.649-0.23c0.183-0.154,0.345-0.359,0.484-0.616c0.007-0.037,0.013-0.073,0.017-0.11
					c0.004-0.036,0.009-0.073,0.017-0.11l0.803-3.201c0.029-0.117,0.088-0.203,0.176-0.258s0.176-0.083,0.264-0.083
					c0.088,0,0.161,0.027,0.22,0.083s0.073,0.141,0.044,0.258l-0.803,3.201c-0.081,0.301-0.108,0.555-0.083,0.76
					c0.025,0.205,0.13,0.308,0.313,0.308c0.176,0,0.321-0.139,0.435-0.418c0.113-0.278,0.222-0.627,0.324-1.045
					c0.015-0.066,0.059-0.099,0.132-0.099h0.121c0.029,0,0.053,0.009,0.071,0.027c0.018,0.019,0.02,0.042,0.005,0.071
					C58.198,12.928,58.15,13.11,58.099,13.309z"/>
				<path d="M63.126,10.625c-0.11,0.073-0.22,0.11-0.33,0.11c-0.11,0-0.204-0.037-0.281-0.11c-0.077-0.073-0.097-0.184-0.061-0.33
					c0.029-0.117,0.081-0.209,0.154-0.275c0.073-0.066,0.154-0.113,0.242-0.143c-0.146-0.11-0.355-0.165-0.627-0.165
					c-0.286,0-0.539,0.118-0.759,0.354c-0.22,0.236-0.418,0.553-0.594,0.95L60.09,14.11c-0.029,0.117-0.088,0.206-0.176,0.265
					c-0.088,0.06-0.176,0.089-0.264,0.089s-0.16-0.029-0.215-0.089c-0.055-0.059-0.068-0.147-0.038-0.265l0.825-3.338
					c0.073-0.294,0.101-0.545,0.083-0.751c-0.019-0.207-0.119-0.31-0.302-0.31c-0.184,0-0.33,0.137-0.44,0.413
					c-0.11,0.275-0.217,0.621-0.319,1.039c-0.029,0.074-0.077,0.111-0.143,0.111h-0.121c-0.066,0-0.092-0.037-0.077-0.111
					c0.044-0.16,0.091-0.34,0.143-0.538c0.051-0.198,0.121-0.383,0.209-0.556c0.088-0.172,0.196-0.315,0.324-0.429
					c0.128-0.113,0.288-0.17,0.479-0.17c0.257,0,0.464,0.075,0.622,0.226s0.251,0.343,0.281,0.578
					c0.176-0.242,0.372-0.437,0.588-0.583c0.216-0.147,0.464-0.22,0.742-0.22c0.14,0,0.281,0.014,0.424,0.042
					c0.143,0.028,0.268,0.074,0.374,0.138c0.106,0.063,0.185,0.148,0.236,0.255s0.059,0.236,0.022,0.391
					C63.309,10.441,63.236,10.552,63.126,10.625z"/>
				<path d="M67.823,13.243c-0.279,0.396-0.633,0.698-1.062,0.907c-0.429,0.209-0.86,0.313-1.292,0.313
					c-0.301,0-0.563-0.068-0.787-0.204s-0.398-0.314-0.522-0.534c-0.147-0.25-0.233-0.525-0.259-0.827
					c-0.025-0.302,0.002-0.61,0.083-0.927c0.081-0.322,0.209-0.635,0.385-0.937c0.176-0.302,0.396-0.577,0.66-0.827
					c0.242-0.221,0.509-0.399,0.803-0.535c0.293-0.136,0.586-0.204,0.88-0.204c0.176,0,0.341,0.026,0.495,0.079
					c0.154,0.052,0.284,0.129,0.391,0.231c0.106,0.101,0.18,0.224,0.22,0.367c0.041,0.143,0.039,0.302-0.005,0.479
					c-0.037,0.146-0.11,0.259-0.22,0.335c-0.11,0.077-0.22,0.115-0.33,0.115c-0.11,0-0.202-0.038-0.275-0.115
					c-0.074-0.076-0.092-0.188-0.055-0.335c0.037-0.147,0.108-0.255,0.214-0.325s0.211-0.108,0.313-0.116
					c-0.059-0.146-0.159-0.262-0.302-0.346s-0.313-0.126-0.512-0.126c-0.191,0-0.383,0.059-0.578,0.177
					c-0.194,0.118-0.365,0.269-0.511,0.453c-0.198,0.236-0.349,0.492-0.451,0.769s-0.19,0.562-0.264,0.856
					c-0.074,0.287-0.128,0.569-0.165,0.846c-0.037,0.276-0.015,0.532,0.066,0.769c0.059,0.191,0.156,0.346,0.292,0.464
					s0.299,0.177,0.489,0.177c0.389,0,0.768-0.103,1.139-0.308c0.37-0.205,0.676-0.484,0.918-0.836
					c0.015-0.029,0.042-0.05,0.083-0.061c0.04-0.012,0.071-0.006,0.094,0.017l0.077,0.088
					C67.863,13.151,67.859,13.191,67.823,13.243z"/>
			</g>
			<g>
				<path d="M72.714,13.243c-0.279,0.396-0.633,0.698-1.062,0.907c-0.429,0.209-0.86,0.313-1.292,0.313
					c-0.308,0-0.57-0.079-0.787-0.237s-0.387-0.354-0.512-0.59c-0.139-0.279-0.214-0.588-0.225-0.926
					c-0.011-0.338,0.027-0.684,0.115-1.036c0.073-0.287,0.194-0.564,0.363-0.832c0.168-0.269,0.381-0.509,0.638-0.723
					c0.242-0.206,0.508-0.366,0.797-0.479c0.29-0.114,0.574-0.171,0.853-0.171c0.169,0,0.326,0.029,0.473,0.088
					c0.146,0.059,0.268,0.14,0.363,0.243s0.162,0.226,0.198,0.369c0.037,0.144,0.033,0.299-0.011,0.469
					c-0.066,0.279-0.202,0.497-0.407,0.655c-0.206,0.158-0.444,0.274-0.715,0.348c-0.271,0.074-0.56,0.117-0.864,0.133
					c-0.304,0.015-0.592,0.021-0.863,0.021c-0.081,0.309-0.138,0.606-0.17,0.894c-0.033,0.286-0.017,0.559,0.049,0.815
					c0.059,0.206,0.15,0.377,0.275,0.513c0.125,0.137,0.286,0.204,0.484,0.204c0.389,0,0.768-0.103,1.139-0.308
					c0.37-0.205,0.676-0.484,0.918-0.836c0.022-0.037,0.051-0.059,0.088-0.066c0.037-0.007,0.066,0,0.088,0.022l0.077,0.088
					C72.754,13.151,72.75,13.191,72.714,13.243z M72.12,9.976c-0.132-0.176-0.326-0.264-0.583-0.264
					c-0.191,0-0.381,0.049-0.572,0.148c-0.191,0.099-0.359,0.233-0.506,0.401c-0.168,0.184-0.299,0.383-0.39,0.6
					c-0.092,0.216-0.17,0.442-0.237,0.677c0.279,0,0.552-0.012,0.82-0.033c0.268-0.021,0.507-0.064,0.72-0.127
					s0.394-0.154,0.544-0.274c0.15-0.121,0.251-0.28,0.303-0.479C72.285,10.368,72.252,10.152,72.12,9.976z"/>
				<path d="M83.571,7.039c-0.007,0.037-0.026,0.066-0.055,0.088S83.454,7.16,83.417,7.16c-0.169,0-0.336,0.004-0.5,0.011
					c-0.165,0.007-0.288,0.029-0.369,0.066c-0.088,0.029-0.154,0.136-0.198,0.32l-1.507,6.06c-0.044,0.184-0.033,0.294,0.033,0.33
					c0.059,0.037,0.168,0.058,0.33,0.061c0.162,0.004,0.33,0.006,0.506,0.006c0.081,0,0.11,0.043,0.088,0.128l-0.022,0.085
					c-0.029,0.078-0.081,0.117-0.154,0.117c-0.924-0.044-1.866-0.044-2.827,0c-0.074,0-0.103-0.039-0.088-0.117l0.022-0.085
					c0.022-0.085,0.073-0.128,0.154-0.128c0.176,0,0.347-0.002,0.512-0.006c0.165-0.003,0.288-0.023,0.368-0.061
					c0.081-0.044,0.143-0.154,0.187-0.33l1.518-6.06c0.044-0.177,0.033-0.283-0.033-0.32c-0.066-0.037-0.18-0.059-0.341-0.066
					S80.77,7.16,80.601,7.16c-0.081,0-0.114-0.04-0.099-0.121l0.022-0.088c0.029-0.081,0.081-0.121,0.154-0.121
					c0.938,0.037,1.881,0.037,2.827,0c0.037,0,0.064,0.011,0.083,0.033c0.018,0.022,0.02,0.051,0.005,0.088L83.571,7.039z"/>
			</g>
			<g>
				<path d="M89.961,9.657c-0.187,0.242-0.409,0.451-0.666,0.627c-0.279,0.198-0.576,0.347-0.891,0.446
					c-0.315,0.099-0.627,0.148-0.935,0.148h-1.639l-0.682,2.737c-0.044,0.185-0.037,0.295,0.022,0.331
					c0.059,0.037,0.163,0.058,0.313,0.061c0.15,0.004,0.31,0.006,0.479,0.006c0.081,0,0.114,0.043,0.099,0.128l-0.022,0.085
					c-0.029,0.078-0.081,0.117-0.154,0.117c-0.902-0.044-1.808-0.044-2.717,0c-0.081,0-0.114-0.039-0.099-0.117l0.022-0.085
					c0.022-0.085,0.073-0.128,0.154-0.128c0.168,0,0.33-0.002,0.484-0.006c0.154-0.003,0.271-0.023,0.352-0.061
					c0.081-0.051,0.143-0.161,0.187-0.33l1.507-6.06c0.044-0.184,0.037-0.291-0.022-0.32C85.695,7.2,85.59,7.178,85.44,7.171
					S85.13,7.16,84.961,7.16c-0.081,0-0.114-0.04-0.099-0.121l0.033-0.088C84.91,6.87,84.958,6.83,85.039,6.83h3.443
					c0.308,0,0.594,0.05,0.858,0.149c0.264,0.099,0.491,0.247,0.682,0.445c0.168,0.183,0.284,0.401,0.347,0.654
					c0.062,0.253,0.057,0.519-0.017,0.798C90.278,9.155,90.148,9.415,89.961,9.657z M89.433,8.205
					c0.018-0.22-0.028-0.414-0.138-0.583c-0.125-0.168-0.29-0.288-0.495-0.357c-0.205-0.069-0.425-0.104-0.66-0.104h-1.012
					c-0.198,0-0.319,0.019-0.363,0.055s-0.088,0.15-0.132,0.341l-0.759,3.025h1.408c0.235,0,0.473-0.035,0.715-0.104
					c0.242-0.069,0.465-0.188,0.671-0.357C88.859,9.95,89,9.756,89.092,9.536c0.092-0.22,0.167-0.44,0.226-0.66
					C89.376,8.648,89.415,8.425,89.433,8.205z"/>
				<path d="M107.341,12.044c-0.261,0.447-0.589,0.854-0.985,1.221c-0.359,0.33-0.751,0.593-1.177,0.787s-0.851,0.291-1.276,0.291
					h-3.575c-0.081,0-0.114-0.039-0.099-0.117l0.022-0.085c0.022-0.085,0.073-0.128,0.154-0.128c0.168,0,0.33-0.002,0.484-0.006
					c0.154-0.003,0.271-0.023,0.352-0.061c0.081-0.051,0.143-0.161,0.187-0.33l1.507-6.06c0.044-0.184,0.037-0.291-0.022-0.32
					c-0.059-0.037-0.163-0.059-0.313-0.066s-0.31-0.011-0.479-0.011c-0.081,0-0.114-0.04-0.099-0.121l0.033-0.088
					c0.015-0.081,0.062-0.121,0.143-0.121h3.586c0.433,0,0.81,0.103,1.133,0.308c0.323,0.206,0.58,0.477,0.77,0.814
					c0.213,0.381,0.333,0.805,0.363,1.271c0.029,0.466-0.019,0.944-0.143,1.436C107.79,11.135,107.602,11.597,107.341,12.044z
					 M106.384,7.424c-0.268-0.176-0.582-0.265-0.94-0.265h-1.155c-0.198,0-0.319,0.019-0.363,0.055
					c-0.044,0.037-0.088,0.151-0.132,0.342l-1.518,6.06c-0.051,0.198-0.062,0.315-0.033,0.353c0.029,0.029,0.139,0.044,0.33,0.044
					h1.155c0.359,0,0.717-0.082,1.073-0.248c0.355-0.165,0.672-0.395,0.951-0.688c0.323-0.345,0.568-0.727,0.737-1.146
					c0.168-0.419,0.304-0.842,0.407-1.267c0.11-0.441,0.187-0.878,0.231-1.311c0.044-0.434-0.007-0.834-0.154-1.201
					C106.848,7.843,106.652,7.601,106.384,7.424z"/>
			</g>
			<g>
				<path d="M112.964,13.243c-0.279,0.396-0.633,0.698-1.062,0.907c-0.429,0.209-0.86,0.313-1.292,0.313
					c-0.308,0-0.57-0.079-0.787-0.237s-0.387-0.354-0.512-0.59c-0.139-0.279-0.214-0.588-0.225-0.926
					c-0.011-0.338,0.027-0.684,0.115-1.036c0.073-0.287,0.194-0.564,0.363-0.832c0.168-0.269,0.381-0.509,0.638-0.723
					c0.242-0.206,0.508-0.366,0.797-0.479c0.29-0.114,0.574-0.171,0.853-0.171c0.169,0,0.326,0.029,0.473,0.088
					c0.146,0.059,0.268,0.14,0.363,0.243s0.162,0.226,0.198,0.369c0.037,0.144,0.033,0.299-0.011,0.469
					c-0.066,0.279-0.202,0.497-0.407,0.655c-0.206,0.158-0.444,0.274-0.715,0.348c-0.271,0.074-0.56,0.117-0.864,0.133
					c-0.304,0.015-0.592,0.021-0.863,0.021c-0.081,0.309-0.138,0.606-0.17,0.894c-0.033,0.286-0.017,0.559,0.049,0.815
					c0.059,0.206,0.15,0.377,0.275,0.513c0.125,0.137,0.286,0.204,0.484,0.204c0.389,0,0.768-0.103,1.139-0.308
					c0.37-0.205,0.676-0.484,0.918-0.836c0.022-0.037,0.051-0.059,0.088-0.066c0.037-0.007,0.066,0,0.088,0.022l0.077,0.088
					C113.004,13.151,113,13.191,112.964,13.243z M112.37,9.976c-0.132-0.176-0.326-0.264-0.583-0.264
					c-0.191,0-0.381,0.049-0.572,0.148c-0.191,0.099-0.359,0.233-0.506,0.401c-0.168,0.184-0.299,0.383-0.39,0.6
					c-0.092,0.216-0.17,0.442-0.237,0.677c0.279,0,0.552-0.012,0.82-0.033c0.268-0.021,0.507-0.064,0.72-0.127
					s0.394-0.154,0.544-0.274c0.15-0.121,0.251-0.28,0.303-0.479C112.535,10.368,112.502,10.152,112.37,9.976z"/>
				<path d="M117.298,10.911c-0.096,0.065-0.191,0.099-0.286,0.099c-0.088,0-0.164-0.033-0.226-0.099
					c-0.063-0.066-0.079-0.162-0.049-0.286c0.029-0.11,0.084-0.196,0.165-0.259c0.081-0.062,0.165-0.101,0.253-0.115
					c-0.037-0.162-0.132-0.292-0.286-0.391s-0.337-0.148-0.55-0.148c-0.125,0-0.246,0.015-0.363,0.044
					c-0.117,0.03-0.228,0.085-0.33,0.166c-0.095,0.074-0.172,0.162-0.231,0.265s-0.103,0.214-0.132,0.332
					c-0.051,0.191-0.031,0.361,0.061,0.508c0.091,0.148,0.229,0.24,0.413,0.277l0.539,0.121c0.169,0.037,0.321,0.102,0.457,0.193
					s0.246,0.205,0.33,0.337c0.084,0.133,0.139,0.282,0.165,0.447c0.026,0.166,0.017,0.341-0.027,0.525
					c-0.059,0.206-0.147,0.411-0.264,0.613s-0.271,0.378-0.462,0.524c-0.213,0.155-0.435,0.261-0.666,0.315
					c-0.231,0.056-0.453,0.083-0.666,0.083c-0.213,0-0.411-0.029-0.594-0.088c-0.184-0.059-0.341-0.145-0.473-0.259
					c-0.132-0.113-0.226-0.251-0.281-0.412c-0.055-0.161-0.057-0.345-0.005-0.551c0.037-0.146,0.11-0.256,0.22-0.329
					c0.11-0.073,0.22-0.11,0.33-0.11c0.11,0,0.203,0.037,0.28,0.11s0.097,0.183,0.061,0.329c-0.037,0.147-0.11,0.257-0.22,0.33
					c-0.11,0.074-0.22,0.114-0.33,0.121c0.059,0.191,0.186,0.341,0.38,0.451c0.194,0.11,0.423,0.165,0.688,0.165
					c0.161,0,0.321-0.019,0.479-0.055c0.157-0.037,0.302-0.106,0.435-0.21c0.125-0.088,0.227-0.196,0.308-0.325
					s0.139-0.267,0.176-0.413c0.059-0.235,0.025-0.439-0.099-0.612c-0.125-0.173-0.304-0.289-0.539-0.348l-0.539-0.121
					c-0.301-0.066-0.522-0.221-0.666-0.463s-0.174-0.529-0.093-0.859c0.044-0.177,0.115-0.353,0.214-0.53
					c0.099-0.176,0.233-0.331,0.401-0.463c0.169-0.132,0.35-0.224,0.545-0.276c0.194-0.051,0.383-0.077,0.566-0.077
					c0.176,0,0.341,0.026,0.495,0.079c0.154,0.052,0.284,0.129,0.391,0.231c0.106,0.101,0.18,0.224,0.22,0.367
					c0.04,0.143,0.039,0.302-0.005,0.479C117.455,10.749,117.393,10.845,117.298,10.911z"/>
				<path d="M121.257,9.822c-0.029,0.081-0.081,0.121-0.154,0.121h-1.045l-0.803,3.211c-0.081,0.301-0.11,0.555-0.088,0.76
					s0.125,0.308,0.308,0.308c0.146,0,0.284-0.04,0.413-0.121c0.128-0.08,0.248-0.188,0.357-0.324s0.209-0.292,0.297-0.468
					s0.168-0.363,0.242-0.561c0.007-0.029,0.023-0.052,0.049-0.066c0.025-0.015,0.049-0.021,0.071-0.021h0.132
					c0.029,0,0.051,0.011,0.066,0.032c0.015,0.022,0.018,0.044,0.011,0.066c-0.073,0.205-0.165,0.409-0.275,0.61
					c-0.11,0.202-0.236,0.384-0.379,0.545s-0.301,0.293-0.473,0.396s-0.361,0.154-0.566,0.154c-0.176,0-0.328-0.035-0.457-0.104
					s-0.231-0.165-0.308-0.286c-0.077-0.121-0.125-0.26-0.143-0.418c-0.019-0.157-0.006-0.324,0.038-0.501l0.803-3.211h-1.078
					c-0.073,0-0.103-0.041-0.088-0.121l0.022-0.088c0.029-0.081,0.081-0.121,0.154-0.121h1.067l0.451-1.804
					c0.029-0.117,0.088-0.205,0.176-0.264s0.176-0.088,0.264-0.088c0.088,0,0.162,0.03,0.22,0.088s0.073,0.146,0.044,0.264
					l-0.451,1.804h1.056c0.073,0,0.103,0.041,0.088,0.121L121.257,9.822z"/>
				<path d="M124.216,13.348c-0.081,0.201-0.18,0.385-0.297,0.55c-0.118,0.165-0.253,0.301-0.407,0.407
					c-0.154,0.105-0.33,0.159-0.528,0.159c-0.169,0-0.313-0.037-0.435-0.11c-0.121-0.074-0.214-0.172-0.281-0.293
					c-0.066-0.122-0.101-0.264-0.104-0.426c-0.003-0.162,0.028-0.328,0.094-0.497l0.869-2.376c0.11-0.302,0.165-0.553,0.165-0.751
					s-0.084-0.298-0.253-0.298c-0.132,0-0.249,0.039-0.352,0.115c-0.103,0.077-0.196,0.182-0.28,0.313
					c-0.084,0.132-0.16,0.286-0.226,0.462s-0.121,0.363-0.165,0.561c-0.029,0.074-0.077,0.111-0.143,0.111h-0.121
					c-0.066,0-0.092-0.037-0.077-0.111c0.044-0.189,0.108-0.387,0.192-0.588c0.084-0.202,0.185-0.385,0.303-0.55
					c0.117-0.165,0.253-0.299,0.407-0.402c0.154-0.103,0.33-0.154,0.528-0.154c0.169,0,0.312,0.037,0.429,0.11
					s0.207,0.173,0.27,0.298c0.062,0.125,0.095,0.266,0.099,0.424c0.003,0.158-0.024,0.321-0.083,0.491l-0.869,2.382
					c-0.103,0.294-0.156,0.542-0.16,0.744c-0.003,0.202,0.079,0.303,0.248,0.303c0.132,0,0.251-0.04,0.357-0.121
					c0.106-0.08,0.202-0.187,0.286-0.318c0.084-0.133,0.158-0.286,0.22-0.463c0.062-0.176,0.119-0.362,0.17-0.561
					c0.015-0.066,0.059-0.099,0.132-0.099h0.121c0.029,0,0.053,0.009,0.072,0.027c0.018,0.019,0.02,0.042,0.005,0.071
					C124.359,12.949,124.297,13.146,124.216,13.348z M124.134,7.869c-0.106,0.084-0.222,0.126-0.347,0.126s-0.22-0.042-0.286-0.126
					c-0.066-0.084-0.081-0.188-0.044-0.313c0.029-0.125,0.097-0.229,0.204-0.313c0.106-0.084,0.222-0.126,0.347-0.126
					c0.125,0,0.22,0.042,0.286,0.126c0.066,0.084,0.081,0.189,0.044,0.313C124.308,7.681,124.24,7.785,124.134,7.869z"/>
			</g>
			<g>
				<path d="M130.51,13.348c-0.081,0.201-0.181,0.385-0.302,0.55s-0.258,0.301-0.413,0.407c-0.154,0.105-0.33,0.159-0.528,0.159
					c-0.169,0-0.313-0.037-0.435-0.11c-0.121-0.074-0.213-0.172-0.275-0.293c-0.063-0.122-0.098-0.264-0.104-0.426
					c-0.007-0.162,0.022-0.328,0.088-0.497c0.117-0.316,0.229-0.632,0.335-0.945c0.106-0.313,0.2-0.627,0.28-0.944
					c0.051-0.214,0.088-0.419,0.11-0.613c0.022-0.195,0.011-0.378-0.033-0.547c-0.073-0.25-0.228-0.375-0.462-0.375
					c-0.381,0-0.706,0.132-0.974,0.398c-0.268,0.265-0.504,0.619-0.709,1.061l-0.737,2.939c-0.029,0.117-0.088,0.206-0.176,0.265
					c-0.088,0.06-0.176,0.089-0.264,0.089s-0.16-0.029-0.215-0.089c-0.055-0.059-0.068-0.147-0.038-0.265l0.825-3.338
					c0.073-0.294,0.101-0.545,0.083-0.751c-0.019-0.207-0.119-0.31-0.302-0.31c-0.184,0-0.33,0.137-0.44,0.413
					c-0.11,0.275-0.217,0.621-0.319,1.039c-0.029,0.074-0.077,0.111-0.143,0.111h-0.121c-0.066,0-0.092-0.037-0.077-0.111
					c0.044-0.16,0.091-0.34,0.143-0.538c0.051-0.198,0.121-0.383,0.209-0.556c0.088-0.172,0.196-0.315,0.324-0.429
					c0.128-0.113,0.288-0.17,0.479-0.17c0.279,0,0.497,0.084,0.655,0.253c0.157,0.169,0.244,0.381,0.258,0.638
					c0.205-0.271,0.438-0.488,0.699-0.649c0.26-0.161,0.563-0.242,0.907-0.242c0.205,0,0.394,0.039,0.566,0.116
					s0.306,0.2,0.402,0.37c0.103,0.184,0.152,0.389,0.148,0.617c-0.004,0.228-0.035,0.456-0.094,0.684
					c-0.081,0.323-0.174,0.644-0.28,0.96c-0.106,0.315-0.218,0.635-0.335,0.959c-0.11,0.294-0.165,0.544-0.165,0.749
					c0,0.199,0.084,0.298,0.253,0.298c0.132,0,0.251-0.04,0.357-0.121c0.106-0.08,0.202-0.187,0.286-0.318
					c0.084-0.133,0.159-0.286,0.226-0.463c0.066-0.176,0.121-0.362,0.165-0.561c0.029-0.066,0.073-0.099,0.132-0.099h0.132
					c0.066,0,0.092,0.032,0.077,0.099C130.657,12.949,130.591,13.146,130.51,13.348z"/>
				<path d="M136.22,13.309c-0.052,0.198-0.121,0.382-0.209,0.55c-0.088,0.169-0.196,0.313-0.325,0.43s-0.288,0.176-0.479,0.176
					c-0.257,0-0.462-0.073-0.616-0.22c-0.154-0.147-0.25-0.334-0.286-0.562c-0.169,0.205-0.371,0.387-0.605,0.545
					c-0.235,0.157-0.48,0.236-0.737,0.236c-0.271,0-0.499-0.07-0.682-0.209c-0.184-0.14-0.327-0.316-0.429-0.529
					c-0.125-0.258-0.191-0.537-0.198-0.838c-0.008-0.302,0.029-0.607,0.11-0.916c0.081-0.309,0.198-0.613,0.352-0.914
					c0.154-0.302,0.355-0.581,0.605-0.838c0.205-0.213,0.438-0.392,0.698-0.535c0.26-0.143,0.522-0.215,0.787-0.215
					c0.227,0,0.413,0.063,0.556,0.188s0.254,0.276,0.335,0.452l0.011-0.066c0.022-0.117,0.075-0.208,0.16-0.27
					s0.17-0.094,0.258-0.094c0.095,0,0.174,0.031,0.237,0.094c0.062,0.063,0.079,0.153,0.049,0.27l-0.77,3.109
					c-0.037,0.147-0.063,0.287-0.077,0.419c-0.015,0.133-0.015,0.246,0,0.342c0.014,0.096,0.045,0.171,0.093,0.226
					c0.048,0.056,0.116,0.083,0.204,0.083s0.168-0.036,0.242-0.11c0.073-0.073,0.14-0.176,0.198-0.308s0.114-0.286,0.165-0.462
					s0.103-0.37,0.154-0.583c0.015-0.066,0.059-0.099,0.132-0.099h0.121c0.073,0,0.103,0.032,0.088,0.099
					C136.318,12.928,136.271,13.11,136.22,13.309z M134.894,10.558c-0.011-0.07-0.027-0.142-0.049-0.216
					c-0.059-0.177-0.145-0.326-0.259-0.448s-0.258-0.182-0.435-0.182c-0.161,0-0.319,0.059-0.473,0.177
					c-0.154,0.118-0.293,0.265-0.418,0.442c-0.176,0.25-0.308,0.512-0.396,0.785c-0.088,0.271-0.169,0.556-0.242,0.851
					c-0.073,0.287-0.134,0.569-0.182,0.846c-0.047,0.276-0.046,0.536,0.006,0.779c0.037,0.177,0.101,0.326,0.192,0.447
					c0.091,0.122,0.222,0.183,0.391,0.183c0.176,0,0.35-0.063,0.522-0.188c0.172-0.126,0.332-0.276,0.479-0.453
					c0.059-0.074,0.113-0.145,0.165-0.21c0.051-0.066,0.099-0.141,0.143-0.222l0.594-2.377
					C134.918,10.699,134.905,10.627,134.894,10.558z"/>
				<path d="M140.125,9.822c-0.029,0.081-0.081,0.121-0.154,0.121h-1.045l-0.803,3.211c-0.081,0.301-0.11,0.555-0.088,0.76
					c0.021,0.205,0.124,0.308,0.308,0.308c0.146,0,0.284-0.04,0.412-0.121c0.129-0.08,0.248-0.188,0.357-0.324
					c0.11-0.136,0.209-0.292,0.298-0.468c0.088-0.176,0.168-0.363,0.241-0.561c0.008-0.029,0.024-0.052,0.05-0.066
					s0.05-0.021,0.071-0.021h0.132c0.029,0,0.052,0.011,0.066,0.032c0.015,0.022,0.019,0.044,0.011,0.066
					c-0.073,0.205-0.165,0.409-0.274,0.61c-0.11,0.202-0.237,0.384-0.38,0.545s-0.301,0.293-0.473,0.396
					c-0.173,0.103-0.361,0.154-0.566,0.154c-0.177,0-0.329-0.035-0.457-0.104c-0.128-0.069-0.231-0.165-0.308-0.286
					c-0.077-0.121-0.125-0.26-0.143-0.418c-0.019-0.157-0.006-0.324,0.038-0.501l0.803-3.211h-1.078
					c-0.073,0-0.103-0.041-0.088-0.121l0.022-0.088c0.029-0.081,0.081-0.121,0.154-0.121h1.067l0.451-1.804
					c0.029-0.117,0.088-0.205,0.176-0.264s0.176-0.088,0.264-0.088s0.161,0.03,0.221,0.088c0.059,0.059,0.072,0.146,0.044,0.264
					l-0.451,1.804h1.056c0.073,0,0.103,0.041,0.088,0.121L140.125,9.822z"/>
				<path d="M143.161,13.348c-0.081,0.201-0.18,0.385-0.297,0.55s-0.253,0.301-0.407,0.407c-0.154,0.105-0.33,0.159-0.528,0.159
					c-0.169,0-0.313-0.037-0.435-0.11c-0.121-0.074-0.214-0.172-0.28-0.293c-0.065-0.122-0.101-0.264-0.104-0.426
					s0.027-0.328,0.094-0.497l0.869-2.376c0.109-0.302,0.165-0.553,0.165-0.751s-0.085-0.298-0.253-0.298
					c-0.133,0-0.25,0.039-0.353,0.115c-0.103,0.077-0.196,0.182-0.28,0.313c-0.084,0.132-0.159,0.286-0.226,0.462
					s-0.121,0.363-0.165,0.561c-0.029,0.074-0.077,0.111-0.143,0.111h-0.121c-0.066,0-0.092-0.037-0.077-0.111
					c0.044-0.189,0.108-0.387,0.192-0.588c0.084-0.202,0.186-0.385,0.303-0.55s0.253-0.299,0.407-0.402
					c0.153-0.103,0.329-0.154,0.527-0.154c0.169,0,0.312,0.037,0.43,0.11c0.117,0.074,0.207,0.173,0.269,0.298
					c0.063,0.125,0.096,0.266,0.1,0.424s-0.024,0.321-0.083,0.491l-0.868,2.382c-0.104,0.294-0.156,0.542-0.16,0.744
					s0.079,0.303,0.248,0.303c0.132,0,0.251-0.04,0.357-0.121c0.105-0.08,0.201-0.187,0.286-0.318
					c0.084-0.133,0.157-0.286,0.22-0.463c0.063-0.176,0.119-0.362,0.17-0.561c0.015-0.066,0.059-0.099,0.133-0.099h0.121
					c0.028,0,0.053,0.009,0.071,0.027c0.018,0.019,0.02,0.042,0.005,0.071C143.303,12.949,143.241,13.146,143.161,13.348z
					 M143.078,7.869c-0.106,0.084-0.222,0.126-0.346,0.126c-0.125,0-0.221-0.042-0.286-0.126c-0.066-0.084-0.081-0.188-0.044-0.313
					c0.029-0.125,0.097-0.229,0.203-0.313c0.106-0.084,0.222-0.126,0.347-0.126c0.124,0,0.22,0.042,0.286,0.126
					c0.065,0.084,0.08,0.189,0.044,0.313C143.252,7.681,143.184,7.785,143.078,7.869z"/>
				<path d="M148.253,12.898c-0.176,0.302-0.399,0.577-0.671,0.827c-0.242,0.22-0.508,0.398-0.798,0.534
					c-0.289,0.136-0.581,0.204-0.874,0.204c-0.301,0-0.563-0.068-0.787-0.204s-0.397-0.314-0.522-0.534
					c-0.146-0.25-0.232-0.525-0.258-0.827c-0.026-0.302,0.001-0.61,0.082-0.927c0.081-0.322,0.209-0.635,0.385-0.937
					c0.177-0.302,0.396-0.577,0.66-0.827c0.242-0.221,0.51-0.399,0.804-0.535c0.293-0.136,0.586-0.204,0.88-0.204
					c0.293,0,0.552,0.068,0.775,0.204c0.224,0.136,0.401,0.314,0.533,0.535c0.146,0.25,0.232,0.525,0.259,0.827
					c0.025,0.302-0.002,0.614-0.083,0.937C148.558,12.288,148.429,12.597,148.253,12.898z M147.588,9.889
					c-0.136-0.118-0.303-0.177-0.501-0.177c-0.19,0-0.383,0.059-0.577,0.177c-0.194,0.118-0.365,0.269-0.512,0.453
					c-0.198,0.236-0.349,0.492-0.451,0.769s-0.19,0.562-0.264,0.856c-0.073,0.287-0.129,0.569-0.165,0.846
					c-0.037,0.276-0.015,0.532,0.065,0.769c0.059,0.191,0.156,0.346,0.292,0.464s0.299,0.177,0.489,0.177
					c0.198,0,0.395-0.059,0.589-0.177s0.364-0.272,0.512-0.464c0.197-0.236,0.348-0.492,0.45-0.769s0.191-0.559,0.265-0.846
					c0.073-0.295,0.128-0.58,0.165-0.856c0.036-0.276,0.015-0.533-0.066-0.769C147.821,10.158,147.723,10.006,147.588,9.889z"/>
				<path d="M154.962,13.348c-0.081,0.201-0.182,0.385-0.303,0.55c-0.12,0.165-0.258,0.301-0.412,0.407
					c-0.154,0.105-0.33,0.159-0.528,0.159c-0.168,0-0.313-0.037-0.435-0.11c-0.12-0.074-0.212-0.172-0.274-0.293
					c-0.063-0.122-0.098-0.264-0.104-0.426c-0.008-0.162,0.021-0.328,0.088-0.497c0.117-0.316,0.229-0.632,0.336-0.945
					c0.105-0.313,0.199-0.627,0.28-0.944c0.051-0.214,0.088-0.419,0.109-0.613c0.022-0.195,0.012-0.378-0.032-0.547
					c-0.074-0.25-0.228-0.375-0.462-0.375c-0.382,0-0.706,0.132-0.974,0.398c-0.269,0.265-0.505,0.619-0.71,1.061l-0.737,2.939
					c-0.029,0.117-0.088,0.206-0.176,0.265c-0.088,0.06-0.176,0.089-0.264,0.089s-0.159-0.029-0.215-0.089
					c-0.055-0.059-0.067-0.147-0.038-0.265l0.825-3.338c0.073-0.294,0.101-0.545,0.082-0.751c-0.019-0.207-0.119-0.31-0.303-0.31
					c-0.183,0-0.33,0.137-0.439,0.413c-0.11,0.275-0.217,0.621-0.319,1.039c-0.029,0.074-0.077,0.111-0.143,0.111h-0.121
					c-0.066,0-0.092-0.037-0.077-0.111c0.044-0.16,0.092-0.34,0.143-0.538c0.052-0.198,0.121-0.383,0.209-0.556
					s0.196-0.315,0.325-0.429c0.128-0.113,0.287-0.17,0.479-0.17c0.278,0,0.496,0.084,0.654,0.253
					c0.157,0.169,0.243,0.381,0.259,0.638c0.205-0.271,0.438-0.488,0.698-0.649c0.26-0.161,0.563-0.242,0.907-0.242
					c0.205,0,0.395,0.039,0.566,0.116c0.173,0.077,0.307,0.2,0.401,0.37c0.103,0.184,0.152,0.389,0.148,0.617
					c-0.003,0.228-0.034,0.456-0.093,0.684c-0.081,0.323-0.175,0.644-0.281,0.96c-0.106,0.315-0.218,0.635-0.335,0.959
					c-0.11,0.294-0.165,0.544-0.165,0.749c0,0.199,0.084,0.298,0.253,0.298c0.132,0,0.251-0.04,0.357-0.121
					c0.106-0.08,0.201-0.187,0.286-0.318c0.084-0.133,0.159-0.286,0.226-0.463c0.065-0.176,0.121-0.362,0.165-0.561
					c0.029-0.066,0.073-0.099,0.132-0.099h0.132c0.066,0,0.092,0.032,0.077,0.099C155.109,12.949,155.043,13.146,154.962,13.348z"/>
			</g>
			<g>
				<path d="M166.2,7.039c-0.007,0.037-0.025,0.066-0.055,0.088s-0.063,0.033-0.099,0.033c-0.169,0-0.336,0.004-0.501,0.011
					s-0.288,0.029-0.368,0.066c-0.088,0.029-0.154,0.136-0.198,0.32l-1.507,6.06c-0.044,0.184-0.033,0.294,0.033,0.33
					c0.059,0.037,0.168,0.058,0.33,0.061c0.161,0.004,0.33,0.006,0.506,0.006c0.08,0,0.109,0.043,0.088,0.128l-0.022,0.085
					c-0.029,0.078-0.08,0.117-0.153,0.117c-0.924-0.044-1.866-0.044-2.827,0c-0.073,0-0.103-0.039-0.088-0.117l0.021-0.085
					c0.022-0.085,0.073-0.128,0.154-0.128c0.176,0,0.347-0.002,0.512-0.006c0.165-0.003,0.287-0.023,0.368-0.061
					c0.081-0.044,0.144-0.154,0.188-0.33l1.518-6.06c0.044-0.177,0.033-0.283-0.033-0.32c-0.065-0.037-0.18-0.059-0.341-0.066
					s-0.326-0.011-0.495-0.011c-0.081,0-0.113-0.04-0.099-0.121l0.021-0.088c0.029-0.081,0.081-0.121,0.154-0.121
					c0.938,0.037,1.881,0.037,2.827,0c0.036,0,0.064,0.011,0.082,0.033c0.019,0.022,0.021,0.051,0.006,0.088L166.2,7.039z"/>
				<path d="M172.586,9.657c-0.188,0.242-0.409,0.451-0.666,0.627c-0.278,0.198-0.576,0.347-0.891,0.446
					c-0.315,0.099-0.627,0.148-0.936,0.148h-1.639l-0.682,2.737c-0.045,0.185-0.037,0.295,0.021,0.331
					c0.059,0.037,0.163,0.058,0.313,0.061c0.15,0.004,0.31,0.006,0.479,0.006c0.081,0,0.113,0.043,0.099,0.128l-0.021,0.085
					c-0.029,0.078-0.081,0.117-0.154,0.117c-0.901-0.044-1.808-0.044-2.717,0c-0.081,0-0.114-0.039-0.099-0.117l0.021-0.085
					c0.022-0.085,0.073-0.128,0.154-0.128c0.169,0,0.33-0.002,0.483-0.006c0.154-0.003,0.271-0.023,0.353-0.061
					c0.08-0.051,0.143-0.161,0.187-0.33l1.508-6.06c0.044-0.184,0.036-0.291-0.022-0.32c-0.059-0.037-0.163-0.059-0.313-0.066
					s-0.31-0.011-0.479-0.011c-0.081,0-0.113-0.04-0.099-0.121l0.032-0.088c0.015-0.081,0.063-0.121,0.144-0.121h3.443
					c0.308,0,0.594,0.05,0.857,0.149c0.264,0.099,0.491,0.247,0.682,0.445c0.169,0.183,0.284,0.401,0.347,0.654
					s0.057,0.519-0.017,0.798S172.773,9.415,172.586,9.657z M172.058,8.205c0.019-0.22-0.027-0.414-0.138-0.583
					c-0.125-0.168-0.29-0.288-0.495-0.357C171.22,7.195,171,7.16,170.765,7.16h-1.012c-0.198,0-0.319,0.019-0.363,0.055
					s-0.088,0.15-0.132,0.341l-0.759,3.025h1.408c0.234,0,0.473-0.035,0.715-0.104c0.242-0.069,0.466-0.188,0.671-0.357
					c0.19-0.168,0.332-0.363,0.424-0.583c0.091-0.22,0.166-0.44,0.226-0.66C172.001,8.648,172.04,8.425,172.058,8.205z"/>
			</g>
			<g>
				<path d="M189.962,12.044c-0.261,0.447-0.589,0.854-0.984,1.221c-0.359,0.33-0.752,0.593-1.178,0.787
					c-0.425,0.194-0.851,0.291-1.275,0.291h-3.575c-0.081,0-0.114-0.039-0.099-0.117l0.021-0.085
					c0.022-0.085,0.073-0.128,0.154-0.128c0.169,0,0.33-0.002,0.483-0.006c0.154-0.003,0.271-0.023,0.353-0.061
					c0.08-0.051,0.143-0.161,0.187-0.33l1.508-6.06c0.044-0.184,0.036-0.291-0.022-0.32c-0.059-0.037-0.163-0.059-0.313-0.066
					s-0.31-0.011-0.479-0.011c-0.081,0-0.113-0.04-0.099-0.121l0.032-0.088c0.015-0.081,0.063-0.121,0.144-0.121h3.586
					c0.433,0,0.811,0.103,1.133,0.308c0.322,0.206,0.579,0.477,0.771,0.814c0.212,0.381,0.333,0.805,0.362,1.271
					c0.029,0.466-0.018,0.944-0.143,1.436C190.412,11.135,190.222,11.597,189.962,12.044z M189.005,7.424
					c-0.268-0.176-0.581-0.265-0.94-0.265h-1.155c-0.198,0-0.319,0.019-0.363,0.055c-0.044,0.037-0.088,0.151-0.132,0.342
					l-1.518,6.06c-0.052,0.198-0.063,0.315-0.033,0.353c0.029,0.029,0.14,0.044,0.33,0.044h1.155c0.358,0,0.717-0.082,1.072-0.248
					c0.355-0.165,0.673-0.395,0.951-0.688c0.323-0.345,0.568-0.727,0.737-1.146s0.304-0.842,0.407-1.267
					c0.109-0.441,0.187-0.878,0.23-1.311c0.044-0.434-0.007-0.834-0.154-1.201C189.469,7.843,189.273,7.601,189.005,7.424z"/>
				<path d="M195.599,13.243c-0.278,0.396-0.632,0.698-1.062,0.907c-0.429,0.209-0.859,0.313-1.292,0.313
					c-0.309,0-0.57-0.079-0.787-0.237c-0.216-0.158-0.387-0.354-0.511-0.59c-0.14-0.279-0.215-0.588-0.226-0.926
					s0.027-0.684,0.115-1.036c0.073-0.287,0.194-0.564,0.363-0.832c0.168-0.269,0.381-0.509,0.638-0.723
					c0.242-0.206,0.508-0.366,0.798-0.479c0.289-0.114,0.573-0.171,0.853-0.171c0.168,0,0.326,0.029,0.473,0.088
					c0.146,0.059,0.268,0.14,0.363,0.243c0.095,0.103,0.161,0.226,0.197,0.369c0.037,0.144,0.033,0.299-0.011,0.469
					c-0.065,0.279-0.201,0.497-0.407,0.655c-0.205,0.158-0.443,0.274-0.715,0.348c-0.271,0.074-0.559,0.117-0.863,0.133
					c-0.305,0.015-0.592,0.021-0.863,0.021c-0.081,0.309-0.138,0.606-0.171,0.894c-0.033,0.286-0.017,0.559,0.05,0.815
					c0.059,0.206,0.15,0.377,0.275,0.513c0.124,0.137,0.285,0.204,0.483,0.204c0.389,0,0.769-0.103,1.139-0.308
					s0.677-0.484,0.919-0.836c0.021-0.037,0.051-0.059,0.088-0.066c0.036-0.007,0.065,0,0.088,0.022l0.077,0.088
					C195.64,13.151,195.636,13.191,195.599,13.243z M195.005,9.976c-0.132-0.176-0.326-0.264-0.583-0.264
					c-0.19,0-0.381,0.049-0.572,0.148c-0.19,0.099-0.359,0.233-0.506,0.401c-0.169,0.184-0.299,0.383-0.391,0.6
					c-0.092,0.216-0.17,0.442-0.236,0.677c0.278,0,0.552-0.012,0.819-0.033s0.508-0.064,0.721-0.127s0.395-0.154,0.545-0.274
					c0.15-0.121,0.251-0.28,0.302-0.479C195.17,10.368,195.137,10.152,195.005,9.976z"/>
				<path d="M199.966,10.911c-0.096,0.065-0.191,0.099-0.286,0.099c-0.088,0-0.163-0.033-0.226-0.099
					c-0.063-0.066-0.079-0.162-0.05-0.286c0.029-0.11,0.085-0.196,0.165-0.259c0.081-0.062,0.165-0.101,0.253-0.115
					c-0.036-0.162-0.132-0.292-0.286-0.391c-0.153-0.099-0.337-0.148-0.55-0.148c-0.125,0-0.245,0.015-0.362,0.044
					c-0.118,0.03-0.228,0.085-0.33,0.166c-0.096,0.074-0.173,0.162-0.231,0.265s-0.103,0.214-0.132,0.332
					c-0.052,0.191-0.031,0.361,0.061,0.508c0.092,0.148,0.229,0.24,0.412,0.277l0.539,0.121c0.169,0.037,0.321,0.102,0.457,0.193
					s0.245,0.205,0.33,0.337c0.084,0.133,0.139,0.282,0.165,0.447c0.025,0.166,0.016,0.341-0.028,0.525
					c-0.059,0.206-0.146,0.411-0.264,0.613s-0.271,0.378-0.462,0.524c-0.213,0.155-0.435,0.261-0.666,0.315
					c-0.23,0.056-0.452,0.083-0.665,0.083s-0.411-0.029-0.594-0.088c-0.184-0.059-0.341-0.145-0.474-0.259
					c-0.132-0.113-0.225-0.251-0.28-0.412c-0.055-0.161-0.057-0.345-0.005-0.551c0.036-0.146,0.109-0.256,0.22-0.329
					c0.109-0.073,0.22-0.11,0.33-0.11c0.109,0,0.203,0.037,0.28,0.11s0.097,0.183,0.061,0.329c-0.037,0.147-0.11,0.257-0.22,0.33
					c-0.11,0.074-0.221,0.114-0.33,0.121c0.059,0.191,0.185,0.341,0.379,0.451s0.424,0.165,0.688,0.165
					c0.161,0,0.321-0.019,0.479-0.055c0.158-0.037,0.303-0.106,0.435-0.21c0.125-0.088,0.228-0.196,0.309-0.325
					c0.08-0.129,0.139-0.267,0.176-0.413c0.059-0.235,0.025-0.439-0.1-0.612c-0.124-0.173-0.304-0.289-0.538-0.348l-0.539-0.121
					c-0.301-0.066-0.522-0.221-0.666-0.463c-0.143-0.242-0.174-0.529-0.094-0.859c0.044-0.177,0.116-0.353,0.215-0.53
					c0.099-0.176,0.232-0.331,0.401-0.463s0.351-0.224,0.545-0.276c0.194-0.051,0.383-0.077,0.566-0.077
					c0.176,0,0.341,0.026,0.495,0.079c0.153,0.052,0.284,0.129,0.391,0.231c0.105,0.101,0.18,0.224,0.22,0.367
					c0.04,0.143,0.038,0.302-0.006,0.479C200.124,10.749,200.061,10.845,199.966,10.911z"/>
				<path d="M203.959,9.822c-0.029,0.081-0.081,0.121-0.154,0.121h-1.045l-0.803,3.211c-0.081,0.301-0.11,0.555-0.088,0.76
					c0.021,0.205,0.124,0.308,0.308,0.308c0.146,0,0.284-0.04,0.412-0.121c0.129-0.08,0.248-0.188,0.357-0.324
					c0.11-0.136,0.209-0.292,0.298-0.468c0.088-0.176,0.168-0.363,0.241-0.561c0.008-0.029,0.024-0.052,0.05-0.066
					s0.05-0.021,0.071-0.021h0.132c0.029,0,0.052,0.011,0.066,0.032c0.015,0.022,0.019,0.044,0.011,0.066
					c-0.073,0.205-0.165,0.409-0.274,0.61c-0.11,0.202-0.237,0.384-0.38,0.545s-0.301,0.293-0.473,0.396
					c-0.173,0.103-0.361,0.154-0.566,0.154c-0.177,0-0.329-0.035-0.457-0.104s-0.23-0.165-0.308-0.286s-0.125-0.26-0.144-0.418
					c-0.019-0.157-0.005-0.324,0.039-0.501l0.803-3.211h-1.078c-0.073,0-0.103-0.041-0.088-0.121l0.022-0.088
					c0.028-0.081,0.08-0.121,0.153-0.121h1.067l0.451-1.804c0.029-0.117,0.088-0.205,0.176-0.264s0.176-0.088,0.264-0.088
					s0.161,0.03,0.221,0.088c0.059,0.059,0.072,0.146,0.044,0.264l-0.451,1.804h1.056c0.073,0,0.103,0.041,0.088,0.121
					L203.959,9.822z"/>
			</g>
			<g>
				<path d="M206.895,13.348c-0.081,0.201-0.18,0.385-0.297,0.55s-0.253,0.301-0.407,0.407c-0.154,0.105-0.33,0.159-0.528,0.159
					c-0.169,0-0.313-0.037-0.435-0.11c-0.121-0.074-0.214-0.172-0.28-0.293c-0.065-0.122-0.101-0.264-0.104-0.426
					s0.027-0.328,0.094-0.497l0.869-2.376c0.109-0.302,0.165-0.553,0.165-0.751s-0.085-0.298-0.253-0.298
					c-0.133,0-0.25,0.039-0.353,0.115c-0.103,0.077-0.196,0.182-0.28,0.313c-0.084,0.132-0.159,0.286-0.226,0.462
					s-0.121,0.363-0.165,0.561c-0.029,0.074-0.077,0.111-0.143,0.111h-0.121c-0.066,0-0.092-0.037-0.077-0.111
					c0.044-0.189,0.108-0.387,0.192-0.588c0.084-0.202,0.186-0.385,0.303-0.55s0.253-0.299,0.407-0.402
					c0.153-0.103,0.329-0.154,0.527-0.154c0.169,0,0.312,0.037,0.43,0.11c0.117,0.074,0.207,0.173,0.269,0.298
					c0.063,0.125,0.096,0.266,0.1,0.424s-0.024,0.321-0.083,0.491l-0.868,2.382c-0.104,0.294-0.156,0.542-0.16,0.744
					s0.079,0.303,0.248,0.303c0.132,0,0.251-0.04,0.357-0.121c0.105-0.08,0.201-0.187,0.286-0.318
					c0.084-0.133,0.157-0.286,0.22-0.463c0.063-0.176,0.119-0.362,0.17-0.561c0.015-0.066,0.059-0.099,0.133-0.099h0.121
					c0.028,0,0.053,0.009,0.071,0.027c0.018,0.019,0.02,0.042,0.005,0.071C207.038,12.949,206.975,13.146,206.895,13.348z
					 M206.812,7.869c-0.106,0.084-0.222,0.126-0.346,0.126c-0.125,0-0.221-0.042-0.286-0.126c-0.066-0.084-0.081-0.188-0.044-0.313
					c0.029-0.125,0.097-0.229,0.203-0.313c0.106-0.084,0.222-0.126,0.347-0.126c0.124,0,0.22,0.042,0.286,0.126
					c0.065,0.084,0.08,0.189,0.044,0.313C206.987,7.681,206.918,7.785,206.812,7.869z"/>
				<path d="M213.131,13.348c-0.081,0.201-0.182,0.385-0.303,0.55c-0.12,0.165-0.258,0.301-0.412,0.407
					c-0.154,0.105-0.33,0.159-0.528,0.159c-0.168,0-0.313-0.037-0.435-0.11c-0.12-0.074-0.212-0.172-0.274-0.293
					c-0.063-0.122-0.098-0.264-0.104-0.426c-0.008-0.162,0.021-0.328,0.088-0.497c0.117-0.316,0.229-0.632,0.336-0.945
					c0.105-0.313,0.199-0.627,0.28-0.944c0.051-0.214,0.088-0.419,0.109-0.613c0.022-0.195,0.012-0.378-0.032-0.547
					c-0.074-0.25-0.228-0.375-0.462-0.375c-0.382,0-0.706,0.132-0.974,0.398c-0.269,0.265-0.505,0.619-0.71,1.061l-0.737,2.939
					c-0.029,0.117-0.088,0.206-0.176,0.265c-0.088,0.06-0.176,0.089-0.264,0.089s-0.159-0.029-0.215-0.089
					c-0.055-0.059-0.067-0.147-0.038-0.265l0.825-3.338c0.073-0.294,0.101-0.545,0.082-0.751c-0.019-0.207-0.119-0.31-0.303-0.31
					c-0.183,0-0.33,0.137-0.439,0.413c-0.11,0.275-0.217,0.621-0.319,1.039c-0.029,0.074-0.077,0.111-0.143,0.111h-0.121
					c-0.066,0-0.092-0.037-0.077-0.111c0.044-0.16,0.092-0.34,0.143-0.538c0.052-0.198,0.121-0.383,0.209-0.556
					s0.196-0.315,0.325-0.429c0.128-0.113,0.287-0.17,0.479-0.17c0.278,0,0.496,0.084,0.654,0.253
					c0.157,0.169,0.243,0.381,0.259,0.638c0.205-0.271,0.438-0.488,0.698-0.649c0.26-0.161,0.563-0.242,0.907-0.242
					c0.205,0,0.395,0.039,0.566,0.116c0.173,0.077,0.307,0.2,0.401,0.37c0.103,0.184,0.152,0.389,0.148,0.617
					c-0.003,0.228-0.034,0.456-0.093,0.684c-0.081,0.323-0.175,0.644-0.281,0.96c-0.106,0.315-0.218,0.635-0.335,0.959
					c-0.11,0.294-0.165,0.544-0.165,0.749c0,0.199,0.084,0.298,0.253,0.298c0.132,0,0.251-0.04,0.357-0.121
					c0.106-0.08,0.201-0.187,0.286-0.318c0.084-0.133,0.159-0.286,0.226-0.463c0.065-0.176,0.121-0.362,0.165-0.561
					c0.029-0.066,0.073-0.099,0.132-0.099h0.132c0.066,0,0.092,0.032,0.077,0.099C213.278,12.949,213.212,13.146,213.131,13.348z"/>
				<path d="M218.896,13.309c-0.052,0.198-0.121,0.382-0.209,0.55c-0.088,0.169-0.196,0.313-0.324,0.43
					c-0.129,0.117-0.288,0.176-0.479,0.176c-0.257,0-0.463-0.073-0.616-0.22c-0.154-0.147-0.25-0.334-0.286-0.562
					c-0.169,0.205-0.37,0.387-0.605,0.545c-0.234,0.157-0.48,0.236-0.736,0.236c-0.271,0-0.499-0.07-0.683-0.209
					c-0.183-0.14-0.326-0.316-0.429-0.529c-0.125-0.258-0.19-0.537-0.198-0.838c-0.007-0.302,0.029-0.607,0.11-0.916
					c0.08-0.309,0.198-0.613,0.352-0.914c0.154-0.302,0.356-0.581,0.605-0.838c0.205-0.213,0.438-0.392,0.698-0.535
					c0.261-0.143,0.522-0.215,0.787-0.215c0.227,0,0.412,0.063,0.555,0.188c0.144,0.125,0.255,0.276,0.336,0.452l0.011-0.066
					c0.022-0.117,0.075-0.208,0.16-0.27c0.084-0.063,0.17-0.094,0.258-0.094c0.096,0,0.175,0.031,0.236,0.094
					c0.063,0.063,0.079,0.153,0.05,0.27l-0.77,3.109c-0.037,0.147-0.063,0.287-0.077,0.419c-0.015,0.133-0.015,0.246,0,0.342
					s0.046,0.171,0.094,0.226c0.047,0.056,0.115,0.083,0.203,0.083s0.169-0.036,0.242-0.11c0.073-0.073,0.139-0.176,0.197-0.308
					s0.114-0.286,0.165-0.462c0.052-0.176,0.103-0.37,0.154-0.583c0.015-0.066,0.059-0.099,0.132-0.099h0.121
					c0.073,0,0.103,0.032,0.088,0.099C218.995,12.928,218.947,13.11,218.896,13.309z M217.571,10.558
					c-0.012-0.07-0.028-0.142-0.05-0.216c-0.059-0.177-0.146-0.326-0.259-0.448s-0.259-0.182-0.435-0.182
					c-0.161,0-0.318,0.059-0.473,0.177c-0.154,0.118-0.294,0.265-0.418,0.442c-0.176,0.25-0.309,0.512-0.396,0.785
					c-0.088,0.271-0.168,0.556-0.241,0.851c-0.074,0.287-0.135,0.569-0.182,0.846c-0.048,0.276-0.046,0.536,0.005,0.779
					c0.037,0.177,0.101,0.326,0.192,0.447c0.092,0.122,0.222,0.183,0.391,0.183c0.177,0,0.351-0.063,0.522-0.188
					c0.173-0.126,0.332-0.276,0.479-0.453c0.059-0.074,0.114-0.145,0.165-0.21c0.052-0.066,0.1-0.141,0.144-0.222l0.594-2.377
					C217.594,10.699,217.582,10.627,217.571,10.558z"/>
				<path d="M222.856,9.822c-0.029,0.081-0.081,0.121-0.154,0.121h-1.045l-0.803,3.211c-0.081,0.301-0.11,0.555-0.088,0.76
					c0.021,0.205,0.124,0.308,0.308,0.308c0.146,0,0.284-0.04,0.412-0.121c0.129-0.08,0.248-0.188,0.357-0.324
					c0.11-0.136,0.209-0.292,0.298-0.468c0.088-0.176,0.168-0.363,0.241-0.561c0.008-0.029,0.024-0.052,0.05-0.066
					s0.05-0.021,0.071-0.021h0.132c0.029,0,0.052,0.011,0.066,0.032c0.015,0.022,0.019,0.044,0.011,0.066
					c-0.073,0.205-0.165,0.409-0.274,0.61c-0.11,0.202-0.237,0.384-0.38,0.545s-0.301,0.293-0.473,0.396
					c-0.173,0.103-0.361,0.154-0.566,0.154c-0.177,0-0.329-0.035-0.457-0.104s-0.23-0.165-0.308-0.286s-0.125-0.26-0.144-0.418
					c-0.019-0.157-0.005-0.324,0.039-0.501l0.803-3.211h-1.078c-0.073,0-0.103-0.041-0.088-0.121l0.022-0.088
					c0.028-0.081,0.08-0.121,0.153-0.121h1.067l0.451-1.804c0.029-0.117,0.088-0.205,0.176-0.264s0.176-0.088,0.264-0.088
					s0.161,0.03,0.221,0.088c0.059,0.059,0.072,0.146,0.044,0.264l-0.451,1.804h1.056c0.073,0,0.103,0.041,0.088,0.121
					L222.856,9.822z"/>
			</g>
			<g>
				<path d="M225.768,13.348c-0.081,0.201-0.18,0.385-0.297,0.55s-0.253,0.301-0.407,0.407c-0.154,0.105-0.33,0.159-0.528,0.159
					c-0.169,0-0.313-0.037-0.435-0.11c-0.121-0.074-0.214-0.172-0.28-0.293c-0.065-0.122-0.101-0.264-0.104-0.426
					s0.027-0.328,0.094-0.497l0.869-2.376c0.109-0.302,0.165-0.553,0.165-0.751s-0.085-0.298-0.253-0.298
					c-0.133,0-0.25,0.039-0.353,0.115c-0.103,0.077-0.196,0.182-0.28,0.313c-0.084,0.132-0.159,0.286-0.226,0.462
					s-0.121,0.363-0.165,0.561c-0.029,0.074-0.077,0.111-0.143,0.111h-0.121c-0.066,0-0.092-0.037-0.077-0.111
					c0.044-0.189,0.108-0.387,0.192-0.588c0.084-0.202,0.186-0.385,0.303-0.55s0.253-0.299,0.407-0.402
					c0.153-0.103,0.329-0.154,0.527-0.154c0.169,0,0.312,0.037,0.43,0.11c0.117,0.074,0.207,0.173,0.269,0.298
					c0.063,0.125,0.096,0.266,0.1,0.424s-0.024,0.321-0.083,0.491l-0.868,2.382c-0.104,0.294-0.156,0.542-0.16,0.744
					s0.079,0.303,0.248,0.303c0.132,0,0.251-0.04,0.357-0.121c0.105-0.08,0.201-0.187,0.286-0.318
					c0.084-0.133,0.157-0.286,0.22-0.463c0.063-0.176,0.119-0.362,0.17-0.561c0.015-0.066,0.059-0.099,0.133-0.099h0.121
					c0.028,0,0.053,0.009,0.071,0.027c0.018,0.019,0.02,0.042,0.005,0.071C225.911,12.949,225.848,13.146,225.768,13.348z
					 M225.685,7.869c-0.106,0.084-0.222,0.126-0.346,0.126c-0.125,0-0.221-0.042-0.286-0.126c-0.066-0.084-0.081-0.188-0.044-0.313
					c0.029-0.125,0.097-0.229,0.203-0.313c0.106-0.084,0.222-0.126,0.347-0.126c0.124,0,0.22,0.042,0.286,0.126
					c0.065,0.084,0.08,0.189,0.044,0.313C225.86,7.681,225.792,7.785,225.685,7.869z"/>
				<path d="M230.927,12.898c-0.176,0.302-0.399,0.577-0.671,0.827c-0.242,0.22-0.508,0.398-0.798,0.534
					c-0.289,0.136-0.581,0.204-0.874,0.204c-0.301,0-0.563-0.068-0.787-0.204s-0.397-0.314-0.522-0.534
					c-0.146-0.25-0.232-0.525-0.258-0.827c-0.026-0.302,0.001-0.61,0.082-0.927c0.081-0.322,0.209-0.635,0.385-0.937
					c0.177-0.302,0.396-0.577,0.66-0.827c0.242-0.221,0.51-0.399,0.804-0.535c0.293-0.136,0.586-0.204,0.88-0.204
					c0.293,0,0.552,0.068,0.775,0.204c0.224,0.136,0.401,0.314,0.533,0.535c0.146,0.25,0.232,0.525,0.259,0.827
					c0.025,0.302-0.002,0.614-0.083,0.937C231.232,12.288,231.103,12.597,230.927,12.898z M230.262,9.889
					c-0.136-0.118-0.303-0.177-0.501-0.177c-0.19,0-0.383,0.059-0.577,0.177c-0.194,0.118-0.365,0.269-0.512,0.453
					c-0.198,0.236-0.349,0.492-0.451,0.769s-0.19,0.562-0.264,0.856c-0.073,0.287-0.129,0.569-0.165,0.846
					c-0.037,0.276-0.015,0.532,0.065,0.769c0.059,0.191,0.156,0.346,0.292,0.464s0.299,0.177,0.489,0.177
					c0.198,0,0.395-0.059,0.589-0.177s0.364-0.272,0.512-0.464c0.197-0.236,0.348-0.492,0.45-0.769s0.191-0.559,0.265-0.846
					c0.073-0.295,0.128-0.58,0.165-0.856c0.036-0.276,0.015-0.533-0.066-0.769C230.495,10.158,230.397,10.006,230.262,9.889z"/>
			</g>
			<g>
				<path d="M237.668,13.348c-0.081,0.201-0.182,0.385-0.303,0.55c-0.12,0.165-0.258,0.301-0.412,0.407
					c-0.154,0.105-0.33,0.159-0.528,0.159c-0.168,0-0.313-0.037-0.435-0.11c-0.12-0.074-0.212-0.172-0.274-0.293
					c-0.063-0.122-0.098-0.264-0.104-0.426c-0.008-0.162,0.021-0.328,0.088-0.497c0.117-0.316,0.229-0.632,0.336-0.945
					c0.105-0.313,0.199-0.627,0.28-0.944c0.051-0.214,0.088-0.419,0.109-0.613c0.022-0.195,0.012-0.378-0.032-0.547
					c-0.074-0.25-0.228-0.375-0.462-0.375c-0.382,0-0.706,0.132-0.974,0.398c-0.269,0.265-0.505,0.619-0.71,1.061l-0.737,2.939
					c-0.029,0.117-0.088,0.206-0.176,0.265c-0.088,0.06-0.176,0.089-0.264,0.089s-0.159-0.029-0.215-0.089
					c-0.055-0.059-0.067-0.147-0.038-0.265l0.825-3.338c0.073-0.294,0.101-0.545,0.082-0.751c-0.019-0.207-0.119-0.31-0.303-0.31
					c-0.183,0-0.33,0.137-0.439,0.413c-0.11,0.275-0.217,0.621-0.319,1.039c-0.029,0.074-0.077,0.111-0.143,0.111H232.4
					c-0.066,0-0.092-0.037-0.077-0.111c0.044-0.16,0.092-0.34,0.143-0.538c0.052-0.198,0.121-0.383,0.209-0.556
					S232.871,9.754,233,9.64c0.128-0.113,0.287-0.17,0.479-0.17c0.278,0,0.496,0.084,0.654,0.253
					c0.157,0.169,0.243,0.381,0.259,0.638c0.205-0.271,0.438-0.488,0.698-0.649c0.26-0.161,0.563-0.242,0.907-0.242
					c0.205,0,0.395,0.039,0.566,0.116c0.173,0.077,0.307,0.2,0.401,0.37c0.103,0.184,0.152,0.389,0.148,0.617
					c-0.003,0.228-0.034,0.456-0.093,0.684c-0.081,0.323-0.175,0.644-0.281,0.96c-0.106,0.315-0.218,0.635-0.335,0.959
					c-0.11,0.294-0.165,0.544-0.165,0.749c0,0.199,0.084,0.298,0.253,0.298c0.132,0,0.251-0.04,0.357-0.121
					c0.106-0.08,0.201-0.187,0.286-0.318c0.084-0.133,0.159-0.286,0.226-0.463c0.065-0.176,0.121-0.362,0.165-0.561
					c0.029-0.066,0.073-0.099,0.132-0.099h0.132c0.066,0,0.092,0.032,0.077,0.099C237.815,12.949,237.75,13.146,237.668,13.348z"/>
				<path d="M250.929,9.657c-0.188,0.242-0.409,0.451-0.666,0.627c-0.278,0.198-0.576,0.347-0.891,0.446
					c-0.315,0.099-0.627,0.148-0.936,0.148h-1.639l-0.682,2.737c-0.045,0.185-0.037,0.295,0.021,0.331
					c0.059,0.037,0.163,0.058,0.313,0.061c0.15,0.004,0.31,0.006,0.479,0.006c0.081,0,0.113,0.043,0.099,0.128l-0.021,0.085
					c-0.029,0.078-0.081,0.117-0.154,0.117c-0.901-0.044-1.808-0.044-2.717,0c-0.081,0-0.114-0.039-0.099-0.117l0.021-0.085
					c0.022-0.085,0.073-0.128,0.154-0.128c0.169,0,0.33-0.002,0.483-0.006c0.154-0.003,0.271-0.023,0.353-0.061
					c0.08-0.051,0.143-0.161,0.187-0.33l1.508-6.06c0.044-0.184,0.036-0.291-0.022-0.32c-0.059-0.037-0.163-0.059-0.313-0.066
					s-0.31-0.011-0.479-0.011c-0.081,0-0.113-0.04-0.099-0.121l0.032-0.088c0.015-0.081,0.063-0.121,0.144-0.121h3.443
					c0.308,0,0.594,0.05,0.857,0.149c0.264,0.099,0.491,0.247,0.682,0.445c0.169,0.183,0.284,0.401,0.347,0.654
					s0.057,0.519-0.017,0.798S251.116,9.415,250.929,9.657z M250.401,8.205c0.019-0.22-0.027-0.414-0.138-0.583
					c-0.125-0.168-0.29-0.288-0.495-0.357c-0.205-0.069-0.425-0.104-0.66-0.104h-1.012c-0.198,0-0.319,0.019-0.363,0.055
					s-0.088,0.15-0.132,0.341l-0.759,3.025h1.408c0.234,0,0.473-0.035,0.715-0.104c0.242-0.069,0.466-0.188,0.671-0.357
					c0.19-0.168,0.332-0.363,0.424-0.583c0.091-0.22,0.166-0.44,0.226-0.66C250.344,8.648,250.382,8.425,250.401,8.205z"/>
			</g>
			<g>
				<path d="M255.892,12.898c-0.176,0.302-0.399,0.577-0.671,0.827c-0.242,0.22-0.508,0.398-0.798,0.534
					c-0.289,0.136-0.581,0.204-0.874,0.204c-0.301,0-0.563-0.068-0.787-0.204s-0.397-0.314-0.522-0.534
					c-0.146-0.25-0.232-0.525-0.258-0.827c-0.026-0.302,0.001-0.61,0.082-0.927c0.081-0.322,0.209-0.635,0.385-0.937
					c0.177-0.302,0.396-0.577,0.66-0.827c0.242-0.221,0.51-0.399,0.804-0.535c0.293-0.136,0.586-0.204,0.88-0.204
					c0.293,0,0.552,0.068,0.775,0.204c0.224,0.136,0.401,0.314,0.533,0.535c0.146,0.25,0.232,0.525,0.259,0.827
					c0.025,0.302-0.002,0.614-0.083,0.937C256.197,12.288,256.068,12.597,255.892,12.898z M255.227,9.889
					c-0.136-0.118-0.303-0.177-0.501-0.177c-0.19,0-0.383,0.059-0.577,0.177c-0.194,0.118-0.365,0.269-0.512,0.453
					c-0.198,0.236-0.349,0.492-0.451,0.769s-0.19,0.562-0.264,0.856c-0.073,0.287-0.129,0.569-0.165,0.846
					c-0.037,0.276-0.015,0.532,0.065,0.769c0.059,0.191,0.156,0.346,0.292,0.464s0.299,0.177,0.489,0.177
					c0.198,0,0.395-0.059,0.589-0.177s0.364-0.272,0.512-0.464c0.197-0.236,0.348-0.492,0.45-0.769s0.191-0.559,0.265-0.846
					c0.073-0.295,0.128-0.58,0.165-0.856c0.036-0.276,0.015-0.533-0.066-0.769C255.459,10.158,255.362,10.006,255.227,9.889z"/>
				<path d="M261.513,10.625c-0.109,0.073-0.22,0.11-0.33,0.11c-0.109,0-0.203-0.037-0.28-0.11s-0.097-0.184-0.061-0.33
					c0.029-0.117,0.081-0.209,0.154-0.275c0.073-0.066,0.154-0.113,0.242-0.143c-0.147-0.11-0.356-0.165-0.627-0.165
					c-0.286,0-0.539,0.118-0.76,0.354c-0.22,0.236-0.418,0.553-0.594,0.95l-0.781,3.095c-0.029,0.117-0.088,0.206-0.176,0.265
					c-0.088,0.06-0.176,0.089-0.264,0.089s-0.159-0.029-0.215-0.089c-0.055-0.059-0.067-0.147-0.038-0.265l0.825-3.338
					c0.073-0.294,0.101-0.545,0.082-0.751c-0.019-0.207-0.119-0.31-0.303-0.31c-0.183,0-0.33,0.137-0.439,0.413
					c-0.11,0.275-0.217,0.621-0.319,1.039c-0.029,0.074-0.077,0.111-0.143,0.111h-0.121c-0.066,0-0.092-0.037-0.077-0.111
					c0.044-0.16,0.092-0.34,0.143-0.538c0.052-0.198,0.121-0.383,0.209-0.556s0.196-0.315,0.325-0.429
					c0.128-0.113,0.287-0.17,0.479-0.17c0.256,0,0.463,0.075,0.621,0.226c0.157,0.15,0.251,0.343,0.28,0.578
					c0.177-0.242,0.372-0.437,0.589-0.583c0.216-0.147,0.464-0.22,0.742-0.22c0.14,0,0.28,0.014,0.424,0.042
					c0.143,0.028,0.268,0.074,0.374,0.138s0.185,0.148,0.236,0.255c0.051,0.106,0.059,0.236,0.022,0.391
					C261.697,10.441,261.624,10.552,261.513,10.625z"/>
			</g>
			<g>
				<path d="M265.072,9.822c-0.029,0.081-0.081,0.121-0.154,0.121h-1.045l-0.803,3.211c-0.081,0.301-0.11,0.555-0.088,0.76
					c0.021,0.205,0.124,0.308,0.308,0.308c0.146,0,0.284-0.04,0.412-0.121c0.129-0.08,0.248-0.188,0.357-0.324
					c0.11-0.136,0.209-0.292,0.298-0.468c0.088-0.176,0.168-0.363,0.241-0.561c0.008-0.029,0.024-0.052,0.05-0.066
					s0.05-0.021,0.071-0.021h0.132c0.029,0,0.052,0.011,0.066,0.032c0.015,0.022,0.019,0.044,0.011,0.066
					c-0.073,0.205-0.165,0.409-0.274,0.61c-0.11,0.202-0.237,0.384-0.38,0.545s-0.301,0.293-0.473,0.396
					c-0.173,0.103-0.361,0.154-0.566,0.154c-0.177,0-0.329-0.035-0.457-0.104s-0.23-0.165-0.308-0.286s-0.125-0.26-0.144-0.418
					c-0.019-0.157-0.005-0.324,0.039-0.501l0.803-3.211h-1.078c-0.073,0-0.103-0.041-0.088-0.121l0.022-0.088
					c0.028-0.081,0.08-0.121,0.153-0.121h1.067l0.451-1.804c0.029-0.117,0.088-0.205,0.176-0.264s0.176-0.088,0.264-0.088
					s0.161,0.03,0.221,0.088c0.059,0.059,0.072,0.146,0.044,0.264l-0.451,1.804h1.056c0.073,0,0.103,0.041,0.088,0.121
					L265.072,9.822z"/>
			</g>
			<g>
				<path d="M33.296,10.745h-6.865c-0.121,0-0.22-0.099-0.22-0.22s0.099-0.22,0.22-0.22h6.865c0.121,0,0.22,0.099,0.22,0.22
					S33.417,10.745,33.296,10.745z M33.296,12.88h-6.865c-0.121,0-0.22-0.1-0.22-0.221s0.099-0.22,0.22-0.22h6.865
					c0.121,0,0.22,0.099,0.22,0.22S33.417,12.88,33.296,12.88z"/>
			</g>
			<g>
				<path d="M77.725,19.67c-0.022,0.033-0.055,0.049-0.077,0.049c-0.033,0-0.077,0-0.099-0.032
					c-1.661-1.916-2.365-5.043-2.365-8.154c0-3.11,0.704-6.237,2.365-8.153c0.022-0.033,0.055-0.033,0.099-0.033
					c0.022,0,0.055,0.016,0.077,0.049c0.011,0.033,0.022,0.065,0.022,0.115c0,0.033-0.011,0.082-0.033,0.115
					c-1.419,1.981-1.892,4.961-1.892,7.907c0,2.947,0.473,5.928,1.892,7.908c0.022,0.033,0.033,0.065,0.033,0.115
					C77.747,19.604,77.735,19.638,77.725,19.67z"/>
				<path d="M91.859,19.687c-0.022,0.017-0.044,0.032-0.066,0.032H91.76c-0.022,0-0.055-0.016-0.077-0.049
					c-0.011-0.032-0.022-0.065-0.022-0.114c0-0.033,0.011-0.082,0.033-0.115c1.419-1.98,1.893-4.961,1.893-7.908
					c0-2.946-0.473-5.926-1.893-7.907c-0.022-0.033-0.033-0.066-0.033-0.115c0-0.049,0-0.082,0.022-0.115s0.044-0.049,0.077-0.049
					h0.033c0.022,0,0.044,0.016,0.066,0.033c1.662,1.916,2.366,5.042,2.366,8.153C94.225,14.644,93.521,17.771,91.859,19.687z"/>
			</g>
			<g>
				<path d="M160.349,19.67c-0.021,0.033-0.055,0.049-0.076,0.049c-0.033,0-0.077,0-0.1-0.032c-1.661-1.916-2.365-5.043-2.365-8.154
					c0-3.11,0.704-6.237,2.365-8.153c0.022-0.033,0.055-0.033,0.1-0.033c0.021,0,0.055,0.016,0.076,0.049
					c0.012,0.033,0.022,0.065,0.022,0.115c0,0.033-0.011,0.082-0.033,0.115c-1.419,1.981-1.893,4.961-1.893,7.907
					c0,2.947,0.474,5.928,1.893,7.908c0.022,0.033,0.033,0.065,0.033,0.115C160.372,19.604,160.361,19.638,160.349,19.67z"/>
				<path d="M174.484,19.687c-0.022,0.017-0.044,0.032-0.066,0.032h-0.033c-0.021,0-0.055-0.016-0.077-0.049
					c-0.011-0.032-0.021-0.065-0.021-0.114c0-0.033,0.011-0.082,0.033-0.115c1.419-1.98,1.892-4.961,1.892-7.908
					c0-2.946-0.473-5.926-1.892-7.907c-0.022-0.033-0.033-0.066-0.033-0.115c0-0.049,0-0.082,0.021-0.115
					c0.022-0.033,0.044-0.049,0.077-0.049h0.033c0.022,0,0.044,0.016,0.066,0.033c1.661,1.916,2.365,5.042,2.365,8.153
					C176.849,14.644,176.145,17.771,174.484,19.687z"/>
			</g>
			<g>
				<path d="M242.966,19.67c-0.021,0.033-0.055,0.049-0.076,0.049c-0.033,0-0.077,0-0.1-0.032c-1.661-1.916-2.365-5.043-2.365-8.154
					c0-3.11,0.704-6.237,2.365-8.153c0.022-0.033,0.055-0.033,0.1-0.033c0.021,0,0.055,0.016,0.076,0.049
					c0.012,0.033,0.022,0.065,0.022,0.115c0,0.033-0.011,0.082-0.033,0.115c-1.419,1.981-1.893,4.961-1.893,7.907
					c0,2.947,0.474,5.928,1.893,7.908c0.022,0.033,0.033,0.065,0.033,0.115C242.989,19.604,242.978,19.638,242.966,19.67z"/>
				<path d="M266.54,19.687c-0.022,0.017-0.044,0.032-0.066,0.032h-0.033c-0.021,0-0.055-0.016-0.077-0.049
					c-0.011-0.032-0.021-0.065-0.021-0.114c0-0.033,0.011-0.082,0.033-0.115c1.419-1.98,1.892-4.961,1.892-7.908
					c0-2.946-0.473-5.926-1.892-7.907c-0.022-0.033-0.033-0.066-0.033-0.115c0-0.049,0-0.082,0.021-0.115
					c0.022-0.033,0.044-0.049,0.077-0.049h0.033c0.022,0,0.044,0.016,0.066,0.033c1.661,1.916,2.365,5.042,2.365,8.153
					C268.905,14.644,268.201,17.771,266.54,19.687z"/>
			</g>
			<g>
				<path d="M40.029,20.637c-0.022,0.036-0.055,0.055-0.077,0.055c-0.033,0-0.077,0-0.099-0.036
					c-1.661-2.119-2.365-5.579-2.365-9.02c0-3.442,0.704-6.901,2.365-9.021c0.022-0.036,0.055-0.036,0.099-0.036
					c0.022,0,0.055,0.018,0.077,0.054c0.011,0.036,0.022,0.072,0.022,0.127c0,0.036-0.011,0.09-0.033,0.126
					c-1.419,2.192-1.892,5.488-1.892,8.749c0,3.26,0.473,6.556,1.892,8.747c0.022,0.037,0.033,0.073,0.033,0.127
					C40.051,20.564,40.04,20.601,40.029,20.637z"/>
				<path d="M270.226,20.655c-0.022,0.018-0.044,0.036-0.066,0.036h-0.033c-0.021,0-0.055-0.019-0.077-0.055
					c-0.011-0.036-0.021-0.072-0.021-0.127c0-0.036,0.011-0.09,0.033-0.127c1.419-2.191,1.892-5.487,1.892-8.747
					c0-3.261-0.473-6.557-1.892-8.749c-0.022-0.036-0.033-0.072-0.033-0.126c0-0.055,0-0.091,0.021-0.127
					c0.022-0.036,0.044-0.054,0.077-0.054h0.033c0.022,0,0.044,0.018,0.066,0.036c1.661,2.119,2.365,5.579,2.365,9.021
					C272.591,15.076,271.887,18.536,270.226,20.655z"/>
			</g>
			<g>
				<path d="M97.543,15.486c-0.162,0.367-0.389,0.689-0.682,0.969c-0.051,0.036-0.103,0.036-0.154,0l-0.022-0.033
					c-0.044-0.037-0.044-0.085,0-0.144c0.271-0.256,0.482-0.554,0.632-0.891s0.226-0.693,0.226-1.067
					c0-0.028-0.002-0.059-0.005-0.088c-0.004-0.029-0.006-0.059-0.006-0.088c-0.11,0.132-0.26,0.198-0.451,0.198
					c-0.191,0-0.335-0.061-0.435-0.182s-0.148-0.255-0.148-0.401s0.049-0.28,0.148-0.401s0.244-0.182,0.435-0.182
					c0.139,0,0.253,0.037,0.341,0.11s0.16,0.165,0.215,0.274c0.055,0.11,0.093,0.233,0.115,0.369s0.033,0.266,0.033,0.39
					C97.786,14.731,97.705,15.12,97.543,15.486z"/>
				<path d="M180.165,15.486c-0.161,0.367-0.389,0.689-0.682,0.969c-0.052,0.036-0.104,0.036-0.154,0l-0.022-0.033
					c-0.044-0.037-0.044-0.085,0-0.144c0.271-0.256,0.482-0.554,0.633-0.891s0.226-0.693,0.226-1.067
					c0-0.028-0.002-0.059-0.006-0.088c-0.003-0.029-0.005-0.059-0.005-0.088c-0.11,0.132-0.261,0.198-0.451,0.198
					s-0.336-0.061-0.435-0.182s-0.148-0.255-0.148-0.401s0.05-0.28,0.148-0.401s0.244-0.182,0.435-0.182
					c0.139,0,0.253,0.037,0.341,0.11s0.159,0.165,0.215,0.274c0.055,0.11,0.093,0.233,0.115,0.369s0.033,0.266,0.033,0.39
					C180.407,14.731,180.326,15.12,180.165,15.486z"/>
			</g>
		</g>
	</g>
</g>
</svg>
