<?xml version="1.0" encoding="utf-8"?>
<!-- Generator: Adobe Illustrator 14.0.0, SVG Export Plug-In . SVG Version: 6.00 Build 43363)  -->
<!DOCTYPE svg PUBLIC "-//W3C//DTD SVG 1.1//EN" "http://www.w3.org/Graphics/SVG/1.1/DTD/svg11.dtd">
<svg version="1.1" xmlns="http://www.w3.org/2000/svg" xmlns:xlink="http://www.w3.org/1999/xlink" x="0px" y="0px"
	 width="12.441px" height="14.698px" viewBox="0 0 12.441 14.698" style="enable-background:new 0 0 12.441 14.698;"
	 xml:space="preserve">
<g id="Layer_1">
</g>
<g id="Layer_2">
	<g id="theGroup">
		<g>
			<g>
				<path d="M9.099,8.291c-0.084,0.201-0.186,0.385-0.303,0.55S8.543,9.142,8.39,9.248C8.236,9.354,8.06,9.407,7.862,9.407
					c-0.169,0-0.313-0.037-0.435-0.11C7.306,9.223,7.214,9.125,7.153,9.004C7.09,8.882,7.055,8.74,7.047,8.578
					C7.041,8.416,7.07,8.25,7.135,8.081c0.117-0.316,0.228-0.632,0.33-0.945C7.569,6.823,7.66,6.508,7.741,6.191
					c0.059-0.214,0.099-0.418,0.121-0.613C7.883,5.383,7.869,5.2,7.818,5.031C7.745,4.78,7.59,4.655,7.356,4.655
					c-0.381,0-0.708,0.134-0.979,0.403c-0.271,0.269-0.51,0.625-0.715,1.066c-0.11,0.493-0.227,0.983-0.352,1.47
					C5.185,8.081,5.061,8.567,4.936,9.054C4.906,9.171,4.848,9.26,4.76,9.318c-0.088,0.06-0.176,0.089-0.264,0.089
					c-0.088,0-0.161-0.029-0.22-0.089C4.217,9.26,4.203,9.171,4.232,9.054l0.715-2.862c0.059-0.214,0.097-0.418,0.116-0.613
					C5.081,5.383,5.068,5.2,5.024,5.031C4.95,4.78,4.796,4.655,4.562,4.655c-0.382,0-0.708,0.134-0.979,0.403
					c-0.271,0.269-0.51,0.625-0.715,1.066L2.131,9.054C2.102,9.171,2.043,9.26,1.955,9.318c-0.088,0.06-0.176,0.089-0.264,0.089
					s-0.16-0.029-0.215-0.089C1.421,9.26,1.408,9.171,1.438,9.054l0.825-3.337c0.073-0.295,0.101-0.545,0.083-0.751
					c-0.019-0.207-0.119-0.31-0.302-0.31c-0.184,0-0.33,0.137-0.44,0.413c-0.11,0.275-0.217,0.621-0.319,1.039
					c-0.029,0.074-0.077,0.11-0.143,0.11H1.02c-0.066,0-0.092-0.037-0.077-0.11c0.044-0.161,0.091-0.341,0.143-0.539
					C1.137,5.37,1.207,5.185,1.295,5.013C1.383,4.84,1.491,4.697,1.619,4.583c0.128-0.113,0.288-0.17,0.479-0.17
					c0.279,0,0.497,0.086,0.655,0.259C2.91,4.844,2.996,5.059,3.011,5.315c0.205-0.278,0.438-0.499,0.699-0.66
					c0.26-0.161,0.563-0.242,0.907-0.242c0.213,0,0.405,0.039,0.578,0.116c0.172,0.077,0.306,0.2,0.401,0.368
					c0.081,0.147,0.128,0.319,0.143,0.517c0.212-0.308,0.455-0.552,0.726-0.731c0.271-0.18,0.59-0.27,0.957-0.27
					c0.206,0,0.395,0.039,0.567,0.116c0.172,0.077,0.306,0.2,0.401,0.37c0.103,0.184,0.151,0.389,0.148,0.617
					C8.535,5.744,8.503,5.971,8.445,6.199C8.364,6.522,8.27,6.843,8.165,7.158c-0.106,0.316-0.219,0.636-0.336,0.96
					C7.719,8.412,7.664,8.662,7.664,8.867c0,0.199,0.084,0.298,0.253,0.298c0.132,0,0.251-0.04,0.357-0.121
					C8.38,8.964,8.476,8.857,8.56,8.726c0.084-0.133,0.16-0.286,0.226-0.463C8.852,8.087,8.911,7.9,8.961,7.702
					C8.976,7.636,9.02,7.604,9.094,7.604h0.12c0.029,0,0.054,0.009,0.072,0.027c0.018,0.019,0.02,0.042,0.005,0.071
					C9.248,7.893,9.183,8.089,9.099,8.291z"/>
			</g>
			<g>
				<path d="M11.901,13.062H9.542v-0.134c0-0.009,0.005-0.021,0.013-0.038l0.963-1.077c0.119-0.132,0.237-0.268,0.354-0.405
					c0.117-0.138,0.223-0.278,0.316-0.421c0.093-0.143,0.169-0.291,0.226-0.446c0.058-0.155,0.086-0.317,0.086-0.487
					c0-0.141-0.018-0.273-0.054-0.398c-0.036-0.126-0.089-0.236-0.159-0.332s-0.157-0.172-0.262-0.229
					c-0.104-0.057-0.227-0.086-0.366-0.086c-0.204,0-0.385,0.063-0.542,0.188C9.958,9.32,9.848,9.479,9.784,9.67
					c0.047-0.013,0.096-0.016,0.147-0.01c0.051,0.007,0.097,0.023,0.137,0.052c0.04,0.027,0.074,0.064,0.102,0.111
					c0.028,0.047,0.042,0.102,0.042,0.166c0,0.11-0.035,0.194-0.105,0.251c-0.07,0.058-0.147,0.086-0.232,0.086
					c-0.081,0-0.156-0.028-0.227-0.086c-0.07-0.057-0.105-0.141-0.105-0.251c0-0.162,0.031-0.315,0.093-0.46
					c0.061-0.144,0.145-0.27,0.25-0.376c0.105-0.105,0.23-0.189,0.374-0.252c0.145-0.062,0.296-0.092,0.457-0.092
					c0.198,0,0.382,0.03,0.549,0.092c0.167,0.063,0.31,0.149,0.428,0.262s0.211,0.244,0.276,0.396
					c0.065,0.15,0.098,0.315,0.098,0.494c0,0.204-0.044,0.39-0.134,0.558c-0.089,0.168-0.2,0.324-0.334,0.469
					s-0.276,0.28-0.428,0.408c-0.15,0.127-0.288,0.25-0.411,0.369l-0.732,0.714h0.644c0.094,0,0.202,0,0.325,0
					s0.239-0.001,0.348-0.003s0.201-0.006,0.28-0.013c0.078-0.007,0.122-0.014,0.131-0.022c0.017-0.017,0.032-0.048,0.048-0.092
					c0.015-0.045,0.028-0.095,0.041-0.15c0.013-0.055,0.024-0.112,0.035-0.172s0.021-0.115,0.028-0.166h0.173L11.901,13.062z"/>
			</g>
		</g>
	</g>
</g>
</svg>
