<?xml version="1.0" encoding="utf-8"?>
<!-- Generator: Adobe Illustrator 14.0.0, SVG Export Plug-In . SVG Version: 6.00 Build 43363)  -->
<!DOCTYPE svg PUBLIC "-//W3C//DTD SVG 1.1//EN" "http://www.w3.org/Graphics/SVG/1.1/DTD/svg11.dtd">
<svg version="1.1" xmlns="http://www.w3.org/2000/svg" xmlns:xlink="http://www.w3.org/1999/xlink" x="0px" y="0px" width="12.9px"
	 height="14.698px" viewBox="0 0 12.9 14.698" style="enable-background:new 0 0 12.9 14.698;" xml:space="preserve">
<g id="Layer_1">
</g>
<g id="Layer_2">
	<g id="theGroup">
		<g>
			<g>
				<path d="M9.099,8.291c-0.084,0.201-0.186,0.385-0.303,0.55S8.543,9.142,8.39,9.248C8.236,9.354,8.06,9.407,7.862,9.407
					c-0.169,0-0.313-0.037-0.435-0.11C7.306,9.223,7.214,9.125,7.152,9.004C7.09,8.882,7.055,8.74,7.048,8.578
					S7.07,8.25,7.136,8.081c0.117-0.316,0.227-0.632,0.33-0.945c0.103-0.313,0.195-0.628,0.275-0.944
					c0.059-0.214,0.1-0.418,0.121-0.613C7.883,5.383,7.87,5.2,7.818,5.031C7.745,4.78,7.59,4.655,7.356,4.655
					c-0.381,0-0.708,0.134-0.979,0.403c-0.271,0.269-0.51,0.625-0.715,1.066c-0.11,0.493-0.227,0.983-0.352,1.47
					C5.185,8.081,5.061,8.567,4.936,9.054C4.906,9.171,4.848,9.26,4.76,9.318c-0.088,0.06-0.176,0.089-0.264,0.089
					c-0.088,0-0.161-0.029-0.22-0.089C4.217,9.26,4.203,9.171,4.232,9.054l0.715-2.862c0.059-0.214,0.097-0.418,0.116-0.613
					C5.081,5.383,5.068,5.2,5.024,5.031C4.95,4.78,4.796,4.655,4.562,4.655c-0.382,0-0.708,0.134-0.979,0.403
					c-0.271,0.269-0.51,0.625-0.715,1.066L2.131,9.054C2.102,9.171,2.043,9.26,1.955,9.318c-0.088,0.06-0.176,0.089-0.264,0.089
					s-0.16-0.029-0.215-0.089C1.421,9.26,1.408,9.171,1.438,9.054l0.825-3.337c0.073-0.295,0.101-0.545,0.083-0.751
					c-0.019-0.207-0.119-0.31-0.302-0.31c-0.184,0-0.33,0.137-0.44,0.413c-0.11,0.275-0.217,0.621-0.319,1.039
					c-0.029,0.074-0.077,0.11-0.143,0.11H1.02c-0.066,0-0.092-0.037-0.077-0.11c0.044-0.161,0.091-0.341,0.143-0.539
					C1.137,5.37,1.207,5.185,1.295,5.013C1.383,4.84,1.491,4.697,1.619,4.583c0.128-0.113,0.288-0.17,0.479-0.17
					c0.279,0,0.497,0.086,0.655,0.259C2.91,4.844,2.996,5.059,3.011,5.315c0.205-0.278,0.438-0.499,0.699-0.66
					c0.26-0.161,0.563-0.242,0.907-0.242c0.213,0,0.405,0.039,0.578,0.116c0.172,0.077,0.306,0.2,0.401,0.368
					c0.081,0.147,0.128,0.319,0.143,0.517c0.212-0.308,0.455-0.552,0.726-0.731c0.271-0.18,0.59-0.27,0.957-0.27
					c0.206,0,0.394,0.039,0.567,0.116c0.172,0.077,0.306,0.2,0.401,0.37c0.103,0.184,0.151,0.389,0.148,0.617
					C8.535,5.744,8.503,5.971,8.445,6.199C8.364,6.522,8.27,6.843,8.165,7.158c-0.106,0.316-0.219,0.636-0.336,0.96
					C7.719,8.412,7.664,8.662,7.664,8.867c0,0.199,0.085,0.298,0.253,0.298c0.132,0,0.251-0.04,0.357-0.121
					C8.38,8.964,8.476,8.857,8.56,8.726c0.084-0.133,0.16-0.286,0.226-0.463C8.852,8.087,8.911,7.9,8.961,7.702
					C8.976,7.636,9.02,7.604,9.094,7.604h0.12c0.029,0,0.054,0.009,0.072,0.027c0.018,0.019,0.02,0.042,0.005,0.071
					C9.248,7.893,9.183,8.089,9.099,8.291z"/>
			</g>
			<g>
				<path d="M12.752,12.484c-0.047,0.117-0.104,0.224-0.175,0.319s-0.149,0.174-0.239,0.235c-0.089,0.062-0.191,0.093-0.306,0.093
					c-0.098,0-0.182-0.021-0.252-0.064c-0.07-0.042-0.123-0.099-0.159-0.17c-0.036-0.07-0.057-0.152-0.061-0.246
					c-0.005-0.094,0.013-0.19,0.051-0.288c0.067-0.184,0.133-0.366,0.194-0.548s0.116-0.364,0.162-0.548
					c0.03-0.123,0.052-0.242,0.064-0.355s0.006-0.219-0.02-0.316c-0.042-0.146-0.132-0.218-0.268-0.218
					c-0.221,0-0.409,0.076-0.564,0.23c-0.155,0.153-0.292,0.358-0.411,0.614l-0.427,1.704c-0.018,0.068-0.051,0.119-0.103,0.153
					c-0.051,0.034-0.102,0.052-0.152,0.052s-0.093-0.018-0.125-0.052c-0.031-0.034-0.039-0.085-0.021-0.153l0.478-1.935
					c0.043-0.17,0.059-0.315,0.048-0.436c-0.011-0.119-0.069-0.179-0.175-0.179c-0.106,0-0.191,0.079-0.255,0.239
					c-0.064,0.159-0.126,0.359-0.186,0.602c-0.017,0.043-0.045,0.064-0.083,0.064H9.7c-0.039,0-0.054-0.021-0.045-0.064
					c0.025-0.093,0.053-0.197,0.083-0.312c0.029-0.115,0.069-0.223,0.121-0.322c0.051-0.1,0.113-0.183,0.188-0.249
					c0.074-0.065,0.167-0.099,0.277-0.099c0.162,0,0.288,0.049,0.38,0.146c0.091,0.098,0.141,0.222,0.149,0.37
					c0.119-0.157,0.254-0.283,0.405-0.376c0.15-0.094,0.326-0.141,0.525-0.141c0.119,0,0.229,0.022,0.328,0.067
					c0.101,0.045,0.178,0.116,0.233,0.214c0.06,0.106,0.088,0.226,0.086,0.357c-0.002,0.133-0.021,0.265-0.055,0.396
					c-0.047,0.188-0.101,0.373-0.162,0.556c-0.062,0.184-0.127,0.369-0.194,0.557c-0.064,0.17-0.096,0.314-0.096,0.435
					c0,0.114,0.049,0.172,0.146,0.172c0.076,0,0.146-0.023,0.207-0.07c0.062-0.046,0.117-0.108,0.166-0.185s0.092-0.166,0.131-0.268
					c0.038-0.103,0.069-0.211,0.096-0.325c0.017-0.038,0.042-0.058,0.076-0.058h0.076c0.038,0,0.054,0.02,0.045,0.058
					C12.837,12.254,12.799,12.368,12.752,12.484z"/>
			</g>
		</g>
	</g>
</g>
</svg>
