<?xml version="1.0" encoding="utf-8"?>
<!-- Generator: Adobe Illustrator 14.0.0, SVG Export Plug-In . SVG Version: 6.00 Build 43363)  -->
<!DOCTYPE svg PUBLIC "-//W3C//DTD SVG 1.1//EN" "http://www.w3.org/Graphics/SVG/1.1/DTD/svg11.dtd">
<svg version="1.1" xmlns="http://www.w3.org/2000/svg" xmlns:xlink="http://www.w3.org/1999/xlink" x="0px" y="0px"
	 width="98.479px" height="19.219px" viewBox="0 0 98.479 19.219" style="enable-background:new 0 0 98.479 19.219;"
	 xml:space="preserve">
<g id="Layer_1">
</g>
<g id="Layer_2">
	<g id="theGroup">
		<g>
			<g>
				<path d="M10.241,11.645c-0.066,0.483-0.228,0.934-0.484,1.352c-0.183,0.3-0.429,0.532-0.737,0.697
					c-0.308,0.164-0.638,0.247-0.99,0.247c-0.352,0-0.682-0.083-0.99-0.247c-0.308-0.165-0.554-0.397-0.737-0.697
					c-0.257-0.418-0.418-0.868-0.484-1.352c-0.066-0.483-0.099-0.967-0.099-1.45c0-0.498,0.033-0.992,0.099-1.482
					c0.066-0.491,0.228-0.948,0.484-1.373C6.486,7.032,6.732,6.794,7.04,6.625s0.638-0.253,0.99-0.253
					c0.352,0,0.682,0.084,0.99,0.253s0.554,0.406,0.737,0.714c0.257,0.425,0.418,0.882,0.484,1.373
					c0.066,0.491,0.099,0.984,0.099,1.482C10.34,10.678,10.307,11.162,10.241,11.645z M9.421,9.326
					C9.418,9.088,9.409,8.853,9.394,8.622S9.355,8.173,9.323,7.968C9.29,7.763,9.244,7.586,9.185,7.44
					C9.082,7.205,8.928,7.009,8.723,6.851C8.518,6.694,8.287,6.615,8.03,6.615c-0.256,0-0.488,0.079-0.693,0.236
					C7.132,7.009,6.978,7.205,6.875,7.44C6.816,7.586,6.771,7.763,6.737,7.968C6.705,8.173,6.681,8.391,6.666,8.622
					S6.642,9.088,6.639,9.326c-0.004,0.238-0.006,0.467-0.006,0.688c0,0.234,0.002,0.483,0.006,0.748
					c0.003,0.264,0.013,0.521,0.027,0.77s0.039,0.486,0.071,0.71c0.033,0.224,0.079,0.412,0.138,0.566
					c0.095,0.257,0.246,0.469,0.451,0.638c0.205,0.169,0.44,0.253,0.704,0.253c0.264,0,0.499-0.084,0.704-0.253
					c0.206-0.169,0.356-0.381,0.451-0.638c0.059-0.154,0.104-0.343,0.138-0.566c0.033-0.224,0.057-0.461,0.071-0.71
					s0.024-0.506,0.027-0.77c0.004-0.265,0.006-0.514,0.006-0.748C9.427,9.793,9.425,9.564,9.421,9.326z"/>
				<path d="M14.806,13.699v-0.341c0.095,0,0.198,0,0.308,0s0.216-0.002,0.319-0.006s0.2-0.011,0.292-0.021
					c0.092-0.012,0.167-0.024,0.226-0.039c0.073-0.015,0.13-0.053,0.17-0.115c0.041-0.063,0.061-0.134,0.061-0.215v-5.85
					c-0.213,0.106-0.442,0.182-0.688,0.227c-0.246,0.046-0.497,0.068-0.753,0.068V7.066c0.374,0,0.737-0.051,1.089-0.154
					c0.352-0.103,0.656-0.29,0.913-0.561h0.132c0.081,0,0.121,0.041,0.121,0.121v6.49c0,0.081,0.02,0.152,0.061,0.215
					s0.097,0.101,0.17,0.115c0.059,0.015,0.132,0.027,0.22,0.039c0.088,0.011,0.185,0.018,0.292,0.021
					c0.106,0.004,0.214,0.006,0.324,0.006c0.11,0,0.213,0,0.308,0v0.341C17.182,13.655,15.994,13.655,14.806,13.699z"/>
			</g>
			<g>
				<path d="M54.46,11.645c-0.066,0.483-0.228,0.934-0.484,1.352c-0.184,0.3-0.429,0.532-0.737,0.697
					c-0.308,0.164-0.638,0.247-0.989,0.247c-0.353,0-0.683-0.083-0.99-0.247c-0.308-0.165-0.554-0.397-0.737-0.697
					c-0.257-0.418-0.418-0.868-0.483-1.352c-0.066-0.483-0.1-0.967-0.1-1.45c0-0.498,0.033-0.992,0.1-1.482
					c0.065-0.491,0.227-0.948,0.483-1.373c0.184-0.308,0.43-0.545,0.737-0.714s0.638-0.253,0.99-0.253
					c0.352,0,0.682,0.084,0.989,0.253c0.309,0.168,0.554,0.406,0.737,0.714c0.257,0.425,0.418,0.882,0.484,1.373
					c0.065,0.491,0.099,0.984,0.099,1.482C54.559,10.678,54.525,11.162,54.46,11.645z M53.641,9.326
					c-0.004-0.238-0.014-0.473-0.028-0.704s-0.038-0.449-0.071-0.654c-0.033-0.205-0.079-0.381-0.138-0.528
					c-0.103-0.235-0.256-0.431-0.462-0.589c-0.205-0.157-0.436-0.236-0.692-0.236s-0.488,0.079-0.693,0.236
					c-0.205,0.158-0.359,0.354-0.462,0.589c-0.059,0.146-0.104,0.323-0.138,0.528c-0.033,0.206-0.057,0.423-0.071,0.654
					s-0.023,0.466-0.027,0.704s-0.006,0.467-0.006,0.688c0,0.234,0.002,0.483,0.006,0.748c0.004,0.264,0.013,0.521,0.027,0.77
					s0.038,0.486,0.071,0.71s0.079,0.412,0.138,0.566c0.096,0.257,0.246,0.469,0.451,0.638s0.439,0.253,0.704,0.253
					c0.264,0,0.498-0.084,0.704-0.253c0.205-0.169,0.355-0.381,0.45-0.638c0.059-0.154,0.104-0.343,0.138-0.566
					s0.057-0.461,0.071-0.71s0.024-0.506,0.028-0.77c0.003-0.265,0.005-0.514,0.005-0.748C53.646,9.793,53.644,9.564,53.641,9.326z"
					/>
				<path d="M59.024,13.699v-0.341c0.096,0,0.198,0,0.308,0c0.11,0,0.217-0.002,0.319-0.006s0.2-0.011,0.292-0.021
					c0.091-0.012,0.166-0.024,0.226-0.039c0.073-0.015,0.13-0.053,0.17-0.115s0.061-0.134,0.061-0.215v-5.85
					c-0.213,0.106-0.441,0.182-0.688,0.227c-0.246,0.046-0.497,0.068-0.754,0.068V7.066c0.374,0,0.737-0.051,1.09-0.154
					c0.352-0.103,0.656-0.29,0.913-0.561h0.132c0.08,0,0.121,0.041,0.121,0.121v6.49c0,0.081,0.02,0.152,0.061,0.215
					c0.04,0.063,0.097,0.101,0.17,0.115c0.059,0.015,0.132,0.027,0.22,0.039c0.089,0.011,0.186,0.018,0.292,0.021
					s0.215,0.006,0.324,0.006c0.11,0,0.213,0,0.309,0v0.341C61.4,13.655,60.213,13.655,59.024,13.699z"/>
			</g>
			<g>
				<path d="M12.116,14.842c-0.162,0.367-0.389,0.689-0.682,0.969c-0.051,0.036-0.103,0.036-0.154,0l-0.022-0.033
					c-0.044-0.037-0.044-0.085,0-0.144c0.271-0.256,0.482-0.554,0.632-0.891s0.226-0.693,0.226-1.067
					c0-0.028-0.002-0.059-0.005-0.088c-0.004-0.029-0.006-0.059-0.006-0.088c-0.11,0.132-0.26,0.198-0.451,0.198
					c-0.191,0-0.335-0.061-0.435-0.182s-0.148-0.255-0.148-0.401s0.049-0.28,0.148-0.401s0.244-0.182,0.435-0.182
					c0.139,0,0.253,0.037,0.341,0.11s0.16,0.165,0.215,0.274c0.055,0.11,0.093,0.233,0.115,0.369s0.033,0.266,0.033,0.39
					C12.358,14.087,12.277,14.476,12.116,14.842z"/>
				<path d="M56.336,14.842c-0.161,0.367-0.389,0.689-0.682,0.969c-0.052,0.036-0.104,0.036-0.154,0l-0.022-0.033
					c-0.044-0.037-0.044-0.085,0-0.144c0.271-0.256,0.482-0.554,0.633-0.891s0.226-0.693,0.226-1.067
					c0-0.028-0.002-0.059-0.006-0.088c-0.003-0.029-0.005-0.059-0.005-0.088c-0.11,0.132-0.261,0.198-0.451,0.198
					s-0.336-0.061-0.435-0.182s-0.148-0.255-0.148-0.401s0.05-0.28,0.148-0.401s0.244-0.182,0.435-0.182
					c0.139,0,0.253,0.037,0.341,0.11s0.159,0.165,0.215,0.274c0.055,0.11,0.093,0.233,0.115,0.369s0.033,0.266,0.033,0.39
					C56.578,14.087,56.497,14.476,56.336,14.842z"/>
			</g>
			<g>
				<path d="M26.257,2.815C26.21,2.828,26.167,2.82,26.129,2.79l-0.829-0.612l0.096,1.065c0.004,0.046-0.011,0.088-0.045,0.124
					c-0.034,0.036-0.078,0.054-0.13,0.054c-0.053,0-0.097-0.018-0.131-0.054s-0.049-0.078-0.044-0.124l0.095-1.065L24.306,2.79
					c-0.038,0.03-0.081,0.038-0.127,0.025s-0.083-0.041-0.108-0.083c-0.025-0.047-0.034-0.092-0.025-0.137
					c0.008-0.044,0.036-0.077,0.083-0.099l0.943-0.453l-0.943-0.446c-0.047-0.021-0.075-0.055-0.083-0.102
					c-0.009-0.046,0-0.091,0.025-0.134c0.025-0.047,0.062-0.077,0.108-0.089s0.089-0.004,0.127,0.025l0.841,0.619l-0.095-1.071
					c-0.004-0.047,0.01-0.087,0.044-0.122c0.034-0.034,0.075-0.051,0.125-0.051c0.049,0,0.09,0.017,0.124,0.051
					c0.034,0.034,0.049,0.075,0.045,0.122l-0.096,1.071l0.835-0.619c0.038-0.029,0.081-0.038,0.127-0.025s0.083,0.042,0.108,0.089
					c0.025,0.042,0.034,0.087,0.025,0.134c-0.008,0.047-0.036,0.081-0.083,0.102l-0.944,0.446l0.944,0.453
					c0.046,0.021,0.074,0.054,0.083,0.099c0.009,0.045,0,0.09-0.025,0.137C26.34,2.775,26.304,2.803,26.257,2.815z"/>
			</g>
			<g>
				<path d="M4.667,19.081c-1.056,0-2.2-0.638-2.2-2.161v-3.994c0-1.064-0.682-1.851-1.474-1.851c-0.055,0-0.11-0.065-0.11-0.164
					v-0.032c0-0.099,0.055-0.164,0.11-0.164c0.792,0,1.474-0.786,1.474-1.85V4.87c0-1.523,1.144-2.161,2.2-2.161
					c0.055,0,0.11,0.065,0.11,0.164v0.049c0,0.082-0.055,0.147-0.11,0.147c-0.781,0-1.474,0.753-1.474,1.801v3.995
					c0,1.097-0.583,1.752-1.309,2.031c0.726,0.278,1.309,0.933,1.309,2.03v3.994c0,1.048,0.693,1.802,1.474,1.802
					c0.055,0,0.11,0.065,0.11,0.146v0.05C4.776,19.015,4.722,19.081,4.667,19.081z"/>
				<path d="M23.234,11.075c-0.792,0-1.474,0.786-1.474,1.851v3.994c0,1.523-1.144,2.161-2.2,2.161c-0.055,0-0.11-0.065-0.11-0.163
					v-0.05c0-0.081,0.055-0.146,0.11-0.146c0.781,0,1.474-0.754,1.474-1.802v-3.994c0-1.098,0.583-1.752,1.309-2.03
					c-0.726-0.278-1.309-0.934-1.309-2.031V4.87c0-1.048-0.693-1.801-1.474-1.801c-0.055,0-0.11-0.065-0.11-0.147V2.872
					c0-0.098,0.055-0.164,0.11-0.164c1.056,0,2.2,0.638,2.2,2.161v3.995c0,1.064,0.682,1.85,1.474,1.85
					c0.055,0,0.11,0.065,0.11,0.164v0.032C23.344,11.009,23.29,11.075,23.234,11.075z"/>
			</g>
			<g>
				<path d="M40.938,11.058c-0.792,0.33-1.419,0.969-1.727,1.771c-0.012,0.044-0.056,0.077-0.11,0.077h-0.1l-0.032-0.011
					c-0.056-0.022-0.088-0.066-0.088-0.11c0.132-0.693,0.659-1.21,1.199-1.617h-8.604c-0.297,0-0.297-0.44,0-0.44h8.604
					c-0.54-0.407-1.067-0.935-1.199-1.617c0-0.044,0.032-0.088,0.088-0.11l0.032-0.011h0.1c0.044,0,0.099,0.033,0.11,0.077
					c0.308,0.804,0.935,1.441,1.727,1.771c0.022,0.011,0.044,0.033,0.066,0.066c0.011,0.021,0.011,0.055,0,0.088
					C40.993,11.025,40.96,11.047,40.938,11.058z"/>
			</g>
			<g>
				<path d="M48.869,19.081c-1.056,0-2.2-0.638-2.2-2.161v-3.994c0-1.064-0.682-1.851-1.474-1.851c-0.056,0-0.11-0.065-0.11-0.164
					v-0.032c0-0.099,0.055-0.164,0.11-0.164c0.792,0,1.474-0.786,1.474-1.85V4.87c0-1.523,1.145-2.161,2.2-2.161
					c0.056,0,0.11,0.065,0.11,0.164v0.049c0,0.082-0.055,0.147-0.11,0.147c-0.78,0-1.474,0.753-1.474,1.801v3.995
					c0,1.097-0.583,1.752-1.31,2.031c0.727,0.278,1.31,0.933,1.31,2.03v3.994c0,1.048,0.693,1.802,1.474,1.802
					c0.056,0,0.11,0.065,0.11,0.146v0.05C48.979,19.015,48.925,19.081,48.869,19.081z"/>
				<path d="M67.438,11.075c-0.792,0-1.474,0.786-1.474,1.851v3.994c0,1.523-1.145,2.161-2.2,2.161c-0.056,0-0.11-0.065-0.11-0.163
					v-0.05c0-0.081,0.055-0.146,0.11-0.146c0.781,0,1.474-0.754,1.474-1.802v-3.994c0-1.098,0.583-1.752,1.31-2.03
					c-0.727-0.278-1.31-0.934-1.31-2.031V4.87c0-1.048-0.692-1.801-1.474-1.801c-0.056,0-0.11-0.065-0.11-0.147V2.872
					c0-0.098,0.055-0.164,0.11-0.164c1.056,0,2.2,0.638,2.2,2.161v3.995c0,1.064,0.682,1.85,1.474,1.85
					c0.056,0,0.11,0.065,0.11,0.164v0.032C67.548,11.009,67.493,11.075,67.438,11.075z"/>
			</g>
			<g>
				<path d="M71.357,4.877c-0.047,0.117-0.104,0.223-0.175,0.319s-0.149,0.174-0.239,0.236c-0.089,0.062-0.191,0.093-0.306,0.093
					c-0.098,0-0.182-0.021-0.252-0.064c-0.07-0.042-0.123-0.099-0.159-0.169s-0.057-0.153-0.061-0.247
					c-0.005-0.094,0.013-0.19,0.051-0.288c0.067-0.184,0.133-0.366,0.194-0.548s0.116-0.364,0.162-0.547
					c0.03-0.124,0.052-0.243,0.064-0.355c0.013-0.113,0.006-0.219-0.02-0.317c-0.042-0.145-0.132-0.218-0.268-0.218
					c-0.221,0-0.409,0.077-0.564,0.231c-0.155,0.153-0.292,0.358-0.411,0.615L68.948,5.32c-0.018,0.068-0.051,0.12-0.103,0.154
					c-0.051,0.034-0.102,0.051-0.152,0.051s-0.093-0.017-0.125-0.051c-0.031-0.034-0.039-0.085-0.021-0.154l0.478-1.934
					c0.043-0.171,0.059-0.316,0.048-0.436s-0.069-0.18-0.175-0.18c-0.106,0-0.191,0.08-0.255,0.239
					c-0.064,0.159-0.126,0.36-0.186,0.603c-0.017,0.042-0.045,0.063-0.083,0.063h-0.069c-0.039,0-0.054-0.021-0.045-0.063
					c0.025-0.094,0.053-0.198,0.083-0.313c0.029-0.115,0.069-0.222,0.121-0.322c0.051-0.1,0.113-0.183,0.188-0.249
					s0.167-0.099,0.277-0.099c0.162,0,0.288,0.049,0.38,0.146c0.091,0.098,0.141,0.221,0.149,0.37
					c0.119-0.157,0.254-0.283,0.405-0.376c0.15-0.093,0.326-0.14,0.525-0.14c0.119,0,0.229,0.022,0.328,0.067
					c0.101,0.044,0.178,0.116,0.233,0.214c0.06,0.106,0.088,0.226,0.086,0.358c-0.002,0.132-0.021,0.264-0.055,0.396
					c-0.047,0.188-0.101,0.373-0.162,0.556s-0.127,0.368-0.194,0.556c-0.064,0.17-0.096,0.315-0.096,0.435
					c0,0.115,0.049,0.172,0.146,0.172c0.076,0,0.146-0.023,0.207-0.07S71,5.206,71.049,5.129s0.092-0.166,0.131-0.268
					c0.038-0.102,0.069-0.21,0.096-0.325c0.017-0.038,0.042-0.058,0.076-0.058h0.076c0.038,0,0.054,0.02,0.045,0.058
					C71.442,4.647,71.404,4.761,71.357,4.877z"/>
			</g>
		</g>
	</g>
</g>
</svg>
