<?xml version="1.0" encoding="utf-8"?>
<!-- Generator: Adobe Illustrator 14.0.0, SVG Export Plug-In . SVG Version: 6.00 Build 43363)  -->
<!DOCTYPE svg PUBLIC "-//W3C//DTD SVG 1.1//EN" "http://www.w3.org/Graphics/SVG/1.1/DTD/svg11.dtd">
<svg version="1.1" xmlns="http://www.w3.org/2000/svg" xmlns:xlink="http://www.w3.org/1999/xlink" x="0px" y="0px"
	 width="164.766px" height="20.807px" viewBox="0 0 164.766 20.807" style="enable-background:new 0 0 164.766 20.807;"
	 xml:space="preserve">
<g id="Layer_1">
</g>
<g id="Layer_2">
	<g id="theGroup">
		<g>
			<g>
				<path d="M7.934,13.686c-0.077,0.15-0.17,0.286-0.28,0.406c-0.11,0.121-0.233,0.221-0.369,0.298
					c-0.136,0.076-0.281,0.115-0.435,0.115c-0.506,0-0.884-0.136-1.133-0.407c-0.25-0.271-0.312-0.66-0.187-1.166l0.242-0.968
					c0.044-0.184,0.055-0.357,0.033-0.522s-0.075-0.308-0.16-0.429s-0.192-0.217-0.324-0.287c-0.132-0.068-0.286-0.104-0.462-0.104
					H3.605l-0.726,2.914c-0.044,0.177-0.033,0.287,0.033,0.331c0.059,0.037,0.163,0.058,0.313,0.061
					c0.15,0.004,0.31,0.006,0.479,0.006c0.081,0,0.11,0.043,0.088,0.128L3.77,14.146c-0.029,0.078-0.081,0.117-0.154,0.117
					c-0.888-0.044-1.782-0.044-2.684,0c-0.081,0-0.114-0.039-0.099-0.117l0.022-0.085c0.022-0.085,0.073-0.128,0.154-0.128
					c0.168,0,0.33-0.002,0.484-0.006c0.154-0.003,0.271-0.023,0.352-0.061c0.081-0.051,0.143-0.161,0.187-0.33l1.507-6.06
					c0.044-0.184,0.037-0.291-0.022-0.32C3.458,7.12,3.354,7.098,3.204,7.091S2.894,7.08,2.725,7.08
					c-0.081,0-0.114-0.04-0.099-0.121l0.033-0.088C2.674,6.79,2.721,6.75,2.802,6.75h3.025c0.337,0,0.656,0.046,0.957,0.138
					s0.561,0.24,0.781,0.445c0.184,0.169,0.319,0.374,0.407,0.616s0.095,0.502,0.022,0.781C7.928,9.008,7.791,9.262,7.582,9.489
					c-0.209,0.228-0.445,0.422-0.709,0.583c-0.183,0.11-0.37,0.202-0.561,0.275s-0.381,0.132-0.572,0.176
					c0.3,0.118,0.539,0.295,0.715,0.533C6.63,11.294,6.7,11.59,6.663,11.942L6.564,12.91c-0.044,0.418-0.051,0.747-0.022,0.989
					s0.154,0.363,0.374,0.363c0.191,0,0.361-0.101,0.512-0.303c0.15-0.201,0.262-0.445,0.335-0.731
					c0.029-0.08,0.081-0.121,0.154-0.121h0.088c0.081,0,0.113,0.041,0.099,0.121C8.067,13.383,8.011,13.535,7.934,13.686z
					 M7.048,8.075c0.007-0.216-0.052-0.398-0.176-0.544C6.733,7.362,6.551,7.245,6.328,7.179S5.864,7.08,5.607,7.08H4.892
					c-0.198,0-0.319,0.019-0.363,0.055s-0.088,0.15-0.132,0.341L3.671,10.38h1.111c0.256,0,0.511-0.033,0.765-0.099
					c0.253-0.066,0.493-0.183,0.72-0.352c0.198-0.146,0.347-0.328,0.445-0.544C6.812,9.168,6.89,8.95,6.949,8.729
					C7.008,8.51,7.041,8.292,7.048,8.075z"/>
				<path d="M13.373,12.818c-0.176,0.302-0.4,0.577-0.671,0.827c-0.242,0.22-0.508,0.398-0.797,0.534
					c-0.29,0.136-0.582,0.204-0.875,0.204c-0.301,0-0.563-0.068-0.787-0.204s-0.398-0.314-0.522-0.534
					c-0.147-0.25-0.233-0.525-0.259-0.827c-0.025-0.302,0.002-0.61,0.083-0.927c0.081-0.322,0.209-0.635,0.385-0.937
					c0.176-0.302,0.396-0.577,0.66-0.827c0.242-0.221,0.509-0.399,0.803-0.535c0.293-0.136,0.586-0.204,0.88-0.204
					s0.552,0.068,0.776,0.204c0.224,0.136,0.401,0.314,0.533,0.535c0.146,0.25,0.233,0.525,0.259,0.827
					c0.025,0.302-0.002,0.614-0.083,0.937C13.677,12.208,13.549,12.517,13.373,12.818z M12.708,9.809
					c-0.136-0.118-0.302-0.177-0.5-0.177c-0.191,0-0.383,0.059-0.578,0.177c-0.194,0.118-0.365,0.269-0.511,0.453
					c-0.198,0.236-0.349,0.492-0.451,0.769s-0.19,0.562-0.264,0.856c-0.074,0.287-0.128,0.569-0.165,0.846
					c-0.037,0.276-0.015,0.532,0.066,0.769c0.059,0.191,0.156,0.346,0.292,0.464s0.299,0.177,0.489,0.177
					c0.198,0,0.394-0.059,0.589-0.177c0.194-0.118,0.365-0.272,0.511-0.464c0.198-0.236,0.348-0.492,0.451-0.769
					c0.103-0.276,0.19-0.559,0.264-0.846c0.073-0.295,0.128-0.58,0.165-0.856s0.015-0.533-0.066-0.769
					C12.94,10.078,12.843,9.926,12.708,9.809z"/>
			</g>
			<g>
				<path d="M21.509,9.89c0.019,0.165,0.017,0.345-0.005,0.539s-0.055,0.392-0.099,0.594s-0.088,0.383-0.132,0.544
					c-0.081,0.301-0.17,0.616-0.27,0.946s-0.224,0.635-0.374,0.913s-0.332,0.508-0.544,0.688c-0.213,0.18-0.473,0.27-0.781,0.27
					c-0.242,0-0.467-0.042-0.676-0.127c-0.209-0.084-0.373-0.222-0.49-0.412c-0.015-0.029-0.029-0.057-0.044-0.083
					c-0.015-0.025-0.029-0.057-0.044-0.093c-0.125,0.213-0.271,0.385-0.44,0.517c-0.169,0.132-0.371,0.198-0.605,0.198
					c-0.25,0-0.484-0.041-0.704-0.122c-0.22-0.081-0.392-0.217-0.517-0.408c-0.132-0.206-0.2-0.44-0.203-0.702
					c-0.004-0.262,0.027-0.524,0.093-0.79c0.059-0.243,0.141-0.514,0.248-0.812c0.106-0.299,0.211-0.588,0.313-0.868
					c0.11-0.302,0.165-0.553,0.165-0.751s-0.084-0.298-0.253-0.298c-0.132,0-0.251,0.039-0.357,0.115
					c-0.106,0.077-0.202,0.182-0.286,0.313c-0.084,0.132-0.16,0.286-0.226,0.462s-0.121,0.363-0.165,0.561
					c-0.029,0.074-0.077,0.111-0.143,0.111h-0.121c-0.066,0-0.092-0.037-0.077-0.111c0.051-0.189,0.117-0.387,0.198-0.588
					c0.081-0.202,0.182-0.385,0.303-0.55s0.258-0.299,0.413-0.402c0.154-0.103,0.33-0.154,0.528-0.154
					c0.168,0,0.312,0.037,0.429,0.11c0.117,0.074,0.207,0.173,0.27,0.298c0.062,0.125,0.095,0.266,0.099,0.424
					c0.004,0.158-0.024,0.321-0.083,0.491c-0.103,0.279-0.205,0.565-0.308,0.86c-0.103,0.293-0.184,0.559-0.242,0.793
					c-0.059,0.243-0.097,0.479-0.116,0.706c-0.018,0.228,0.013,0.438,0.094,0.628c0.059,0.141,0.15,0.249,0.275,0.326
					s0.271,0.115,0.44,0.115c0.191,0,0.357-0.088,0.5-0.264s0.273-0.403,0.391-0.683c-0.007-0.132-0.002-0.268,0.017-0.406
					c0.018-0.14,0.045-0.279,0.083-0.418l0.616-2.498c0.029-0.117,0.088-0.203,0.176-0.258c0.088-0.055,0.176-0.083,0.264-0.083
					c0.088,0,0.162,0.027,0.22,0.083s0.073,0.141,0.044,0.258l-0.627,2.498c-0.059,0.241-0.097,0.477-0.116,0.703
					c-0.018,0.228,0.006,0.437,0.072,0.628c0.051,0.132,0.134,0.238,0.248,0.318c0.113,0.081,0.248,0.121,0.401,0.121
					c0.227,0,0.421-0.071,0.583-0.215c0.161-0.143,0.301-0.333,0.418-0.571s0.222-0.514,0.313-0.825s0.178-0.633,0.259-0.963
					c0.066-0.278,0.077-0.539,0.033-0.781c-0.044-0.241-0.15-0.447-0.319-0.615c-0.088-0.088-0.12-0.191-0.094-0.308
					s0.083-0.218,0.17-0.303c0.088-0.084,0.191-0.137,0.308-0.159s0.22,0.011,0.308,0.099C21.434,9.595,21.491,9.725,21.509,9.89z"
					/>
				<path d="M37.96,6.958c-0.007,0.037-0.026,0.066-0.055,0.088S37.843,7.08,37.806,7.08c-0.169,0-0.336,0.004-0.5,0.011
					c-0.165,0.007-0.288,0.029-0.369,0.066c-0.088,0.029-0.154,0.136-0.198,0.32l-1.507,6.06c-0.044,0.184-0.033,0.294,0.033,0.33
					c0.059,0.037,0.168,0.058,0.33,0.061c0.162,0.004,0.33,0.006,0.506,0.006c0.081,0,0.11,0.043,0.088,0.128l-0.022,0.085
					c-0.029,0.078-0.081,0.117-0.154,0.117c-0.924-0.044-1.866-0.044-2.827,0c-0.074,0-0.103-0.039-0.088-0.117l0.022-0.085
					c0.022-0.085,0.073-0.128,0.154-0.128c0.176,0,0.347-0.002,0.512-0.006c0.165-0.003,0.288-0.023,0.368-0.061
					c0.081-0.044,0.143-0.154,0.187-0.33l1.518-6.06c0.044-0.177,0.033-0.283-0.033-0.32c-0.066-0.037-0.18-0.059-0.341-0.066
					S35.159,7.08,34.99,7.08c-0.081,0-0.114-0.04-0.099-0.121l0.022-0.088c0.029-0.081,0.081-0.121,0.154-0.121
					c0.938,0.037,1.881,0.037,2.827,0c0.037,0,0.064,0.011,0.083,0.033c0.018,0.022,0.02,0.051,0.005,0.088L37.96,6.958z"/>
			</g>
			<g>
				<path d="M44.57,11.964c-0.261,0.447-0.589,0.854-0.985,1.221c-0.359,0.33-0.751,0.593-1.177,0.787s-0.851,0.291-1.276,0.291
					h-3.575c-0.081,0-0.114-0.039-0.099-0.117l0.022-0.085c0.022-0.085,0.073-0.128,0.154-0.128c0.168,0,0.33-0.002,0.484-0.006
					c0.154-0.003,0.271-0.023,0.352-0.061c0.081-0.051,0.143-0.161,0.187-0.33l1.507-6.06c0.044-0.184,0.037-0.291-0.022-0.32
					c-0.059-0.037-0.163-0.059-0.313-0.066S39.519,7.08,39.35,7.08c-0.081,0-0.114-0.04-0.099-0.121l0.033-0.088
					c0.015-0.081,0.062-0.121,0.143-0.121h3.586c0.433,0,0.81,0.103,1.133,0.308c0.323,0.206,0.58,0.477,0.77,0.814
					c0.213,0.381,0.333,0.805,0.363,1.271c0.029,0.466-0.019,0.944-0.143,1.436C45.019,11.055,44.83,11.517,44.57,11.964z
					 M43.613,7.344c-0.268-0.176-0.582-0.265-0.94-0.265h-1.155c-0.198,0-0.319,0.019-0.363,0.055
					c-0.044,0.037-0.088,0.151-0.132,0.342l-1.518,6.06c-0.051,0.198-0.062,0.315-0.033,0.353c0.029,0.029,0.139,0.044,0.33,0.044
					h1.155c0.359,0,0.717-0.082,1.073-0.248c0.355-0.165,0.672-0.395,0.951-0.688c0.323-0.345,0.568-0.727,0.737-1.146
					c0.168-0.419,0.304-0.842,0.407-1.267c0.11-0.441,0.187-0.878,0.231-1.311c0.044-0.434-0.007-0.834-0.154-1.201
					C44.076,7.763,43.88,7.521,43.613,7.344z"/>
				<path d="M75.243,13.268c-0.081,0.201-0.182,0.385-0.303,0.55s-0.259,0.301-0.412,0.407c-0.154,0.105-0.33,0.159-0.528,0.159
					c-0.169,0-0.312-0.037-0.429-0.11c-0.117-0.074-0.209-0.172-0.275-0.293c-0.065-0.122-0.101-0.264-0.104-0.426
					s0.023-0.328,0.083-0.497c0.117-0.316,0.229-0.632,0.335-0.945c0.106-0.313,0.2-0.627,0.28-0.944
					c0.052-0.214,0.089-0.419,0.11-0.613c0.022-0.195,0.011-0.378-0.033-0.547c-0.073-0.25-0.228-0.375-0.462-0.375
					c-0.381,0-0.706,0.132-0.974,0.398c-0.268,0.265-0.504,0.619-0.709,1.061l-0.737,2.939c-0.029,0.117-0.088,0.206-0.176,0.265
					c-0.088,0.06-0.176,0.089-0.264,0.089c-0.089,0-0.162-0.029-0.221-0.088c-0.059-0.06-0.073-0.147-0.044-0.265l1.617-6.467
					c0.029-0.118,0.048-0.208,0.055-0.27c0.008-0.063-0.007-0.108-0.044-0.138c-0.051-0.037-0.139-0.061-0.264-0.072
					c-0.125-0.011-0.264-0.016-0.418-0.016c-0.037,0-0.064-0.011-0.083-0.032c-0.018-0.021-0.02-0.05-0.005-0.086l0.021-0.086
					c0.022-0.064,0.073-0.104,0.154-0.118l1.397-0.118c0.036-0.007,0.065,0.001,0.088,0.027c0.021,0.025,0.025,0.057,0.011,0.093
					l-0.858,3.422c0.198-0.235,0.42-0.424,0.666-0.567c0.245-0.143,0.529-0.214,0.853-0.214c0.205,0,0.394,0.039,0.566,0.116
					c0.172,0.077,0.306,0.2,0.401,0.37c0.103,0.184,0.152,0.389,0.148,0.617c-0.004,0.228-0.035,0.456-0.094,0.684
					c-0.08,0.323-0.176,0.644-0.286,0.96c-0.109,0.315-0.224,0.635-0.341,0.959c-0.109,0.294-0.163,0.542-0.159,0.744
					s0.09,0.303,0.259,0.303c0.132,0,0.249-0.04,0.352-0.121c0.103-0.08,0.196-0.187,0.28-0.318c0.085-0.133,0.16-0.286,0.226-0.463
					c0.066-0.176,0.125-0.362,0.176-0.561c0.015-0.066,0.059-0.099,0.133-0.099h0.121c0.072,0,0.103,0.032,0.088,0.099
					C75.389,12.869,75.323,13.065,75.243,13.268z"/>
			</g>
			<g>
				<path d="M88.446,9.577c-0.188,0.242-0.409,0.451-0.666,0.627c-0.278,0.198-0.576,0.347-0.891,0.446
					c-0.315,0.099-0.627,0.148-0.936,0.148h-1.639l-0.682,2.737c-0.045,0.185-0.037,0.295,0.021,0.331
					c0.059,0.037,0.163,0.058,0.313,0.061c0.15,0.004,0.31,0.006,0.479,0.006c0.081,0,0.113,0.043,0.099,0.128l-0.021,0.085
					c-0.029,0.078-0.081,0.117-0.154,0.117c-0.901-0.044-1.808-0.044-2.717,0c-0.081,0-0.114-0.039-0.099-0.117l0.021-0.085
					c0.022-0.085,0.073-0.128,0.154-0.128c0.169,0,0.33-0.002,0.483-0.006c0.154-0.003,0.271-0.023,0.353-0.061
					c0.08-0.051,0.143-0.161,0.187-0.33l1.508-6.06c0.044-0.184,0.036-0.291-0.022-0.32c-0.059-0.037-0.163-0.059-0.313-0.066
					s-0.31-0.011-0.479-0.011c-0.081,0-0.113-0.04-0.099-0.121l0.032-0.088c0.015-0.081,0.063-0.121,0.144-0.121h3.443
					c0.308,0,0.594,0.05,0.857,0.149c0.264,0.099,0.491,0.247,0.682,0.445c0.169,0.183,0.284,0.401,0.347,0.654
					s0.057,0.519-0.017,0.798S88.632,9.334,88.446,9.577z M87.917,8.125c0.019-0.22-0.027-0.414-0.138-0.583
					c-0.125-0.168-0.29-0.288-0.495-0.357C87.08,7.115,86.86,7.08,86.625,7.08h-1.012c-0.198,0-0.319,0.019-0.363,0.055
					s-0.088,0.15-0.132,0.341L84.359,10.5h1.408c0.234,0,0.473-0.035,0.715-0.104c0.242-0.069,0.466-0.188,0.671-0.357
					c0.19-0.168,0.332-0.363,0.424-0.583c0.091-0.22,0.166-0.44,0.226-0.66C87.861,8.568,87.899,8.345,87.917,8.125z"/>
				<path d="M101.628,10.545c-0.109,0.073-0.22,0.11-0.33,0.11c-0.109,0-0.203-0.037-0.28-0.11s-0.097-0.184-0.061-0.33
					c0.029-0.117,0.081-0.209,0.154-0.275c0.073-0.066,0.154-0.113,0.242-0.143c-0.147-0.11-0.356-0.165-0.627-0.165
					c-0.286,0-0.539,0.118-0.76,0.354c-0.22,0.236-0.418,0.553-0.594,0.95l-0.781,3.095c-0.029,0.117-0.088,0.206-0.176,0.265
					c-0.088,0.06-0.176,0.089-0.264,0.089s-0.159-0.029-0.215-0.089c-0.055-0.059-0.067-0.147-0.038-0.265l0.825-3.338
					c0.073-0.294,0.101-0.545,0.082-0.751c-0.019-0.207-0.119-0.31-0.303-0.31c-0.183,0-0.33,0.137-0.439,0.413
					c-0.11,0.275-0.217,0.621-0.319,1.039c-0.029,0.074-0.077,0.111-0.143,0.111h-0.121c-0.066,0-0.092-0.037-0.077-0.111
					c0.044-0.16,0.092-0.34,0.143-0.538c0.052-0.198,0.121-0.383,0.209-0.556s0.196-0.315,0.325-0.429
					c0.128-0.113,0.287-0.17,0.479-0.17c0.256,0,0.463,0.075,0.621,0.226c0.157,0.15,0.251,0.343,0.28,0.578
					c0.177-0.242,0.372-0.437,0.589-0.583c0.216-0.147,0.464-0.22,0.742-0.22c0.14,0,0.28,0.014,0.424,0.042
					c0.143,0.028,0.268,0.074,0.374,0.138s0.185,0.148,0.236,0.255c0.051,0.106,0.059,0.236,0.022,0.391
					C101.812,10.361,101.739,10.472,101.628,10.545z"/>
			</g>
			<g>
				<path d="M119.706,9.147c-0.007,0.037-0.023,0.068-0.05,0.094c-0.025,0.026-0.057,0.039-0.093,0.039h-0.1
					c-0.08,0-0.113-0.037-0.099-0.11c0.029-0.162,0.055-0.328,0.077-0.5c0.021-0.172,0.038-0.334,0.049-0.484
					c0.012-0.15,0.01-0.286-0.005-0.407s-0.044-0.215-0.088-0.281c-0.104-0.139-0.246-0.232-0.43-0.28
					c-0.183-0.048-0.385-0.072-0.604-0.072h-0.594c-0.191,0-0.313,0.015-0.363,0.044c-0.044,0.044-0.088,0.162-0.132,0.353
					l-1.496,5.994c-0.044,0.176-0.019,0.283,0.077,0.319c0.103,0.037,0.268,0.059,0.495,0.066c0.227,0.007,0.45,0.011,0.671,0.011
					c0.08,0,0.109,0.043,0.088,0.128l-0.022,0.085c-0.015,0.078-0.065,0.117-0.153,0.117c-1.182-0.044-2.373-0.044-3.575,0
					c-0.037,0-0.064-0.011-0.083-0.032s-0.021-0.05-0.005-0.085l0.021-0.085c0.008-0.035,0.025-0.065,0.055-0.091
					c0.029-0.024,0.063-0.037,0.1-0.037c0.22,0,0.445-0.004,0.677-0.011c0.23-0.008,0.404-0.029,0.522-0.066
					c0.117-0.036,0.197-0.144,0.241-0.319l1.496-5.994c0.052-0.191,0.066-0.309,0.044-0.353c-0.029-0.029-0.143-0.044-0.341-0.044
					h-0.594c-0.22,0-0.435,0.024-0.644,0.072s-0.397,0.141-0.566,0.28c-0.081,0.066-0.156,0.158-0.226,0.275
					c-0.069,0.118-0.138,0.251-0.203,0.402c-0.066,0.15-0.131,0.31-0.192,0.479c-0.063,0.168-0.123,0.337-0.182,0.506
					c-0.029,0.081-0.081,0.121-0.154,0.121h-0.088c-0.037,0-0.064-0.011-0.083-0.033c-0.018-0.022-0.02-0.051-0.005-0.088
					c0.095-0.367,0.212-0.737,0.352-1.111s0.271-0.746,0.396-1.115c0.029-0.078,0.08-0.117,0.153-0.117h5.918
					c0.081,0,0.114,0.035,0.1,0.106L119.706,9.147z"/>
			</g>
			<g>
				<path d="M47.807,15.884c-0.063,0.042-0.127,0.063-0.191,0.063c-0.063,0-0.118-0.021-0.162-0.063
					c-0.045-0.043-0.057-0.106-0.035-0.191c0.017-0.068,0.046-0.121,0.089-0.16c0.042-0.038,0.089-0.065,0.14-0.082
					c-0.085-0.064-0.207-0.096-0.363-0.096c-0.166,0-0.313,0.068-0.44,0.205s-0.242,0.32-0.344,0.551l-0.453,1.793
					c-0.017,0.068-0.051,0.119-0.102,0.153c-0.051,0.034-0.102,0.052-0.153,0.052c-0.051,0-0.092-0.018-0.124-0.052
					s-0.04-0.085-0.022-0.153l0.478-1.935c0.042-0.17,0.059-0.315,0.048-0.436c-0.011-0.119-0.069-0.179-0.175-0.179
					c-0.106,0-0.191,0.079-0.255,0.239c-0.064,0.159-0.125,0.359-0.185,0.602c-0.017,0.043-0.044,0.064-0.083,0.064h-0.07
					c-0.038,0-0.053-0.021-0.044-0.064c0.025-0.093,0.053-0.197,0.083-0.312c0.03-0.115,0.07-0.223,0.121-0.322
					c0.051-0.1,0.114-0.183,0.188-0.249c0.074-0.065,0.167-0.099,0.277-0.099c0.148,0,0.269,0.044,0.36,0.131
					s0.146,0.198,0.163,0.335c0.102-0.141,0.216-0.253,0.341-0.338c0.125-0.085,0.269-0.128,0.43-0.128
					c0.081,0,0.163,0.008,0.246,0.024c0.083,0.017,0.155,0.043,0.216,0.08c0.062,0.036,0.107,0.086,0.137,0.147
					s0.034,0.137,0.013,0.227C47.913,15.777,47.871,15.841,47.807,15.884z"/>
				<path d="M54.042,15.073c-0.004,0.021-0.014,0.04-0.028,0.055c-0.015,0.015-0.033,0.022-0.054,0.022h-0.058
					c-0.047,0-0.066-0.021-0.057-0.063c0.017-0.094,0.032-0.19,0.044-0.29c0.013-0.101,0.022-0.193,0.029-0.281
					c0.006-0.087,0.005-0.165-0.003-0.235c-0.008-0.07-0.025-0.125-0.051-0.163c-0.06-0.08-0.143-0.135-0.249-0.162
					c-0.106-0.027-0.223-0.042-0.351-0.042h-0.344c-0.11,0-0.181,0.009-0.21,0.025c-0.026,0.026-0.051,0.094-0.077,0.205
					l-0.867,3.474c-0.025,0.102-0.011,0.164,0.045,0.185c0.059,0.021,0.155,0.034,0.287,0.039c0.132,0.004,0.262,0.006,0.389,0.006
					c0.046,0,0.063,0.024,0.051,0.074l-0.013,0.05c-0.009,0.045-0.038,0.067-0.089,0.067c-0.684-0.025-1.375-0.025-2.072,0
					c-0.021,0-0.037-0.006-0.048-0.019s-0.012-0.028-0.003-0.049l0.013-0.05c0.004-0.021,0.015-0.038,0.032-0.053
					c0.017-0.014,0.036-0.021,0.057-0.021c0.128,0,0.258-0.002,0.392-0.006c0.134-0.005,0.235-0.018,0.303-0.039
					c0.068-0.021,0.115-0.083,0.14-0.185l0.867-3.474c0.03-0.111,0.039-0.179,0.026-0.205c-0.017-0.017-0.083-0.025-0.198-0.025
					H51.6c-0.127,0-0.252,0.015-0.373,0.042s-0.23,0.082-0.328,0.162c-0.047,0.038-0.09,0.092-0.131,0.159
					c-0.041,0.068-0.08,0.146-0.118,0.233c-0.038,0.087-0.075,0.18-0.111,0.277s-0.071,0.195-0.105,0.293
					c-0.017,0.047-0.047,0.07-0.089,0.07h-0.051c-0.021,0-0.037-0.007-0.048-0.02c-0.01-0.013-0.012-0.029-0.003-0.051
					c0.055-0.213,0.123-0.427,0.204-0.644c0.081-0.217,0.157-0.433,0.229-0.646c0.017-0.045,0.046-0.067,0.089-0.067h3.43
					c0.046,0,0.065,0.021,0.057,0.062L54.042,15.073z"/>
			</g>
			<g>
				<path d="M90.122,15.884c-0.063,0.042-0.127,0.063-0.191,0.063c-0.063,0-0.116-0.021-0.159-0.063
					c-0.042-0.043-0.053-0.106-0.032-0.191c0.021-0.077,0.059-0.137,0.112-0.179c0.053-0.043,0.109-0.068,0.169-0.076
					c-0.043-0.056-0.101-0.083-0.173-0.083c-0.136,0-0.259,0.042-0.369,0.128s-0.218,0.186-0.322,0.301s-0.209,0.235-0.315,0.359
					s-0.221,0.224-0.345,0.301c0.132,0.017,0.256,0.045,0.37,0.083c0.115,0.039,0.212,0.091,0.29,0.157
					c0.079,0.066,0.135,0.147,0.169,0.243c0.034,0.097,0.036,0.208,0.007,0.337c-0.025,0.098-0.044,0.189-0.055,0.275
					c-0.011,0.085-0.013,0.16-0.006,0.224c0.006,0.064,0.024,0.114,0.054,0.151c0.03,0.036,0.074,0.054,0.134,0.054
					c0.068,0,0.128-0.022,0.179-0.066c0.051-0.045,0.096-0.105,0.134-0.182c0.038-0.077,0.072-0.166,0.103-0.269
					c0.029-0.102,0.059-0.212,0.089-0.331c0.009-0.038,0.034-0.058,0.076-0.058h0.07c0.043,0,0.06,0.02,0.051,0.058
					c-0.025,0.102-0.057,0.212-0.096,0.328c-0.038,0.117-0.086,0.225-0.143,0.322c-0.058,0.098-0.127,0.179-0.208,0.242
					c-0.08,0.063-0.178,0.096-0.293,0.096c-0.106,0-0.197-0.023-0.274-0.07c-0.076-0.047-0.135-0.109-0.175-0.188
					c-0.041-0.078-0.065-0.167-0.073-0.268c-0.009-0.1,0-0.205,0.025-0.315c0.047-0.191,0.007-0.345-0.118-0.462
					s-0.296-0.19-0.513-0.22l-0.332,1.319c-0.017,0.068-0.051,0.119-0.102,0.153c-0.052,0.033-0.103,0.051-0.153,0.051
					s-0.094-0.018-0.128-0.052c-0.033-0.033-0.042-0.085-0.025-0.152l0.938-3.748c0.017-0.068,0.027-0.12,0.032-0.156
					c0.004-0.036-0.005-0.063-0.026-0.08c-0.029-0.021-0.08-0.035-0.152-0.042c-0.072-0.006-0.153-0.009-0.242-0.009
					c-0.021,0-0.037-0.007-0.048-0.019c-0.011-0.013-0.012-0.029-0.003-0.05l0.013-0.05c0.013-0.037,0.042-0.061,0.089-0.068
					l0.81-0.068c0.021-0.005,0.038,0.001,0.051,0.016s0.015,0.032,0.007,0.054l-0.676,2.69c0.089-0.034,0.173-0.087,0.252-0.159
					c0.078-0.072,0.156-0.15,0.232-0.236c0.076-0.085,0.154-0.173,0.232-0.264c0.079-0.092,0.16-0.175,0.246-0.249
					c0.085-0.074,0.174-0.135,0.268-0.182c0.093-0.047,0.197-0.07,0.313-0.07c0.136,0,0.238,0.046,0.309,0.137
					c0.07,0.092,0.088,0.205,0.055,0.342C90.228,15.777,90.185,15.841,90.122,15.884z"/>
			</g>
			<g>
				<path d="M30.717,16.76c-0.044,0.044-0.095,0.066-0.154,0.066h-6.259c-0.059,0-0.11-0.022-0.154-0.066s-0.066-0.096-0.066-0.154
					s0.022-0.109,0.066-0.153c0.044-0.045,0.095-0.066,0.154-0.066h6.259c0.059,0,0.11,0.021,0.154,0.066
					c0.044,0.044,0.066,0.095,0.066,0.153S30.761,16.716,30.717,16.76z"/>
			</g>
			<g>
				<path d="M49.335,18.701c-0.094,0.212-0.225,0.399-0.395,0.561c-0.03,0.021-0.06,0.021-0.089,0l-0.013-0.019
					c-0.026-0.021-0.026-0.049,0-0.083c0.157-0.148,0.279-0.321,0.366-0.517c0.087-0.195,0.131-0.401,0.131-0.618
					c0-0.017-0.001-0.034-0.003-0.051c-0.002-0.018-0.003-0.034-0.003-0.052c-0.064,0.077-0.151,0.115-0.261,0.115
					c-0.111,0-0.195-0.035-0.252-0.105c-0.058-0.07-0.086-0.147-0.086-0.232s0.028-0.162,0.086-0.232
					c0.057-0.07,0.141-0.105,0.252-0.105c0.081,0,0.146,0.021,0.197,0.063c0.051,0.043,0.093,0.096,0.125,0.16
					c0.032,0.063,0.054,0.135,0.067,0.213c0.013,0.079,0.019,0.154,0.019,0.227C49.476,18.264,49.429,18.488,49.335,18.701z"/>
			</g>
			<g>
				<path d="M66.156,10.665h-6.865c-0.121,0-0.22-0.099-0.22-0.22s0.099-0.22,0.22-0.22h6.865c0.121,0,0.22,0.099,0.22,0.22
					S66.277,10.665,66.156,10.665z M66.156,12.8h-6.865c-0.121,0-0.22-0.1-0.22-0.221s0.099-0.22,0.22-0.22h6.865
					c0.121,0,0.22,0.099,0.22,0.22S66.277,12.8,66.156,12.8z"/>
			</g>
			<g>
				<path d="M96.275,19.59c-0.021,0.033-0.055,0.049-0.076,0.049c-0.033,0-0.077,0-0.1-0.032c-1.661-1.916-2.365-5.043-2.365-8.154
					c0-3.11,0.704-6.237,2.365-8.153c0.022-0.033,0.055-0.033,0.1-0.033c0.021,0,0.055,0.016,0.076,0.049
					c0.012,0.033,0.022,0.065,0.022,0.115c0,0.033-0.011,0.082-0.033,0.115c-1.419,1.981-1.893,4.961-1.893,7.907
					c0,2.947,0.474,5.928,1.893,7.908c0.022,0.033,0.033,0.065,0.033,0.115C96.297,19.524,96.287,19.558,96.275,19.59z"/>
				<path d="M103.216,19.606c-0.022,0.017-0.044,0.032-0.066,0.032h-0.033c-0.021,0-0.055-0.016-0.077-0.049
					c-0.011-0.032-0.021-0.065-0.021-0.114c0-0.033,0.011-0.082,0.033-0.115c1.419-1.98,1.892-4.961,1.892-7.908
					c0-2.946-0.473-5.926-1.892-7.907c-0.022-0.033-0.033-0.066-0.033-0.115c0-0.049,0-0.082,0.021-0.115
					c0.022-0.033,0.044-0.049,0.077-0.049h0.033c0.022,0,0.044,0.016,0.066,0.033c1.661,1.916,2.365,5.042,2.365,8.153
					C105.582,14.563,104.877,17.69,103.216,19.606z"/>
			</g>
			<g>
				<path d="M109.348,12.095c-0.319,0-0.583-0.264-0.583-0.582c0-0.319,0.264-0.584,0.583-0.584c0.318,0,0.583,0.265,0.583,0.584
					C109.931,11.831,109.667,12.095,109.348,12.095z"/>
			</g>
			<g>
				<path d="M80.488,20.557c-0.021,0.036-0.055,0.055-0.076,0.055c-0.033,0-0.077,0-0.1-0.036c-1.661-2.119-2.365-5.579-2.365-9.02
					c0-3.442,0.704-6.901,2.365-9.021c0.022-0.036,0.055-0.036,0.1-0.036c0.021,0,0.055,0.018,0.076,0.054
					C80.5,2.589,80.51,2.625,80.51,2.68c0,0.036-0.011,0.09-0.033,0.126c-1.419,2.192-1.893,5.488-1.893,8.749
					c0,3.26,0.474,6.556,1.893,8.747c0.022,0.037,0.033,0.073,0.033,0.127C80.51,20.484,80.5,20.521,80.488,20.557z"/>
				<path d="M121.562,20.575c-0.022,0.018-0.044,0.036-0.066,0.036h-0.033c-0.021,0-0.055-0.019-0.077-0.055
					c-0.011-0.036-0.021-0.072-0.021-0.127c0-0.036,0.011-0.09,0.033-0.127c1.419-2.191,1.892-5.487,1.892-8.747
					c0-3.261-0.473-6.557-1.892-8.749c-0.022-0.036-0.033-0.072-0.033-0.126c0-0.055,0-0.091,0.021-0.127
					c0.022-0.036,0.044-0.054,0.077-0.054h0.033c0.022,0,0.044,0.018,0.066,0.036c1.661,2.119,2.365,5.579,2.365,9.021
					C123.927,14.996,123.223,18.456,121.562,20.575z"/>
			</g>
		</g>
	</g>
</g>
</svg>
