<?xml version="1.0" encoding="utf-8"?>
<!-- Generator: Adobe Illustrator 14.0.0, SVG Export Plug-In . SVG Version: 6.00 Build 43363)  -->
<!DOCTYPE svg PUBLIC "-//W3C//DTD SVG 1.1//EN" "http://www.w3.org/Graphics/SVG/1.1/DTD/svg11.dtd">
<svg version="1.1" xmlns="http://www.w3.org/2000/svg" xmlns:xlink="http://www.w3.org/1999/xlink" x="0px" y="0px" width="9.475px"
	 height="14.698px" viewBox="0 0 9.475 14.698" style="enable-background:new 0 0 9.475 14.698;" xml:space="preserve">
<g id="Layer_1">
</g>
<g id="Layer_2">
	<g id="theGroup">
		<g>
			<g>
				<path d="M7.615,4.6C7.427,4.842,7.206,5.051,6.949,5.227C6.67,5.425,6.373,5.574,6.058,5.673
					C5.743,5.771,5.431,5.821,5.123,5.821H3.484L2.802,8.559C2.758,8.743,2.765,8.854,2.824,8.89
					C2.882,8.927,2.987,8.947,3.137,8.95c0.15,0.004,0.31,0.006,0.479,0.006c0.081,0,0.114,0.043,0.099,0.128L3.693,9.169
					C3.664,9.247,3.612,9.286,3.539,9.286c-0.902-0.044-1.808-0.044-2.717,0c-0.081,0-0.114-0.039-0.099-0.117l0.022-0.085
					c0.022-0.085,0.073-0.128,0.154-0.128c0.168,0,0.33-0.002,0.484-0.006C1.537,8.947,1.654,8.927,1.735,8.89
					c0.081-0.051,0.143-0.161,0.187-0.33L3.429,2.5c0.044-0.184,0.037-0.291-0.022-0.32C3.348,2.144,3.244,2.122,3.093,2.114
					s-0.31-0.011-0.479-0.011c-0.081,0-0.114-0.04-0.099-0.121l0.033-0.088c0.015-0.081,0.062-0.121,0.143-0.121h3.443
					c0.308,0,0.594,0.05,0.857,0.149c0.264,0.099,0.491,0.247,0.682,0.445C7.843,2.55,7.958,2.769,8.021,3.021
					s0.057,0.519-0.017,0.798S7.801,4.358,7.615,4.6z M7.086,3.148c0.019-0.22-0.027-0.414-0.138-0.583
					c-0.125-0.168-0.29-0.288-0.495-0.357c-0.205-0.069-0.425-0.104-0.66-0.104H4.782c-0.198,0-0.319,0.019-0.363,0.055
					s-0.088,0.15-0.132,0.341L3.528,5.524h1.408c0.235,0,0.473-0.035,0.715-0.104C5.893,5.35,6.117,5.231,6.322,5.062
					c0.19-0.168,0.332-0.363,0.424-0.583c0.091-0.22,0.166-0.44,0.226-0.66C7.03,3.592,7.068,3.368,7.086,3.148z"/>
			</g>
			<g>
				<path d="M9.3,10.907c-0.063,0.042-0.127,0.063-0.191,0.063c-0.063,0-0.116-0.021-0.159-0.063
					c-0.042-0.043-0.053-0.106-0.032-0.191c0.021-0.077,0.059-0.137,0.112-0.179c0.053-0.043,0.109-0.068,0.169-0.076
					c-0.043-0.056-0.101-0.083-0.173-0.083c-0.136,0-0.259,0.042-0.369,0.128s-0.218,0.186-0.322,0.301s-0.209,0.235-0.315,0.359
					s-0.221,0.224-0.345,0.301c0.132,0.017,0.256,0.045,0.37,0.083c0.115,0.039,0.212,0.091,0.29,0.157
					c0.079,0.066,0.135,0.147,0.169,0.243c0.034,0.097,0.036,0.208,0.007,0.337c-0.025,0.098-0.044,0.189-0.055,0.275
					c-0.011,0.085-0.013,0.16-0.006,0.224c0.006,0.064,0.024,0.114,0.054,0.151c0.03,0.036,0.074,0.054,0.134,0.054
					c0.068,0,0.128-0.022,0.179-0.066c0.051-0.045,0.096-0.105,0.134-0.182c0.038-0.077,0.072-0.166,0.103-0.269
					c0.029-0.102,0.059-0.212,0.089-0.331c0.009-0.038,0.034-0.058,0.076-0.058h0.07c0.043,0,0.06,0.02,0.051,0.058
					c-0.025,0.102-0.057,0.212-0.096,0.328c-0.038,0.117-0.086,0.225-0.143,0.322c-0.058,0.098-0.127,0.179-0.208,0.242
					c-0.08,0.063-0.178,0.096-0.293,0.096c-0.106,0-0.197-0.023-0.274-0.07c-0.076-0.047-0.135-0.109-0.175-0.188
					c-0.041-0.078-0.065-0.167-0.073-0.268c-0.009-0.1,0-0.205,0.025-0.315c0.047-0.191,0.007-0.345-0.118-0.462
					s-0.296-0.19-0.513-0.22l-0.332,1.319c-0.017,0.068-0.051,0.119-0.102,0.153c-0.052,0.033-0.103,0.051-0.153,0.051
					s-0.094-0.018-0.128-0.052c-0.033-0.033-0.042-0.085-0.025-0.152L7.668,9.18c0.017-0.068,0.027-0.12,0.032-0.156
					c0.004-0.036-0.005-0.063-0.026-0.08c-0.029-0.021-0.08-0.035-0.152-0.042C7.45,8.896,7.369,8.893,7.28,8.893
					c-0.021,0-0.037-0.007-0.048-0.019C7.221,8.861,7.22,8.845,7.229,8.824l0.013-0.05c0.013-0.037,0.042-0.061,0.089-0.068
					l0.81-0.068c0.021-0.005,0.038,0.001,0.051,0.016s0.015,0.032,0.007,0.054l-0.676,2.69c0.089-0.034,0.173-0.087,0.252-0.159
					c0.078-0.072,0.156-0.15,0.232-0.236c0.076-0.085,0.154-0.173,0.232-0.264c0.079-0.092,0.16-0.175,0.246-0.249
					c0.085-0.074,0.174-0.135,0.268-0.182c0.093-0.047,0.197-0.07,0.313-0.07c0.136,0,0.238,0.046,0.309,0.137
					c0.07,0.092,0.088,0.205,0.055,0.342C9.407,10.801,9.364,10.864,9.3,10.907z"/>
			</g>
		</g>
	</g>
</g>
</svg>
