<?xml version="1.0" encoding="utf-8"?>
<!-- Generator: Adobe Illustrator 14.0.0, SVG Export Plug-In . SVG Version: 6.00 Build 43363)  -->
<!DOCTYPE svg PUBLIC "-//W3C//DTD SVG 1.1//EN" "http://www.w3.org/Graphics/SVG/1.1/DTD/svg11.dtd">
<svg version="1.1" xmlns="http://www.w3.org/2000/svg" xmlns:xlink="http://www.w3.org/1999/xlink" x="0px" y="0px"
	 width="125.928px" height="15.551px" viewBox="0 0 125.928 15.551" style="enable-background:new 0 0 125.928 15.551;"
	 xml:space="preserve">
<g id="Layer_1">
</g>
<g id="Layer_2">
	<g id="theGroup">
		<g>
			<g>
				<path d="M3.361,5.822h3.668l0.58-1.963c0.109-0.383,0.164-0.68,0.164-0.891c0-0.102-0.024-0.188-0.073-0.261
					S7.576,2.582,7.474,2.547S7.173,2.494,6.876,2.494l0.059-0.217h3.199l-0.07,0.217C9.794,2.49,9.593,2.518,9.46,2.576
					C9.273,2.658,9.134,2.764,9.044,2.893c-0.129,0.184-0.26,0.506-0.393,0.967l-1.4,4.799C7.134,9.057,7.076,9.342,7.076,9.514
					c0,0.148,0.052,0.261,0.155,0.337s0.351,0.128,0.741,0.155l-0.064,0.217H4.814l0.082-0.217c0.305-0.008,0.508-0.035,0.609-0.082
					c0.156-0.07,0.27-0.16,0.34-0.27C5.947,9.502,6.072,9.17,6.22,8.658l0.715-2.432H3.25L2.529,8.658
					c-0.113,0.391-0.17,0.676-0.17,0.855c0,0.148,0.051,0.261,0.152,0.337s0.348,0.128,0.738,0.155l-0.047,0.217H0.085l0.076-0.217
					C0.47,9.998,0.675,9.971,0.777,9.924c0.156-0.07,0.271-0.16,0.346-0.27c0.102-0.16,0.227-0.492,0.375-0.996l1.406-4.799
					c0.113-0.391,0.17-0.688,0.17-0.891C3.074,2.867,3.049,2.78,3,2.708S2.875,2.582,2.772,2.547S2.466,2.494,2.166,2.494
					l0.07-0.217h3.135L5.306,2.494C5.044,2.49,4.851,2.518,4.726,2.576C4.542,2.654,4.408,2.758,4.322,2.887
					C4.205,3.059,4.076,3.383,3.935,3.859L3.361,5.822z"/>
				<path d="M11.633,4.92l-0.762,2.643c0.34-0.621,0.629-1.088,0.867-1.4c0.371-0.484,0.732-0.836,1.084-1.055
					c0.207-0.125,0.424-0.188,0.65-0.188c0.195,0,0.357,0.063,0.486,0.188s0.193,0.285,0.193,0.48c0,0.191-0.045,0.441-0.135,0.75
					l-0.416,1.488c0.637-1.191,1.24-2.027,1.811-2.508c0.316-0.266,0.629-0.398,0.938-0.398c0.18,0,0.327,0.062,0.442,0.185
					s0.173,0.313,0.173,0.571c0,0.227-0.035,0.467-0.105,0.721l-0.645,2.279c-0.141,0.496-0.211,0.771-0.211,0.826
					s0.018,0.102,0.053,0.141c0.023,0.027,0.055,0.041,0.094,0.041s0.107-0.037,0.205-0.111c0.223-0.172,0.432-0.398,0.627-0.68
					l0.193,0.123c-0.098,0.156-0.271,0.371-0.519,0.645s-0.46,0.459-0.636,0.557s-0.338,0.146-0.486,0.146
					c-0.137,0-0.251-0.047-0.343-0.141s-0.138-0.209-0.138-0.346c0-0.188,0.08-0.564,0.24-1.131l0.533-1.881
					c0.121-0.434,0.186-0.674,0.193-0.721c0.012-0.074,0.018-0.146,0.018-0.217c0-0.098-0.021-0.174-0.064-0.229
					c-0.047-0.055-0.1-0.082-0.158-0.082c-0.164,0-0.338,0.084-0.521,0.252c-0.539,0.496-1.043,1.191-1.512,2.086
					c-0.309,0.59-0.598,1.346-0.867,2.268h-0.885l1.002-3.545c0.109-0.383,0.164-0.639,0.164-0.768c0-0.105-0.021-0.184-0.064-0.234
					S13.038,5.6,12.975,5.6c-0.129,0-0.266,0.047-0.41,0.141c-0.234,0.152-0.536,0.479-0.905,0.979s-0.655,0.979-0.858,1.436
					c-0.098,0.215-0.33,0.904-0.697,2.068H9.237l1.084-3.797l0.141-0.492c0.027-0.074,0.041-0.129,0.041-0.164
					c0-0.086-0.039-0.163-0.117-0.231s-0.178-0.103-0.299-0.103c-0.051,0-0.191,0.023-0.422,0.07L9.612,5.289L11.633,4.92z"/>
			</g>
			<g>
				<path d="M41.359,1.891L39.712,7.58c0.711-1.07,1.266-1.781,1.664-2.133s0.779-0.527,1.143-0.527
					c0.188,0,0.344,0.064,0.469,0.193s0.188,0.301,0.188,0.516c0,0.258-0.055,0.57-0.164,0.938l-0.715,2.455
					c-0.09,0.297-0.135,0.461-0.135,0.492c0,0.055,0.017,0.1,0.05,0.135s0.071,0.053,0.114,0.053c0.051,0,0.109-0.025,0.176-0.076
					c0.223-0.172,0.443-0.41,0.662-0.715l0.182,0.111c-0.133,0.207-0.317,0.435-0.554,0.683s-0.439,0.42-0.609,0.516
					s-0.321,0.144-0.454,0.144c-0.145,0-0.263-0.046-0.354-0.138s-0.138-0.21-0.138-0.354c0-0.172,0.068-0.492,0.205-0.961
					l0.674-2.344c0.086-0.293,0.129-0.523,0.129-0.691c0-0.078-0.024-0.141-0.073-0.188s-0.112-0.07-0.19-0.07
					c-0.113,0-0.242,0.043-0.387,0.129c-0.266,0.164-0.572,0.469-0.92,0.914c-0.094,0.121-0.406,0.609-0.938,1.465
					c-0.164,0.273-0.299,0.572-0.404,0.896l-0.375,1.201h-0.879l1.928-6.703l0.205-0.727c0-0.102-0.042-0.191-0.126-0.27
					s-0.187-0.117-0.308-0.117c-0.07,0-0.178,0.012-0.322,0.035l-0.123,0.018V2.23L41.359,1.891z"/>
				<path d="M49.468,4.92l-1.143,3.973l-0.129,0.533c-0.012,0.051-0.018,0.094-0.018,0.129c0,0.063,0.02,0.117,0.059,0.164
					c0.031,0.035,0.07,0.053,0.117,0.053c0.051,0,0.117-0.031,0.199-0.094c0.152-0.113,0.355-0.348,0.609-0.703l0.199,0.141
					c-0.27,0.406-0.547,0.716-0.832,0.929s-0.549,0.319-0.791,0.319c-0.168,0-0.294-0.042-0.378-0.126s-0.126-0.206-0.126-0.366
					c0-0.191,0.043-0.443,0.129-0.756l0.123-0.439c-0.512,0.668-0.982,1.135-1.412,1.4c-0.309,0.191-0.611,0.287-0.908,0.287
					c-0.285,0-0.531-0.118-0.738-0.354s-0.311-0.562-0.311-0.976c0-0.621,0.187-1.276,0.56-1.966s0.847-1.241,1.421-1.655
					c0.449-0.328,0.873-0.492,1.271-0.492c0.238,0,0.437,0.063,0.595,0.188s0.278,0.332,0.36,0.621l0.211-0.668L49.468,4.92z
					 M47.382,5.225c-0.25,0-0.516,0.117-0.797,0.352c-0.398,0.332-0.753,0.824-1.063,1.477s-0.466,1.242-0.466,1.77
					c0,0.266,0.066,0.476,0.199,0.63s0.285,0.231,0.457,0.231c0.426,0,0.889-0.314,1.389-0.943c0.668-0.836,1.002-1.693,1.002-2.572
					c0-0.332-0.064-0.572-0.193-0.721S47.605,5.225,47.382,5.225z"/>
				<path d="M54.191,4.92l-0.357,1.799h-0.217c-0.02-0.523-0.131-0.904-0.334-1.143s-0.455-0.357-0.756-0.357
					c-0.242,0-0.435,0.066-0.577,0.199s-0.214,0.293-0.214,0.48c0,0.129,0.028,0.252,0.085,0.369s0.181,0.281,0.372,0.492
					c0.508,0.555,0.836,0.973,0.984,1.254S53.4,8.561,53.4,8.811c0,0.406-0.169,0.767-0.507,1.081s-0.765,0.472-1.28,0.472
					c-0.281,0-0.605-0.066-0.973-0.199c-0.129-0.047-0.229-0.07-0.299-0.07c-0.176,0-0.309,0.09-0.398,0.27h-0.217l0.357-1.898H50.3
					c0.023,0.594,0.146,1.014,0.369,1.26s0.527,0.369,0.914,0.369c0.297,0,0.532-0.083,0.706-0.249s0.261-0.37,0.261-0.612
					c0-0.156-0.031-0.301-0.094-0.434c-0.109-0.234-0.339-0.559-0.688-0.973s-0.574-0.725-0.674-0.932s-0.149-0.414-0.149-0.621
					c0-0.379,0.138-0.699,0.413-0.961s0.63-0.393,1.063-0.393c0.125,0,0.238,0.01,0.34,0.029c0.055,0.012,0.183,0.056,0.384,0.132
					s0.335,0.114,0.401,0.114c0.168,0,0.309-0.092,0.422-0.275H54.191z"/>
			</g>
			<g>
				<path d="M58.048,1.891L56.402,7.58c0.711-1.07,1.266-1.781,1.664-2.133s0.779-0.527,1.143-0.527
					c0.188,0,0.344,0.064,0.469,0.193s0.188,0.301,0.188,0.516c0,0.258-0.055,0.57-0.164,0.938l-0.715,2.455
					c-0.09,0.297-0.135,0.461-0.135,0.492c0,0.055,0.017,0.1,0.05,0.135s0.071,0.053,0.114,0.053c0.051,0,0.109-0.025,0.176-0.076
					c0.223-0.172,0.443-0.41,0.662-0.715l0.182,0.111c-0.133,0.207-0.317,0.435-0.554,0.683s-0.439,0.42-0.609,0.516
					s-0.321,0.144-0.454,0.144c-0.145,0-0.263-0.046-0.354-0.138s-0.138-0.21-0.138-0.354c0-0.172,0.068-0.492,0.205-0.961
					l0.674-2.344c0.086-0.293,0.129-0.523,0.129-0.691c0-0.078-0.024-0.141-0.073-0.188s-0.112-0.07-0.19-0.07
					c-0.113,0-0.242,0.043-0.387,0.129c-0.266,0.164-0.572,0.469-0.92,0.914c-0.094,0.121-0.406,0.609-0.938,1.465
					c-0.164,0.273-0.299,0.572-0.404,0.896l-0.375,1.201h-0.879l1.928-6.703L56.9,2.793c0-0.102-0.042-0.191-0.126-0.27
					s-0.187-0.117-0.308-0.117c-0.07,0-0.178,0.012-0.322,0.035l-0.123,0.018V2.23L58.048,1.891z"/>
				<path d="M67.781,2.277h6.035l-0.65,2.109h-0.223c0.074-0.309,0.111-0.584,0.111-0.826c0-0.285-0.088-0.5-0.264-0.645
					c-0.133-0.109-0.475-0.164-1.025-0.164h-0.627l-1.57,5.473c-0.199,0.688-0.299,1.111-0.299,1.271
					c0,0.148,0.063,0.271,0.188,0.366s0.346,0.144,0.662,0.144h0.27l-0.07,0.217h-3.457l0.064-0.217h0.152
					c0.305,0,0.539-0.049,0.703-0.146c0.113-0.066,0.215-0.187,0.307-0.36s0.221-0.542,0.385-1.104l1.646-5.643h-0.475
					c-0.457,0-0.826,0.059-1.105,0.176s-0.504,0.287-0.676,0.51s-0.313,0.539-0.422,0.949h-0.217L67.781,2.277z"/>
			</g>
			<g>
				<path d="M17.472,9.135L18.6,8.584h0.113v3.914c0,0.26,0.011,0.421,0.033,0.484c0.021,0.064,0.066,0.113,0.135,0.147
					s0.208,0.054,0.417,0.058v0.127h-1.743v-0.127c0.219-0.004,0.36-0.022,0.424-0.056s0.108-0.078,0.133-0.134
					s0.038-0.223,0.038-0.5V9.996c0-0.338-0.011-0.555-0.034-0.65c-0.016-0.072-0.045-0.126-0.087-0.16
					c-0.042-0.034-0.093-0.051-0.152-0.051c-0.084,0-0.202,0.035-0.352,0.105L17.472,9.135z"/>
				<path d="M72.064,9.135l1.129-0.551h0.113v3.914c0,0.26,0.01,0.421,0.031,0.484c0.021,0.064,0.066,0.113,0.135,0.147
					s0.207,0.054,0.418,0.058v0.127h-1.744v-0.127c0.219-0.004,0.361-0.022,0.424-0.056c0.064-0.033,0.109-0.078,0.135-0.134
					c0.023-0.056,0.037-0.223,0.037-0.5V9.996c0-0.338-0.012-0.555-0.035-0.65c-0.016-0.072-0.045-0.126-0.086-0.16
					c-0.043-0.034-0.094-0.051-0.152-0.051c-0.084,0-0.201,0.035-0.352,0.105L72.064,9.135z"/>
			</g>
			<path d="M31.699,9.035c-0.24,0.372-0.468,0.815-0.684,1.344h0.468c0.468-0.564,1.007-1.115,1.619-1.655s1.188-0.947,1.703-1.235
				V7.165c-0.396-0.228-0.936-0.636-1.619-1.211s-1.248-1.14-1.703-1.703h-0.468c0.204,0.516,0.432,0.947,0.648,1.295
				c0.228,0.36,0.611,0.852,1.163,1.487h-8.983v0.564h8.983C32.311,8.195,31.927,8.676,31.699,9.035L31.699,9.035z"/>
			<path d="M64.32,12.523c-0.288-0.618-0.504-1.378-0.636-2.313c-0.144-0.935-0.216-1.964-0.216-3.121
				c0-1.014,0.072-1.979,0.229-2.914c0.155-0.951,0.384-1.71,0.695-2.329c0.299-0.602,0.696-1.077,1.174-1.441V0.09
				c-0.959,0.57-1.738,1.504-2.326,2.819c-0.6,1.33-0.899,2.788-0.899,4.387c0,1.537,0.288,2.961,0.852,4.26
				s1.355,2.281,2.374,2.946V14.17C65.027,13.68,64.607,13.125,64.32,12.523L64.32,12.523z M77.689,2.07
				c0.287,0.602,0.502,1.378,0.646,2.312c0.133,0.919,0.203,1.964,0.203,3.104c0,1.029-0.07,1.996-0.227,2.931
				c-0.145,0.934-0.373,1.71-0.684,2.312c-0.313,0.618-0.707,1.094-1.188,1.441v0.333c0.959-0.57,1.738-1.505,2.326-2.835
				c0.6-1.314,0.9-2.771,0.9-4.372c0-1.552-0.289-2.962-0.852-4.261c-0.564-1.299-1.355-2.281-2.375-2.946v0.317
				C76.98,0.897,77.4,1.452,77.689,2.07L77.689,2.07z"/>
		</g>
	</g>
</g>
</svg>
