<?xml version="1.0" encoding="utf-8"?>
<!-- Generator: Adobe Illustrator 14.0.0, SVG Export Plug-In . SVG Version: 6.00 Build 43363)  -->
<!DOCTYPE svg PUBLIC "-//W3C//DTD SVG 1.1//EN" "http://www.w3.org/Graphics/SVG/1.1/DTD/svg11.dtd">
<svg version="1.1" xmlns="http://www.w3.org/2000/svg" xmlns:xlink="http://www.w3.org/1999/xlink" x="0px" y="0px"
	 width="153.779px" height="16.806px" viewBox="0 0 153.779 16.806" style="enable-background:new 0 0 153.779 16.806;"
	 xml:space="preserve">
<g id="Layer_1">
</g>
<g id="Layer_2">
	<g id="theGroup">
		<g>
			<path style="fill:none;stroke:#000000;stroke-width:0.5;stroke-miterlimit:10;" d="M84.315,1.19v14.375 M114.346,1.19v14.375
				 M82.377,0.19v16.375 M116.284,0.19v16.375"/>
			<g>
				<path d="M1.76,3.432h3.357L5.053,3.649c-0.344,0.008-0.589,0.04-0.735,0.097S4.046,3.903,3.943,4.047S3.731,4.459,3.618,4.85
					L2.803,7.663c-0.145,0.5-0.23,0.828-0.258,0.984c-0.047,0.25-0.07,0.482-0.07,0.697c0,0.473,0.176,0.872,0.527,1.198
					s0.822,0.489,1.412,0.489c0.387,0,0.732-0.073,1.037-0.22s0.565-0.352,0.782-0.615s0.415-0.621,0.595-1.072
					s0.338-0.907,0.475-1.368l0.703-2.426c0.176-0.605,0.264-1,0.264-1.184c0-0.129-0.06-0.239-0.179-0.331s-0.36-0.147-0.724-0.167
					l0.064-0.217h2.525L9.893,3.649c-0.297,0-0.511,0.028-0.642,0.085S9.006,3.892,8.909,4.039S8.702,4.469,8.581,4.891L7.719,7.838
					C7.442,8.795,7.18,9.501,6.934,9.957s-0.603,0.836-1.069,1.143s-1.046,0.46-1.737,0.46c-0.797,0-1.439-0.226-1.928-0.677
					s-0.732-0.968-0.732-1.55c0-0.23,0.021-0.477,0.064-0.738C1.563,8.422,1.639,8.125,1.76,7.704l0.785-2.701
					c0.109-0.391,0.164-0.678,0.164-0.861c0-0.145-0.056-0.257-0.167-0.337S2.151,3.672,1.702,3.649L1.76,3.432z"/>
				<path d="M30.214,11.559l0.656-2.947h0.199c-0.027,0.285-0.041,0.521-0.041,0.709c0,0.535,0.171,0.971,0.513,1.307
					s0.788,0.504,1.339,0.504c0.512,0,0.9-0.157,1.166-0.472s0.398-0.677,0.398-1.087c0-0.266-0.061-0.508-0.182-0.727
					c-0.184-0.324-0.674-0.895-1.471-1.711c-0.387-0.391-0.635-0.682-0.744-0.873c-0.18-0.316-0.27-0.648-0.27-0.996
					c0-0.555,0.207-1.029,0.621-1.424s0.945-0.592,1.594-0.592c0.219,0,0.426,0.021,0.621,0.064
					c0.121,0.023,0.342,0.102,0.662,0.234c0.227,0.09,0.352,0.139,0.375,0.146c0.055,0.012,0.115,0.018,0.182,0.018
					c0.113,0,0.211-0.029,0.293-0.088s0.178-0.184,0.287-0.375h0.223l-0.609,2.637h-0.199c0.016-0.234,0.023-0.424,0.023-0.568
					c0-0.473-0.156-0.859-0.469-1.16s-0.725-0.451-1.236-0.451c-0.406,0-0.736,0.119-0.99,0.357s-0.381,0.514-0.381,0.826
					c0,0.273,0.081,0.534,0.243,0.782s0.535,0.652,1.119,1.213s0.962,0.998,1.134,1.313s0.258,0.649,0.258,1.005
					c0,0.402-0.106,0.792-0.319,1.169s-0.519,0.669-0.917,0.876s-0.834,0.311-1.307,0.311c-0.234,0-0.453-0.021-0.656-0.064
					s-0.527-0.148-0.973-0.316c-0.152-0.059-0.279-0.088-0.381-0.088c-0.23,0-0.41,0.156-0.539,0.469H30.214z"/>
			</g>
			<g>
				<path d="M50.274,3.045l-1.646,5.689c0.711-1.07,1.266-1.781,1.664-2.133s0.779-0.527,1.143-0.527
					c0.188,0,0.344,0.064,0.469,0.193s0.188,0.301,0.188,0.516c0,0.258-0.055,0.57-0.164,0.938l-0.715,2.455
					c-0.09,0.297-0.135,0.461-0.135,0.492c0,0.055,0.017,0.1,0.05,0.135s0.071,0.053,0.114,0.053c0.051,0,0.109-0.025,0.176-0.076
					c0.223-0.172,0.443-0.41,0.662-0.715l0.182,0.111c-0.133,0.207-0.317,0.435-0.554,0.683s-0.439,0.42-0.609,0.516
					s-0.321,0.144-0.454,0.144c-0.145,0-0.263-0.046-0.354-0.138s-0.138-0.21-0.138-0.354c0-0.172,0.068-0.492,0.205-0.961
					l0.674-2.344c0.086-0.293,0.129-0.523,0.129-0.691c0-0.078-0.024-0.141-0.073-0.188s-0.112-0.07-0.19-0.07
					c-0.113,0-0.242,0.043-0.387,0.129c-0.266,0.164-0.572,0.469-0.92,0.914c-0.094,0.121-0.406,0.609-0.938,1.465
					c-0.164,0.273-0.299,0.572-0.404,0.896l-0.375,1.201h-0.879l1.928-6.703l0.205-0.727c0-0.102-0.042-0.191-0.126-0.27
					s-0.187-0.117-0.308-0.117c-0.07,0-0.178,0.012-0.322,0.035l-0.123,0.018V3.385L50.274,3.045z"/>
				<path d="M58.383,6.075l-1.143,3.973l-0.129,0.533c-0.012,0.051-0.018,0.094-0.018,0.129c0,0.063,0.02,0.117,0.059,0.164
					c0.031,0.035,0.07,0.053,0.117,0.053c0.051,0,0.117-0.031,0.199-0.094c0.152-0.113,0.355-0.348,0.609-0.703l0.199,0.141
					c-0.27,0.406-0.547,0.716-0.832,0.929s-0.549,0.319-0.791,0.319c-0.168,0-0.294-0.042-0.378-0.126s-0.126-0.206-0.126-0.366
					c0-0.191,0.043-0.443,0.129-0.756l0.123-0.439c-0.512,0.668-0.982,1.135-1.412,1.4c-0.309,0.191-0.611,0.287-0.908,0.287
					c-0.285,0-0.531-0.118-0.738-0.354s-0.311-0.562-0.311-0.976c0-0.621,0.187-1.276,0.56-1.966s0.847-1.241,1.421-1.655
					c0.449-0.328,0.873-0.492,1.271-0.492c0.238,0,0.437,0.063,0.595,0.188s0.278,0.332,0.36,0.621l0.211-0.668L58.383,6.075z
					 M56.297,6.379c-0.25,0-0.516,0.117-0.797,0.352c-0.398,0.332-0.753,0.824-1.063,1.477s-0.466,1.242-0.466,1.77
					c0,0.266,0.066,0.476,0.199,0.63s0.285,0.231,0.457,0.231c0.426,0,0.889-0.314,1.389-0.943c0.668-0.836,1.002-1.693,1.002-2.572
					c0-0.332-0.064-0.572-0.193-0.721S56.52,6.379,56.297,6.379z"/>
				<path d="M63.106,6.075l-0.357,1.799h-0.217c-0.02-0.523-0.131-0.904-0.334-1.143s-0.455-0.357-0.756-0.357
					c-0.242,0-0.435,0.066-0.577,0.199s-0.214,0.293-0.214,0.48c0,0.129,0.028,0.252,0.085,0.369s0.181,0.281,0.372,0.492
					c0.508,0.555,0.836,0.973,0.984,1.254s0.223,0.547,0.223,0.797c0,0.406-0.169,0.767-0.507,1.081s-0.765,0.472-1.28,0.472
					c-0.281,0-0.605-0.066-0.973-0.199c-0.129-0.047-0.229-0.07-0.299-0.07c-0.176,0-0.309,0.09-0.398,0.27h-0.217l0.357-1.898
					h0.217c0.023,0.594,0.146,1.014,0.369,1.26s0.527,0.369,0.914,0.369c0.297,0,0.532-0.083,0.706-0.249s0.261-0.37,0.261-0.612
					c0-0.156-0.031-0.301-0.094-0.434c-0.109-0.234-0.339-0.559-0.688-0.973s-0.574-0.725-0.674-0.932S59.86,7.635,59.86,7.428
					c0-0.379,0.138-0.699,0.413-0.961s0.63-0.393,1.063-0.393c0.125,0,0.238,0.01,0.34,0.029c0.055,0.012,0.183,0.056,0.384,0.132
					s0.335,0.114,0.401,0.114c0.168,0,0.309-0.092,0.422-0.275H63.106z"/>
			</g>
			<g>
				<path d="M66.961,3.045l-1.646,5.689c0.711-1.07,1.266-1.781,1.664-2.133s0.779-0.527,1.143-0.527
					c0.188,0,0.344,0.064,0.469,0.193s0.188,0.301,0.188,0.516c0,0.258-0.055,0.57-0.164,0.938l-0.715,2.455
					c-0.09,0.297-0.135,0.461-0.135,0.492c0,0.055,0.017,0.1,0.05,0.135s0.071,0.053,0.114,0.053c0.051,0,0.109-0.025,0.176-0.076
					c0.223-0.172,0.443-0.41,0.662-0.715l0.182,0.111c-0.133,0.207-0.317,0.435-0.554,0.683s-0.439,0.42-0.609,0.516
					s-0.321,0.144-0.454,0.144c-0.145,0-0.263-0.046-0.354-0.138s-0.138-0.21-0.138-0.354c0-0.172,0.068-0.492,0.205-0.961
					l0.674-2.344c0.086-0.293,0.129-0.523,0.129-0.691c0-0.078-0.024-0.141-0.073-0.188s-0.112-0.07-0.19-0.07
					c-0.113,0-0.242,0.043-0.387,0.129c-0.266,0.164-0.572,0.469-0.92,0.914c-0.094,0.121-0.406,0.609-0.938,1.465
					c-0.164,0.273-0.299,0.572-0.404,0.896l-0.375,1.201H63.68l1.928-6.703l0.205-0.727c0-0.102-0.042-0.191-0.126-0.27
					S65.5,3.561,65.379,3.561c-0.07,0-0.178,0.012-0.322,0.035l-0.123,0.018V3.385L66.961,3.045z"/>
				<path d="M87.95,3.649l0.07-0.217h2.537c1.074,0,1.87,0.123,2.388,0.369s0.931,0.634,1.239,1.163s0.463,1.097,0.463,1.702
					c0,0.52-0.089,1.024-0.267,1.515s-0.379,0.883-0.604,1.178s-0.569,0.62-1.034,0.976s-0.969,0.618-1.512,0.788
					s-1.221,0.255-2.033,0.255h-3.363l0.076-0.217c0.309-0.008,0.516-0.035,0.621-0.082c0.156-0.066,0.271-0.156,0.346-0.27
					c0.113-0.164,0.24-0.494,0.381-0.99l1.406-4.805c0.109-0.379,0.164-0.676,0.164-0.891c0-0.152-0.051-0.27-0.152-0.352
					s-0.301-0.123-0.598-0.123H87.95z M90.03,3.872l-1.723,5.947c-0.129,0.445-0.193,0.721-0.193,0.826
					c0,0.063,0.021,0.123,0.062,0.182s0.097,0.098,0.167,0.117c0.102,0.035,0.266,0.053,0.492,0.053c0.613,0,1.183-0.063,1.708-0.19
					s0.956-0.315,1.292-0.565c0.477-0.363,0.857-0.863,1.143-1.5s0.428-1.361,0.428-2.174c0-0.918-0.219-1.601-0.656-2.048
					s-1.076-0.671-1.916-0.671C90.625,3.848,90.358,3.856,90.03,3.872z"/>
			</g>
			<g>
				<path d="M100.448,6.075l-1.143,3.973l-0.129,0.533c-0.012,0.051-0.018,0.094-0.018,0.129c0,0.063,0.02,0.117,0.059,0.164
					c0.031,0.035,0.07,0.053,0.117,0.053c0.051,0,0.117-0.031,0.199-0.094c0.152-0.113,0.355-0.348,0.609-0.703l0.199,0.141
					c-0.27,0.406-0.547,0.716-0.832,0.929s-0.549,0.319-0.791,0.319c-0.168,0-0.294-0.042-0.378-0.126s-0.126-0.206-0.126-0.366
					c0-0.191,0.043-0.443,0.129-0.756l0.123-0.439c-0.512,0.668-0.982,1.135-1.412,1.4c-0.309,0.191-0.611,0.287-0.908,0.287
					c-0.285,0-0.531-0.118-0.738-0.354s-0.311-0.562-0.311-0.976c0-0.621,0.187-1.276,0.56-1.966s0.847-1.241,1.421-1.655
					c0.449-0.328,0.873-0.492,1.271-0.492c0.238,0,0.437,0.063,0.595,0.188s0.278,0.332,0.36,0.621l0.211-0.668L100.448,6.075z
					 M98.362,6.379c-0.25,0-0.516,0.117-0.797,0.352c-0.398,0.332-0.753,0.824-1.063,1.477s-0.466,1.242-0.466,1.77
					c0,0.266,0.066,0.476,0.199,0.63s0.285,0.231,0.457,0.231c0.426,0,0.889-0.314,1.389-0.943c0.668-0.836,1.002-1.693,1.002-2.572
					c0-0.332-0.064-0.572-0.193-0.721S98.584,6.379,98.362,6.379z"/>
				<path d="M103.934,4.622l-0.457,1.594h0.92l-0.1,0.369h-0.914l-1.008,3.457c-0.109,0.371-0.164,0.611-0.164,0.721
					c0,0.066,0.016,0.117,0.047,0.152s0.068,0.053,0.111,0.053c0.098,0,0.227-0.068,0.387-0.205
					c0.094-0.078,0.303-0.318,0.627-0.721l0.193,0.146c-0.359,0.523-0.699,0.893-1.02,1.107c-0.219,0.148-0.439,0.223-0.662,0.223
					c-0.172,0-0.313-0.054-0.422-0.161s-0.164-0.245-0.164-0.413c0-0.211,0.063-0.533,0.188-0.967l0.979-3.393h-0.885l0.059-0.229
					c0.43-0.117,0.787-0.292,1.072-0.524s0.604-0.636,0.955-1.21H103.934z"/>
				<path d="M109.782,6.075l-1.143,3.973l-0.129,0.533c-0.012,0.051-0.018,0.094-0.018,0.129c0,0.063,0.02,0.117,0.059,0.164
					c0.031,0.035,0.07,0.053,0.117,0.053c0.051,0,0.117-0.031,0.199-0.094c0.152-0.113,0.355-0.348,0.609-0.703l0.199,0.141
					c-0.27,0.406-0.547,0.716-0.832,0.929s-0.549,0.319-0.791,0.319c-0.168,0-0.294-0.042-0.378-0.126s-0.126-0.206-0.126-0.366
					c0-0.191,0.043-0.443,0.129-0.756l0.123-0.439c-0.512,0.668-0.982,1.135-1.412,1.4c-0.309,0.191-0.611,0.287-0.908,0.287
					c-0.285,0-0.531-0.118-0.738-0.354s-0.311-0.562-0.311-0.976c0-0.621,0.187-1.276,0.56-1.966s0.847-1.241,1.421-1.655
					c0.449-0.328,0.873-0.492,1.271-0.492c0.238,0,0.437,0.063,0.595,0.188s0.278,0.332,0.36,0.621l0.211-0.668L109.782,6.075z
					 M107.696,6.379c-0.25,0-0.516,0.117-0.797,0.352c-0.398,0.332-0.753,0.824-1.063,1.477s-0.466,1.242-0.466,1.77
					c0,0.266,0.066,0.476,0.199,0.63s0.285,0.231,0.457,0.231c0.426,0,0.889-0.314,1.389-0.943c0.668-0.836,1.002-1.693,1.002-2.572
					c0-0.332-0.064-0.572-0.193-0.721S107.918,6.379,107.696,6.379z"/>
			</g>
			<g>
				<path d="M122.368,3.045l-1.646,5.689c0.711-1.07,1.266-1.781,1.664-2.133s0.779-0.527,1.143-0.527
					c0.188,0,0.344,0.064,0.469,0.193s0.188,0.301,0.188,0.516c0,0.258-0.055,0.57-0.164,0.938l-0.715,2.455
					c-0.09,0.297-0.135,0.461-0.135,0.492c0,0.055,0.017,0.1,0.05,0.135s0.071,0.053,0.114,0.053c0.051,0,0.109-0.025,0.176-0.076
					c0.223-0.172,0.443-0.41,0.662-0.715l0.182,0.111c-0.133,0.207-0.317,0.435-0.554,0.683s-0.439,0.42-0.609,0.516
					s-0.321,0.144-0.454,0.144c-0.145,0-0.263-0.046-0.354-0.138s-0.138-0.21-0.138-0.354c0-0.172,0.068-0.492,0.205-0.961
					l0.674-2.344c0.086-0.293,0.129-0.523,0.129-0.691c0-0.078-0.024-0.141-0.073-0.188s-0.112-0.07-0.19-0.07
					c-0.113,0-0.242,0.043-0.387,0.129c-0.266,0.164-0.572,0.469-0.92,0.914c-0.094,0.121-0.406,0.609-0.938,1.465
					c-0.164,0.273-0.299,0.572-0.404,0.896l-0.375,1.201h-0.879l1.928-6.703l0.205-0.727c0-0.102-0.042-0.191-0.126-0.27
					s-0.187-0.117-0.308-0.117c-0.07,0-0.178,0.012-0.322,0.035l-0.123,0.018V3.385L122.368,3.045z"/>
				<path d="M130.477,6.075l-1.143,3.973l-0.129,0.533c-0.012,0.051-0.018,0.094-0.018,0.129c0,0.063,0.02,0.117,0.059,0.164
					c0.031,0.035,0.07,0.053,0.117,0.053c0.051,0,0.117-0.031,0.199-0.094c0.152-0.113,0.355-0.348,0.609-0.703l0.199,0.141
					c-0.27,0.406-0.547,0.716-0.832,0.929s-0.549,0.319-0.791,0.319c-0.168,0-0.294-0.042-0.378-0.126s-0.126-0.206-0.126-0.366
					c0-0.191,0.043-0.443,0.129-0.756l0.123-0.439c-0.512,0.668-0.982,1.135-1.412,1.4c-0.309,0.191-0.611,0.287-0.908,0.287
					c-0.285,0-0.531-0.118-0.738-0.354s-0.311-0.562-0.311-0.976c0-0.621,0.187-1.276,0.56-1.966s0.847-1.241,1.421-1.655
					c0.449-0.328,0.873-0.492,1.271-0.492c0.238,0,0.437,0.063,0.595,0.188s0.278,0.332,0.36,0.621l0.211-0.668L130.477,6.075z
					 M128.391,6.379c-0.25,0-0.516,0.117-0.797,0.352c-0.398,0.332-0.753,0.824-1.063,1.477s-0.466,1.242-0.466,1.77
					c0,0.266,0.066,0.476,0.199,0.63s0.285,0.231,0.457,0.231c0.426,0,0.889-0.314,1.389-0.943c0.668-0.836,1.002-1.693,1.002-2.572
					c0-0.332-0.064-0.572-0.193-0.721S128.614,6.379,128.391,6.379z"/>
				<path d="M135.2,6.075l-0.357,1.799h-0.217c-0.02-0.523-0.131-0.904-0.334-1.143s-0.455-0.357-0.756-0.357
					c-0.242,0-0.435,0.066-0.577,0.199s-0.214,0.293-0.214,0.48c0,0.129,0.028,0.252,0.085,0.369s0.181,0.281,0.372,0.492
					c0.508,0.555,0.836,0.973,0.984,1.254s0.223,0.547,0.223,0.797c0,0.406-0.169,0.767-0.507,1.081s-0.765,0.472-1.28,0.472
					c-0.281,0-0.605-0.066-0.973-0.199c-0.129-0.047-0.229-0.07-0.299-0.07c-0.176,0-0.309,0.09-0.398,0.27h-0.217l0.357-1.898
					h0.217c0.023,0.594,0.146,1.014,0.369,1.26s0.527,0.369,0.914,0.369c0.297,0,0.532-0.083,0.706-0.249s0.261-0.37,0.261-0.612
					c0-0.156-0.031-0.301-0.094-0.434c-0.109-0.234-0.339-0.559-0.688-0.973s-0.574-0.725-0.674-0.932s-0.149-0.414-0.149-0.621
					c0-0.379,0.138-0.699,0.413-0.961s0.63-0.393,1.063-0.393c0.125,0,0.238,0.01,0.34,0.029c0.055,0.012,0.183,0.056,0.384,0.132
					s0.335,0.114,0.401,0.114c0.168,0,0.309-0.092,0.422-0.275H135.2z"/>
			</g>
			<g>
				<path d="M139.057,3.045l-1.646,5.689c0.711-1.07,1.266-1.781,1.664-2.133s0.779-0.527,1.143-0.527
					c0.188,0,0.344,0.064,0.469,0.193s0.188,0.301,0.188,0.516c0,0.258-0.055,0.57-0.164,0.938l-0.715,2.455
					c-0.09,0.297-0.135,0.461-0.135,0.492c0,0.055,0.017,0.1,0.05,0.135s0.071,0.053,0.114,0.053c0.051,0,0.109-0.025,0.176-0.076
					c0.223-0.172,0.443-0.41,0.662-0.715l0.182,0.111c-0.133,0.207-0.317,0.435-0.554,0.683s-0.439,0.42-0.609,0.516
					s-0.321,0.144-0.454,0.144c-0.145,0-0.263-0.046-0.354-0.138s-0.138-0.21-0.138-0.354c0-0.172,0.068-0.492,0.205-0.961
					l0.674-2.344c0.086-0.293,0.129-0.523,0.129-0.691c0-0.078-0.024-0.141-0.073-0.188s-0.112-0.07-0.19-0.07
					c-0.113,0-0.242,0.043-0.387,0.129c-0.266,0.164-0.572,0.469-0.92,0.914c-0.094,0.121-0.406,0.609-0.938,1.465
					c-0.164,0.273-0.299,0.572-0.404,0.896l-0.375,1.201h-0.879l1.928-6.703l0.205-0.727c0-0.102-0.042-0.191-0.126-0.27
					s-0.187-0.117-0.308-0.117c-0.07,0-0.178,0.012-0.322,0.035l-0.123,0.018V3.385L139.057,3.045z"/>
			</g>
			<g>
				<path d="M11.144,11.375l-0.677,2.396c-0.045,0.162-0.068,0.259-0.068,0.291c0,0.036,0.011,0.065,0.033,0.088
					c0.021,0.023,0.047,0.035,0.077,0.035c0.034,0,0.075-0.019,0.123-0.055c0.13-0.104,0.261-0.249,0.393-0.438l0.12,0.078
					c-0.155,0.237-0.337,0.437-0.547,0.598c-0.155,0.121-0.303,0.182-0.444,0.182c-0.093,0-0.17-0.028-0.229-0.084
					s-0.089-0.126-0.089-0.21s0.028-0.225,0.085-0.421l0.444-1.531c0.073-0.25,0.109-0.407,0.109-0.471
					c0-0.051-0.018-0.092-0.053-0.123c-0.035-0.032-0.083-0.049-0.145-0.049c-0.05,0-0.154,0.013-0.311,0.038v-0.134L11.144,11.375z
					 M11.099,10.019c0.096,0,0.177,0.033,0.243,0.099c0.066,0.066,0.099,0.147,0.099,0.243c0,0.094-0.034,0.174-0.101,0.241
					c-0.067,0.067-0.148,0.101-0.241,0.101s-0.174-0.033-0.241-0.101c-0.067-0.067-0.101-0.147-0.101-0.241
					c0-0.096,0.033-0.177,0.099-0.243C10.922,10.052,11.003,10.019,11.099,10.019z"/>
				<path d="M37.889,11.375l-0.677,2.396c-0.045,0.162-0.068,0.259-0.068,0.291c0,0.036,0.011,0.065,0.032,0.088
					c0.022,0.023,0.047,0.035,0.077,0.035c0.034,0,0.075-0.019,0.123-0.055c0.13-0.104,0.261-0.249,0.393-0.438l0.12,0.078
					c-0.155,0.237-0.337,0.437-0.547,0.598c-0.155,0.121-0.303,0.182-0.444,0.182c-0.093,0-0.17-0.028-0.229-0.084
					s-0.089-0.126-0.089-0.21s0.028-0.225,0.085-0.421l0.444-1.531c0.073-0.25,0.109-0.407,0.109-0.471
					c0-0.051-0.018-0.092-0.053-0.123c-0.036-0.032-0.084-0.049-0.146-0.049c-0.05,0-0.154,0.013-0.311,0.038v-0.134L37.889,11.375z
					 M37.845,10.019c0.096,0,0.177,0.033,0.243,0.099c0.066,0.066,0.099,0.147,0.099,0.243c0,0.094-0.034,0.174-0.101,0.241
					c-0.067,0.067-0.147,0.101-0.241,0.101s-0.174-0.033-0.241-0.101c-0.067-0.067-0.101-0.147-0.101-0.241
					c0-0.096,0.033-0.177,0.099-0.243C37.668,10.052,37.749,10.019,37.845,10.019z"/>
			</g>
			<g>
				<path d="M71.238,11.375l-0.236,0.787c0.249-0.292,0.47-0.496,0.665-0.612c0.194-0.116,0.394-0.175,0.596-0.175
					s0.376,0.081,0.52,0.241c0.144,0.161,0.215,0.37,0.215,0.628c0,0.501-0.204,1.011-0.612,1.529s-0.883,0.777-1.425,0.777
					c-0.114,0-0.215-0.013-0.303-0.037c-0.087-0.025-0.186-0.07-0.295-0.134l-0.25,0.882c-0.05,0.173-0.075,0.286-0.075,0.338
					c0,0.051,0.013,0.094,0.039,0.129c0.026,0.035,0.069,0.063,0.128,0.082s0.177,0.029,0.352,0.029l-0.031,0.126h-1.61l0.034-0.126
					c0.212-0.01,0.355-0.046,0.429-0.109c0.074-0.064,0.152-0.241,0.234-0.53l0.865-2.994c0.052-0.189,0.079-0.307,0.079-0.353
					c0-0.061-0.018-0.109-0.053-0.143c-0.036-0.035-0.09-0.052-0.163-0.052c-0.066,0-0.158,0.008-0.277,0.024V11.55L71.238,11.375z
					 M70.442,14.11c0.141,0.169,0.332,0.254,0.571,0.254c0.119,0,0.239-0.033,0.362-0.1s0.243-0.164,0.361-0.294
					c0.117-0.13,0.223-0.279,0.316-0.449s0.177-0.37,0.251-0.601c0.074-0.229,0.111-0.457,0.111-0.684
					c0-0.182-0.042-0.321-0.125-0.418c-0.083-0.097-0.181-0.146-0.292-0.146c-0.246,0-0.489,0.142-0.73,0.424
					c-0.24,0.282-0.416,0.613-0.528,0.991L70.442,14.11z"/>
				<path d="M73.556,11.567l1.179-0.191l-0.492,1.662c0.399-0.682,0.761-1.158,1.087-1.43c0.185-0.154,0.335-0.232,0.451-0.232
					c0.075,0,0.134,0.022,0.178,0.067c0.043,0.044,0.065,0.108,0.065,0.192c0,0.15-0.039,0.295-0.116,0.432
					c-0.055,0.102-0.133,0.153-0.236,0.153c-0.052,0-0.098-0.017-0.135-0.052c-0.038-0.033-0.061-0.086-0.07-0.156
					c-0.004-0.044-0.015-0.072-0.031-0.086c-0.018-0.019-0.04-0.027-0.065-0.027c-0.039,0-0.075,0.009-0.109,0.027
					c-0.059,0.032-0.149,0.121-0.27,0.267c-0.189,0.224-0.394,0.513-0.615,0.868c-0.096,0.15-0.178,0.32-0.246,0.51
					c-0.096,0.26-0.15,0.415-0.164,0.468l-0.109,0.431h-0.523l0.632-2.123c0.073-0.246,0.109-0.421,0.109-0.525
					c0-0.041-0.017-0.076-0.051-0.104c-0.045-0.036-0.106-0.055-0.181-0.055c-0.048,0-0.136,0.011-0.263,0.031L73.556,11.567z"/>
			</g>
			<g>
				<path d="M76.745,13.18c-0.016,0.114-0.024,0.209-0.024,0.284c0,0.203,0.072,0.375,0.215,0.518s0.318,0.214,0.523,0.214
					c0.164,0,0.322-0.033,0.473-0.101c0.152-0.067,0.377-0.216,0.676-0.446l0.071,0.1c-0.54,0.535-1.055,0.803-1.545,0.803
					c-0.333,0-0.583-0.104-0.752-0.314s-0.253-0.441-0.253-0.693c0-0.34,0.105-0.688,0.314-1.043s0.473-0.632,0.79-0.829
					s0.642-0.296,0.978-0.296c0.241,0,0.42,0.05,0.536,0.147s0.175,0.214,0.175,0.349c0,0.189-0.076,0.37-0.227,0.543
					c-0.197,0.227-0.489,0.408-0.875,0.547C77.566,13.055,77.207,13.128,76.745,13.18z M76.769,13.013
					c0.337-0.039,0.612-0.104,0.824-0.198c0.28-0.125,0.49-0.275,0.631-0.449c0.14-0.175,0.21-0.34,0.21-0.498
					c0-0.096-0.03-0.173-0.091-0.232c-0.061-0.059-0.146-0.088-0.258-0.088c-0.232,0-0.479,0.123-0.74,0.37
					C77.083,12.165,76.892,12.53,76.769,13.013z"/>
				<path d="M111.553,11.375l-0.676,2.396c-0.046,0.162-0.068,0.259-0.068,0.291c0,0.036,0.011,0.065,0.032,0.088
					c0.021,0.023,0.047,0.035,0.077,0.035c0.033,0,0.074-0.019,0.123-0.055c0.129-0.104,0.261-0.249,0.393-0.438l0.119,0.078
					c-0.154,0.237-0.337,0.437-0.547,0.598c-0.154,0.121-0.303,0.182-0.443,0.182c-0.094,0-0.17-0.028-0.229-0.084
					s-0.089-0.126-0.089-0.21s0.028-0.225,0.086-0.421l0.443-1.531c0.073-0.25,0.109-0.407,0.109-0.471
					c0-0.051-0.018-0.092-0.053-0.123c-0.035-0.032-0.084-0.049-0.145-0.049c-0.051,0-0.154,0.013-0.312,0.038v-0.134
					L111.553,11.375z M111.509,10.019c0.096,0,0.177,0.033,0.243,0.099c0.065,0.066,0.099,0.147,0.099,0.243
					c0,0.094-0.033,0.174-0.101,0.241s-0.147,0.101-0.241,0.101s-0.174-0.033-0.241-0.101s-0.101-0.147-0.101-0.241
					c0-0.096,0.033-0.177,0.099-0.243C111.333,10.052,111.414,10.019,111.509,10.019z"/>
			</g>
			<g>
				<path d="M143.334,11.375l-0.236,0.787c0.248-0.292,0.47-0.496,0.665-0.612c0.194-0.116,0.394-0.175,0.597-0.175
					c0.202,0,0.375,0.081,0.52,0.241c0.143,0.161,0.215,0.37,0.215,0.628c0,0.501-0.204,1.011-0.611,1.529
					c-0.408,0.519-0.884,0.777-1.426,0.777c-0.114,0-0.215-0.013-0.303-0.037c-0.088-0.025-0.186-0.07-0.295-0.134l-0.25,0.882
					c-0.05,0.173-0.075,0.286-0.075,0.338c0,0.051,0.013,0.094,0.039,0.129s0.069,0.063,0.128,0.082
					c0.06,0.02,0.177,0.029,0.353,0.029l-0.03,0.126h-1.61l0.034-0.126c0.212-0.01,0.354-0.046,0.429-0.109
					c0.074-0.064,0.152-0.241,0.234-0.53l0.864-2.994c0.053-0.189,0.079-0.307,0.079-0.353c0-0.061-0.018-0.109-0.053-0.143
					c-0.035-0.035-0.09-0.052-0.163-0.052c-0.065,0-0.158,0.008-0.276,0.024V11.55L143.334,11.375z M142.538,14.11
					c0.142,0.169,0.332,0.254,0.57,0.254c0.119,0,0.24-0.033,0.363-0.1s0.243-0.164,0.36-0.294s0.223-0.279,0.315-0.449
					c0.094-0.17,0.178-0.37,0.252-0.601c0.074-0.229,0.111-0.457,0.111-0.684c0-0.182-0.042-0.321-0.125-0.418
					s-0.181-0.146-0.293-0.146c-0.246,0-0.489,0.142-0.729,0.424s-0.416,0.613-0.528,0.991L142.538,14.11z"/>
				<path d="M148.522,12.446c0,0.342-0.09,0.68-0.271,1.016c-0.181,0.334-0.434,0.6-0.757,0.796s-0.638,0.294-0.943,0.294
					c-0.313,0-0.566-0.1-0.764-0.299s-0.296-0.458-0.296-0.774c0-0.335,0.097-0.671,0.289-1.009c0.192-0.337,0.45-0.604,0.772-0.799
					c0.322-0.196,0.634-0.295,0.935-0.295s0.549,0.1,0.743,0.298C148.425,11.872,148.522,12.129,148.522,12.446z M147.956,12.209
					c0-0.211-0.053-0.374-0.156-0.486c-0.104-0.113-0.237-0.17-0.401-0.17c-0.335,0-0.644,0.24-0.925,0.72s-0.422,0.957-0.422,1.431
					c0,0.217,0.055,0.384,0.164,0.501s0.247,0.176,0.414,0.176c0.32,0,0.622-0.238,0.903-0.716S147.956,12.702,147.956,12.209z"/>
				<path d="M151.325,11.375l-0.208,1.05h-0.126c-0.012-0.306-0.077-0.527-0.195-0.667c-0.118-0.139-0.266-0.208-0.441-0.208
					c-0.141,0-0.253,0.039-0.336,0.116s-0.125,0.171-0.125,0.28c0,0.075,0.017,0.147,0.05,0.216s0.105,0.164,0.217,0.287
					c0.296,0.323,0.487,0.566,0.574,0.73s0.13,0.319,0.13,0.465c0,0.237-0.099,0.447-0.296,0.631s-0.446,0.275-0.747,0.275
					c-0.164,0-0.353-0.039-0.566-0.116c-0.076-0.027-0.134-0.041-0.175-0.041c-0.103,0-0.18,0.053-0.232,0.157h-0.126l0.208-1.107
					h0.126c0.014,0.347,0.086,0.592,0.216,0.734c0.13,0.145,0.308,0.216,0.533,0.216c0.173,0,0.311-0.049,0.412-0.146
					s0.151-0.216,0.151-0.357c0-0.091-0.018-0.175-0.055-0.252c-0.063-0.137-0.197-0.326-0.401-0.568
					c-0.204-0.241-0.335-0.422-0.393-0.543c-0.059-0.121-0.087-0.241-0.087-0.362c0-0.221,0.08-0.408,0.24-0.561
					c0.161-0.152,0.367-0.229,0.621-0.229c0.072,0,0.139,0.006,0.197,0.018c0.032,0.007,0.107,0.032,0.225,0.077
					c0.117,0.044,0.195,0.066,0.234,0.066c0.098,0,0.18-0.054,0.246-0.161H151.325z"/>
			</g>
			<g>
				<path d="M153.321,10.528l-0.267,0.93h0.536l-0.058,0.216H153l-0.588,2.017c-0.063,0.217-0.096,0.356-0.096,0.42
					c0,0.039,0.009,0.068,0.027,0.09c0.019,0.02,0.04,0.03,0.065,0.03c0.057,0,0.132-0.04,0.225-0.12
					c0.055-0.045,0.177-0.186,0.366-0.42l0.112,0.086c-0.209,0.305-0.407,0.521-0.594,0.646c-0.128,0.087-0.257,0.13-0.387,0.13
					c-0.101,0-0.183-0.031-0.246-0.094s-0.096-0.144-0.096-0.241c0-0.123,0.036-0.312,0.109-0.563l0.57-1.979h-0.516l0.034-0.134
					c0.251-0.068,0.459-0.17,0.626-0.306c0.166-0.136,0.352-0.37,0.557-0.706H153.321z"/>
			</g>
			<g>
				<path d="M24.93,8.752h-8.988V8.184h8.988c-0.555-0.641-0.943-1.136-1.166-1.485s-0.439-0.784-0.65-1.304h0.469
					c0.457,0.563,1.025,1.133,1.705,1.711s1.219,0.98,1.617,1.207v0.328c-0.52,0.289-1.087,0.703-1.702,1.242
					s-1.155,1.092-1.62,1.658h-0.469c0.223-0.527,0.451-0.975,0.686-1.342S24.411,9.35,24.93,8.752z"/>
			</g>
			<g>
				<path d="M43.184,10.235c0.184,0,0.339,0.064,0.466,0.193s0.19,0.283,0.19,0.463s-0.064,0.333-0.193,0.46s-0.283,0.19-0.463,0.19
					s-0.333-0.063-0.46-0.19s-0.19-0.28-0.19-0.46s0.063-0.334,0.19-0.463S43.004,10.235,43.184,10.235z M43.196,5.846
					c0.18,0,0.333,0.063,0.46,0.19s0.19,0.28,0.19,0.46s-0.063,0.333-0.19,0.46s-0.28,0.19-0.46,0.19s-0.333-0.063-0.46-0.19
					s-0.19-0.28-0.19-0.46s0.063-0.333,0.19-0.46S43.016,5.846,43.196,5.846z"/>
			</g>
		</g>
	</g>
</g>
</svg>
