<?xml version="1.0" encoding="utf-8"?>
<!-- Generator: Adobe Illustrator 14.0.0, SVG Export Plug-In . SVG Version: 6.00 Build 43363)  -->
<!DOCTYPE svg PUBLIC "-//W3C//DTD SVG 1.1//EN" "http://www.w3.org/Graphics/SVG/1.1/DTD/svg11.dtd">
<svg version="1.1" xmlns="http://www.w3.org/2000/svg" xmlns:xlink="http://www.w3.org/1999/xlink" x="0px" y="0px"
	 width="134.48px" height="15.571px" viewBox="0 0 134.48 15.571" style="enable-background:new 0 0 134.48 15.571;"
	 xml:space="preserve">
<g id="Layer_1">
</g>
<g id="Layer_2">
	<g id="theGroup">
		<g>
			<g>
				<path d="M1.67,2.288h3.357L4.963,2.504C4.62,2.512,4.375,2.544,4.228,2.601S3.957,2.758,3.853,2.903S3.641,3.315,3.528,3.706
					L2.713,6.518c-0.145,0.5-0.23,0.828-0.258,0.984c-0.047,0.25-0.07,0.482-0.07,0.697c0,0.473,0.176,0.872,0.527,1.198
					s0.822,0.489,1.412,0.489c0.387,0,0.732-0.073,1.037-0.22s0.565-0.352,0.782-0.615S6.559,8.431,6.739,7.98
					s0.338-0.907,0.475-1.368l0.703-2.426c0.176-0.605,0.264-1,0.264-1.184c0-0.129-0.06-0.239-0.179-0.331s-0.36-0.147-0.724-0.167
					l0.064-0.217h2.525L9.803,2.504c-0.297,0-0.511,0.028-0.642,0.085S8.917,2.748,8.819,2.894S8.612,3.325,8.491,3.747L7.629,6.694
					C7.352,7.651,7.09,8.357,6.844,8.812S6.242,9.648,5.775,9.955s-1.046,0.46-1.737,0.46c-0.797,0-1.439-0.226-1.928-0.677
					S1.377,8.77,1.377,8.188c0-0.23,0.021-0.477,0.064-0.738C1.473,7.278,1.549,6.981,1.67,6.559l0.785-2.701
					C2.565,3.467,2.62,3.18,2.62,2.997c0-0.145-0.056-0.257-0.167-0.337S2.061,2.528,1.612,2.504L1.67,2.288z"/>
			</g>
			<g>
				<path d="M33.374,1.901L31.727,7.59c0.711-1.07,1.266-1.781,1.664-2.133S34.17,4.93,34.534,4.93c0.188,0,0.344,0.064,0.469,0.193
					s0.188,0.301,0.188,0.516c0,0.258-0.055,0.57-0.164,0.938l-0.715,2.455c-0.09,0.297-0.135,0.461-0.135,0.492
					c0,0.055,0.017,0.1,0.05,0.135s0.071,0.053,0.114,0.053c0.051,0,0.109-0.025,0.176-0.076c0.223-0.172,0.443-0.41,0.662-0.715
					l0.182,0.111c-0.133,0.207-0.317,0.435-0.554,0.683s-0.439,0.42-0.609,0.516s-0.321,0.144-0.454,0.144
					c-0.145,0-0.263-0.046-0.354-0.138s-0.138-0.21-0.138-0.354c0-0.172,0.068-0.492,0.205-0.961l0.674-2.344
					c0.086-0.293,0.129-0.523,0.129-0.691c0-0.078-0.024-0.141-0.073-0.188s-0.112-0.07-0.19-0.07c-0.113,0-0.242,0.043-0.387,0.129
					c-0.266,0.164-0.572,0.469-0.92,0.914c-0.094,0.121-0.406,0.609-0.938,1.465c-0.164,0.273-0.299,0.572-0.404,0.896l-0.375,1.201
					h-0.879L32.02,3.53l0.205-0.727c0-0.102-0.042-0.191-0.126-0.27s-0.187-0.117-0.308-0.117c-0.07,0-0.178,0.012-0.322,0.035
					l-0.123,0.018V2.241L33.374,1.901z"/>
				<path d="M41.483,4.93L40.34,8.903l-0.129,0.533C40.2,9.487,40.194,9.53,40.194,9.565c0,0.063,0.02,0.117,0.059,0.164
					c0.031,0.035,0.07,0.053,0.117,0.053c0.051,0,0.117-0.031,0.199-0.094c0.152-0.113,0.355-0.348,0.609-0.703l0.199,0.141
					c-0.27,0.406-0.547,0.716-0.832,0.929s-0.549,0.319-0.791,0.319c-0.168,0-0.294-0.042-0.378-0.126s-0.126-0.206-0.126-0.366
					c0-0.191,0.043-0.443,0.129-0.756l0.123-0.439c-0.512,0.668-0.982,1.135-1.412,1.4c-0.309,0.191-0.611,0.287-0.908,0.287
					c-0.285,0-0.531-0.118-0.738-0.354s-0.311-0.562-0.311-0.976c0-0.621,0.187-1.276,0.56-1.966s0.847-1.241,1.421-1.655
					c0.449-0.328,0.873-0.492,1.271-0.492c0.238,0,0.437,0.063,0.595,0.188s0.278,0.332,0.36,0.621l0.211-0.668L41.483,4.93z
					 M39.397,5.235c-0.25,0-0.516,0.117-0.797,0.352c-0.398,0.332-0.753,0.824-1.063,1.477s-0.466,1.242-0.466,1.77
					c0,0.266,0.066,0.476,0.199,0.63s0.285,0.231,0.457,0.231c0.426,0,0.889-0.314,1.389-0.943c0.668-0.836,1.002-1.693,1.002-2.572
					c0-0.332-0.064-0.572-0.193-0.721S39.62,5.235,39.397,5.235z"/>
				<path d="M46.206,4.93l-0.357,1.799h-0.217c-0.02-0.523-0.131-0.904-0.334-1.143s-0.455-0.357-0.756-0.357
					c-0.242,0-0.435,0.066-0.577,0.199s-0.214,0.293-0.214,0.48c0,0.129,0.028,0.252,0.085,0.369s0.181,0.281,0.372,0.492
					c0.508,0.555,0.836,0.973,0.984,1.254s0.223,0.547,0.223,0.797c0,0.406-0.169,0.767-0.507,1.081s-0.765,0.472-1.28,0.472
					c-0.281,0-0.605-0.066-0.973-0.199c-0.129-0.047-0.229-0.07-0.299-0.07c-0.176,0-0.309,0.09-0.398,0.27h-0.217l0.357-1.898
					h0.217c0.023,0.594,0.146,1.014,0.369,1.26s0.527,0.369,0.914,0.369c0.297,0,0.532-0.083,0.706-0.249s0.261-0.37,0.261-0.612
					c0-0.156-0.031-0.301-0.094-0.434c-0.109-0.234-0.339-0.559-0.688-0.973s-0.574-0.725-0.674-0.932s-0.149-0.414-0.149-0.621
					c0-0.379,0.138-0.699,0.413-0.961s0.63-0.393,1.063-0.393c0.125,0,0.238,0.01,0.34,0.029c0.055,0.012,0.183,0.056,0.384,0.132
					s0.335,0.114,0.401,0.114c0.168,0,0.309-0.092,0.422-0.275H46.206z"/>
			</g>
			<g>
				<path d="M50.059,1.901L48.413,7.59c0.711-1.07,1.266-1.781,1.664-2.133s0.779-0.527,1.143-0.527
					c0.188,0,0.344,0.064,0.469,0.193s0.188,0.301,0.188,0.516c0,0.258-0.055,0.57-0.164,0.938l-0.715,2.455
					c-0.09,0.297-0.135,0.461-0.135,0.492c0,0.055,0.017,0.1,0.05,0.135s0.071,0.053,0.114,0.053c0.051,0,0.109-0.025,0.176-0.076
					c0.223-0.172,0.443-0.41,0.662-0.715l0.182,0.111c-0.133,0.207-0.317,0.435-0.554,0.683s-0.439,0.42-0.609,0.516
					s-0.321,0.144-0.454,0.144c-0.145,0-0.263-0.046-0.354-0.138s-0.138-0.21-0.138-0.354c0-0.172,0.068-0.492,0.205-0.961
					l0.674-2.344c0.086-0.293,0.129-0.523,0.129-0.691c0-0.078-0.024-0.141-0.073-0.188s-0.112-0.07-0.19-0.07
					c-0.113,0-0.242,0.043-0.387,0.129c-0.266,0.164-0.572,0.469-0.92,0.914c-0.094,0.121-0.406,0.609-0.938,1.465
					c-0.164,0.273-0.299,0.572-0.404,0.896l-0.375,1.201h-0.879l1.928-6.703l0.205-0.727c0-0.102-0.042-0.191-0.126-0.27
					s-0.187-0.117-0.308-0.117c-0.07,0-0.178,0.012-0.322,0.035l-0.123,0.018V2.241L50.059,1.901z"/>
				<path d="M62.121,10.016l-0.064,0.217h-3.27l0.082-0.217c0.328-0.008,0.545-0.035,0.65-0.082
					c0.172-0.066,0.299-0.158,0.381-0.275c0.129-0.184,0.262-0.512,0.398-0.984l1.383-4.793c0.117-0.398,0.176-0.699,0.176-0.902
					c0-0.102-0.025-0.188-0.076-0.258s-0.128-0.124-0.231-0.161s-0.306-0.056-0.606-0.056l0.07-0.217h3.07l-0.064,0.217
					c-0.25-0.004-0.436,0.023-0.557,0.082c-0.176,0.078-0.31,0.189-0.401,0.334s-0.21,0.465-0.354,0.961L61.33,8.674
					c-0.125,0.441-0.188,0.723-0.188,0.844c0,0.098,0.024,0.181,0.073,0.249s0.127,0.121,0.234,0.158S61.781,9.993,62.121,10.016z"
					/>
			</g>
			<g>
				<path d="M64.858,2.504l0.07-0.217h2.537c1.074,0,1.87,0.123,2.388,0.369s0.931,0.634,1.239,1.163s0.463,1.097,0.463,1.702
					c0,0.52-0.089,1.024-0.267,1.515s-0.379,0.883-0.604,1.178s-0.569,0.62-1.034,0.976s-0.969,0.618-1.512,0.788
					s-1.221,0.255-2.033,0.255h-3.363l0.076-0.217c0.309-0.008,0.516-0.035,0.621-0.082c0.156-0.066,0.271-0.156,0.346-0.27
					c0.113-0.164,0.24-0.494,0.381-0.99l1.406-4.805c0.109-0.379,0.164-0.676,0.164-0.891c0-0.152-0.051-0.27-0.152-0.352
					s-0.301-0.123-0.598-0.123H64.858z M66.938,2.727l-1.723,5.947C65.086,9.12,65.022,9.395,65.022,9.5
					c0,0.063,0.021,0.123,0.062,0.182S65.18,9.78,65.25,9.799c0.102,0.035,0.266,0.053,0.492,0.053c0.613,0,1.183-0.063,1.708-0.19
					s0.956-0.315,1.292-0.565c0.477-0.363,0.857-0.863,1.143-1.5s0.428-1.361,0.428-2.174c0-0.918-0.219-1.601-0.656-2.048
					s-1.076-0.671-1.916-0.671C67.534,2.704,67.266,2.711,66.938,2.727z"/>
			</g>
			<g>
				<path d="M11.056,10.231l-0.677,2.396c-0.045,0.162-0.068,0.259-0.068,0.291c0,0.036,0.011,0.065,0.033,0.088
					c0.021,0.023,0.047,0.035,0.077,0.035c0.034,0,0.075-0.019,0.123-0.055c0.13-0.104,0.261-0.249,0.393-0.438l0.12,0.078
					c-0.155,0.237-0.337,0.437-0.547,0.598c-0.155,0.121-0.303,0.182-0.444,0.182c-0.093,0-0.17-0.028-0.229-0.084
					s-0.089-0.126-0.089-0.21s0.028-0.225,0.085-0.421l0.444-1.531c0.073-0.25,0.109-0.407,0.109-0.471
					c0-0.051-0.018-0.092-0.053-0.123c-0.035-0.032-0.083-0.049-0.145-0.049c-0.05,0-0.154,0.013-0.311,0.038v-0.134L11.056,10.231z
					 M11.011,8.875c0.096,0,0.177,0.033,0.243,0.099c0.066,0.066,0.099,0.147,0.099,0.243c0,0.094-0.034,0.174-0.101,0.241
					c-0.067,0.067-0.148,0.101-0.241,0.101s-0.174-0.033-0.241-0.101c-0.067-0.067-0.101-0.147-0.101-0.241
					c0-0.096,0.033-0.177,0.099-0.243C10.834,8.908,10.916,8.875,11.011,8.875z"/>
				<path d="M74.43,10.313l-0.595,2.037c-0.089,0.304-0.134,0.495-0.134,0.574c0,0.041,0.008,0.071,0.022,0.091
					s0.035,0.029,0.06,0.029c0.039,0,0.082-0.018,0.129-0.053s0.164-0.177,0.354-0.423l0.103,0.079
					c-0.18,0.285-0.364,0.494-0.554,0.629c-0.125,0.087-0.246,0.13-0.362,0.13c-0.089,0-0.158-0.025-0.208-0.075
					c-0.051-0.05-0.076-0.115-0.076-0.194c0-0.078,0.016-0.181,0.045-0.309c0.036-0.168,0.141-0.535,0.311-1.1
					c-0.387,0.635-0.711,1.074-0.972,1.315s-0.503,0.362-0.727,0.362c-0.104,0-0.193-0.036-0.267-0.109s-0.109-0.165-0.109-0.277
					c0-0.17,0.05-0.433,0.15-0.785l0.297-1.057c0.073-0.253,0.109-0.41,0.109-0.472c0-0.027-0.009-0.051-0.028-0.07
					s-0.041-0.028-0.063-0.028c-0.048,0-0.096,0.017-0.144,0.051s-0.156,0.16-0.325,0.379l-0.105-0.074
					c0.171-0.265,0.352-0.46,0.543-0.585c0.146-0.098,0.281-0.147,0.404-0.147c0.084,0,0.152,0.027,0.206,0.081
					s0.081,0.122,0.081,0.206c0,0.123-0.046,0.344-0.137,0.66l-0.322,1.104c-0.088,0.301-0.133,0.491-0.133,0.571
					c0,0.043,0.015,0.078,0.043,0.104s0.066,0.039,0.114,0.039c0.075,0,0.173-0.037,0.294-0.113c0.121-0.074,0.282-0.241,0.483-0.5
					c0.202-0.259,0.368-0.502,0.499-0.729s0.271-0.587,0.419-1.082l0.075-0.26H74.43z"/>
			</g>
			<path d="M23.712,9.045c-0.24,0.372-0.468,0.815-0.684,1.344h0.468c0.468-0.564,1.007-1.115,1.619-1.655s1.188-0.947,1.703-1.235
				V7.175c-0.396-0.228-0.936-0.636-1.619-1.211s-1.248-1.14-1.703-1.703h-0.468c0.204,0.516,0.432,0.947,0.648,1.295
				c0.228,0.36,0.611,0.852,1.163,1.487h-8.983v0.564h8.983C24.324,8.206,23.94,8.686,23.712,9.045L23.712,9.045z"/>
			<path d="M56.333,12.534c-0.287-0.618-0.504-1.378-0.636-2.313c-0.144-0.935-0.216-1.964-0.216-3.121
				c0-1.014,0.072-1.979,0.229-2.914c0.155-0.951,0.384-1.71,0.695-2.329c0.3-0.602,0.695-1.077,1.176-1.441V0.1
				c-0.96,0.57-1.739,1.504-2.327,2.819c-0.6,1.33-0.899,2.788-0.899,4.387c0,1.537,0.288,2.961,0.852,4.26s1.355,2.281,2.375,2.946
				V14.18C57.041,13.69,56.621,13.135,56.333,12.534L56.333,12.534z M78.461,2.08c0.287,0.602,0.504,1.378,0.647,2.312
				c0.132,0.919,0.204,1.964,0.204,3.104c0,1.029-0.072,1.996-0.229,2.931c-0.144,0.934-0.371,1.71-0.684,2.312
				c-0.312,0.618-0.707,1.094-1.188,1.441v0.333c0.96-0.57,1.739-1.505,2.327-2.835c0.6-1.314,0.899-2.771,0.899-4.372
				c0-1.552-0.288-2.962-0.852-4.261S78.233,0.765,77.213,0.1v0.317C77.753,0.908,78.173,1.462,78.461,2.08L78.461,2.08z"/>
		</g>
	</g>
</g>
</svg>
