<?xml version="1.0" encoding="utf-8"?>
<!-- Generator: Adobe Illustrator 14.0.0, SVG Export Plug-In . SVG Version: 6.00 Build 43363)  -->
<!DOCTYPE svg PUBLIC "-//W3C//DTD SVG 1.1//EN" "http://www.w3.org/Graphics/SVG/1.1/DTD/svg11.dtd">
<svg version="1.1" xmlns="http://www.w3.org/2000/svg" xmlns:xlink="http://www.w3.org/1999/xlink" x="0px" y="0px"
	 width="218.883px" height="69.967px" viewBox="0 0 218.883 69.967" style="enable-background:new 0 0 218.883 69.967;"
	 xml:space="preserve">
<g id="Layer_1">
</g>
<g id="Layer_2">
	<g id="theGroup">
		<g>
			
				<line style="fill:none;stroke:#000000;stroke-width:0.25;stroke-miterlimit:10;" x1="98.784" y1="27.942" x2="148.003" y2="27.942"/>
			
				<line style="fill:none;stroke:#000000;stroke-width:0.5;stroke-miterlimit:10;" x1="34.597" y1="51.724" x2="160.003" y2="51.724"/>
			<polyline points="26.472,45.96 28.134,41.224 30.729,62.065 33.672,0.63 161.003,0.63 161.003,1.224 34.238,1.224 31.026,68.286 
				30.432,68.286 27.458,44.405 26.864,46.098 			"/>
			<g>
				<path d="M2.452,54.905l0.656-6.615c0.031-0.336,0.047-0.563,0.047-0.68c0-0.176-0.065-0.322-0.196-0.439
					s-0.337-0.176-0.618-0.176H2.13l0.059-0.217h3.135l-0.064,0.217c-0.34,0.004-0.573,0.039-0.7,0.105s-0.228,0.18-0.302,0.34
					c-0.039,0.086-0.08,0.33-0.123,0.732l-0.469,4.74l3.1-4.23c0.336-0.457,0.547-0.775,0.633-0.955
					c0.059-0.121,0.088-0.227,0.088-0.316c0-0.105-0.045-0.197-0.135-0.275s-0.258-0.125-0.504-0.141l0.07-0.217h2.391l-0.059,0.217
					c-0.191,0.016-0.344,0.053-0.457,0.111c-0.215,0.102-0.429,0.256-0.642,0.463s-0.55,0.625-1.011,1.254l-4.477,6.082H2.452z"/>
			</g>
			<g>
				<path d="M75.216,25.778l-0.105,0.387h-0.855l-0.645,2.561c-0.285,1.129-0.572,2.002-0.861,2.619
					c-0.41,0.871-0.852,1.473-1.324,1.805c-0.359,0.254-0.719,0.381-1.078,0.381c-0.234,0-0.434-0.07-0.598-0.211
					c-0.121-0.098-0.182-0.225-0.182-0.381c0-0.125,0.05-0.233,0.149-0.325s0.222-0.138,0.366-0.138c0.105,0,0.194,0.033,0.267,0.1
					s0.108,0.143,0.108,0.229s-0.041,0.166-0.123,0.24c-0.063,0.055-0.094,0.096-0.094,0.123c0,0.035,0.014,0.063,0.041,0.082
					c0.035,0.027,0.09,0.041,0.164,0.041c0.168,0,0.345-0.053,0.53-0.158s0.351-0.263,0.495-0.472s0.281-0.511,0.41-0.905
					c0.055-0.164,0.201-0.705,0.439-1.623l1.02-3.967h-1.02l0.082-0.387c0.324,0,0.551-0.022,0.68-0.067s0.247-0.131,0.354-0.258
					s0.247-0.364,0.419-0.712c0.23-0.469,0.451-0.832,0.662-1.09c0.289-0.348,0.593-0.608,0.911-0.782s0.618-0.261,0.899-0.261
					c0.297,0,0.535,0.075,0.715,0.226s0.27,0.313,0.27,0.489c0,0.137-0.045,0.252-0.135,0.346s-0.205,0.141-0.346,0.141
					c-0.121,0-0.22-0.035-0.296-0.105s-0.114-0.154-0.114-0.252c0-0.063,0.025-0.14,0.076-0.231s0.076-0.153,0.076-0.185
					c0-0.055-0.018-0.096-0.053-0.123c-0.051-0.039-0.125-0.059-0.223-0.059c-0.246,0-0.467,0.078-0.662,0.234
					c-0.262,0.207-0.496,0.531-0.703,0.973c-0.105,0.23-0.299,0.803-0.58,1.717H75.216z"/>
			</g>
			<g>
				<path d="M133.528,14.614l-0.105,0.387h-0.855l-0.645,2.561c-0.285,1.129-0.572,2.002-0.861,2.619
					c-0.41,0.871-0.852,1.473-1.324,1.805c-0.359,0.254-0.719,0.381-1.078,0.381c-0.234,0-0.434-0.07-0.598-0.211
					c-0.121-0.098-0.182-0.225-0.182-0.381c0-0.125,0.05-0.233,0.149-0.325s0.222-0.138,0.366-0.138c0.105,0,0.194,0.033,0.267,0.1
					s0.108,0.143,0.108,0.229s-0.041,0.166-0.123,0.24c-0.063,0.055-0.094,0.096-0.094,0.123c0,0.035,0.014,0.063,0.041,0.082
					c0.035,0.027,0.09,0.041,0.164,0.041c0.168,0,0.345-0.053,0.53-0.158s0.351-0.263,0.495-0.472s0.281-0.511,0.41-0.905
					c0.055-0.164,0.201-0.705,0.439-1.623l1.02-3.967h-1.02l0.082-0.387c0.324,0,0.551-0.022,0.68-0.067s0.247-0.131,0.354-0.258
					s0.247-0.364,0.419-0.712c0.23-0.469,0.451-0.832,0.662-1.09c0.289-0.348,0.593-0.608,0.911-0.782s0.618-0.261,0.899-0.261
					c0.297,0,0.535,0.075,0.715,0.226s0.27,0.313,0.27,0.489c0,0.137-0.045,0.252-0.135,0.346s-0.205,0.141-0.346,0.141
					c-0.121,0-0.22-0.035-0.296-0.105s-0.114-0.154-0.114-0.252c0-0.063,0.025-0.14,0.076-0.231s0.076-0.153,0.076-0.185
					c0-0.055-0.018-0.096-0.053-0.123c-0.051-0.039-0.125-0.059-0.223-0.059c-0.246,0-0.467,0.078-0.662,0.234
					c-0.262,0.207-0.496,0.531-0.703,0.973c-0.105,0.23-0.299,0.803-0.58,1.717H133.528z"/>
			</g>
			<g>
				<path d="M116.13,32.177l2.455,6.229l1.33-4.652c0.109-0.383,0.164-0.68,0.164-0.891c0-0.145-0.051-0.258-0.152-0.34
					s-0.291-0.123-0.568-0.123c-0.047,0-0.096-0.002-0.146-0.006l0.064-0.217h2.555l-0.07,0.217
					c-0.266-0.004-0.463,0.023-0.592,0.082c-0.184,0.082-0.32,0.188-0.41,0.316c-0.125,0.184-0.252,0.504-0.381,0.961l-1.869,6.551
					h-0.211l-2.643-6.703l-1.412,4.951c-0.105,0.375-0.158,0.662-0.158,0.861c0,0.148,0.048,0.261,0.144,0.337
					s0.323,0.128,0.683,0.155l-0.059,0.217h-2.496l0.082-0.217c0.313-0.008,0.521-0.035,0.627-0.082
					c0.16-0.07,0.279-0.162,0.357-0.275c0.113-0.172,0.24-0.504,0.381-0.996l1.576-5.525c-0.152-0.234-0.315-0.396-0.489-0.483
					s-0.444-0.138-0.812-0.149l0.064-0.217H116.13z"/>
			</g>
			<g>
				<path d="M90.036,56.153l2.455,6.229l1.33-4.652c0.109-0.383,0.164-0.68,0.164-0.891c0-0.145-0.051-0.258-0.152-0.34
					s-0.291-0.123-0.568-0.123c-0.047,0-0.096-0.002-0.146-0.006l0.064-0.217h2.555l-0.07,0.217
					c-0.266-0.004-0.463,0.023-0.592,0.082c-0.184,0.082-0.32,0.188-0.41,0.316c-0.125,0.184-0.252,0.504-0.381,0.961l-1.869,6.551
					h-0.211l-2.643-6.703l-1.412,4.951c-0.105,0.375-0.158,0.662-0.158,0.861c0,0.148,0.048,0.261,0.144,0.337
					s0.323,0.128,0.683,0.155l-0.059,0.217h-2.496l0.082-0.217c0.313-0.008,0.521-0.035,0.627-0.082
					c0.16-0.07,0.279-0.162,0.357-0.275c0.113-0.172,0.24-0.504,0.381-0.996l1.576-5.525c-0.152-0.234-0.315-0.396-0.489-0.483
					s-0.444-0.138-0.812-0.149l0.064-0.217H90.036z"/>
			</g>
			<g>
				<path d="M9.167,53.874L8.9,54.804h0.537L9.379,55.02H8.846l-0.588,2.017c-0.064,0.217-0.096,0.356-0.096,0.42
					c0,0.039,0.009,0.068,0.027,0.09c0.018,0.02,0.04,0.03,0.065,0.03c0.057,0,0.132-0.04,0.226-0.12
					c0.055-0.045,0.177-0.186,0.366-0.42l0.113,0.086c-0.209,0.305-0.408,0.521-0.595,0.646c-0.127,0.087-0.256,0.13-0.386,0.13
					c-0.1,0-0.182-0.031-0.246-0.094s-0.096-0.144-0.096-0.241c0-0.123,0.037-0.312,0.109-0.563l0.571-1.979H7.8l0.034-0.134
					c0.25-0.068,0.459-0.17,0.625-0.306s0.352-0.37,0.557-0.706H9.167z"/>
				<path d="M11.369,52.955l-0.96,3.319c0.415-0.625,0.738-1.039,0.971-1.244s0.455-0.309,0.667-0.309
					c0.109,0,0.201,0.038,0.273,0.113s0.109,0.176,0.109,0.301c0,0.15-0.032,0.333-0.096,0.547l-0.417,1.432
					c-0.052,0.174-0.079,0.27-0.079,0.287c0,0.032,0.01,0.059,0.029,0.079c0.019,0.021,0.042,0.03,0.066,0.03
					c0.03,0,0.064-0.015,0.103-0.044c0.13-0.101,0.259-0.239,0.386-0.417l0.106,0.064c-0.078,0.121-0.185,0.254-0.323,0.398
					c-0.138,0.145-0.256,0.245-0.355,0.301c-0.099,0.056-0.187,0.084-0.265,0.084c-0.084,0-0.153-0.026-0.207-0.08
					c-0.053-0.054-0.08-0.123-0.08-0.207c0-0.101,0.04-0.287,0.12-0.561l0.393-1.367c0.05-0.171,0.075-0.306,0.075-0.403
					c0-0.046-0.014-0.082-0.043-0.109c-0.028-0.027-0.065-0.041-0.111-0.041c-0.066,0-0.141,0.025-0.226,0.075
					c-0.155,0.096-0.334,0.273-0.537,0.533c-0.055,0.07-0.237,0.355-0.547,0.854c-0.096,0.159-0.174,0.334-0.236,0.522l-0.219,0.701
					H9.455l1.125-3.91l0.12-0.424c0-0.06-0.024-0.111-0.074-0.157c-0.049-0.046-0.108-0.068-0.179-0.068
					c-0.041,0-0.104,0.007-0.188,0.021l-0.072,0.01v-0.133L11.369,52.955z"/>
			</g>
			<g>
				<path d="M56.365,33.16l-0.677,2.396c-0.045,0.162-0.068,0.259-0.068,0.291c0,0.036,0.011,0.065,0.033,0.088
					c0.021,0.023,0.047,0.035,0.077,0.035c0.034,0,0.075-0.019,0.123-0.055c0.13-0.104,0.261-0.249,0.393-0.438l0.12,0.078
					c-0.155,0.237-0.337,0.437-0.547,0.598c-0.155,0.121-0.303,0.182-0.444,0.182c-0.093,0-0.17-0.028-0.229-0.084
					s-0.089-0.126-0.089-0.21s0.028-0.225,0.085-0.421l0.444-1.531c0.073-0.25,0.109-0.408,0.109-0.472
					c0-0.05-0.018-0.091-0.053-0.123c-0.035-0.032-0.083-0.048-0.145-0.048c-0.05,0-0.154,0.013-0.311,0.038v-0.133L56.365,33.16z
					 M56.32,31.803c0.096,0,0.177,0.033,0.243,0.099s0.099,0.147,0.099,0.243c0,0.093-0.034,0.174-0.101,0.241
					c-0.067,0.067-0.148,0.101-0.241,0.101s-0.174-0.034-0.241-0.101c-0.067-0.067-0.101-0.148-0.101-0.241
					c0-0.096,0.033-0.177,0.099-0.243S56.225,31.803,56.32,31.803z"/>
			</g>
			<g>
				<path d="M57.291,18.526l1.432,3.633l0.776-2.714c0.064-0.223,0.096-0.396,0.096-0.52c0-0.084-0.03-0.15-0.089-0.198
					s-0.17-0.072-0.332-0.072c-0.027,0-0.056-0.001-0.085-0.003l0.038-0.126h1.49l-0.041,0.126c-0.155-0.002-0.27,0.014-0.345,0.048
					c-0.107,0.048-0.187,0.109-0.239,0.185c-0.073,0.107-0.147,0.294-0.222,0.561l-1.09,3.821h-0.123l-1.542-3.91l-0.824,2.888
					c-0.062,0.219-0.092,0.386-0.092,0.502c0,0.086,0.028,0.152,0.084,0.197c0.056,0.044,0.188,0.074,0.398,0.09l-0.034,0.126
					h-1.456l0.048-0.126c0.182-0.004,0.304-0.021,0.366-0.048c0.093-0.041,0.163-0.095,0.208-0.161
					c0.066-0.1,0.14-0.294,0.222-0.581l0.919-3.223c-0.089-0.137-0.184-0.231-0.286-0.282c-0.101-0.052-0.259-0.081-0.473-0.087
					l0.038-0.126H57.291z"/>
			</g>
			<g>
				<path d="M78.677,32.005c0,0.342-0.09,0.68-0.272,1.015c-0.181,0.335-0.433,0.601-0.757,0.796s-0.638,0.294-0.943,0.294
					c-0.312,0-0.567-0.1-0.764-0.299c-0.197-0.2-0.296-0.458-0.296-0.774c0-0.335,0.096-0.671,0.289-1.008
					c0.192-0.337,0.45-0.604,0.772-0.8c0.322-0.196,0.634-0.294,0.935-0.294s0.549,0.099,0.743,0.297
					C78.58,31.431,78.677,31.688,78.677,32.005z M78.11,31.769c0-0.212-0.052-0.375-0.156-0.487
					c-0.104-0.113-0.237-0.169-0.401-0.169c-0.335,0-0.643,0.24-0.925,0.719c-0.281,0.48-0.422,0.957-0.422,1.431
					c0,0.216,0.055,0.383,0.164,0.501c0.109,0.117,0.247,0.176,0.414,0.176c0.321,0,0.623-0.239,0.904-0.716
					C77.969,32.746,78.11,32.261,78.11,31.769z"/>
				<path d="M80.489,30.935l-0.236,0.786c0.249-0.292,0.47-0.496,0.665-0.612c0.194-0.116,0.394-0.174,0.596-0.174
					s0.376,0.081,0.52,0.241c0.144,0.161,0.215,0.37,0.215,0.627c0,0.501-0.204,1.011-0.612,1.53
					c-0.408,0.518-0.883,0.777-1.425,0.777c-0.114,0-0.215-0.013-0.303-0.038c-0.087-0.025-0.186-0.069-0.295-0.133l-0.25,0.882
					c-0.05,0.173-0.075,0.286-0.075,0.338c0,0.051,0.013,0.094,0.039,0.129c0.026,0.035,0.069,0.063,0.128,0.082
					s0.177,0.029,0.352,0.029l-0.031,0.126h-1.61l0.034-0.126c0.212-0.01,0.355-0.046,0.429-0.109
					c0.074-0.064,0.152-0.241,0.234-0.53l0.865-2.994c0.052-0.189,0.079-0.307,0.079-0.352c0-0.062-0.018-0.109-0.053-0.144
					c-0.036-0.034-0.09-0.051-0.163-0.051c-0.066,0-0.158,0.008-0.277,0.024v-0.133L80.489,30.935z M79.692,33.669
					c0.141,0.168,0.332,0.253,0.571,0.253c0.119,0,0.239-0.033,0.362-0.099s0.243-0.164,0.361-0.294
					c0.117-0.13,0.223-0.28,0.316-0.449c0.093-0.17,0.177-0.37,0.251-0.6c0.074-0.23,0.111-0.458,0.111-0.684
					c0-0.182-0.042-0.322-0.125-0.418c-0.083-0.097-0.181-0.146-0.292-0.146c-0.246,0-0.489,0.141-0.73,0.424
					c-0.24,0.283-0.416,0.613-0.528,0.991L79.692,33.669z"/>
				<path d="M84.259,30.087l-0.267,0.93h0.537l-0.058,0.215h-0.533l-0.588,2.017c-0.064,0.216-0.096,0.356-0.096,0.42
					c0,0.039,0.009,0.068,0.027,0.089s0.04,0.031,0.065,0.031c0.057,0,0.132-0.04,0.226-0.12c0.055-0.045,0.177-0.186,0.366-0.42
					l0.113,0.085c-0.209,0.305-0.408,0.521-0.595,0.646c-0.127,0.086-0.256,0.13-0.386,0.13c-0.1,0-0.182-0.031-0.246-0.094
					c-0.064-0.063-0.096-0.143-0.096-0.241c0-0.123,0.037-0.311,0.109-0.564l0.571-1.979h-0.516l0.034-0.133
					c0.25-0.068,0.459-0.17,0.625-0.306c0.167-0.135,0.352-0.371,0.557-0.706H84.259z"/>
			</g>
			<g>
				<path d="M116.224,21.996l-0.886,3.059c-0.157,0.547-0.373,0.941-0.647,1.183S114.119,26.6,113.8,26.6
					c-0.144,0-0.252-0.033-0.326-0.099s-0.111-0.145-0.111-0.236c0-0.071,0.028-0.133,0.084-0.187c0.056-0.053,0.12-0.08,0.193-0.08
					c0.065,0,0.124,0.021,0.174,0.065c0.041,0.034,0.062,0.073,0.062,0.116c0,0.059-0.028,0.11-0.085,0.154
					c-0.032,0.025-0.049,0.045-0.049,0.062l0.008,0.017c0.006,0.009,0.017,0.016,0.03,0.021s0.034,0.007,0.062,0.007
					c0.185,0,0.343-0.059,0.474-0.176c0.131-0.117,0.247-0.351,0.351-0.702l0.766-2.625c0.074-0.257,0.112-0.4,0.112-0.427
					c0-0.055-0.024-0.104-0.073-0.147s-0.111-0.065-0.187-0.065c-0.029,0-0.063,0.003-0.103,0.01
					c-0.029,0.004-0.073,0.011-0.13,0.021v-0.12L116.224,21.996z M116.169,20.642c0.096,0,0.177,0.034,0.244,0.101
					c0.067,0.067,0.101,0.148,0.101,0.244s-0.033,0.177-0.101,0.244c-0.067,0.067-0.148,0.101-0.244,0.101s-0.178-0.034-0.245-0.101
					c-0.067-0.067-0.101-0.148-0.101-0.244s0.033-0.177,0.101-0.244C115.991,20.676,116.073,20.642,116.169,20.642z"/>
			</g>
			<g>
				<path d="M115.604,7.362l1.433,3.633l0.776-2.714c0.063-0.223,0.096-0.396,0.096-0.52c0-0.084-0.03-0.15-0.09-0.198
					c-0.059-0.048-0.169-0.072-0.331-0.072c-0.027,0-0.056-0.001-0.085-0.003l0.037-0.126h1.49l-0.041,0.126
					c-0.155-0.002-0.27,0.014-0.346,0.048c-0.106,0.048-0.187,0.109-0.238,0.185c-0.073,0.107-0.147,0.294-0.223,0.561l-1.09,3.821
					h-0.123l-1.542-3.91l-0.823,2.888c-0.063,0.219-0.093,0.386-0.093,0.502c0,0.086,0.028,0.152,0.084,0.197
					c0.056,0.044,0.188,0.074,0.397,0.09l-0.033,0.126h-1.457l0.049-0.126c0.182-0.004,0.304-0.021,0.365-0.048
					c0.094-0.041,0.163-0.095,0.209-0.161c0.065-0.1,0.14-0.294,0.222-0.581l0.919-3.223c-0.088-0.137-0.184-0.231-0.285-0.282
					c-0.102-0.052-0.259-0.081-0.473-0.087l0.037-0.126H115.604z"/>
			</g>
			<g>
				<path d="M136.991,20.862c0,0.342-0.09,0.68-0.271,1.015c-0.181,0.335-0.434,0.601-0.757,0.796s-0.638,0.294-0.943,0.294
					c-0.313,0-0.566-0.1-0.764-0.299c-0.197-0.2-0.296-0.458-0.296-0.774c0-0.335,0.097-0.671,0.289-1.008s0.45-0.604,0.772-0.8
					s0.634-0.294,0.935-0.294s0.549,0.099,0.743,0.297C136.895,20.288,136.991,20.545,136.991,20.862z M136.425,20.626
					c0-0.212-0.053-0.375-0.156-0.487c-0.104-0.113-0.237-0.169-0.401-0.169c-0.335,0-0.644,0.24-0.925,0.719
					c-0.281,0.48-0.422,0.957-0.422,1.431c0,0.216,0.055,0.383,0.164,0.501c0.109,0.117,0.247,0.176,0.414,0.176
					c0.32,0,0.622-0.239,0.903-0.716C136.283,21.604,136.425,21.119,136.425,20.626z"/>
				<path d="M138.804,19.792l-0.236,0.786c0.248-0.292,0.47-0.496,0.665-0.612c0.194-0.116,0.394-0.174,0.597-0.174
					c0.202,0,0.375,0.081,0.52,0.241c0.143,0.161,0.215,0.37,0.215,0.627c0,0.501-0.204,1.011-0.611,1.53
					c-0.408,0.518-0.884,0.777-1.426,0.777c-0.114,0-0.215-0.013-0.303-0.038s-0.186-0.069-0.295-0.133l-0.25,0.882
					c-0.05,0.173-0.075,0.286-0.075,0.338c0,0.05,0.013,0.093,0.039,0.128c0.026,0.035,0.069,0.063,0.128,0.082
					c0.06,0.019,0.177,0.029,0.353,0.029l-0.03,0.126h-1.61l0.034-0.126c0.212-0.009,0.354-0.045,0.429-0.109s0.152-0.24,0.234-0.53
					l0.864-2.994c0.053-0.189,0.079-0.307,0.079-0.352c0-0.062-0.018-0.109-0.053-0.144s-0.09-0.051-0.163-0.051
					c-0.065,0-0.158,0.008-0.276,0.024v-0.133L138.804,19.792z M138.007,22.527c0.142,0.168,0.332,0.253,0.57,0.253
					c0.119,0,0.24-0.033,0.363-0.099s0.243-0.164,0.36-0.294s0.223-0.28,0.315-0.449c0.094-0.17,0.178-0.37,0.252-0.6
					s0.111-0.458,0.111-0.684c0-0.182-0.042-0.322-0.125-0.418c-0.083-0.097-0.181-0.146-0.293-0.146
					c-0.246,0-0.489,0.141-0.729,0.424s-0.416,0.613-0.528,0.991L138.007,22.527z"/>
				<path d="M142.573,18.945l-0.267,0.93h0.536l-0.058,0.215h-0.533l-0.588,2.017c-0.063,0.216-0.096,0.356-0.096,0.42
					c0,0.039,0.009,0.068,0.027,0.089s0.04,0.031,0.065,0.031c0.057,0,0.132-0.04,0.225-0.12c0.055-0.045,0.177-0.186,0.366-0.42
					l0.112,0.085c-0.209,0.305-0.407,0.521-0.594,0.646c-0.128,0.086-0.257,0.13-0.387,0.13c-0.101,0-0.183-0.031-0.246-0.094
					c-0.063-0.063-0.096-0.143-0.096-0.241c0-0.123,0.036-0.311,0.109-0.564l0.57-1.979h-0.516l0.034-0.133
					c0.251-0.068,0.459-0.17,0.626-0.306c0.166-0.135,0.352-0.371,0.557-0.706H142.573z"/>
			</g>
			<g>
				<path d="M123.894,42.469c-0.236,0.285-0.476,0.494-0.717,0.627c-0.242,0.134-0.497,0.2-0.766,0.2
					c-0.324,0-0.576-0.091-0.758-0.273c-0.181-0.183-0.271-0.428-0.271-0.734c0-0.35,0.098-0.692,0.292-1.029
					c0.195-0.337,0.457-0.611,0.786-0.822s0.652-0.316,0.969-0.316c0.249,0,0.435,0.053,0.558,0.156s0.185,0.23,0.185,0.381
					c0,0.142-0.043,0.262-0.13,0.362c-0.063,0.077-0.143,0.116-0.235,0.116c-0.071,0-0.13-0.022-0.177-0.068
					s-0.069-0.103-0.069-0.171c0-0.043,0.008-0.083,0.025-0.12c0.017-0.036,0.052-0.08,0.105-0.131
					c0.054-0.052,0.086-0.089,0.098-0.111s0.018-0.047,0.018-0.072c0-0.047-0.022-0.087-0.065-0.119
					c-0.066-0.046-0.159-0.068-0.28-0.068c-0.224,0-0.444,0.078-0.663,0.236c-0.219,0.156-0.405,0.38-0.561,0.67
					c-0.187,0.351-0.28,0.701-0.28,1.053c0,0.232,0.066,0.416,0.198,0.552s0.313,0.203,0.54,0.203c0.176,0,0.35-0.044,0.521-0.132
					s0.365-0.246,0.579-0.477L123.894,42.469z"/>
				<path d="M127.564,40.202l-0.595,2.037c-0.089,0.304-0.133,0.495-0.133,0.574c0,0.041,0.007,0.071,0.021,0.091
					s0.035,0.029,0.061,0.029c0.038,0,0.081-0.018,0.128-0.053s0.164-0.177,0.354-0.423l0.103,0.079
					c-0.18,0.285-0.364,0.494-0.554,0.629c-0.125,0.087-0.246,0.13-0.362,0.13c-0.089,0-0.158-0.025-0.209-0.075
					c-0.05-0.05-0.074-0.115-0.074-0.194c0-0.078,0.015-0.181,0.044-0.309c0.036-0.168,0.14-0.535,0.312-1.1
					c-0.388,0.635-0.712,1.074-0.973,1.315s-0.503,0.362-0.727,0.362c-0.104,0-0.193-0.036-0.267-0.109s-0.109-0.165-0.109-0.277
					c0-0.17,0.05-0.433,0.15-0.785l0.298-1.057c0.072-0.253,0.109-0.41,0.109-0.472c0-0.027-0.01-0.051-0.029-0.07
					s-0.041-0.028-0.063-0.028c-0.048,0-0.096,0.017-0.144,0.051s-0.156,0.16-0.324,0.379l-0.106-0.074
					c0.171-0.265,0.353-0.46,0.544-0.585c0.146-0.098,0.279-0.147,0.402-0.147c0.085,0,0.153,0.027,0.207,0.081
					s0.08,0.122,0.08,0.206c0,0.123-0.045,0.344-0.137,0.66l-0.32,1.104c-0.09,0.301-0.134,0.491-0.134,0.571
					c0,0.043,0.015,0.078,0.043,0.104s0.066,0.039,0.114,0.039c0.075,0,0.173-0.037,0.294-0.113c0.121-0.074,0.282-0.241,0.483-0.5
					c0.202-0.259,0.368-0.502,0.499-0.729s0.271-0.587,0.419-1.082l0.075-0.26H127.564z"/>
				<path d="M128.106,40.312l1.18-0.191l-0.492,1.662c0.398-0.682,0.761-1.158,1.087-1.43c0.185-0.154,0.335-0.232,0.451-0.232
					c0.075,0,0.135,0.022,0.178,0.067c0.043,0.044,0.065,0.108,0.065,0.192c0,0.15-0.039,0.295-0.117,0.432
					c-0.055,0.102-0.133,0.153-0.235,0.153c-0.053,0-0.098-0.017-0.135-0.052c-0.038-0.033-0.062-0.086-0.07-0.156
					c-0.005-0.044-0.015-0.072-0.03-0.086c-0.019-0.019-0.04-0.027-0.065-0.027c-0.039,0-0.075,0.009-0.109,0.027
					c-0.06,0.032-0.149,0.121-0.271,0.267c-0.188,0.224-0.394,0.513-0.615,0.868c-0.096,0.15-0.178,0.32-0.246,0.51
					c-0.096,0.26-0.15,0.415-0.164,0.468l-0.109,0.431h-0.522l0.632-2.123c0.073-0.246,0.109-0.421,0.109-0.525
					c0-0.041-0.017-0.076-0.051-0.104c-0.046-0.036-0.105-0.055-0.182-0.055c-0.047,0-0.135,0.011-0.263,0.031L128.106,40.312z"/>
				<path d="M130.804,40.312l1.179-0.191l-0.492,1.662c0.398-0.682,0.761-1.158,1.087-1.43c0.185-0.154,0.335-0.232,0.451-0.232
					c0.075,0,0.135,0.022,0.178,0.067c0.043,0.044,0.064,0.108,0.064,0.192c0,0.15-0.038,0.295-0.115,0.432
					c-0.055,0.102-0.134,0.153-0.236,0.153c-0.053,0-0.098-0.017-0.135-0.052c-0.038-0.033-0.062-0.086-0.07-0.156
					c-0.005-0.044-0.015-0.072-0.031-0.086c-0.018-0.019-0.039-0.027-0.064-0.027c-0.039,0-0.075,0.009-0.109,0.027
					c-0.06,0.032-0.149,0.121-0.27,0.267c-0.189,0.224-0.395,0.513-0.615,0.868c-0.096,0.15-0.178,0.32-0.246,0.51
					c-0.096,0.26-0.15,0.415-0.164,0.468l-0.109,0.431h-0.523l0.633-2.123c0.072-0.246,0.109-0.421,0.109-0.525
					c0-0.041-0.018-0.076-0.052-0.104c-0.046-0.036-0.106-0.055-0.181-0.055c-0.049,0-0.136,0.011-0.264,0.031L130.804,40.312z"/>
			</g>
			<g>
				<path d="M97.8,66.445c-0.237,0.285-0.476,0.494-0.718,0.627c-0.242,0.134-0.497,0.2-0.766,0.2c-0.324,0-0.576-0.091-0.757-0.273
					c-0.181-0.183-0.271-0.428-0.271-0.734c0-0.35,0.098-0.692,0.292-1.029c0.195-0.337,0.457-0.611,0.786-0.822
					c0.33-0.211,0.652-0.316,0.969-0.316c0.249,0,0.434,0.053,0.557,0.156s0.185,0.23,0.185,0.381c0,0.142-0.043,0.262-0.13,0.362
					c-0.064,0.077-0.143,0.116-0.236,0.116c-0.071,0-0.129-0.022-0.176-0.068c-0.046-0.046-0.07-0.103-0.07-0.171
					c0-0.043,0.008-0.083,0.026-0.12c0.017-0.036,0.052-0.08,0.105-0.131c0.054-0.052,0.086-0.089,0.098-0.111
					s0.017-0.047,0.017-0.072c0-0.047-0.021-0.087-0.065-0.119c-0.066-0.046-0.16-0.068-0.28-0.068
					c-0.223,0-0.444,0.078-0.663,0.236c-0.219,0.156-0.406,0.38-0.561,0.67c-0.187,0.351-0.28,0.701-0.28,1.053
					c0,0.232,0.066,0.416,0.198,0.552s0.312,0.203,0.54,0.203c0.175,0,0.349-0.044,0.521-0.132c0.172-0.088,0.365-0.246,0.579-0.477
					L97.8,66.445z"/>
				<path d="M101.471,64.179l-0.595,2.037c-0.089,0.304-0.133,0.495-0.133,0.574c0,0.041,0.007,0.071,0.022,0.091
					c0.015,0.02,0.035,0.029,0.06,0.029c0.039,0,0.082-0.018,0.128-0.053c0.046-0.035,0.165-0.177,0.354-0.423l0.103,0.079
					c-0.18,0.285-0.365,0.494-0.554,0.629c-0.125,0.087-0.246,0.13-0.362,0.13c-0.089,0-0.158-0.025-0.208-0.075
					s-0.075-0.115-0.075-0.194c0-0.078,0.015-0.181,0.044-0.309c0.037-0.168,0.14-0.535,0.311-1.1
					c-0.387,0.635-0.711,1.074-0.972,1.315c-0.261,0.241-0.503,0.362-0.727,0.362c-0.105,0-0.194-0.036-0.267-0.109
					s-0.109-0.165-0.109-0.277c0-0.17,0.05-0.433,0.15-0.785l0.297-1.057c0.073-0.253,0.109-0.41,0.109-0.472
					c0-0.027-0.01-0.051-0.029-0.07c-0.02-0.02-0.041-0.028-0.063-0.028c-0.048,0-0.096,0.017-0.144,0.051s-0.156,0.16-0.325,0.379
					l-0.106-0.074c0.171-0.265,0.352-0.46,0.543-0.585c0.146-0.098,0.28-0.147,0.403-0.147c0.084,0,0.153,0.027,0.207,0.081
					c0.054,0.054,0.081,0.122,0.081,0.206c0,0.123-0.045,0.344-0.137,0.66l-0.321,1.104c-0.089,0.301-0.133,0.491-0.133,0.571
					c0,0.043,0.014,0.078,0.043,0.104c0.028,0.026,0.066,0.039,0.114,0.039c0.075,0,0.173-0.037,0.294-0.113
					c0.121-0.074,0.282-0.241,0.483-0.5c0.202-0.259,0.368-0.502,0.499-0.729c0.131-0.227,0.271-0.587,0.419-1.082l0.075-0.26
					H101.471z"/>
				<path d="M102.013,64.288l1.179-0.191l-0.492,1.662c0.399-0.682,0.761-1.158,1.087-1.43c0.185-0.154,0.335-0.232,0.451-0.232
					c0.075,0,0.134,0.022,0.178,0.067c0.043,0.044,0.065,0.108,0.065,0.192c0,0.15-0.039,0.295-0.116,0.432
					c-0.055,0.102-0.133,0.153-0.236,0.153c-0.052,0-0.098-0.017-0.135-0.052c-0.038-0.033-0.061-0.086-0.07-0.156
					c-0.004-0.044-0.015-0.072-0.031-0.086c-0.018-0.019-0.04-0.027-0.065-0.027c-0.039,0-0.075,0.009-0.109,0.027
					c-0.059,0.032-0.149,0.121-0.27,0.267c-0.189,0.224-0.394,0.513-0.615,0.868c-0.096,0.15-0.178,0.32-0.246,0.51
					c-0.096,0.26-0.15,0.415-0.164,0.468l-0.109,0.431h-0.523l0.632-2.123c0.073-0.246,0.109-0.421,0.109-0.525
					c0-0.041-0.017-0.076-0.051-0.104c-0.045-0.036-0.106-0.055-0.181-0.055c-0.048,0-0.136,0.011-0.263,0.031L102.013,64.288z"/>
				<path d="M104.709,64.288l1.179-0.191l-0.492,1.662c0.399-0.682,0.761-1.158,1.087-1.43c0.185-0.154,0.335-0.232,0.451-0.232
					c0.075,0,0.134,0.022,0.178,0.067c0.043,0.044,0.065,0.108,0.065,0.192c0,0.15-0.039,0.295-0.116,0.432
					c-0.055,0.102-0.133,0.153-0.236,0.153c-0.052,0-0.098-0.017-0.135-0.052c-0.038-0.033-0.061-0.086-0.07-0.156
					c-0.004-0.044-0.015-0.072-0.031-0.086c-0.018-0.019-0.04-0.027-0.065-0.027c-0.039,0-0.075,0.009-0.109,0.027
					c-0.059,0.032-0.149,0.121-0.27,0.267c-0.189,0.224-0.394,0.513-0.615,0.868c-0.096,0.15-0.178,0.32-0.246,0.51
					c-0.096,0.26-0.15,0.415-0.164,0.468l-0.109,0.431h-0.523l0.632-2.123c0.073-0.246,0.109-0.421,0.109-0.525
					c0-0.041-0.017-0.076-0.051-0.104c-0.045-0.036-0.106-0.055-0.181-0.055c-0.048,0-0.136,0.011-0.263,0.031L104.709,64.288z"/>
			</g>
			<g>
				<path d="M186.081,47.028l-0.676,2.396c-0.046,0.162-0.068,0.259-0.068,0.291c0,0.036,0.011,0.065,0.032,0.088
					c0.021,0.023,0.047,0.035,0.077,0.035c0.033,0,0.074-0.019,0.123-0.055c0.129-0.104,0.261-0.249,0.393-0.438l0.119,0.078
					c-0.154,0.237-0.337,0.437-0.547,0.598c-0.154,0.121-0.303,0.182-0.443,0.182c-0.094,0-0.17-0.028-0.229-0.084
					s-0.089-0.126-0.089-0.21s0.028-0.225,0.086-0.421l0.443-1.531c0.073-0.25,0.109-0.407,0.109-0.471
					c0-0.051-0.018-0.092-0.053-0.123c-0.035-0.032-0.084-0.049-0.145-0.049c-0.051,0-0.154,0.013-0.312,0.038V47.22L186.081,47.028
					z M186.037,45.672c0.096,0,0.177,0.033,0.243,0.099c0.065,0.066,0.099,0.147,0.099,0.243c0,0.094-0.033,0.174-0.101,0.241
					s-0.147,0.101-0.241,0.101s-0.174-0.033-0.241-0.101s-0.101-0.147-0.101-0.241c0-0.096,0.033-0.177,0.099-0.243
					C185.86,45.705,185.941,45.672,186.037,45.672z"/>
			</g>
			<g>
				<path d="M187.011,32.399l1.433,3.633l0.776-2.713c0.063-0.223,0.096-0.396,0.096-0.52c0-0.084-0.03-0.15-0.09-0.198
					c-0.059-0.048-0.169-0.072-0.331-0.072c-0.027,0-0.056-0.001-0.085-0.003l0.037-0.126h1.49l-0.041,0.126
					c-0.155-0.002-0.27,0.014-0.346,0.048c-0.106,0.048-0.187,0.109-0.238,0.185c-0.073,0.107-0.147,0.294-0.223,0.561l-1.09,3.821
					h-0.123l-1.542-3.91l-0.823,2.888c-0.063,0.219-0.093,0.387-0.093,0.502c0,0.087,0.028,0.152,0.084,0.197
					c0.056,0.044,0.188,0.074,0.397,0.09l-0.033,0.127h-1.457l0.049-0.127c0.182-0.004,0.304-0.02,0.365-0.047
					c0.094-0.041,0.163-0.095,0.209-0.161c0.065-0.101,0.14-0.294,0.222-0.581l0.919-3.223c-0.088-0.137-0.184-0.231-0.285-0.282
					c-0.102-0.052-0.259-0.081-0.473-0.087l0.037-0.126H187.011z"/>
			</g>
			<g>
				<path d="M62.122,24.434c-0.169,0.204-0.34,0.353-0.513,0.448c-0.172,0.095-0.355,0.143-0.547,0.143
					c-0.231,0-0.412-0.065-0.541-0.195c-0.13-0.13-0.194-0.305-0.194-0.525c0-0.249,0.069-0.494,0.209-0.735
					c0.139-0.241,0.326-0.437,0.562-0.587c0.235-0.151,0.466-0.226,0.692-0.226c0.177,0,0.31,0.037,0.398,0.111
					c0.088,0.074,0.132,0.165,0.132,0.272c0,0.101-0.031,0.187-0.093,0.259c-0.045,0.055-0.102,0.083-0.168,0.083
					c-0.05,0-0.092-0.016-0.125-0.049c-0.034-0.033-0.05-0.073-0.05-0.122c0-0.031,0.006-0.06,0.018-0.085
					c0.013-0.026,0.038-0.057,0.076-0.094c0.038-0.036,0.061-0.063,0.069-0.079s0.012-0.033,0.012-0.051
					c0-0.034-0.016-0.063-0.046-0.085c-0.047-0.033-0.114-0.049-0.2-0.049c-0.16,0-0.317,0.056-0.474,0.168s-0.29,0.272-0.4,0.479
					c-0.133,0.25-0.2,0.501-0.2,0.752c0,0.166,0.047,0.297,0.142,0.394c0.094,0.097,0.223,0.146,0.386,0.146
					c0.125,0,0.25-0.031,0.372-0.094c0.123-0.063,0.261-0.176,0.414-0.341L62.122,24.434z"/>
				<path d="M64.738,22.815l-0.425,1.455c-0.063,0.216-0.095,0.353-0.095,0.41c0,0.029,0.005,0.051,0.016,0.065
					c0.01,0.014,0.024,0.021,0.042,0.021c0.028,0,0.058-0.013,0.091-0.038c0.034-0.025,0.118-0.125,0.253-0.301l0.073,0.056
					c-0.128,0.204-0.26,0.353-0.396,0.449c-0.089,0.062-0.176,0.093-0.259,0.093c-0.063,0-0.113-0.018-0.149-0.054
					s-0.054-0.082-0.054-0.139c0-0.055,0.011-0.128,0.032-0.22c0.026-0.121,0.1-0.382,0.222-0.786
					c-0.277,0.454-0.508,0.768-0.695,0.94c-0.186,0.172-0.359,0.259-0.519,0.259c-0.075,0-0.138-0.026-0.19-0.078
					s-0.078-0.118-0.078-0.198c0-0.122,0.036-0.309,0.107-0.562l0.212-0.754c0.052-0.181,0.078-0.293,0.078-0.337
					c0-0.02-0.007-0.036-0.021-0.05c-0.014-0.014-0.029-0.021-0.045-0.021c-0.034,0-0.068,0.012-0.103,0.037
					s-0.111,0.115-0.232,0.271l-0.076-0.054c0.122-0.189,0.251-0.328,0.388-0.417c0.104-0.07,0.2-0.105,0.288-0.105
					c0.06,0,0.109,0.019,0.148,0.057c0.038,0.039,0.057,0.088,0.057,0.148c0,0.088-0.033,0.245-0.098,0.471l-0.229,0.789
					c-0.063,0.215-0.095,0.351-0.095,0.408c0,0.031,0.01,0.056,0.03,0.074c0.021,0.019,0.048,0.028,0.082,0.028
					c0.054,0,0.124-0.027,0.21-0.081s0.201-0.173,0.346-0.358c0.144-0.185,0.263-0.358,0.356-0.52
					c0.093-0.162,0.193-0.42,0.299-0.773l0.054-0.186H64.738z"/>
				<path d="M65.121,22.893l0.842-0.137l-0.352,1.187c0.285-0.487,0.543-0.827,0.776-1.021c0.132-0.111,0.239-0.166,0.322-0.166
					c0.054,0,0.096,0.016,0.127,0.047c0.031,0.032,0.046,0.078,0.046,0.138c0,0.107-0.028,0.21-0.083,0.308
					c-0.039,0.073-0.095,0.11-0.168,0.11c-0.038,0-0.07-0.012-0.096-0.037c-0.027-0.024-0.044-0.062-0.05-0.112
					c-0.003-0.031-0.011-0.051-0.022-0.061c-0.013-0.013-0.028-0.02-0.046-0.02c-0.028,0-0.054,0.006-0.078,0.02
					c-0.042,0.023-0.106,0.086-0.193,0.19c-0.135,0.16-0.282,0.366-0.439,0.62c-0.068,0.107-0.127,0.229-0.176,0.364
					c-0.068,0.186-0.107,0.297-0.117,0.334l-0.078,0.308h-0.374l0.452-1.516c0.052-0.176,0.078-0.301,0.078-0.376
					c0-0.029-0.012-0.054-0.037-0.073c-0.033-0.026-0.076-0.039-0.129-0.039c-0.034,0-0.097,0.007-0.188,0.022L65.121,22.893z"/>
				<path d="M67.042,22.893l0.842-0.137l-0.352,1.187c0.285-0.487,0.543-0.827,0.776-1.021c0.132-0.111,0.239-0.166,0.322-0.166
					c0.054,0,0.096,0.016,0.127,0.047c0.031,0.032,0.046,0.078,0.046,0.138c0,0.107-0.028,0.21-0.083,0.308
					c-0.039,0.073-0.095,0.11-0.168,0.11c-0.038,0-0.069-0.012-0.097-0.037c-0.026-0.024-0.043-0.062-0.05-0.112
					c-0.003-0.031-0.011-0.051-0.022-0.061c-0.013-0.013-0.028-0.02-0.046-0.02c-0.028,0-0.054,0.006-0.078,0.02
					c-0.042,0.023-0.106,0.086-0.193,0.19c-0.135,0.16-0.282,0.366-0.439,0.62c-0.068,0.107-0.127,0.229-0.176,0.364
					c-0.068,0.186-0.107,0.297-0.117,0.334l-0.078,0.308h-0.374l0.452-1.516c0.052-0.176,0.078-0.301,0.078-0.376
					c0-0.029-0.012-0.054-0.037-0.073c-0.033-0.026-0.076-0.039-0.129-0.039c-0.034,0-0.097,0.007-0.188,0.022L67.042,22.893z"/>
			</g>
			<g>
				<path d="M85.497,33.645l-0.483,1.711c-0.033,0.115-0.049,0.185-0.049,0.207c0,0.026,0.008,0.048,0.023,0.064
					c0.016,0.016,0.034,0.023,0.055,0.023c0.024,0,0.054-0.013,0.088-0.039c0.093-0.072,0.187-0.177,0.281-0.313l0.085,0.057
					c-0.111,0.169-0.241,0.312-0.391,0.428c-0.111,0.086-0.216,0.129-0.317,0.129c-0.067,0-0.121-0.02-0.164-0.06
					s-0.063-0.09-0.063-0.15s0.021-0.16,0.061-0.3l0.317-1.094c0.052-0.179,0.078-0.292,0.078-0.337
					c0-0.036-0.013-0.065-0.038-0.088c-0.025-0.023-0.06-0.034-0.104-0.034c-0.036,0-0.11,0.009-0.222,0.027v-0.095L85.497,33.645z
					 M85.465,32.676c0.068,0,0.126,0.023,0.173,0.071s0.071,0.105,0.071,0.173c0,0.067-0.024,0.124-0.072,0.172
					c-0.048,0.048-0.105,0.072-0.172,0.072s-0.124-0.024-0.172-0.072c-0.048-0.048-0.072-0.105-0.072-0.172
					c0-0.068,0.023-0.126,0.071-0.173S85.396,32.676,85.465,32.676z"/>
			</g>
			<g>
				<path d="M120.437,13.291c-0.17,0.204-0.341,0.353-0.514,0.448c-0.172,0.095-0.354,0.143-0.547,0.143
					c-0.23,0-0.411-0.065-0.54-0.195c-0.13-0.13-0.194-0.305-0.194-0.525c0-0.249,0.069-0.494,0.209-0.735
					c0.139-0.241,0.326-0.437,0.562-0.587c0.235-0.151,0.466-0.226,0.692-0.226c0.177,0,0.31,0.037,0.397,0.111
					c0.088,0.074,0.132,0.165,0.132,0.272c0,0.101-0.031,0.187-0.093,0.259c-0.046,0.055-0.102,0.083-0.169,0.083
					c-0.05,0-0.092-0.016-0.125-0.049s-0.051-0.073-0.051-0.122c0-0.031,0.007-0.06,0.019-0.085
					c0.013-0.026,0.038-0.057,0.076-0.094c0.038-0.036,0.062-0.063,0.069-0.079s0.012-0.033,0.012-0.051
					c0-0.034-0.015-0.063-0.046-0.085c-0.047-0.033-0.114-0.049-0.2-0.049c-0.159,0-0.317,0.056-0.474,0.168s-0.29,0.272-0.4,0.479
					c-0.134,0.25-0.2,0.501-0.2,0.752c0,0.166,0.047,0.297,0.142,0.394c0.095,0.097,0.223,0.146,0.386,0.146
					c0.125,0,0.249-0.031,0.372-0.094c0.123-0.063,0.261-0.176,0.414-0.341L120.437,13.291z"/>
				<path d="M123.053,11.672l-0.425,1.455c-0.063,0.216-0.096,0.353-0.096,0.41c0,0.029,0.006,0.051,0.017,0.065
					c0.011,0.014,0.024,0.021,0.042,0.021c0.028,0,0.059-0.013,0.092-0.038c0.033-0.025,0.118-0.125,0.253-0.301l0.073,0.056
					c-0.129,0.204-0.261,0.353-0.396,0.449c-0.09,0.062-0.176,0.093-0.259,0.093c-0.063,0-0.113-0.018-0.148-0.054
					c-0.036-0.036-0.055-0.082-0.055-0.139c0-0.055,0.011-0.128,0.032-0.22c0.026-0.121,0.101-0.382,0.222-0.786
					c-0.276,0.454-0.508,0.768-0.694,0.94s-0.359,0.259-0.519,0.259c-0.075,0-0.139-0.026-0.19-0.078s-0.078-0.118-0.078-0.198
					c0-0.122,0.036-0.309,0.107-0.562l0.212-0.754c0.053-0.181,0.078-0.293,0.078-0.337c0-0.02-0.007-0.036-0.021-0.05
					c-0.014-0.014-0.028-0.021-0.045-0.021c-0.034,0-0.068,0.012-0.103,0.037s-0.111,0.115-0.232,0.271l-0.075-0.054
					c0.122-0.189,0.251-0.328,0.388-0.417c0.104-0.07,0.201-0.105,0.289-0.105c0.06,0,0.109,0.019,0.147,0.057
					c0.038,0.039,0.058,0.088,0.058,0.148c0,0.088-0.033,0.245-0.098,0.471l-0.23,0.789c-0.063,0.215-0.095,0.351-0.095,0.408
					c0,0.031,0.01,0.056,0.03,0.074c0.021,0.019,0.048,0.028,0.082,0.028c0.054,0,0.124-0.027,0.21-0.081s0.201-0.173,0.346-0.358
					c0.144-0.185,0.263-0.358,0.356-0.52c0.094-0.162,0.193-0.42,0.299-0.773l0.054-0.186H123.053z"/>
				<path d="M123.435,11.75l0.843-0.137l-0.352,1.187c0.285-0.487,0.544-0.827,0.776-1.021c0.132-0.111,0.239-0.166,0.322-0.166
					c0.054,0,0.096,0.016,0.127,0.047c0.031,0.032,0.047,0.078,0.047,0.138c0,0.107-0.028,0.21-0.084,0.308
					c-0.039,0.073-0.095,0.11-0.168,0.11c-0.037,0-0.069-0.012-0.097-0.037c-0.026-0.024-0.043-0.062-0.05-0.112
					c-0.003-0.031-0.011-0.051-0.021-0.061c-0.014-0.013-0.029-0.02-0.047-0.02c-0.027,0-0.054,0.006-0.078,0.02
					c-0.042,0.023-0.106,0.086-0.193,0.19c-0.135,0.16-0.281,0.366-0.439,0.62c-0.068,0.107-0.127,0.229-0.176,0.364
					c-0.068,0.186-0.107,0.297-0.117,0.334l-0.078,0.308h-0.373l0.451-1.516c0.053-0.176,0.078-0.301,0.078-0.376
					c0-0.029-0.012-0.054-0.036-0.073c-0.032-0.026-0.075-0.039-0.13-0.039c-0.033,0-0.097,0.007-0.188,0.022L123.435,11.75z"/>
				<path d="M125.356,11.75l0.842-0.137l-0.352,1.187c0.285-0.487,0.544-0.827,0.776-1.021c0.132-0.111,0.239-0.166,0.322-0.166
					c0.054,0,0.096,0.016,0.127,0.047c0.031,0.032,0.046,0.078,0.046,0.138c0,0.107-0.027,0.21-0.082,0.308
					c-0.039,0.073-0.096,0.11-0.169,0.11c-0.037,0-0.069-0.012-0.097-0.037c-0.026-0.024-0.043-0.062-0.05-0.112
					c-0.003-0.031-0.011-0.051-0.022-0.061c-0.013-0.013-0.028-0.02-0.046-0.02c-0.027,0-0.054,0.006-0.078,0.02
					c-0.042,0.023-0.106,0.086-0.192,0.19c-0.136,0.16-0.282,0.366-0.439,0.62c-0.068,0.107-0.127,0.229-0.176,0.364
					c-0.068,0.186-0.107,0.297-0.117,0.334l-0.078,0.308h-0.374l0.452-1.516c0.052-0.176,0.078-0.301,0.078-0.376
					c0-0.029-0.013-0.054-0.037-0.073c-0.032-0.026-0.076-0.039-0.129-0.039c-0.035,0-0.098,0.007-0.188,0.022L125.356,11.75z"/>
			</g>
			<g>
				<path d="M144.905,22.481l-0.632,2.185c-0.112,0.391-0.267,0.672-0.463,0.845s-0.408,0.259-0.636,0.259
					c-0.103,0-0.181-0.023-0.233-0.071s-0.079-0.104-0.079-0.168c0-0.05,0.02-0.095,0.06-0.133c0.04-0.039,0.086-0.058,0.138-0.058
					c0.048,0,0.089,0.016,0.125,0.046c0.029,0.024,0.044,0.052,0.044,0.083c0,0.042-0.021,0.079-0.062,0.11
					c-0.022,0.018-0.033,0.033-0.033,0.044l0.004,0.012c0.006,0.006,0.013,0.011,0.022,0.015s0.024,0.005,0.044,0.005
					c0.132,0,0.244-0.042,0.338-0.125c0.094-0.084,0.178-0.251,0.25-0.502l0.547-1.875c0.055-0.184,0.081-0.286,0.081-0.305
					c0-0.039-0.018-0.074-0.053-0.105s-0.079-0.046-0.133-0.046c-0.021,0-0.046,0.002-0.073,0.007
					c-0.021,0.003-0.052,0.008-0.093,0.015v-0.085L144.905,22.481z M144.866,21.514c0.068,0,0.127,0.024,0.175,0.072
					c0.048,0.048,0.072,0.106,0.072,0.175s-0.024,0.126-0.072,0.175c-0.048,0.048-0.106,0.072-0.175,0.072s-0.126-0.024-0.174-0.072
					c-0.048-0.048-0.072-0.106-0.072-0.175s0.024-0.126,0.072-0.175C144.74,21.538,144.798,21.514,144.866,21.514z"/>
			</g>
			<g>
				<path d="M191.843,38.307c-0.17,0.203-0.341,0.353-0.514,0.448c-0.172,0.095-0.354,0.143-0.547,0.143
					c-0.23,0-0.411-0.065-0.54-0.195c-0.13-0.13-0.194-0.305-0.194-0.525c0-0.248,0.069-0.493,0.209-0.734
					c0.139-0.241,0.326-0.437,0.562-0.587s0.466-0.226,0.692-0.226c0.177,0,0.31,0.036,0.397,0.11s0.132,0.165,0.132,0.272
					c0,0.101-0.031,0.188-0.093,0.259c-0.046,0.056-0.102,0.083-0.169,0.083c-0.05,0-0.092-0.017-0.125-0.049
					s-0.051-0.073-0.051-0.122c0-0.031,0.007-0.06,0.019-0.085c0.013-0.026,0.038-0.058,0.076-0.095
					c0.038-0.036,0.062-0.063,0.069-0.079s0.012-0.033,0.012-0.051c0-0.035-0.015-0.063-0.046-0.086
					c-0.047-0.032-0.114-0.049-0.2-0.049c-0.159,0-0.317,0.057-0.474,0.168c-0.156,0.113-0.29,0.272-0.4,0.479
					c-0.134,0.251-0.2,0.502-0.2,0.752c0,0.166,0.047,0.298,0.142,0.395s0.223,0.146,0.386,0.146c0.125,0,0.249-0.031,0.372-0.094
					s0.261-0.177,0.414-0.341L191.843,38.307z"/>
			</g>
			<path d="M17.125,50.85h6.153v-0.563h-6.153V50.85z M17.125,53.045h6.153V52.48h-6.153V53.045z"/>
			<rect x="90.188" y="27.584" width="6.153" height="0.564"/>
			<path d="M36.09,17.695v-3.203c0-0.959,0.132-2.015,0.396-3.154c0.264-1.139,0.647-2.123,1.164-2.938
				c0.647-1.02,1.523-1.907,2.626-2.663l-0.132-0.12c-0.576,0.24-1.08,0.552-1.523,0.936c-0.611,0.516-1.139,1.139-1.595,1.895
				c-0.456,0.755-0.815,1.631-1.055,2.626c-0.3,1.164-0.444,2.339-0.444,3.538v3.083H36.09z"/>
			<path d="M35.526,41.263c0,1.235,0.168,2.494,0.504,3.777c0.335,1.284,0.875,2.375,1.607,3.274s1.571,1.548,2.507,1.943
				l0.132-0.12c-0.912-0.624-1.643-1.319-2.207-2.087c-0.66-0.876-1.151-1.907-1.487-3.07c-0.324-1.163-0.492-2.362-0.492-3.598
				v-3.202h-0.564V41.263z"/>
			<rect x="35.526" y="16.618" width="0.564" height="12.078"/>
			<rect x="35.526" y="28.118" width="0.564" height="12.078"/>
			<path d="M153.866,14.613c0-1.235-0.167-2.495-0.503-3.778s-0.876-2.375-1.596-3.274c-0.731-0.899-1.571-1.547-2.507-1.943
				l-0.132,0.12c0.912,0.624,1.644,1.319,2.207,2.087c0.66,0.875,1.151,1.907,1.476,3.07c0.323,1.163,0.491,2.375,0.491,3.598v3.203
				h0.563V14.613z"/>
			<path d="M153.303,38.181v3.202c0,0.971-0.132,2.015-0.396,3.154c-0.252,1.139-0.647,2.122-1.163,2.938
				c-0.647,1.019-1.512,1.906-2.615,2.662l0.132,0.12c0.576-0.24,1.08-0.552,1.523-0.924c0.6-0.516,1.14-1.151,1.596-1.907
				c0.443-0.755,0.803-1.631,1.055-2.626c0.288-1.151,0.432-2.339,0.432-3.538v-3.082H153.303z"/>
			<rect x="153.303" y="16.618" width="0.563" height="12.078"/>
			<rect x="153.303" y="28.118" width="0.563" height="12.078"/>
			<path d="M57.379,33.993h3.593v-0.329h-3.593V33.993z M57.379,35.274h3.593v-0.329h-3.593V35.274z"/>
			<path d="M117.316,22.836h3.593v-0.329h-3.593V22.836z M117.316,24.118h3.593v-0.329h-3.593V24.118z"/>
			<path d="M187.098,47.868h3.593v-0.33h-3.593V47.868z M187.098,49.149h3.593V48.82h-3.593V49.149z"/>
			<path d="M53.686,32.15l-0.342-0.054c-0.144,0.594-0.324,1.044-0.541,1.333c-0.234,0.288-0.504,0.486-0.846,0.594
				c-0.486,0.162-0.936,0.234-1.35,0.234h-7.202l5.545-6.824l-4.969-6.068h6.536c0.648,0,1.152,0.18,1.495,0.522
				c0.36,0.342,0.594,0.918,0.684,1.729h0.36l-0.234-2.953H41.568v0.324l5.906,7.202l-5.906,7.292v0.324h11.56L53.686,32.15z"/>
			<path d="M111.999,20.994l-0.343-0.054c-0.144,0.594-0.324,1.044-0.54,1.333c-0.234,0.288-0.504,0.486-0.846,0.594
				c-0.486,0.162-0.937,0.234-1.351,0.234h-7.202l5.545-6.824l-4.969-6.068h6.536c0.648,0,1.152,0.18,1.495,0.522
				c0.36,0.342,0.595,0.918,0.685,1.729h0.359l-0.233-2.953H99.881v0.324l5.906,7.202l-5.906,7.292v0.324h11.56L111.999,20.994z"/>
			<g>
				<path d="M61.542,32.073l1.128-0.55h0.113v3.914c0,0.26,0.011,0.421,0.033,0.484c0.021,0.064,0.066,0.113,0.135,0.147
					s0.208,0.054,0.417,0.058v0.127h-1.743v-0.127c0.219-0.004,0.36-0.022,0.424-0.056s0.108-0.078,0.133-0.134
					s0.038-0.223,0.038-0.5v-2.502c0-0.337-0.011-0.554-0.034-0.649c-0.016-0.073-0.045-0.126-0.087-0.161
					c-0.042-0.034-0.093-0.051-0.152-0.051c-0.084,0-0.202,0.035-0.352,0.106L61.542,32.073z"/>
			</g>
			<g>
				<path d="M121.479,20.909l1.128-0.55h0.112v3.914c0,0.26,0.012,0.421,0.033,0.485s0.066,0.113,0.135,0.147
					s0.207,0.054,0.417,0.058v0.126h-1.743v-0.126c0.219-0.004,0.36-0.023,0.424-0.056c0.063-0.033,0.108-0.078,0.133-0.134
					c0.025-0.056,0.038-0.223,0.038-0.5V21.77c0-0.337-0.012-0.554-0.034-0.649c-0.016-0.073-0.045-0.126-0.087-0.161
					s-0.093-0.051-0.152-0.051c-0.084,0-0.202,0.035-0.353,0.106L121.479,20.909z"/>
			</g>
			<g>
				<path d="M157.931,7.705l-0.324,0.892h-2.734V8.47c0.805-0.734,1.371-1.333,1.699-1.798s0.492-0.89,0.492-1.275
					c0-0.294-0.091-0.536-0.271-0.725s-0.396-0.284-0.646-0.284c-0.229,0-0.433,0.067-0.614,0.2
					c-0.181,0.134-0.314,0.329-0.401,0.586h-0.127c0.058-0.421,0.204-0.745,0.439-0.971c0.236-0.226,0.53-0.338,0.884-0.338
					c0.376,0,0.689,0.121,0.941,0.362s0.378,0.526,0.378,0.854c0,0.235-0.055,0.469-0.164,0.704c-0.169,0.369-0.442,0.76-0.82,1.172
					c-0.567,0.62-0.922,0.994-1.063,1.121h1.209c0.246,0,0.419-0.009,0.519-0.027c0.099-0.018,0.188-0.055,0.269-0.111
					c0.079-0.056,0.148-0.135,0.208-0.238H157.931z"/>
			</g>
			<g>
				<path d="M191.261,45.942l1.128-0.551h0.112v3.914c0,0.26,0.012,0.421,0.033,0.484c0.021,0.064,0.066,0.113,0.135,0.147
					s0.207,0.054,0.417,0.058v0.127h-1.743v-0.127c0.219-0.004,0.36-0.022,0.424-0.056s0.108-0.078,0.133-0.134
					c0.025-0.056,0.038-0.223,0.038-0.5v-2.502c0-0.338-0.012-0.555-0.034-0.65c-0.016-0.072-0.045-0.126-0.087-0.16
					s-0.093-0.051-0.152-0.051c-0.084,0-0.202,0.035-0.353,0.105L191.261,45.942z"/>
			</g>
			<g>
				<path d="M165.585,48.606c-0.016-0.27-0.07-0.537-0.164-0.803c-0.133-0.383-0.199-0.646-0.199-0.791
					c0-0.203,0.048-0.357,0.144-0.463s0.214-0.158,0.354-0.158c0.121,0,0.227,0.053,0.316,0.158s0.135,0.256,0.135,0.451
					c0,0.176-0.052,0.421-0.155,0.735s-0.167,0.604-0.19,0.87c0.215-0.137,0.408-0.303,0.58-0.498
					c0.266-0.309,0.463-0.5,0.592-0.574s0.26-0.111,0.393-0.111c0.129,0,0.237,0.044,0.325,0.132s0.132,0.192,0.132,0.313
					c0,0.145-0.064,0.273-0.193,0.387s-0.451,0.227-0.967,0.34c-0.301,0.066-0.551,0.143-0.75,0.229
					c0.203,0.105,0.451,0.186,0.744,0.24c0.473,0.086,0.782,0.193,0.929,0.322s0.22,0.27,0.22,0.422
					c0,0.117-0.044,0.219-0.132,0.305s-0.19,0.129-0.308,0.129s-0.247-0.041-0.39-0.123s-0.335-0.266-0.577-0.551
					c-0.16-0.191-0.359-0.371-0.598-0.539c0.008,0.223,0.053,0.465,0.135,0.727c0.141,0.461,0.211,0.775,0.211,0.943
					c0,0.156-0.047,0.288-0.141,0.396s-0.193,0.161-0.299,0.161c-0.145,0-0.275-0.057-0.393-0.17
					c-0.082-0.082-0.123-0.213-0.123-0.393c0-0.188,0.045-0.413,0.135-0.677s0.146-0.445,0.17-0.545s0.045-0.247,0.064-0.442
					c-0.23,0.152-0.432,0.322-0.604,0.51c-0.285,0.32-0.5,0.523-0.645,0.609c-0.102,0.063-0.207,0.094-0.316,0.094
					c-0.133,0-0.246-0.045-0.34-0.135s-0.141-0.189-0.141-0.299c0-0.098,0.04-0.2,0.12-0.308s0.2-0.196,0.36-0.267
					c0.105-0.047,0.346-0.109,0.721-0.188c0.242-0.051,0.479-0.125,0.709-0.223c-0.211-0.105-0.463-0.188-0.756-0.246
					c-0.48-0.102-0.777-0.193-0.891-0.275c-0.176-0.129-0.264-0.285-0.264-0.469c0-0.105,0.044-0.202,0.132-0.29
					s0.19-0.132,0.308-0.132c0.129,0,0.266,0.041,0.41,0.123s0.324,0.247,0.539,0.495S165.362,48.47,165.585,48.606z"/>
			</g>
			
				<line style="fill:none;stroke:#000000;stroke-width:0.5;stroke-miterlimit:10;" x1="170.19" y1="51.724" x2="218.253" y2="51.724"/>
			<g>
				<path d="M194.452,36.688l-0.425,1.455c-0.063,0.216-0.095,0.353-0.095,0.41c0,0.029,0.005,0.051,0.016,0.064
					s0.024,0.021,0.043,0.021c0.027,0,0.058-0.013,0.091-0.038s0.118-0.125,0.253-0.301l0.073,0.056
					c-0.129,0.203-0.261,0.354-0.396,0.449c-0.09,0.062-0.176,0.093-0.259,0.093c-0.063,0-0.113-0.018-0.149-0.054
					c-0.035-0.036-0.053-0.082-0.053-0.14c0-0.055,0.01-0.128,0.031-0.219c0.026-0.121,0.1-0.383,0.223-0.787
					c-0.277,0.455-0.509,0.768-0.695,0.94s-0.359,0.259-0.519,0.259c-0.075,0-0.139-0.026-0.19-0.078s-0.078-0.118-0.078-0.197
					c0-0.123,0.036-0.31,0.107-0.563l0.213-0.754c0.052-0.181,0.078-0.293,0.078-0.337c0-0.02-0.008-0.036-0.021-0.05
					s-0.028-0.021-0.045-0.021c-0.034,0-0.068,0.013-0.103,0.037s-0.111,0.115-0.231,0.271l-0.076-0.055
					c0.122-0.188,0.252-0.327,0.389-0.417c0.104-0.07,0.199-0.104,0.287-0.104c0.061,0,0.11,0.019,0.148,0.057
					s0.057,0.088,0.057,0.148c0,0.088-0.032,0.244-0.098,0.471l-0.229,0.789c-0.064,0.215-0.096,0.351-0.096,0.407
					c0,0.031,0.01,0.056,0.03,0.074s0.048,0.028,0.082,0.028c0.054,0,0.124-0.027,0.21-0.08c0.086-0.055,0.201-0.174,0.346-0.358
					c0.144-0.185,0.263-0.357,0.356-0.52s0.193-0.42,0.299-0.772l0.054-0.186H194.452z"/>
			</g>
			<g>
				<path d="M194.452,36.688l-0.425,1.455c-0.063,0.216-0.095,0.353-0.095,0.41c0,0.029,0.005,0.051,0.016,0.064
					s0.024,0.021,0.043,0.021c0.027,0,0.058-0.013,0.091-0.038s0.118-0.125,0.253-0.301l0.073,0.056
					c-0.129,0.203-0.261,0.354-0.396,0.449c-0.09,0.062-0.176,0.093-0.259,0.093c-0.063,0-0.113-0.018-0.149-0.054
					c-0.035-0.036-0.053-0.082-0.053-0.14c0-0.055,0.01-0.128,0.031-0.219c0.026-0.121,0.1-0.383,0.223-0.787
					c-0.277,0.455-0.509,0.768-0.695,0.94s-0.359,0.259-0.519,0.259c-0.075,0-0.139-0.026-0.19-0.078s-0.078-0.118-0.078-0.197
					c0-0.123,0.036-0.31,0.107-0.563l0.213-0.754c0.052-0.181,0.078-0.293,0.078-0.337c0-0.02-0.008-0.036-0.021-0.05
					s-0.028-0.021-0.045-0.021c-0.034,0-0.068,0.013-0.103,0.037s-0.111,0.115-0.231,0.271l-0.076-0.055
					c0.122-0.188,0.252-0.327,0.389-0.417c0.104-0.07,0.199-0.104,0.287-0.104c0.061,0,0.11,0.019,0.148,0.057
					s0.057,0.088,0.057,0.148c0,0.088-0.032,0.244-0.098,0.471l-0.229,0.789c-0.064,0.215-0.096,0.351-0.096,0.407
					c0,0.031,0.01,0.056,0.03,0.074s0.048,0.028,0.082,0.028c0.054,0,0.124-0.027,0.21-0.08c0.086-0.055,0.201-0.174,0.346-0.358
					c0.144-0.185,0.263-0.357,0.356-0.52s0.193-0.42,0.299-0.772l0.054-0.186H194.452z"/>
				<path d="M194.86,36.767l0.842-0.137l-0.352,1.186c0.285-0.486,0.544-0.826,0.776-1.02c0.132-0.111,0.239-0.166,0.322-0.166
					c0.054,0,0.096,0.016,0.127,0.047c0.031,0.032,0.046,0.078,0.046,0.139c0,0.107-0.027,0.209-0.082,0.307
					c-0.039,0.074-0.096,0.11-0.169,0.11c-0.037,0-0.069-0.013-0.097-0.036c-0.026-0.025-0.043-0.063-0.05-0.113
					c-0.003-0.03-0.011-0.051-0.022-0.061c-0.013-0.013-0.028-0.02-0.046-0.02c-0.027,0-0.054,0.007-0.078,0.02
					c-0.042,0.022-0.106,0.086-0.192,0.19c-0.136,0.159-0.282,0.366-0.439,0.62c-0.068,0.107-0.127,0.229-0.176,0.363
					c-0.068,0.186-0.107,0.298-0.117,0.335l-0.078,0.308h-0.374l0.452-1.516c0.052-0.176,0.078-0.302,0.078-0.377
					c0-0.029-0.013-0.053-0.037-0.072c-0.032-0.026-0.076-0.039-0.129-0.039c-0.035,0-0.098,0.007-0.188,0.021L194.86,36.767z"/>
			</g>
			<g>
				<path d="M196.796,36.767l0.842-0.137l-0.352,1.186c0.285-0.486,0.544-0.826,0.776-1.02c0.132-0.111,0.239-0.166,0.322-0.166
					c0.054,0,0.096,0.016,0.127,0.047c0.031,0.032,0.046,0.078,0.046,0.139c0,0.107-0.027,0.209-0.082,0.307
					c-0.039,0.074-0.096,0.11-0.169,0.11c-0.037,0-0.069-0.013-0.097-0.036c-0.026-0.025-0.043-0.063-0.05-0.113
					c-0.003-0.03-0.011-0.051-0.022-0.061c-0.013-0.013-0.028-0.02-0.046-0.02c-0.027,0-0.054,0.007-0.078,0.02
					c-0.042,0.022-0.106,0.086-0.192,0.19c-0.136,0.159-0.282,0.366-0.439,0.62c-0.068,0.107-0.127,0.229-0.176,0.363
					c-0.068,0.186-0.107,0.298-0.117,0.335l-0.078,0.308h-0.374l0.452-1.516c0.052-0.176,0.078-0.302,0.078-0.377
					c0-0.029-0.013-0.053-0.037-0.072c-0.032-0.026-0.076-0.039-0.129-0.039c-0.035,0-0.098,0.007-0.188,0.021L196.796,36.767z"/>
			</g>
			<g>
				<path d="M215.218,47.515l-0.484,1.711c-0.032,0.115-0.049,0.185-0.049,0.207c0,0.026,0.008,0.048,0.023,0.064
					c0.016,0.016,0.034,0.023,0.055,0.023c0.025,0,0.055-0.013,0.088-0.039c0.094-0.072,0.187-0.177,0.281-0.313l0.086,0.057
					c-0.111,0.169-0.241,0.312-0.391,0.428c-0.111,0.086-0.217,0.129-0.318,0.129c-0.066,0-0.121-0.02-0.163-0.06
					s-0.063-0.09-0.063-0.15s0.021-0.16,0.061-0.3l0.318-1.094c0.052-0.18,0.078-0.292,0.078-0.338c0-0.035-0.013-0.064-0.038-0.088
					c-0.025-0.022-0.06-0.033-0.104-0.033c-0.035,0-0.109,0.009-0.222,0.026v-0.095L215.218,47.515z M215.186,46.545
					c0.068,0,0.126,0.023,0.173,0.071c0.048,0.047,0.071,0.104,0.071,0.173c0,0.066-0.024,0.124-0.072,0.172
					s-0.105,0.072-0.172,0.072s-0.124-0.024-0.172-0.072s-0.072-0.105-0.072-0.172c0-0.068,0.023-0.126,0.071-0.173
					C215.06,46.568,215.117,46.545,215.186,46.545z"/>
			</g>
			<g>
				<path d="M204.935,39.647l-0.105,0.387h-0.855l-0.645,2.561c-0.285,1.129-0.572,2.002-0.861,2.619
					c-0.41,0.871-0.852,1.473-1.324,1.805c-0.359,0.254-0.719,0.381-1.078,0.381c-0.234,0-0.434-0.07-0.598-0.211
					c-0.121-0.098-0.182-0.225-0.182-0.381c0-0.125,0.05-0.233,0.149-0.325s0.222-0.138,0.366-0.138c0.105,0,0.194,0.033,0.267,0.1
					s0.108,0.143,0.108,0.229s-0.041,0.166-0.123,0.24c-0.063,0.055-0.094,0.096-0.094,0.123c0,0.035,0.014,0.063,0.041,0.082
					c0.035,0.027,0.09,0.041,0.164,0.041c0.168,0,0.345-0.053,0.53-0.158s0.351-0.263,0.495-0.472s0.281-0.511,0.41-0.905
					c0.055-0.164,0.201-0.705,0.439-1.623l1.02-3.967h-1.02l0.082-0.387c0.324,0,0.551-0.022,0.68-0.067s0.247-0.131,0.354-0.258
					s0.247-0.364,0.419-0.712c0.23-0.469,0.451-0.832,0.662-1.09c0.289-0.348,0.593-0.608,0.911-0.782s0.618-0.261,0.899-0.261
					c0.297,0,0.535,0.075,0.715,0.226s0.27,0.313,0.27,0.489c0,0.137-0.045,0.252-0.135,0.346s-0.205,0.141-0.346,0.141
					c-0.121,0-0.22-0.035-0.296-0.105s-0.114-0.154-0.114-0.252c0-0.063,0.025-0.14,0.076-0.231s0.076-0.153,0.076-0.185
					c0-0.055-0.018-0.096-0.053-0.123c-0.051-0.039-0.125-0.059-0.223-0.059c-0.246,0-0.467,0.078-0.662,0.234
					c-0.262,0.207-0.496,0.531-0.703,0.973c-0.105,0.23-0.299,0.803-0.58,1.717H204.935z"/>
			</g>
			<g>
				<path d="M186.974,56.153l2.455,6.229l1.33-4.652c0.109-0.383,0.164-0.68,0.164-0.891c0-0.145-0.051-0.258-0.152-0.34
					s-0.291-0.123-0.568-0.123c-0.047,0-0.096-0.002-0.146-0.006l0.064-0.217h2.555l-0.07,0.217
					c-0.266-0.004-0.463,0.023-0.592,0.082c-0.184,0.082-0.32,0.188-0.41,0.316c-0.125,0.184-0.252,0.504-0.381,0.961l-1.869,6.551
					h-0.211l-2.643-6.703l-1.412,4.951c-0.105,0.375-0.158,0.662-0.158,0.861c0,0.148,0.048,0.261,0.144,0.337
					s0.323,0.128,0.683,0.155l-0.059,0.217H183.2l0.082-0.217c0.313-0.008,0.521-0.035,0.627-0.082
					c0.16-0.07,0.279-0.162,0.357-0.275c0.113-0.172,0.24-0.504,0.381-0.996l1.576-5.525c-0.152-0.234-0.315-0.396-0.489-0.483
					s-0.444-0.138-0.812-0.149l0.064-0.217H186.974z"/>
			</g>
			<g>
				<path d="M208.397,45.878c0,0.342-0.09,0.68-0.271,1.016c-0.181,0.334-0.434,0.6-0.757,0.796s-0.638,0.294-0.943,0.294
					c-0.313,0-0.566-0.1-0.764-0.299s-0.296-0.458-0.296-0.774c0-0.335,0.097-0.671,0.289-1.009c0.192-0.337,0.45-0.604,0.772-0.799
					c0.322-0.196,0.634-0.295,0.935-0.295s0.549,0.1,0.743,0.298C208.301,45.304,208.397,45.562,208.397,45.878z M207.831,45.642
					c0-0.211-0.053-0.374-0.156-0.486c-0.104-0.113-0.237-0.17-0.401-0.17c-0.335,0-0.644,0.24-0.925,0.72s-0.422,0.957-0.422,1.431
					c0,0.217,0.055,0.384,0.164,0.501s0.247,0.176,0.414,0.176c0.32,0,0.622-0.238,0.903-0.716S207.831,46.134,207.831,45.642z"/>
				<path d="M210.21,44.808l-0.236,0.787c0.248-0.292,0.47-0.496,0.665-0.612c0.194-0.116,0.394-0.175,0.597-0.175
					c0.202,0,0.375,0.081,0.52,0.241c0.143,0.161,0.215,0.37,0.215,0.628c0,0.501-0.204,1.011-0.611,1.529
					c-0.408,0.519-0.884,0.777-1.426,0.777c-0.114,0-0.215-0.013-0.303-0.037c-0.088-0.025-0.186-0.07-0.295-0.134l-0.25,0.882
					c-0.05,0.173-0.075,0.286-0.075,0.338c0,0.051,0.013,0.094,0.039,0.129s0.069,0.063,0.128,0.082
					c0.06,0.02,0.177,0.029,0.353,0.029l-0.03,0.126h-1.61l0.034-0.126c0.212-0.01,0.354-0.046,0.429-0.109
					c0.074-0.064,0.152-0.241,0.234-0.53l0.864-2.994c0.053-0.189,0.079-0.307,0.079-0.353c0-0.061-0.018-0.109-0.053-0.143
					c-0.035-0.035-0.09-0.052-0.163-0.052c-0.065,0-0.158,0.008-0.276,0.024v-0.134L210.21,44.808z M209.413,47.542
					c0.142,0.169,0.332,0.254,0.57,0.254c0.119,0,0.24-0.033,0.363-0.1s0.243-0.164,0.36-0.294s0.223-0.279,0.315-0.449
					c0.094-0.17,0.178-0.37,0.252-0.601c0.074-0.229,0.111-0.457,0.111-0.684c0-0.182-0.042-0.321-0.125-0.418
					s-0.181-0.146-0.293-0.146c-0.246,0-0.489,0.142-0.729,0.424s-0.416,0.613-0.528,0.991L209.413,47.542z"/>
				<path d="M213.979,43.96l-0.267,0.93h0.536l-0.058,0.216h-0.533l-0.588,2.017c-0.063,0.217-0.096,0.356-0.096,0.42
					c0,0.039,0.009,0.068,0.027,0.09c0.019,0.02,0.04,0.03,0.065,0.03c0.057,0,0.132-0.04,0.225-0.12
					c0.055-0.045,0.177-0.186,0.366-0.42l0.112,0.086c-0.209,0.305-0.407,0.521-0.594,0.646c-0.128,0.087-0.257,0.13-0.387,0.13
					c-0.101,0-0.183-0.031-0.246-0.094s-0.096-0.144-0.096-0.241c0-0.123,0.036-0.312,0.109-0.563l0.57-1.979h-0.516l0.034-0.134
					c0.251-0.068,0.459-0.17,0.626-0.306c0.166-0.136,0.352-0.37,0.557-0.706H213.979z"/>
			</g>
			<g>
				<path d="M194.739,66.445c-0.236,0.285-0.476,0.494-0.717,0.627c-0.242,0.134-0.497,0.2-0.766,0.2
					c-0.324,0-0.576-0.091-0.758-0.273c-0.181-0.183-0.271-0.428-0.271-0.734c0-0.35,0.098-0.692,0.292-1.029
					c0.195-0.337,0.457-0.611,0.786-0.822s0.652-0.316,0.969-0.316c0.249,0,0.435,0.053,0.558,0.156s0.185,0.23,0.185,0.381
					c0,0.142-0.043,0.262-0.13,0.362c-0.063,0.077-0.143,0.116-0.235,0.116c-0.071,0-0.13-0.022-0.177-0.068
					s-0.069-0.103-0.069-0.171c0-0.043,0.008-0.083,0.025-0.12c0.017-0.036,0.052-0.08,0.105-0.131
					c0.054-0.052,0.086-0.089,0.098-0.111s0.018-0.047,0.018-0.072c0-0.047-0.022-0.087-0.065-0.119
					c-0.066-0.046-0.159-0.068-0.28-0.068c-0.224,0-0.444,0.078-0.663,0.236c-0.219,0.156-0.405,0.38-0.561,0.67
					c-0.187,0.351-0.28,0.701-0.28,1.053c0,0.232,0.066,0.416,0.198,0.552s0.313,0.203,0.54,0.203c0.176,0,0.35-0.044,0.521-0.132
					s0.365-0.246,0.579-0.477L194.739,66.445z"/>
				<path d="M198.41,64.179l-0.595,2.037c-0.089,0.304-0.133,0.495-0.133,0.574c0,0.041,0.007,0.071,0.021,0.091
					s0.035,0.029,0.061,0.029c0.038,0,0.081-0.018,0.128-0.053s0.164-0.177,0.354-0.423l0.103,0.079
					c-0.18,0.285-0.364,0.494-0.554,0.629c-0.125,0.087-0.246,0.13-0.362,0.13c-0.089,0-0.158-0.025-0.209-0.075
					c-0.05-0.05-0.074-0.115-0.074-0.194c0-0.078,0.015-0.181,0.044-0.309c0.036-0.168,0.14-0.535,0.312-1.1
					c-0.388,0.635-0.712,1.074-0.973,1.315s-0.503,0.362-0.727,0.362c-0.104,0-0.193-0.036-0.267-0.109s-0.109-0.165-0.109-0.277
					c0-0.17,0.05-0.433,0.15-0.785l0.298-1.057c0.072-0.253,0.109-0.41,0.109-0.472c0-0.027-0.01-0.051-0.029-0.07
					s-0.041-0.028-0.063-0.028c-0.048,0-0.096,0.017-0.144,0.051s-0.156,0.16-0.324,0.379l-0.106-0.074
					c0.171-0.265,0.353-0.46,0.544-0.585c0.146-0.098,0.279-0.147,0.402-0.147c0.085,0,0.153,0.027,0.207,0.081
					s0.08,0.122,0.08,0.206c0,0.123-0.045,0.344-0.137,0.66l-0.32,1.104c-0.09,0.301-0.134,0.491-0.134,0.571
					c0,0.043,0.015,0.078,0.043,0.104s0.066,0.039,0.114,0.039c0.075,0,0.173-0.037,0.294-0.113c0.121-0.074,0.282-0.241,0.483-0.5
					c0.202-0.259,0.368-0.502,0.499-0.729s0.271-0.587,0.419-1.082l0.075-0.26H198.41z"/>
				<path d="M198.952,64.288l1.18-0.191l-0.492,1.662c0.398-0.682,0.761-1.158,1.087-1.43c0.185-0.154,0.335-0.232,0.451-0.232
					c0.075,0,0.135,0.022,0.178,0.067c0.043,0.044,0.065,0.108,0.065,0.192c0,0.15-0.039,0.295-0.117,0.432
					c-0.055,0.102-0.133,0.153-0.235,0.153c-0.053,0-0.098-0.017-0.135-0.052c-0.038-0.033-0.062-0.086-0.07-0.156
					c-0.005-0.044-0.015-0.072-0.03-0.086c-0.019-0.019-0.04-0.027-0.065-0.027c-0.039,0-0.075,0.009-0.109,0.027
					c-0.06,0.032-0.149,0.121-0.271,0.267c-0.188,0.224-0.394,0.513-0.615,0.868c-0.096,0.15-0.178,0.32-0.246,0.51
					c-0.096,0.26-0.15,0.415-0.164,0.468l-0.109,0.431h-0.522l0.632-2.123c0.073-0.246,0.109-0.421,0.109-0.525
					c0-0.041-0.017-0.076-0.051-0.104c-0.046-0.036-0.105-0.055-0.182-0.055c-0.047,0-0.135,0.011-0.263,0.031L198.952,64.288z"/>
				<path d="M201.649,64.288l1.179-0.191l-0.492,1.662c0.398-0.682,0.761-1.158,1.087-1.43c0.185-0.154,0.335-0.232,0.451-0.232
					c0.075,0,0.135,0.022,0.178,0.067c0.043,0.044,0.064,0.108,0.064,0.192c0,0.15-0.038,0.295-0.115,0.432
					c-0.055,0.102-0.134,0.153-0.236,0.153c-0.053,0-0.098-0.017-0.135-0.052c-0.038-0.033-0.062-0.086-0.07-0.156
					c-0.005-0.044-0.015-0.072-0.031-0.086c-0.018-0.019-0.039-0.027-0.064-0.027c-0.039,0-0.075,0.009-0.109,0.027
					c-0.06,0.032-0.149,0.121-0.27,0.267c-0.189,0.224-0.395,0.513-0.615,0.868c-0.096,0.15-0.178,0.32-0.246,0.51
					c-0.096,0.26-0.15,0.415-0.164,0.468l-0.109,0.431h-0.523l0.633-2.123c0.072-0.246,0.109-0.421,0.109-0.525
					c0-0.041-0.018-0.076-0.052-0.104c-0.046-0.036-0.106-0.055-0.181-0.055c-0.049,0-0.136,0.011-0.264,0.031L201.649,64.288z"/>
			</g>
			<path d="M183.405,46.025l-0.343-0.054c-0.144,0.594-0.324,1.044-0.54,1.332c-0.234,0.288-0.504,0.486-0.846,0.594
				c-0.486,0.162-0.937,0.234-1.351,0.234h-7.202l5.546-6.824l-4.97-6.067h6.536c0.647,0,1.152,0.18,1.494,0.522
				c0.36,0.342,0.594,0.918,0.685,1.729h0.359l-0.233-2.953h-11.254v0.324l5.906,7.202l-5.906,7.292v0.324h11.56L183.405,46.025z"/>
		</g>
	</g>
</g>
</svg>
