<?xml version="1.0" encoding="utf-8"?>
<!-- Generator: Adobe Illustrator 14.0.0, SVG Export Plug-In . SVG Version: 6.00 Build 43363)  -->
<!DOCTYPE svg PUBLIC "-//W3C//DTD SVG 1.1//EN" "http://www.w3.org/Graphics/SVG/1.1/DTD/svg11.dtd">
<svg version="1.1" xmlns="http://www.w3.org/2000/svg" xmlns:xlink="http://www.w3.org/1999/xlink" x="0px" y="0px"
	 width="35.162px" height="15.55px" viewBox="0 0 35.162 15.55" style="enable-background:new 0 0 35.162 15.55;"
	 xml:space="preserve">
<g id="Layer_1">
</g>
<g id="Layer_2">
	<g id="theGroup">
		<g>
			<polyline points="9.405,8.74 11.067,7.83 13.683,11.753 16.605,0.03 27.717,0.03 27.717,0.624 17.069,0.624 13.977,13.03 
				13.365,13.03 10.442,8.645 9.604,9.104 			"/>
			<g>
				<path d="M5.942,3.713c0.527,0,0.994,0.114,1.4,0.343S8.067,4.623,8.297,5.07s0.346,0.911,0.346,1.392
					c0,0.852-0.247,1.745-0.741,2.681s-1.14,1.649-1.937,2.142s-1.621,0.738-2.473,0.738c-0.613,0-1.126-0.136-1.538-0.407
					s-0.717-0.63-0.914-1.075S0.745,9.663,0.745,9.245c0-0.742,0.179-1.476,0.536-2.2s0.784-1.33,1.28-1.816s1.025-0.86,1.588-1.122
					S5.309,3.713,5.942,3.713z M5.743,4.088c-0.391,0-0.772,0.097-1.146,0.29s-0.743,0.51-1.11,0.949S2.79,6.342,2.497,7.053
					C2.137,7.928,1.958,8.754,1.958,9.532c0,0.555,0.143,1.046,0.428,1.474s0.723,0.642,1.313,0.642
					c0.355,0,0.704-0.088,1.046-0.264s0.698-0.477,1.069-0.902c0.465-0.535,0.855-1.218,1.172-2.048S7.459,6.829,7.459,6.11
					c0-0.531-0.143-1.001-0.428-1.409S6.317,4.088,5.743,4.088z"/>
				<path d="M21.351,3.895l2.455,6.229l1.33-4.652c0.109-0.383,0.164-0.68,0.164-0.891c0-0.145-0.051-0.258-0.152-0.34
					s-0.291-0.123-0.568-0.123c-0.047,0-0.096-0.002-0.146-0.006l0.064-0.217h2.555l-0.07,0.217
					c-0.266-0.004-0.463,0.023-0.592,0.082c-0.184,0.082-0.32,0.188-0.41,0.316c-0.125,0.184-0.252,0.504-0.381,0.961l-1.869,6.551
					h-0.211l-2.643-6.703l-1.412,4.951c-0.105,0.375-0.158,0.662-0.158,0.861c0,0.148,0.048,0.261,0.144,0.337
					s0.323,0.128,0.683,0.155l-0.059,0.217h-2.496l0.082-0.217c0.313-0.008,0.521-0.035,0.627-0.082
					c0.16-0.07,0.279-0.162,0.357-0.275c0.113-0.172,0.24-0.504,0.381-0.996l1.576-5.525c-0.152-0.234-0.315-0.396-0.489-0.483
					S19.667,4.124,19.3,4.112l0.064-0.217H21.351z"/>
			</g>
		</g>
	</g>
</g>
</svg>
