<?xml version="1.0" encoding="utf-8"?>
<!-- Generator: Adobe Illustrator 14.0.0, SVG Export Plug-In . SVG Version: 6.00 Build 43363)  -->
<!DOCTYPE svg PUBLIC "-//W3C//DTD SVG 1.1//EN" "http://www.w3.org/Graphics/SVG/1.1/DTD/svg11.dtd">
<svg version="1.1" xmlns="http://www.w3.org/2000/svg" xmlns:xlink="http://www.w3.org/1999/xlink" x="0px" y="0px"
	 width="39.447px" height="14.119px" viewBox="0 0 39.447 14.119" style="enable-background:new 0 0 39.447 14.119;"
	 xml:space="preserve">
<g id="Layer_1">
</g>
<g id="Layer_2">
	<g id="theGroup">
		<g>
			<line style="fill:none;stroke:#000000;stroke-width:0.5;stroke-miterlimit:10;" x1="0.38" y1="0.13" x2="0.38" y2="11.505"/>
			<polygon points="8.755,0.13 11.067,5.817 11.567,5.817 9.255,0.13 			"/>
			<polygon points="11.067,5.817 8.755,11.505 9.255,11.505 11.567,5.817 			"/>
			<line style="fill:none;stroke:#000000;stroke-width:0.5;stroke-miterlimit:10;" x1="25.317" y1="0.13" x2="25.317" y2="11.505"/>
			<polygon points="36.505,0.13 38.817,5.817 39.317,5.817 37.005,0.13 			"/>
			<polygon points="38.817,5.817 36.505,11.505 37.005,11.505 39.317,5.817 			"/>
			<g>
				<path d="M3.013,5.37l1.693-0.363c0.121,0.289,0.219,0.584,0.293,0.885c0.105,0.441,0.191,0.965,0.258,1.57
					c0.031,0.305,0.074,0.949,0.129,1.934c0.488-0.539,0.779-0.873,0.873-1.002c0.516-0.699,0.813-1.109,0.891-1.23
					c0.129-0.207,0.219-0.389,0.27-0.545C7.462,6.501,7.483,6.39,7.483,6.284c0-0.102-0.091-0.219-0.272-0.352
					S6.938,5.651,6.938,5.487c0-0.125,0.05-0.236,0.149-0.334s0.218-0.146,0.354-0.146c0.164,0,0.309,0.067,0.434,0.202
					S8.063,5.511,8.063,5.71S8.032,6.101,7.97,6.284C7.868,6.581,7.679,6.943,7.401,7.371S6.677,8.372,6.06,9.091
					c-0.078,0.09-0.512,0.543-1.301,1.359H4.542C4.448,7.978,4.253,6.435,3.956,5.821C3.858,5.622,3.696,5.522,3.47,5.522
					c-0.098,0-0.236,0.018-0.416,0.053L3.013,5.37z"/>
			</g>
			<path d="M21.361,3.409c-0.804-0.804-1.787-1.211-2.926-1.211c-1.151,0-2.135,0.408-2.951,1.211
				c-0.804,0.815-1.211,1.787-1.211,2.938c0,1.14,0.408,2.123,1.211,2.927c0.815,0.815,1.799,1.223,2.951,1.223
				c1.139,0,2.123-0.407,2.926-1.223c0.815-0.804,1.224-1.787,1.224-2.927C22.585,5.196,22.177,4.225,21.361,3.409L21.361,3.409z
				 M20.966,8.89c-0.696,0.696-1.547,1.044-2.543,1.044c-0.983,0-1.835-0.348-2.531-1.044c-0.708-0.695-1.055-1.547-1.055-2.53
				s0.348-1.835,1.055-2.53c0.696-0.696,1.547-1.043,2.531-1.043c0.996,0,1.847,0.348,2.543,1.043
				c0.707,0.695,1.055,1.547,1.055,2.53S21.673,8.194,20.966,8.89L20.966,8.89z M16.036,4.393l1.991,1.967l-2.002,1.979l0.396,0.396
				l2.003-1.979l1.991,1.991l0.396-0.396l-1.991-1.991l2.002-1.979l-0.396-0.396l-2.003,1.979l-1.991-1.967L16.036,4.393z"/>
			<path d="M34.108,5.532c0.354,0.516,0.422,1.295,0.188,2.362c-0.195,0.888-0.46,1.487-0.78,1.799
				c-0.232,0.24-0.511,0.36-0.811,0.36c-0.264,0-0.471-0.096-0.635-0.276c-0.162-0.191-0.263-0.552-0.303-1.079
				c0.402-0.684,0.658-1.247,0.756-1.691c0.082-0.371,0.067-0.684-0.043-0.947c-0.055-0.132-0.146-0.204-0.267-0.204
				S31.97,5.928,31.856,6.06c-0.24,0.276-0.396,0.6-0.479,0.983c-0.045,0.204-0.066,0.408-0.057,0.636
				c0.001,0.216,0.044,0.563,0.111,1.02c-0.271,0.527-0.545,0.899-0.806,1.104c-0.273,0.204-0.522,0.3-0.774,0.3
				c-0.287,0-0.501-0.12-0.602-0.372c-0.186-0.407-0.176-1.056,0.018-1.931c0.195-0.888,0.522-1.559,0.974-2.027
				c0.46-0.456,0.959-0.708,1.512-0.768l0.048-0.216c-0.468,0-0.85,0.048-1.183,0.144c-0.321,0.096-0.634,0.264-0.948,0.492
				C29.344,5.652,29.064,5.94,28.817,6.3c-0.325,0.443-0.544,0.947-0.665,1.499c-0.114,0.516-0.121,0.983-0.012,1.415
				c0.105,0.443,0.289,0.756,0.577,0.972c0.279,0.204,0.567,0.312,0.855,0.312c0.336,0,0.656-0.096,0.975-0.288
				c0.318-0.191,0.627-0.503,0.932-0.911c0.103,0.408,0.253,0.708,0.447,0.911c0.198,0.192,0.477,0.288,0.813,0.288
				c0.312,0,0.671-0.107,1.066-0.323c0.393-0.204,0.729-0.528,1.024-0.948c0.294-0.407,0.492-0.875,0.604-1.379
				c0.129-0.588,0.118-1.14-0.025-1.631c-0.152-0.504-0.409-0.864-0.778-1.092c-0.37-0.228-0.886-0.335-1.546-0.335l-0.047,0.216
				C33.53,5.052,33.886,5.232,34.108,5.532L34.108,5.532z"/>
		</g>
	</g>
</g>
</svg>
