<?xml version="1.0" encoding="utf-8"?>
<!-- Generator: Adobe Illustrator 14.0.0, SVG Export Plug-In . SVG Version: 6.00 Build 43363)  -->
<!DOCTYPE svg PUBLIC "-//W3C//DTD SVG 1.1//EN" "http://www.w3.org/Graphics/SVG/1.1/DTD/svg11.dtd">
<svg version="1.1" xmlns="http://www.w3.org/2000/svg" xmlns:xlink="http://www.w3.org/1999/xlink" x="0px" y="0px"
	 width="212.538px" height="34.651px" viewBox="0 0 212.538 34.651" style="enable-background:new 0 0 212.538 34.651;"
	 xml:space="preserve">
<g id="Layer_1">
</g>
<g id="Layer_2">
	<g id="theGroup">
		<g>
			<path style="fill:none;stroke:#000000;stroke-width:0.5;stroke-miterlimit:10;" d="M52.055,16.648h28.844 M117.304,16.648h28.563
				"/>
			<g>
				<path d="M2.555,11.703h3.129c0.82,0,1.434,0.177,1.84,0.53s0.609,0.784,0.609,1.292c0,0.402-0.129,0.793-0.387,1.172
					s-0.641,0.687-1.148,0.923s-1.057,0.354-1.646,0.354c-0.367,0-0.834-0.066-1.4-0.199l-0.633,2.168
					c-0.148,0.516-0.223,0.855-0.223,1.02c0,0.125,0.053,0.229,0.158,0.311s0.357,0.135,0.756,0.158l-0.059,0.217H0.393l0.064-0.217
					c0.414,0,0.702-0.071,0.864-0.214s0.337-0.536,0.524-1.181l1.313-4.523c0.156-0.543,0.234-0.906,0.234-1.09
					c0-0.137-0.056-0.25-0.167-0.34s-0.356-0.145-0.735-0.164L2.555,11.703z M3.65,15.406c0.441,0.113,0.797,0.17,1.066,0.17
					c0.426,0,0.813-0.088,1.163-0.264s0.623-0.439,0.82-0.791s0.296-0.717,0.296-1.096c0-0.395-0.121-0.707-0.363-0.938
					s-0.609-0.346-1.102-0.346c-0.266,0-0.588,0.033-0.967,0.1L3.65,15.406z"/>
				<path d="M9.861,11.703h3.129c0.82,0,1.434,0.177,1.84,0.53s0.609,0.784,0.609,1.292c0,0.402-0.129,0.793-0.387,1.172
					s-0.641,0.687-1.148,0.923s-1.057,0.354-1.646,0.354c-0.367,0-0.834-0.066-1.4-0.199l-0.633,2.168
					c-0.148,0.516-0.223,0.855-0.223,1.02c0,0.125,0.053,0.229,0.158,0.311s0.357,0.135,0.756,0.158l-0.059,0.217H7.699l0.064-0.217
					c0.414,0,0.702-0.071,0.864-0.214s0.337-0.536,0.524-1.181l1.313-4.523c0.156-0.543,0.234-0.906,0.234-1.09
					c0-0.137-0.056-0.25-0.167-0.34s-0.356-0.145-0.735-0.164L9.861,11.703z M10.957,15.406c0.441,0.113,0.797,0.17,1.066,0.17
					c0.426,0,0.813-0.088,1.163-0.264s0.623-0.439,0.82-0.791s0.296-0.717,0.296-1.096c0-0.395-0.121-0.707-0.363-0.938
					s-0.609-0.346-1.102-0.346c-0.266,0-0.588,0.033-0.967,0.1L10.957,15.406z"/>
				<path d="M16.862,11.703h3.357l-0.064,0.217c-0.344,0.008-0.589,0.04-0.735,0.097s-0.271,0.157-0.375,0.302
					s-0.212,0.412-0.325,0.803l-0.814,2.813c-0.145,0.5-0.23,0.828-0.258,0.984c-0.047,0.25-0.07,0.482-0.07,0.697
					c0,0.473,0.176,0.872,0.527,1.198s0.822,0.489,1.412,0.489c0.387,0,0.732-0.073,1.037-0.22s0.565-0.352,0.782-0.615
					s0.415-0.621,0.595-1.072s0.338-0.907,0.475-1.368l0.703-2.426c0.176-0.605,0.264-1,0.264-1.184c0-0.129-0.06-0.239-0.179-0.331
					s-0.36-0.147-0.724-0.167l0.064-0.217h2.525l-0.064,0.217c-0.297,0-0.511,0.028-0.642,0.085s-0.245,0.158-0.343,0.305
					s-0.207,0.431-0.328,0.853l-0.861,2.947c-0.277,0.957-0.539,1.663-0.785,2.118s-0.603,0.836-1.069,1.143s-1.046,0.46-1.737,0.46
					c-0.797,0-1.439-0.226-1.928-0.677s-0.732-0.968-0.732-1.55c0-0.23,0.021-0.477,0.064-0.738
					c0.031-0.172,0.107-0.469,0.229-0.891l0.785-2.701c0.109-0.391,0.164-0.678,0.164-0.861c0-0.145-0.056-0.257-0.167-0.337
					s-0.392-0.132-0.841-0.155L16.862,11.703z"/>
			</g>
			<g>
				<path d="M55.018,2.787L55.1,2.57h2.836c0.477,0,0.901,0.074,1.274,0.223s0.652,0.355,0.838,0.621s0.278,0.547,0.278,0.844
					c0,0.457-0.165,0.87-0.495,1.239s-0.868,0.642-1.614,0.817c0.48,0.18,0.834,0.418,1.061,0.715s0.34,0.623,0.34,0.979
					c0,0.395-0.102,0.771-0.305,1.131s-0.464,0.639-0.782,0.838s-0.702,0.346-1.151,0.439c-0.32,0.066-0.82,0.1-1.5,0.1h-2.912
					l0.076-0.217c0.305-0.008,0.512-0.037,0.621-0.088c0.156-0.066,0.268-0.154,0.334-0.264c0.094-0.148,0.219-0.488,0.375-1.02
					l1.424-4.811c0.121-0.406,0.182-0.691,0.182-0.855c0-0.145-0.054-0.259-0.161-0.343s-0.312-0.126-0.612-0.126
					C55.139,2.792,55.076,2.791,55.018,2.787z M55.053,10c0.422,0.055,0.752,0.082,0.99,0.082c0.609,0,1.149-0.184,1.62-0.551
					s0.706-0.865,0.706-1.494c0-0.48-0.146-0.855-0.437-1.125s-0.761-0.404-1.409-0.404c-0.125,0-0.277,0.006-0.457,0.018L55.053,10
					z M56.207,6.085c0.254,0.008,0.438,0.012,0.551,0.012c0.813,0,1.417-0.177,1.813-0.53s0.595-0.796,0.595-1.327
					c0-0.402-0.121-0.716-0.363-0.94s-0.629-0.337-1.16-0.337c-0.141,0-0.32,0.023-0.539,0.07L56.207,6.085z"/>
				<path d="M74.885,3.759l-0.457,1.594h0.92l-0.1,0.369h-0.914l-1.008,3.457C73.217,9.55,73.163,9.791,73.163,9.9
					c0,0.066,0.016,0.117,0.047,0.152s0.068,0.053,0.111,0.053c0.098,0,0.227-0.068,0.387-0.205
					c0.094-0.078,0.303-0.318,0.627-0.721l0.193,0.146c-0.359,0.523-0.699,0.893-1.02,1.107c-0.219,0.148-0.439,0.223-0.662,0.223
					c-0.172,0-0.313-0.054-0.422-0.161s-0.164-0.245-0.164-0.413c0-0.211,0.063-0.533,0.188-0.967l0.979-3.393h-0.885L72.6,5.494
					c0.43-0.117,0.787-0.292,1.072-0.524s0.604-0.636,0.955-1.21H74.885z"/>
			</g>
			<g>
				<path d="M56.205,21.294l0.082-0.217h2.836c0.477,0,0.901,0.074,1.274,0.223s0.652,0.355,0.838,0.621s0.278,0.547,0.278,0.844
					c0,0.457-0.165,0.87-0.495,1.239s-0.868,0.642-1.614,0.817c0.48,0.18,0.834,0.418,1.061,0.715s0.34,0.623,0.34,0.979
					c0,0.395-0.102,0.771-0.305,1.131s-0.464,0.639-0.782,0.838s-0.702,0.346-1.151,0.439c-0.32,0.066-0.82,0.1-1.5,0.1h-2.912
					l0.076-0.217c0.305-0.008,0.512-0.037,0.621-0.088c0.156-0.066,0.268-0.154,0.334-0.264c0.094-0.148,0.219-0.488,0.375-1.02
					l1.424-4.811c0.121-0.406,0.182-0.691,0.182-0.855c0-0.145-0.054-0.259-0.161-0.343S56.693,21.3,56.393,21.3
					C56.326,21.3,56.264,21.298,56.205,21.294z M56.24,28.507c0.422,0.055,0.752,0.082,0.99,0.082c0.609,0,1.149-0.184,1.62-0.551
					s0.706-0.865,0.706-1.494c0-0.48-0.146-0.855-0.437-1.125s-0.761-0.404-1.409-0.404c-0.125,0-0.277,0.006-0.457,0.018
					L56.24,28.507z M57.395,24.593c0.254,0.008,0.438,0.012,0.551,0.012c0.813,0,1.417-0.177,1.813-0.53s0.595-0.796,0.595-1.327
					c0-0.402-0.121-0.716-0.363-0.94s-0.629-0.337-1.16-0.337c-0.141,0-0.32,0.023-0.539,0.07L57.395,24.593z"/>
				<path d="M73.697,22.267l-0.457,1.594h0.92l-0.1,0.369h-0.914l-1.008,3.457c-0.109,0.371-0.164,0.611-0.164,0.721
					c0,0.066,0.016,0.117,0.047,0.152s0.068,0.053,0.111,0.053c0.098,0,0.227-0.068,0.387-0.205
					c0.094-0.078,0.303-0.318,0.627-0.721l0.193,0.146c-0.359,0.523-0.699,0.893-1.02,1.107c-0.219,0.148-0.439,0.223-0.662,0.223
					c-0.172,0-0.313-0.054-0.422-0.161s-0.164-0.245-0.164-0.413c0-0.211,0.063-0.533,0.188-0.967l0.979-3.393h-0.885l0.059-0.229
					c0.43-0.117,0.787-0.292,1.072-0.524s0.604-0.636,0.955-1.21H73.697z"/>
			</g>
			<g>
				<path d="M91.328,11.316l-2.016,6.914c-0.109,0.375-0.164,0.621-0.164,0.738c0,0.039,0.017,0.076,0.05,0.111
					s0.067,0.053,0.103,0.053c0.051,0,0.111-0.025,0.182-0.076c0.133-0.094,0.355-0.328,0.668-0.703l0.199,0.123
					c-0.281,0.391-0.565,0.707-0.853,0.949s-0.556,0.363-0.806,0.363c-0.133,0-0.242-0.047-0.328-0.141s-0.129-0.227-0.129-0.398
					c0-0.223,0.059-0.521,0.176-0.896l0.229-0.727c-0.566,0.875-1.082,1.48-1.547,1.816c-0.32,0.23-0.627,0.346-0.92,0.346
					c-0.297,0-0.556-0.132-0.776-0.396s-0.331-0.622-0.331-1.075c0-0.582,0.186-1.203,0.557-1.863s0.861-1.197,1.471-1.611
					c0.48-0.332,0.922-0.498,1.324-0.498c0.211,0,0.393,0.043,0.545,0.129s0.303,0.229,0.451,0.428l0.574-2.039
					c0.043-0.145,0.078-0.26,0.105-0.346c0.047-0.156,0.07-0.285,0.07-0.387c0-0.082-0.029-0.15-0.088-0.205
					c-0.082-0.066-0.188-0.1-0.316-0.1c-0.09,0-0.238,0.014-0.445,0.041V11.65L91.328,11.316z M89.154,15.476
					c0-0.25-0.072-0.451-0.217-0.604s-0.328-0.229-0.551-0.229c-0.492,0-1.005,0.406-1.538,1.219s-0.8,1.59-0.8,2.332
					c0,0.293,0.064,0.517,0.193,0.671s0.283,0.231,0.463,0.231c0.406,0,0.916-0.439,1.529-1.318S89.154,16.132,89.154,15.476z"/>
				<path d="M93.953,12.892l-0.457,1.594h0.92l-0.1,0.369h-0.914l-1.008,3.457c-0.109,0.371-0.164,0.611-0.164,0.721
					c0,0.066,0.016,0.117,0.047,0.152s0.068,0.053,0.111,0.053c0.098,0,0.227-0.068,0.387-0.205
					c0.094-0.078,0.303-0.318,0.627-0.721l0.193,0.146c-0.359,0.523-0.699,0.893-1.02,1.107c-0.219,0.148-0.439,0.223-0.662,0.223
					c-0.172,0-0.313-0.054-0.422-0.161s-0.164-0.245-0.164-0.413c0-0.211,0.063-0.533,0.188-0.967l0.979-3.393h-0.885l0.059-0.229
					c0.43-0.117,0.787-0.292,1.072-0.524s0.604-0.636,0.955-1.21H93.953z"/>
			</g>
			<g>
				<path d="M120.267,3.169l0.082-0.217h2.836c0.477,0,0.902,0.074,1.275,0.223s0.652,0.355,0.838,0.621s0.277,0.547,0.277,0.844
					c0,0.457-0.164,0.87-0.494,1.239s-0.869,0.642-1.615,0.817c0.48,0.18,0.834,0.418,1.061,0.715s0.34,0.623,0.34,0.979
					c0,0.395-0.102,0.771-0.305,1.131s-0.463,0.639-0.781,0.838s-0.703,0.346-1.152,0.439c-0.32,0.066-0.82,0.1-1.5,0.1h-2.912
					l0.076-0.217c0.305-0.008,0.512-0.037,0.621-0.088c0.156-0.066,0.268-0.154,0.334-0.264c0.094-0.148,0.219-0.488,0.375-1.02
					l1.424-4.811c0.121-0.406,0.182-0.691,0.182-0.855c0-0.145-0.053-0.259-0.16-0.343s-0.313-0.126-0.613-0.126
					C120.388,3.175,120.326,3.173,120.267,3.169z M120.302,10.382c0.422,0.055,0.752,0.082,0.99,0.082
					c0.609,0,1.15-0.184,1.621-0.551s0.705-0.865,0.705-1.494c0-0.48-0.145-0.855-0.436-1.125s-0.762-0.404-1.41-0.404
					c-0.125,0-0.277,0.006-0.457,0.018L120.302,10.382z M121.457,6.468c0.254,0.008,0.438,0.012,0.551,0.012
					c0.813,0,1.418-0.177,1.814-0.53s0.594-0.796,0.594-1.327c0-0.402-0.121-0.716-0.363-0.94s-0.629-0.337-1.16-0.337
					c-0.141,0-0.32,0.023-0.539,0.07L121.457,6.468z"/>
				<path d="M139.859,4.142l-0.457,1.594h0.92l-0.1,0.369h-0.914L138.3,9.562c-0.109,0.371-0.164,0.611-0.164,0.721
					c0,0.066,0.016,0.117,0.047,0.152s0.068,0.053,0.111,0.053c0.098,0,0.227-0.068,0.387-0.205
					c0.094-0.078,0.303-0.318,0.627-0.721l0.193,0.146c-0.359,0.523-0.699,0.893-1.02,1.107c-0.219,0.148-0.439,0.223-0.662,0.223
					c-0.172,0-0.313-0.054-0.422-0.161s-0.164-0.245-0.164-0.413c0-0.211,0.063-0.533,0.188-0.967l0.979-3.393h-0.885l0.059-0.229
					c0.43-0.117,0.787-0.292,1.072-0.524s0.604-0.636,0.955-1.21H139.859z"/>
			</g>
			<g>
				<path d="M121.332,21.294l0.082-0.217h2.836c0.477,0,0.902,0.074,1.275,0.223s0.652,0.355,0.838,0.621s0.277,0.547,0.277,0.844
					c0,0.457-0.164,0.87-0.494,1.239s-0.869,0.642-1.615,0.817c0.48,0.18,0.834,0.418,1.061,0.715s0.34,0.623,0.34,0.979
					c0,0.395-0.102,0.771-0.305,1.131s-0.463,0.639-0.781,0.838s-0.703,0.346-1.152,0.439c-0.32,0.066-0.82,0.1-1.5,0.1h-2.912
					l0.076-0.217c0.305-0.008,0.512-0.037,0.621-0.088c0.156-0.066,0.268-0.154,0.334-0.264c0.094-0.148,0.219-0.488,0.375-1.02
					l1.424-4.811c0.121-0.406,0.182-0.691,0.182-0.855c0-0.145-0.053-0.259-0.16-0.343s-0.313-0.126-0.613-0.126
					C121.453,21.3,121.39,21.298,121.332,21.294z M121.367,28.507c0.422,0.055,0.752,0.082,0.99,0.082
					c0.609,0,1.15-0.184,1.621-0.551s0.705-0.865,0.705-1.494c0-0.48-0.145-0.855-0.436-1.125s-0.762-0.404-1.41-0.404
					c-0.125,0-0.277,0.006-0.457,0.018L121.367,28.507z M122.521,24.593c0.254,0.008,0.438,0.012,0.551,0.012
					c0.813,0,1.418-0.177,1.814-0.53s0.594-0.796,0.594-1.327c0-0.402-0.121-0.716-0.363-0.94s-0.629-0.337-1.16-0.337
					c-0.141,0-0.32,0.023-0.539,0.07L122.521,24.593z"/>
				<path d="M138.824,22.267l-0.457,1.594h0.92l-0.1,0.369h-0.914l-1.008,3.457c-0.109,0.371-0.164,0.611-0.164,0.721
					c0,0.066,0.016,0.117,0.047,0.152s0.068,0.053,0.111,0.053c0.098,0,0.227-0.068,0.387-0.205
					c0.094-0.078,0.303-0.318,0.627-0.721l0.193,0.146c-0.359,0.523-0.699,0.893-1.02,1.107c-0.219,0.148-0.439,0.223-0.662,0.223
					c-0.172,0-0.313-0.054-0.422-0.161s-0.164-0.245-0.164-0.413c0-0.211,0.063-0.533,0.188-0.967l0.979-3.393h-0.885l0.059-0.229
					c0.43-0.117,0.787-0.292,1.072-0.524s0.604-0.636,0.955-1.21H138.824z"/>
			</g>
			<g>
				<path d="M156.296,11.316l-2.016,6.914c-0.109,0.375-0.164,0.621-0.164,0.738c0,0.039,0.018,0.076,0.051,0.111
					s0.066,0.053,0.102,0.053c0.051,0,0.111-0.025,0.182-0.076c0.133-0.094,0.355-0.328,0.668-0.703l0.199,0.123
					c-0.281,0.391-0.564,0.707-0.852,0.949s-0.557,0.363-0.807,0.363c-0.133,0-0.242-0.047-0.328-0.141s-0.129-0.227-0.129-0.398
					c0-0.223,0.059-0.521,0.176-0.896l0.229-0.727c-0.566,0.875-1.082,1.48-1.547,1.816c-0.32,0.23-0.627,0.346-0.92,0.346
					c-0.297,0-0.555-0.132-0.775-0.396s-0.332-0.622-0.332-1.075c0-0.582,0.186-1.203,0.557-1.863s0.861-1.197,1.471-1.611
					c0.48-0.332,0.922-0.498,1.324-0.498c0.211,0,0.393,0.043,0.545,0.129s0.303,0.229,0.451,0.428l0.574-2.039
					c0.043-0.145,0.078-0.26,0.105-0.346c0.047-0.156,0.07-0.285,0.07-0.387c0-0.082-0.029-0.15-0.088-0.205
					c-0.082-0.066-0.188-0.1-0.316-0.1c-0.09,0-0.238,0.014-0.445,0.041V11.65L156.296,11.316z M154.123,15.476
					c0-0.25-0.072-0.451-0.217-0.604s-0.328-0.229-0.551-0.229c-0.492,0-1.004,0.406-1.537,1.219s-0.801,1.59-0.801,2.332
					c0,0.293,0.064,0.517,0.193,0.671s0.283,0.231,0.463,0.231c0.406,0,0.916-0.439,1.529-1.318S154.123,16.132,154.123,15.476z"/>
				<path d="M158.921,12.892l-0.457,1.594h0.92l-0.1,0.369h-0.914l-1.008,3.457c-0.109,0.371-0.164,0.611-0.164,0.721
					c0,0.066,0.016,0.117,0.047,0.152s0.068,0.053,0.111,0.053c0.098,0,0.227-0.068,0.387-0.205
					c0.094-0.078,0.303-0.318,0.627-0.721l0.193,0.146c-0.359,0.523-0.699,0.893-1.02,1.107c-0.219,0.148-0.439,0.223-0.662,0.223
					c-0.172,0-0.313-0.054-0.422-0.161s-0.164-0.245-0.164-0.413c0-0.211,0.063-0.533,0.188-0.967l0.979-3.393h-0.885l0.059-0.229
					c0.43-0.117,0.787-0.292,1.072-0.524s0.604-0.636,0.955-1.21H158.921z"/>
			</g>
			<g>
				<path d="M26.467,18.798l-0.267,0.93h0.537l-0.058,0.216h-0.533l-0.588,2.017c-0.064,0.217-0.096,0.356-0.096,0.42
					c0,0.039,0.009,0.068,0.027,0.09c0.018,0.02,0.04,0.03,0.065,0.03c0.057,0,0.132-0.04,0.226-0.12
					c0.055-0.045,0.177-0.186,0.366-0.42l0.113,0.086c-0.209,0.305-0.408,0.521-0.595,0.646c-0.127,0.087-0.256,0.13-0.386,0.13
					c-0.1,0-0.182-0.031-0.246-0.094s-0.096-0.144-0.096-0.241c0-0.123,0.037-0.312,0.109-0.563l0.571-1.979H25.1l0.034-0.134
					c0.25-0.068,0.459-0.17,0.625-0.306s0.352-0.37,0.557-0.706H26.467z"/>
			</g>
			<g>
				<path d="M48.373,6.645l-0.267,0.93h0.537L48.585,7.79h-0.533l-0.588,2.017c-0.064,0.216-0.096,0.356-0.096,0.42
					c0,0.039,0.009,0.068,0.027,0.089s0.04,0.031,0.065,0.031c0.057,0,0.132-0.04,0.226-0.12c0.055-0.045,0.177-0.186,0.366-0.42
					l0.113,0.085c-0.209,0.305-0.408,0.521-0.595,0.646c-0.127,0.086-0.256,0.13-0.386,0.13c-0.1,0-0.182-0.031-0.246-0.094
					c-0.064-0.063-0.096-0.143-0.096-0.241c0-0.123,0.037-0.311,0.109-0.564l0.571-1.979h-0.516l0.034-0.133
					c0.25-0.068,0.459-0.17,0.625-0.306c0.167-0.135,0.352-0.371,0.557-0.706H48.373z"/>
			</g>
			<g>
				<path d="M62.574,10.514L62.338,11.3c0.249-0.292,0.47-0.496,0.665-0.612c0.194-0.116,0.394-0.174,0.596-0.174
					s0.376,0.081,0.52,0.241c0.144,0.161,0.215,0.37,0.215,0.627c0,0.501-0.204,1.011-0.612,1.53
					c-0.408,0.518-0.883,0.777-1.425,0.777c-0.114,0-0.215-0.013-0.303-0.038c-0.087-0.025-0.186-0.069-0.295-0.133l-0.25,0.882
					c-0.05,0.173-0.075,0.286-0.075,0.338c0,0.05,0.013,0.093,0.039,0.128c0.026,0.035,0.069,0.063,0.128,0.082
					c0.059,0.019,0.177,0.029,0.352,0.029l-0.031,0.126h-1.61l0.034-0.126c0.212-0.009,0.355-0.045,0.429-0.109
					c0.074-0.064,0.152-0.24,0.234-0.53l0.865-2.994c0.052-0.189,0.079-0.307,0.079-0.352c0-0.062-0.018-0.109-0.053-0.144
					c-0.036-0.034-0.09-0.051-0.163-0.051c-0.066,0-0.158,0.008-0.277,0.024v-0.133L62.574,10.514z M61.777,13.248
					c0.141,0.168,0.332,0.253,0.571,0.253c0.119,0,0.239-0.033,0.362-0.099s0.243-0.164,0.361-0.294
					c0.117-0.13,0.223-0.28,0.316-0.449c0.093-0.17,0.177-0.37,0.251-0.6c0.074-0.23,0.111-0.458,0.111-0.684
					c0-0.182-0.042-0.322-0.125-0.418c-0.083-0.097-0.181-0.146-0.292-0.146c-0.246,0-0.489,0.141-0.73,0.424
					c-0.24,0.283-0.416,0.613-0.528,0.991L61.777,13.248z"/>
			</g>
			<g>
				<path d="M62.967,28.173l-0.267,0.93h0.537l-0.058,0.216h-0.533l-0.588,2.017c-0.064,0.217-0.096,0.356-0.096,0.42
					c0,0.039,0.009,0.068,0.027,0.09c0.018,0.02,0.04,0.03,0.065,0.03c0.057,0,0.132-0.04,0.226-0.12
					c0.055-0.045,0.177-0.186,0.366-0.42l0.113,0.086c-0.209,0.305-0.408,0.521-0.595,0.646c-0.127,0.087-0.256,0.13-0.386,0.13
					c-0.1,0-0.182-0.031-0.246-0.094s-0.096-0.144-0.096-0.241c0-0.123,0.037-0.312,0.109-0.563l0.571-1.979H61.6l0.034-0.134
					c0.25-0.068,0.459-0.17,0.625-0.306s0.352-0.37,0.557-0.706H62.967z"/>
			</g>
			<g>
				<path d="M113.625,6.645l-0.266,0.93h0.535l-0.057,0.215h-0.533l-0.588,2.017c-0.064,0.216-0.096,0.356-0.096,0.42
					c0,0.039,0.008,0.068,0.027,0.089c0.018,0.021,0.039,0.031,0.064,0.031c0.057,0,0.133-0.04,0.225-0.12
					c0.055-0.045,0.178-0.186,0.367-0.42l0.111,0.085c-0.209,0.305-0.406,0.521-0.594,0.646c-0.127,0.086-0.256,0.13-0.387,0.13
					c-0.1,0-0.182-0.031-0.246-0.094c-0.063-0.063-0.096-0.143-0.096-0.241c0-0.123,0.037-0.311,0.109-0.564l0.57-1.979h-0.516
					l0.035-0.133c0.25-0.068,0.459-0.17,0.625-0.306c0.166-0.135,0.352-0.371,0.557-0.706H113.625z"/>
			</g>
			<g>
				<path d="M129.216,9.129l-1.176,4.033c-0.063,0.219-0.096,0.362-0.096,0.431c0,0.023,0.01,0.044,0.029,0.065
					s0.039,0.031,0.061,0.031c0.029,0,0.064-0.015,0.105-0.044c0.078-0.055,0.207-0.191,0.389-0.41l0.117,0.072
					c-0.164,0.228-0.33,0.413-0.498,0.554c-0.166,0.141-0.324,0.212-0.469,0.212c-0.078,0-0.143-0.027-0.191-0.082
					c-0.051-0.055-0.076-0.132-0.076-0.232c0-0.13,0.035-0.304,0.104-0.523l0.133-0.424c-0.33,0.51-0.631,0.864-0.902,1.06
					c-0.188,0.134-0.365,0.202-0.537,0.202s-0.324-0.077-0.453-0.23c-0.129-0.154-0.193-0.363-0.193-0.627
					c0-0.339,0.109-0.702,0.326-1.087s0.502-0.698,0.857-0.94c0.279-0.194,0.537-0.291,0.771-0.291c0.123,0,0.23,0.025,0.318,0.075
					c0.09,0.05,0.178,0.133,0.264,0.25l0.334-1.189c0.025-0.084,0.047-0.151,0.063-0.202c0.027-0.091,0.041-0.167,0.041-0.226
					c0-0.048-0.018-0.088-0.051-0.12c-0.049-0.039-0.109-0.058-0.186-0.058c-0.053,0-0.139,0.008-0.26,0.024V9.324L129.216,9.129z
					 M127.949,11.556c0-0.146-0.043-0.263-0.127-0.352s-0.191-0.133-0.32-0.133c-0.287,0-0.586,0.237-0.898,0.711
					c-0.311,0.474-0.467,0.927-0.467,1.36c0,0.171,0.039,0.301,0.113,0.392c0.076,0.09,0.166,0.135,0.27,0.135
					c0.238,0,0.535-0.256,0.893-0.769S127.949,11.939,127.949,11.556z"/>
			</g>
			<g>
				<path d="M128.093,28.173l-0.266,0.93h0.535l-0.057,0.216h-0.533l-0.588,2.017c-0.064,0.217-0.096,0.356-0.096,0.42
					c0,0.039,0.008,0.068,0.027,0.09c0.018,0.02,0.039,0.03,0.064,0.03c0.057,0,0.133-0.04,0.225-0.12
					c0.055-0.045,0.178-0.186,0.367-0.42l0.111,0.086c-0.209,0.305-0.406,0.521-0.594,0.646c-0.127,0.087-0.256,0.13-0.387,0.13
					c-0.1,0-0.182-0.031-0.246-0.094c-0.063-0.063-0.096-0.144-0.096-0.241c0-0.123,0.037-0.312,0.109-0.563l0.57-1.979h-0.516
					l0.035-0.134c0.25-0.068,0.459-0.17,0.625-0.306s0.352-0.37,0.557-0.706H128.093z"/>
			</g>
			<path d="M31.239,15.774h6.153V15.21h-6.153V15.774z M31.239,17.969h6.153v-0.564h-6.153V17.969z"/>
			<path d="M69.693,12.823c-0.288-0.618-0.503-1.378-0.635-2.313c-0.144-0.934-0.216-1.964-0.216-3.12
				c0-1.014,0.072-1.979,0.228-2.914c0.156-0.951,0.384-1.71,0.696-2.329c0.3-0.602,0.695-1.077,1.175-1.441V0.39
				c-0.959,0.57-1.739,1.504-2.327,2.819c-0.6,1.33-0.899,2.788-0.899,4.387c0,1.536,0.288,2.962,0.852,4.261
				c0.563,1.298,1.355,2.281,2.375,2.946v-0.333C70.401,13.979,69.981,13.425,69.693,12.823L69.693,12.823z M78.034,2.37
				c0.288,0.602,0.503,1.378,0.647,2.312c0.132,0.919,0.204,1.964,0.204,3.104c0,1.03-0.072,1.996-0.228,2.93
				c-0.144,0.935-0.372,1.71-0.684,2.313c-0.312,0.618-0.708,1.093-1.188,1.441v0.333c0.959-0.57,1.739-1.505,2.327-2.835
				c0.6-1.315,0.899-2.772,0.899-4.372c0-1.552-0.288-2.962-0.852-4.261c-0.563-1.299-1.355-2.281-2.375-2.946v0.317
				C77.326,1.198,77.746,1.752,78.034,2.37L78.034,2.37z"/>
			<path d="M68.506,31.324c-0.288-0.618-0.503-1.378-0.635-2.313c-0.144-0.935-0.216-1.964-0.216-3.12
				c0-1.014,0.072-1.98,0.228-2.915c0.156-0.95,0.384-1.71,0.696-2.328c0.3-0.602,0.695-1.077,1.175-1.441V18.89
				c-0.959,0.57-1.739,1.505-2.327,2.819c-0.6,1.33-0.899,2.787-0.899,4.387c0,1.537,0.288,2.962,0.852,4.261
				c0.563,1.299,1.355,2.281,2.375,2.946V32.97C69.214,32.48,68.794,31.925,68.506,31.324L68.506,31.324z M76.847,20.87
				c0.288,0.603,0.503,1.378,0.647,2.313c0.132,0.919,0.204,1.964,0.204,3.104c0,1.029-0.072,1.996-0.228,2.931
				c-0.144,0.934-0.372,1.71-0.684,2.312c-0.312,0.618-0.708,1.094-1.188,1.441v0.333c0.959-0.57,1.739-1.505,2.327-2.835
				c0.6-1.314,0.899-2.771,0.899-4.372c0-1.552-0.288-2.961-0.851-4.26c-0.564-1.299-1.355-2.281-2.375-2.946v0.316
				C76.139,19.698,76.559,20.252,76.847,20.87L76.847,20.87z"/>
			<polygon points="99.834,16.302 97.052,16.302 97.052,16.865 99.834,16.865 99.834,19.648 100.398,19.648 100.398,16.865 
				103.181,16.865 103.181,16.302 100.398,16.302 100.398,13.519 99.834,13.519 			"/>
			<path d="M134.662,13.198c-0.287-0.618-0.504-1.378-0.635-2.313c-0.145-0.934-0.217-1.964-0.217-3.12
				c0-1.014,0.072-1.979,0.229-2.914c0.156-0.951,0.385-1.71,0.695-2.329c0.301-0.602,0.695-1.077,1.176-1.441V0.765
				c-0.959,0.57-1.738,1.504-2.326,2.819c-0.6,1.33-0.9,2.788-0.9,4.387c0,1.536,0.289,2.962,0.852,4.261
				c0.564,1.298,1.355,2.281,2.375,2.946v-0.333C135.371,14.354,134.951,13.8,134.662,13.198L134.662,13.198z M143.003,2.745
				c0.287,0.602,0.504,1.378,0.646,2.312c0.133,0.919,0.205,1.964,0.205,3.104c0,1.03-0.072,1.996-0.229,2.93
				c-0.145,0.935-0.371,1.71-0.684,2.313c-0.313,0.618-0.707,1.093-1.188,1.441v0.333c0.959-0.57,1.738-1.505,2.326-2.835
				c0.6-1.315,0.9-2.772,0.9-4.372c0-1.552-0.289-2.962-0.852-4.261c-0.564-1.299-1.355-2.281-2.375-2.946v0.317
				C142.294,1.573,142.714,2.127,143.003,2.745L143.003,2.745z"/>
			<path d="M133.63,31.324c-0.287-0.618-0.504-1.378-0.635-2.313c-0.145-0.935-0.217-1.964-0.217-3.12
				c0-1.014,0.072-1.98,0.229-2.915c0.156-0.95,0.385-1.71,0.695-2.328c0.301-0.602,0.695-1.077,1.176-1.441V18.89
				c-0.959,0.57-1.738,1.505-2.326,2.819c-0.6,1.33-0.9,2.787-0.9,4.387c0,1.537,0.289,2.962,0.852,4.261
				c0.564,1.299,1.355,2.281,2.375,2.946V32.97C134.339,32.48,133.919,31.925,133.63,31.324L133.63,31.324z M141.972,20.87
				c0.287,0.603,0.504,1.378,0.646,2.313c0.133,0.919,0.205,1.964,0.205,3.104c0,1.029-0.072,1.996-0.229,2.931
				c-0.145,0.934-0.371,1.71-0.684,2.312c-0.313,0.618-0.707,1.094-1.188,1.441v0.333c0.959-0.57,1.738-1.505,2.326-2.835
				c0.6-1.314,0.9-2.771,0.9-4.372c0-1.552-0.289-2.961-0.852-4.26c-0.564-1.299-1.355-2.281-2.375-2.946v0.316
				C141.263,19.698,141.683,20.252,141.972,20.87L141.972,20.87z"/>
			<path d="M42.675,22.934c0.054,0.45,0.072,0.811,0.072,1.044c0,0.198-0.018,0.343-0.09,0.414
				c-0.072,0.091-0.144,0.127-0.252,0.127c-0.108,0-0.252-0.091-0.414-0.288c-0.18-0.181-0.378-0.271-0.612-0.271
				c-0.234,0-0.414,0.072-0.576,0.234c-0.144,0.162-0.216,0.378-0.216,0.63c0,0.306,0.09,0.559,0.288,0.756
				c0.198,0.198,0.45,0.307,0.756,0.307c0.468,0,0.864-0.198,1.17-0.595c0.486-0.612,0.756-1.765,0.792-3.493
				c0.09-3.061,0.144-4.789,0.144-5.167c0-1.495-0.108-3.457-0.324-5.852c-0.054-0.612-0.09-1.026-0.09-1.278
				c0-0.198,0.036-0.342,0.108-0.432c0.072-0.09,0.162-0.126,0.252-0.126c0.108,0,0.216,0.054,0.36,0.18
				c0.234,0.198,0.45,0.306,0.666,0.306c0.234,0,0.414-0.09,0.576-0.252C45.447,9.016,45.52,8.8,45.52,8.512
				c0-0.234-0.108-0.45-0.324-0.648c-0.234-0.198-0.486-0.288-0.774-0.288c-0.432,0-0.81,0.198-1.152,0.576
				c-0.342,0.378-0.576,1.116-0.72,2.214c-0.018,0.27-0.09,2.017-0.198,5.258C42.351,18.649,42.458,21.08,42.675,22.934
				L42.675,22.934z M107.923,22.934c0.055,0.45,0.072,0.811,0.072,1.044c0,0.198-0.018,0.343-0.09,0.414
				c-0.072,0.091-0.143,0.127-0.252,0.127c-0.107,0-0.252-0.091-0.414-0.288c-0.18-0.181-0.377-0.271-0.612-0.271
				s-0.414,0.072-0.576,0.234c-0.144,0.162-0.216,0.378-0.216,0.63c0,0.306,0.09,0.559,0.288,0.756
				c0.198,0.198,0.45,0.307,0.756,0.307c0.467,0,0.864-0.198,1.17-0.595c0.486-0.612,0.756-1.765,0.793-3.493
				c0.09-3.061,0.143-4.789,0.143-5.167c0-1.495-0.107-3.457-0.324-5.852c-0.053-0.612-0.09-1.026-0.09-1.278
				c0-0.198,0.037-0.342,0.109-0.432c0.072-0.09,0.162-0.126,0.252-0.126c0.107,0,0.215,0.054,0.359,0.18
				c0.234,0.198,0.451,0.306,0.666,0.306c0.234,0,0.414-0.09,0.576-0.252c0.162-0.162,0.234-0.378,0.234-0.667
				c0-0.234-0.107-0.45-0.324-0.648c-0.234-0.198-0.486-0.288-0.773-0.288c-0.434,0-0.811,0.198-1.152,0.576
				c-0.342,0.378-0.576,1.116-0.721,2.214c-0.018,0.27-0.09,2.017-0.197,5.258C107.601,18.649,107.708,21.08,107.923,22.934
				L107.923,22.934z"/>
			<g>
				<path d="M46.903,23.92c0-0.528,0.08-0.983,0.239-1.365s0.372-0.666,0.636-0.853c0.205-0.148,0.417-0.223,0.636-0.223
					c0.355,0,0.674,0.182,0.957,0.543c0.353,0.449,0.53,1.058,0.53,1.826c0,0.537-0.078,0.994-0.232,1.37s-0.353,0.648-0.593,0.818
					c-0.24,0.17-0.472,0.255-0.695,0.255c-0.442,0-0.81-0.261-1.104-0.783C47.027,25.07,46.903,24.541,46.903,23.92z M47.573,24.005
					c0,0.639,0.079,1.159,0.236,1.563c0.13,0.34,0.324,0.51,0.581,0.51c0.123,0,0.25-0.056,0.383-0.166s0.232-0.296,0.301-0.556
					c0.105-0.392,0.157-0.944,0.157-1.657c0-0.529-0.055-0.97-0.164-1.323c-0.082-0.262-0.188-0.448-0.318-0.558
					c-0.093-0.074-0.206-0.112-0.338-0.112c-0.155,0-0.293,0.069-0.414,0.208c-0.164,0.189-0.276,0.487-0.335,0.893
					S47.573,23.612,47.573,24.005z"/>
				<path d="M112.15,23.92c0-0.528,0.08-0.983,0.24-1.365c0.158-0.382,0.371-0.666,0.635-0.853c0.205-0.148,0.418-0.223,0.637-0.223
					c0.355,0,0.674,0.182,0.957,0.543c0.354,0.449,0.529,1.058,0.529,1.826c0,0.537-0.078,0.994-0.232,1.37
					s-0.354,0.648-0.594,0.818s-0.471,0.255-0.695,0.255c-0.441,0-0.811-0.261-1.104-0.783
					C112.275,25.07,112.15,24.541,112.15,23.92z M112.82,24.005c0,0.639,0.078,1.159,0.236,1.563c0.129,0.34,0.324,0.51,0.58,0.51
					c0.123,0,0.252-0.056,0.383-0.166c0.133-0.11,0.232-0.296,0.301-0.556c0.105-0.392,0.158-0.944,0.158-1.657
					c0-0.529-0.055-0.97-0.164-1.323c-0.082-0.262-0.188-0.448-0.318-0.558c-0.094-0.074-0.205-0.112-0.338-0.112
					c-0.154,0-0.293,0.069-0.414,0.208c-0.164,0.189-0.275,0.487-0.334,0.893C112.849,23.211,112.82,23.612,112.82,24.005z"/>
			</g>
			<g>
				<path d="M83.713,18.511c0.184,0,0.338,0.063,0.463,0.19s0.188,0.28,0.188,0.46s-0.063,0.333-0.19,0.46s-0.28,0.19-0.46,0.19
					s-0.333-0.063-0.46-0.19s-0.19-0.28-0.19-0.46c0-0.184,0.063-0.338,0.19-0.463S83.533,18.511,83.713,18.511z"/>
				<path d="M148.681,18.511c0.184,0,0.338,0.063,0.463,0.19s0.188,0.28,0.188,0.46s-0.064,0.333-0.191,0.46s-0.279,0.19-0.459,0.19
					s-0.334-0.063-0.461-0.19s-0.189-0.28-0.189-0.46c0-0.184,0.063-0.338,0.189-0.463S148.501,18.511,148.681,18.511z"/>
			</g>
		</g>
	</g>
</g>
</svg>
