<?xml version="1.0" encoding="utf-8"?>
<!-- Generator: Adobe Illustrator 14.0.0, SVG Export Plug-In . SVG Version: 6.00 Build 43363)  -->
<!DOCTYPE svg PUBLIC "-//W3C//DTD SVG 1.1//EN" "http://www.w3.org/Graphics/SVG/1.1/DTD/svg11.dtd">
<svg version="1.1" xmlns="http://www.w3.org/2000/svg" xmlns:xlink="http://www.w3.org/1999/xlink" x="0px" y="0px"
	 width="107.896px" height="81.424px" viewBox="0 0 107.896 81.424" style="enable-background:new 0 0 107.896 81.424;"
	 xml:space="preserve">
<g id="Layer_1">
</g>
<g id="Layer_2">
	<g id="theGroup">
		<g>
			<path style="fill:none;stroke:#000000;stroke-width:0.25;stroke-miterlimit:10;" d="M50.266,14.86H72.36 M83.798,14.86h21.719
				 M66.392,46.548h23.031 M49.266,31.548h57.25"/>
			
				<line style="fill:none;stroke:#000000;stroke-width:0.5;stroke-miterlimit:10;" x1="24.141" y1="63.423" x2="107.517" y2="63.423"/>
			<g>
				<path d="M6.012,61.251l-0.105,0.387H5.051l-0.645,2.561c-0.285,1.129-0.572,2.002-0.861,2.619
					c-0.41,0.871-0.852,1.473-1.324,1.805c-0.359,0.254-0.719,0.381-1.078,0.381c-0.234,0-0.434-0.07-0.598-0.211
					c-0.121-0.098-0.182-0.225-0.182-0.381c0-0.125,0.05-0.233,0.149-0.325s0.222-0.138,0.366-0.138c0.105,0,0.194,0.033,0.267,0.1
					s0.108,0.143,0.108,0.229s-0.041,0.166-0.123,0.24c-0.063,0.055-0.094,0.096-0.094,0.123c0,0.035,0.014,0.063,0.041,0.082
					c0.035,0.027,0.09,0.041,0.164,0.041c0.168,0,0.345-0.053,0.53-0.158s0.351-0.263,0.495-0.472s0.281-0.511,0.41-0.905
					c0.055-0.164,0.201-0.705,0.439-1.623l1.02-3.967h-1.02L3.2,61.251c0.324,0,0.551-0.022,0.68-0.067s0.247-0.131,0.354-0.258
					s0.247-0.364,0.419-0.712c0.23-0.469,0.451-0.832,0.662-1.09c0.289-0.348,0.593-0.608,0.911-0.782s0.618-0.261,0.899-0.261
					c0.297,0,0.535,0.075,0.715,0.226s0.27,0.313,0.27,0.489c0,0.137-0.045,0.252-0.135,0.346s-0.205,0.141-0.346,0.141
					c-0.121,0-0.22-0.035-0.296-0.105s-0.114-0.154-0.114-0.252c0-0.063,0.025-0.14,0.076-0.231s0.076-0.153,0.076-0.185
					c0-0.055-0.018-0.096-0.053-0.123c-0.051-0.039-0.125-0.059-0.223-0.059c-0.246,0-0.467,0.078-0.662,0.234
					c-0.262,0.207-0.496,0.531-0.703,0.973c-0.105,0.23-0.299,0.803-0.58,1.717H6.012z"/>
			</g>
			<g>
				<path d="M58.685,2.835l-0.908,3.141h0.744c0.531,0,0.916-0.081,1.154-0.243s0.443-0.462,0.615-0.899h0.217l-0.814,2.883h-0.234
					c0.07-0.242,0.105-0.449,0.105-0.621c0-0.168-0.035-0.303-0.104-0.404s-0.162-0.177-0.281-0.226s-0.369-0.073-0.752-0.073
					h-0.756l-0.768,2.631c-0.074,0.254-0.111,0.447-0.111,0.58c0,0.102,0.049,0.191,0.146,0.27c0.066,0.055,0.232,0.082,0.498,0.082
					h0.703c0.762,0,1.371-0.135,1.83-0.404s0.871-0.738,1.234-1.406h0.217l-0.75,2.209H54.53l0.076-0.217
					c0.305-0.008,0.51-0.035,0.615-0.082c0.156-0.07,0.27-0.16,0.34-0.27c0.105-0.16,0.23-0.496,0.375-1.008l1.395-4.793
					c0.109-0.387,0.164-0.682,0.164-0.885c0-0.148-0.053-0.265-0.156-0.349s-0.305-0.126-0.605-0.126H56.61l0.07-0.217h5.707
					l-0.492,1.916h-0.217c0.027-0.18,0.041-0.33,0.041-0.451c0-0.207-0.051-0.381-0.152-0.521c-0.133-0.18-0.326-0.316-0.58-0.41
					c-0.188-0.07-0.619-0.105-1.295-0.105H58.685z"/>
			</g>
			<g>
				<path d="M55.34,19.521l-0.908,3.141h0.744c0.531,0,0.917-0.081,1.155-0.243s0.443-0.462,0.615-0.899h0.217l-0.814,2.883h-0.234
					c0.07-0.242,0.105-0.449,0.105-0.621c0-0.168-0.035-0.303-0.104-0.404s-0.162-0.177-0.281-0.226
					c-0.119-0.049-0.37-0.073-0.753-0.073h-0.756l-0.768,2.631c-0.074,0.254-0.111,0.447-0.111,0.58c0,0.102,0.049,0.191,0.146,0.27
					c0.066,0.055,0.232,0.082,0.498,0.082h0.703c0.762,0,1.372-0.135,1.831-0.404s0.871-0.738,1.234-1.406h0.217l-0.75,2.209h-6.141
					l0.076-0.217c0.305-0.008,0.51-0.035,0.615-0.082c0.156-0.07,0.27-0.16,0.34-0.27c0.105-0.16,0.23-0.496,0.375-1.008
					l1.395-4.793c0.109-0.387,0.164-0.682,0.164-0.885c0-0.148-0.052-0.265-0.155-0.349s-0.306-0.126-0.606-0.126h-0.123l0.07-0.217
					h5.708l-0.492,1.916h-0.217c0.027-0.18,0.041-0.33,0.041-0.451c0-0.207-0.051-0.381-0.152-0.521
					c-0.133-0.18-0.326-0.316-0.58-0.41c-0.188-0.07-0.619-0.105-1.295-0.105H55.34z"/>
			</g>
			<g>
				<path d="M90.106,2.624l0.082-0.217h2.836c0.477,0,0.9,0.074,1.273,0.223s0.652,0.355,0.838,0.621s0.279,0.547,0.279,0.844
					c0,0.457-0.166,0.87-0.496,1.239s-0.867,0.642-1.613,0.817c0.48,0.18,0.834,0.418,1.061,0.715s0.34,0.623,0.34,0.979
					c0,0.395-0.102,0.771-0.305,1.131s-0.465,0.639-0.783,0.838s-0.701,0.346-1.15,0.439c-0.32,0.066-0.82,0.1-1.5,0.1h-2.912
					l0.076-0.217c0.305-0.008,0.512-0.037,0.621-0.088c0.156-0.066,0.268-0.154,0.334-0.264c0.094-0.148,0.219-0.488,0.375-1.02
					l1.424-4.811c0.121-0.406,0.182-0.691,0.182-0.855c0-0.145-0.055-0.259-0.162-0.343S90.595,2.63,90.294,2.63
					C90.228,2.63,90.165,2.628,90.106,2.624z M90.142,9.837c0.422,0.055,0.752,0.082,0.99,0.082c0.609,0,1.148-0.184,1.619-0.551
					s0.707-0.865,0.707-1.494c0-0.48-0.146-0.855-0.438-1.125s-0.76-0.404-1.408-0.404c-0.125,0-0.277,0.006-0.457,0.018
					L90.142,9.837z M91.296,5.923c0.254,0.008,0.438,0.012,0.551,0.012c0.813,0,1.416-0.177,1.813-0.53s0.596-0.796,0.596-1.327
					c0-0.402-0.121-0.716-0.363-0.94S93.263,2.8,92.731,2.8c-0.141,0-0.32,0.023-0.539,0.07L91.296,5.923z"/>
			</g>
			<g>
				<path d="M86.761,19.31l0.082-0.217h2.836c0.477,0,0.9,0.074,1.273,0.223s0.652,0.355,0.838,0.621s0.279,0.547,0.279,0.844
					c0,0.457-0.166,0.87-0.496,1.239s-0.867,0.642-1.613,0.817c0.48,0.18,0.834,0.418,1.061,0.715s0.34,0.623,0.34,0.979
					c0,0.395-0.102,0.771-0.305,1.131s-0.465,0.639-0.783,0.838s-0.701,0.346-1.15,0.439c-0.32,0.066-0.82,0.1-1.5,0.1H84.71
					l0.076-0.217c0.305-0.008,0.512-0.037,0.621-0.088c0.156-0.066,0.268-0.154,0.334-0.264c0.094-0.148,0.219-0.488,0.375-1.02
					l1.424-4.811c0.121-0.406,0.182-0.691,0.182-0.855c0-0.145-0.055-0.259-0.162-0.343s-0.311-0.126-0.611-0.126
					C86.882,19.315,86.819,19.313,86.761,19.31z M86.796,26.522c0.422,0.055,0.752,0.082,0.99,0.082
					c0.609,0,1.148-0.184,1.619-0.551s0.707-0.865,0.707-1.494c0-0.48-0.146-0.855-0.438-1.125s-0.76-0.404-1.408-0.404
					c-0.125,0-0.277,0.006-0.457,0.018L86.796,26.522z M87.95,22.608c0.254,0.008,0.438,0.012,0.551,0.012
					c0.813,0,1.416-0.177,1.813-0.53s0.596-0.796,0.596-1.327c0-0.402-0.121-0.716-0.363-0.94s-0.629-0.337-1.16-0.337
					c-0.141,0-0.32,0.023-0.539,0.07L87.95,22.608z"/>
			</g>
			<g>
				<path d="M72.681,34.31l0.07-0.217h2.537c1.074,0,1.869,0.123,2.387,0.369s0.932,0.634,1.24,1.163s0.463,1.097,0.463,1.702
					c0,0.52-0.09,1.024-0.268,1.515s-0.379,0.883-0.604,1.178s-0.568,0.62-1.033,0.976s-0.969,0.618-1.512,0.788
					s-1.221,0.255-2.033,0.255h-3.363l0.076-0.217c0.309-0.008,0.516-0.035,0.621-0.082c0.156-0.066,0.271-0.156,0.346-0.27
					c0.113-0.164,0.24-0.494,0.381-0.99l1.406-4.805c0.109-0.379,0.164-0.676,0.164-0.891c0-0.152-0.051-0.27-0.152-0.352
					s-0.301-0.123-0.598-0.123H72.681z M74.761,34.532l-1.723,5.947c-0.129,0.445-0.193,0.721-0.193,0.826
					c0,0.063,0.02,0.123,0.061,0.182s0.098,0.098,0.168,0.117c0.102,0.035,0.266,0.053,0.492,0.053c0.613,0,1.182-0.063,1.707-0.19
					s0.957-0.315,1.293-0.565c0.477-0.363,0.857-0.863,1.143-1.5s0.428-1.361,0.428-2.174c0-0.918-0.219-1.601-0.656-2.048
					s-1.076-0.671-1.916-0.671C75.356,34.509,75.089,34.517,74.761,34.532z"/>
			</g>
			<g>
				<path d="M69.337,51.013l0.07-0.217h2.537c1.074,0,1.869,0.123,2.387,0.369s0.932,0.634,1.24,1.163s0.463,1.097,0.463,1.702
					c0,0.52-0.09,1.024-0.268,1.515s-0.379,0.883-0.604,1.178s-0.568,0.62-1.033,0.976s-0.969,0.618-1.512,0.788
					s-1.221,0.255-2.033,0.255h-3.363l0.076-0.217c0.309-0.008,0.516-0.035,0.621-0.082c0.156-0.066,0.271-0.156,0.346-0.27
					c0.113-0.164,0.24-0.494,0.381-0.99l1.406-4.805c0.109-0.379,0.164-0.676,0.164-0.891c0-0.152-0.051-0.27-0.152-0.352
					s-0.301-0.123-0.598-0.123H69.337z M71.417,51.235l-1.723,5.947c-0.129,0.445-0.193,0.721-0.193,0.826
					c0,0.063,0.02,0.123,0.061,0.182s0.098,0.098,0.168,0.117c0.102,0.035,0.266,0.053,0.492,0.053c0.613,0,1.182-0.063,1.707-0.19
					s0.957-0.315,1.293-0.565c0.477-0.363,0.857-0.863,1.143-1.5s0.428-1.361,0.428-2.174c0-0.918-0.219-1.601-0.656-2.048
					s-1.076-0.671-1.916-0.671C72.013,51.212,71.745,51.22,71.417,51.235z"/>
			</g>
			<g>
				<path d="M63.239,67.843l2.455,6.229l1.33-4.652c0.109-0.383,0.164-0.68,0.164-0.891c0-0.145-0.051-0.258-0.152-0.34
					s-0.291-0.123-0.568-0.123c-0.047,0-0.096-0.002-0.146-0.006l0.064-0.217h2.555l-0.07,0.217
					c-0.266-0.004-0.463,0.023-0.592,0.082c-0.184,0.082-0.32,0.188-0.41,0.316c-0.125,0.184-0.252,0.504-0.381,0.961l-1.869,6.551
					h-0.211l-2.643-6.703l-1.412,4.951c-0.105,0.375-0.158,0.662-0.158,0.861c0,0.148,0.047,0.261,0.143,0.337
					s0.324,0.128,0.684,0.155l-0.059,0.217h-2.496l0.082-0.217c0.313-0.008,0.521-0.035,0.627-0.082
					c0.16-0.07,0.279-0.162,0.357-0.275c0.113-0.172,0.24-0.504,0.381-0.996l1.576-5.525c-0.152-0.234-0.316-0.396-0.49-0.483
					s-0.443-0.138-0.811-0.149l0.064-0.217H63.239z"/>
			</g>
			<g>
				<path d="M9.757,69.522H6.322l0.048-0.127c0.182-0.004,0.304-0.019,0.366-0.044c0.096-0.041,0.167-0.095,0.212-0.161
					c0.071-0.104,0.146-0.293,0.226-0.566l0.817-2.82c0.068-0.232,0.103-0.403,0.103-0.513c0-0.087-0.031-0.153-0.094-0.202
					c-0.063-0.047-0.181-0.071-0.354-0.071c-0.039,0-0.069-0.001-0.092-0.003l0.041-0.127h1.89l-0.027,0.127
					c-0.212,0-0.362,0.02-0.451,0.061s-0.163,0.108-0.222,0.202c-0.041,0.062-0.108,0.253-0.202,0.574l-0.803,2.772
					c-0.062,0.209-0.092,0.355-0.092,0.438c0,0.055,0.031,0.106,0.092,0.156c0.039,0.035,0.126,0.052,0.263,0.052h0.448
					c0.326,0,0.584-0.041,0.776-0.123c0.141-0.062,0.271-0.153,0.39-0.276c0.064-0.068,0.177-0.238,0.338-0.51l0.089-0.154h0.126
					L9.757,69.522z"/>
			</g>
			<g>
				<path d="M40.032,36.757l-0.677,2.396c-0.045,0.162-0.068,0.259-0.068,0.291c0,0.037,0.011,0.066,0.033,0.089
					c0.021,0.023,0.047,0.034,0.077,0.034c0.034,0,0.075-0.018,0.123-0.055c0.13-0.103,0.261-0.249,0.393-0.438l0.12,0.079
					c-0.155,0.237-0.337,0.437-0.547,0.598c-0.155,0.121-0.303,0.181-0.444,0.181c-0.093,0-0.17-0.028-0.229-0.084
					c-0.059-0.056-0.089-0.125-0.089-0.21s0.028-0.225,0.085-0.42l0.444-1.531c0.073-0.25,0.109-0.408,0.109-0.472
					c0-0.05-0.018-0.091-0.053-0.123c-0.035-0.032-0.083-0.048-0.145-0.048c-0.05,0-0.154,0.013-0.311,0.038v-0.133L40.032,36.757z
					 M39.988,35.4c0.096,0,0.177,0.033,0.243,0.099s0.099,0.147,0.099,0.243c0,0.093-0.034,0.174-0.101,0.241
					c-0.067,0.067-0.148,0.101-0.241,0.101s-0.174-0.034-0.241-0.101c-0.067-0.067-0.101-0.148-0.101-0.241
					c0-0.096,0.033-0.177,0.099-0.243S39.892,35.4,39.988,35.4z"/>
			</g>
			<g>
				<path d="M40.962,22.124l1.432,3.633l0.776-2.714c0.064-0.223,0.096-0.396,0.096-0.52c0-0.084-0.03-0.15-0.089-0.198
					s-0.17-0.072-0.332-0.072c-0.027,0-0.056-0.001-0.085-0.003l0.038-0.126h1.49l-0.041,0.126c-0.155-0.002-0.27,0.014-0.345,0.048
					c-0.107,0.048-0.187,0.109-0.239,0.185c-0.073,0.107-0.147,0.294-0.222,0.561l-1.09,3.821h-0.123l-1.542-3.91l-0.824,2.888
					c-0.062,0.219-0.092,0.386-0.092,0.502c0,0.086,0.028,0.152,0.084,0.197c0.056,0.044,0.188,0.074,0.398,0.09l-0.034,0.126
					h-1.456l0.048-0.126c0.182-0.004,0.304-0.021,0.366-0.048c0.093-0.041,0.163-0.095,0.208-0.161
					c0.066-0.1,0.14-0.294,0.222-0.581l0.919-3.223c-0.089-0.137-0.184-0.231-0.286-0.282c-0.101-0.052-0.259-0.081-0.473-0.087
					l0.038-0.126H40.962z"/>
			</g>
			<g>
				<path d="M64.69,12.699c-0.236,0.285-0.477,0.494-0.717,0.627c-0.242,0.134-0.498,0.2-0.766,0.2
					c-0.324,0-0.576-0.091-0.758-0.273s-0.271-0.427-0.271-0.735c0-0.349,0.098-0.691,0.291-1.029
					c0.195-0.337,0.457-0.611,0.787-0.822c0.328-0.21,0.652-0.316,0.969-0.316c0.248,0,0.434,0.052,0.557,0.156
					c0.123,0.104,0.186,0.23,0.186,0.381c0,0.141-0.043,0.262-0.131,0.362c-0.063,0.078-0.143,0.116-0.234,0.116
					c-0.072,0-0.131-0.023-0.178-0.068s-0.068-0.103-0.068-0.171c0-0.043,0.008-0.083,0.025-0.12
					c0.016-0.037,0.051-0.081,0.105-0.131c0.053-0.052,0.086-0.088,0.098-0.111s0.018-0.047,0.018-0.072
					c0-0.048-0.023-0.088-0.066-0.12c-0.066-0.045-0.158-0.068-0.279-0.068c-0.225,0-0.445,0.079-0.664,0.236
					s-0.404,0.38-0.561,0.67c-0.186,0.351-0.279,0.702-0.279,1.053c0,0.232,0.066,0.417,0.197,0.552
					c0.133,0.135,0.313,0.203,0.541,0.203c0.176,0,0.35-0.044,0.521-0.132c0.172-0.087,0.365-0.247,0.578-0.477L64.69,12.699z"/>
				<path d="M66.655,10.351l-0.678,2.396c-0.045,0.162-0.068,0.259-0.068,0.291c0,0.037,0.012,0.066,0.033,0.089
					s0.047,0.034,0.076,0.034c0.035,0,0.076-0.018,0.123-0.055c0.131-0.103,0.262-0.249,0.393-0.438l0.121,0.079
					c-0.156,0.237-0.338,0.437-0.547,0.598c-0.156,0.121-0.305,0.181-0.445,0.181c-0.094,0-0.17-0.028-0.229-0.084
					c-0.061-0.056-0.09-0.125-0.09-0.21s0.029-0.225,0.086-0.42l0.445-1.531c0.072-0.25,0.109-0.408,0.109-0.472
					c0-0.05-0.02-0.091-0.055-0.123s-0.082-0.048-0.145-0.048c-0.051,0-0.154,0.013-0.311,0.038v-0.133L66.655,10.351z M66.61,8.994
					c0.096,0,0.176,0.033,0.242,0.099s0.1,0.147,0.1,0.243c0,0.093-0.033,0.174-0.102,0.241c-0.066,0.067-0.146,0.101-0.24,0.101
					s-0.174-0.034-0.242-0.101c-0.066-0.067-0.1-0.148-0.1-0.241c0-0.096,0.033-0.177,0.1-0.243
					C66.433,9.027,66.515,8.994,66.61,8.994z"/>
			</g>
			<g>
				<path d="M60.284,27.054l-0.445,1.542c0.199-0.362,0.367-0.635,0.506-0.817c0.217-0.283,0.428-0.488,0.633-0.615
					c0.121-0.073,0.248-0.109,0.379-0.109c0.115,0,0.209,0.037,0.285,0.109c0.074,0.073,0.111,0.167,0.111,0.28
					c0,0.112-0.025,0.257-0.078,0.438l-0.242,0.868c0.371-0.695,0.723-1.183,1.057-1.463c0.184-0.155,0.365-0.232,0.547-0.232
					c0.104,0,0.189,0.036,0.258,0.108c0.066,0.071,0.1,0.183,0.1,0.333c0,0.132-0.02,0.272-0.061,0.42l-0.377,1.33
					c-0.082,0.29-0.123,0.45-0.123,0.482s0.012,0.059,0.031,0.082c0.014,0.016,0.031,0.024,0.055,0.024s0.063-0.021,0.119-0.065
					c0.131-0.1,0.252-0.232,0.367-0.396l0.111,0.072c-0.057,0.091-0.158,0.216-0.303,0.376s-0.268,0.268-0.369,0.325
					c-0.104,0.057-0.197,0.085-0.285,0.085c-0.08,0-0.146-0.027-0.199-0.082c-0.055-0.055-0.08-0.122-0.08-0.202
					c0-0.109,0.047-0.329,0.141-0.66l0.311-1.097c0.07-0.253,0.107-0.393,0.113-0.42c0.006-0.043,0.01-0.085,0.01-0.126
					c0-0.057-0.014-0.102-0.037-0.133c-0.027-0.032-0.059-0.048-0.094-0.048c-0.096,0-0.197,0.049-0.303,0.147
					c-0.314,0.29-0.609,0.695-0.883,1.217c-0.18,0.344-0.348,0.785-0.506,1.323h-0.516l0.584-2.068
					c0.064-0.223,0.096-0.373,0.096-0.448c0-0.062-0.012-0.107-0.037-0.137s-0.057-0.044-0.092-0.044
					c-0.076,0-0.156,0.027-0.24,0.082c-0.137,0.089-0.313,0.279-0.527,0.571c-0.217,0.292-0.383,0.571-0.502,0.837
					c-0.057,0.125-0.191,0.527-0.406,1.207h-0.506l0.633-2.215l0.082-0.287c0.016-0.043,0.023-0.075,0.023-0.096
					c0-0.05-0.023-0.095-0.068-0.135c-0.045-0.04-0.104-0.06-0.174-0.06c-0.029,0-0.111,0.014-0.246,0.041l-0.031-0.126
					L60.284,27.054z"/>
				<path d="M67.085,27.054l-0.666,2.317l-0.076,0.311c-0.006,0.03-0.01,0.055-0.01,0.075c0,0.037,0.012,0.068,0.035,0.096
					c0.018,0.021,0.041,0.031,0.068,0.031c0.029,0,0.068-0.018,0.115-0.055c0.09-0.066,0.207-0.203,0.355-0.41l0.117,0.082
					c-0.158,0.237-0.32,0.417-0.486,0.542c-0.166,0.125-0.32,0.187-0.461,0.187c-0.098,0-0.172-0.024-0.221-0.073
					c-0.049-0.049-0.074-0.121-0.074-0.214c0-0.112,0.025-0.259,0.076-0.441l0.072-0.256c-0.299,0.39-0.574,0.662-0.824,0.817
					c-0.18,0.112-0.357,0.167-0.529,0.167c-0.168,0-0.311-0.069-0.432-0.207c-0.121-0.138-0.182-0.327-0.182-0.569
					c0-0.362,0.109-0.745,0.326-1.147c0.219-0.402,0.494-0.724,0.83-0.965c0.262-0.191,0.51-0.287,0.742-0.287
					c0.139,0,0.254,0.037,0.346,0.109s0.162,0.194,0.211,0.362l0.123-0.39L67.085,27.054z M65.868,27.232
					c-0.146,0-0.301,0.068-0.465,0.205c-0.232,0.194-0.439,0.481-0.621,0.861c-0.18,0.38-0.271,0.725-0.271,1.032
					c0,0.155,0.039,0.277,0.117,0.368c0.076,0.09,0.166,0.135,0.266,0.135c0.248,0,0.52-0.184,0.811-0.55
					c0.391-0.488,0.584-0.988,0.584-1.5c0-0.194-0.037-0.334-0.111-0.42C66.101,27.275,65.999,27.232,65.868,27.232z"/>
			</g>
			<g>
				<path d="M68.513,27.054c0.111,0.119,0.195,0.237,0.254,0.355c0.041,0.082,0.107,0.297,0.201,0.646l0.301-0.451
					c0.08-0.109,0.176-0.214,0.291-0.313c0.113-0.1,0.213-0.167,0.301-0.204c0.055-0.023,0.113-0.034,0.18-0.034
					c0.098,0,0.176,0.026,0.234,0.079s0.088,0.116,0.088,0.191c0,0.086-0.018,0.146-0.051,0.178
					c-0.064,0.057-0.137,0.085-0.219,0.085c-0.049,0-0.1-0.01-0.154-0.031c-0.107-0.037-0.18-0.055-0.215-0.055
					c-0.055,0-0.121,0.032-0.195,0.096c-0.143,0.119-0.311,0.348-0.506,0.687l0.279,1.176c0.043,0.18,0.08,0.288,0.109,0.323
					c0.029,0.036,0.061,0.053,0.09,0.053c0.047,0,0.104-0.026,0.168-0.079c0.125-0.105,0.232-0.242,0.32-0.41l0.119,0.062
					c-0.143,0.269-0.326,0.492-0.547,0.67c-0.125,0.1-0.23,0.15-0.316,0.15c-0.129,0-0.23-0.072-0.305-0.215
					c-0.049-0.089-0.146-0.472-0.297-1.148c-0.355,0.618-0.641,1.015-0.855,1.193c-0.139,0.114-0.273,0.171-0.402,0.171
					c-0.092,0-0.176-0.033-0.25-0.099c-0.055-0.05-0.082-0.117-0.082-0.202c0-0.075,0.025-0.138,0.074-0.188
					c0.051-0.05,0.111-0.075,0.186-0.075c0.072,0,0.15,0.037,0.232,0.109c0.059,0.052,0.104,0.079,0.137,0.079
					c0.027,0,0.063-0.018,0.105-0.055c0.107-0.086,0.254-0.273,0.438-0.561c0.186-0.287,0.305-0.495,0.363-0.622
					c-0.143-0.554-0.219-0.847-0.23-0.878c-0.053-0.148-0.121-0.253-0.205-0.314s-0.207-0.092-0.371-0.092
					c-0.053,0-0.113,0.002-0.182,0.007v-0.123L68.513,27.054z"/>
			</g>
			<g>
				<path d="M97.845,12.699c-0.236,0.285-0.477,0.494-0.717,0.627c-0.242,0.134-0.498,0.2-0.766,0.2
					c-0.324,0-0.576-0.091-0.758-0.273s-0.271-0.427-0.271-0.735c0-0.349,0.098-0.691,0.291-1.029
					c0.195-0.337,0.457-0.611,0.787-0.822c0.328-0.21,0.652-0.316,0.969-0.316c0.248,0,0.434,0.052,0.557,0.156
					c0.123,0.104,0.186,0.23,0.186,0.381c0,0.141-0.043,0.262-0.131,0.362c-0.063,0.078-0.143,0.116-0.234,0.116
					c-0.072,0-0.131-0.023-0.178-0.068s-0.068-0.103-0.068-0.171c0-0.043,0.008-0.083,0.025-0.12
					c0.016-0.037,0.051-0.081,0.105-0.131c0.053-0.052,0.086-0.088,0.098-0.111s0.018-0.047,0.018-0.072
					c0-0.048-0.023-0.088-0.066-0.12c-0.066-0.045-0.158-0.068-0.279-0.068c-0.225,0-0.445,0.079-0.664,0.236
					s-0.404,0.38-0.561,0.67c-0.186,0.351-0.279,0.702-0.279,1.053c0,0.232,0.066,0.417,0.197,0.552
					c0.133,0.135,0.313,0.203,0.541,0.203c0.176,0,0.35-0.044,0.521-0.132c0.172-0.087,0.365-0.247,0.578-0.477L97.845,12.699z"/>
				<path d="M99.81,10.351l-0.678,2.396c-0.045,0.162-0.068,0.259-0.068,0.291c0,0.037,0.012,0.066,0.033,0.089
					s0.047,0.034,0.076,0.034c0.035,0,0.076-0.018,0.123-0.055c0.131-0.103,0.262-0.249,0.393-0.438l0.121,0.079
					c-0.156,0.237-0.338,0.437-0.547,0.598c-0.156,0.121-0.305,0.181-0.445,0.181c-0.094,0-0.17-0.028-0.229-0.084
					c-0.061-0.056-0.09-0.125-0.09-0.21s0.029-0.225,0.086-0.42l0.445-1.531c0.072-0.25,0.109-0.408,0.109-0.472
					c0-0.05-0.02-0.091-0.055-0.123s-0.082-0.048-0.145-0.048c-0.051,0-0.154,0.013-0.311,0.038v-0.133L99.81,10.351z M99.765,8.994
					c0.096,0,0.176,0.033,0.242,0.099s0.1,0.147,0.1,0.243c0,0.093-0.033,0.174-0.102,0.241c-0.066,0.067-0.146,0.101-0.24,0.101
					s-0.174-0.034-0.242-0.101c-0.066-0.067-0.1-0.148-0.1-0.241c0-0.096,0.033-0.177,0.1-0.243
					C99.587,9.027,99.669,8.994,99.765,8.994z"/>
			</g>
			<g>
				<path d="M93.442,27.054l-0.445,1.542c0.199-0.362,0.367-0.635,0.506-0.817c0.217-0.283,0.428-0.488,0.633-0.615
					c0.121-0.073,0.248-0.109,0.379-0.109c0.115,0,0.209,0.037,0.285,0.109c0.074,0.073,0.111,0.167,0.111,0.28
					c0,0.112-0.025,0.257-0.078,0.438l-0.242,0.868c0.371-0.695,0.723-1.183,1.057-1.463c0.184-0.155,0.365-0.232,0.547-0.232
					c0.104,0,0.189,0.036,0.258,0.108c0.066,0.071,0.1,0.183,0.1,0.333c0,0.132-0.02,0.272-0.061,0.42l-0.377,1.33
					c-0.082,0.29-0.123,0.45-0.123,0.482s0.012,0.059,0.031,0.082c0.014,0.016,0.031,0.024,0.055,0.024s0.063-0.021,0.119-0.065
					c0.131-0.1,0.252-0.232,0.367-0.396l0.111,0.072c-0.057,0.091-0.158,0.216-0.303,0.376s-0.268,0.268-0.369,0.325
					c-0.104,0.057-0.197,0.085-0.285,0.085c-0.08,0-0.146-0.027-0.199-0.082c-0.055-0.055-0.08-0.122-0.08-0.202
					c0-0.109,0.047-0.329,0.141-0.66l0.311-1.097c0.07-0.253,0.107-0.393,0.113-0.42c0.006-0.043,0.01-0.085,0.01-0.126
					c0-0.057-0.014-0.102-0.037-0.133c-0.027-0.032-0.059-0.048-0.094-0.048c-0.096,0-0.197,0.049-0.303,0.147
					c-0.314,0.29-0.609,0.695-0.883,1.217c-0.18,0.344-0.348,0.785-0.506,1.323h-0.516l0.584-2.068
					c0.064-0.223,0.096-0.373,0.096-0.448c0-0.062-0.012-0.107-0.037-0.137s-0.057-0.044-0.092-0.044
					c-0.076,0-0.156,0.027-0.24,0.082c-0.137,0.089-0.313,0.279-0.527,0.571c-0.217,0.292-0.383,0.571-0.502,0.837
					c-0.057,0.125-0.191,0.527-0.406,1.207h-0.506l0.633-2.215l0.082-0.287c0.016-0.043,0.023-0.075,0.023-0.096
					c0-0.05-0.023-0.095-0.068-0.135c-0.045-0.04-0.104-0.06-0.174-0.06c-0.029,0-0.111,0.014-0.246,0.041l-0.031-0.126
					L93.442,27.054z"/>
				<path d="M100.243,27.054l-0.666,2.317l-0.076,0.311c-0.006,0.03-0.01,0.055-0.01,0.075c0,0.037,0.012,0.068,0.035,0.096
					c0.018,0.021,0.041,0.031,0.068,0.031c0.029,0,0.068-0.018,0.115-0.055c0.09-0.066,0.207-0.203,0.355-0.41l0.117,0.082
					c-0.158,0.237-0.32,0.417-0.486,0.542c-0.166,0.125-0.32,0.187-0.461,0.187c-0.098,0-0.172-0.024-0.221-0.073
					c-0.049-0.049-0.074-0.121-0.074-0.214c0-0.112,0.025-0.259,0.076-0.441l0.072-0.256c-0.299,0.39-0.574,0.662-0.824,0.817
					c-0.18,0.112-0.357,0.167-0.529,0.167c-0.168,0-0.311-0.069-0.432-0.207c-0.121-0.138-0.182-0.327-0.182-0.569
					c0-0.362,0.109-0.745,0.326-1.147c0.219-0.402,0.494-0.724,0.83-0.965c0.262-0.191,0.51-0.287,0.742-0.287
					c0.139,0,0.254,0.037,0.346,0.109s0.162,0.194,0.211,0.362l0.123-0.39L100.243,27.054z M99.026,27.232
					c-0.146,0-0.301,0.068-0.465,0.205c-0.232,0.194-0.439,0.481-0.621,0.861c-0.18,0.38-0.271,0.725-0.271,1.032
					c0,0.155,0.039,0.277,0.117,0.368c0.076,0.09,0.166,0.135,0.266,0.135c0.248,0,0.52-0.184,0.811-0.55
					c0.391-0.488,0.584-0.988,0.584-1.5c0-0.194-0.037-0.334-0.111-0.42C99.259,27.275,99.157,27.232,99.026,27.232z"/>
			</g>
			<g>
				<path d="M101.667,27.054c0.111,0.119,0.195,0.237,0.254,0.355c0.041,0.082,0.107,0.297,0.201,0.646l0.301-0.451
					c0.08-0.109,0.176-0.214,0.291-0.313c0.113-0.1,0.213-0.167,0.301-0.204c0.055-0.023,0.113-0.034,0.18-0.034
					c0.098,0,0.176,0.026,0.234,0.079s0.088,0.116,0.088,0.191c0,0.086-0.018,0.146-0.051,0.178
					c-0.064,0.057-0.137,0.085-0.219,0.085c-0.049,0-0.1-0.01-0.154-0.031c-0.107-0.037-0.18-0.055-0.215-0.055
					c-0.055,0-0.121,0.032-0.195,0.096c-0.143,0.119-0.311,0.348-0.506,0.687l0.279,1.176c0.043,0.18,0.08,0.288,0.109,0.323
					c0.029,0.036,0.061,0.053,0.09,0.053c0.047,0,0.104-0.026,0.168-0.079c0.125-0.105,0.232-0.242,0.32-0.41l0.119,0.062
					c-0.143,0.269-0.326,0.492-0.547,0.67c-0.125,0.1-0.23,0.15-0.316,0.15c-0.129,0-0.23-0.072-0.305-0.215
					c-0.049-0.089-0.146-0.472-0.297-1.148c-0.355,0.618-0.641,1.015-0.855,1.193c-0.139,0.114-0.273,0.171-0.402,0.171
					c-0.092,0-0.176-0.033-0.25-0.099c-0.055-0.05-0.082-0.117-0.082-0.202c0-0.075,0.025-0.138,0.074-0.188
					c0.051-0.05,0.111-0.075,0.186-0.075c0.072,0,0.15,0.037,0.232,0.109c0.059,0.052,0.104,0.079,0.137,0.079
					c0.027,0,0.063-0.018,0.105-0.055c0.107-0.086,0.254-0.273,0.438-0.561c0.186-0.287,0.305-0.495,0.363-0.622
					c-0.143-0.554-0.219-0.847-0.23-0.878c-0.053-0.148-0.121-0.253-0.205-0.314s-0.207-0.092-0.371-0.092
					c-0.053,0-0.113,0.002-0.182,0.007v-0.123L101.667,27.054z"/>
			</g>
			<g>
				<path d="M81.751,44.402c-0.236,0.285-0.477,0.494-0.717,0.627c-0.242,0.134-0.498,0.2-0.766,0.2
					c-0.324,0-0.576-0.091-0.758-0.273s-0.271-0.428-0.271-0.734c0-0.35,0.098-0.692,0.291-1.029
					c0.195-0.337,0.457-0.611,0.787-0.822c0.328-0.211,0.652-0.316,0.969-0.316c0.248,0,0.434,0.053,0.557,0.156
					s0.186,0.23,0.186,0.381c0,0.142-0.043,0.262-0.131,0.362c-0.063,0.077-0.143,0.116-0.234,0.116
					c-0.072,0-0.131-0.022-0.178-0.068s-0.068-0.103-0.068-0.171c0-0.043,0.008-0.083,0.025-0.12
					c0.016-0.036,0.051-0.08,0.105-0.131c0.053-0.052,0.086-0.089,0.098-0.111s0.018-0.047,0.018-0.072
					c0-0.047-0.023-0.087-0.066-0.119c-0.066-0.046-0.158-0.068-0.279-0.068c-0.225,0-0.445,0.078-0.664,0.236
					c-0.219,0.156-0.404,0.38-0.561,0.67c-0.186,0.351-0.279,0.701-0.279,1.053c0,0.232,0.066,0.416,0.197,0.552
					c0.133,0.136,0.313,0.203,0.541,0.203c0.176,0,0.35-0.044,0.521-0.132s0.365-0.246,0.578-0.477L81.751,44.402z"/>
				<path d="M83.716,42.054l-0.678,2.396c-0.045,0.162-0.068,0.259-0.068,0.291c0,0.036,0.012,0.065,0.033,0.088
					c0.021,0.023,0.047,0.035,0.076,0.035c0.035,0,0.076-0.019,0.123-0.055c0.131-0.104,0.262-0.249,0.393-0.438l0.121,0.078
					c-0.156,0.237-0.338,0.437-0.547,0.598c-0.156,0.121-0.305,0.182-0.445,0.182c-0.094,0-0.17-0.028-0.229-0.084
					c-0.061-0.056-0.09-0.126-0.09-0.21s0.029-0.225,0.086-0.421l0.445-1.531c0.072-0.25,0.109-0.407,0.109-0.471
					c0-0.051-0.02-0.092-0.055-0.123c-0.035-0.032-0.082-0.049-0.145-0.049c-0.051,0-0.154,0.013-0.311,0.038v-0.134L83.716,42.054z
					 M83.671,40.697c0.096,0,0.176,0.033,0.242,0.099c0.066,0.066,0.1,0.147,0.1,0.243c0,0.094-0.033,0.174-0.102,0.241
					c-0.066,0.067-0.146,0.101-0.24,0.101s-0.174-0.033-0.242-0.101c-0.066-0.067-0.1-0.147-0.1-0.241
					c0-0.096,0.033-0.177,0.1-0.243C83.493,40.73,83.575,40.697,83.671,40.697z"/>
			</g>
			<g>
				<path d="M77.349,58.735l-0.445,1.542c0.199-0.362,0.367-0.635,0.506-0.817c0.217-0.282,0.428-0.487,0.633-0.615
					c0.121-0.072,0.248-0.109,0.379-0.109c0.115,0,0.209,0.037,0.285,0.109c0.074,0.073,0.111,0.167,0.111,0.281
					c0,0.111-0.025,0.257-0.078,0.438l-0.242,0.867c0.371-0.694,0.723-1.182,1.057-1.463c0.184-0.154,0.365-0.232,0.547-0.232
					c0.104,0,0.189,0.036,0.258,0.108c0.066,0.071,0.1,0.183,0.1,0.333c0,0.132-0.02,0.272-0.061,0.42l-0.377,1.33
					c-0.082,0.289-0.123,0.45-0.123,0.482c0,0.031,0.012,0.059,0.031,0.082c0.014,0.016,0.031,0.023,0.055,0.023
					s0.063-0.021,0.119-0.064c0.131-0.101,0.252-0.232,0.367-0.396l0.111,0.071c-0.057,0.091-0.158,0.217-0.303,0.376
					s-0.268,0.268-0.369,0.324c-0.104,0.058-0.197,0.086-0.285,0.086c-0.08,0-0.146-0.027-0.199-0.082
					c-0.055-0.055-0.08-0.122-0.08-0.201c0-0.109,0.047-0.33,0.141-0.66l0.311-1.098c0.07-0.252,0.107-0.393,0.113-0.42
					c0.006-0.043,0.01-0.086,0.01-0.127c0-0.057-0.014-0.101-0.037-0.133c-0.027-0.032-0.059-0.048-0.094-0.048
					c-0.096,0-0.197,0.049-0.303,0.147c-0.314,0.289-0.609,0.694-0.883,1.217c-0.18,0.344-0.348,0.784-0.506,1.322h-0.516
					l0.584-2.068c0.064-0.223,0.096-0.372,0.096-0.447c0-0.062-0.012-0.107-0.037-0.137s-0.057-0.045-0.092-0.045
					c-0.076,0-0.156,0.027-0.24,0.082c-0.137,0.09-0.313,0.279-0.527,0.571c-0.217,0.292-0.383,0.571-0.502,0.837
					c-0.057,0.126-0.191,0.528-0.406,1.207H75.95l0.633-2.215l0.082-0.287c0.016-0.043,0.023-0.075,0.023-0.096
					c0-0.05-0.023-0.095-0.068-0.135s-0.104-0.061-0.174-0.061c-0.029,0-0.111,0.014-0.246,0.041l-0.031-0.126L77.349,58.735z"/>
				<path d="M84.149,58.735l-0.666,2.318l-0.076,0.311c-0.006,0.029-0.01,0.055-0.01,0.075c0,0.036,0.012,0.068,0.035,0.096
					c0.018,0.021,0.041,0.03,0.068,0.03c0.029,0,0.068-0.018,0.115-0.055c0.09-0.065,0.207-0.202,0.355-0.41l0.117,0.082
					c-0.158,0.237-0.32,0.418-0.486,0.542s-0.32,0.187-0.461,0.187c-0.098,0-0.172-0.024-0.221-0.073s-0.074-0.12-0.074-0.214
					c0-0.111,0.025-0.259,0.076-0.441l0.072-0.256c-0.299,0.39-0.574,0.662-0.824,0.816c-0.18,0.112-0.357,0.168-0.529,0.168
					c-0.168,0-0.311-0.069-0.432-0.207s-0.182-0.327-0.182-0.568c0-0.363,0.109-0.745,0.326-1.147
					c0.219-0.402,0.494-0.724,0.83-0.966c0.262-0.191,0.51-0.287,0.742-0.287c0.139,0,0.254,0.037,0.346,0.109
					c0.092,0.073,0.162,0.194,0.211,0.363l0.123-0.391L84.149,58.735z M82.933,58.913c-0.146,0-0.301,0.068-0.465,0.205
					c-0.232,0.194-0.439,0.481-0.621,0.861c-0.18,0.381-0.271,0.725-0.271,1.033c0,0.154,0.039,0.277,0.117,0.367
					c0.076,0.09,0.166,0.135,0.266,0.135c0.248,0,0.52-0.184,0.811-0.551c0.391-0.487,0.584-0.987,0.584-1.5
					c0-0.193-0.037-0.334-0.111-0.42C83.165,58.957,83.063,58.913,82.933,58.913z"/>
			</g>
			<g>
				<path d="M85.573,58.735c0.111,0.119,0.195,0.237,0.254,0.355c0.041,0.082,0.107,0.298,0.201,0.646l0.301-0.451
					c0.08-0.109,0.176-0.214,0.291-0.313c0.113-0.1,0.213-0.167,0.301-0.203c0.055-0.023,0.113-0.035,0.18-0.035
					c0.098,0,0.176,0.026,0.234,0.079s0.088,0.116,0.088,0.191c0,0.087-0.018,0.146-0.051,0.178
					c-0.064,0.057-0.137,0.085-0.219,0.085c-0.049,0-0.1-0.01-0.154-0.03c-0.107-0.036-0.18-0.055-0.215-0.055
					c-0.055,0-0.121,0.032-0.195,0.096c-0.143,0.118-0.311,0.348-0.506,0.687l0.279,1.176c0.043,0.181,0.08,0.288,0.109,0.323
					s0.061,0.054,0.09,0.054c0.047,0,0.104-0.026,0.168-0.079c0.125-0.104,0.232-0.241,0.32-0.41l0.119,0.062
					c-0.143,0.269-0.326,0.492-0.547,0.67c-0.125,0.101-0.23,0.15-0.316,0.15c-0.129,0-0.23-0.072-0.305-0.215
					c-0.049-0.09-0.146-0.473-0.297-1.148c-0.355,0.617-0.641,1.015-0.855,1.192c-0.139,0.114-0.273,0.171-0.402,0.171
					c-0.092,0-0.176-0.033-0.25-0.1c-0.055-0.05-0.082-0.117-0.082-0.201c0-0.075,0.025-0.138,0.074-0.188
					c0.051-0.051,0.111-0.076,0.186-0.076c0.072,0,0.15,0.037,0.232,0.109c0.059,0.053,0.104,0.079,0.137,0.079
					c0.027,0,0.063-0.019,0.105-0.055c0.107-0.087,0.254-0.273,0.438-0.561c0.186-0.287,0.305-0.494,0.363-0.622
					c-0.143-0.554-0.219-0.847-0.23-0.879c-0.053-0.147-0.121-0.252-0.205-0.314c-0.084-0.061-0.207-0.092-0.371-0.092
					c-0.053,0-0.113,0.002-0.182,0.007v-0.123L85.573,58.735z"/>
			</g>
			<g>
				<path d="M71.056,75.804l-0.209,1.05h-0.125c-0.012-0.306-0.078-0.527-0.195-0.667c-0.119-0.139-0.266-0.208-0.441-0.208
					c-0.141,0-0.254,0.039-0.336,0.116c-0.084,0.077-0.125,0.171-0.125,0.28c0,0.075,0.016,0.147,0.049,0.216
					s0.105,0.164,0.217,0.287c0.297,0.323,0.488,0.566,0.574,0.73c0.088,0.164,0.131,0.319,0.131,0.465
					c0,0.237-0.1,0.447-0.297,0.631s-0.445,0.275-0.746,0.275c-0.164,0-0.354-0.039-0.566-0.116
					c-0.076-0.027-0.135-0.041-0.176-0.041c-0.102,0-0.18,0.053-0.232,0.157h-0.125l0.207-1.107h0.127
					c0.014,0.347,0.086,0.592,0.215,0.734c0.131,0.145,0.309,0.216,0.533,0.216c0.174,0,0.311-0.049,0.412-0.146
					s0.152-0.216,0.152-0.357c0-0.091-0.018-0.175-0.055-0.252c-0.064-0.137-0.197-0.326-0.402-0.568
					c-0.203-0.241-0.334-0.422-0.393-0.543s-0.086-0.241-0.086-0.362c0-0.221,0.08-0.408,0.24-0.561s0.367-0.229,0.621-0.229
					c0.072,0,0.139,0.006,0.197,0.018c0.031,0.007,0.107,0.032,0.225,0.077c0.117,0.044,0.195,0.066,0.234,0.066
					c0.098,0,0.18-0.054,0.246-0.161H71.056z"/>
			</g>
			<g>
				<path d="M45.832,26.375l-0.149,0.75h-0.09c-0.008-0.218-0.055-0.377-0.139-0.476S45.264,26.5,45.139,26.5
					c-0.101,0-0.181,0.028-0.241,0.083c-0.059,0.055-0.089,0.122-0.089,0.2c0,0.054,0.012,0.105,0.035,0.154
					c0.024,0.049,0.076,0.117,0.155,0.205c0.211,0.231,0.348,0.405,0.41,0.522s0.093,0.228,0.093,0.332
					c0,0.169-0.07,0.319-0.211,0.451c-0.141,0.131-0.319,0.196-0.534,0.196c-0.117,0-0.252-0.028-0.405-0.083
					c-0.054-0.02-0.095-0.029-0.125-0.029c-0.073,0-0.128,0.038-0.166,0.112h-0.09l0.149-0.791h0.09
					c0.01,0.248,0.061,0.422,0.154,0.525s0.22,0.154,0.381,0.154c0.124,0,0.222-0.035,0.294-0.104
					c0.073-0.069,0.109-0.154,0.109-0.255c0-0.065-0.013-0.125-0.039-0.181c-0.045-0.098-0.141-0.233-0.287-0.405
					c-0.146-0.172-0.239-0.302-0.281-0.388c-0.041-0.086-0.062-0.172-0.062-0.259c0-0.158,0.057-0.292,0.172-0.4
					c0.114-0.109,0.262-0.164,0.443-0.164c0.052,0,0.099,0.004,0.142,0.012c0.023,0.005,0.076,0.023,0.16,0.055
					c0.084,0.032,0.14,0.048,0.167,0.048c0.07,0,0.128-0.038,0.176-0.115H45.832z"/>
			</g>
			<path d="M14.794,62.549h6.153v-0.563h-6.153V62.549z M14.794,64.744h6.153V64.18h-6.153V64.744z"/>
			<polygon points="77.796,14.514 75.013,14.514 75.013,15.078 77.796,15.078 77.796,17.86 78.36,17.86 78.36,15.078 81.142,15.078 
				81.142,14.514 78.36,14.514 78.36,11.731 77.796,11.731 			"/>
			<path d="M41.048,37.598h3.593v-0.329h-3.593V37.598z M41.048,38.88h3.593v-0.329h-3.593V38.88z"/>
			<path d="M37.355,35.756l-0.342-0.054c-0.144,0.594-0.324,1.044-0.541,1.333c-0.234,0.288-0.504,0.486-0.846,0.594
				c-0.486,0.162-0.936,0.234-1.35,0.234h-7.202l5.545-6.824l-4.969-6.068h6.536c0.648,0,1.152,0.18,1.495,0.522
				c0.36,0.342,0.594,0.918,0.684,1.729h0.36l-0.234-2.953H25.238v0.324l5.906,7.202l-5.906,7.292v0.324h11.56L37.355,35.756z"/>
			<g>
				<path d="M45.211,35.67l1.128-0.55h0.113v3.914c0,0.26,0.011,0.421,0.033,0.485c0.021,0.064,0.066,0.113,0.135,0.147
					s0.208,0.054,0.417,0.058v0.126h-1.743v-0.126c0.219-0.004,0.36-0.023,0.424-0.056c0.064-0.033,0.108-0.078,0.133-0.134
					c0.025-0.056,0.038-0.223,0.038-0.5v-2.502c0-0.337-0.011-0.554-0.034-0.649c-0.016-0.073-0.045-0.126-0.087-0.161
					c-0.042-0.034-0.093-0.051-0.152-0.051c-0.084,0-0.202,0.035-0.352,0.106L45.211,35.67z"/>
			</g>
		</g>
	</g>
</g>
</svg>
