<?xml version="1.0" encoding="utf-8"?>
<!-- Generator: Adobe Illustrator 14.0.0, SVG Export Plug-In . SVG Version: 6.00 Build 43363)  -->
<!DOCTYPE svg PUBLIC "-//W3C//DTD SVG 1.1//EN" "http://www.w3.org/Graphics/SVG/1.1/DTD/svg11.dtd">
<svg version="1.1" xmlns="http://www.w3.org/2000/svg" xmlns:xlink="http://www.w3.org/1999/xlink" x="0px" y="0px"
	 width="171.326px" height="14.498px" viewBox="0 0 171.326 14.498" style="enable-background:new 0 0 171.326 14.498;"
	 xml:space="preserve">
<g id="Layer_1">
</g>
<g id="Layer_2">
	<g id="theGroup">
		<g>
			<line style="fill:none;stroke:#000000;stroke-width:0.5;stroke-miterlimit:10;" x1="0.57" y1="0.32" x2="0.57" y2="11.695"/>
			<polygon points="9.882,0.32 12.195,6.007 12.695,6.007 10.382,0.32 			"/>
			<polygon points="12.195,6.007 9.882,11.695 10.382,11.695 12.695,6.007 			"/>
			<line style="fill:none;stroke:#000000;stroke-width:0.5;stroke-miterlimit:10;" x1="15.195" y1="0.32" x2="15.195" y2="11.695"/>
			<polygon points="23.945,0.32 26.257,6.007 26.757,6.007 24.445,0.32 			"/>
			<polygon points="26.257,6.007 23.945,11.695 24.445,11.695 26.757,6.007 			"/>
			<line style="fill:none;stroke:#000000;stroke-width:0.5;stroke-miterlimit:10;" x1="39.757" y1="0.32" x2="39.757" y2="11.695"/>
			<polygon points="49.07,0.32 51.382,6.007 51.882,6.007 49.57,0.32 			"/>
			<polygon points="51.382,6.007 49.07,11.695 49.57,11.695 51.882,6.007 			"/>
			<line style="fill:none;stroke:#000000;stroke-width:0.5;stroke-miterlimit:10;" x1="65.632" y1="0.32" x2="65.632" y2="11.695"/>
			<polygon points="74.382,0.32 76.695,6.007 77.195,6.007 74.882,0.32 			"/>
			<polygon points="76.695,6.007 74.382,11.695 74.882,11.695 77.195,6.007 			"/>
			<g>
				<path d="M8.763,5.195L7.621,9.167L7.492,9.701C7.48,9.751,7.474,9.794,7.474,9.83c0,0.063,0.02,0.117,0.059,0.164
					c0.031,0.035,0.07,0.053,0.117,0.053c0.051,0,0.117-0.031,0.199-0.094C8.001,9.839,8.205,9.605,8.458,9.25L8.658,9.39
					c-0.27,0.406-0.547,0.716-0.832,0.929s-0.549,0.319-0.791,0.319c-0.168,0-0.294-0.042-0.378-0.126s-0.126-0.206-0.126-0.366
					c0-0.191,0.043-0.443,0.129-0.756l0.123-0.439c-0.512,0.668-0.982,1.135-1.412,1.4c-0.309,0.191-0.611,0.287-0.908,0.287
					c-0.285,0-0.531-0.118-0.738-0.354S3.414,9.722,3.414,9.308c0-0.621,0.187-1.276,0.56-1.966S4.82,6.101,5.394,5.687
					c0.449-0.328,0.873-0.492,1.271-0.492c0.238,0,0.437,0.063,0.595,0.188s0.278,0.332,0.36,0.621l0.211-0.668L8.763,5.195z
					 M6.677,5.5c-0.25,0-0.516,0.117-0.797,0.352C5.482,6.183,5.127,6.675,4.817,7.328S4.351,8.57,4.351,9.097
					c0,0.266,0.066,0.476,0.199,0.63s0.285,0.231,0.457,0.231c0.426,0,0.889-0.314,1.389-0.943c0.668-0.836,1.002-1.693,1.002-2.572
					c0-0.332-0.064-0.572-0.193-0.721S6.9,5.5,6.677,5.5z"/>
				<path d="M20.851,2.166l-1.154,4.049c0.375-0.391,0.702-0.658,0.981-0.803s0.571-0.217,0.876-0.217
					c0.43,0,0.781,0.143,1.055,0.428s0.41,0.672,0.41,1.16c0,0.629-0.18,1.255-0.539,1.878s-0.811,1.108-1.354,1.456
					s-1.078,0.521-1.605,0.521c-0.59,0-1.195-0.221-1.816-0.662l1.781-6.135c0.137-0.473,0.205-0.75,0.205-0.832
					c0-0.102-0.031-0.178-0.094-0.229c-0.09-0.07-0.223-0.105-0.398-0.105c-0.082,0-0.207,0.014-0.375,0.041V2.494L20.851,2.166z
					 M18.583,10.041c0.391,0.215,0.734,0.322,1.031,0.322c0.344,0,0.7-0.126,1.069-0.378s0.689-0.677,0.961-1.274
					s0.407-1.201,0.407-1.811c0-0.359-0.089-0.641-0.267-0.844s-0.388-0.305-0.63-0.305c-0.363,0-0.719,0.146-1.066,0.437
					s-0.596,0.696-0.744,1.216L18.583,10.041z"/>
			</g>
			<g>
				<path d="M47.951,5.195l-1.143,3.973l-0.129,0.533c-0.012,0.051-0.018,0.094-0.018,0.129c0,0.063,0.02,0.117,0.059,0.164
					c0.031,0.035,0.07,0.053,0.117,0.053c0.051,0,0.117-0.031,0.199-0.094c0.152-0.113,0.355-0.348,0.609-0.703l0.199,0.141
					c-0.27,0.406-0.547,0.716-0.832,0.929s-0.549,0.319-0.791,0.319c-0.168,0-0.294-0.042-0.378-0.126s-0.126-0.206-0.126-0.366
					c0-0.191,0.043-0.443,0.129-0.756l0.123-0.439c-0.512,0.668-0.982,1.135-1.412,1.4c-0.309,0.191-0.611,0.287-0.908,0.287
					c-0.285,0-0.531-0.118-0.738-0.354s-0.311-0.562-0.311-0.976c0-0.621,0.187-1.276,0.56-1.966s0.847-1.241,1.421-1.655
					c0.449-0.328,0.873-0.492,1.271-0.492c0.238,0,0.437,0.063,0.595,0.188s0.278,0.332,0.36,0.621l0.211-0.668L47.951,5.195z
					 M45.865,5.5c-0.25,0-0.516,0.117-0.797,0.352c-0.398,0.332-0.753,0.824-1.063,1.477s-0.466,1.242-0.466,1.77
					c0,0.266,0.066,0.476,0.199,0.63s0.285,0.231,0.457,0.231c0.426,0,0.889-0.314,1.389-0.943c0.668-0.836,1.002-1.693,1.002-2.572
					c0-0.332-0.064-0.572-0.193-0.721S46.087,5.5,45.865,5.5z"/>
				<path d="M71.283,2.166l-1.154,4.049c0.375-0.391,0.702-0.658,0.981-0.803s0.571-0.217,0.876-0.217
					c0.43,0,0.781,0.143,1.055,0.428s0.41,0.672,0.41,1.16c0,0.629-0.18,1.255-0.539,1.878s-0.811,1.108-1.354,1.456
					s-1.078,0.521-1.605,0.521c-0.59,0-1.195-0.221-1.816-0.662l1.781-6.135c0.137-0.473,0.205-0.75,0.205-0.832
					c0-0.102-0.031-0.178-0.094-0.229c-0.09-0.07-0.223-0.105-0.398-0.105c-0.082,0-0.207,0.014-0.375,0.041V2.494L71.283,2.166z
					 M69.015,10.041c0.391,0.215,0.734,0.322,1.031,0.322c0.344,0,0.7-0.126,1.069-0.378s0.689-0.677,0.961-1.274
					s0.407-1.201,0.407-1.811c0-0.359-0.089-0.641-0.267-0.844s-0.388-0.305-0.63-0.305c-0.363,0-0.719,0.146-1.066,0.437
					s-0.596,0.696-0.744,1.216L69.015,10.041z"/>
			</g>
			<g>
				<path d="M95.777,5.195c0.191,0.203,0.336,0.406,0.434,0.609c0.07,0.141,0.186,0.51,0.346,1.107l0.516-0.773
					c0.137-0.188,0.303-0.366,0.498-0.536s0.367-0.286,0.516-0.349c0.094-0.039,0.197-0.059,0.311-0.059
					c0.168,0,0.302,0.045,0.401,0.135s0.149,0.199,0.149,0.328c0,0.148-0.029,0.25-0.088,0.305
					c-0.109,0.098-0.234,0.146-0.375,0.146c-0.082,0-0.17-0.018-0.264-0.053c-0.184-0.063-0.307-0.094-0.369-0.094
					c-0.094,0-0.205,0.055-0.334,0.164c-0.242,0.203-0.531,0.596-0.867,1.178l0.48,2.016c0.074,0.309,0.137,0.493,0.188,0.554
					s0.102,0.091,0.152,0.091c0.082,0,0.178-0.045,0.287-0.135c0.215-0.18,0.398-0.414,0.551-0.703l0.205,0.105
					c-0.246,0.461-0.559,0.844-0.938,1.148c-0.215,0.172-0.396,0.258-0.545,0.258c-0.219,0-0.393-0.123-0.521-0.369
					C96.427,10.117,96.257,9.46,96,8.3c-0.609,1.059-1.098,1.74-1.465,2.045c-0.238,0.195-0.469,0.293-0.691,0.293
					c-0.156,0-0.299-0.057-0.428-0.17c-0.094-0.086-0.141-0.201-0.141-0.346c0-0.129,0.043-0.236,0.129-0.322
					s0.191-0.129,0.316-0.129s0.258,0.063,0.398,0.188c0.102,0.09,0.18,0.135,0.234,0.135c0.047,0,0.107-0.031,0.182-0.094
					c0.184-0.148,0.434-0.469,0.75-0.961s0.523-0.848,0.621-1.066c-0.242-0.949-0.373-1.451-0.393-1.506
					c-0.09-0.254-0.207-0.434-0.352-0.539s-0.357-0.158-0.639-0.158c-0.09,0-0.193,0.004-0.311,0.012V5.47L95.777,5.195z"/>
				<path d="M104.587,5.335l-1.02,3.492c-0.152,0.52-0.229,0.848-0.229,0.984c0,0.07,0.013,0.122,0.038,0.155s0.06,0.05,0.103,0.05
					c0.066,0,0.14-0.03,0.22-0.091s0.282-0.302,0.606-0.724l0.176,0.135c-0.309,0.488-0.625,0.848-0.949,1.078
					c-0.215,0.148-0.422,0.223-0.621,0.223c-0.152,0-0.271-0.043-0.357-0.129s-0.129-0.197-0.129-0.334
					c0-0.133,0.025-0.309,0.076-0.527c0.063-0.289,0.24-0.918,0.533-1.887c-0.664,1.09-1.22,1.842-1.667,2.256
					s-0.862,0.621-1.245,0.621c-0.18,0-0.332-0.063-0.457-0.188s-0.188-0.283-0.188-0.475c0-0.293,0.086-0.742,0.258-1.348
					l0.51-1.811c0.125-0.434,0.188-0.703,0.188-0.809c0-0.047-0.017-0.087-0.05-0.12s-0.069-0.05-0.108-0.05
					c-0.082,0-0.164,0.029-0.246,0.088s-0.268,0.275-0.557,0.65l-0.182-0.129c0.293-0.453,0.604-0.787,0.932-1.002
					c0.25-0.168,0.48-0.252,0.691-0.252c0.145,0,0.263,0.046,0.354,0.138s0.138,0.21,0.138,0.354c0,0.211-0.078,0.588-0.234,1.131
					l-0.551,1.893c-0.152,0.516-0.229,0.842-0.229,0.979c0,0.074,0.024,0.134,0.073,0.179s0.114,0.067,0.196,0.067
					c0.129,0,0.297-0.064,0.504-0.193s0.483-0.415,0.829-0.858s0.631-0.859,0.855-1.248s0.464-1.007,0.718-1.854l0.129-0.445
					H104.587z"/>
			</g>
			<g>
				<path d="M112.462,5.195c0.191,0.203,0.336,0.406,0.434,0.609c0.07,0.141,0.186,0.51,0.346,1.107l0.516-0.773
					c0.137-0.188,0.303-0.366,0.498-0.536s0.367-0.286,0.516-0.349c0.094-0.039,0.197-0.059,0.311-0.059
					c0.168,0,0.302,0.045,0.401,0.135s0.149,0.199,0.149,0.328c0,0.148-0.029,0.25-0.088,0.305
					c-0.109,0.098-0.234,0.146-0.375,0.146c-0.082,0-0.17-0.018-0.264-0.053c-0.184-0.063-0.307-0.094-0.369-0.094
					c-0.094,0-0.205,0.055-0.334,0.164c-0.242,0.203-0.531,0.596-0.867,1.178l0.48,2.016c0.074,0.309,0.137,0.493,0.188,0.554
					s0.102,0.091,0.152,0.091c0.082,0,0.178-0.045,0.287-0.135c0.215-0.18,0.398-0.414,0.551-0.703l0.205,0.105
					c-0.246,0.461-0.559,0.844-0.938,1.148c-0.215,0.172-0.396,0.258-0.545,0.258c-0.219,0-0.393-0.123-0.521-0.369
					c-0.082-0.152-0.252-0.809-0.51-1.969c-0.609,1.059-1.098,1.74-1.465,2.045c-0.238,0.195-0.469,0.293-0.691,0.293
					c-0.156,0-0.299-0.057-0.428-0.17c-0.094-0.086-0.141-0.201-0.141-0.346c0-0.129,0.043-0.236,0.129-0.322
					s0.191-0.129,0.316-0.129s0.258,0.063,0.398,0.188c0.102,0.09,0.18,0.135,0.234,0.135c0.047,0,0.107-0.031,0.182-0.094
					c0.184-0.148,0.434-0.469,0.75-0.961s0.523-0.848,0.621-1.066c-0.242-0.949-0.373-1.451-0.393-1.506
					c-0.09-0.254-0.207-0.434-0.352-0.539s-0.357-0.158-0.639-0.158c-0.09,0-0.193,0.004-0.311,0.012V5.47L112.462,5.195z"/>
				<path d="M115.882,5.558l1.693-0.363c0.121,0.289,0.219,0.584,0.293,0.885c0.105,0.441,0.191,0.965,0.258,1.57
					c0.031,0.305,0.074,0.949,0.129,1.934c0.488-0.539,0.779-0.873,0.873-1.002c0.516-0.699,0.813-1.109,0.891-1.23
					c0.129-0.207,0.219-0.389,0.27-0.545c0.043-0.117,0.064-0.229,0.064-0.334c0-0.102-0.091-0.219-0.272-0.352
					s-0.272-0.281-0.272-0.445c0-0.125,0.05-0.236,0.149-0.334s0.218-0.146,0.354-0.146c0.164,0,0.309,0.067,0.434,0.202
					s0.188,0.302,0.188,0.501s-0.031,0.391-0.094,0.574c-0.102,0.297-0.291,0.659-0.568,1.087s-0.725,1.001-1.342,1.72
					c-0.078,0.09-0.512,0.543-1.301,1.359h-0.217c-0.094-2.473-0.289-4.016-0.586-4.629c-0.098-0.199-0.26-0.299-0.486-0.299
					c-0.098,0-0.236,0.018-0.416,0.053L115.882,5.558z"/>
			</g>
			<g>
				<path d="M132.361,5.195c0.133,0.227,0.225,0.438,0.275,0.636s0.102,0.585,0.152,1.163l0.258,2.883
					c0.234-0.281,0.574-0.727,1.02-1.336c0.215-0.297,0.48-0.701,0.797-1.213c0.191-0.313,0.309-0.531,0.352-0.656
					c0.023-0.063,0.035-0.127,0.035-0.193c0-0.043-0.014-0.078-0.041-0.105s-0.099-0.06-0.214-0.097s-0.211-0.105-0.287-0.205
					s-0.114-0.214-0.114-0.343c0-0.16,0.047-0.289,0.141-0.387s0.211-0.146,0.352-0.146c0.172,0,0.318,0.071,0.439,0.214
					s0.182,0.339,0.182,0.589c0,0.309-0.105,0.661-0.316,1.058s-0.617,1.005-1.219,1.825s-1.33,1.715-2.186,2.684
					c-0.59,0.668-1.027,1.089-1.313,1.263s-0.529,0.261-0.732,0.261c-0.121,0-0.228-0.046-0.319-0.138s-0.138-0.198-0.138-0.319
					c0-0.152,0.063-0.291,0.19-0.416s0.265-0.188,0.413-0.188c0.078,0,0.143,0.018,0.193,0.053c0.031,0.02,0.065,0.075,0.103,0.167
					s0.071,0.153,0.103,0.185c0.02,0.02,0.043,0.029,0.07,0.029c0.023,0,0.064-0.02,0.123-0.059c0.215-0.133,0.465-0.344,0.75-0.633
					c0.375-0.383,0.652-0.695,0.832-0.938l-0.328-3.715c-0.055-0.613-0.137-0.986-0.246-1.119s-0.293-0.199-0.551-0.199
					c-0.082,0-0.229,0.012-0.439,0.035l-0.053-0.217L132.361,5.195z"/>
				<path d="M141.335,5.335l-1.02,3.492c-0.152,0.52-0.229,0.848-0.229,0.984c0,0.07,0.013,0.122,0.038,0.155s0.06,0.05,0.103,0.05
					c0.066,0,0.14-0.03,0.22-0.091s0.282-0.302,0.606-0.724l0.176,0.135c-0.309,0.488-0.625,0.848-0.949,1.078
					c-0.215,0.148-0.422,0.223-0.621,0.223c-0.152,0-0.271-0.043-0.357-0.129s-0.129-0.197-0.129-0.334
					c0-0.133,0.025-0.309,0.076-0.527c0.063-0.289,0.24-0.918,0.533-1.887c-0.664,1.09-1.22,1.842-1.667,2.256
					s-0.862,0.621-1.245,0.621c-0.18,0-0.332-0.063-0.457-0.188s-0.188-0.283-0.188-0.475c0-0.293,0.086-0.742,0.258-1.348
					l0.51-1.811c0.125-0.434,0.188-0.703,0.188-0.809c0-0.047-0.017-0.087-0.05-0.12s-0.069-0.05-0.108-0.05
					c-0.082,0-0.164,0.029-0.246,0.088s-0.268,0.275-0.557,0.65l-0.182-0.129c0.293-0.453,0.604-0.787,0.932-1.002
					c0.25-0.168,0.48-0.252,0.691-0.252c0.145,0,0.263,0.046,0.354,0.138s0.138,0.21,0.138,0.354c0,0.211-0.078,0.588-0.234,1.131
					l-0.551,1.893c-0.152,0.516-0.229,0.842-0.229,0.979c0,0.074,0.024,0.134,0.073,0.179s0.114,0.067,0.196,0.067
					c0.129,0,0.297-0.064,0.504-0.193s0.483-0.415,0.829-0.858s0.631-0.859,0.855-1.248s0.464-1.007,0.718-1.854l0.129-0.445
					H141.335z"/>
			</g>
			<g>
				<path d="M149.613,5.195c0.133,0.227,0.225,0.438,0.275,0.636s0.102,0.585,0.152,1.163l0.258,2.883
					c0.234-0.281,0.574-0.727,1.02-1.336c0.215-0.297,0.48-0.701,0.797-1.213c0.191-0.313,0.309-0.531,0.352-0.656
					c0.023-0.063,0.035-0.127,0.035-0.193c0-0.043-0.014-0.078-0.041-0.105s-0.099-0.06-0.214-0.097s-0.211-0.105-0.287-0.205
					s-0.114-0.214-0.114-0.343c0-0.16,0.047-0.289,0.141-0.387s0.211-0.146,0.352-0.146c0.172,0,0.318,0.071,0.439,0.214
					s0.182,0.339,0.182,0.589c0,0.309-0.105,0.661-0.316,1.058s-0.617,1.005-1.219,1.825s-1.33,1.715-2.186,2.684
					c-0.59,0.668-1.027,1.089-1.313,1.263s-0.529,0.261-0.732,0.261c-0.121,0-0.228-0.046-0.319-0.138s-0.138-0.198-0.138-0.319
					c0-0.152,0.063-0.291,0.19-0.416s0.265-0.188,0.413-0.188c0.078,0,0.143,0.018,0.193,0.053c0.031,0.02,0.065,0.075,0.103,0.167
					s0.071,0.153,0.103,0.185c0.02,0.02,0.043,0.029,0.07,0.029c0.023,0,0.064-0.02,0.123-0.059c0.215-0.133,0.465-0.344,0.75-0.633
					c0.375-0.383,0.652-0.695,0.832-0.938l-0.328-3.715c-0.055-0.613-0.137-0.986-0.246-1.119s-0.293-0.199-0.551-0.199
					c-0.082,0-0.229,0.012-0.439,0.035l-0.053-0.217L149.613,5.195z"/>
				<path d="M153.197,5.558l1.693-0.363c0.121,0.289,0.219,0.584,0.293,0.885c0.105,0.441,0.191,0.965,0.258,1.57
					c0.031,0.305,0.074,0.949,0.129,1.934c0.488-0.539,0.779-0.873,0.873-1.002c0.516-0.699,0.813-1.109,0.891-1.23
					c0.129-0.207,0.219-0.389,0.27-0.545c0.043-0.117,0.064-0.229,0.064-0.334c0-0.102-0.091-0.219-0.272-0.352
					s-0.272-0.281-0.272-0.445c0-0.125,0.05-0.236,0.149-0.334s0.218-0.146,0.354-0.146c0.164,0,0.309,0.067,0.434,0.202
					s0.188,0.302,0.188,0.501s-0.031,0.391-0.094,0.574c-0.102,0.297-0.291,0.659-0.568,1.087s-0.725,1.001-1.342,1.72
					c-0.078,0.09-0.512,0.543-1.301,1.359h-0.217c-0.094-2.473-0.289-4.016-0.586-4.629c-0.098-0.199-0.26-0.299-0.486-0.299
					c-0.098,0-0.236,0.018-0.416,0.053L153.197,5.558z"/>
			</g>
			<path d="M30.161,6.633h6.153V6.07h-6.153V6.633z M30.161,8.829h6.153V8.264h-6.153V8.829z M61.681,3.599
				c-0.804-0.804-1.787-1.211-2.926-1.211c-1.151,0-2.135,0.408-2.951,1.211C55,4.415,54.592,5.386,54.592,6.538
				c0,1.14,0.408,2.123,1.211,2.927c0.816,0.815,1.799,1.223,2.951,1.223c1.139,0,2.123-0.407,2.926-1.223
				c0.815-0.804,1.223-1.787,1.223-2.927C62.904,5.386,62.496,4.415,61.681,3.599L61.681,3.599z M61.285,9.08
				c-0.695,0.696-1.547,1.044-2.542,1.044c-0.983,0-1.835-0.348-2.531-1.044c-0.708-0.695-1.055-1.547-1.055-2.53
				s0.348-1.835,1.055-2.53c0.696-0.696,1.547-1.043,2.531-1.043c0.996,0,1.847,0.348,2.542,1.043
				c0.708,0.695,1.056,1.547,1.056,2.53S61.993,8.384,61.285,9.08L61.285,9.08z M56.355,4.583l1.991,1.967l-2.003,1.979l0.396,0.396
				l2.003-1.979l1.991,1.991l0.396-0.396l-1.991-1.991l2.003-1.979l-0.396-0.396l-2.003,1.979l-1.991-1.967L56.355,4.583z"/>
			<path d="M80.598,6.633h6.152V6.07h-6.152V6.633z M80.598,8.829h6.152V8.264h-6.152V8.829z"/>
			<g>
				<path d="M92.382,12.876h-2.578V2.371h2.578v0.463h-1.699v9.586h1.699V12.876z"/>
				<path d="M105.964,12.496v-0.258c0.402-0.133,0.714-0.339,0.935-0.618s0.331-0.575,0.331-0.888c0-0.074-0.018-0.137-0.053-0.188
					c-0.027-0.035-0.055-0.053-0.082-0.053c-0.043,0-0.137,0.039-0.281,0.117c-0.07,0.035-0.145,0.053-0.223,0.053
					c-0.191,0-0.344-0.057-0.457-0.17s-0.17-0.27-0.17-0.469c0-0.191,0.073-0.355,0.22-0.492s0.325-0.205,0.536-0.205
					c0.258,0,0.487,0.112,0.688,0.337s0.302,0.522,0.302,0.894c0,0.402-0.14,0.776-0.419,1.122S106.57,12.296,105.964,12.496z"/>
			</g>
			<g>
				<path d="M122.195,9.361c0.184,0,0.338,0.063,0.463,0.19s0.188,0.28,0.188,0.46s-0.063,0.333-0.19,0.46s-0.28,0.19-0.46,0.19
					s-0.333-0.063-0.46-0.19s-0.19-0.28-0.19-0.46c0-0.184,0.063-0.338,0.19-0.463S122.015,9.361,122.195,9.361z"/>
				<path d="M125.195,9.361c0.184,0,0.338,0.063,0.463,0.19s0.188,0.28,0.188,0.46s-0.063,0.333-0.19,0.46s-0.28,0.19-0.46,0.19
					s-0.333-0.063-0.46-0.19s-0.19-0.28-0.19-0.46c0-0.184,0.063-0.338,0.19-0.463S125.015,9.361,125.195,9.361z"/>
				<path d="M128.195,9.361c0.184,0,0.338,0.063,0.463,0.19s0.188,0.28,0.188,0.46s-0.063,0.333-0.19,0.46s-0.28,0.19-0.46,0.19
					s-0.333-0.063-0.46-0.19s-0.19-0.28-0.19-0.46c0-0.184,0.063-0.338,0.19-0.463S128.015,9.361,128.195,9.361z"/>
			</g>
			<g>
				<path d="M142.716,12.496v-0.258c0.402-0.133,0.714-0.339,0.935-0.618s0.331-0.575,0.331-0.888c0-0.074-0.018-0.137-0.053-0.188
					c-0.027-0.035-0.055-0.053-0.082-0.053c-0.043,0-0.137,0.039-0.281,0.117c-0.07,0.035-0.145,0.053-0.223,0.053
					c-0.191,0-0.344-0.057-0.457-0.17s-0.17-0.27-0.17-0.469c0-0.191,0.073-0.355,0.22-0.492s0.325-0.205,0.536-0.205
					c0.258,0,0.487,0.112,0.688,0.337s0.302,0.522,0.302,0.894c0,0.402-0.14,0.776-0.419,1.122S143.322,12.296,142.716,12.496z"/>
			</g>
			<g>
				<path d="M159.509,9.361c0.184,0,0.338,0.063,0.463,0.19s0.188,0.28,0.188,0.46s-0.063,0.333-0.19,0.46s-0.28,0.19-0.46,0.19
					s-0.333-0.063-0.46-0.19s-0.19-0.28-0.19-0.46c0-0.184,0.063-0.338,0.19-0.463S159.33,9.361,159.509,9.361z"/>
				<path d="M162.509,9.361c0.184,0,0.338,0.063,0.463,0.19s0.188,0.28,0.188,0.46s-0.063,0.333-0.19,0.46s-0.28,0.19-0.46,0.19
					s-0.333-0.063-0.46-0.19s-0.19-0.28-0.19-0.46c0-0.184,0.063-0.338,0.19-0.463S162.33,9.361,162.509,9.361z"/>
				<path d="M165.509,9.361c0.184,0,0.338,0.063,0.463,0.19s0.188,0.28,0.188,0.46s-0.063,0.333-0.19,0.46s-0.28,0.19-0.46,0.19
					s-0.333-0.063-0.46-0.19s-0.19-0.28-0.19-0.46c0-0.184,0.063-0.338,0.19-0.463S165.33,9.361,165.509,9.361z"/>
				<path d="M167.449,2.371h2.578v10.512h-2.578v-0.463h1.699V2.833h-1.699V2.371z"/>
			</g>
		</g>
	</g>
</g>
</svg>
