<?xml version="1.0" encoding="utf-8"?>
<!-- Generator: Adobe Illustrator 14.0.0, SVG Export Plug-In . SVG Version: 6.00 Build 43363)  -->
<!DOCTYPE svg PUBLIC "-//W3C//DTD SVG 1.1//EN" "http://www.w3.org/Graphics/SVG/1.1/DTD/svg11.dtd">
<svg version="1.1" xmlns="http://www.w3.org/2000/svg" xmlns:xlink="http://www.w3.org/1999/xlink" x="0px" y="0px"
	 width="84.521px" height="24.899px" viewBox="0 0 84.521 24.899" style="enable-background:new 0 0 84.521 24.899;"
	 xml:space="preserve">
<g id="Layer_1">
</g>
<g id="Layer_2">
	<g id="theGroup">
		<g>
			
				<line style="fill:none;stroke:#000000;stroke-width:0.25;stroke-miterlimit:10;" x1="63.683" y1="8.603" x2="74.776" y2="8.603"/>
			<g>
				<path d="M7.163,11.556h2.689l-0.064,0.217c-0.379,0.055-0.71,0.169-0.993,0.343s-0.669,0.521-1.157,1.04l-2.063,2.109
					l0.58,2.127c0.055,0.203,0.156,0.518,0.305,0.943c0.094,0.273,0.188,0.467,0.281,0.58s0.212,0.2,0.354,0.261
					s0.358,0.097,0.647,0.108l-0.064,0.217H4.562l0.064-0.217c0.32-0.012,0.551-0.072,0.691-0.182
					c0.105-0.078,0.158-0.18,0.158-0.305c0-0.109-0.051-0.35-0.152-0.721l-0.557-1.998L2.903,17.96
					c-0.363,0.371-0.58,0.615-0.65,0.732c-0.043,0.07-0.064,0.139-0.064,0.205c0,0.117,0.059,0.213,0.176,0.287
					c0.055,0.031,0.221,0.064,0.498,0.1l-0.059,0.217H0.161l0.064-0.217c0.332-0.031,0.604-0.107,0.814-0.229
					c0.309-0.184,0.734-0.549,1.277-1.096l2.309-2.32l-0.633-2.291c-0.191-0.703-0.358-1.136-0.501-1.298s-0.392-0.255-0.747-0.278
					l0.059-0.217h2.842l-0.07,0.217c-0.262,0-0.438,0.017-0.53,0.05s-0.162,0.084-0.211,0.152s-0.073,0.146-0.073,0.231
					c0,0.094,0.047,0.313,0.141,0.656l0.539,1.957l1.248-1.242c0.492-0.492,0.83-0.889,1.014-1.189c0.066-0.105,0.1-0.199,0.1-0.281
					c0-0.09-0.037-0.16-0.111-0.211c-0.105-0.07-0.303-0.111-0.592-0.123L7.163,11.556z"/>
				<path d="M43.638,14.198c0.191,0.203,0.336,0.406,0.434,0.609c0.07,0.141,0.186,0.51,0.346,1.107l0.516-0.773
					c0.137-0.188,0.303-0.366,0.498-0.536s0.367-0.286,0.516-0.349c0.094-0.039,0.197-0.059,0.311-0.059
					c0.168,0,0.303,0.045,0.402,0.135s0.148,0.199,0.148,0.328c0,0.148-0.029,0.25-0.088,0.305
					c-0.109,0.098-0.234,0.146-0.375,0.146c-0.082,0-0.17-0.018-0.264-0.053c-0.184-0.063-0.307-0.094-0.369-0.094
					c-0.094,0-0.205,0.055-0.334,0.164c-0.242,0.203-0.531,0.596-0.867,1.178l0.48,2.016c0.074,0.309,0.137,0.493,0.188,0.554
					s0.102,0.091,0.152,0.091c0.082,0,0.178-0.045,0.287-0.135c0.215-0.18,0.398-0.414,0.551-0.703l0.205,0.105
					c-0.246,0.461-0.559,0.844-0.938,1.148c-0.215,0.172-0.396,0.258-0.545,0.258c-0.219,0-0.393-0.123-0.521-0.369
					c-0.082-0.152-0.252-0.809-0.51-1.969c-0.609,1.059-1.097,1.74-1.464,2.045c-0.238,0.195-0.469,0.293-0.691,0.293
					c-0.156,0-0.299-0.057-0.428-0.17c-0.094-0.086-0.141-0.201-0.141-0.346c0-0.129,0.043-0.236,0.129-0.322
					s0.191-0.129,0.316-0.129s0.258,0.063,0.398,0.188c0.102,0.09,0.18,0.135,0.234,0.135c0.047,0,0.107-0.031,0.182-0.094
					c0.184-0.148,0.434-0.469,0.75-0.961c0.316-0.492,0.523-0.848,0.621-1.066c-0.242-0.949-0.373-1.451-0.393-1.506
					c-0.09-0.254-0.207-0.434-0.351-0.539s-0.357-0.158-0.639-0.158c-0.09,0-0.193,0.004-0.311,0.012v-0.211L43.638,14.198z"/>
			</g>
			<g>
				<path d="M55.05,17.292c-0.027,0.195-0.041,0.357-0.041,0.486c0,0.348,0.123,0.644,0.369,0.888s0.545,0.366,0.896,0.366
					c0.281,0,0.552-0.058,0.812-0.173s0.646-0.37,1.157-0.765l0.123,0.17c-0.926,0.918-1.809,1.377-2.648,1.377
					c-0.57,0-1-0.18-1.289-0.539s-0.434-0.756-0.434-1.189c0-0.582,0.18-1.178,0.539-1.787s0.811-1.083,1.354-1.421
					s1.102-0.507,1.676-0.507c0.414,0,0.721,0.084,0.92,0.252s0.299,0.367,0.299,0.598c0,0.324-0.129,0.635-0.387,0.932
					c-0.34,0.387-0.84,0.699-1.5,0.938C56.458,17.077,55.843,17.202,55.05,17.292z M55.091,17.005
					c0.578-0.066,1.049-0.18,1.412-0.34c0.48-0.215,0.841-0.472,1.081-0.771s0.36-0.583,0.36-0.853c0-0.164-0.052-0.297-0.155-0.398
					s-0.251-0.152-0.442-0.152c-0.398,0-0.821,0.212-1.269,0.636S55.302,16.177,55.091,17.005z"/>
			</g>
			<g>
				<path d="M11.592,17.732l-0.971,3.36l0.39-0.332c0.426-0.36,0.703-0.627,0.831-0.8c0.041-0.057,0.062-0.101,0.062-0.13
					c0-0.021-0.007-0.04-0.021-0.059c-0.014-0.018-0.041-0.032-0.081-0.044c-0.04-0.012-0.11-0.017-0.21-0.017h-0.12l0.038-0.131
					h1.494l-0.034,0.131c-0.171,0.009-0.318,0.035-0.443,0.08c-0.124,0.044-0.244,0.109-0.36,0.196
					c-0.23,0.171-0.382,0.289-0.455,0.355l-0.294,0.26c0.05,0.164,0.112,0.394,0.185,0.687c0.123,0.488,0.206,0.777,0.25,0.869
					c0.043,0.091,0.088,0.137,0.133,0.137c0.039,0,0.084-0.02,0.137-0.059c0.119-0.087,0.245-0.225,0.379-0.414l0.12,0.086
					c-0.249,0.313-0.438,0.518-0.571,0.617c-0.132,0.099-0.253,0.148-0.362,0.148c-0.096,0-0.17-0.037-0.222-0.113
					c-0.091-0.134-0.243-0.664-0.455-1.589l-0.468,0.407l-0.352,1.213H9.657l1.135-3.9l0.096-0.331
					c0.011-0.057,0.017-0.107,0.017-0.15c0-0.055-0.021-0.101-0.063-0.137c-0.042-0.036-0.104-0.055-0.183-0.055
					c-0.052,0-0.136,0.012-0.25,0.034v-0.119L11.592,17.732z"/>
				<path d="M48.323,19.499l-0.455,1.556c0.427-0.636,0.753-1.054,0.979-1.255c0.227-0.2,0.445-0.301,0.655-0.301
					c0.113,0,0.207,0.038,0.281,0.113s0.111,0.173,0.111,0.294c0,0.137-0.033,0.319-0.1,0.547l-0.416,1.438
					c-0.049,0.167-0.072,0.269-0.072,0.305c0,0.032,0.009,0.059,0.027,0.08s0.037,0.033,0.059,0.033c0.027,0,0.06-0.016,0.099-0.045
					c0.121-0.096,0.253-0.241,0.396-0.438l0.106,0.064c-0.213,0.304-0.413,0.52-0.602,0.65c-0.133,0.088-0.251,0.133-0.355,0.133
					c-0.085,0-0.152-0.025-0.202-0.077c-0.05-0.051-0.075-0.12-0.075-0.206c0-0.109,0.039-0.298,0.116-0.564l0.396-1.374
					c0.05-0.171,0.075-0.304,0.075-0.399c0-0.046-0.015-0.083-0.045-0.111c-0.029-0.028-0.065-0.043-0.109-0.043
					c-0.063,0-0.14,0.027-0.229,0.082c-0.169,0.103-0.344,0.271-0.526,0.508c-0.183,0.235-0.375,0.537-0.577,0.904
					c-0.107,0.193-0.196,0.405-0.268,0.635l-0.17,0.564h-0.514l0.623-2.14c0.072-0.258,0.109-0.412,0.109-0.465
					c0-0.05-0.021-0.094-0.061-0.132c-0.04-0.037-0.089-0.057-0.148-0.057c-0.027,0-0.075,0.005-0.144,0.014l-0.13,0.021
					l-0.021-0.123L48.323,19.499z"/>
			</g>
			<g>
				<path d="M73.979,2.884L73.304,5.28c-0.046,0.162-0.068,0.259-0.068,0.291c0,0.037,0.011,0.066,0.032,0.089
					s0.047,0.034,0.077,0.034c0.033,0,0.074-0.018,0.123-0.055c0.129-0.103,0.261-0.249,0.393-0.438l0.119,0.079
					c-0.154,0.237-0.337,0.437-0.547,0.598C73.278,5.999,73.13,6.06,72.989,6.06c-0.094,0-0.17-0.028-0.229-0.084
					c-0.06-0.056-0.089-0.125-0.089-0.21s0.028-0.225,0.086-0.42L73.2,3.814c0.073-0.25,0.109-0.408,0.109-0.472
					c0-0.05-0.018-0.091-0.053-0.123s-0.084-0.048-0.145-0.048c-0.051,0-0.154,0.013-0.312,0.038V3.076L73.979,2.884z M73.936,1.527
					c0.096,0,0.177,0.033,0.243,0.099c0.065,0.066,0.099,0.147,0.099,0.243c0,0.093-0.033,0.174-0.101,0.241
					c-0.067,0.067-0.147,0.101-0.241,0.101s-0.174-0.034-0.241-0.101c-0.067-0.067-0.101-0.148-0.101-0.241
					c0-0.096,0.033-0.177,0.099-0.243C73.759,1.561,73.84,1.527,73.936,1.527z"/>
			</g>
			<g>
				<path d="M68.782,11.153l1.433,3.633l0.776-2.713c0.063-0.223,0.096-0.396,0.096-0.52c0-0.084-0.03-0.15-0.09-0.198
					c-0.059-0.048-0.169-0.072-0.331-0.072c-0.027,0-0.056-0.001-0.085-0.003l0.037-0.126h1.49l-0.041,0.126
					c-0.155-0.002-0.27,0.014-0.346,0.048c-0.106,0.048-0.187,0.109-0.238,0.185c-0.073,0.107-0.147,0.294-0.223,0.561l-1.09,3.821
					h-0.123l-1.542-3.91l-0.823,2.888c-0.063,0.219-0.093,0.387-0.093,0.502c0,0.087,0.028,0.152,0.084,0.197
					c0.056,0.044,0.188,0.074,0.397,0.09l-0.033,0.127h-1.457l0.049-0.127c0.182-0.004,0.304-0.02,0.365-0.047
					c0.094-0.041,0.163-0.095,0.209-0.161c0.065-0.101,0.14-0.294,0.222-0.581l0.919-3.223c-0.088-0.137-0.184-0.231-0.285-0.282
					c-0.102-0.052-0.259-0.081-0.473-0.087l0.037-0.126H68.782z"/>
			</g>
			<g>
				<path d="M77.436,5.492l-0.971,3.36l0.39-0.332c0.426-0.36,0.703-0.626,0.83-0.8c0.041-0.057,0.063-0.1,0.063-0.13
					c0-0.021-0.008-0.04-0.021-0.058s-0.04-0.033-0.08-0.044s-0.109-0.017-0.21-0.017h-0.12l0.038-0.13h1.493l-0.033,0.13
					c-0.172,0.009-0.319,0.036-0.443,0.081c-0.124,0.044-0.244,0.11-0.36,0.196c-0.23,0.171-0.382,0.29-0.454,0.355l-0.295,0.26
					c0.051,0.164,0.112,0.393,0.186,0.687c0.123,0.488,0.206,0.777,0.249,0.868s0.088,0.137,0.134,0.137
					c0.038,0,0.084-0.02,0.137-0.058c0.118-0.086,0.244-0.225,0.379-0.414l0.119,0.085c-0.248,0.312-0.438,0.518-0.57,0.617
					c-0.132,0.099-0.253,0.148-0.362,0.148c-0.096,0-0.17-0.038-0.222-0.113c-0.092-0.134-0.243-0.664-0.455-1.589l-0.469,0.407
					l-0.352,1.213h-0.533l1.135-3.9l0.096-0.332c0.012-0.057,0.018-0.107,0.018-0.15c0-0.055-0.021-0.1-0.063-0.137
					s-0.104-0.055-0.183-0.055c-0.053,0-0.136,0.011-0.25,0.034v-0.12L77.436,5.492z"/>
				<path d="M80.008,7.259l-0.444,1.542c0.198-0.362,0.367-0.635,0.506-0.817c0.217-0.283,0.428-0.488,0.633-0.615
					c0.12-0.073,0.247-0.109,0.379-0.109c0.114,0,0.209,0.037,0.283,0.109c0.076,0.073,0.113,0.167,0.113,0.28
					c0,0.112-0.026,0.257-0.078,0.438l-0.243,0.868c0.371-0.695,0.724-1.183,1.056-1.463c0.186-0.155,0.367-0.232,0.547-0.232
					c0.105,0,0.191,0.036,0.259,0.108c0.067,0.071,0.101,0.183,0.101,0.333c0,0.132-0.021,0.272-0.062,0.42l-0.376,1.33
					c-0.082,0.29-0.123,0.45-0.123,0.482s0.01,0.059,0.031,0.082c0.014,0.016,0.031,0.024,0.055,0.024
					c0.022,0,0.063-0.021,0.119-0.065c0.13-0.1,0.252-0.232,0.365-0.396l0.113,0.072c-0.057,0.091-0.158,0.216-0.303,0.376
					s-0.268,0.268-0.371,0.325c-0.102,0.057-0.196,0.085-0.283,0.085c-0.08,0-0.146-0.027-0.2-0.082s-0.08-0.122-0.08-0.202
					c0-0.109,0.047-0.329,0.14-0.66l0.312-1.097c0.07-0.253,0.108-0.393,0.112-0.42c0.008-0.043,0.011-0.085,0.011-0.126
					c0-0.057-0.013-0.102-0.038-0.133c-0.027-0.032-0.058-0.048-0.092-0.048c-0.096,0-0.197,0.049-0.305,0.147
					c-0.314,0.29-0.607,0.695-0.881,1.217c-0.181,0.344-0.35,0.785-0.506,1.323H80.24l0.585-2.068
					c0.063-0.223,0.096-0.373,0.096-0.448c0-0.062-0.013-0.107-0.038-0.137s-0.056-0.044-0.093-0.044
					c-0.074,0-0.154,0.027-0.238,0.082c-0.137,0.089-0.313,0.279-0.528,0.571c-0.216,0.292-0.383,0.571-0.501,0.837
					c-0.057,0.125-0.192,0.527-0.406,1.207H78.61l0.632-2.215l0.082-0.287c0.016-0.043,0.024-0.075,0.024-0.096
					c0-0.05-0.023-0.095-0.068-0.135c-0.046-0.04-0.104-0.06-0.175-0.06c-0.029,0-0.111,0.014-0.246,0.041l-0.03-0.126L80.008,7.259
					z"/>
			</g>
			<path d="M17.492,15.635h6.153v-0.563h-6.153V15.635z M17.492,17.83h6.153v-0.564h-6.153V17.83z"/>
			<rect x="59.465" y="8.392" width="3.593" height="0.329"/>
			<path d="M39.053,20.404l-0.342-0.054c-0.144,0.594-0.324,1.044-0.541,1.332c-0.234,0.288-0.504,0.486-0.846,0.594
				c-0.486,0.162-0.936,0.234-1.35,0.234h-7.202l5.545-6.824l-4.969-6.067h6.536c0.648,0,1.152,0.18,1.495,0.522
				c0.36,0.342,0.594,0.918,0.684,1.729h0.36l-0.234-2.953H26.936v0.324l5.906,7.203l-5.906,7.292v0.324h11.56L39.053,20.404z"/>
			<g>
				<path d="M52.685,18.364c0.184,0,0.338,0.063,0.463,0.19s0.188,0.28,0.188,0.46s-0.063,0.333-0.19,0.46s-0.28,0.19-0.46,0.19
					s-0.333-0.063-0.46-0.19s-0.19-0.28-0.19-0.46c0-0.184,0.063-0.338,0.19-0.463S52.505,18.364,52.685,18.364z"/>
			</g>
			<g>
				<path d="M67.362,5.085l-0.324,0.892h-2.734V5.851c0.805-0.734,1.371-1.333,1.699-1.798s0.492-0.89,0.492-1.275
					c0-0.294-0.091-0.536-0.271-0.725S65.829,1.77,65.579,1.77c-0.229,0-0.433,0.067-0.614,0.2
					c-0.181,0.134-0.314,0.329-0.401,0.586h-0.127c0.058-0.421,0.204-0.745,0.439-0.971c0.236-0.226,0.53-0.338,0.884-0.338
					c0.376,0,0.689,0.121,0.941,0.362s0.378,0.526,0.378,0.854c0,0.235-0.055,0.469-0.164,0.704c-0.169,0.369-0.442,0.76-0.82,1.172
					c-0.567,0.62-0.922,0.994-1.063,1.121h1.209c0.246,0,0.419-0.009,0.519-0.027c0.099-0.018,0.188-0.055,0.269-0.111
					c0.079-0.056,0.148-0.135,0.208-0.238H67.362z"/>
			</g>
			<path d="M69.588,2.84c-0.238,0-0.426,0.056-0.583,0.168c-0.202,0.154-0.416,0.427-0.629,0.819h0.133
				c0.154-0.189,0.304-0.329,0.454-0.406c0.089-0.056,0.222-0.084,0.39-0.084h0.154c-0.167,0.63-0.338,1.121-0.512,1.464
				c-0.101,0.203-0.234,0.399-0.416,0.588c-0.107,0.105-0.175,0.189-0.217,0.252c-0.023,0.042-0.048,0.091-0.063,0.154
				c-0.018,0.084-0.004,0.147,0.04,0.203c0.036,0.056,0.101,0.084,0.185,0.084c0.175,0,0.344-0.161,0.518-0.476
				c0.168-0.315,0.418-1.072,0.752-2.27h0.882c-0.256,0.785-0.423,1.317-0.484,1.597c-0.097,0.441-0.1,0.742-0.017,0.903
				c0.084,0.161,0.213,0.245,0.388,0.245c0.168,0,0.332-0.077,0.497-0.224c0.166-0.147,0.313-0.406,0.429-0.771h-0.126
				c-0.05,0.133-0.113,0.231-0.206,0.301c-0.086,0.07-0.178,0.105-0.275,0.105c-0.119,0-0.213-0.049-0.268-0.154
				c-0.063-0.098-0.067-0.266-0.015-0.504c0.104-0.476,0.256-0.974,0.449-1.499h0.826l0.109-0.497H69.588z"/>
		</g>
	</g>
</g>
</svg>
