<?xml version="1.0" encoding="utf-8"?>
<!-- Generator: Adobe Illustrator 14.0.0, SVG Export Plug-In . SVG Version: 6.00 Build 43363)  -->
<!DOCTYPE svg PUBLIC "-//W3C//DTD SVG 1.1//EN" "http://www.w3.org/Graphics/SVG/1.1/DTD/svg11.dtd">
<svg version="1.1" xmlns="http://www.w3.org/2000/svg" xmlns:xlink="http://www.w3.org/1999/xlink" x="0px" y="0px"
	 width="132.031px" height="33.543px" viewBox="0 0 132.031 33.543" style="enable-background:new 0 0 132.031 33.543;"
	 xml:space="preserve">
<g id="Layer_1">
</g>
<g id="Layer_2">
	<g id="theGroup">
		<g>
			<line style="fill:none;stroke:#000000;stroke-width:0.5;stroke-miterlimit:10;" x1="0.5" y1="7.592" x2="0.5" y2="18.779"/>
			<polygon points="13.563,7.592 15.875,13.186 16.375,13.186 14.063,7.592 			"/>
			<polygon points="15.875,13.186 13.563,18.779 14.063,18.779 16.375,13.186 			"/>
			<polyline points="30.125,25.89 31.788,24.886 34.399,29.23 37.325,16.279 49.844,16.279 49.844,16.873 37.8,16.873 
				34.694,30.623 34.085,30.623 31.157,25.752 30.34,26.245 			"/>
			<path style="fill:none;stroke:#000000;stroke-width:0.5;stroke-miterlimit:10;" d="M29.125,14.779h21.719 M67.688,7.592v11.375"
				/>
			<polygon points="76.813,7.592 79.125,13.279 79.625,13.279 77.313,7.592 			"/>
			<polygon points="79.125,13.279 76.813,18.967 77.313,18.967 79.625,13.279 			"/>
			<polygon points="128.969,7.592 131.281,13.279 131.781,13.279 129.469,7.592 			"/>
			<polygon points="131.281,13.279 128.969,18.967 129.469,18.967 131.781,13.279 			"/>
			<path d="M8.399,10.955c0-0.324,0.072-0.564,0.216-0.696c0.144-0.144,0.396-0.216,0.744-0.216h0.204V9.828H6.121v0.216h0.204
				c0.348,0,0.588,0.072,0.731,0.216c0.144,0.132,0.216,0.372,0.216,0.696v2.962c-0.479-0.012-0.875-0.096-1.187-0.252
				c-0.312-0.168-0.54-0.372-0.672-0.636c-0.132-0.252-0.216-0.6-0.24-1.067c-0.024-0.612-0.108-1.055-0.216-1.319
				c-0.12-0.264-0.312-0.479-0.576-0.636C4.13,9.852,3.758,9.768,3.267,9.744v0.216c0.251,0.024,0.432,0.072,0.516,0.168
				c0.096,0.096,0.156,0.252,0.168,0.492l0.036,1.355c0.024,0.228,0.06,0.419,0.12,0.587c0.072,0.24,0.192,0.468,0.372,0.696
				c0.264,0.324,0.612,0.587,1.043,0.768c0.432,0.18,1.02,0.288,1.751,0.312v2.315c0,0.323-0.072,0.563-0.216,0.695
				c-0.144,0.144-0.384,0.216-0.731,0.216H6.121v0.216h3.442v-0.216H9.359c-0.348,0-0.6-0.072-0.744-0.216
				c-0.144-0.132-0.216-0.372-0.216-0.695v-2.315c0.888-0.036,1.559-0.18,2.039-0.456c0.492-0.276,0.828-0.636,1.02-1.08
				c0.156-0.335,0.24-0.935,0.252-1.787c0-0.432,0.036-0.696,0.108-0.804c0.096-0.144,0.276-0.228,0.551-0.252V9.744
				c-0.467,0.012-0.839,0.108-1.115,0.288c-0.276,0.18-0.468,0.419-0.576,0.708c-0.084,0.216-0.144,0.587-0.18,1.115
				c-0.036,0.528-0.12,0.923-0.264,1.175c-0.132,0.252-0.348,0.468-0.66,0.636c-0.312,0.168-0.708,0.252-1.175,0.252V10.955z
				 M19.778,13.905h6.153v-0.563h-6.153V13.905z M19.778,16.1h6.153v-0.563h-6.153V16.1z"/>
			<path d="M65.308,18.675l-0.342-0.054c-0.144,0.594-0.324,1.044-0.541,1.332c-0.234,0.288-0.504,0.486-0.846,0.594
				c-0.486,0.162-0.936,0.234-1.35,0.234h-7.202l5.545-6.824L55.604,7.89h6.536c0.648,0,1.152,0.18,1.495,0.522
				c0.36,0.342,0.594,0.918,0.684,1.729h0.36l-0.234-2.953H53.19v0.324l5.906,7.202l-5.906,7.292v0.324h11.56L65.308,18.675z"/>
			<g>
				<path d="M38.377,3.057l1.934-0.943h0.193v6.709c0,0.445,0.019,0.723,0.056,0.832s0.114,0.193,0.231,0.252s0.355,0.092,0.715,0.1
					v0.217h-2.988v-0.217c0.375-0.008,0.617-0.04,0.727-0.097s0.186-0.133,0.229-0.229s0.064-0.382,0.064-0.858V4.533
					c0-0.578-0.02-0.949-0.059-1.113c-0.027-0.125-0.077-0.217-0.149-0.275s-0.159-0.088-0.261-0.088
					c-0.145,0-0.346,0.061-0.604,0.182L38.377,3.057z"/>
			</g>
			<g>
				<path d="M43.566,28.084l-0.557,1.529h-4.688v-0.217c1.379-1.258,2.35-2.285,2.912-3.082s0.844-1.525,0.844-2.186
					c0-0.504-0.154-0.918-0.463-1.242S40.938,22.4,40.508,22.4c-0.391,0-0.741,0.114-1.052,0.343s-0.54,0.563-0.688,1.005h-0.217
					c0.098-0.723,0.349-1.277,0.753-1.664s0.909-0.58,1.515-0.58c0.645,0,1.183,0.207,1.614,0.621s0.647,0.902,0.647,1.465
					c0,0.402-0.094,0.805-0.281,1.207c-0.289,0.633-0.758,1.303-1.406,2.01c-0.973,1.063-1.58,1.703-1.822,1.922h2.074
					c0.422,0,0.718-0.016,0.888-0.047s0.323-0.095,0.46-0.19s0.256-0.231,0.357-0.407H43.566z"/>
			</g>
			<g>
				<path d="M117.938,10.605l1.934-0.943h0.193v6.709c0,0.445,0.019,0.723,0.056,0.832s0.114,0.193,0.231,0.252
					s0.355,0.092,0.715,0.1v0.217h-2.988v-0.217c0.375-0.008,0.617-0.04,0.727-0.097s0.186-0.133,0.229-0.229
					s0.064-0.382,0.064-0.858v-4.289c0-0.578-0.02-0.949-0.059-1.113c-0.027-0.125-0.077-0.217-0.149-0.275
					s-0.159-0.088-0.261-0.088c-0.145,0-0.346,0.061-0.604,0.182L117.938,10.605z"/>
				<path d="M127.74,9.826l-0.457,0.996h-2.391l-0.521,1.066c1.035,0.152,1.855,0.537,2.461,1.154
					c0.52,0.531,0.779,1.156,0.779,1.875c0,0.418-0.085,0.805-0.255,1.16s-0.384,0.658-0.642,0.908s-0.545,0.451-0.861,0.604
					c-0.449,0.215-0.91,0.322-1.383,0.322c-0.477,0-0.823-0.081-1.04-0.243s-0.325-0.341-0.325-0.536
					c0-0.109,0.045-0.206,0.135-0.29s0.203-0.126,0.34-0.126c0.102,0,0.19,0.016,0.267,0.047s0.206,0.111,0.39,0.24
					c0.293,0.203,0.59,0.305,0.891,0.305c0.457,0,0.858-0.173,1.204-0.519s0.519-0.767,0.519-1.263c0-0.48-0.154-0.929-0.463-1.345
					s-0.734-0.737-1.277-0.964c-0.426-0.176-1.006-0.277-1.74-0.305l1.523-3.088H127.74z"/>
			</g>
			<g>
				<path d="M47.663,21.154l-1.118,3.863c-0.05,0.178-0.075,0.291-0.075,0.342c0,0.052,0.013,0.097,0.039,0.135
					c0.026,0.037,0.063,0.065,0.108,0.084c0.071,0.027,0.163,0.041,0.277,0.041l-0.034,0.126h-1.637l0.034-0.126
					c0.223-0.019,0.362-0.038,0.417-0.059c0.086-0.034,0.158-0.09,0.213-0.168c0.056-0.077,0.118-0.24,0.187-0.488l0.472-1.686
					c-0.301,0.44-0.581,0.749-0.841,0.927c-0.185,0.125-0.356,0.188-0.516,0.188c-0.228,0-0.4-0.094-0.516-0.279
					s-0.174-0.387-0.174-0.604c0-0.344,0.106-0.705,0.318-1.083s0.491-0.688,0.837-0.93c0.269-0.189,0.513-0.284,0.731-0.284
					c0.162,0,0.295,0.04,0.4,0.118c0.105,0.079,0.184,0.205,0.236,0.378l0.106-0.383L47.663,21.154z M46.883,21.821
					c0-0.146-0.044-0.266-0.133-0.358c-0.089-0.094-0.198-0.141-0.328-0.141c-0.278,0-0.571,0.239-0.878,0.718
					s-0.461,0.93-0.461,1.354c0,0.171,0.038,0.301,0.114,0.39c0.077,0.089,0.169,0.133,0.279,0.133c0.139,0,0.296-0.077,0.472-0.232
					c0.267-0.234,0.489-0.535,0.668-0.903C46.794,22.412,46.883,22.093,46.883,21.821z"/>
			</g>
			<g>
				<path d="M89.869,9.317c0.112,0.119,0.196,0.237,0.254,0.355c0.041,0.082,0.107,0.297,0.201,0.646l0.301-0.451
					c0.08-0.109,0.177-0.214,0.291-0.313c0.113-0.1,0.214-0.167,0.301-0.204c0.055-0.023,0.114-0.034,0.181-0.034
					c0.098,0,0.176,0.026,0.234,0.079c0.058,0.052,0.087,0.116,0.087,0.191c0,0.086-0.018,0.146-0.051,0.178
					c-0.064,0.057-0.137,0.085-0.219,0.085c-0.049,0-0.1-0.01-0.154-0.031c-0.107-0.037-0.179-0.055-0.215-0.055
					c-0.055,0-0.12,0.032-0.195,0.096c-0.142,0.119-0.31,0.348-0.506,0.687l0.28,1.176c0.043,0.18,0.08,0.288,0.109,0.323
					c0.029,0.036,0.06,0.053,0.089,0.053c0.048,0,0.104-0.026,0.168-0.079c0.125-0.105,0.232-0.242,0.32-0.41l0.12,0.062
					c-0.144,0.269-0.326,0.492-0.547,0.67c-0.125,0.1-0.231,0.15-0.317,0.15c-0.128,0-0.229-0.072-0.305-0.215
					c-0.048-0.089-0.146-0.472-0.297-1.148c-0.355,0.618-0.641,1.015-0.855,1.193c-0.139,0.114-0.273,0.171-0.402,0.171
					c-0.092,0-0.175-0.033-0.25-0.099c-0.055-0.05-0.082-0.117-0.082-0.202c0-0.075,0.025-0.138,0.075-0.188
					s0.111-0.075,0.185-0.075s0.15,0.037,0.232,0.109c0.06,0.052,0.104,0.079,0.137,0.079c0.027,0,0.063-0.018,0.105-0.055
					c0.107-0.086,0.254-0.273,0.438-0.561c0.186-0.287,0.306-0.495,0.363-0.622c-0.142-0.554-0.218-0.847-0.229-0.878
					c-0.053-0.148-0.121-0.253-0.205-0.314s-0.208-0.092-0.372-0.092c-0.053,0-0.113,0.002-0.182,0.007V9.478L89.869,9.317z"/>
			</g>
			<g>
				<path d="M72.895,12.469c0.191,0.203,0.336,0.406,0.434,0.609c0.07,0.141,0.186,0.51,0.346,1.107l0.516-0.773
					c0.137-0.188,0.303-0.366,0.498-0.536s0.367-0.286,0.516-0.349c0.094-0.039,0.197-0.059,0.311-0.059
					c0.168,0,0.302,0.045,0.401,0.135s0.149,0.199,0.149,0.328c0,0.148-0.029,0.25-0.088,0.305
					c-0.109,0.098-0.234,0.146-0.375,0.146c-0.082,0-0.17-0.018-0.264-0.053c-0.184-0.063-0.307-0.094-0.369-0.094
					c-0.094,0-0.205,0.055-0.334,0.164c-0.242,0.203-0.531,0.596-0.867,1.178l0.48,2.016c0.074,0.309,0.137,0.493,0.188,0.554
					s0.102,0.091,0.152,0.091c0.082,0,0.178-0.045,0.287-0.135c0.215-0.18,0.398-0.414,0.551-0.703l0.205,0.105
					c-0.246,0.461-0.559,0.844-0.938,1.148c-0.215,0.172-0.396,0.258-0.545,0.258c-0.219,0-0.393-0.123-0.521-0.369
					c-0.082-0.152-0.252-0.809-0.51-1.969c-0.609,1.059-1.098,1.74-1.465,2.045c-0.238,0.195-0.469,0.293-0.691,0.293
					c-0.156,0-0.299-0.057-0.428-0.17c-0.094-0.086-0.141-0.201-0.141-0.346c0-0.129,0.043-0.236,0.129-0.322
					s0.191-0.129,0.316-0.129s0.258,0.063,0.398,0.188c0.102,0.09,0.18,0.135,0.234,0.135c0.047,0,0.107-0.031,0.182-0.094
					c0.184-0.148,0.434-0.469,0.75-0.961s0.523-0.848,0.621-1.066c-0.242-0.949-0.373-1.451-0.393-1.506
					c-0.09-0.254-0.207-0.434-0.352-0.539s-0.357-0.158-0.639-0.158c-0.09,0-0.193,0.004-0.311,0.012v-0.211L72.895,12.469z"/>
				<path d="M87.315,12.469l-1.143,3.973l-0.129,0.533c-0.012,0.051-0.018,0.094-0.018,0.129c0,0.063,0.02,0.117,0.059,0.164
					c0.031,0.035,0.07,0.053,0.117,0.053c0.051,0,0.117-0.031,0.199-0.094c0.152-0.113,0.355-0.348,0.609-0.703l0.199,0.141
					c-0.27,0.406-0.547,0.716-0.832,0.929s-0.549,0.319-0.791,0.319c-0.168,0-0.294-0.042-0.378-0.126s-0.126-0.206-0.126-0.366
					c0-0.191,0.043-0.443,0.129-0.756l0.123-0.439c-0.512,0.668-0.982,1.135-1.412,1.4c-0.309,0.191-0.611,0.287-0.908,0.287
					c-0.285,0-0.531-0.118-0.738-0.354s-0.311-0.562-0.311-0.976c0-0.621,0.187-1.276,0.56-1.966s0.847-1.241,1.421-1.655
					c0.449-0.328,0.873-0.492,1.271-0.492c0.238,0,0.437,0.063,0.595,0.188s0.278,0.332,0.36,0.621l0.211-0.668L87.315,12.469z
					 M85.229,12.773c-0.25,0-0.516,0.117-0.797,0.352c-0.398,0.332-0.753,0.824-1.063,1.477s-0.466,1.242-0.466,1.77
					c0,0.266,0.066,0.476,0.199,0.63s0.285,0.231,0.457,0.231c0.426,0,0.889-0.314,1.389-0.943c0.668-0.836,1.002-1.693,1.002-2.572
					c0-0.332-0.064-0.572-0.193-0.721S85.452,12.773,85.229,12.773z"/>
			</g>
			<g>
				<path d="M96.752,13.389c0.391-0.391,0.621-0.615,0.691-0.674c0.176-0.148,0.365-0.264,0.568-0.346s0.404-0.123,0.604-0.123
					c0.336,0,0.625,0.098,0.867,0.293s0.404,0.479,0.486,0.85c0.402-0.469,0.742-0.776,1.02-0.923s0.563-0.22,0.855-0.22
					c0.285,0,0.538,0.073,0.759,0.22s0.396,0.386,0.524,0.718c0.086,0.227,0.129,0.582,0.129,1.066v2.309
					c0,0.336,0.025,0.566,0.076,0.691c0.039,0.086,0.111,0.159,0.217,0.22s0.277,0.091,0.516,0.091v0.211h-2.648v-0.211h0.111
					c0.23,0,0.41-0.045,0.539-0.135c0.09-0.063,0.154-0.162,0.193-0.299c0.016-0.066,0.023-0.256,0.023-0.568V14.25
					c0-0.438-0.053-0.746-0.158-0.926c-0.152-0.25-0.396-0.375-0.732-0.375c-0.207,0-0.415,0.052-0.624,0.155
					s-0.462,0.296-0.759,0.577l-0.012,0.064l0.012,0.252v2.561c0,0.367,0.021,0.596,0.062,0.686s0.118,0.165,0.231,0.226
					s0.307,0.091,0.58,0.091v0.211H98.17v-0.211c0.297,0,0.501-0.035,0.612-0.105s0.188-0.176,0.231-0.316
					c0.02-0.066,0.029-0.26,0.029-0.58V14.25c0-0.438-0.064-0.752-0.193-0.943c-0.172-0.25-0.412-0.375-0.721-0.375
					c-0.211,0-0.42,0.057-0.627,0.17c-0.324,0.172-0.574,0.365-0.75,0.58v2.877c0,0.352,0.024,0.58,0.073,0.686
					s0.121,0.185,0.217,0.237s0.29,0.079,0.583,0.079v0.211h-2.654v-0.211c0.246,0,0.418-0.026,0.516-0.079s0.172-0.137,0.223-0.252
					s0.076-0.339,0.076-0.671v-2.051c0-0.59-0.018-0.971-0.053-1.143c-0.027-0.129-0.07-0.218-0.129-0.267s-0.139-0.073-0.24-0.073
					c-0.109,0-0.24,0.029-0.393,0.088l-0.088-0.211l1.617-0.656h0.252V13.389z"/>
				<path d="M106.974,12.246c0.813,0,1.465,0.309,1.957,0.926c0.418,0.527,0.627,1.133,0.627,1.816c0,0.48-0.115,0.967-0.346,1.459
					s-0.548,0.863-0.952,1.113s-0.854,0.375-1.351,0.375c-0.809,0-1.451-0.322-1.928-0.967c-0.402-0.543-0.604-1.152-0.604-1.828
					c0-0.492,0.122-0.981,0.366-1.468s0.565-0.846,0.964-1.078S106.528,12.246,106.974,12.246z M106.792,12.627
					c-0.207,0-0.415,0.062-0.624,0.185s-0.378,0.339-0.507,0.647s-0.193,0.705-0.193,1.189c0,0.781,0.155,1.455,0.466,2.021
					s0.72,0.85,1.228,0.85c0.379,0,0.691-0.156,0.938-0.469s0.369-0.85,0.369-1.611c0-0.953-0.205-1.703-0.615-2.25
					C107.575,12.814,107.222,12.627,106.792,12.627z"/>
			</g>
			<g>
				<path d="M114.135,17.168c-0.262,0.273-0.518,0.47-0.768,0.589s-0.52,0.179-0.809,0.179c-0.586,0-1.098-0.245-1.535-0.735
					s-0.656-1.12-0.656-1.89s0.242-1.474,0.727-2.112s1.107-0.958,1.869-0.958c0.473,0,0.863,0.15,1.172,0.451v-0.99
					c0-0.613-0.015-0.99-0.044-1.131s-0.075-0.236-0.138-0.287s-0.141-0.076-0.234-0.076c-0.102,0-0.236,0.031-0.404,0.094
					l-0.076-0.205l1.6-0.656h0.264v6.205c0,0.629,0.015,1.013,0.044,1.151s0.076,0.235,0.141,0.29s0.14,0.082,0.226,0.082
					c0.105,0,0.246-0.033,0.422-0.1l0.064,0.205l-1.594,0.662h-0.27V17.168z M114.135,16.758v-2.766
					c-0.023-0.266-0.094-0.508-0.211-0.727s-0.272-0.384-0.466-0.495s-0.382-0.167-0.565-0.167c-0.344,0-0.65,0.154-0.92,0.463
					c-0.355,0.406-0.533,1-0.533,1.781c0,0.789,0.172,1.394,0.516,1.813s0.727,0.63,1.148,0.63
					C113.459,17.291,113.803,17.113,114.135,16.758z"/>
			</g>
		</g>
	</g>
</g>
</svg>
