<?xml version="1.0" encoding="utf-8"?>
<!-- Generator: Adobe Illustrator 14.0.0, SVG Export Plug-In . SVG Version: 6.00 Build 43363)  -->
<!DOCTYPE svg PUBLIC "-//W3C//DTD SVG 1.1//EN" "http://www.w3.org/Graphics/SVG/1.1/DTD/svg11.dtd">
<svg version="1.1" xmlns="http://www.w3.org/2000/svg" xmlns:xlink="http://www.w3.org/1999/xlink" x="0px" y="0px"
	 width="75.994px" height="38.521px" viewBox="0 0 75.994 38.521" style="enable-background:new 0 0 75.994 38.521;"
	 xml:space="preserve">
<g id="Layer_1">
</g>
<g id="Layer_2">
	<g id="theGroup">
		<g>
			
				<line style="fill:none;stroke:#000000;stroke-width:0.5;stroke-miterlimit:10;" x1="36.544" y1="20.707" x2="75.794" y2="20.707"/>
			<g>
				<path d="M0.282,23.889l0.656-2.947h0.199c-0.027,0.285-0.041,0.521-0.041,0.709c0,0.535,0.171,0.971,0.513,1.307
					s0.788,0.504,1.339,0.504c0.512,0,0.9-0.157,1.166-0.472s0.398-0.677,0.398-1.087c0-0.266-0.061-0.508-0.182-0.727
					c-0.184-0.324-0.674-0.895-1.471-1.711c-0.387-0.391-0.635-0.682-0.744-0.873c-0.18-0.316-0.27-0.648-0.27-0.996
					c0-0.555,0.207-1.029,0.621-1.424s0.945-0.592,1.594-0.592c0.219,0,0.426,0.021,0.621,0.064
					c0.121,0.023,0.342,0.102,0.662,0.234c0.227,0.09,0.352,0.139,0.375,0.146c0.055,0.012,0.115,0.018,0.182,0.018
					c0.113,0,0.211-0.029,0.293-0.088s0.178-0.184,0.287-0.375h0.223l-0.609,2.637H5.896c0.016-0.234,0.023-0.424,0.023-0.568
					c0-0.473-0.156-0.859-0.469-1.16s-0.725-0.451-1.236-0.451c-0.406,0-0.736,0.119-0.99,0.357s-0.381,0.514-0.381,0.826
					c0,0.273,0.081,0.534,0.243,0.782s0.535,0.652,1.119,1.213s0.962,0.998,1.134,1.313s0.258,0.649,0.258,1.005
					c0,0.402-0.106,0.792-0.319,1.169s-0.519,0.669-0.917,0.876s-0.834,0.311-1.307,0.311c-0.234,0-0.453-0.021-0.656-0.064
					s-0.527-0.148-0.973-0.316c-0.152-0.059-0.279-0.088-0.381-0.088c-0.23,0-0.41,0.156-0.539,0.469H0.282z"/>
				<path d="M11.702,23.707H5.813l0.082-0.217c0.313-0.008,0.521-0.033,0.627-0.076c0.164-0.07,0.285-0.162,0.363-0.275
					c0.121-0.18,0.25-0.504,0.387-0.973l1.4-4.834c0.117-0.398,0.176-0.691,0.176-0.879c0-0.148-0.054-0.264-0.161-0.346
					s-0.31-0.123-0.606-0.123c-0.066,0-0.119-0.002-0.158-0.006l0.07-0.217h3.24l-0.047,0.217c-0.363,0-0.621,0.035-0.773,0.105
					s-0.279,0.186-0.381,0.346c-0.07,0.105-0.186,0.434-0.346,0.984L8.31,22.166c-0.105,0.359-0.158,0.609-0.158,0.75
					c0,0.094,0.053,0.184,0.158,0.27c0.066,0.059,0.217,0.088,0.451,0.088h0.768c0.559,0,1.002-0.07,1.33-0.211
					c0.242-0.105,0.465-0.264,0.668-0.475c0.109-0.117,0.303-0.408,0.58-0.873l0.152-0.264h0.217L11.702,23.707z"/>
			</g>
			<g>
				<path d="M71.358,13.793H65.47l0.082-0.217c0.313-0.008,0.521-0.033,0.627-0.076c0.164-0.07,0.285-0.162,0.363-0.275
					c0.121-0.18,0.25-0.504,0.387-0.973l1.4-4.834c0.117-0.398,0.176-0.691,0.176-0.879c0-0.148-0.054-0.264-0.161-0.346
					s-0.31-0.123-0.606-0.123c-0.066,0-0.119-0.002-0.158-0.006l0.07-0.217h3.24l-0.047,0.217c-0.363,0-0.621,0.035-0.773,0.105
					s-0.279,0.186-0.381,0.346c-0.07,0.105-0.186,0.434-0.346,0.984l-1.377,4.752c-0.105,0.359-0.158,0.609-0.158,0.75
					c0,0.094,0.053,0.184,0.158,0.27c0.066,0.059,0.217,0.088,0.451,0.088h0.768c0.559,0,1.002-0.07,1.33-0.211
					c0.242-0.105,0.465-0.264,0.668-0.475c0.109-0.117,0.303-0.408,0.58-0.873l0.152-0.264h0.217L71.358,13.793z"/>
			</g>
			<g>
				<path d="M48.923,25.137l2.455,6.229l1.33-4.652c0.109-0.383,0.164-0.68,0.164-0.891c0-0.145-0.051-0.258-0.152-0.34
					s-0.291-0.123-0.568-0.123c-0.047,0-0.096-0.002-0.146-0.006l0.064-0.217h2.555l-0.07,0.217
					c-0.266-0.004-0.463,0.023-0.592,0.082c-0.184,0.082-0.32,0.188-0.41,0.316c-0.125,0.184-0.252,0.504-0.381,0.961l-1.869,6.551
					h-0.211l-2.643-6.703l-1.412,4.951c-0.105,0.375-0.158,0.662-0.158,0.861c0,0.148,0.048,0.261,0.144,0.337
					s0.323,0.128,0.683,0.155l-0.059,0.217h-2.496l0.082-0.217c0.313-0.008,0.521-0.035,0.627-0.082
					c0.16-0.07,0.279-0.162,0.357-0.275c0.113-0.172,0.24-0.504,0.381-0.996l1.576-5.525c-0.152-0.234-0.315-0.396-0.489-0.483
					s-0.444-0.138-0.812-0.149l0.064-0.217H48.923z"/>
			</g>
			<g>
				<path d="M15.672,23.705l-0.667,2.318l-0.075,0.311c-0.007,0.029-0.01,0.055-0.01,0.075c0,0.036,0.011,0.068,0.034,0.096
					c0.018,0.021,0.041,0.03,0.068,0.03c0.03,0,0.068-0.018,0.116-0.055c0.089-0.065,0.208-0.202,0.355-0.41l0.116,0.082
					c-0.157,0.237-0.319,0.418-0.485,0.542s-0.32,0.187-0.461,0.187c-0.098,0-0.171-0.024-0.221-0.073
					c-0.049-0.049-0.073-0.12-0.073-0.214c0-0.111,0.025-0.259,0.075-0.441l0.072-0.256c-0.298,0.39-0.573,0.662-0.824,0.816
					c-0.18,0.112-0.356,0.168-0.53,0.168c-0.167,0-0.31-0.069-0.431-0.207s-0.181-0.327-0.181-0.568
					c0-0.363,0.109-0.745,0.326-1.147c0.218-0.402,0.494-0.724,0.829-0.966c0.262-0.191,0.509-0.287,0.742-0.287
					c0.139,0,0.254,0.037,0.347,0.109c0.092,0.073,0.162,0.194,0.21,0.363l0.123-0.391L15.672,23.705z M14.456,23.883
					c-0.146,0-0.301,0.068-0.465,0.205c-0.232,0.194-0.439,0.481-0.621,0.861c-0.181,0.381-0.271,0.725-0.271,1.033
					c0,0.154,0.039,0.277,0.116,0.367s0.167,0.135,0.267,0.135c0.249,0,0.519-0.184,0.81-0.551c0.39-0.487,0.584-0.987,0.584-1.5
					c0-0.193-0.038-0.334-0.113-0.42C14.688,23.927,14.585,23.883,14.456,23.883z"/>
				<path d="M16.038,23.918l0.988-0.213c0.071,0.169,0.127,0.341,0.171,0.517c0.062,0.258,0.112,0.563,0.15,0.916
					c0.018,0.178,0.043,0.554,0.075,1.128c0.285-0.314,0.455-0.51,0.509-0.584c0.301-0.408,0.474-0.647,0.52-0.719
					c0.075-0.12,0.127-0.227,0.157-0.317c0.025-0.068,0.038-0.134,0.038-0.194c0-0.06-0.053-0.128-0.159-0.205
					c-0.106-0.078-0.159-0.164-0.159-0.26c0-0.073,0.029-0.139,0.087-0.195c0.059-0.057,0.127-0.086,0.207-0.086
					c0.096,0,0.18,0.04,0.253,0.118c0.073,0.079,0.109,0.177,0.109,0.292c0,0.117-0.018,0.229-0.055,0.336
					c-0.059,0.173-0.17,0.384-0.332,0.634c-0.162,0.249-0.423,0.584-0.783,1.003c-0.045,0.053-0.298,0.316-0.759,0.793H16.93
					c-0.055-1.442-0.168-2.343-0.342-2.7c-0.057-0.116-0.151-0.175-0.284-0.175c-0.057,0-0.138,0.011-0.243,0.031L16.038,23.918z"/>
			</g>
			<g>
				<path d="M22.597,23.918l-0.099,0.355h-0.571c0.043,0.123,0.065,0.237,0.065,0.345c0,0.301-0.127,0.568-0.383,0.804
					c-0.257,0.234-0.611,0.364-1.06,0.389c-0.242,0.073-0.423,0.16-0.543,0.26c-0.045,0.037-0.068,0.074-0.068,0.113
					c0,0.046,0.021,0.087,0.062,0.125c0.041,0.037,0.145,0.075,0.311,0.114l0.663,0.153c0.367,0.087,0.609,0.189,0.728,0.309
					c0.116,0.12,0.174,0.26,0.174,0.416c0,0.188-0.069,0.358-0.207,0.514c-0.138,0.154-0.339,0.275-0.604,0.363
					c-0.266,0.088-0.559,0.132-0.88,0.132c-0.283,0-0.54-0.033-0.772-0.101s-0.399-0.158-0.499-0.271
					c-0.1-0.114-0.15-0.231-0.15-0.353c0-0.098,0.033-0.2,0.097-0.306c0.065-0.106,0.146-0.193,0.245-0.262
					c0.062-0.043,0.236-0.146,0.523-0.308c-0.105-0.082-0.157-0.172-0.157-0.271c0-0.091,0.046-0.188,0.139-0.29
					c0.092-0.103,0.288-0.216,0.586-0.339c-0.25-0.047-0.449-0.152-0.597-0.314c-0.146-0.161-0.22-0.342-0.22-0.539
					c0-0.324,0.142-0.613,0.425-0.869c0.284-0.255,0.662-0.383,1.133-0.383c0.171,0,0.311,0.018,0.42,0.052s0.215,0.088,0.318,0.161
					H22.597z M19.774,26.799c-0.185,0.084-0.324,0.192-0.418,0.324c-0.095,0.133-0.142,0.263-0.142,0.391
					c0,0.15,0.068,0.274,0.205,0.372c0.196,0.142,0.483,0.212,0.861,0.212c0.326,0,0.604-0.056,0.835-0.166
					c0.231-0.11,0.347-0.253,0.347-0.429c0-0.089-0.042-0.173-0.128-0.253c-0.085-0.08-0.251-0.145-0.497-0.195
					C20.703,27.027,20.348,26.942,19.774,26.799z M21.411,24.454c0-0.183-0.051-0.326-0.152-0.431
					c-0.101-0.104-0.234-0.157-0.398-0.157c-0.257,0-0.47,0.129-0.637,0.388c-0.168,0.259-0.251,0.528-0.251,0.809
					c0,0.176,0.054,0.319,0.161,0.431s0.237,0.167,0.39,0.167c0.121,0,0.237-0.032,0.351-0.099c0.112-0.066,0.208-0.157,0.285-0.273
					s0.139-0.265,0.185-0.444S21.411,24.534,21.411,24.454z"/>
			</g>
			<g>
				<path d="M52.435,16.012l-0.676,2.396c-0.046,0.162-0.068,0.259-0.068,0.291c0,0.037,0.011,0.066,0.032,0.088
					c0.021,0.023,0.047,0.035,0.077,0.035c0.033,0,0.074-0.019,0.123-0.055c0.129-0.103,0.261-0.249,0.393-0.438l0.119,0.079
					c-0.154,0.237-0.337,0.437-0.547,0.598c-0.154,0.121-0.303,0.182-0.443,0.182c-0.094,0-0.17-0.028-0.229-0.084
					s-0.089-0.126-0.089-0.21s0.028-0.225,0.086-0.42l0.443-1.531c0.073-0.25,0.109-0.408,0.109-0.472
					c0-0.05-0.018-0.091-0.053-0.123s-0.084-0.048-0.145-0.048c-0.051,0-0.154,0.013-0.312,0.038v-0.133L52.435,16.012z
					 M52.391,14.655c0.096,0,0.177,0.033,0.243,0.099c0.065,0.066,0.099,0.147,0.099,0.243c0,0.093-0.033,0.174-0.101,0.241
					c-0.067,0.067-0.147,0.101-0.241,0.101s-0.174-0.034-0.241-0.101c-0.067-0.067-0.101-0.148-0.101-0.241
					c0-0.096,0.033-0.177,0.099-0.243C52.214,14.688,52.295,14.655,52.391,14.655z"/>
			</g>
			<g>
				<path d="M53.364,1.383l1.433,3.633l0.776-2.714c0.063-0.223,0.096-0.396,0.096-0.52c0-0.084-0.03-0.15-0.09-0.198
					c-0.059-0.048-0.169-0.072-0.331-0.072c-0.027,0-0.056-0.001-0.085-0.003L55.2,1.383h1.49l-0.041,0.126
					c-0.155-0.002-0.27,0.014-0.346,0.048c-0.106,0.048-0.187,0.109-0.238,0.185c-0.073,0.107-0.147,0.294-0.223,0.561l-1.09,3.821
					H54.63l-1.542-3.91l-0.823,2.888c-0.063,0.219-0.093,0.386-0.093,0.502c0,0.086,0.028,0.152,0.084,0.197
					c0.056,0.044,0.188,0.074,0.397,0.09L52.62,6.018h-1.457l0.049-0.126c0.182-0.004,0.304-0.021,0.365-0.048
					c0.094-0.041,0.163-0.095,0.209-0.161c0.065-0.1,0.14-0.294,0.222-0.581l0.919-3.223c-0.088-0.137-0.184-0.231-0.285-0.282
					c-0.102-0.052-0.259-0.081-0.473-0.087l0.037-0.126H53.364z"/>
			</g>
			<g>
				<path d="M73.437,13.792l-0.676,2.396c-0.046,0.162-0.068,0.259-0.068,0.291c0,0.037,0.011,0.066,0.032,0.089
					s0.047,0.034,0.077,0.034c0.033,0,0.074-0.018,0.123-0.055c0.129-0.103,0.261-0.249,0.393-0.438l0.119,0.079
					c-0.154,0.237-0.337,0.437-0.547,0.598c-0.154,0.121-0.303,0.181-0.443,0.181c-0.094,0-0.17-0.028-0.229-0.084
					c-0.06-0.056-0.089-0.125-0.089-0.21s0.028-0.225,0.086-0.42l0.443-1.531c0.073-0.25,0.109-0.408,0.109-0.472
					c0-0.05-0.018-0.091-0.053-0.123s-0.084-0.048-0.145-0.048c-0.051,0-0.154,0.013-0.312,0.038v-0.133L73.437,13.792z
					 M73.393,12.435c0.096,0,0.177,0.033,0.243,0.099c0.065,0.066,0.099,0.147,0.099,0.243c0,0.093-0.033,0.174-0.101,0.241
					c-0.067,0.067-0.147,0.101-0.241,0.101s-0.174-0.034-0.241-0.101c-0.067-0.067-0.101-0.148-0.101-0.241
					c0-0.096,0.033-0.177,0.099-0.243C73.216,12.468,73.297,12.435,73.393,12.435z"/>
			</g>
			<g>
				<path d="M56.685,35.429c-0.236,0.285-0.476,0.494-0.717,0.627c-0.242,0.134-0.497,0.2-0.766,0.2
					c-0.324,0-0.576-0.091-0.758-0.273c-0.181-0.183-0.271-0.428-0.271-0.734c0-0.35,0.098-0.692,0.292-1.029
					c0.195-0.337,0.457-0.611,0.786-0.822s0.652-0.316,0.969-0.316c0.249,0,0.435,0.053,0.558,0.156s0.185,0.23,0.185,0.381
					c0,0.142-0.043,0.262-0.13,0.362c-0.063,0.077-0.143,0.116-0.235,0.116c-0.071,0-0.13-0.022-0.177-0.068
					s-0.069-0.103-0.069-0.171c0-0.043,0.008-0.083,0.025-0.12c0.017-0.036,0.052-0.08,0.105-0.131
					c0.054-0.052,0.086-0.089,0.098-0.111s0.018-0.047,0.018-0.072c0-0.047-0.022-0.087-0.065-0.119
					c-0.066-0.046-0.159-0.068-0.28-0.068c-0.224,0-0.444,0.078-0.663,0.236c-0.219,0.156-0.405,0.38-0.561,0.67
					c-0.187,0.351-0.28,0.701-0.28,1.053c0,0.232,0.066,0.416,0.198,0.552s0.313,0.203,0.54,0.203c0.176,0,0.35-0.044,0.521-0.132
					s0.365-0.246,0.579-0.477L56.685,35.429z"/>
				<path d="M60.355,33.162l-0.595,2.037c-0.089,0.304-0.133,0.495-0.133,0.574c0,0.041,0.007,0.071,0.021,0.091
					s0.035,0.029,0.061,0.029c0.038,0,0.081-0.018,0.128-0.053s0.164-0.177,0.354-0.423l0.103,0.079
					c-0.18,0.285-0.364,0.494-0.554,0.629c-0.125,0.087-0.246,0.13-0.362,0.13c-0.089,0-0.158-0.025-0.209-0.075
					c-0.05-0.05-0.074-0.115-0.074-0.194c0-0.078,0.015-0.181,0.044-0.309c0.036-0.168,0.14-0.535,0.312-1.1
					c-0.388,0.635-0.712,1.074-0.973,1.315s-0.503,0.362-0.727,0.362c-0.104,0-0.193-0.036-0.267-0.109s-0.109-0.165-0.109-0.277
					c0-0.17,0.05-0.433,0.15-0.785l0.298-1.057c0.072-0.253,0.109-0.41,0.109-0.472c0-0.027-0.01-0.051-0.029-0.07
					s-0.041-0.028-0.063-0.028c-0.048,0-0.096,0.017-0.144,0.051s-0.156,0.16-0.324,0.379l-0.106-0.074
					c0.171-0.265,0.353-0.46,0.544-0.585c0.146-0.098,0.279-0.147,0.402-0.147c0.085,0,0.153,0.027,0.207,0.081
					s0.08,0.122,0.08,0.206c0,0.123-0.045,0.344-0.137,0.66l-0.32,1.104c-0.09,0.301-0.134,0.491-0.134,0.571
					c0,0.043,0.015,0.078,0.043,0.104s0.066,0.039,0.114,0.039c0.075,0,0.173-0.037,0.294-0.113c0.121-0.074,0.282-0.241,0.483-0.5
					c0.202-0.259,0.368-0.502,0.499-0.729s0.271-0.587,0.419-1.082l0.075-0.26H60.355z"/>
				<path d="M60.897,33.271l1.18-0.191l-0.492,1.662c0.398-0.682,0.761-1.158,1.087-1.43c0.185-0.154,0.335-0.232,0.451-0.232
					c0.075,0,0.135,0.022,0.178,0.067c0.043,0.044,0.065,0.108,0.065,0.192c0,0.15-0.039,0.295-0.117,0.432
					c-0.055,0.102-0.133,0.153-0.235,0.153c-0.053,0-0.098-0.017-0.135-0.052c-0.038-0.033-0.062-0.086-0.07-0.156
					c-0.005-0.044-0.015-0.072-0.03-0.086c-0.019-0.019-0.04-0.027-0.065-0.027c-0.039,0-0.075,0.009-0.109,0.027
					c-0.06,0.032-0.149,0.121-0.271,0.267c-0.188,0.224-0.394,0.513-0.615,0.868c-0.096,0.15-0.178,0.32-0.246,0.51
					c-0.096,0.26-0.15,0.415-0.164,0.468l-0.109,0.431h-0.522l0.632-2.123c0.073-0.246,0.109-0.421,0.109-0.525
					c0-0.041-0.017-0.076-0.051-0.104c-0.046-0.036-0.105-0.055-0.182-0.055c-0.047,0-0.135,0.011-0.263,0.031L60.897,33.271z"/>
				<path d="M63.595,33.271l1.179-0.191l-0.492,1.662c0.398-0.682,0.761-1.158,1.087-1.43c0.185-0.154,0.335-0.232,0.451-0.232
					c0.075,0,0.135,0.022,0.178,0.067c0.043,0.044,0.064,0.108,0.064,0.192c0,0.15-0.038,0.295-0.115,0.432
					c-0.055,0.102-0.134,0.153-0.236,0.153c-0.053,0-0.098-0.017-0.135-0.052c-0.038-0.033-0.062-0.086-0.07-0.156
					c-0.005-0.044-0.015-0.072-0.031-0.086c-0.018-0.019-0.039-0.027-0.064-0.027c-0.039,0-0.075,0.009-0.109,0.027
					c-0.06,0.032-0.149,0.121-0.27,0.267c-0.189,0.224-0.395,0.513-0.615,0.868c-0.096,0.15-0.178,0.32-0.246,0.51
					c-0.096,0.26-0.15,0.415-0.164,0.468l-0.109,0.431h-0.523l0.633-2.123c0.072-0.246,0.109-0.421,0.109-0.525
					c0-0.041-0.018-0.076-0.052-0.104c-0.046-0.036-0.106-0.055-0.181-0.055c-0.049,0-0.136,0.011-0.264,0.031L63.595,33.271z"/>
			</g>
			<g>
				<path d="M58.196,7.29c-0.17,0.204-0.341,0.353-0.514,0.448c-0.172,0.095-0.354,0.143-0.547,0.143
					c-0.23,0-0.411-0.065-0.54-0.195c-0.13-0.13-0.194-0.305-0.194-0.525c0-0.249,0.069-0.494,0.209-0.735
					c0.139-0.241,0.326-0.437,0.562-0.587c0.235-0.151,0.466-0.226,0.692-0.226c0.177,0,0.31,0.037,0.397,0.111
					c0.088,0.074,0.132,0.165,0.132,0.272c0,0.101-0.031,0.187-0.093,0.259c-0.046,0.055-0.102,0.083-0.169,0.083
					c-0.05,0-0.092-0.016-0.125-0.049s-0.051-0.073-0.051-0.122c0-0.031,0.007-0.06,0.019-0.085
					c0.013-0.026,0.038-0.057,0.076-0.094c0.038-0.036,0.062-0.063,0.069-0.079s0.012-0.033,0.012-0.051
					c0-0.034-0.015-0.063-0.046-0.085c-0.047-0.033-0.114-0.049-0.2-0.049c-0.159,0-0.317,0.056-0.474,0.168s-0.29,0.272-0.4,0.479
					c-0.134,0.25-0.2,0.501-0.2,0.752c0,0.166,0.047,0.297,0.142,0.394c0.095,0.097,0.223,0.146,0.386,0.146
					c0.125,0,0.249-0.031,0.372-0.094c0.123-0.063,0.261-0.176,0.414-0.341L58.196,7.29z"/>
				<path d="M60.813,5.671l-0.425,1.455c-0.063,0.216-0.096,0.353-0.096,0.41c0,0.029,0.006,0.051,0.017,0.065
					c0.011,0.014,0.024,0.021,0.042,0.021c0.028,0,0.059-0.013,0.092-0.038c0.033-0.025,0.118-0.125,0.253-0.301l0.073,0.056
					c-0.129,0.204-0.261,0.353-0.396,0.449c-0.09,0.062-0.176,0.093-0.259,0.093c-0.063,0-0.113-0.018-0.148-0.054
					c-0.036-0.036-0.055-0.082-0.055-0.139c0-0.055,0.011-0.128,0.032-0.22c0.026-0.121,0.101-0.382,0.222-0.786
					c-0.276,0.454-0.508,0.768-0.694,0.94s-0.359,0.259-0.519,0.259c-0.075,0-0.139-0.026-0.19-0.078s-0.078-0.118-0.078-0.198
					c0-0.122,0.036-0.309,0.107-0.562l0.212-0.754c0.053-0.181,0.078-0.293,0.078-0.337c0-0.02-0.007-0.036-0.021-0.05
					c-0.014-0.014-0.028-0.021-0.045-0.021c-0.034,0-0.068,0.012-0.103,0.037s-0.111,0.115-0.232,0.271l-0.075-0.054
					c0.122-0.189,0.251-0.328,0.388-0.417c0.104-0.07,0.201-0.105,0.289-0.105c0.06,0,0.109,0.019,0.147,0.057
					c0.038,0.039,0.058,0.088,0.058,0.148c0,0.088-0.033,0.245-0.098,0.471l-0.23,0.789c-0.063,0.215-0.095,0.351-0.095,0.408
					c0,0.031,0.01,0.056,0.03,0.074c0.021,0.019,0.048,0.028,0.082,0.028c0.054,0,0.124-0.027,0.21-0.081s0.201-0.173,0.346-0.358
					c0.144-0.185,0.263-0.358,0.356-0.52c0.094-0.162,0.193-0.42,0.299-0.773l0.054-0.186H60.813z"/>
				<path d="M61.194,5.75l0.843-0.137l-0.352,1.187c0.285-0.487,0.544-0.827,0.776-1.021c0.132-0.111,0.239-0.166,0.322-0.166
					c0.054,0,0.096,0.016,0.127,0.047c0.031,0.032,0.047,0.078,0.047,0.138c0,0.107-0.028,0.21-0.084,0.308
					c-0.039,0.073-0.095,0.11-0.168,0.11c-0.037,0-0.069-0.012-0.097-0.037c-0.026-0.024-0.043-0.062-0.05-0.112
					c-0.003-0.031-0.011-0.051-0.021-0.061c-0.014-0.013-0.029-0.02-0.047-0.02c-0.027,0-0.054,0.006-0.078,0.02
					c-0.042,0.023-0.106,0.086-0.193,0.19c-0.135,0.16-0.281,0.366-0.439,0.62c-0.068,0.107-0.127,0.229-0.176,0.364
					c-0.068,0.186-0.107,0.297-0.117,0.334l-0.078,0.308h-0.373l0.451-1.516c0.053-0.176,0.078-0.301,0.078-0.376
					c0-0.029-0.012-0.054-0.036-0.073c-0.032-0.026-0.075-0.039-0.13-0.039c-0.033,0-0.097,0.007-0.188,0.022L61.194,5.75z"/>
				<path d="M63.116,5.75l0.842-0.137l-0.352,1.187c0.285-0.487,0.544-0.827,0.776-1.021c0.132-0.111,0.239-0.166,0.322-0.166
					c0.054,0,0.096,0.016,0.127,0.047c0.031,0.032,0.046,0.078,0.046,0.138c0,0.107-0.027,0.21-0.082,0.308
					c-0.039,0.073-0.096,0.11-0.169,0.11c-0.037,0-0.069-0.012-0.097-0.037c-0.026-0.024-0.043-0.062-0.05-0.112
					c-0.003-0.031-0.011-0.051-0.022-0.061c-0.013-0.013-0.028-0.02-0.046-0.02c-0.027,0-0.054,0.006-0.078,0.02
					c-0.042,0.023-0.106,0.086-0.192,0.19c-0.136,0.16-0.282,0.366-0.439,0.62c-0.068,0.107-0.127,0.229-0.176,0.364
					c-0.068,0.186-0.107,0.297-0.117,0.334l-0.078,0.308h-0.374l0.452-1.516c0.052-0.176,0.078-0.301,0.078-0.376
					c0-0.029-0.013-0.054-0.037-0.073c-0.032-0.026-0.076-0.039-0.129-0.039c-0.035,0-0.098,0.007-0.188,0.022L63.116,5.75z"/>
			</g>
			<path d="M27.197,19.833h6.153V19.27h-6.153V19.833z M27.197,22.028h6.153v-0.564h-6.153V22.028z"/>
			<path d="M53.451,16.851h3.593v-0.329h-3.593V16.851z M53.451,18.133h3.593v-0.329h-3.593V18.133z"/>
			<path d="M49.759,15.009l-0.343-0.054c-0.144,0.594-0.324,1.044-0.54,1.333c-0.234,0.288-0.504,0.486-0.846,0.594
				c-0.486,0.162-0.937,0.234-1.351,0.234h-7.202l5.546-6.824l-4.97-6.068h6.536c0.647,0,1.152,0.18,1.494,0.522
				c0.36,0.342,0.594,0.918,0.685,1.729h0.359l-0.233-2.953H37.641v0.324l5.906,7.202l-5.906,7.292v0.324H49.2L49.759,15.009z"/>
			<g>
				<path d="M57.614,14.925l1.128-0.55h0.112v3.914c0,0.26,0.012,0.421,0.033,0.485c0.021,0.064,0.066,0.113,0.135,0.147
					s0.207,0.054,0.417,0.058v0.127h-1.743v-0.127c0.219-0.004,0.36-0.022,0.424-0.056s0.108-0.078,0.133-0.134
					c0.025-0.056,0.038-0.223,0.038-0.5v-2.502c0-0.337-0.012-0.554-0.034-0.649c-0.016-0.073-0.045-0.126-0.087-0.161
					s-0.093-0.051-0.152-0.051c-0.084,0-0.202,0.035-0.353,0.106L57.614,14.925z"/>
			</g>
		</g>
	</g>
</g>
</svg>
