<?xml version="1.0" encoding="utf-8"?>
<!-- Generator: Adobe Illustrator 14.0.0, SVG Export Plug-In . SVG Version: 6.00 Build 43363)  -->
<!DOCTYPE svg PUBLIC "-//W3C//DTD SVG 1.1//EN" "http://www.w3.org/Graphics/SVG/1.1/DTD/svg11.dtd">
<svg version="1.1" xmlns="http://www.w3.org/2000/svg" xmlns:xlink="http://www.w3.org/1999/xlink" x="0px" y="0px"
	 width="17.301px" height="16.5px" viewBox="0 0 17.301 16.5" style="enable-background:new 0 0 17.301 16.5;" xml:space="preserve"
	>
<g id="Layer_1">
</g>
<g id="Layer_2">
	<g id="theGroup">
		<g>
			<g>
				<path d="M5.672,4.851L5.567,5.237H4.711L4.067,7.798C3.782,8.927,3.495,9.8,3.206,10.417c-0.41,0.871-0.852,1.473-1.324,1.805
					c-0.359,0.254-0.719,0.381-1.078,0.381c-0.234,0-0.434-0.07-0.598-0.211c-0.121-0.098-0.182-0.225-0.182-0.381
					c0-0.125,0.05-0.233,0.149-0.325s0.222-0.138,0.366-0.138c0.105,0,0.194,0.033,0.267,0.1s0.108,0.143,0.108,0.229
					s-0.041,0.166-0.123,0.24c-0.063,0.055-0.094,0.096-0.094,0.123c0,0.035,0.014,0.063,0.041,0.082
					c0.035,0.027,0.09,0.041,0.164,0.041c0.168,0,0.345-0.053,0.53-0.158s0.351-0.263,0.495-0.472s0.281-0.511,0.41-0.905
					c0.055-0.164,0.201-0.705,0.439-1.623l1.02-3.967h-1.02L2.86,4.851c0.324,0,0.551-0.022,0.68-0.067s0.247-0.131,0.354-0.258
					s0.247-0.364,0.419-0.712c0.23-0.469,0.451-0.832,0.662-1.09c0.289-0.348,0.593-0.608,0.911-0.782s0.618-0.261,0.899-0.261
					c0.297,0,0.535,0.075,0.715,0.226S7.77,2.22,7.77,2.396c0,0.137-0.045,0.252-0.135,0.346S7.43,2.882,7.29,2.882
					c-0.121,0-0.22-0.035-0.296-0.105S6.879,2.622,6.879,2.524c0-0.063,0.025-0.14,0.076-0.231S7.032,2.14,7.032,2.108
					c0-0.055-0.018-0.096-0.053-0.123C6.928,1.946,6.854,1.927,6.756,1.927c-0.246,0-0.467,0.078-0.662,0.234
					C5.833,2.368,5.598,2.692,5.391,3.134c-0.105,0.23-0.299,0.803-0.58,1.717H5.672z"/>
			</g>
			<g>
				<path d="M9.132,11.081c0,0.342-0.09,0.68-0.272,1.016c-0.181,0.334-0.433,0.6-0.757,0.796s-0.638,0.294-0.943,0.294
					c-0.312,0-0.567-0.1-0.764-0.299C6.199,12.688,6.1,12.43,6.1,12.113c0-0.335,0.096-0.671,0.289-1.009
					c0.192-0.337,0.45-0.604,0.772-0.799c0.322-0.196,0.634-0.295,0.935-0.295s0.549,0.1,0.743,0.298
					C9.035,10.507,9.132,10.765,9.132,11.081z M8.564,10.845c0-0.211-0.052-0.374-0.156-0.486c-0.104-0.113-0.237-0.17-0.401-0.17
					c-0.335,0-0.643,0.24-0.925,0.72c-0.281,0.479-0.422,0.957-0.422,1.431c0,0.217,0.055,0.384,0.164,0.501
					s0.247,0.176,0.414,0.176c0.321,0,0.623-0.238,0.904-0.716C8.424,11.822,8.564,11.337,8.564,10.845z"/>
				<path d="M10.944,10.011l-0.236,0.787c0.248-0.292,0.469-0.496,0.664-0.612s0.395-0.175,0.598-0.175
					c0.201,0,0.375,0.081,0.52,0.241c0.143,0.161,0.215,0.37,0.215,0.628c0,0.501-0.205,1.011-0.611,1.529
					c-0.408,0.519-0.885,0.777-1.426,0.777c-0.115,0-0.215-0.013-0.303-0.037c-0.088-0.025-0.186-0.07-0.295-0.134l-0.25,0.882
					c-0.05,0.173-0.075,0.286-0.075,0.338c0,0.051,0.013,0.094,0.039,0.129s0.069,0.063,0.128,0.082
					c0.06,0.02,0.177,0.029,0.353,0.029l-0.03,0.126h-1.61l0.034-0.126c0.212-0.01,0.355-0.046,0.429-0.109
					c0.074-0.064,0.152-0.241,0.234-0.53l0.864-2.994c0.053-0.189,0.079-0.307,0.079-0.353c0-0.061-0.018-0.109-0.053-0.143
					c-0.035-0.035-0.09-0.052-0.163-0.052c-0.065,0-0.158,0.008-0.276,0.024v-0.134L10.944,10.011z M10.147,12.745
					c0.142,0.169,0.332,0.254,0.571,0.254c0.119,0,0.24-0.033,0.363-0.1s0.242-0.164,0.359-0.294s0.223-0.279,0.316-0.449
					s0.178-0.37,0.252-0.601c0.074-0.229,0.111-0.457,0.111-0.684c0-0.182-0.043-0.321-0.125-0.418
					c-0.084-0.097-0.182-0.146-0.293-0.146c-0.246,0-0.49,0.142-0.73,0.424s-0.416,0.613-0.528,0.991L10.147,12.745z"/>
				<path d="M14.714,9.163l-0.268,0.93h0.537l-0.059,0.216h-0.533l-0.588,2.017c-0.063,0.217-0.096,0.356-0.096,0.42
					c0,0.039,0.01,0.068,0.027,0.09c0.02,0.02,0.041,0.03,0.066,0.03c0.057,0,0.131-0.04,0.225-0.12
					c0.055-0.045,0.176-0.186,0.365-0.42l0.113,0.086c-0.209,0.305-0.408,0.521-0.594,0.646c-0.129,0.087-0.258,0.13-0.387,0.13
					c-0.102,0-0.184-0.031-0.246-0.094c-0.064-0.063-0.096-0.144-0.096-0.241c0-0.123,0.035-0.312,0.109-0.563l0.57-1.979h-0.516
					l0.033-0.134c0.252-0.068,0.459-0.17,0.627-0.306c0.166-0.136,0.352-0.37,0.557-0.706H14.714z"/>
			</g>
			<g>
				<path d="M17.05,12.718l-0.633,2.185c-0.111,0.391-0.266,0.672-0.463,0.845c-0.195,0.173-0.408,0.259-0.635,0.259
					c-0.104,0-0.182-0.023-0.234-0.071c-0.053-0.047-0.078-0.103-0.078-0.168c0-0.051,0.02-0.095,0.059-0.133
					c0.041-0.038,0.086-0.058,0.139-0.058c0.047,0,0.088,0.016,0.125,0.046c0.029,0.025,0.043,0.053,0.043,0.084
					c0,0.042-0.02,0.078-0.061,0.109c-0.023,0.018-0.033,0.032-0.033,0.044l0.004,0.013c0.006,0.006,0.012,0.011,0.021,0.014
					c0.01,0.004,0.025,0.006,0.045,0.006c0.131,0,0.244-0.042,0.338-0.126s0.178-0.251,0.25-0.502l0.547-1.875
					c0.055-0.184,0.08-0.286,0.08-0.306c0-0.039-0.018-0.073-0.053-0.104s-0.078-0.046-0.133-0.046
					c-0.021,0-0.045,0.002-0.072,0.007c-0.021,0.003-0.053,0.008-0.094,0.015v-0.086L17.05,12.718z M17.011,11.751
					c0.068,0,0.127,0.023,0.174,0.071c0.049,0.048,0.072,0.106,0.072,0.175s-0.023,0.127-0.072,0.175
					c-0.047,0.048-0.105,0.071-0.174,0.071s-0.127-0.023-0.174-0.071c-0.049-0.048-0.072-0.106-0.072-0.175s0.023-0.127,0.072-0.175
					C16.884,11.774,16.942,11.751,17.011,11.751z"/>
			</g>
		</g>
	</g>
</g>
</svg>
