<?xml version="1.0" encoding="utf-8"?>
<!-- Generator: Adobe Illustrator 14.0.0, SVG Export Plug-In . SVG Version: 6.00 Build 43363)  -->
<!DOCTYPE svg PUBLIC "-//W3C//DTD SVG 1.1//EN" "http://www.w3.org/Graphics/SVG/1.1/DTD/svg11.dtd">
<svg version="1.1" xmlns="http://www.w3.org/2000/svg" xmlns:xlink="http://www.w3.org/1999/xlink" x="0px" y="0px"
	 width="82.129px" height="35.328px" viewBox="0 0 82.129 35.328" style="enable-background:new 0 0 82.129 35.328;"
	 xml:space="preserve">
<g id="Layer_1">
</g>
<g id="Layer_2">
	<g id="theGroup">
		<g>
			
				<line style="fill:none;stroke:#000000;stroke-width:0.5;stroke-miterlimit:10;" x1="31.977" y1="17.595" x2="65.978" y2="17.595"/>
			<g>
				<path d="M5.752,15.433l-0.105,0.387H4.792L4.147,18.38c-0.285,1.129-0.572,2.002-0.861,2.619
					c-0.41,0.871-0.852,1.473-1.324,1.805c-0.359,0.254-0.719,0.381-1.078,0.381c-0.234,0-0.434-0.07-0.598-0.211
					c-0.121-0.098-0.182-0.225-0.182-0.381c0-0.125,0.05-0.233,0.149-0.325S0.475,22.13,0.62,22.13c0.105,0,0.194,0.033,0.267,0.1
					s0.108,0.143,0.108,0.229s-0.041,0.166-0.123,0.24c-0.063,0.055-0.094,0.096-0.094,0.123c0,0.035,0.014,0.063,0.041,0.082
					c0.035,0.027,0.09,0.041,0.164,0.041c0.168,0,0.345-0.053,0.53-0.158s0.351-0.263,0.495-0.472s0.281-0.511,0.41-0.905
					c0.055-0.164,0.201-0.705,0.439-1.623l1.02-3.967h-1.02l0.082-0.387c0.324,0,0.551-0.022,0.68-0.067s0.247-0.131,0.354-0.258
					s0.247-0.364,0.419-0.712c0.23-0.469,0.451-0.832,0.662-1.09c0.289-0.348,0.593-0.608,0.911-0.782s0.618-0.261,0.899-0.261
					c0.297,0,0.535,0.075,0.715,0.226s0.27,0.313,0.27,0.489c0,0.137-0.045,0.252-0.135,0.346S7.51,13.464,7.37,13.464
					c-0.121,0-0.22-0.035-0.296-0.105s-0.114-0.154-0.114-0.252c0-0.063,0.025-0.14,0.076-0.231s0.076-0.153,0.076-0.185
					c0-0.055-0.018-0.096-0.053-0.123c-0.051-0.039-0.125-0.059-0.223-0.059c-0.246,0-0.467,0.078-0.662,0.234
					c-0.262,0.207-0.496,0.531-0.703,0.973c-0.105,0.23-0.299,0.803-0.58,1.717H5.752z"/>
			</g>
			<g>
				<path d="M48.628,1.761l-2.016,6.914c-0.109,0.375-0.164,0.621-0.164,0.738c0,0.039,0.016,0.076,0.049,0.111
					s0.068,0.053,0.104,0.053c0.051,0,0.111-0.025,0.182-0.076c0.133-0.094,0.355-0.328,0.668-0.703l0.199,0.123
					c-0.281,0.391-0.566,0.707-0.854,0.949s-0.555,0.363-0.805,0.363c-0.133,0-0.242-0.047-0.328-0.141s-0.129-0.227-0.129-0.398
					c0-0.223,0.059-0.521,0.176-0.896l0.229-0.727c-0.566,0.875-1.082,1.48-1.547,1.816c-0.32,0.23-0.627,0.346-0.92,0.346
					c-0.297,0-0.557-0.132-0.777-0.396c-0.22-0.264-0.331-0.622-0.331-1.075c0-0.582,0.186-1.203,0.557-1.863
					c0.371-0.66,0.861-1.197,1.471-1.611c0.48-0.332,0.922-0.498,1.324-0.498c0.211,0,0.393,0.043,0.545,0.129
					s0.303,0.229,0.451,0.428l0.574-2.039c0.043-0.145,0.078-0.26,0.105-0.346c0.047-0.156,0.07-0.285,0.07-0.387
					c0-0.082-0.029-0.15-0.088-0.205c-0.082-0.066-0.188-0.1-0.316-0.1c-0.09,0-0.238,0.014-0.445,0.041V2.095L48.628,1.761z
					 M46.454,5.921c0-0.25-0.072-0.451-0.217-0.604s-0.328-0.229-0.551-0.229c-0.492,0-1.006,0.406-1.539,1.219
					s-0.799,1.59-0.799,2.332c0,0.293,0.064,0.517,0.193,0.671s0.283,0.231,0.463,0.231c0.406,0,0.916-0.439,1.529-1.318
					S46.454,6.577,46.454,5.921z"/>
			</g>
			<g>
				<path d="M37.051,22.452l-0.908,3.141h0.744c0.531,0,0.916-0.081,1.154-0.243s0.443-0.462,0.615-0.899h0.217l-0.814,2.883h-0.234
					c0.07-0.242,0.105-0.449,0.105-0.621c0-0.168-0.034-0.303-0.103-0.404s-0.162-0.177-0.281-0.226s-0.37-0.073-0.753-0.073h-0.756
					L35.27,28.64c-0.074,0.254-0.111,0.447-0.111,0.58c0,0.102,0.049,0.191,0.146,0.27c0.066,0.055,0.232,0.082,0.498,0.082h0.703
					c0.762,0,1.372-0.135,1.831-0.404s0.87-0.738,1.233-1.406h0.217l-0.75,2.209h-6.141l0.076-0.217
					c0.305-0.008,0.51-0.035,0.615-0.082c0.156-0.07,0.27-0.16,0.34-0.27c0.105-0.16,0.23-0.496,0.375-1.008l1.395-4.793
					c0.109-0.387,0.164-0.682,0.164-0.885c0-0.148-0.052-0.265-0.155-0.349s-0.306-0.126-0.606-0.126h-0.123l0.07-0.217h5.707
					l-0.492,1.916h-0.217c0.027-0.18,0.041-0.33,0.041-0.451c0-0.207-0.051-0.381-0.152-0.521c-0.133-0.18-0.326-0.316-0.58-0.41
					c-0.188-0.07-0.619-0.105-1.295-0.105H37.051z"/>
				<path d="M58.126,22.446l-0.938,3.146h1.043c0.469,0,0.82-0.072,1.053-0.217s0.471-0.453,0.717-0.926h0.223l-0.826,2.895h-0.234
					c0.059-0.234,0.088-0.428,0.088-0.58c0-0.238-0.078-0.423-0.236-0.554s-0.455-0.196-0.889-0.196h-1.055l-0.691,2.396
					c-0.125,0.426-0.188,0.709-0.188,0.85c0,0.145,0.055,0.256,0.162,0.334s0.369,0.131,0.787,0.158l-0.07,0.217h-3.141l0.076-0.217
					c0.305-0.008,0.508-0.035,0.609-0.082c0.156-0.066,0.271-0.156,0.346-0.27c0.105-0.16,0.23-0.49,0.375-0.99l1.4-4.787
					c0.113-0.387,0.17-0.689,0.17-0.908c0-0.102-0.025-0.188-0.076-0.261s-0.125-0.126-0.225-0.161s-0.299-0.053-0.596-0.053
					l0.07-0.217h6.164l-0.586,2.01h-0.223c0.043-0.242,0.064-0.441,0.064-0.598c0-0.258-0.07-0.462-0.213-0.612
					s-0.326-0.257-0.549-0.319c-0.156-0.039-0.506-0.059-1.049-0.059H58.126z"/>
			</g>
			<g>
				<path d="M9.216,21.663c0,0.342-0.09,0.68-0.272,1.016c-0.181,0.334-0.433,0.6-0.757,0.796s-0.638,0.294-0.943,0.294
					c-0.312,0-0.567-0.1-0.764-0.299c-0.197-0.199-0.296-0.458-0.296-0.774c0-0.335,0.096-0.671,0.289-1.009
					c0.192-0.337,0.45-0.604,0.772-0.799c0.322-0.196,0.634-0.295,0.935-0.295s0.549,0.1,0.743,0.298
					C9.119,21.089,9.216,21.347,9.216,21.663z M8.648,21.427c0-0.211-0.052-0.374-0.156-0.486c-0.104-0.113-0.237-0.17-0.401-0.17
					c-0.335,0-0.643,0.24-0.925,0.72c-0.281,0.479-0.422,0.957-0.422,1.431c0,0.217,0.055,0.384,0.164,0.501
					s0.247,0.176,0.414,0.176c0.321,0,0.623-0.238,0.904-0.716C8.508,22.404,8.648,21.919,8.648,21.427z"/>
				<path d="M11.027,20.593l-0.236,0.787c0.249-0.292,0.47-0.496,0.665-0.612c0.194-0.116,0.394-0.175,0.596-0.175
					s0.376,0.081,0.52,0.241c0.144,0.161,0.215,0.37,0.215,0.628c0,0.501-0.204,1.011-0.612,1.529s-0.883,0.777-1.425,0.777
					c-0.114,0-0.215-0.013-0.303-0.037c-0.087-0.025-0.186-0.07-0.295-0.134l-0.25,0.882c-0.05,0.173-0.075,0.286-0.075,0.338
					c0,0.051,0.013,0.094,0.039,0.129c0.026,0.035,0.069,0.063,0.128,0.082s0.177,0.029,0.352,0.029l-0.031,0.126h-1.61l0.034-0.126
					c0.212-0.01,0.355-0.046,0.429-0.109c0.074-0.064,0.152-0.241,0.234-0.53l0.865-2.994c0.052-0.189,0.079-0.307,0.079-0.353
					c0-0.061-0.018-0.109-0.053-0.143c-0.036-0.035-0.09-0.052-0.163-0.052c-0.066,0-0.158,0.008-0.277,0.024v-0.134L11.027,20.593z
					 M10.231,23.327c0.141,0.169,0.332,0.254,0.571,0.254c0.119,0,0.239-0.033,0.362-0.1s0.243-0.164,0.361-0.294
					c0.117-0.13,0.223-0.279,0.316-0.449s0.177-0.37,0.251-0.601c0.074-0.229,0.111-0.457,0.111-0.684
					c0-0.182-0.042-0.321-0.125-0.418c-0.083-0.097-0.181-0.146-0.292-0.146c-0.246,0-0.489,0.142-0.73,0.424
					c-0.24,0.282-0.416,0.613-0.528,0.991L10.231,23.327z"/>
				<path d="M14.797,19.745l-0.267,0.93h0.537l-0.058,0.216h-0.533l-0.588,2.017c-0.064,0.217-0.096,0.356-0.096,0.42
					c0,0.039,0.009,0.068,0.027,0.09c0.018,0.02,0.04,0.03,0.065,0.03c0.057,0,0.132-0.04,0.226-0.12
					c0.055-0.045,0.177-0.186,0.366-0.42l0.113,0.086c-0.209,0.305-0.408,0.521-0.595,0.646c-0.127,0.087-0.256,0.13-0.386,0.13
					c-0.1,0-0.182-0.031-0.246-0.094s-0.096-0.144-0.096-0.241c0-0.123,0.037-0.312,0.109-0.563l0.571-1.979H13.43l0.034-0.134
					c0.25-0.068,0.459-0.17,0.625-0.306s0.352-0.37,0.557-0.706H14.797z"/>
			</g>
			<g>
				<path d="M51.298,10.087l-0.209,1.049h-0.125c-0.012-0.305-0.078-0.527-0.195-0.667c-0.119-0.139-0.266-0.208-0.441-0.208
					c-0.141,0-0.254,0.039-0.336,0.116c-0.084,0.078-0.125,0.171-0.125,0.28c0,0.075,0.016,0.147,0.049,0.215
					s0.105,0.164,0.217,0.287c0.297,0.324,0.488,0.567,0.574,0.731c0.088,0.164,0.131,0.319,0.131,0.465
					c0,0.237-0.1,0.447-0.297,0.63c-0.197,0.184-0.445,0.275-0.746,0.275c-0.164,0-0.354-0.039-0.566-0.116
					c-0.076-0.027-0.135-0.041-0.176-0.041c-0.102,0-0.18,0.052-0.232,0.157h-0.125l0.207-1.107h0.127
					c0.014,0.346,0.086,0.591,0.215,0.735c0.131,0.144,0.309,0.215,0.533,0.215c0.174,0,0.311-0.048,0.412-0.146
					c0.102-0.097,0.152-0.216,0.152-0.357c0-0.091-0.018-0.175-0.055-0.253c-0.064-0.137-0.197-0.326-0.402-0.567
					c-0.203-0.242-0.334-0.423-0.393-0.543s-0.086-0.242-0.086-0.362c0-0.221,0.08-0.408,0.24-0.561s0.367-0.229,0.621-0.229
					c0.072,0,0.139,0.006,0.197,0.017c0.031,0.007,0.107,0.032,0.225,0.077c0.117,0.044,0.195,0.066,0.234,0.066
					c0.098,0,0.18-0.054,0.246-0.161H51.298z"/>
			</g>
			<g>
				<path d="M43.419,29.968l-0.886,3.06c-0.157,0.547-0.373,0.941-0.647,1.183s-0.571,0.362-0.891,0.362
					c-0.144,0-0.252-0.033-0.326-0.099c-0.074-0.066-0.111-0.146-0.111-0.236c0-0.07,0.028-0.133,0.084-0.187s0.12-0.08,0.193-0.08
					c0.065,0,0.124,0.021,0.174,0.065c0.041,0.033,0.062,0.072,0.062,0.115c0,0.06-0.028,0.111-0.085,0.154
					c-0.032,0.025-0.049,0.046-0.049,0.062l0.008,0.017c0.006,0.01,0.017,0.017,0.03,0.021c0.014,0.004,0.034,0.006,0.062,0.006
					c0.185,0,0.343-0.059,0.474-0.176s0.247-0.352,0.351-0.702l0.766-2.625c0.074-0.258,0.111-0.399,0.111-0.427
					c0-0.055-0.023-0.104-0.072-0.147c-0.049-0.043-0.112-0.065-0.187-0.065c-0.029,0-0.063,0.004-0.103,0.011
					c-0.029,0.005-0.073,0.012-0.13,0.021v-0.119L43.419,29.968z M43.364,28.614c0.096,0,0.176,0.034,0.244,0.102
					c0.066,0.067,0.1,0.148,0.1,0.244s-0.033,0.177-0.1,0.244c-0.068,0.067-0.148,0.102-0.244,0.102s-0.178-0.034-0.246-0.102
					c-0.066-0.067-0.1-0.148-0.1-0.244s0.033-0.177,0.1-0.244C43.187,28.648,43.269,28.614,43.364,28.614z"/>
				<path d="M63.542,29.968l-0.885,3.06c-0.158,0.547-0.373,0.941-0.648,1.183c-0.273,0.241-0.57,0.362-0.891,0.362
					c-0.143,0-0.252-0.033-0.326-0.099c-0.074-0.066-0.111-0.146-0.111-0.236c0-0.07,0.029-0.133,0.084-0.187
					c0.057-0.054,0.121-0.08,0.193-0.08c0.066,0,0.125,0.021,0.174,0.065c0.041,0.033,0.063,0.072,0.063,0.115
					c0,0.06-0.029,0.111-0.086,0.154c-0.031,0.025-0.047,0.046-0.047,0.062l0.006,0.017c0.008,0.01,0.018,0.017,0.031,0.021
					c0.014,0.004,0.033,0.006,0.061,0.006c0.186,0,0.344-0.059,0.475-0.176s0.248-0.352,0.35-0.702l0.766-2.625
					c0.076-0.258,0.113-0.399,0.113-0.427c0-0.055-0.025-0.104-0.074-0.147s-0.111-0.065-0.186-0.065
					c-0.029,0-0.064,0.004-0.104,0.011c-0.029,0.005-0.072,0.012-0.129,0.021v-0.119L63.542,29.968z M63.487,28.614
					c0.096,0,0.178,0.034,0.244,0.102c0.068,0.067,0.102,0.148,0.102,0.244s-0.033,0.177-0.102,0.244
					c-0.066,0.067-0.148,0.102-0.244,0.102s-0.178-0.034-0.244-0.102c-0.068-0.067-0.102-0.148-0.102-0.244s0.033-0.177,0.102-0.244
					C63.31,28.648,63.392,28.614,63.487,28.614z"/>
			</g>
			<g>
				<path d="M17.13,23.282l-0.632,2.185c-0.112,0.391-0.267,0.672-0.463,0.845c-0.196,0.173-0.408,0.259-0.636,0.259
					c-0.103,0-0.18-0.023-0.233-0.071c-0.053-0.047-0.079-0.103-0.079-0.168c0-0.051,0.02-0.095,0.06-0.133
					c0.04-0.038,0.086-0.058,0.138-0.058c0.047,0,0.089,0.016,0.125,0.046c0.029,0.025,0.044,0.053,0.044,0.084
					c0,0.042-0.021,0.078-0.061,0.109c-0.023,0.018-0.034,0.032-0.034,0.044l0.005,0.013c0.005,0.006,0.012,0.011,0.022,0.014
					c0.01,0.004,0.024,0.006,0.044,0.006c0.132,0,0.245-0.042,0.338-0.126c0.094-0.084,0.177-0.251,0.25-0.502l0.547-1.875
					c0.054-0.184,0.081-0.286,0.081-0.306c0-0.039-0.018-0.073-0.053-0.104c-0.035-0.031-0.079-0.046-0.133-0.046
					c-0.021,0-0.045,0.002-0.073,0.007c-0.021,0.003-0.052,0.008-0.093,0.015v-0.086L17.13,23.282z M17.091,22.315
					c0.068,0,0.126,0.023,0.174,0.071c0.048,0.048,0.072,0.106,0.072,0.175s-0.024,0.127-0.072,0.175
					c-0.048,0.048-0.106,0.071-0.174,0.071s-0.126-0.023-0.174-0.071c-0.048-0.048-0.072-0.106-0.072-0.175s0.024-0.127,0.072-0.175
					C16.964,22.339,17.022,22.315,17.091,22.315z"/>
			</g>
			<g>
				<path d="M53.569,12.797l-0.633,2.185c-0.111,0.391-0.266,0.672-0.463,0.845c-0.195,0.172-0.408,0.259-0.635,0.259
					c-0.104,0-0.182-0.023-0.234-0.071s-0.078-0.104-0.078-0.168c0-0.05,0.02-0.095,0.059-0.133
					c0.041-0.039,0.086-0.058,0.139-0.058c0.047,0,0.088,0.016,0.125,0.046c0.029,0.024,0.043,0.052,0.043,0.083
					c0,0.042-0.02,0.079-0.061,0.11c-0.023,0.018-0.033,0.033-0.033,0.044l0.004,0.012c0.006,0.006,0.012,0.011,0.021,0.015
					s0.025,0.005,0.045,0.005c0.131,0,0.244-0.042,0.338-0.125c0.094-0.084,0.178-0.251,0.25-0.502l0.547-1.875
					c0.055-0.184,0.08-0.286,0.08-0.305c0-0.039-0.018-0.074-0.053-0.105s-0.078-0.046-0.133-0.046
					c-0.021,0-0.045,0.002-0.072,0.007c-0.021,0.003-0.053,0.008-0.094,0.015v-0.085L53.569,12.797z M53.53,11.831
					c0.068,0,0.127,0.024,0.174,0.072c0.049,0.048,0.072,0.106,0.072,0.175s-0.023,0.126-0.072,0.175
					c-0.047,0.048-0.105,0.072-0.174,0.072s-0.127-0.024-0.174-0.072c-0.049-0.048-0.072-0.106-0.072-0.175s0.023-0.126,0.072-0.175
					C53.403,11.854,53.462,11.831,53.53,11.831z"/>
			</g>
			<g>
				<path d="M22.631,16.147h6.152v0.568h-6.152V16.147z M22.631,18.333h6.152v0.58h-6.152V18.333z"/>
			</g>
			<g>
				<path d="M49.435,23.853c-0.016-0.27-0.07-0.537-0.164-0.803c-0.133-0.383-0.199-0.646-0.199-0.791
					c0-0.203,0.047-0.357,0.143-0.463s0.215-0.158,0.355-0.158c0.121,0,0.227,0.053,0.316,0.158s0.135,0.256,0.135,0.451
					c0,0.176-0.053,0.421-0.156,0.735s-0.166,0.604-0.189,0.87c0.215-0.137,0.408-0.303,0.58-0.498
					c0.266-0.309,0.463-0.5,0.592-0.574s0.26-0.111,0.393-0.111c0.129,0,0.236,0.044,0.324,0.132s0.133,0.192,0.133,0.313
					c0,0.145-0.064,0.273-0.193,0.387s-0.451,0.227-0.967,0.34c-0.301,0.066-0.551,0.143-0.75,0.229
					c0.203,0.105,0.451,0.186,0.744,0.24c0.473,0.086,0.781,0.193,0.928,0.322s0.221,0.27,0.221,0.422
					c0,0.117-0.045,0.219-0.133,0.305s-0.189,0.129-0.307,0.129s-0.248-0.041-0.391-0.123s-0.334-0.266-0.576-0.551
					c-0.16-0.191-0.359-0.371-0.598-0.539c0.008,0.223,0.053,0.465,0.135,0.727c0.141,0.461,0.211,0.775,0.211,0.943
					c0,0.156-0.047,0.288-0.141,0.396s-0.193,0.161-0.299,0.161c-0.145,0-0.275-0.057-0.393-0.17
					c-0.082-0.082-0.123-0.213-0.123-0.393c0-0.188,0.045-0.413,0.135-0.677s0.146-0.445,0.17-0.545s0.045-0.247,0.064-0.442
					c-0.23,0.152-0.432,0.322-0.604,0.51c-0.285,0.32-0.5,0.523-0.645,0.609c-0.102,0.063-0.207,0.094-0.316,0.094
					c-0.133,0-0.246-0.045-0.34-0.135s-0.141-0.189-0.141-0.299c0-0.098,0.039-0.2,0.119-0.308s0.201-0.196,0.361-0.267
					c0.105-0.047,0.346-0.109,0.721-0.188c0.242-0.051,0.479-0.125,0.709-0.223c-0.211-0.105-0.463-0.188-0.756-0.246
					c-0.48-0.102-0.777-0.193-0.891-0.275c-0.176-0.129-0.264-0.285-0.264-0.469c0-0.105,0.043-0.202,0.131-0.29
					s0.191-0.132,0.309-0.132c0.129,0,0.266,0.041,0.41,0.123s0.324,0.247,0.539,0.495S49.212,23.716,49.435,23.853z"/>
			</g>
		</g>
	</g>
</g>
</svg>
