<?xml version="1.0" encoding="utf-8"?>
<!-- Generator: Adobe Illustrator 14.0.0, SVG Export Plug-In . SVG Version: 6.00 Build 43363)  -->
<!DOCTYPE svg PUBLIC "-//W3C//DTD SVG 1.1//EN" "http://www.w3.org/Graphics/SVG/1.1/DTD/svg11.dtd">
<svg version="1.1" xmlns="http://www.w3.org/2000/svg" xmlns:xlink="http://www.w3.org/1999/xlink" x="0px" y="0px"
	 width="126.817px" height="37.428px" viewBox="0 0 126.817 37.428" style="enable-background:new 0 0 126.817 37.428;"
	 xml:space="preserve">
<g id="Layer_1">
</g>
<g id="Layer_2">
	<g id="theGroup">
		<g>
			
				<line style="fill:none;stroke:#000000;stroke-width:0.5;stroke-miterlimit:10;" x1="49.612" y1="18.718" x2="62.675" y2="18.718"/>
			<polyline points="41.487,22.401 43.15,20.306 45.749,29.497 48.688,2.343 110.175,2.343 110.175,2.937 49.22,2.937 46.044,32.28 
				45.447,32.28 42.487,21.81 41.813,22.659 			"/>
			<g>
				<path d="M6.212,13.591c0.527,0,0.994,0.114,1.4,0.343s0.725,0.566,0.955,1.014s0.346,0.911,0.346,1.392
					c0,0.852-0.247,1.745-0.741,2.681s-1.14,1.649-1.937,2.142s-1.621,0.738-2.473,0.738c-0.613,0-1.126-0.136-1.538-0.407
					s-0.717-0.63-0.914-1.075s-0.296-0.877-0.296-1.295c0-0.742,0.179-1.476,0.536-2.2s0.784-1.33,1.28-1.816
					s1.025-0.86,1.588-1.122S5.579,13.591,6.212,13.591z M6.013,13.966c-0.391,0-0.772,0.097-1.146,0.29s-0.743,0.51-1.11,0.949
					s-0.697,1.015-0.99,1.726c-0.359,0.875-0.539,1.701-0.539,2.479c0,0.555,0.143,1.046,0.428,1.474s0.723,0.642,1.313,0.642
					c0.355,0,0.704-0.088,1.046-0.264s0.698-0.477,1.069-0.902c0.465-0.535,0.855-1.218,1.172-2.048s0.475-1.604,0.475-2.323
					c0-0.531-0.143-1.001-0.428-1.409S6.587,13.966,6.013,13.966z"/>
				<path d="M67.391,16.415l-0.779,2.666c0.73-1.09,1.29-1.807,1.679-2.15s0.763-0.516,1.122-0.516c0.195,0,0.356,0.064,0.483,0.193
					s0.19,0.297,0.19,0.504c0,0.234-0.057,0.547-0.17,0.938l-0.715,2.467c-0.082,0.285-0.123,0.459-0.123,0.521
					c0,0.055,0.016,0.101,0.047,0.138s0.064,0.056,0.1,0.056c0.047,0,0.104-0.025,0.17-0.076c0.207-0.164,0.434-0.414,0.68-0.75
					l0.182,0.111c-0.363,0.52-0.707,0.891-1.031,1.113c-0.227,0.152-0.43,0.229-0.609,0.229c-0.145,0-0.26-0.044-0.346-0.132
					s-0.129-0.206-0.129-0.354c0-0.188,0.066-0.51,0.199-0.967l0.68-2.355c0.086-0.293,0.129-0.521,0.129-0.686
					c0-0.078-0.025-0.142-0.076-0.19s-0.113-0.073-0.188-0.073c-0.109,0-0.24,0.047-0.393,0.141c-0.289,0.176-0.59,0.466-0.902,0.87
					s-0.643,0.921-0.99,1.55c-0.184,0.332-0.336,0.695-0.457,1.09l-0.293,0.967h-0.879l1.066-3.668
					c0.125-0.441,0.188-0.707,0.188-0.797c0-0.086-0.034-0.161-0.103-0.226s-0.153-0.097-0.255-0.097
					c-0.047,0-0.129,0.008-0.246,0.023l-0.223,0.035l-0.035-0.211L67.391,16.415z"/>
			</g>
			<g>
				<path d="M96.511,16.415l-0.779,2.666c0.73-1.09,1.29-1.807,1.679-2.15s0.763-0.516,1.122-0.516c0.195,0,0.356,0.064,0.483,0.193
					s0.19,0.297,0.19,0.504c0,0.234-0.057,0.547-0.17,0.938l-0.715,2.467c-0.082,0.285-0.123,0.459-0.123,0.521
					c0,0.055,0.016,0.101,0.047,0.138s0.064,0.056,0.1,0.056c0.047,0,0.104-0.025,0.17-0.076c0.207-0.164,0.434-0.414,0.68-0.75
					l0.182,0.111c-0.363,0.52-0.707,0.891-1.031,1.113c-0.227,0.152-0.43,0.229-0.609,0.229c-0.145,0-0.26-0.044-0.346-0.132
					s-0.129-0.206-0.129-0.354c0-0.188,0.066-0.51,0.199-0.967l0.68-2.355c0.086-0.293,0.129-0.521,0.129-0.686
					c0-0.078-0.025-0.142-0.076-0.19s-0.113-0.073-0.188-0.073c-0.109,0-0.24,0.047-0.393,0.141c-0.289,0.176-0.59,0.466-0.902,0.87
					s-0.643,0.921-0.99,1.55c-0.184,0.332-0.336,0.695-0.457,1.09l-0.293,0.967h-0.879l1.066-3.668
					c0.125-0.441,0.188-0.707,0.188-0.797c0-0.086-0.034-0.161-0.103-0.226s-0.153-0.097-0.255-0.097
					c-0.047,0-0.129,0.008-0.246,0.023l-0.223,0.035l-0.035-0.211L96.511,16.415z"/>
			</g>
			<g>
				<path d="M17.767,18.372c-0.004,0.797,0.189,1.422,0.58,1.875s0.85,0.68,1.377,0.68c0.352,0,0.657-0.097,0.917-0.29
					s0.478-0.524,0.653-0.993l0.182,0.117c-0.082,0.535-0.32,1.022-0.715,1.462s-0.889,0.659-1.482,0.659
					c-0.645,0-1.196-0.251-1.655-0.753s-0.688-1.177-0.688-2.024c0-0.918,0.235-1.634,0.706-2.147s1.062-0.771,1.772-0.771
					c0.602,0,1.096,0.198,1.482,0.595s0.58,0.927,0.58,1.591H17.767z M17.767,18.032h2.484c-0.02-0.344-0.061-0.586-0.123-0.727
					c-0.098-0.219-0.243-0.391-0.437-0.516s-0.396-0.188-0.606-0.188c-0.324,0-0.614,0.126-0.87,0.378S17.81,17.583,17.767,18.032z"
					/>
				<path d="M21.89,16.351h2.525v0.217c-0.16,0-0.272,0.027-0.337,0.082s-0.097,0.127-0.097,0.217c0,0.094,0.068,0.238,0.205,0.434
					c0.043,0.063,0.107,0.16,0.193,0.293l0.381,0.609l0.439-0.609c0.281-0.387,0.422-0.631,0.422-0.732
					c0-0.082-0.033-0.151-0.1-0.208s-0.174-0.085-0.322-0.085v-0.217h1.816v0.217c-0.191,0.012-0.357,0.064-0.498,0.158
					c-0.191,0.133-0.453,0.422-0.785,0.867l-0.732,0.979l1.336,1.922c0.328,0.473,0.563,0.757,0.703,0.853s0.322,0.149,0.545,0.161
					v0.211h-2.531v-0.211c0.176,0,0.313-0.039,0.41-0.117c0.074-0.055,0.111-0.127,0.111-0.217s-0.125-0.316-0.375-0.68
					l-0.785-1.148l-0.861,1.148c-0.266,0.355-0.398,0.566-0.398,0.633c0,0.094,0.044,0.179,0.132,0.255s0.22,0.118,0.396,0.126
					v0.211h-1.752v-0.211c0.141-0.02,0.264-0.068,0.369-0.146c0.148-0.113,0.398-0.402,0.75-0.867l1.125-1.494l-1.02-1.477
					c-0.289-0.422-0.513-0.687-0.671-0.794s-0.356-0.161-0.595-0.161V16.351z"/>
			</g>
			<g>
				<path d="M27.728,16.884l1.652-0.668h0.223v1.254c0.277-0.473,0.556-0.804,0.835-0.993s0.573-0.284,0.882-0.284
					c0.539,0,0.988,0.211,1.348,0.633c0.441,0.516,0.662,1.188,0.662,2.016c0,0.926-0.266,1.691-0.797,2.297
					c-0.438,0.496-0.988,0.744-1.652,0.744c-0.289,0-0.539-0.041-0.75-0.123c-0.156-0.059-0.332-0.176-0.527-0.352v1.635
					c0,0.367,0.022,0.601,0.067,0.7s0.123,0.179,0.234,0.237s0.313,0.088,0.606,0.088v0.217h-2.813v-0.217h0.146
					c0.215,0.004,0.398-0.037,0.551-0.123c0.074-0.043,0.132-0.112,0.173-0.208s0.062-0.339,0.062-0.729v-5.074
					c0-0.348-0.016-0.568-0.047-0.662s-0.081-0.164-0.149-0.211s-0.161-0.07-0.278-0.07c-0.094,0-0.213,0.027-0.357,0.082
					L27.728,16.884z M29.603,17.815v2.004c0,0.434,0.018,0.719,0.053,0.855c0.055,0.227,0.188,0.426,0.401,0.598
					s0.481,0.258,0.806,0.258c0.391,0,0.707-0.152,0.949-0.457c0.316-0.398,0.475-0.959,0.475-1.682c0-0.82-0.18-1.451-0.539-1.893
					c-0.25-0.305-0.547-0.457-0.891-0.457c-0.188,0-0.373,0.047-0.557,0.141C30.159,17.253,29.927,17.464,29.603,17.815z"/>
				<path d="M79.028,13.386v7.119c0,0.336,0.024,0.559,0.073,0.668s0.124,0.192,0.226,0.249s0.291,0.085,0.568,0.085v0.211h-2.631
					v-0.211c0.246,0,0.414-0.025,0.504-0.076s0.16-0.135,0.211-0.252s0.076-0.342,0.076-0.674V15.63
					c0-0.605-0.014-0.978-0.041-1.116s-0.071-0.233-0.132-0.284s-0.138-0.076-0.231-0.076c-0.102,0-0.23,0.031-0.387,0.094
					l-0.1-0.205l1.6-0.656H79.028z"/>
			</g>
			<g>
				<path d="M82.987,16.192c0.813,0,1.465,0.309,1.957,0.926c0.418,0.527,0.627,1.133,0.627,1.816c0,0.48-0.115,0.967-0.346,1.459
					s-0.548,0.863-0.952,1.113s-0.854,0.375-1.351,0.375c-0.809,0-1.451-0.322-1.928-0.967c-0.402-0.543-0.604-1.152-0.604-1.828
					c0-0.492,0.122-0.981,0.366-1.468s0.565-0.846,0.964-1.078S82.542,16.192,82.987,16.192z M82.806,16.573
					c-0.207,0-0.415,0.062-0.624,0.185s-0.378,0.339-0.507,0.647s-0.193,0.705-0.193,1.189c0,0.781,0.155,1.455,0.466,2.021
					s0.72,0.85,1.228,0.85c0.379,0,0.691-0.156,0.938-0.469s0.369-0.85,0.369-1.611c0-0.953-0.205-1.703-0.615-2.25
					C83.589,16.761,83.235,16.573,82.806,16.573z"/>
				<path d="M87.798,19.761c-0.328-0.16-0.58-0.384-0.756-0.671s-0.264-0.604-0.264-0.952c0-0.531,0.2-0.988,0.601-1.371
					s0.913-0.574,1.538-0.574c0.512,0,0.955,0.125,1.33,0.375h1.137c0.168,0,0.266,0.005,0.293,0.015s0.047,0.026,0.059,0.05
					c0.023,0.035,0.035,0.098,0.035,0.188c0,0.102-0.01,0.172-0.029,0.211c-0.012,0.02-0.032,0.035-0.062,0.047
					s-0.128,0.018-0.296,0.018h-0.697c0.219,0.281,0.328,0.641,0.328,1.078c0,0.5-0.191,0.928-0.574,1.283s-0.896,0.533-1.541,0.533
					c-0.266,0-0.537-0.039-0.814-0.117c-0.172,0.148-0.288,0.278-0.349,0.39s-0.091,0.206-0.091,0.284
					c0,0.066,0.032,0.131,0.097,0.193s0.19,0.107,0.378,0.135c0.109,0.016,0.383,0.029,0.82,0.041
					c0.805,0.02,1.326,0.047,1.564,0.082c0.363,0.051,0.653,0.186,0.87,0.404S91.7,21.89,91.7,22.21
					c0,0.441-0.207,0.855-0.621,1.242c-0.609,0.57-1.404,0.855-2.385,0.855c-0.754,0-1.391-0.17-1.91-0.51
					c-0.293-0.195-0.439-0.398-0.439-0.609c0-0.094,0.021-0.188,0.064-0.281c0.066-0.145,0.203-0.346,0.41-0.604
					c0.027-0.035,0.227-0.246,0.598-0.633c-0.203-0.121-0.347-0.229-0.431-0.325s-0.126-0.204-0.126-0.325
					c0-0.137,0.056-0.297,0.167-0.48S87.396,20.097,87.798,19.761z M87.739,21.718c-0.184,0.199-0.322,0.385-0.416,0.557
					s-0.141,0.33-0.141,0.475c0,0.188,0.113,0.352,0.34,0.492c0.391,0.242,0.955,0.363,1.693,0.363c0.703,0,1.222-0.124,1.556-0.372
					s0.501-0.513,0.501-0.794c0-0.203-0.1-0.348-0.299-0.434c-0.203-0.086-0.605-0.137-1.207-0.152
					C88.888,21.829,88.212,21.784,87.739,21.718z M88.817,16.474c-0.289,0-0.531,0.115-0.727,0.346s-0.293,0.584-0.293,1.061
					c0,0.617,0.133,1.096,0.398,1.436c0.203,0.258,0.461,0.387,0.773,0.387c0.297,0,0.541-0.111,0.732-0.334
					s0.287-0.572,0.287-1.049c0-0.621-0.135-1.107-0.404-1.459C89.386,16.603,89.13,16.474,88.817,16.474z"/>
			</g>
			<g>
				<path d="M55.618,6.038v0.217c-0.516,0.051-0.937,0.153-1.263,0.308s-0.648,0.39-0.967,0.706s-0.582,0.669-0.791,1.058
					s-0.384,0.851-0.524,1.386c0.563-0.387,1.127-0.58,1.693-0.58c0.543,0,1.014,0.219,1.412,0.656s0.598,1,0.598,1.688
					c0,0.664-0.201,1.27-0.604,1.816c-0.484,0.664-1.125,0.996-1.922,0.996c-0.543,0-1.004-0.18-1.383-0.539
					c-0.742-0.699-1.113-1.605-1.113-2.719c0-0.711,0.143-1.387,0.428-2.027s0.692-1.209,1.222-1.705s1.036-0.83,1.521-1.002
					s0.936-0.258,1.354-0.258H55.618z M51.974,10.14c-0.07,0.527-0.105,0.953-0.105,1.277c0,0.375,0.069,0.782,0.208,1.222
					s0.345,0.788,0.618,1.046c0.199,0.184,0.441,0.275,0.727,0.275c0.34,0,0.644-0.16,0.911-0.48s0.401-0.777,0.401-1.371
					c0-0.668-0.133-1.246-0.398-1.734s-0.643-0.732-1.131-0.732c-0.148,0-0.308,0.031-0.478,0.094S52.306,9.933,51.974,10.14z"/>
				<path d="M61.823,11.218v0.832h-1.066v2.098H59.79V12.05h-3.363V11.3l3.686-5.262h0.645v5.18H61.823z M59.79,11.218V7.274
					l-2.789,3.943H59.79z"/>
			</g>
			<g>
				<path d="M53.778,31.257V31.04c0.508-0.008,0.98-0.126,1.418-0.354s0.86-0.628,1.269-1.198s0.692-1.197,0.853-1.881
					c-0.613,0.395-1.168,0.592-1.664,0.592c-0.559,0-1.037-0.216-1.436-0.647s-0.598-1.005-0.598-1.72
					c0-0.695,0.199-1.314,0.598-1.857c0.48-0.66,1.107-0.99,1.881-0.99c0.652,0,1.211,0.27,1.676,0.809
					c0.57,0.668,0.855,1.492,0.855,2.473c0,0.883-0.217,1.706-0.65,2.47s-1.037,1.397-1.811,1.901
					c-0.629,0.414-1.314,0.621-2.057,0.621H53.778z M57.411,27.173c0.07-0.508,0.105-0.914,0.105-1.219
					c0-0.379-0.064-0.788-0.193-1.228s-0.312-0.776-0.548-1.011s-0.505-0.352-0.806-0.352c-0.348,0-0.652,0.156-0.914,0.469
					s-0.393,0.777-0.393,1.395c0,0.824,0.174,1.469,0.521,1.934c0.254,0.336,0.566,0.504,0.938,0.504
					c0.18,0,0.393-0.043,0.639-0.129S57.224,27.329,57.411,27.173z"/>
			</g>
			<g>
				<path d="M108.103,13.519l-0.324,0.892h-2.734v-0.126c0.805-0.734,1.371-1.333,1.699-1.798s0.492-0.89,0.492-1.275
					c0-0.294-0.091-0.536-0.271-0.725s-0.396-0.284-0.646-0.284c-0.229,0-0.433,0.067-0.614,0.2
					c-0.181,0.134-0.314,0.329-0.401,0.586h-0.127c0.058-0.421,0.204-0.745,0.439-0.971c0.236-0.226,0.53-0.338,0.884-0.338
					c0.376,0,0.689,0.121,0.941,0.362s0.378,0.526,0.378,0.854c0,0.235-0.055,0.469-0.164,0.704c-0.169,0.369-0.442,0.76-0.82,1.172
					c-0.567,0.62-0.922,0.994-1.063,1.121h1.209c0.246,0,0.419-0.009,0.519-0.027c0.099-0.018,0.188-0.055,0.269-0.111
					c0.079-0.056,0.148-0.135,0.208-0.238H108.103z"/>
			</g>
			<path d="M74.532,24.019c-0.288-0.617-0.504-1.377-0.636-2.313c-0.144-0.934-0.216-1.963-0.216-3.12
				c0-1.014,0.072-1.979,0.229-2.914c0.155-0.95,0.384-1.71,0.695-2.329c0.3-0.602,0.695-1.077,1.175-1.441v-0.317
				c-0.959,0.57-1.738,1.505-2.326,2.819c-0.6,1.331-0.899,2.788-0.899,4.387c0,1.537,0.288,2.961,0.852,4.26
				s1.355,2.281,2.374,2.947v-0.334C75.24,25.175,74.82,24.62,74.532,24.019L74.532,24.019z M102.181,13.565
				c0.288,0.602,0.504,1.378,0.647,2.312c0.132,0.919,0.204,1.964,0.204,3.104c0,1.029-0.072,1.996-0.228,2.932
				c-0.145,0.934-0.372,1.709-0.684,2.313c-0.312,0.617-0.708,1.092-1.188,1.439v0.334c0.959-0.57,1.739-1.506,2.327-2.836
				c0.6-1.314,0.899-2.771,0.899-4.371c0-1.552-0.288-2.962-0.852-4.261c-0.564-1.299-1.355-2.281-2.375-2.946v0.317
				C101.474,12.393,101.893,12.948,102.181,13.565L102.181,13.565z"/>
			<path d="M36.105,13.377v-3.203c0-0.959,0.132-2.015,0.396-3.154c0.264-1.139,0.647-2.123,1.164-2.938
				c0.647-1.02,1.523-1.907,2.626-2.663L40.159,1.3c-0.576,0.24-1.08,0.552-1.523,0.936c-0.611,0.516-1.139,1.139-1.595,1.895
				c-0.456,0.755-0.815,1.631-1.055,2.626c-0.3,1.164-0.444,2.339-0.444,3.538v3.083H36.105z"/>
			<path d="M35.542,27.132c0,1.236,0.168,2.494,0.504,3.777c0.335,1.285,0.875,2.375,1.607,3.275
				c0.731,0.898,1.571,1.547,2.507,1.943l0.132-0.121c-0.912-0.623-1.643-1.318-2.207-2.086c-0.66-0.877-1.151-1.908-1.487-3.07
				c-0.324-1.164-0.492-2.363-0.492-3.598V24.05h-0.564V27.132z"/>
			<rect x="35.542" y="12.3" width="0.564" height="12.078"/>
			<rect x="35.542" y="16.519" width="0.564" height="12.078"/>
			<path d="M116.038,10.295c0-1.235-0.168-2.495-0.503-3.778c-0.336-1.283-0.876-2.375-1.596-3.274
				c-0.731-0.899-1.571-1.547-2.507-1.943l-0.132,0.12c0.912,0.624,1.644,1.319,2.207,2.087c0.66,0.875,1.151,1.907,1.476,3.07
				c0.323,1.163,0.491,2.375,0.491,3.598v3.203h0.563V10.295z"/>
			<path d="M115.475,24.05v3.203c0,0.971-0.132,2.014-0.396,3.154c-0.252,1.139-0.647,2.121-1.163,2.938
				c-0.647,1.02-1.512,1.906-2.615,2.662l0.132,0.121c0.576-0.24,1.08-0.553,1.523-0.924c0.6-0.516,1.14-1.152,1.596-1.908
				c0.443-0.754,0.803-1.631,1.055-2.625c0.288-1.152,0.432-2.34,0.432-3.539V24.05H115.475z"/>
			<rect x="115.475" y="12.3" width="0.563" height="12.078"/>
			<rect x="115.475" y="16.519" width="0.563" height="12.078"/>
			<path d="M11.48,12.377V9.175c0-0.959,0.132-2.015,0.396-3.154c0.264-1.139,0.647-2.123,1.164-2.938
				c0.647-1.02,1.523-1.907,2.626-2.663L15.534,0.3c-0.576,0.24-1.08,0.552-1.523,0.936c-0.611,0.516-1.139,1.139-1.595,1.895
				C11.96,3.886,11.6,4.761,11.36,5.757c-0.3,1.164-0.444,2.339-0.444,3.538v3.083H11.48z"/>
			<path d="M10.917,28.132c0,1.236,0.168,2.494,0.504,3.777c0.335,1.285,0.875,2.375,1.607,3.275
				c0.731,0.898,1.571,1.547,2.507,1.943l0.132-0.121c-0.912-0.623-1.643-1.318-2.207-2.086c-0.66-0.877-1.151-1.908-1.487-3.07
				c-0.324-1.164-0.492-2.363-0.492-3.598V25.05h-0.564V28.132z"/>
			<rect x="10.917" y="11.3" width="0.564" height="12.078"/>
			<rect x="10.917" y="17.519" width="0.564" height="12.078"/>
			<path d="M121.913,9.295c0-1.235-0.167-2.495-0.503-3.778s-0.876-2.375-1.596-3.274c-0.731-0.899-1.571-1.547-2.507-1.943
				l-0.132,0.12c0.912,0.624,1.644,1.319,2.207,2.087c0.66,0.875,1.151,1.907,1.476,3.07c0.323,1.163,0.491,2.375,0.491,3.598v3.203
				h0.563V9.295z"/>
			<path d="M121.35,25.05v3.203c0,0.971-0.132,2.014-0.396,3.154c-0.252,1.139-0.647,2.121-1.163,2.938
				c-0.647,1.02-1.512,1.906-2.615,2.662l0.132,0.121c0.576-0.24,1.08-0.553,1.523-0.924c0.6-0.516,1.14-1.152,1.596-1.908
				c0.443-0.754,0.803-1.631,1.055-2.625c0.288-1.152,0.432-2.34,0.432-3.539V25.05H121.35z"/>
			<rect x="121.35" y="11.3" width="0.563" height="12.078"/>
			<rect x="121.35" y="17.519" width="0.563" height="12.078"/>
		</g>
	</g>
</g>
</svg>
