<?xml version="1.0" encoding="utf-8"?>
<!-- Generator: Adobe Illustrator 14.0.0, SVG Export Plug-In . SVG Version: 6.00 Build 43363)  -->
<!DOCTYPE svg PUBLIC "-//W3C//DTD SVG 1.1//EN" "http://www.w3.org/Graphics/SVG/1.1/DTD/svg11.dtd">
<svg version="1.1" xmlns="http://www.w3.org/2000/svg" xmlns:xlink="http://www.w3.org/1999/xlink" x="0px" y="0px" width="77.22px"
	 height="36.962px" viewBox="0 0 77.22 36.962" style="enable-background:new 0 0 77.22 36.962;" xml:space="preserve">
<g id="Layer_1">
</g>
<g id="Layer_2">
	<g id="theGroup">
		<g>
			
				<line style="fill:none;stroke:#000000;stroke-width:0.5;stroke-miterlimit:10;" x1="25.685" y1="20.715" x2="58.622" y2="20.715"/>
			<g>
				<path d="M6.093,23.707H0.204l0.082-0.217c0.313-0.008,0.521-0.033,0.627-0.076c0.164-0.07,0.285-0.162,0.363-0.275
					c0.121-0.18,0.25-0.504,0.387-0.973l1.4-4.834c0.117-0.398,0.176-0.691,0.176-0.879c0-0.148-0.054-0.264-0.161-0.346
					s-0.31-0.123-0.606-0.123c-0.066,0-0.119-0.002-0.158-0.006l0.07-0.217h3.24l-0.047,0.217c-0.363,0-0.621,0.035-0.773,0.105
					S4.524,16.27,4.423,16.43c-0.07,0.105-0.186,0.434-0.346,0.984L2.7,22.166c-0.105,0.359-0.158,0.609-0.158,0.75
					c0,0.094,0.053,0.184,0.158,0.27c0.066,0.059,0.217,0.088,0.451,0.088h0.768c0.559,0,1.002-0.07,1.33-0.211
					c0.242-0.105,0.465-0.264,0.668-0.475c0.109-0.117,0.303-0.408,0.58-0.873l0.152-0.264h0.217L6.093,23.707z"/>
			</g>
			<g>
				<path d="M54.524,8.652l-0.105,0.387h-0.855L52.919,11.6c-0.285,1.129-0.572,2.002-0.861,2.619
					c-0.41,0.871-0.852,1.473-1.324,1.805c-0.359,0.254-0.719,0.381-1.078,0.381c-0.234,0-0.434-0.07-0.598-0.211
					c-0.121-0.098-0.182-0.225-0.182-0.381c0-0.125,0.05-0.233,0.149-0.325s0.222-0.138,0.366-0.138c0.105,0,0.194,0.033,0.267,0.1
					s0.108,0.143,0.108,0.229s-0.041,0.166-0.123,0.24c-0.063,0.055-0.094,0.096-0.094,0.123c0,0.035,0.014,0.063,0.041,0.082
					c0.035,0.027,0.09,0.041,0.164,0.041c0.168,0,0.345-0.053,0.53-0.158s0.351-0.263,0.495-0.472s0.281-0.511,0.41-0.905
					c0.055-0.164,0.201-0.705,0.439-1.623l1.02-3.967h-1.02l0.082-0.387c0.324,0,0.551-0.022,0.68-0.067s0.247-0.131,0.354-0.258
					s0.247-0.364,0.419-0.712c0.23-0.469,0.451-0.832,0.662-1.09c0.289-0.348,0.593-0.608,0.911-0.782s0.618-0.261,0.899-0.261
					c0.297,0,0.535,0.075,0.715,0.226s0.27,0.313,0.27,0.489c0,0.137-0.045,0.252-0.135,0.346s-0.205,0.141-0.346,0.141
					c-0.121,0-0.22-0.035-0.296-0.105s-0.114-0.154-0.114-0.252c0-0.063,0.025-0.14,0.076-0.231s0.076-0.153,0.076-0.185
					c0-0.055-0.018-0.096-0.053-0.123c-0.051-0.039-0.125-0.059-0.223-0.059c-0.246,0-0.467,0.078-0.662,0.234
					c-0.262,0.207-0.496,0.531-0.703,0.973c-0.105,0.23-0.299,0.803-0.58,1.717H54.524z"/>
			</g>
			<g>
				<path d="M38.562,25.137l2.455,6.229l1.33-4.652c0.109-0.383,0.164-0.68,0.164-0.891c0-0.145-0.051-0.258-0.152-0.34
					s-0.291-0.123-0.568-0.123c-0.047,0-0.096-0.002-0.146-0.006l0.064-0.217h2.555l-0.07,0.217
					c-0.266-0.004-0.463,0.023-0.592,0.082c-0.184,0.082-0.32,0.188-0.41,0.316c-0.125,0.184-0.252,0.504-0.381,0.961l-1.869,6.551
					h-0.211l-2.643-6.703l-1.412,4.951c-0.105,0.375-0.158,0.662-0.158,0.861c0,0.148,0.048,0.261,0.144,0.337
					s0.323,0.128,0.683,0.155l-0.059,0.217h-2.496l0.082-0.217c0.313-0.008,0.521-0.035,0.627-0.082
					c0.16-0.07,0.279-0.162,0.357-0.275c0.113-0.172,0.24-0.504,0.381-0.996l1.576-5.525c-0.152-0.234-0.315-0.396-0.489-0.483
					s-0.444-0.138-0.812-0.149l0.064-0.217H38.562z"/>
				<path d="M48.688,33.082h-5.889l0.082-0.217c0.313-0.008,0.521-0.033,0.627-0.076c0.164-0.07,0.285-0.162,0.363-0.275
					c0.121-0.18,0.25-0.504,0.387-0.973l1.4-4.834c0.117-0.398,0.176-0.691,0.176-0.879c0-0.148-0.054-0.264-0.161-0.346
					s-0.31-0.123-0.606-0.123c-0.066,0-0.119-0.002-0.158-0.006l0.07-0.217h3.24l-0.047,0.217c-0.363,0-0.621,0.035-0.773,0.105
					s-0.279,0.186-0.381,0.346c-0.07,0.105-0.186,0.434-0.346,0.984l-1.377,4.752c-0.105,0.359-0.158,0.609-0.158,0.75
					c0,0.094,0.053,0.184,0.158,0.27c0.066,0.059,0.217,0.088,0.451,0.088h0.768c0.559,0,1.002-0.07,1.33-0.211
					c0.242-0.105,0.465-0.264,0.668-0.475c0.109-0.117,0.303-0.408,0.58-0.873l0.152-0.264h0.217L48.688,33.082z"/>
			</g>
			<g>
				<path d="M73.501,23.707h-5.889l0.082-0.217c0.313-0.008,0.521-0.033,0.627-0.076c0.164-0.07,0.285-0.162,0.363-0.275
					c0.121-0.18,0.25-0.504,0.387-0.973l1.4-4.834c0.117-0.398,0.176-0.691,0.176-0.879c0-0.148-0.054-0.264-0.161-0.346
					s-0.31-0.123-0.606-0.123c-0.066,0-0.119-0.002-0.158-0.006l0.07-0.217h3.24l-0.047,0.217c-0.363,0-0.621,0.035-0.773,0.105
					s-0.279,0.186-0.381,0.346c-0.07,0.105-0.186,0.434-0.346,0.984l-1.377,4.752c-0.105,0.359-0.158,0.609-0.158,0.75
					c0,0.094,0.053,0.184,0.158,0.27c0.066,0.059,0.217,0.088,0.451,0.088h0.768c0.559,0,1.002-0.07,1.33-0.211
					c0.242-0.105,0.465-0.264,0.668-0.475c0.109-0.117,0.303-0.408,0.58-0.873l0.152-0.264h0.217L73.501,23.707z"/>
			</g>
			<g>
				<path d="M8.378,22.857l-0.267,0.93h0.537L8.59,24.003H8.057L7.469,26.02c-0.064,0.217-0.096,0.356-0.096,0.42
					c0,0.039,0.009,0.068,0.027,0.09c0.018,0.02,0.04,0.03,0.065,0.03c0.057,0,0.132-0.04,0.226-0.12
					c0.055-0.045,0.177-0.186,0.366-0.42l0.113,0.086c-0.209,0.305-0.408,0.521-0.595,0.646c-0.127,0.087-0.256,0.13-0.386,0.13
					c-0.1,0-0.182-0.031-0.246-0.094s-0.096-0.144-0.096-0.241c0-0.123,0.037-0.312,0.109-0.563l0.571-1.979H7.011l0.034-0.134
					c0.25-0.068,0.459-0.17,0.625-0.306s0.352-0.37,0.557-0.706H8.378z"/>
				<path d="M10.58,21.938l-0.96,3.319c0.415-0.625,0.738-1.039,0.971-1.244s0.455-0.309,0.667-0.309
					c0.109,0,0.201,0.038,0.273,0.113s0.109,0.176,0.109,0.301c0,0.15-0.032,0.333-0.096,0.547l-0.417,1.432
					c-0.052,0.174-0.079,0.27-0.079,0.287c0,0.032,0.01,0.059,0.029,0.079c0.019,0.021,0.042,0.03,0.066,0.03
					c0.03,0,0.064-0.015,0.103-0.044c0.13-0.101,0.259-0.239,0.386-0.417l0.106,0.064c-0.078,0.121-0.185,0.254-0.323,0.398
					c-0.138,0.145-0.256,0.245-0.355,0.301c-0.099,0.056-0.187,0.084-0.265,0.084c-0.084,0-0.153-0.026-0.207-0.08
					c-0.053-0.054-0.08-0.123-0.08-0.207c0-0.101,0.04-0.287,0.12-0.561l0.393-1.367c0.05-0.171,0.075-0.306,0.075-0.403
					c0-0.046-0.014-0.082-0.043-0.109c-0.028-0.027-0.065-0.041-0.111-0.041c-0.066,0-0.141,0.025-0.226,0.075
					c-0.155,0.096-0.334,0.273-0.537,0.533c-0.055,0.07-0.237,0.355-0.547,0.854c-0.096,0.159-0.174,0.334-0.236,0.522l-0.219,0.701
					H8.666l1.125-3.91l0.12-0.424c0-0.06-0.024-0.111-0.074-0.157c-0.049-0.046-0.108-0.068-0.179-0.068
					c-0.041,0-0.104,0.007-0.188,0.021l-0.072,0.01v-0.133L10.58,21.938z"/>
			</g>
			<g>
				<path d="M41.575,16.034l-0.676,2.396c-0.046,0.162-0.068,0.259-0.068,0.291c0,0.036,0.011,0.065,0.032,0.088
					c0.021,0.023,0.047,0.035,0.077,0.035c0.033,0,0.074-0.019,0.123-0.055c0.129-0.104,0.261-0.249,0.393-0.438l0.119,0.078
					c-0.154,0.237-0.337,0.437-0.547,0.598c-0.154,0.121-0.303,0.182-0.443,0.182c-0.094,0-0.17-0.028-0.229-0.084
					s-0.089-0.126-0.089-0.21s0.028-0.225,0.086-0.421l0.443-1.531c0.073-0.25,0.109-0.408,0.109-0.472
					c0-0.05-0.018-0.091-0.053-0.123s-0.084-0.048-0.145-0.048c-0.051,0-0.154,0.013-0.312,0.038v-0.133L41.575,16.034z
					 M41.531,14.677c0.096,0,0.177,0.033,0.243,0.099c0.065,0.066,0.099,0.147,0.099,0.243c0,0.093-0.033,0.174-0.101,0.241
					c-0.067,0.067-0.147,0.101-0.241,0.101s-0.174-0.034-0.241-0.101c-0.067-0.067-0.101-0.148-0.101-0.241
					c0-0.096,0.033-0.177,0.099-0.243C41.354,14.71,41.436,14.677,41.531,14.677z"/>
			</g>
			<g>
				<path d="M42.505,1.383l1.433,3.633l0.776-2.714c0.063-0.223,0.096-0.396,0.096-0.52c0-0.084-0.03-0.15-0.09-0.198
					c-0.059-0.048-0.169-0.072-0.331-0.072c-0.027,0-0.056-0.001-0.085-0.003l0.037-0.126h1.49L45.79,1.509
					c-0.155-0.002-0.27,0.014-0.346,0.048c-0.106,0.048-0.187,0.109-0.238,0.185c-0.073,0.107-0.147,0.294-0.223,0.561l-1.09,3.821
					h-0.123l-1.542-3.91l-0.823,2.888c-0.063,0.219-0.093,0.386-0.093,0.502c0,0.086,0.028,0.152,0.084,0.197
					c0.056,0.044,0.188,0.074,0.397,0.09l-0.033,0.126h-1.457l0.049-0.126c0.182-0.004,0.304-0.021,0.365-0.048
					c0.094-0.041,0.163-0.095,0.209-0.161c0.065-0.1,0.14-0.294,0.222-0.581l0.919-3.223c-0.088-0.137-0.184-0.231-0.285-0.282
					c-0.102-0.052-0.259-0.081-0.473-0.087l0.037-0.126H42.505z"/>
				<path d="M48.399,6.018h-3.436l0.048-0.126c0.183-0.004,0.304-0.02,0.366-0.044c0.096-0.041,0.166-0.095,0.211-0.161
					c0.071-0.105,0.146-0.294,0.227-0.567l0.816-2.82c0.068-0.232,0.103-0.403,0.103-0.513c0-0.086-0.031-0.154-0.094-0.202
					s-0.181-0.072-0.354-0.072c-0.038,0-0.069-0.001-0.092-0.003l0.041-0.126h1.891l-0.027,0.126c-0.213,0-0.363,0.021-0.451,0.062
					c-0.09,0.041-0.163,0.108-0.223,0.202c-0.041,0.062-0.108,0.253-0.201,0.574L46.42,5.119c-0.062,0.209-0.093,0.355-0.093,0.438
					c0,0.055,0.031,0.107,0.093,0.157c0.039,0.034,0.126,0.051,0.263,0.051h0.448c0.326,0,0.585-0.041,0.776-0.123
					c0.141-0.062,0.271-0.154,0.389-0.277c0.064-0.068,0.177-0.238,0.339-0.509l0.089-0.154h0.127L48.399,6.018z"/>
			</g>
			<g>
				<path d="M56.263,13.809l-0.676,2.396c-0.046,0.162-0.068,0.259-0.068,0.291c0,0.037,0.011,0.066,0.032,0.089
					s0.047,0.034,0.077,0.034c0.033,0,0.074-0.018,0.123-0.055c0.129-0.103,0.261-0.249,0.393-0.438l0.119,0.079
					c-0.154,0.237-0.337,0.437-0.547,0.598c-0.154,0.121-0.303,0.181-0.443,0.181c-0.094,0-0.17-0.028-0.229-0.084
					c-0.06-0.056-0.089-0.125-0.089-0.21s0.028-0.225,0.086-0.42l0.443-1.531c0.073-0.25,0.109-0.408,0.109-0.472
					c0-0.05-0.018-0.091-0.053-0.123s-0.084-0.048-0.145-0.048c-0.051,0-0.154,0.013-0.312,0.038V14L56.263,13.809z M56.219,12.452
					c0.096,0,0.177,0.033,0.243,0.099c0.065,0.066,0.099,0.147,0.099,0.243c0,0.093-0.033,0.174-0.101,0.241
					c-0.067,0.067-0.147,0.101-0.241,0.101s-0.174-0.034-0.241-0.101c-0.067-0.067-0.101-0.148-0.101-0.241
					c0-0.096,0.033-0.177,0.099-0.243C56.042,12.485,56.123,12.452,56.219,12.452z"/>
			</g>
			<g>
				<path d="M74.55,23.896l1.18-0.191l-0.492,1.662c0.398-0.682,0.761-1.158,1.087-1.43c0.185-0.154,0.335-0.232,0.451-0.232
					c0.075,0,0.135,0.022,0.178,0.067c0.043,0.044,0.065,0.108,0.065,0.192c0,0.15-0.039,0.295-0.117,0.432
					c-0.055,0.102-0.133,0.153-0.235,0.153c-0.053,0-0.098-0.017-0.135-0.052c-0.038-0.033-0.062-0.086-0.07-0.156
					c-0.005-0.044-0.015-0.072-0.03-0.086c-0.019-0.019-0.04-0.027-0.065-0.027c-0.039,0-0.075,0.009-0.109,0.027
					c-0.06,0.032-0.149,0.121-0.271,0.267c-0.188,0.224-0.394,0.513-0.615,0.868c-0.096,0.15-0.178,0.32-0.246,0.51
					c-0.096,0.26-0.15,0.415-0.164,0.468l-0.109,0.431h-0.522l0.632-2.123c0.073-0.246,0.109-0.421,0.109-0.525
					c0-0.041-0.017-0.076-0.051-0.104c-0.046-0.036-0.105-0.055-0.182-0.055c-0.047,0-0.135,0.011-0.263,0.031L74.55,23.896z"/>
			</g>
			<path d="M16.338,19.841h6.153v-0.563h-6.153V19.841z M16.338,22.036h6.153v-0.564h-6.153V22.036z"/>
			<path d="M42.592,16.859h3.593V16.53h-3.593V16.859z M42.592,18.141h3.593v-0.329h-3.593V18.141z"/>
			<path d="M38.899,15.017l-0.342-0.054c-0.144,0.594-0.324,1.044-0.541,1.333c-0.234,0.288-0.504,0.486-0.846,0.594
				c-0.486,0.162-0.936,0.234-1.35,0.234h-7.202l5.545-6.824l-4.969-6.068h6.536c0.648,0,1.152,0.18,1.495,0.522
				c0.36,0.342,0.594,0.918,0.684,1.729h0.36l-0.234-2.953H26.781v0.324l5.906,7.202l-5.906,7.292v0.324h11.56L38.899,15.017z"/>
			<g>
				<path d="M46.755,14.947l1.128-0.55h0.112v3.914c0,0.26,0.012,0.421,0.033,0.484c0.021,0.064,0.066,0.113,0.135,0.147
					S48.37,18.996,48.58,19v0.127h-1.743V19c0.219-0.004,0.36-0.022,0.424-0.056s0.108-0.078,0.133-0.134
					c0.025-0.056,0.038-0.223,0.038-0.5v-2.502c0-0.337-0.012-0.554-0.034-0.649c-0.016-0.073-0.045-0.126-0.087-0.161
					s-0.093-0.051-0.152-0.051c-0.084,0-0.202,0.035-0.353,0.106L46.755,14.947z"/>
			</g>
			<g>
				<path d="M63.204,17.59c-0.016-0.27-0.07-0.537-0.164-0.803c-0.133-0.383-0.199-0.646-0.199-0.791
					c0-0.203,0.048-0.357,0.144-0.463s0.214-0.158,0.354-0.158c0.121,0,0.227,0.053,0.316,0.158s0.135,0.256,0.135,0.451
					c0,0.176-0.052,0.421-0.155,0.735s-0.167,0.604-0.19,0.87c0.215-0.137,0.408-0.303,0.58-0.498
					c0.266-0.309,0.463-0.5,0.592-0.574s0.26-0.111,0.393-0.111c0.129,0,0.237,0.044,0.325,0.132s0.132,0.192,0.132,0.313
					c0,0.145-0.064,0.273-0.193,0.387s-0.451,0.227-0.967,0.34c-0.301,0.066-0.551,0.143-0.75,0.229
					c0.203,0.105,0.451,0.186,0.744,0.24c0.473,0.086,0.782,0.193,0.929,0.322s0.22,0.27,0.22,0.422
					c0,0.117-0.044,0.219-0.132,0.305s-0.19,0.129-0.308,0.129s-0.247-0.041-0.39-0.123s-0.335-0.266-0.577-0.551
					c-0.16-0.191-0.359-0.371-0.598-0.539c0.008,0.223,0.053,0.465,0.135,0.727c0.141,0.461,0.211,0.775,0.211,0.943
					c0,0.156-0.047,0.288-0.141,0.396s-0.193,0.161-0.299,0.161c-0.145,0-0.275-0.057-0.393-0.17
					c-0.082-0.082-0.123-0.213-0.123-0.393c0-0.188,0.045-0.413,0.135-0.677s0.146-0.445,0.17-0.545s0.045-0.247,0.064-0.442
					c-0.23,0.152-0.432,0.322-0.604,0.51c-0.285,0.32-0.5,0.523-0.645,0.609c-0.102,0.063-0.207,0.094-0.316,0.094
					c-0.133,0-0.246-0.045-0.34-0.135s-0.141-0.189-0.141-0.299c0-0.098,0.04-0.2,0.12-0.308s0.2-0.196,0.36-0.267
					c0.105-0.047,0.346-0.109,0.721-0.188c0.242-0.051,0.479-0.125,0.709-0.223c-0.211-0.105-0.463-0.188-0.756-0.246
					c-0.48-0.102-0.777-0.193-0.891-0.275c-0.176-0.129-0.264-0.285-0.264-0.469c0-0.105,0.044-0.202,0.132-0.29
					s0.19-0.132,0.308-0.132c0.129,0,0.266,0.041,0.41,0.123s0.324,0.247,0.539,0.495S62.981,17.453,63.204,17.59z"/>
			</g>
		</g>
	</g>
</g>
</svg>
