<?xml version="1.0" encoding="utf-8"?>
<!-- Generator: Adobe Illustrator 14.0.0, SVG Export Plug-In . SVG Version: 6.00 Build 43363)  -->
<!DOCTYPE svg PUBLIC "-//W3C//DTD SVG 1.1//EN" "http://www.w3.org/Graphics/SVG/1.1/DTD/svg11.dtd">
<svg version="1.1" xmlns="http://www.w3.org/2000/svg" xmlns:xlink="http://www.w3.org/1999/xlink" x="0px" y="0px"
	 width="146.57px" height="44.775px" viewBox="0 0 146.57 44.775" style="enable-background:new 0 0 146.57 44.775;"
	 xml:space="preserve">
<g id="Layer_1">
</g>
<g id="Layer_2">
	<g id="theGroup">
		<g>
			<polyline points="24.455,17.08 26.118,15.33 28.718,22.992 31.655,0.33 138.518,0.33 138.518,0.924 32.177,0.924 29.014,25.33 
				28.415,25.33 25.46,16.625 24.756,17.366 			"/>
			
				<line style="fill:none;stroke:#000000;stroke-width:0.5;stroke-miterlimit:10;" x1="23.455" y1="26.83" x2="139.518" y2="26.83"/>
			<g>
				<path d="M6.822,21.504l-2.016,6.914c-0.109,0.375-0.164,0.621-0.164,0.738c0,0.039,0.017,0.076,0.05,0.111
					S4.76,29.32,4.795,29.32c0.051,0,0.111-0.025,0.182-0.076c0.133-0.094,0.355-0.328,0.668-0.703l0.199,0.123
					c-0.281,0.391-0.565,0.707-0.853,0.949s-0.556,0.363-0.806,0.363c-0.133,0-0.242-0.047-0.328-0.141s-0.129-0.227-0.129-0.398
					c0-0.223,0.059-0.521,0.176-0.896l0.229-0.727c-0.566,0.875-1.082,1.48-1.547,1.816c-0.32,0.23-0.627,0.346-0.92,0.346
					c-0.297,0-0.556-0.132-0.776-0.396s-0.331-0.622-0.331-1.075c0-0.582,0.186-1.203,0.557-1.863s0.861-1.197,1.471-1.611
					c0.48-0.332,0.922-0.498,1.324-0.498c0.211,0,0.393,0.043,0.545,0.129s0.303,0.229,0.451,0.428l0.574-2.039
					c0.043-0.145,0.078-0.26,0.105-0.346c0.047-0.156,0.07-0.285,0.07-0.387c0-0.082-0.029-0.15-0.088-0.205
					c-0.082-0.066-0.188-0.1-0.316-0.1c-0.09,0-0.238,0.014-0.445,0.041v-0.217L6.822,21.504z M4.648,25.664
					c0-0.25-0.072-0.451-0.217-0.604s-0.328-0.229-0.551-0.229c-0.492,0-1.005,0.406-1.538,1.219s-0.8,1.59-0.8,2.332
					c0,0.293,0.064,0.517,0.193,0.671s0.283,0.231,0.463,0.231c0.406,0,0.916-0.439,1.529-1.318S4.648,26.32,4.648,25.664z"/>
			</g>
			<g>
				<path d="M94.537,12.189c0.191,0.203,0.336,0.406,0.434,0.609c0.07,0.141,0.186,0.51,0.346,1.107l0.516-0.773
					c0.137-0.188,0.303-0.366,0.498-0.536s0.367-0.286,0.516-0.349c0.094-0.039,0.197-0.059,0.311-0.059
					c0.168,0,0.302,0.045,0.401,0.135s0.149,0.199,0.149,0.328c0,0.148-0.029,0.25-0.088,0.305
					c-0.109,0.098-0.234,0.146-0.375,0.146c-0.082,0-0.17-0.018-0.264-0.053c-0.184-0.063-0.307-0.094-0.369-0.094
					c-0.094,0-0.205,0.055-0.334,0.164c-0.242,0.203-0.531,0.596-0.867,1.178l0.48,2.016c0.074,0.309,0.137,0.493,0.188,0.554
					s0.102,0.091,0.152,0.091c0.082,0,0.178-0.045,0.287-0.135c0.215-0.18,0.398-0.414,0.551-0.703l0.205,0.105
					c-0.246,0.461-0.559,0.844-0.938,1.148c-0.215,0.172-0.396,0.258-0.545,0.258c-0.219,0-0.393-0.123-0.521-0.369
					c-0.082-0.152-0.252-0.809-0.51-1.969c-0.609,1.059-1.098,1.74-1.465,2.045c-0.238,0.195-0.469,0.293-0.691,0.293
					c-0.156,0-0.299-0.057-0.428-0.17c-0.094-0.086-0.141-0.201-0.141-0.346c0-0.129,0.043-0.236,0.129-0.322
					s0.191-0.129,0.316-0.129s0.258,0.063,0.398,0.188c0.102,0.09,0.18,0.135,0.234,0.135c0.047,0,0.107-0.031,0.182-0.094
					c0.184-0.148,0.434-0.469,0.75-0.961s0.523-0.848,0.621-1.066c-0.242-0.949-0.373-1.451-0.393-1.506
					c-0.09-0.254-0.207-0.434-0.352-0.539s-0.357-0.158-0.639-0.158c-0.09,0-0.193,0.004-0.311,0.012v-0.211L94.537,12.189z"/>
				<path d="M118.848,12.189c0.191,0.203,0.336,0.406,0.434,0.609c0.07,0.141,0.186,0.51,0.346,1.107l0.516-0.773
					c0.137-0.188,0.303-0.366,0.498-0.536s0.367-0.286,0.516-0.349c0.094-0.039,0.197-0.059,0.311-0.059
					c0.168,0,0.302,0.045,0.401,0.135s0.149,0.199,0.149,0.328c0,0.148-0.029,0.25-0.088,0.305
					c-0.109,0.098-0.234,0.146-0.375,0.146c-0.082,0-0.17-0.018-0.264-0.053c-0.184-0.063-0.307-0.094-0.369-0.094
					c-0.094,0-0.205,0.055-0.334,0.164c-0.242,0.203-0.531,0.596-0.867,1.178l0.48,2.016c0.074,0.309,0.137,0.493,0.188,0.554
					s0.102,0.091,0.152,0.091c0.082,0,0.178-0.045,0.287-0.135c0.215-0.18,0.398-0.414,0.551-0.703l0.205,0.105
					c-0.246,0.461-0.559,0.844-0.938,1.148c-0.215,0.172-0.396,0.258-0.545,0.258c-0.219,0-0.393-0.123-0.521-0.369
					c-0.082-0.152-0.252-0.809-0.51-1.969c-0.609,1.059-1.098,1.74-1.465,2.045c-0.238,0.195-0.469,0.293-0.691,0.293
					c-0.156,0-0.299-0.057-0.428-0.17c-0.094-0.086-0.141-0.201-0.141-0.346c0-0.129,0.043-0.236,0.129-0.322
					s0.191-0.129,0.316-0.129s0.258,0.063,0.398,0.188c0.102,0.09,0.18,0.135,0.234,0.135c0.047,0,0.107-0.031,0.182-0.094
					c0.184-0.148,0.434-0.469,0.75-0.961s0.523-0.848,0.621-1.066c-0.242-0.949-0.373-1.451-0.393-1.506
					c-0.09-0.254-0.207-0.434-0.352-0.539s-0.357-0.158-0.639-0.158c-0.09,0-0.193,0.004-0.311,0.012v-0.211L118.848,12.189z"/>
			</g>
			<g>
				<path d="M74.238,31.266l2.455,6.229l1.33-4.652c0.109-0.383,0.164-0.68,0.164-0.891c0-0.145-0.051-0.258-0.152-0.34
					s-0.291-0.123-0.568-0.123c-0.047,0-0.096-0.002-0.146-0.006l0.064-0.217h2.555l-0.07,0.217
					c-0.266-0.004-0.463,0.023-0.592,0.082c-0.184,0.082-0.32,0.188-0.41,0.316c-0.125,0.184-0.252,0.504-0.381,0.961l-1.869,6.551
					h-0.211l-2.643-6.703l-1.412,4.951c-0.105,0.375-0.158,0.662-0.158,0.861c0,0.148,0.048,0.261,0.144,0.337
					s0.323,0.128,0.683,0.155l-0.059,0.217h-2.496l0.082-0.217c0.313-0.008,0.521-0.035,0.627-0.082
					c0.16-0.07,0.279-0.162,0.357-0.275c0.113-0.172,0.24-0.504,0.381-0.996l1.576-5.525c-0.152-0.234-0.315-0.396-0.489-0.483
					s-0.444-0.138-0.812-0.149l0.064-0.217H74.238z"/>
			</g>
			<g>
				<path d="M9.495,29.83l-0.208,1.05H9.16c-0.011-0.306-0.076-0.527-0.195-0.667c-0.119-0.139-0.266-0.208-0.441-0.208
					c-0.141,0-0.253,0.039-0.336,0.116c-0.083,0.077-0.125,0.171-0.125,0.28c0,0.075,0.017,0.147,0.05,0.216
					c0.033,0.068,0.105,0.164,0.217,0.287c0.296,0.323,0.488,0.566,0.574,0.73s0.13,0.319,0.13,0.465
					c0,0.237-0.099,0.447-0.296,0.631c-0.197,0.184-0.446,0.275-0.747,0.275c-0.164,0-0.353-0.039-0.567-0.116
					c-0.075-0.027-0.133-0.041-0.174-0.041c-0.103,0-0.18,0.053-0.232,0.157H6.89l0.208-1.107h0.126
					c0.014,0.347,0.085,0.592,0.215,0.734c0.13,0.145,0.308,0.216,0.533,0.216c0.173,0,0.311-0.049,0.412-0.146
					c0.101-0.097,0.152-0.216,0.152-0.357c0-0.091-0.018-0.175-0.055-0.252c-0.064-0.137-0.198-0.326-0.402-0.568
					c-0.204-0.241-0.335-0.422-0.393-0.543c-0.059-0.121-0.087-0.241-0.087-0.362c0-0.221,0.081-0.408,0.241-0.561
					c0.161-0.152,0.368-0.229,0.621-0.229c0.073,0,0.139,0.006,0.198,0.018c0.032,0.007,0.106,0.032,0.224,0.077
					c0.117,0.044,0.195,0.066,0.234,0.066c0.098,0,0.18-0.054,0.246-0.161H9.495z"/>
			</g>
			<g>
				<path d="M49.019,19.711l-0.885,3.059c-0.157,0.547-0.373,0.941-0.647,1.183c-0.275,0.241-0.572,0.362-0.891,0.362
					c-0.144,0-0.252-0.033-0.326-0.099c-0.074-0.066-0.111-0.146-0.111-0.236c0-0.07,0.028-0.133,0.084-0.187
					c0.056-0.054,0.12-0.08,0.193-0.08c0.066,0,0.124,0.021,0.174,0.065c0.041,0.033,0.062,0.072,0.062,0.115
					c0,0.06-0.028,0.111-0.085,0.154c-0.032,0.025-0.048,0.046-0.048,0.062l0.007,0.017c0.007,0.01,0.017,0.017,0.031,0.021
					c0.014,0.004,0.034,0.006,0.062,0.006c0.185,0,0.342-0.059,0.474-0.176c0.131-0.117,0.248-0.352,0.35-0.702l0.766-2.625
					c0.075-0.257,0.113-0.4,0.113-0.427c0-0.055-0.024-0.104-0.073-0.147c-0.049-0.043-0.111-0.065-0.187-0.065
					c-0.03,0-0.064,0.003-0.103,0.01c-0.03,0.004-0.073,0.011-0.13,0.021v-0.12L49.019,19.711z M48.964,18.358
					c0.096,0,0.177,0.034,0.245,0.101c0.067,0.067,0.101,0.148,0.101,0.244s-0.034,0.177-0.101,0.244
					c-0.067,0.067-0.149,0.101-0.245,0.101s-0.177-0.034-0.245-0.101c-0.067-0.067-0.101-0.148-0.101-0.244s0.034-0.177,0.101-0.244
					C48.787,18.392,48.869,18.358,48.964,18.358z"/>
			</g>
			<g>
				<path d="M48.399,5.061l1.432,3.633l0.776-2.714c0.064-0.223,0.096-0.396,0.096-0.52c0-0.084-0.03-0.15-0.089-0.198
					s-0.17-0.072-0.332-0.072c-0.027,0-0.056-0.001-0.085-0.003l0.038-0.126h1.49l-0.041,0.126c-0.155-0.002-0.27,0.014-0.345,0.048
					c-0.107,0.048-0.187,0.109-0.239,0.185c-0.073,0.107-0.147,0.294-0.222,0.561l-1.09,3.821h-0.123l-1.542-3.91l-0.824,2.888
					c-0.062,0.219-0.092,0.386-0.092,0.502c0,0.086,0.028,0.152,0.084,0.197c0.056,0.044,0.188,0.074,0.398,0.09l-0.034,0.126
					h-1.456l0.048-0.126c0.182-0.004,0.304-0.021,0.366-0.048c0.093-0.041,0.163-0.095,0.208-0.161
					c0.066-0.1,0.14-0.294,0.222-0.581l0.919-3.223c-0.089-0.137-0.184-0.231-0.286-0.282c-0.101-0.052-0.259-0.081-0.473-0.087
					l0.038-0.126H48.399z"/>
			</g>
			<g>
				<path d="M77.146,17.944l-0.971,3.36l0.39-0.332c0.426-0.36,0.703-0.626,0.83-0.8c0.041-0.057,0.063-0.1,0.063-0.13
					c0-0.021-0.008-0.04-0.021-0.058s-0.04-0.033-0.08-0.044s-0.109-0.017-0.21-0.017h-0.12l0.038-0.13h1.493l-0.033,0.13
					c-0.172,0.009-0.319,0.036-0.443,0.081c-0.124,0.044-0.244,0.11-0.36,0.196c-0.23,0.171-0.382,0.29-0.454,0.355l-0.295,0.26
					c0.051,0.164,0.112,0.393,0.186,0.687c0.123,0.488,0.206,0.777,0.249,0.869c0.043,0.091,0.088,0.137,0.134,0.137
					c0.038,0,0.084-0.02,0.137-0.059c0.118-0.087,0.244-0.225,0.379-0.414l0.119,0.086c-0.248,0.313-0.438,0.518-0.57,0.617
					c-0.132,0.099-0.253,0.148-0.362,0.148c-0.096,0-0.17-0.037-0.222-0.113c-0.092-0.134-0.243-0.664-0.455-1.589l-0.469,0.407
					l-0.352,1.213h-0.533l1.135-3.9l0.096-0.332c0.012-0.057,0.018-0.107,0.018-0.15c0-0.055-0.021-0.1-0.063-0.137
					s-0.104-0.055-0.183-0.055c-0.053,0-0.136,0.011-0.25,0.034v-0.12L77.146,17.944z"/>
			</g>
			<g>
				<path d="M76.688,6.602l-0.455,1.555c0.427-0.636,0.753-1.054,0.979-1.254s0.445-0.301,0.655-0.301
					c0.113,0,0.207,0.038,0.281,0.113s0.111,0.173,0.111,0.294c0,0.137-0.033,0.319-0.1,0.547l-0.416,1.439
					c-0.049,0.167-0.072,0.268-0.072,0.304c0,0.032,0.009,0.059,0.027,0.08c0.019,0.022,0.037,0.033,0.059,0.033
					c0.027,0,0.06-0.015,0.099-0.044c0.121-0.096,0.253-0.242,0.396-0.438l0.106,0.065c-0.213,0.303-0.413,0.52-0.602,0.649
					c-0.133,0.089-0.251,0.133-0.355,0.133c-0.085,0-0.152-0.025-0.202-0.077c-0.05-0.051-0.075-0.12-0.075-0.207
					c0-0.109,0.039-0.297,0.116-0.564l0.396-1.374c0.05-0.171,0.075-0.304,0.075-0.4c0-0.045-0.015-0.083-0.045-0.111
					c-0.029-0.029-0.065-0.043-0.109-0.043c-0.063,0-0.14,0.027-0.229,0.082c-0.169,0.103-0.344,0.271-0.526,0.508
					c-0.183,0.235-0.375,0.537-0.577,0.904c-0.107,0.194-0.196,0.406-0.268,0.636l-0.17,0.564h-0.514l0.623-2.14
					c0.072-0.257,0.109-0.413,0.109-0.465c0-0.05-0.021-0.094-0.061-0.132c-0.04-0.037-0.089-0.056-0.148-0.056
					c-0.027,0-0.075,0.004-0.144,0.014l-0.13,0.021l-0.021-0.123L76.688,6.602z"/>
			</g>
			<g>
				<path d="M100.615,17.487l-0.886,3.059c-0.157,0.547-0.373,0.941-0.647,1.183c-0.274,0.241-0.571,0.362-0.891,0.362
					c-0.144,0-0.252-0.033-0.326-0.099c-0.074-0.066-0.111-0.146-0.111-0.236c0-0.071,0.028-0.133,0.084-0.187
					c0.056-0.053,0.12-0.08,0.193-0.08c0.065,0,0.124,0.021,0.174,0.065c0.041,0.034,0.062,0.073,0.062,0.116
					c0,0.059-0.028,0.11-0.085,0.154c-0.032,0.025-0.049,0.046-0.049,0.062l0.008,0.017c0.006,0.01,0.017,0.017,0.03,0.021
					c0.014,0.004,0.034,0.006,0.062,0.006c0.185,0,0.343-0.059,0.474-0.176s0.247-0.351,0.351-0.702l0.766-2.625
					c0.074-0.257,0.112-0.4,0.112-0.427c0-0.055-0.024-0.104-0.073-0.147s-0.111-0.065-0.187-0.065c-0.029,0-0.063,0.003-0.103,0.01
					c-0.029,0.004-0.073,0.011-0.13,0.021v-0.12L100.615,17.487z M100.561,16.133c0.096,0,0.177,0.034,0.244,0.101
					c0.067,0.067,0.101,0.148,0.101,0.244s-0.033,0.177-0.101,0.244c-0.067,0.067-0.148,0.101-0.244,0.101s-0.178-0.034-0.245-0.101
					c-0.067-0.067-0.101-0.148-0.101-0.244s0.033-0.177,0.101-0.244C100.383,16.167,100.465,16.133,100.561,16.133z"/>
				<path d="M123.379,17.487l-0.678,2.396c-0.045,0.162-0.068,0.259-0.068,0.291c0,0.037,0.012,0.066,0.033,0.089
					s0.047,0.034,0.076,0.034c0.035,0,0.076-0.018,0.123-0.055c0.131-0.103,0.262-0.249,0.394-0.438l0.12,0.079
					c-0.155,0.237-0.338,0.437-0.547,0.598c-0.155,0.121-0.304,0.181-0.445,0.181c-0.093,0-0.169-0.028-0.229-0.084
					c-0.06-0.056-0.089-0.125-0.089-0.21s0.028-0.225,0.085-0.42l0.445-1.531c0.072-0.25,0.109-0.408,0.109-0.472
					c0-0.05-0.019-0.091-0.054-0.123s-0.083-0.048-0.146-0.048c-0.05,0-0.153,0.013-0.311,0.038v-0.133L123.379,17.487z
					 M123.334,16.13c0.096,0,0.177,0.033,0.242,0.099c0.066,0.066,0.1,0.147,0.1,0.243c0,0.093-0.033,0.174-0.101,0.241
					c-0.067,0.067-0.147,0.101-0.241,0.101s-0.174-0.034-0.241-0.101c-0.067-0.067-0.101-0.148-0.101-0.241
					c0-0.096,0.033-0.177,0.1-0.243C123.157,16.163,123.238,16.13,123.334,16.13z"/>
			</g>
			<g>
				<path d="M82.002,41.554c-0.236,0.285-0.476,0.494-0.717,0.627c-0.242,0.134-0.497,0.2-0.766,0.2
					c-0.324,0-0.576-0.091-0.758-0.273c-0.181-0.183-0.271-0.428-0.271-0.734c0-0.35,0.098-0.692,0.292-1.029
					c0.195-0.337,0.457-0.611,0.786-0.822s0.652-0.316,0.969-0.316c0.249,0,0.435,0.053,0.558,0.156s0.185,0.23,0.185,0.381
					c0,0.142-0.043,0.262-0.13,0.362c-0.063,0.077-0.143,0.116-0.235,0.116c-0.071,0-0.13-0.022-0.177-0.068
					s-0.069-0.103-0.069-0.171c0-0.043,0.008-0.083,0.025-0.12c0.017-0.036,0.052-0.08,0.105-0.131
					c0.054-0.052,0.086-0.089,0.098-0.111s0.018-0.047,0.018-0.072c0-0.047-0.022-0.087-0.065-0.119
					c-0.066-0.046-0.159-0.068-0.28-0.068c-0.224,0-0.444,0.078-0.663,0.236c-0.219,0.156-0.405,0.38-0.561,0.67
					c-0.187,0.351-0.28,0.701-0.28,1.053c0,0.232,0.066,0.416,0.198,0.552s0.313,0.203,0.54,0.203c0.176,0,0.35-0.044,0.521-0.132
					s0.365-0.246,0.579-0.477L82.002,41.554z"/>
				<path d="M85.673,39.287l-0.595,2.037c-0.089,0.304-0.133,0.495-0.133,0.574c0,0.041,0.007,0.071,0.021,0.091
					s0.035,0.029,0.061,0.029c0.038,0,0.081-0.018,0.128-0.053s0.164-0.177,0.354-0.423l0.103,0.079
					c-0.18,0.285-0.364,0.494-0.554,0.629c-0.125,0.087-0.246,0.13-0.362,0.13c-0.089,0-0.158-0.025-0.209-0.075
					c-0.05-0.05-0.074-0.115-0.074-0.194c0-0.078,0.015-0.181,0.044-0.309c0.036-0.168,0.14-0.535,0.312-1.1
					c-0.388,0.635-0.712,1.074-0.973,1.315s-0.503,0.362-0.727,0.362c-0.104,0-0.193-0.036-0.267-0.109s-0.109-0.165-0.109-0.277
					c0-0.17,0.05-0.433,0.15-0.785l0.298-1.057c0.072-0.253,0.109-0.41,0.109-0.472c0-0.027-0.01-0.051-0.029-0.07
					s-0.041-0.028-0.063-0.028c-0.048,0-0.096,0.017-0.144,0.051s-0.156,0.16-0.324,0.379l-0.106-0.074
					c0.171-0.265,0.353-0.46,0.544-0.585c0.146-0.098,0.279-0.147,0.402-0.147c0.085,0,0.153,0.027,0.207,0.081
					s0.08,0.122,0.08,0.206c0,0.123-0.045,0.344-0.137,0.66l-0.32,1.104c-0.09,0.301-0.134,0.491-0.134,0.571
					c0,0.043,0.015,0.078,0.043,0.104s0.066,0.039,0.114,0.039c0.075,0,0.173-0.037,0.294-0.113c0.121-0.074,0.282-0.241,0.483-0.5
					c0.202-0.259,0.368-0.502,0.499-0.729s0.271-0.587,0.419-1.082l0.075-0.26H85.673z"/>
				<path d="M86.215,39.396l1.18-0.191l-0.492,1.662c0.398-0.682,0.761-1.158,1.087-1.43c0.185-0.154,0.335-0.232,0.451-0.232
					c0.075,0,0.135,0.022,0.178,0.067c0.043,0.044,0.065,0.108,0.065,0.192c0,0.15-0.039,0.295-0.117,0.432
					c-0.055,0.102-0.133,0.153-0.235,0.153c-0.053,0-0.098-0.017-0.135-0.052c-0.038-0.033-0.062-0.086-0.07-0.156
					c-0.005-0.044-0.015-0.072-0.03-0.086c-0.019-0.019-0.04-0.027-0.065-0.027c-0.039,0-0.075,0.009-0.109,0.027
					c-0.06,0.032-0.149,0.121-0.271,0.267c-0.188,0.224-0.394,0.513-0.615,0.868c-0.096,0.15-0.178,0.32-0.246,0.51
					c-0.096,0.26-0.15,0.415-0.164,0.468l-0.109,0.431h-0.522l0.632-2.123c0.073-0.246,0.109-0.421,0.109-0.525
					c0-0.041-0.017-0.076-0.051-0.104c-0.046-0.036-0.105-0.055-0.182-0.055c-0.047,0-0.135,0.011-0.263,0.031L86.215,39.396z"/>
				<path d="M88.912,39.396l1.179-0.191l-0.492,1.662c0.398-0.682,0.761-1.158,1.087-1.43c0.185-0.154,0.335-0.232,0.451-0.232
					c0.075,0,0.135,0.022,0.178,0.067c0.043,0.044,0.064,0.108,0.064,0.192c0,0.15-0.038,0.295-0.115,0.432
					c-0.055,0.102-0.134,0.153-0.236,0.153c-0.053,0-0.098-0.017-0.135-0.052c-0.038-0.033-0.062-0.086-0.07-0.156
					c-0.005-0.044-0.015-0.072-0.031-0.086c-0.018-0.019-0.039-0.027-0.064-0.027c-0.039,0-0.075,0.009-0.109,0.027
					c-0.06,0.032-0.149,0.121-0.27,0.267c-0.189,0.224-0.395,0.513-0.615,0.868c-0.096,0.15-0.178,0.32-0.246,0.51
					c-0.096,0.26-0.15,0.415-0.164,0.468l-0.109,0.431h-0.523l0.633-2.123c0.072-0.246,0.109-0.421,0.109-0.525
					c0-0.041-0.018-0.076-0.052-0.104c-0.046-0.036-0.106-0.055-0.181-0.055c-0.049,0-0.136,0.011-0.264,0.031L88.912,39.396z"/>
			</g>
			<g>
				<path d="M53.232,10.985c-0.169,0.204-0.34,0.353-0.513,0.448c-0.172,0.095-0.355,0.143-0.547,0.143
					c-0.231,0-0.412-0.065-0.541-0.195c-0.13-0.13-0.194-0.305-0.194-0.525c0-0.249,0.069-0.494,0.209-0.735
					c0.139-0.241,0.326-0.437,0.562-0.587c0.235-0.151,0.466-0.226,0.692-0.226c0.177,0,0.31,0.037,0.398,0.111
					c0.088,0.074,0.132,0.165,0.132,0.272c0,0.101-0.031,0.187-0.093,0.259c-0.045,0.055-0.102,0.083-0.168,0.083
					c-0.05,0-0.092-0.016-0.125-0.049c-0.034-0.033-0.05-0.073-0.05-0.122c0-0.031,0.006-0.06,0.018-0.085
					c0.013-0.026,0.038-0.057,0.076-0.094c0.038-0.036,0.061-0.063,0.069-0.079s0.012-0.033,0.012-0.051
					c0-0.034-0.016-0.063-0.046-0.085c-0.047-0.033-0.114-0.049-0.2-0.049c-0.16,0-0.317,0.056-0.474,0.168s-0.29,0.272-0.4,0.479
					c-0.133,0.25-0.2,0.501-0.2,0.752c0,0.166,0.047,0.297,0.142,0.394c0.094,0.097,0.223,0.146,0.386,0.146
					c0.125,0,0.25-0.031,0.372-0.094c0.123-0.063,0.261-0.176,0.414-0.341L53.232,10.985z"/>
				<path d="M55.849,9.367l-0.425,1.455c-0.063,0.216-0.095,0.353-0.095,0.41c0,0.029,0.005,0.051,0.016,0.065
					c0.01,0.014,0.024,0.021,0.042,0.021c0.028,0,0.058-0.013,0.091-0.038c0.034-0.025,0.118-0.125,0.253-0.301l0.073,0.056
					c-0.128,0.204-0.26,0.353-0.396,0.449c-0.089,0.062-0.176,0.093-0.259,0.093c-0.063,0-0.113-0.018-0.149-0.054
					s-0.054-0.082-0.054-0.139c0-0.055,0.011-0.128,0.032-0.22c0.026-0.121,0.1-0.382,0.222-0.786
					c-0.277,0.454-0.508,0.768-0.695,0.94c-0.186,0.172-0.359,0.259-0.519,0.259c-0.075,0-0.138-0.026-0.19-0.078
					S53.72,11.38,53.72,11.3c0-0.122,0.036-0.309,0.107-0.562l0.212-0.754c0.052-0.181,0.078-0.293,0.078-0.337
					c0-0.02-0.007-0.036-0.021-0.05c-0.014-0.014-0.029-0.021-0.045-0.021c-0.034,0-0.068,0.012-0.103,0.037
					s-0.111,0.115-0.232,0.271l-0.076-0.054c0.122-0.189,0.251-0.328,0.388-0.417c0.104-0.07,0.2-0.105,0.288-0.105
					c0.06,0,0.109,0.019,0.148,0.057c0.038,0.039,0.057,0.088,0.057,0.148c0,0.088-0.033,0.245-0.098,0.471l-0.229,0.789
					c-0.063,0.215-0.095,0.351-0.095,0.408c0,0.031,0.01,0.056,0.03,0.074c0.021,0.019,0.048,0.028,0.082,0.028
					c0.054,0,0.124-0.027,0.21-0.081s0.201-0.173,0.346-0.358c0.144-0.185,0.263-0.358,0.356-0.52
					c0.093-0.162,0.193-0.42,0.299-0.773l0.054-0.186H55.849z"/>
				<path d="M56.231,9.445l0.842-0.137l-0.352,1.187c0.285-0.487,0.543-0.827,0.776-1.021c0.132-0.111,0.239-0.166,0.322-0.166
					c0.054,0,0.096,0.016,0.127,0.047c0.031,0.032,0.046,0.078,0.046,0.138c0,0.107-0.028,0.21-0.083,0.308
					c-0.039,0.073-0.095,0.11-0.168,0.11c-0.038,0-0.07-0.012-0.096-0.037c-0.027-0.024-0.044-0.062-0.05-0.112
					c-0.003-0.031-0.011-0.051-0.022-0.061c-0.013-0.013-0.028-0.02-0.046-0.02c-0.028,0-0.054,0.006-0.078,0.02
					c-0.042,0.023-0.106,0.086-0.193,0.19c-0.135,0.16-0.282,0.366-0.439,0.62c-0.068,0.107-0.127,0.229-0.176,0.364
					c-0.068,0.186-0.107,0.297-0.117,0.334l-0.078,0.308h-0.374l0.452-1.516c0.052-0.176,0.078-0.301,0.078-0.376
					c0-0.029-0.012-0.054-0.037-0.073c-0.033-0.026-0.076-0.039-0.129-0.039c-0.034,0-0.097,0.007-0.188,0.022L56.231,9.445z"/>
				<path d="M58.152,9.445l0.842-0.137l-0.352,1.187c0.285-0.487,0.543-0.827,0.776-1.021c0.132-0.111,0.239-0.166,0.322-0.166
					c0.054,0,0.096,0.016,0.127,0.047c0.031,0.032,0.046,0.078,0.046,0.138c0,0.107-0.028,0.21-0.083,0.308
					c-0.039,0.073-0.095,0.11-0.168,0.11c-0.038,0-0.069-0.012-0.097-0.037c-0.026-0.024-0.043-0.062-0.05-0.112
					c-0.003-0.031-0.011-0.051-0.022-0.061c-0.013-0.013-0.028-0.02-0.046-0.02c-0.028,0-0.054,0.006-0.078,0.02
					c-0.042,0.023-0.106,0.086-0.193,0.19c-0.135,0.16-0.282,0.366-0.439,0.62c-0.068,0.107-0.127,0.229-0.176,0.364
					c-0.068,0.186-0.107,0.297-0.117,0.334l-0.078,0.308h-0.374l0.452-1.516c0.052-0.176,0.078-0.301,0.078-0.376
					c0-0.029-0.012-0.054-0.037-0.073c-0.033-0.026-0.076-0.039-0.129-0.039c-0.034,0-0.097,0.007-0.188,0.022L58.152,9.445z"/>
			</g>
			<g>
				<path d="M102.292,18.913l-0.693,2.4l0.278-0.237c0.305-0.257,0.502-0.448,0.594-0.571c0.029-0.041,0.043-0.072,0.043-0.093
					c0-0.015-0.004-0.028-0.014-0.042s-0.029-0.023-0.058-0.032s-0.079-0.012-0.15-0.012h-0.085l0.026-0.093h1.067l-0.025,0.093
					c-0.121,0.006-0.227,0.026-0.315,0.057c-0.089,0.032-0.175,0.079-0.258,0.141c-0.164,0.122-0.272,0.207-0.325,0.254
					l-0.209,0.186c0.035,0.117,0.079,0.281,0.131,0.491c0.088,0.348,0.147,0.555,0.179,0.62c0.031,0.065,0.063,0.098,0.095,0.098
					c0.028,0,0.061-0.014,0.098-0.041c0.085-0.062,0.176-0.16,0.271-0.295l0.086,0.061c-0.178,0.223-0.313,0.37-0.408,0.44
					c-0.095,0.071-0.181,0.106-0.259,0.106c-0.068,0-0.121-0.027-0.159-0.08c-0.064-0.097-0.173-0.475-0.324-1.136l-0.334,0.291
					l-0.252,0.867h-0.381l0.811-2.786l0.068-0.237c0.008-0.041,0.012-0.077,0.012-0.107c0-0.039-0.015-0.072-0.045-0.098
					s-0.073-0.039-0.131-0.039c-0.037,0-0.097,0.008-0.178,0.024v-0.085L102.292,18.913z"/>
				<path d="M124.981,18.913l-0.693,2.4l0.278-0.237c0.305-0.257,0.502-0.448,0.594-0.571c0.029-0.041,0.043-0.072,0.043-0.093
					c0-0.015-0.004-0.028-0.014-0.042s-0.029-0.023-0.058-0.032s-0.079-0.012-0.15-0.012h-0.085l0.026-0.093h1.067l-0.025,0.093
					c-0.121,0.006-0.227,0.026-0.315,0.057c-0.089,0.032-0.175,0.079-0.258,0.141c-0.164,0.122-0.272,0.207-0.325,0.254
					l-0.209,0.186c0.035,0.117,0.079,0.281,0.131,0.491c0.088,0.348,0.147,0.555,0.179,0.62c0.031,0.065,0.063,0.098,0.095,0.098
					c0.028,0,0.061-0.014,0.098-0.041c0.085-0.062,0.176-0.16,0.271-0.295l0.086,0.061c-0.178,0.223-0.313,0.37-0.408,0.44
					c-0.095,0.071-0.181,0.106-0.259,0.106c-0.068,0-0.121-0.027-0.159-0.08c-0.064-0.097-0.173-0.475-0.324-1.136l-0.334,0.291
					l-0.252,0.867H123.6l0.811-2.786l0.068-0.237c0.008-0.041,0.012-0.077,0.012-0.107c0-0.039-0.015-0.072-0.045-0.098
					s-0.073-0.039-0.131-0.039c-0.037,0-0.097,0.008-0.178,0.024v-0.085L124.981,18.913z"/>
			</g>
			<path d="M14.108,25.956h6.153v-0.563h-6.153V25.956z M14.108,28.151h6.153v-0.564h-6.153V28.151z"/>
			<rect x="107.796" y="14.128" width="6.152" height="0.564"/>
			<path d="M89.438,21.079c-0.288-0.771-0.504-1.72-0.636-2.887c-0.144-1.167-0.216-2.452-0.216-3.896
				c0-1.266,0.072-2.472,0.229-3.639c0.155-1.187,0.384-2.136,0.695-2.907c0.3-0.751,0.695-1.345,1.175-1.8V5.555
				c-0.959,0.712-1.738,1.879-2.326,3.521c-0.6,1.661-0.899,3.48-0.899,5.478c0,1.918,0.288,3.698,0.852,5.319
				c0.563,1.622,1.355,2.848,2.374,3.679v-0.416C90.146,22.522,89.726,21.83,89.438,21.079L89.438,21.079z M130.526,8.027
				c0.288,0.751,0.504,1.72,0.647,2.887c0.132,1.147,0.204,2.452,0.204,3.876c0,1.285-0.072,2.492-0.229,3.658
				c-0.144,1.167-0.371,2.136-0.684,2.888c-0.312,0.771-0.707,1.364-1.187,1.799v0.416c0.959-0.712,1.738-1.879,2.326-3.54
				c0.6-1.642,0.899-3.461,0.899-5.458c0-1.938-0.288-3.698-0.852-5.319c-0.563-1.622-1.355-2.848-2.374-3.679V5.95
				C129.818,6.563,130.238,7.256,130.526,8.027L130.526,8.027z"/>
			<path d="M50.112,20.537h3.593v-0.329h-3.593V20.537z M50.112,21.818h3.593v-0.329h-3.593V21.818z M79.303,20.537h3.593v-0.329
				h-3.593V20.537z M79.303,21.818h3.593v-0.329h-3.593V21.818z"/>
			<path d="M44.794,18.694l-0.342-0.054c-0.144,0.594-0.324,1.044-0.541,1.333c-0.234,0.288-0.504,0.486-0.846,0.594
				c-0.486,0.162-0.936,0.234-1.35,0.234h-7.202l5.545-6.824L35.09,7.909h6.536c0.648,0,1.152,0.18,1.495,0.522
				c0.36,0.342,0.594,0.918,0.684,1.729h0.36L43.93,7.207H32.677v0.324l5.906,7.202l-5.906,7.292v0.324h11.56L44.794,18.694z
				 M73.864,18.694l-0.342-0.054c-0.145,0.594-0.324,1.044-0.54,1.333c-0.234,0.288-0.504,0.486-0.847,0.594
				c-0.486,0.162-0.937,0.234-1.351,0.234h-7.202l5.545-6.824L64.16,7.909h6.536c0.648,0,1.152,0.18,1.495,0.522
				c0.359,0.342,0.594,0.918,0.684,1.729h0.36L73,7.207H61.747v0.324l5.906,7.202l-5.906,7.292v0.324h11.56L73.864,18.694z"/>
			<g>
				<path d="M54.275,18.625l1.128-0.55h0.113v3.914c0,0.26,0.011,0.421,0.033,0.484c0.021,0.064,0.066,0.113,0.135,0.147
					s0.208,0.054,0.417,0.058v0.127h-1.743v-0.127c0.219-0.004,0.36-0.022,0.424-0.056s0.108-0.078,0.133-0.134
					s0.038-0.223,0.038-0.5v-2.502c0-0.337-0.011-0.554-0.034-0.649c-0.016-0.073-0.045-0.126-0.087-0.161
					c-0.042-0.034-0.093-0.051-0.152-0.051c-0.084,0-0.202,0.035-0.352,0.106L54.275,18.625z"/>
				<path d="M83.466,18.625l1.128-0.55h0.113v3.914c0,0.26,0.011,0.421,0.032,0.484c0.021,0.064,0.066,0.113,0.135,0.147
					s0.207,0.054,0.417,0.058v0.127h-1.743v-0.127c0.219-0.004,0.36-0.022,0.424-0.056s0.108-0.078,0.134-0.134
					c0.024-0.056,0.037-0.223,0.037-0.5v-2.502c0-0.337-0.012-0.554-0.034-0.649c-0.016-0.073-0.045-0.126-0.087-0.161
					s-0.093-0.051-0.152-0.051c-0.084,0-0.201,0.035-0.352,0.106L83.466,18.625z"/>
			</g>
			<g>
				<path d="M136.447,7.397l-0.324,0.892h-2.734V8.163c0.805-0.734,1.371-1.333,1.699-1.798s0.492-0.89,0.492-1.275
					c0-0.294-0.091-0.536-0.271-0.725s-0.396-0.284-0.646-0.284c-0.229,0-0.433,0.067-0.614,0.2
					c-0.181,0.134-0.314,0.329-0.401,0.586h-0.127c0.058-0.421,0.204-0.745,0.439-0.971c0.236-0.226,0.53-0.338,0.884-0.338
					c0.376,0,0.689,0.121,0.941,0.362s0.378,0.526,0.378,0.854c0,0.235-0.055,0.469-0.164,0.704c-0.169,0.369-0.442,0.76-0.82,1.172
					c-0.567,0.62-0.922,0.994-1.063,1.121h1.209c0.246,0,0.419-0.009,0.519-0.027c0.099-0.018,0.188-0.055,0.269-0.111
					c0.079-0.056,0.148-0.135,0.208-0.238H136.447z"/>
			</g>
			<g>
				<path d="M83.664,32.936l-0.324,0.893h-2.734v-0.127c0.805-0.733,1.371-1.332,1.699-1.797s0.492-0.891,0.492-1.275
					c0-0.294-0.091-0.535-0.271-0.725s-0.396-0.283-0.646-0.283c-0.229,0-0.433,0.066-0.614,0.199
					c-0.181,0.134-0.314,0.329-0.401,0.586h-0.127c0.058-0.421,0.204-0.744,0.439-0.971c0.236-0.225,0.53-0.338,0.884-0.338
					c0.376,0,0.689,0.121,0.941,0.362s0.378,0.526,0.378,0.854c0,0.234-0.055,0.47-0.164,0.704c-0.169,0.369-0.442,0.76-0.82,1.173
					c-0.567,0.619-0.922,0.993-1.063,1.121h1.209c0.246,0,0.419-0.01,0.519-0.027c0.099-0.019,0.188-0.056,0.269-0.111
					c0.079-0.056,0.148-0.135,0.208-0.238H83.664z"/>
			</g>
		</g>
	</g>
</g>
</svg>
