<?xml version="1.0" encoding="utf-8"?>
<!-- Generator: Adobe Illustrator 14.0.0, SVG Export Plug-In . SVG Version: 6.00 Build 43363)  -->
<!DOCTYPE svg PUBLIC "-//W3C//DTD SVG 1.1//EN" "http://www.w3.org/Graphics/SVG/1.1/DTD/svg11.dtd">
<svg version="1.1" id="Layer_1" xmlns="http://www.w3.org/2000/svg" xmlns:xlink="http://www.w3.org/1999/xlink" x="0px" y="0px"
	 width="12.005px" height="12.005px" viewBox="0 0 12.005 12.005" enable-background="new 0 0 12.005 12.005" xml:space="preserve">
<g>
	<path fill="#A5CE3A" d="M12.005,6.001c0,3.315-2.688,6.003-6.003,6.003C2.686,12.005,0,9.316,0,6.001C0,2.686,2.686,0,6.001,0
		C9.316,0,12.005,2.686,12.005,6.001z"/>
	<g>
		<path fill="#FFFFFF" d="M4.046,8.73H3.324V3.708h0.722v2.269V8.73z"/>
		<path fill="#FFFFFF" d="M5.106,3.708h1.95c1.857,0,2.674,1.328,2.674,2.513c0,1.289-1.009,2.514-2.665,2.514H5.106V3.708z
			 M5.828,8.084h1.149c1.636,0,2.011-1.245,2.011-1.862c0-1.008-0.643-1.862-2.049-1.862H5.828V8.084z"/>
		<path fill="#FFFFFF" d="M4.159,2.663c0,0.258-0.211,0.474-0.475,0.474c-0.262,0-0.473-0.216-0.473-0.474
			c0-0.262,0.211-0.474,0.473-0.474C3.948,2.189,4.159,2.405,4.159,2.663z"/>
	</g>
</g>
</svg>
